G04*
G04 #@! TF.GenerationSoftware,Altium Limited,Altium Designer,22.0.2 (36)*
G04*
G04 Layer_Color=128*
%FSLAX24Y24*%
%MOIN*%
G70*
G04*
G04 #@! TF.SameCoordinates,5AD8CBCB-7B86-44EA-BE16-98DFC8B2639C*
G04*
G04*
G04 #@! TF.FilePolarity,Positive*
G04*
G01*
G75*
%ADD17C,0.0100*%
%ADD59C,0.0020*%
D17*
X20079Y0D02*
G03*
X20472Y394I0J394D01*
G01*
Y19291D02*
G03*
X20079Y19685I-394J0D01*
G01*
X394D02*
G03*
X0Y19291I0J-394D01*
G01*
Y394D02*
G03*
X394Y0I394J0D01*
G01*
Y19685D02*
X20079D01*
X394Y0D02*
X20079D01*
X0Y394D02*
Y19291D01*
X20472Y394D02*
Y19291D01*
D59*
X14210Y1100D02*
X14330D01*
X14270Y1040D02*
Y1160D01*
X197Y19055D02*
X1063D01*
X630Y18622D02*
Y19488D01*
X13310Y1300D02*
X13430D01*
X13370Y1240D02*
Y1360D01*
X13670Y1300D02*
X13790D01*
X13730Y1240D02*
Y1360D01*
X14390Y1300D02*
X14510D01*
X14450Y1240D02*
Y1360D01*
X14750Y1300D02*
X14870D01*
X14810Y1240D02*
Y1360D01*
X15110Y1300D02*
X15230D01*
X15170Y1240D02*
Y1360D01*
X14030Y1300D02*
X14150D01*
X14090Y1240D02*
Y1360D01*
X13310Y1700D02*
X13430D01*
X13370Y1640D02*
Y1760D01*
X13670Y1700D02*
X13790D01*
X13730Y1640D02*
Y1760D01*
X14390Y1700D02*
X14510D01*
X14450Y1640D02*
Y1760D01*
X14750Y1700D02*
X14870D01*
X14810Y1640D02*
Y1760D01*
X15110Y1700D02*
X15230D01*
X15170Y1640D02*
Y1760D01*
X14030Y1700D02*
X14150D01*
X14090Y1640D02*
Y1760D01*
X13310Y500D02*
X13430D01*
X13370Y440D02*
Y560D01*
X13670Y500D02*
X13790D01*
X13730Y440D02*
Y560D01*
X14390Y500D02*
X14510D01*
X14450Y440D02*
Y560D01*
X14750Y500D02*
X14870D01*
X14810Y440D02*
Y560D01*
X15110Y500D02*
X15230D01*
X15170Y440D02*
Y560D01*
X14030Y500D02*
X14150D01*
X14090Y440D02*
Y560D01*
X13310Y900D02*
X13430D01*
X13370Y840D02*
Y960D01*
X13670Y900D02*
X13790D01*
X13730Y840D02*
Y960D01*
X14390Y900D02*
X14510D01*
X14450Y840D02*
Y960D01*
X14750Y900D02*
X14870D01*
X14810Y840D02*
Y960D01*
X15110Y900D02*
X15230D01*
X15170Y840D02*
Y960D01*
X14030Y900D02*
X14150D01*
X14090Y840D02*
Y960D01*
X6140Y1100D02*
X6260D01*
X6200Y1040D02*
Y1160D01*
X5240Y1300D02*
X5360D01*
X5300Y1240D02*
Y1360D01*
X5600Y1300D02*
X5720D01*
X5660Y1240D02*
Y1360D01*
X6320Y1300D02*
X6440D01*
X6380Y1240D02*
Y1360D01*
X6680Y1300D02*
X6800D01*
X6740Y1240D02*
Y1360D01*
X7040Y1300D02*
X7160D01*
X7100Y1240D02*
Y1360D01*
X5960Y1300D02*
X6080D01*
X6020Y1240D02*
Y1360D01*
X5240Y1700D02*
X5360D01*
X5300Y1640D02*
Y1760D01*
X5600Y1700D02*
X5720D01*
X5660Y1640D02*
Y1760D01*
X6320Y1700D02*
X6440D01*
X6380Y1640D02*
Y1760D01*
X6680Y1700D02*
X6800D01*
X6740Y1640D02*
Y1760D01*
X7040Y1700D02*
X7160D01*
X7100Y1640D02*
Y1760D01*
X5960Y1700D02*
X6080D01*
X6020Y1640D02*
Y1760D01*
X5240Y500D02*
X5360D01*
X5300Y440D02*
Y560D01*
X5600Y500D02*
X5720D01*
X5660Y440D02*
Y560D01*
X6320Y500D02*
X6440D01*
X6380Y440D02*
Y560D01*
X6680Y500D02*
X6800D01*
X6740Y440D02*
Y560D01*
X7040Y500D02*
X7160D01*
X7100Y440D02*
Y560D01*
X5960Y500D02*
X6080D01*
X6020Y440D02*
Y560D01*
X5240Y900D02*
X5360D01*
X5300Y840D02*
Y960D01*
X5600Y900D02*
X5720D01*
X5660Y840D02*
Y960D01*
X6320Y900D02*
X6440D01*
X6380Y840D02*
Y960D01*
X6680Y900D02*
X6800D01*
X6740Y840D02*
Y960D01*
X7040Y900D02*
X7160D01*
X7100Y840D02*
Y960D01*
X5960Y900D02*
X6080D01*
X6020Y840D02*
Y960D01*
X10210Y1100D02*
X10330D01*
X10270Y1040D02*
Y1160D01*
X9310Y1300D02*
X9430D01*
X9370Y1240D02*
Y1360D01*
X9670Y1300D02*
X9790D01*
X9730Y1240D02*
Y1360D01*
X10390Y1300D02*
X10510D01*
X10450Y1240D02*
Y1360D01*
X10750Y1300D02*
X10870D01*
X10810Y1240D02*
Y1360D01*
X11110Y1300D02*
X11230D01*
X11170Y1240D02*
Y1360D01*
X10030Y1300D02*
X10150D01*
X10090Y1240D02*
Y1360D01*
X9310Y1700D02*
X9430D01*
X9370Y1640D02*
Y1760D01*
X9670Y1700D02*
X9790D01*
X9730Y1640D02*
Y1760D01*
X10390Y1700D02*
X10510D01*
X10450Y1640D02*
Y1760D01*
X10750Y1700D02*
X10870D01*
X10810Y1640D02*
Y1760D01*
X11110Y1700D02*
X11230D01*
X11170Y1640D02*
Y1760D01*
X10030Y1700D02*
X10150D01*
X10090Y1640D02*
Y1760D01*
X9310Y500D02*
X9430D01*
X9370Y440D02*
Y560D01*
X9670Y500D02*
X9790D01*
X9730Y440D02*
Y560D01*
X10390Y500D02*
X10510D01*
X10450Y440D02*
Y560D01*
X10750Y500D02*
X10870D01*
X10810Y440D02*
Y560D01*
X11110Y500D02*
X11230D01*
X11170Y440D02*
Y560D01*
X10030Y500D02*
X10150D01*
X10090Y440D02*
Y560D01*
X9310Y900D02*
X9430D01*
X9370Y840D02*
Y960D01*
X9670Y900D02*
X9790D01*
X9730Y840D02*
Y960D01*
X10390Y900D02*
X10510D01*
X10450Y840D02*
Y960D01*
X10750Y900D02*
X10870D01*
X10810Y840D02*
Y960D01*
X11110Y900D02*
X11230D01*
X11170Y840D02*
Y960D01*
X10030Y900D02*
X10150D01*
X10090Y840D02*
Y960D01*
X8510Y18400D02*
X8630D01*
X8570Y18340D02*
Y18460D01*
X9590Y18400D02*
X9710D01*
X9650Y18340D02*
Y18460D01*
X9230Y18400D02*
X9350D01*
X9290Y18340D02*
Y18460D01*
X8870Y18400D02*
X8990D01*
X8930Y18340D02*
Y18460D01*
X8150Y18400D02*
X8270D01*
X8210Y18340D02*
Y18460D01*
X7790Y18400D02*
X7910D01*
X7850Y18340D02*
Y18460D01*
X8510Y18000D02*
X8630D01*
X8570Y17940D02*
Y18060D01*
X9590Y18000D02*
X9710D01*
X9650Y17940D02*
Y18060D01*
X9230Y18000D02*
X9350D01*
X9290Y17940D02*
Y18060D01*
X8870Y18000D02*
X8990D01*
X8930Y17940D02*
Y18060D01*
X8150Y18000D02*
X8270D01*
X8210Y17940D02*
Y18060D01*
X7790Y18000D02*
X7910D01*
X7850Y17940D02*
Y18060D01*
X8510Y19200D02*
X8630D01*
X8570Y19140D02*
Y19260D01*
X9590Y19200D02*
X9710D01*
X9650Y19140D02*
Y19260D01*
X9230Y19200D02*
X9350D01*
X9290Y19140D02*
Y19260D01*
X8870Y19200D02*
X8990D01*
X8930Y19140D02*
Y19260D01*
X8150Y19200D02*
X8270D01*
X8210Y19140D02*
Y19260D01*
X7790Y19200D02*
X7910D01*
X7850Y19140D02*
Y19260D01*
X8510Y18800D02*
X8630D01*
X8570Y18740D02*
Y18860D01*
X9590Y18800D02*
X9710D01*
X9650Y18740D02*
Y18860D01*
X9230Y18800D02*
X9350D01*
X9290Y18740D02*
Y18860D01*
X8870Y18800D02*
X8990D01*
X8930Y18740D02*
Y18860D01*
X8150Y18800D02*
X8270D01*
X8210Y18740D02*
Y18860D01*
X7790Y18800D02*
X7910D01*
X7850Y18740D02*
Y18860D01*
X8690Y18600D02*
X8810D01*
X8750Y18540D02*
Y18660D01*
X11440Y18400D02*
X11560D01*
X11500Y18340D02*
Y18460D01*
X12520Y18400D02*
X12640D01*
X12580Y18340D02*
Y18460D01*
X12160Y18400D02*
X12280D01*
X12220Y18340D02*
Y18460D01*
X11800Y18400D02*
X11920D01*
X11860Y18340D02*
Y18460D01*
X11080Y18400D02*
X11200D01*
X11140Y18340D02*
Y18460D01*
X10720Y18400D02*
X10840D01*
X10780Y18340D02*
Y18460D01*
X11440Y18000D02*
X11560D01*
X11500Y17940D02*
Y18060D01*
X12520Y18000D02*
X12640D01*
X12580Y17940D02*
Y18060D01*
X12160Y18000D02*
X12280D01*
X12220Y17940D02*
Y18060D01*
X11800Y18000D02*
X11920D01*
X11860Y17940D02*
Y18060D01*
X11080Y18000D02*
X11200D01*
X11140Y17940D02*
Y18060D01*
X10720Y18000D02*
X10840D01*
X10780Y17940D02*
Y18060D01*
X11440Y19200D02*
X11560D01*
X11500Y19140D02*
Y19260D01*
X12520Y19200D02*
X12640D01*
X12580Y19140D02*
Y19260D01*
X12160Y19200D02*
X12280D01*
X12220Y19140D02*
Y19260D01*
X11800Y19200D02*
X11920D01*
X11860Y19140D02*
Y19260D01*
X11080Y19200D02*
X11200D01*
X11140Y19140D02*
Y19260D01*
X10720Y19200D02*
X10840D01*
X10780Y19140D02*
Y19260D01*
X11440Y18800D02*
X11560D01*
X11500Y18740D02*
Y18860D01*
X12520Y18800D02*
X12640D01*
X12580Y18740D02*
Y18860D01*
X12160Y18800D02*
X12280D01*
X12220Y18740D02*
Y18860D01*
X11800Y18800D02*
X11920D01*
X11860Y18740D02*
Y18860D01*
X11080Y18800D02*
X11200D01*
X11140Y18740D02*
Y18860D01*
X10720Y18800D02*
X10840D01*
X10780Y18740D02*
Y18860D01*
X11620Y18600D02*
X11740D01*
X11680Y18540D02*
Y18660D01*
X11049Y15450D02*
X11364D01*
X11206Y15293D02*
Y15607D01*
X9080Y15450D02*
X9395D01*
X9238Y15293D02*
Y15607D01*
X19409Y19055D02*
X20276D01*
X19843Y18622D02*
Y19488D01*
X19409Y630D02*
X20276D01*
X19843Y197D02*
Y1063D01*
X197Y630D02*
X1063D01*
X630Y197D02*
Y1063D01*
X15640Y2300D02*
X15760D01*
X15700Y2240D02*
Y2360D01*
X15640Y2600D02*
X15760D01*
X15700Y2540D02*
Y2660D01*
X15640Y2900D02*
X15760D01*
X15700Y2840D02*
Y2960D01*
X15940Y2900D02*
X16060D01*
X16000Y2840D02*
Y2960D01*
X15940Y2600D02*
X16060D01*
X16000Y2540D02*
Y2660D01*
X15940Y2300D02*
X16060D01*
X16000Y2240D02*
Y2360D01*
X15940Y2000D02*
X16060D01*
X16000Y1940D02*
Y2060D01*
X15940Y1700D02*
X16060D01*
X16000Y1640D02*
Y1760D01*
X15940Y1400D02*
X16060D01*
X16000Y1340D02*
Y1460D01*
X15940Y1100D02*
X16060D01*
X16000Y1040D02*
Y1160D01*
X15940Y800D02*
X16060D01*
X16000Y740D02*
Y860D01*
X15940Y500D02*
X16060D01*
X16000Y440D02*
Y560D01*
X15940Y500D02*
X16060D01*
X16000Y440D02*
Y560D01*
X11620Y2300D02*
X11740D01*
X11680Y2240D02*
Y2360D01*
X11620Y2600D02*
X11740D01*
X11680Y2540D02*
Y2660D01*
X11620Y2900D02*
X11740D01*
X11680Y2840D02*
Y2960D01*
X11920Y2300D02*
X12040D01*
X11980Y2240D02*
Y2360D01*
X11920Y2600D02*
X12040D01*
X11980Y2540D02*
Y2660D01*
X11920Y2900D02*
X12040D01*
X11980Y2840D02*
Y2960D01*
X11920Y2900D02*
X12040D01*
X11980Y2840D02*
Y2960D01*
X11920Y2600D02*
X12040D01*
X11980Y2540D02*
Y2660D01*
X11920Y2300D02*
X12040D01*
X11980Y2240D02*
Y2360D01*
X11920Y2000D02*
X12040D01*
X11980Y1940D02*
Y2060D01*
X11920Y1700D02*
X12040D01*
X11980Y1640D02*
Y1760D01*
X11920Y1400D02*
X12040D01*
X11980Y1340D02*
Y1460D01*
X11920Y1100D02*
X12040D01*
X11980Y1040D02*
Y1160D01*
X11920Y800D02*
X12040D01*
X11980Y740D02*
Y860D01*
X11920Y500D02*
X12040D01*
X11980Y440D02*
Y560D01*
X7540Y2300D02*
X7660D01*
X7600Y2240D02*
Y2360D01*
X7540Y2600D02*
X7660D01*
X7600Y2540D02*
Y2660D01*
X7540Y2900D02*
X7660D01*
X7600Y2840D02*
Y2960D01*
X8470Y2900D02*
X8590D01*
X8530Y2840D02*
Y2960D01*
X7840Y2900D02*
X7960D01*
X7900Y2840D02*
Y2960D01*
X7840Y2600D02*
X7960D01*
X7900Y2540D02*
Y2660D01*
X7840Y2300D02*
X7960D01*
X7900Y2240D02*
Y2360D01*
X7840Y2000D02*
X7960D01*
X7900Y1940D02*
Y2060D01*
X7840Y1700D02*
X7960D01*
X7900Y1640D02*
Y1760D01*
X7840Y1400D02*
X7960D01*
X7900Y1340D02*
Y1460D01*
X7840Y1100D02*
X7960D01*
X7900Y1040D02*
Y1160D01*
X7840Y800D02*
X7960D01*
X7900Y740D02*
Y860D01*
X7840Y500D02*
X7960D01*
X7900Y440D02*
Y560D01*
X12790Y2300D02*
X12910D01*
X12850Y2240D02*
Y2360D01*
X12790Y2600D02*
X12910D01*
X12850Y2540D02*
Y2660D01*
X12790Y2900D02*
X12910D01*
X12850Y2840D02*
Y2960D01*
X12490Y2300D02*
X12610D01*
X12550Y2240D02*
Y2360D01*
X12490Y2600D02*
X12610D01*
X12550Y2540D02*
Y2660D01*
X12490Y2900D02*
X12610D01*
X12550Y2840D02*
Y2960D01*
X8770Y2900D02*
X8890D01*
X8830Y2840D02*
Y2960D01*
X12490Y2900D02*
X12610D01*
X12550Y2840D02*
Y2960D01*
X12490Y2600D02*
X12610D01*
X12550Y2540D02*
Y2660D01*
X12490Y2300D02*
X12610D01*
X12550Y2240D02*
Y2360D01*
X12490Y2000D02*
X12610D01*
X12550Y1940D02*
Y2060D01*
X12490Y1700D02*
X12610D01*
X12550Y1640D02*
Y1760D01*
X12490Y1400D02*
X12610D01*
X12550Y1340D02*
Y1460D01*
X12490Y1100D02*
X12610D01*
X12550Y1040D02*
Y1160D01*
X12490Y800D02*
X12610D01*
X12550Y740D02*
Y860D01*
X12490Y500D02*
X12610D01*
X12550Y440D02*
Y560D01*
X8770Y2300D02*
X8890D01*
X8830Y2240D02*
Y2360D01*
X8770Y2600D02*
X8890D01*
X8830Y2540D02*
Y2660D01*
X8470Y2300D02*
X8590D01*
X8530Y2240D02*
Y2360D01*
X8470Y2600D02*
X8590D01*
X8530Y2540D02*
Y2660D01*
X8470Y2000D02*
X8590D01*
X8530Y1940D02*
Y2060D01*
X8470Y1700D02*
X8590D01*
X8530Y1640D02*
Y1760D01*
X8470Y1400D02*
X8590D01*
X8530Y1340D02*
Y1460D01*
X8470Y1100D02*
X8590D01*
X8530Y1040D02*
Y1160D01*
X8470Y800D02*
X8590D01*
X8530Y740D02*
Y860D01*
X8470Y500D02*
X8590D01*
X8530Y440D02*
Y560D01*
X4740Y2300D02*
X4860D01*
X4800Y2240D02*
Y2360D01*
X4740Y2600D02*
X4860D01*
X4800Y2540D02*
Y2660D01*
X4740Y2900D02*
X4860D01*
X4800Y2840D02*
Y2960D01*
X4440Y2900D02*
X4560D01*
X4500Y2840D02*
Y2960D01*
X4440Y2600D02*
X4560D01*
X4500Y2540D02*
Y2660D01*
X4440Y2300D02*
X4560D01*
X4500Y2240D02*
Y2360D01*
X4440Y2000D02*
X4560D01*
X4500Y1940D02*
Y2060D01*
X4440Y1700D02*
X4560D01*
X4500Y1640D02*
Y1760D01*
X4440Y1400D02*
X4560D01*
X4500Y1340D02*
Y1460D01*
X4440Y1100D02*
X4560D01*
X4500Y1040D02*
Y1160D01*
X4440Y800D02*
X4560D01*
X4500Y740D02*
Y860D01*
X4440Y500D02*
X4560D01*
X4500Y440D02*
Y560D01*
X16690Y6800D02*
X16810D01*
X16750Y6740D02*
Y6860D01*
X16390Y6800D02*
X16510D01*
X16450Y6740D02*
Y6860D01*
X18990Y8200D02*
X19110D01*
X19050Y8140D02*
Y8260D01*
X18740Y8200D02*
X18860D01*
X18800Y8140D02*
Y8260D01*
X20140Y7800D02*
X20260D01*
X20200Y7740D02*
Y7860D01*
X19390Y7800D02*
X19510D01*
X19450Y7740D02*
Y7860D01*
X20140Y6950D02*
X20260D01*
X20200Y6890D02*
Y7010D01*
X20140Y7350D02*
X20260D01*
X20200Y7290D02*
Y7410D01*
X19765Y6950D02*
X19885D01*
X19825Y6890D02*
Y7010D01*
X19765Y7350D02*
X19885D01*
X19825Y7290D02*
Y7410D01*
X19390Y7350D02*
X19510D01*
X19450Y7290D02*
Y7410D01*
X19390Y6950D02*
X19510D01*
X19450Y6890D02*
Y7010D01*
X20040Y5350D02*
X20160D01*
X20100Y5290D02*
Y5410D01*
X20040Y4750D02*
X20160D01*
X20100Y4690D02*
Y4810D01*
X18540Y4450D02*
X18660D01*
X18600Y4390D02*
Y4510D01*
X18540Y4150D02*
X18660D01*
X18600Y4090D02*
Y4210D01*
X19140Y4150D02*
X19260D01*
X19200Y4090D02*
Y4210D01*
X19740Y4150D02*
X19860D01*
X19800Y4090D02*
Y4210D01*
X19740Y4450D02*
X19860D01*
X19800Y4390D02*
Y4510D01*
X19140Y4450D02*
X19260D01*
X19200Y4390D02*
Y4510D01*
X18289Y7501D02*
X18409D01*
X18349Y7441D02*
Y7561D01*
X13040Y4250D02*
X13160D01*
X13100Y4190D02*
Y4310D01*
X9040Y4250D02*
X9160D01*
X9100Y4190D02*
Y4310D01*
X4990Y4250D02*
X5110D01*
X5050Y4190D02*
Y4310D01*
X18234Y5026D02*
X18354D01*
X18294Y4966D02*
Y5086D01*
X18234Y5341D02*
X18354D01*
X18294Y5281D02*
Y5401D01*
X18234Y5656D02*
X18354D01*
X18294Y5596D02*
Y5716D01*
X16910Y6050D02*
X17090D01*
X17000Y5960D02*
Y6140D01*
X13095Y5100D02*
X13255D01*
X13175Y5020D02*
Y5180D01*
X9070Y5100D02*
X9230D01*
X9150Y5020D02*
Y5180D01*
X5070Y5100D02*
X5230D01*
X5150Y5020D02*
Y5180D01*
X15390Y4369D02*
X15510D01*
X15450Y4309D02*
Y4429D01*
X11390Y4369D02*
X11510D01*
X11450Y4309D02*
Y4429D01*
X7340Y4369D02*
X7460D01*
X7400Y4309D02*
Y4429D01*
X19340Y12400D02*
X19460D01*
X19400Y12340D02*
Y12460D01*
X3234Y4711D02*
X3354D01*
X3294Y4651D02*
Y4771D01*
X1558Y4711D02*
X1678D01*
X1618Y4651D02*
Y4771D01*
X1558Y5026D02*
X1678D01*
X1618Y4966D02*
Y5086D01*
X13390Y6800D02*
X13510D01*
X13450Y6740D02*
Y6860D01*
X13690Y6800D02*
X13810D01*
X13750Y6740D02*
Y6860D01*
X13990Y6800D02*
X14110D01*
X14050Y6740D02*
Y6860D01*
X14290Y6800D02*
X14410D01*
X14350Y6740D02*
Y6860D01*
X14590Y6800D02*
X14710D01*
X14650Y6740D02*
Y6860D01*
X14890Y6800D02*
X15010D01*
X14950Y6740D02*
Y6860D01*
X15190Y6800D02*
X15310D01*
X15250Y6740D02*
Y6860D01*
X15490Y6800D02*
X15610D01*
X15550Y6740D02*
Y6860D01*
X15790Y6800D02*
X15910D01*
X15850Y6740D02*
Y6860D01*
X16090Y6800D02*
X16210D01*
X16150Y6740D02*
Y6860D01*
X16690Y7100D02*
X16810D01*
X16750Y7040D02*
Y7160D01*
X16390Y7100D02*
X16510D01*
X16450Y7040D02*
Y7160D01*
X16090Y7100D02*
X16210D01*
X16150Y7040D02*
Y7160D01*
X15790Y7100D02*
X15910D01*
X15850Y7040D02*
Y7160D01*
X15490Y7100D02*
X15610D01*
X15550Y7040D02*
Y7160D01*
X15190Y7100D02*
X15310D01*
X15250Y7040D02*
Y7160D01*
X14890Y7100D02*
X15010D01*
X14950Y7040D02*
Y7160D01*
X14590Y7100D02*
X14710D01*
X14650Y7040D02*
Y7160D01*
X14290Y7100D02*
X14410D01*
X14350Y7040D02*
Y7160D01*
X13990Y7100D02*
X14110D01*
X14050Y7040D02*
Y7160D01*
X13690Y7100D02*
X13810D01*
X13750Y7040D02*
Y7160D01*
X8990Y6800D02*
X9110D01*
X9050Y6740D02*
Y6860D01*
X9290Y6800D02*
X9410D01*
X9350Y6740D02*
Y6860D01*
X9590Y6800D02*
X9710D01*
X9650Y6740D02*
Y6860D01*
X9890Y6800D02*
X10010D01*
X9950Y6740D02*
Y6860D01*
X10190Y6800D02*
X10310D01*
X10250Y6740D02*
Y6860D01*
X10490Y6800D02*
X10610D01*
X10550Y6740D02*
Y6860D01*
X10790Y6800D02*
X10910D01*
X10850Y6740D02*
Y6860D01*
X11090Y6800D02*
X11210D01*
X11150Y6740D02*
Y6860D01*
X11390Y6800D02*
X11510D01*
X11450Y6740D02*
Y6860D01*
X11690Y6800D02*
X11810D01*
X11750Y6740D02*
Y6860D01*
X11990Y6800D02*
X12110D01*
X12050Y6740D02*
Y6860D01*
X10190Y7100D02*
X10310D01*
X10250Y7040D02*
Y7160D01*
X11990Y7100D02*
X12110D01*
X12050Y7040D02*
Y7160D01*
X11690Y7100D02*
X11810D01*
X11750Y7040D02*
Y7160D01*
X11390Y7100D02*
X11510D01*
X11450Y7040D02*
Y7160D01*
X11090Y7100D02*
X11210D01*
X11150Y7040D02*
Y7160D01*
X10790Y7100D02*
X10910D01*
X10850Y7040D02*
Y7160D01*
X10490Y7100D02*
X10610D01*
X10550Y7040D02*
Y7160D01*
X9890Y7100D02*
X10010D01*
X9950Y7040D02*
Y7160D01*
X9590Y7100D02*
X9710D01*
X9650Y7040D02*
Y7160D01*
X9290Y7100D02*
X9410D01*
X9350Y7040D02*
Y7160D01*
X8990Y7100D02*
X9110D01*
X9050Y7040D02*
Y7160D01*
X4190Y6800D02*
X4310D01*
X4250Y6740D02*
Y6860D01*
X4490Y6800D02*
X4610D01*
X4550Y6740D02*
Y6860D01*
X4790Y6800D02*
X4910D01*
X4850Y6740D02*
Y6860D01*
X5090Y6800D02*
X5210D01*
X5150Y6740D02*
Y6860D01*
X5390Y6800D02*
X5510D01*
X5450Y6740D02*
Y6860D01*
X5690Y6800D02*
X5810D01*
X5750Y6740D02*
Y6860D01*
X5990Y6800D02*
X6110D01*
X6050Y6740D02*
Y6860D01*
X6290Y6800D02*
X6410D01*
X6350Y6740D02*
Y6860D01*
X6590Y6800D02*
X6710D01*
X6650Y6740D02*
Y6860D01*
X6890Y6800D02*
X7010D01*
X6950Y6740D02*
Y6860D01*
X7190Y6800D02*
X7310D01*
X7250Y6740D02*
Y6860D01*
X4190Y7100D02*
X4310D01*
X4250Y7040D02*
Y7160D01*
X4490Y7100D02*
X4610D01*
X4550Y7040D02*
Y7160D01*
X5090Y7100D02*
X5210D01*
X5150Y7040D02*
Y7160D01*
X5390Y7100D02*
X5510D01*
X5450Y7040D02*
Y7160D01*
X5690Y7100D02*
X5810D01*
X5750Y7040D02*
Y7160D01*
X7190Y7100D02*
X7310D01*
X7250Y7040D02*
Y7160D01*
X6890Y7100D02*
X7010D01*
X6950Y7040D02*
Y7160D01*
X6590Y7100D02*
X6710D01*
X6650Y7040D02*
Y7160D01*
X6290Y7100D02*
X6410D01*
X6350Y7040D02*
Y7160D01*
X5990Y7100D02*
X6110D01*
X6050Y7040D02*
Y7160D01*
X4790Y7100D02*
X4910D01*
X4850Y7040D02*
Y7160D01*
X2390Y10300D02*
X2510D01*
X2450Y10240D02*
Y10360D01*
X1490Y10300D02*
X1610D01*
X1550Y10240D02*
Y10360D01*
X1190Y10300D02*
X1310D01*
X1250Y10240D02*
Y10360D01*
X890Y10300D02*
X1010D01*
X950Y10240D02*
Y10360D01*
X590Y10300D02*
X710D01*
X650Y10240D02*
Y10360D01*
X2090Y10300D02*
X2210D01*
X2150Y10240D02*
Y10360D01*
X1790Y10300D02*
X1910D01*
X1850Y10240D02*
Y10360D01*
X2390Y10600D02*
X2510D01*
X2450Y10540D02*
Y10660D01*
X1490Y10600D02*
X1610D01*
X1550Y10540D02*
Y10660D01*
X1190Y10600D02*
X1310D01*
X1250Y10540D02*
Y10660D01*
X890Y10600D02*
X1010D01*
X950Y10540D02*
Y10660D01*
X590Y10600D02*
X710D01*
X650Y10540D02*
Y10660D01*
X2090Y10600D02*
X2210D01*
X2150Y10540D02*
Y10660D01*
X1790Y10600D02*
X1910D01*
X1850Y10540D02*
Y10660D01*
X2390Y10900D02*
X2510D01*
X2450Y10840D02*
Y10960D01*
X1490Y10900D02*
X1610D01*
X1550Y10840D02*
Y10960D01*
X1190Y10900D02*
X1310D01*
X1250Y10840D02*
Y10960D01*
X890Y10900D02*
X1010D01*
X950Y10840D02*
Y10960D01*
X590Y10900D02*
X710D01*
X650Y10840D02*
Y10960D01*
X2090Y10900D02*
X2210D01*
X2150Y10840D02*
Y10960D01*
X1790Y10900D02*
X1910D01*
X1850Y10840D02*
Y10960D01*
X1490Y11200D02*
X1610D01*
X1550Y11140D02*
Y11260D01*
X1190Y11200D02*
X1310D01*
X1250Y11140D02*
Y11260D01*
X1790Y11200D02*
X1910D01*
X1850Y11140D02*
Y11260D01*
X18140Y10000D02*
X18260D01*
X18200Y9940D02*
Y10060D01*
X18440Y10000D02*
X18560D01*
X18500Y9940D02*
Y10060D01*
X18740Y10000D02*
X18860D01*
X18800Y9940D02*
Y10060D01*
X19040Y10000D02*
X19160D01*
X19100Y9940D02*
Y10060D01*
X19340Y10000D02*
X19460D01*
X19400Y9940D02*
Y10060D01*
X19640Y10000D02*
X19760D01*
X19700Y9940D02*
Y10060D01*
X18140Y10300D02*
X18260D01*
X18200Y10240D02*
Y10360D01*
X18440Y10300D02*
X18560D01*
X18500Y10240D02*
Y10360D01*
X18740Y10300D02*
X18860D01*
X18800Y10240D02*
Y10360D01*
X19040Y10300D02*
X19160D01*
X19100Y10240D02*
Y10360D01*
X19340Y10300D02*
X19460D01*
X19400Y10240D02*
Y10360D01*
X19640Y10300D02*
X19760D01*
X19700Y10240D02*
Y10360D01*
X18140Y10600D02*
X18260D01*
X18200Y10540D02*
Y10660D01*
X18440Y10600D02*
X18560D01*
X18500Y10540D02*
Y10660D01*
X18740Y10600D02*
X18860D01*
X18800Y10540D02*
Y10660D01*
X19040Y10600D02*
X19160D01*
X19100Y10540D02*
Y10660D01*
X19340Y10600D02*
X19460D01*
X19400Y10540D02*
Y10660D01*
X19640Y10600D02*
X19760D01*
X19700Y10540D02*
Y10660D01*
X18140Y10900D02*
X18260D01*
X18200Y10840D02*
Y10960D01*
X18440Y10900D02*
X18560D01*
X18500Y10840D02*
Y10960D01*
X18740Y10900D02*
X18860D01*
X18800Y10840D02*
Y10960D01*
X19040Y10900D02*
X19160D01*
X19100Y10840D02*
Y10960D01*
X19340Y10900D02*
X19460D01*
X19400Y10840D02*
Y10960D01*
X19640Y10900D02*
X19760D01*
X19700Y10840D02*
Y10960D01*
X18140Y11200D02*
X18260D01*
X18200Y11140D02*
Y11260D01*
X18440Y11200D02*
X18560D01*
X18500Y11140D02*
Y11260D01*
X18740Y11200D02*
X18860D01*
X18800Y11140D02*
Y11260D01*
X19040Y11200D02*
X19160D01*
X19100Y11140D02*
Y11260D01*
X19340Y11200D02*
X19460D01*
X19400Y11140D02*
Y11260D01*
X19640Y11200D02*
X19760D01*
X19700Y11140D02*
Y11260D01*
X18140Y11500D02*
X18260D01*
X18200Y11440D02*
Y11560D01*
X18440Y11500D02*
X18560D01*
X18500Y11440D02*
Y11560D01*
X18740Y11500D02*
X18860D01*
X18800Y11440D02*
Y11560D01*
X19040Y11500D02*
X19160D01*
X19100Y11440D02*
Y11560D01*
X19340Y11500D02*
X19460D01*
X19400Y11440D02*
Y11560D01*
X19640Y11500D02*
X19760D01*
X19700Y11440D02*
Y11560D01*
X18140Y11800D02*
X18260D01*
X18200Y11740D02*
Y11860D01*
X18440Y11800D02*
X18560D01*
X18500Y11740D02*
Y11860D01*
X18740Y11800D02*
X18860D01*
X18800Y11740D02*
Y11860D01*
X19040Y11800D02*
X19160D01*
X19100Y11740D02*
Y11860D01*
X19340Y11800D02*
X19460D01*
X19400Y11740D02*
Y11860D01*
X19640Y11800D02*
X19760D01*
X19700Y11740D02*
Y11860D01*
X18140Y12100D02*
X18260D01*
X18200Y12040D02*
Y12160D01*
X18440Y12100D02*
X18560D01*
X18500Y12040D02*
Y12160D01*
X18740Y12100D02*
X18860D01*
X18800Y12040D02*
Y12160D01*
X19040Y12100D02*
X19160D01*
X19100Y12040D02*
Y12160D01*
X19340Y12100D02*
X19460D01*
X19400Y12040D02*
Y12160D01*
X19640Y12100D02*
X19760D01*
X19700Y12040D02*
Y12160D01*
X18140Y12400D02*
X18260D01*
X18200Y12340D02*
Y12460D01*
X18440Y12400D02*
X18560D01*
X18500Y12340D02*
Y12460D01*
X18740Y12400D02*
X18860D01*
X18800Y12340D02*
Y12460D01*
X19040Y12400D02*
X19160D01*
X19100Y12340D02*
Y12460D01*
X19640Y12400D02*
X19760D01*
X19700Y12340D02*
Y12460D01*
X18140Y12700D02*
X18260D01*
X18200Y12640D02*
Y12760D01*
X18440Y12700D02*
X18560D01*
X18500Y12640D02*
Y12760D01*
X18740Y12700D02*
X18860D01*
X18800Y12640D02*
Y12760D01*
X19040Y12700D02*
X19160D01*
X19100Y12640D02*
Y12760D01*
X19340Y12700D02*
X19460D01*
X19400Y12640D02*
Y12760D01*
X19640Y12700D02*
X19760D01*
X19700Y12640D02*
Y12760D01*
X18140Y13000D02*
X18260D01*
X18200Y12940D02*
Y13060D01*
X18440Y13000D02*
X18560D01*
X18500Y12940D02*
Y13060D01*
X18740Y13000D02*
X18860D01*
X18800Y12940D02*
Y13060D01*
X19040Y13000D02*
X19160D01*
X19100Y12940D02*
Y13060D01*
X19340Y13000D02*
X19460D01*
X19400Y12940D02*
Y13060D01*
X19640Y13000D02*
X19760D01*
X19700Y12940D02*
Y13060D01*
X18140Y13300D02*
X18260D01*
X18200Y13240D02*
Y13360D01*
X18440Y13300D02*
X18560D01*
X18500Y13240D02*
Y13360D01*
X18740Y13300D02*
X18860D01*
X18800Y13240D02*
Y13360D01*
X19040Y13300D02*
X19160D01*
X19100Y13240D02*
Y13360D01*
X19340Y13300D02*
X19460D01*
X19400Y13240D02*
Y13360D01*
X19640Y13300D02*
X19760D01*
X19700Y13240D02*
Y13360D01*
X3290Y13000D02*
X3410D01*
X3350Y12940D02*
Y13060D01*
X3290Y12700D02*
X3410D01*
X3350Y12640D02*
Y12760D01*
X2990Y13000D02*
X3110D01*
X3050Y12940D02*
Y13060D01*
X2990Y12700D02*
X3110D01*
X3050Y12640D02*
Y12760D01*
X2690Y12700D02*
X2810D01*
X2750Y12640D02*
Y12760D01*
X2690Y13000D02*
X2810D01*
X2750Y12940D02*
Y13060D01*
X2690Y13300D02*
X2810D01*
X2750Y13240D02*
Y13360D01*
X2090Y13600D02*
X2210D01*
X2150Y13540D02*
Y13660D01*
X890Y13600D02*
X1010D01*
X950Y13540D02*
Y13660D01*
X1190Y13600D02*
X1310D01*
X1250Y13540D02*
Y13660D01*
X1490Y13600D02*
X1610D01*
X1550Y13540D02*
Y13660D01*
X2390Y13600D02*
X2510D01*
X2450Y13540D02*
Y13660D01*
X2690Y13600D02*
X2810D01*
X2750Y13540D02*
Y13660D01*
X1790Y13600D02*
X1910D01*
X1850Y13540D02*
Y13660D01*
X2090Y11200D02*
X2210D01*
X2150Y11140D02*
Y11260D01*
X590Y11200D02*
X710D01*
X650Y11140D02*
Y11260D01*
X890Y11200D02*
X1010D01*
X950Y11140D02*
Y11260D01*
X2390Y11200D02*
X2510D01*
X2450Y11140D02*
Y11260D01*
X1790Y11500D02*
X1910D01*
X1850Y11440D02*
Y11560D01*
X2090Y11500D02*
X2210D01*
X2150Y11440D02*
Y11560D01*
X590Y11500D02*
X710D01*
X650Y11440D02*
Y11560D01*
X890Y11500D02*
X1010D01*
X950Y11440D02*
Y11560D01*
X1190Y11500D02*
X1310D01*
X1250Y11440D02*
Y11560D01*
X1490Y11500D02*
X1610D01*
X1550Y11440D02*
Y11560D01*
X2390Y11500D02*
X2510D01*
X2450Y11440D02*
Y11560D01*
X1790Y11800D02*
X1910D01*
X1850Y11740D02*
Y11860D01*
X2090Y11800D02*
X2210D01*
X2150Y11740D02*
Y11860D01*
X590Y11800D02*
X710D01*
X650Y11740D02*
Y11860D01*
X890Y11800D02*
X1010D01*
X950Y11740D02*
Y11860D01*
X1190Y11800D02*
X1310D01*
X1250Y11740D02*
Y11860D01*
X1490Y11800D02*
X1610D01*
X1550Y11740D02*
Y11860D01*
X2390Y11800D02*
X2510D01*
X2450Y11740D02*
Y11860D01*
X1790Y12100D02*
X1910D01*
X1850Y12040D02*
Y12160D01*
X2090Y12100D02*
X2210D01*
X2150Y12040D02*
Y12160D01*
X590Y12100D02*
X710D01*
X650Y12040D02*
Y12160D01*
X890Y12100D02*
X1010D01*
X950Y12040D02*
Y12160D01*
X1190Y12100D02*
X1310D01*
X1250Y12040D02*
Y12160D01*
X1490Y12100D02*
X1610D01*
X1550Y12040D02*
Y12160D01*
X2390Y12100D02*
X2510D01*
X2450Y12040D02*
Y12160D01*
X1790Y12400D02*
X1910D01*
X1850Y12340D02*
Y12460D01*
X2090Y12400D02*
X2210D01*
X2150Y12340D02*
Y12460D01*
X590Y12400D02*
X710D01*
X650Y12340D02*
Y12460D01*
X890Y12400D02*
X1010D01*
X950Y12340D02*
Y12460D01*
X1190Y12400D02*
X1310D01*
X1250Y12340D02*
Y12460D01*
X1490Y12400D02*
X1610D01*
X1550Y12340D02*
Y12460D01*
X2390Y12400D02*
X2510D01*
X2450Y12340D02*
Y12460D01*
X1790Y12700D02*
X1910D01*
X1850Y12640D02*
Y12760D01*
X2090Y12700D02*
X2210D01*
X2150Y12640D02*
Y12760D01*
X590Y12700D02*
X710D01*
X650Y12640D02*
Y12760D01*
X890Y12700D02*
X1010D01*
X950Y12640D02*
Y12760D01*
X1190Y12700D02*
X1310D01*
X1250Y12640D02*
Y12760D01*
X1490Y12700D02*
X1610D01*
X1550Y12640D02*
Y12760D01*
X2390Y12700D02*
X2510D01*
X2450Y12640D02*
Y12760D01*
X1790Y13000D02*
X1910D01*
X1850Y12940D02*
Y13060D01*
X2090Y13000D02*
X2210D01*
X2150Y12940D02*
Y13060D01*
X590Y13000D02*
X710D01*
X650Y12940D02*
Y13060D01*
X890Y13000D02*
X1010D01*
X950Y12940D02*
Y13060D01*
X1190Y13000D02*
X1310D01*
X1250Y12940D02*
Y13060D01*
X1490Y13000D02*
X1610D01*
X1550Y12940D02*
Y13060D01*
X2390Y13000D02*
X2510D01*
X2450Y12940D02*
Y13060D01*
X1790Y13300D02*
X1910D01*
X1850Y13240D02*
Y13360D01*
X2090Y13300D02*
X2210D01*
X2150Y13240D02*
Y13360D01*
X590Y13300D02*
X710D01*
X650Y13240D02*
Y13360D01*
X890Y13300D02*
X1010D01*
X950Y13240D02*
Y13360D01*
X1190Y13300D02*
X1310D01*
X1250Y13240D02*
Y13360D01*
X1490Y13300D02*
X1610D01*
X1550Y13240D02*
Y13360D01*
X2390Y13300D02*
X2510D01*
X2450Y13240D02*
Y13360D01*
X1790Y13600D02*
X1910D01*
X1850Y13540D02*
Y13660D01*
X15190Y14550D02*
X15310D01*
X15250Y14490D02*
Y14610D01*
X15190Y14850D02*
X15310D01*
X15250Y14790D02*
Y14910D01*
X15190Y15150D02*
X15310D01*
X15250Y15090D02*
Y15210D01*
X15190Y15450D02*
X15310D01*
X15250Y15390D02*
Y15510D01*
X15190Y15750D02*
X15310D01*
X15250Y15690D02*
Y15810D01*
X15190Y16050D02*
X15310D01*
X15250Y15990D02*
Y16110D01*
X15190Y16350D02*
X15310D01*
X15250Y16290D02*
Y16410D01*
X15190Y16650D02*
X15310D01*
X15250Y16590D02*
Y16710D01*
X15190Y16950D02*
X15310D01*
X15250Y16890D02*
Y17010D01*
X15190Y17250D02*
X15310D01*
X15250Y17190D02*
Y17310D01*
X15190Y17550D02*
X15310D01*
X15250Y17490D02*
Y17610D01*
X15190Y17850D02*
X15310D01*
X15250Y17790D02*
Y17910D01*
X15190Y17850D02*
X15310D01*
X15250Y17790D02*
Y17910D01*
X5140Y13950D02*
X5260D01*
X5200Y13890D02*
Y14010D01*
X5140Y14250D02*
X5260D01*
X5200Y14190D02*
Y14310D01*
X5140Y14550D02*
X5260D01*
X5200Y14490D02*
Y14610D01*
X5140Y14850D02*
X5260D01*
X5200Y14790D02*
Y14910D01*
X5140Y15150D02*
X5260D01*
X5200Y15090D02*
Y15210D01*
X5140Y15450D02*
X5260D01*
X5200Y15390D02*
Y15510D01*
X5140Y15450D02*
X5260D01*
X5200Y15390D02*
Y15510D01*
X5140Y15750D02*
X5260D01*
X5200Y15690D02*
Y15810D01*
X5140Y16050D02*
X5260D01*
X5200Y15990D02*
Y16110D01*
X5140Y16350D02*
X5260D01*
X5200Y16290D02*
Y16410D01*
X5140Y16650D02*
X5260D01*
X5200Y16590D02*
Y16710D01*
X5140Y16950D02*
X5260D01*
X5200Y16890D02*
Y17010D01*
X5140Y17250D02*
X5260D01*
X5200Y17190D02*
Y17310D01*
X5140Y17850D02*
X5260D01*
X5200Y17790D02*
Y17910D01*
X5140Y17550D02*
X5260D01*
X5200Y17490D02*
Y17610D01*
X7490Y17352D02*
X7610D01*
X7550Y17292D02*
Y17412D01*
X19640Y18100D02*
X19760D01*
X19700Y18040D02*
Y18160D01*
X19640Y17800D02*
X19760D01*
X19700Y17740D02*
Y17860D01*
X19640Y17500D02*
X19760D01*
X19700Y17440D02*
Y17560D01*
X19640Y17200D02*
X19760D01*
X19700Y17140D02*
Y17260D01*
X19640Y16900D02*
X19760D01*
X19700Y16840D02*
Y16960D01*
X19640Y16600D02*
X19760D01*
X19700Y16540D02*
Y16660D01*
X19640Y16300D02*
X19760D01*
X19700Y16240D02*
Y16360D01*
X19640Y16000D02*
X19760D01*
X19700Y15940D02*
Y16060D01*
X19640Y15700D02*
X19760D01*
X19700Y15640D02*
Y15760D01*
X19640Y15400D02*
X19760D01*
X19700Y15340D02*
Y15460D01*
X19640Y15100D02*
X19760D01*
X19700Y15040D02*
Y15160D01*
X19640Y14800D02*
X19760D01*
X19700Y14740D02*
Y14860D01*
X19640Y14500D02*
X19760D01*
X19700Y14440D02*
Y14560D01*
X19640Y14200D02*
X19760D01*
X19700Y14140D02*
Y14260D01*
X19640Y13900D02*
X19760D01*
X19700Y13840D02*
Y13960D01*
X19640Y13600D02*
X19760D01*
X19700Y13540D02*
Y13660D01*
X19340Y18100D02*
X19460D01*
X19400Y18040D02*
Y18160D01*
X19340Y17800D02*
X19460D01*
X19400Y17740D02*
Y17860D01*
X19340Y17500D02*
X19460D01*
X19400Y17440D02*
Y17560D01*
X19340Y17200D02*
X19460D01*
X19400Y17140D02*
Y17260D01*
X19340Y16900D02*
X19460D01*
X19400Y16840D02*
Y16960D01*
X19340Y16600D02*
X19460D01*
X19400Y16540D02*
Y16660D01*
X19340Y16300D02*
X19460D01*
X19400Y16240D02*
Y16360D01*
X19340Y16000D02*
X19460D01*
X19400Y15940D02*
Y16060D01*
X19340Y15700D02*
X19460D01*
X19400Y15640D02*
Y15760D01*
X19340Y15400D02*
X19460D01*
X19400Y15340D02*
Y15460D01*
X19340Y15100D02*
X19460D01*
X19400Y15040D02*
Y15160D01*
X19340Y14800D02*
X19460D01*
X19400Y14740D02*
Y14860D01*
X19340Y14500D02*
X19460D01*
X19400Y14440D02*
Y14560D01*
X19340Y14200D02*
X19460D01*
X19400Y14140D02*
Y14260D01*
X19340Y13900D02*
X19460D01*
X19400Y13840D02*
Y13960D01*
X19340Y13600D02*
X19460D01*
X19400Y13540D02*
Y13660D01*
X19040Y18100D02*
X19160D01*
X19100Y18040D02*
Y18160D01*
X19040Y17800D02*
X19160D01*
X19100Y17740D02*
Y17860D01*
X19040Y17500D02*
X19160D01*
X19100Y17440D02*
Y17560D01*
X19040Y17200D02*
X19160D01*
X19100Y17140D02*
Y17260D01*
X19040Y16900D02*
X19160D01*
X19100Y16840D02*
Y16960D01*
X19040Y16600D02*
X19160D01*
X19100Y16540D02*
Y16660D01*
X19040Y16300D02*
X19160D01*
X19100Y16240D02*
Y16360D01*
X19040Y16000D02*
X19160D01*
X19100Y15940D02*
Y16060D01*
X19040Y15700D02*
X19160D01*
X19100Y15640D02*
Y15760D01*
X19040Y15400D02*
X19160D01*
X19100Y15340D02*
Y15460D01*
X19040Y15100D02*
X19160D01*
X19100Y15040D02*
Y15160D01*
X19040Y14800D02*
X19160D01*
X19100Y14740D02*
Y14860D01*
X19040Y14500D02*
X19160D01*
X19100Y14440D02*
Y14560D01*
X19040Y14200D02*
X19160D01*
X19100Y14140D02*
Y14260D01*
X19040Y13900D02*
X19160D01*
X19100Y13840D02*
Y13960D01*
X19040Y13600D02*
X19160D01*
X19100Y13540D02*
Y13660D01*
X19040Y13600D02*
X19160D01*
X19100Y13540D02*
Y13660D01*
X18740Y13600D02*
X18860D01*
X18800Y13540D02*
Y13660D01*
X18440Y13600D02*
X18560D01*
X18500Y13540D02*
Y13660D01*
X18140Y13600D02*
X18260D01*
X18200Y13540D02*
Y13660D01*
X17840Y13600D02*
X17960D01*
X17900Y13540D02*
Y13660D01*
X17540Y13600D02*
X17660D01*
X17600Y13540D02*
Y13660D01*
X19040Y13900D02*
X19160D01*
X19100Y13840D02*
Y13960D01*
X18740Y13900D02*
X18860D01*
X18800Y13840D02*
Y13960D01*
X18440Y13900D02*
X18560D01*
X18500Y13840D02*
Y13960D01*
X18140Y13900D02*
X18260D01*
X18200Y13840D02*
Y13960D01*
X17840Y13900D02*
X17960D01*
X17900Y13840D02*
Y13960D01*
X17540Y13900D02*
X17660D01*
X17600Y13840D02*
Y13960D01*
X19040Y14200D02*
X19160D01*
X19100Y14140D02*
Y14260D01*
X18740Y14200D02*
X18860D01*
X18800Y14140D02*
Y14260D01*
X18440Y14200D02*
X18560D01*
X18500Y14140D02*
Y14260D01*
X18140Y14200D02*
X18260D01*
X18200Y14140D02*
Y14260D01*
X17840Y14200D02*
X17960D01*
X17900Y14140D02*
Y14260D01*
X17540Y14200D02*
X17660D01*
X17600Y14140D02*
Y14260D01*
X19040Y14500D02*
X19160D01*
X19100Y14440D02*
Y14560D01*
X18740Y14500D02*
X18860D01*
X18800Y14440D02*
Y14560D01*
X18440Y14500D02*
X18560D01*
X18500Y14440D02*
Y14560D01*
X18140Y14500D02*
X18260D01*
X18200Y14440D02*
Y14560D01*
X17840Y14500D02*
X17960D01*
X17900Y14440D02*
Y14560D01*
X17540Y14500D02*
X17660D01*
X17600Y14440D02*
Y14560D01*
X19040Y14800D02*
X19160D01*
X19100Y14740D02*
Y14860D01*
X18740Y14800D02*
X18860D01*
X18800Y14740D02*
Y14860D01*
X18440Y14800D02*
X18560D01*
X18500Y14740D02*
Y14860D01*
X18140Y14800D02*
X18260D01*
X18200Y14740D02*
Y14860D01*
X17840Y14800D02*
X17960D01*
X17900Y14740D02*
Y14860D01*
X17540Y14800D02*
X17660D01*
X17600Y14740D02*
Y14860D01*
X19040Y15100D02*
X19160D01*
X19100Y15040D02*
Y15160D01*
X18740Y15100D02*
X18860D01*
X18800Y15040D02*
Y15160D01*
X18440Y15100D02*
X18560D01*
X18500Y15040D02*
Y15160D01*
X18140Y15100D02*
X18260D01*
X18200Y15040D02*
Y15160D01*
X17840Y15100D02*
X17960D01*
X17900Y15040D02*
Y15160D01*
X17540Y15100D02*
X17660D01*
X17600Y15040D02*
Y15160D01*
X19040Y15400D02*
X19160D01*
X19100Y15340D02*
Y15460D01*
X18740Y15400D02*
X18860D01*
X18800Y15340D02*
Y15460D01*
X18440Y15400D02*
X18560D01*
X18500Y15340D02*
Y15460D01*
X18140Y15400D02*
X18260D01*
X18200Y15340D02*
Y15460D01*
X17840Y15400D02*
X17960D01*
X17900Y15340D02*
Y15460D01*
X17540Y15400D02*
X17660D01*
X17600Y15340D02*
Y15460D01*
X19040Y15700D02*
X19160D01*
X19100Y15640D02*
Y15760D01*
X18740Y15700D02*
X18860D01*
X18800Y15640D02*
Y15760D01*
X18440Y15700D02*
X18560D01*
X18500Y15640D02*
Y15760D01*
X18140Y15700D02*
X18260D01*
X18200Y15640D02*
Y15760D01*
X17840Y15700D02*
X17960D01*
X17900Y15640D02*
Y15760D01*
X17540Y15700D02*
X17660D01*
X17600Y15640D02*
Y15760D01*
X19040Y16000D02*
X19160D01*
X19100Y15940D02*
Y16060D01*
X18740Y16000D02*
X18860D01*
X18800Y15940D02*
Y16060D01*
X18440Y16000D02*
X18560D01*
X18500Y15940D02*
Y16060D01*
X18140Y16000D02*
X18260D01*
X18200Y15940D02*
Y16060D01*
X17840Y16000D02*
X17960D01*
X17900Y15940D02*
Y16060D01*
X17540Y16000D02*
X17660D01*
X17600Y15940D02*
Y16060D01*
X19040Y16300D02*
X19160D01*
X19100Y16240D02*
Y16360D01*
X18740Y16300D02*
X18860D01*
X18800Y16240D02*
Y16360D01*
X18440Y16300D02*
X18560D01*
X18500Y16240D02*
Y16360D01*
X18140Y16300D02*
X18260D01*
X18200Y16240D02*
Y16360D01*
X17840Y16300D02*
X17960D01*
X17900Y16240D02*
Y16360D01*
X17540Y16300D02*
X17660D01*
X17600Y16240D02*
Y16360D01*
X19040Y16600D02*
X19160D01*
X19100Y16540D02*
Y16660D01*
X18740Y16600D02*
X18860D01*
X18800Y16540D02*
Y16660D01*
X18440Y16600D02*
X18560D01*
X18500Y16540D02*
Y16660D01*
X18140Y16600D02*
X18260D01*
X18200Y16540D02*
Y16660D01*
X17840Y16600D02*
X17960D01*
X17900Y16540D02*
Y16660D01*
X17540Y16600D02*
X17660D01*
X17600Y16540D02*
Y16660D01*
X19040Y16900D02*
X19160D01*
X19100Y16840D02*
Y16960D01*
X18740Y16900D02*
X18860D01*
X18800Y16840D02*
Y16960D01*
X18440Y16900D02*
X18560D01*
X18500Y16840D02*
Y16960D01*
X18140Y16900D02*
X18260D01*
X18200Y16840D02*
Y16960D01*
X17840Y16900D02*
X17960D01*
X17900Y16840D02*
Y16960D01*
X17540Y16900D02*
X17660D01*
X17600Y16840D02*
Y16960D01*
X19040Y17200D02*
X19160D01*
X19100Y17140D02*
Y17260D01*
X18740Y17200D02*
X18860D01*
X18800Y17140D02*
Y17260D01*
X18440Y17200D02*
X18560D01*
X18500Y17140D02*
Y17260D01*
X18140Y17200D02*
X18260D01*
X18200Y17140D02*
Y17260D01*
X17840Y17200D02*
X17960D01*
X17900Y17140D02*
Y17260D01*
X17540Y17200D02*
X17660D01*
X17600Y17140D02*
Y17260D01*
X19040Y17500D02*
X19160D01*
X19100Y17440D02*
Y17560D01*
X18740Y17500D02*
X18860D01*
X18800Y17440D02*
Y17560D01*
X18440Y17500D02*
X18560D01*
X18500Y17440D02*
Y17560D01*
X18140Y17500D02*
X18260D01*
X18200Y17440D02*
Y17560D01*
X17840Y17500D02*
X17960D01*
X17900Y17440D02*
Y17560D01*
X17540Y17500D02*
X17660D01*
X17600Y17440D02*
Y17560D01*
X19040Y17800D02*
X19160D01*
X19100Y17740D02*
Y17860D01*
X18740Y17800D02*
X18860D01*
X18800Y17740D02*
Y17860D01*
X18440Y17800D02*
X18560D01*
X18500Y17740D02*
Y17860D01*
X18140Y17800D02*
X18260D01*
X18200Y17740D02*
Y17860D01*
X17840Y17800D02*
X17960D01*
X17900Y17740D02*
Y17860D01*
X17540Y17800D02*
X17660D01*
X17600Y17740D02*
Y17860D01*
X19040Y18100D02*
X19160D01*
X19100Y18040D02*
Y18160D01*
X18740Y18100D02*
X18860D01*
X18800Y18040D02*
Y18160D01*
X18440Y18100D02*
X18560D01*
X18500Y18040D02*
Y18160D01*
X18140Y18100D02*
X18260D01*
X18200Y18040D02*
Y18160D01*
X17840Y18100D02*
X17960D01*
X17900Y18040D02*
Y18160D01*
X17540Y18100D02*
X17660D01*
X17600Y18040D02*
Y18160D01*
X19040Y18400D02*
X19160D01*
X19100Y18340D02*
Y18460D01*
X18740Y18400D02*
X18860D01*
X18800Y18340D02*
Y18460D01*
X18440Y18400D02*
X18560D01*
X18500Y18340D02*
Y18460D01*
X18140Y18400D02*
X18260D01*
X18200Y18340D02*
Y18460D01*
X17840Y18400D02*
X17960D01*
X17900Y18340D02*
Y18460D01*
X17540Y18400D02*
X17660D01*
X17600Y18340D02*
Y18460D01*
X16640Y18400D02*
X16760D01*
X16700Y18340D02*
Y18460D01*
X16940Y18400D02*
X17060D01*
X17000Y18340D02*
Y18460D01*
X17240Y18400D02*
X17360D01*
X17300Y18340D02*
Y18460D01*
X17540Y18400D02*
X17660D01*
X17600Y18340D02*
Y18460D01*
X17840Y18400D02*
X17960D01*
X17900Y18340D02*
Y18460D01*
X18140Y18400D02*
X18260D01*
X18200Y18340D02*
Y18460D01*
X18440Y18400D02*
X18560D01*
X18500Y18340D02*
Y18460D01*
X18740Y18400D02*
X18860D01*
X18800Y18340D02*
Y18460D01*
X19040Y18400D02*
X19160D01*
X19100Y18340D02*
Y18460D01*
X16640Y18700D02*
X16760D01*
X16700Y18640D02*
Y18760D01*
X16940Y18700D02*
X17060D01*
X17000Y18640D02*
Y18760D01*
X17240Y18700D02*
X17360D01*
X17300Y18640D02*
Y18760D01*
X17540Y18700D02*
X17660D01*
X17600Y18640D02*
Y18760D01*
X17840Y18700D02*
X17960D01*
X17900Y18640D02*
Y18760D01*
X18140Y18700D02*
X18260D01*
X18200Y18640D02*
Y18760D01*
X18440Y18700D02*
X18560D01*
X18500Y18640D02*
Y18760D01*
X18740Y18700D02*
X18860D01*
X18800Y18640D02*
Y18760D01*
X19040Y18700D02*
X19160D01*
X19100Y18640D02*
Y18760D01*
X16640Y19000D02*
X16760D01*
X16700Y18940D02*
Y19060D01*
X16940Y19000D02*
X17060D01*
X17000Y18940D02*
Y19060D01*
X17240Y19000D02*
X17360D01*
X17300Y18940D02*
Y19060D01*
X17540Y19000D02*
X17660D01*
X17600Y18940D02*
Y19060D01*
X17840Y19000D02*
X17960D01*
X17900Y18940D02*
Y19060D01*
X18140Y19000D02*
X18260D01*
X18200Y18940D02*
Y19060D01*
X18440Y19000D02*
X18560D01*
X18500Y18940D02*
Y19060D01*
X18740Y19000D02*
X18860D01*
X18800Y18940D02*
Y19060D01*
X19040Y19000D02*
X19160D01*
X19100Y18940D02*
Y19060D01*
X16640Y19300D02*
X16760D01*
X16700Y19240D02*
Y19360D01*
X18440Y19300D02*
X18560D01*
X18500Y19240D02*
Y19360D01*
X19040Y19300D02*
X19160D01*
X19100Y19240D02*
Y19360D01*
X18740Y19300D02*
X18860D01*
X18800Y19240D02*
Y19360D01*
X18140Y19300D02*
X18260D01*
X18200Y19240D02*
Y19360D01*
X17840Y19300D02*
X17960D01*
X17900Y19240D02*
Y19360D01*
X17540Y19300D02*
X17660D01*
X17600Y19240D02*
Y19360D01*
X17240Y19300D02*
X17360D01*
X17300Y19240D02*
Y19360D01*
X16940Y19300D02*
X17060D01*
X17000Y19240D02*
Y19360D01*
X16640Y19300D02*
X16760D01*
X16700Y19240D02*
Y19360D01*
X2390Y13600D02*
X2510D01*
X2450Y13540D02*
Y13660D01*
X1490Y13600D02*
X1610D01*
X1550Y13540D02*
Y13660D01*
X1190Y13600D02*
X1310D01*
X1250Y13540D02*
Y13660D01*
X890Y13600D02*
X1010D01*
X950Y13540D02*
Y13660D01*
X590Y13600D02*
X710D01*
X650Y13540D02*
Y13660D01*
X2090Y13600D02*
X2210D01*
X2150Y13540D02*
Y13660D01*
X2690Y13900D02*
X2810D01*
X2750Y13840D02*
Y13960D01*
X2390Y13900D02*
X2510D01*
X2450Y13840D02*
Y13960D01*
X1490Y13900D02*
X1610D01*
X1550Y13840D02*
Y13960D01*
X1190Y13900D02*
X1310D01*
X1250Y13840D02*
Y13960D01*
X890Y13900D02*
X1010D01*
X950Y13840D02*
Y13960D01*
X590Y13900D02*
X710D01*
X650Y13840D02*
Y13960D01*
X2090Y13900D02*
X2210D01*
X2150Y13840D02*
Y13960D01*
X1790Y13900D02*
X1910D01*
X1850Y13840D02*
Y13960D01*
X2690Y14200D02*
X2810D01*
X2750Y14140D02*
Y14260D01*
X2390Y14200D02*
X2510D01*
X2450Y14140D02*
Y14260D01*
X1490Y14200D02*
X1610D01*
X1550Y14140D02*
Y14260D01*
X1190Y14200D02*
X1310D01*
X1250Y14140D02*
Y14260D01*
X890Y14200D02*
X1010D01*
X950Y14140D02*
Y14260D01*
X590Y14200D02*
X710D01*
X650Y14140D02*
Y14260D01*
X2090Y14200D02*
X2210D01*
X2150Y14140D02*
Y14260D01*
X1790Y14200D02*
X1910D01*
X1850Y14140D02*
Y14260D01*
X2690Y14500D02*
X2810D01*
X2750Y14440D02*
Y14560D01*
X2390Y14500D02*
X2510D01*
X2450Y14440D02*
Y14560D01*
X1490Y14500D02*
X1610D01*
X1550Y14440D02*
Y14560D01*
X1190Y14500D02*
X1310D01*
X1250Y14440D02*
Y14560D01*
X890Y14500D02*
X1010D01*
X950Y14440D02*
Y14560D01*
X590Y14500D02*
X710D01*
X650Y14440D02*
Y14560D01*
X2090Y14500D02*
X2210D01*
X2150Y14440D02*
Y14560D01*
X1790Y14500D02*
X1910D01*
X1850Y14440D02*
Y14560D01*
X2690Y14800D02*
X2810D01*
X2750Y14740D02*
Y14860D01*
X2390Y14800D02*
X2510D01*
X2450Y14740D02*
Y14860D01*
X1490Y14800D02*
X1610D01*
X1550Y14740D02*
Y14860D01*
X1190Y14800D02*
X1310D01*
X1250Y14740D02*
Y14860D01*
X890Y14800D02*
X1010D01*
X950Y14740D02*
Y14860D01*
X590Y14800D02*
X710D01*
X650Y14740D02*
Y14860D01*
X2090Y14800D02*
X2210D01*
X2150Y14740D02*
Y14860D01*
X1790Y14800D02*
X1910D01*
X1850Y14740D02*
Y14860D01*
X2690Y15100D02*
X2810D01*
X2750Y15040D02*
Y15160D01*
X2390Y15100D02*
X2510D01*
X2450Y15040D02*
Y15160D01*
X1490Y15100D02*
X1610D01*
X1550Y15040D02*
Y15160D01*
X1190Y15100D02*
X1310D01*
X1250Y15040D02*
Y15160D01*
X890Y15100D02*
X1010D01*
X950Y15040D02*
Y15160D01*
X590Y15100D02*
X710D01*
X650Y15040D02*
Y15160D01*
X2090Y15100D02*
X2210D01*
X2150Y15040D02*
Y15160D01*
X1790Y15100D02*
X1910D01*
X1850Y15040D02*
Y15160D01*
X2690Y15400D02*
X2810D01*
X2750Y15340D02*
Y15460D01*
X2390Y15400D02*
X2510D01*
X2450Y15340D02*
Y15460D01*
X1490Y15400D02*
X1610D01*
X1550Y15340D02*
Y15460D01*
X1190Y15400D02*
X1310D01*
X1250Y15340D02*
Y15460D01*
X890Y15400D02*
X1010D01*
X950Y15340D02*
Y15460D01*
X590Y15400D02*
X710D01*
X650Y15340D02*
Y15460D01*
X2090Y15400D02*
X2210D01*
X2150Y15340D02*
Y15460D01*
X1790Y15400D02*
X1910D01*
X1850Y15340D02*
Y15460D01*
X2690Y15700D02*
X2810D01*
X2750Y15640D02*
Y15760D01*
X2390Y15700D02*
X2510D01*
X2450Y15640D02*
Y15760D01*
X1490Y15700D02*
X1610D01*
X1550Y15640D02*
Y15760D01*
X1190Y15700D02*
X1310D01*
X1250Y15640D02*
Y15760D01*
X890Y15700D02*
X1010D01*
X950Y15640D02*
Y15760D01*
X590Y15700D02*
X710D01*
X650Y15640D02*
Y15760D01*
X2090Y15700D02*
X2210D01*
X2150Y15640D02*
Y15760D01*
X1790Y15700D02*
X1910D01*
X1850Y15640D02*
Y15760D01*
X2690Y16000D02*
X2810D01*
X2750Y15940D02*
Y16060D01*
X2390Y16000D02*
X2510D01*
X2450Y15940D02*
Y16060D01*
X1490Y16000D02*
X1610D01*
X1550Y15940D02*
Y16060D01*
X1190Y16000D02*
X1310D01*
X1250Y15940D02*
Y16060D01*
X890Y16000D02*
X1010D01*
X950Y15940D02*
Y16060D01*
X590Y16000D02*
X710D01*
X650Y15940D02*
Y16060D01*
X2090Y16000D02*
X2210D01*
X2150Y15940D02*
Y16060D01*
X1790Y16000D02*
X1910D01*
X1850Y15940D02*
Y16060D01*
X2690Y16300D02*
X2810D01*
X2750Y16240D02*
Y16360D01*
X2390Y16300D02*
X2510D01*
X2450Y16240D02*
Y16360D01*
X1490Y16300D02*
X1610D01*
X1550Y16240D02*
Y16360D01*
X1190Y16300D02*
X1310D01*
X1250Y16240D02*
Y16360D01*
X890Y16300D02*
X1010D01*
X950Y16240D02*
Y16360D01*
X590Y16300D02*
X710D01*
X650Y16240D02*
Y16360D01*
X2090Y16300D02*
X2210D01*
X2150Y16240D02*
Y16360D01*
X1790Y16300D02*
X1910D01*
X1850Y16240D02*
Y16360D01*
X2690Y16600D02*
X2810D01*
X2750Y16540D02*
Y16660D01*
X2390Y16600D02*
X2510D01*
X2450Y16540D02*
Y16660D01*
X1490Y16600D02*
X1610D01*
X1550Y16540D02*
Y16660D01*
X1190Y16600D02*
X1310D01*
X1250Y16540D02*
Y16660D01*
X890Y16600D02*
X1010D01*
X950Y16540D02*
Y16660D01*
X590Y16600D02*
X710D01*
X650Y16540D02*
Y16660D01*
X2090Y16600D02*
X2210D01*
X2150Y16540D02*
Y16660D01*
X1790Y16600D02*
X1910D01*
X1850Y16540D02*
Y16660D01*
X2690Y16900D02*
X2810D01*
X2750Y16840D02*
Y16960D01*
X2390Y16900D02*
X2510D01*
X2450Y16840D02*
Y16960D01*
X1490Y16900D02*
X1610D01*
X1550Y16840D02*
Y16960D01*
X1190Y16900D02*
X1310D01*
X1250Y16840D02*
Y16960D01*
X890Y16900D02*
X1010D01*
X950Y16840D02*
Y16960D01*
X590Y16900D02*
X710D01*
X650Y16840D02*
Y16960D01*
X2090Y16900D02*
X2210D01*
X2150Y16840D02*
Y16960D01*
X1790Y16900D02*
X1910D01*
X1850Y16840D02*
Y16960D01*
X2690Y17200D02*
X2810D01*
X2750Y17140D02*
Y17260D01*
X2390Y17200D02*
X2510D01*
X2450Y17140D02*
Y17260D01*
X1490Y17200D02*
X1610D01*
X1550Y17140D02*
Y17260D01*
X1190Y17200D02*
X1310D01*
X1250Y17140D02*
Y17260D01*
X890Y17200D02*
X1010D01*
X950Y17140D02*
Y17260D01*
X590Y17200D02*
X710D01*
X650Y17140D02*
Y17260D01*
X2090Y17200D02*
X2210D01*
X2150Y17140D02*
Y17260D01*
X1790Y17200D02*
X1910D01*
X1850Y17140D02*
Y17260D01*
X2690Y17500D02*
X2810D01*
X2750Y17440D02*
Y17560D01*
X2390Y17500D02*
X2510D01*
X2450Y17440D02*
Y17560D01*
X1490Y17500D02*
X1610D01*
X1550Y17440D02*
Y17560D01*
X1190Y17500D02*
X1310D01*
X1250Y17440D02*
Y17560D01*
X890Y17500D02*
X1010D01*
X950Y17440D02*
Y17560D01*
X590Y17500D02*
X710D01*
X650Y17440D02*
Y17560D01*
X2090Y17500D02*
X2210D01*
X2150Y17440D02*
Y17560D01*
X1790Y17500D02*
X1910D01*
X1850Y17440D02*
Y17560D01*
X2690Y17800D02*
X2810D01*
X2750Y17740D02*
Y17860D01*
X2390Y17800D02*
X2510D01*
X2450Y17740D02*
Y17860D01*
X1490Y17800D02*
X1610D01*
X1550Y17740D02*
Y17860D01*
X1190Y17800D02*
X1310D01*
X1250Y17740D02*
Y17860D01*
X890Y17800D02*
X1010D01*
X950Y17740D02*
Y17860D01*
X590Y17800D02*
X710D01*
X650Y17740D02*
Y17860D01*
X2090Y17800D02*
X2210D01*
X2150Y17740D02*
Y17860D01*
X1790Y17800D02*
X1910D01*
X1850Y17740D02*
Y17860D01*
X2690Y18100D02*
X2810D01*
X2750Y18040D02*
Y18160D01*
X2390Y18100D02*
X2510D01*
X2450Y18040D02*
Y18160D01*
X1490Y18100D02*
X1610D01*
X1550Y18040D02*
Y18160D01*
X1190Y18100D02*
X1310D01*
X1250Y18040D02*
Y18160D01*
X890Y18100D02*
X1010D01*
X950Y18040D02*
Y18160D01*
X590Y18100D02*
X710D01*
X650Y18040D02*
Y18160D01*
X2090Y18100D02*
X2210D01*
X2150Y18040D02*
Y18160D01*
X1790Y18100D02*
X1910D01*
X1850Y18040D02*
Y18160D01*
X3590Y18400D02*
X3710D01*
X3650Y18340D02*
Y18460D01*
X3290Y18400D02*
X3410D01*
X3350Y18340D02*
Y18460D01*
X2990Y18400D02*
X3110D01*
X3050Y18340D02*
Y18460D01*
X2690Y18400D02*
X2810D01*
X2750Y18340D02*
Y18460D01*
X2390Y18400D02*
X2510D01*
X2450Y18340D02*
Y18460D01*
X1490Y18400D02*
X1610D01*
X1550Y18340D02*
Y18460D01*
X2090Y18400D02*
X2210D01*
X2150Y18340D02*
Y18460D01*
X1790Y18400D02*
X1910D01*
X1850Y18340D02*
Y18460D01*
X3590Y18700D02*
X3710D01*
X3650Y18640D02*
Y18760D01*
X3290Y18700D02*
X3410D01*
X3350Y18640D02*
Y18760D01*
X2990Y18700D02*
X3110D01*
X3050Y18640D02*
Y18760D01*
X2690Y18700D02*
X2810D01*
X2750Y18640D02*
Y18760D01*
X2390Y18700D02*
X2510D01*
X2450Y18640D02*
Y18760D01*
X1490Y18700D02*
X1610D01*
X1550Y18640D02*
Y18760D01*
X2090Y18700D02*
X2210D01*
X2150Y18640D02*
Y18760D01*
X1790Y18700D02*
X1910D01*
X1850Y18640D02*
Y18760D01*
X3590Y19000D02*
X3710D01*
X3650Y18940D02*
Y19060D01*
X3290Y19000D02*
X3410D01*
X3350Y18940D02*
Y19060D01*
X2990Y19000D02*
X3110D01*
X3050Y18940D02*
Y19060D01*
X2690Y19000D02*
X2810D01*
X2750Y18940D02*
Y19060D01*
X2390Y19000D02*
X2510D01*
X2450Y18940D02*
Y19060D01*
X1490Y19000D02*
X1610D01*
X1550Y18940D02*
Y19060D01*
X2090Y19000D02*
X2210D01*
X2150Y18940D02*
Y19060D01*
X1790Y19000D02*
X1910D01*
X1850Y18940D02*
Y19060D01*
X2690Y19300D02*
X2810D01*
X2750Y19240D02*
Y19360D01*
X2090Y19300D02*
X2210D01*
X2150Y19240D02*
Y19360D01*
X1790Y19300D02*
X1910D01*
X1850Y19240D02*
Y19360D01*
X1490Y19300D02*
X1610D01*
X1550Y19240D02*
Y19360D01*
X2390Y19300D02*
X2510D01*
X2450Y19240D02*
Y19360D01*
X2990Y19300D02*
X3110D01*
X3050Y19240D02*
Y19360D01*
X3290Y19300D02*
X3410D01*
X3350Y19240D02*
Y19360D01*
X3590Y19300D02*
X3710D01*
X3650Y19240D02*
Y19360D01*
X7490Y14650D02*
X7610D01*
X7550Y14590D02*
Y14710D01*
X7490Y14950D02*
X7610D01*
X7550Y14890D02*
Y15010D01*
X7490Y15250D02*
X7610D01*
X7550Y15190D02*
Y15310D01*
X7490Y15550D02*
X7610D01*
X7550Y15490D02*
Y15610D01*
X7490Y15850D02*
X7610D01*
X7550Y15790D02*
Y15910D01*
X7490Y16150D02*
X7610D01*
X7550Y16090D02*
Y16210D01*
X7490Y16450D02*
X7610D01*
X7550Y16390D02*
Y16510D01*
X7490Y16750D02*
X7610D01*
X7550Y16690D02*
Y16810D01*
X7490Y17050D02*
X7610D01*
X7550Y16990D02*
Y17110D01*
X14440Y18400D02*
X14560D01*
X14500Y18340D02*
Y18460D01*
X14740Y18400D02*
X14860D01*
X14800Y18340D02*
Y18460D01*
X15040Y18400D02*
X15160D01*
X15100Y18340D02*
Y18460D01*
X15340Y18400D02*
X15460D01*
X15400Y18340D02*
Y18460D01*
X15640Y18400D02*
X15760D01*
X15700Y18340D02*
Y18460D01*
X15940Y18400D02*
X16060D01*
X16000Y18340D02*
Y18460D01*
X14440Y18700D02*
X14560D01*
X14500Y18640D02*
Y18760D01*
X14740Y18700D02*
X14860D01*
X14800Y18640D02*
Y18760D01*
X15040Y18700D02*
X15160D01*
X15100Y18640D02*
Y18760D01*
X15340Y18700D02*
X15460D01*
X15400Y18640D02*
Y18760D01*
X15640Y18700D02*
X15760D01*
X15700Y18640D02*
Y18760D01*
X15940Y18700D02*
X16060D01*
X16000Y18640D02*
Y18760D01*
X14440Y19000D02*
X14560D01*
X14500Y18940D02*
Y19060D01*
X14740Y19000D02*
X14860D01*
X14800Y18940D02*
Y19060D01*
X15040Y19000D02*
X15160D01*
X15100Y18940D02*
Y19060D01*
X15340Y19000D02*
X15460D01*
X15400Y18940D02*
Y19060D01*
X15640Y19000D02*
X15760D01*
X15700Y18940D02*
Y19060D01*
X15940Y19000D02*
X16060D01*
X16000Y18940D02*
Y19060D01*
X15940Y19300D02*
X16060D01*
X16000Y19240D02*
Y19360D01*
X15640Y19300D02*
X15760D01*
X15700Y19240D02*
Y19360D01*
X15340Y19300D02*
X15460D01*
X15400Y19240D02*
Y19360D01*
X15040Y19300D02*
X15160D01*
X15100Y19240D02*
Y19360D01*
X14740Y19300D02*
X14860D01*
X14800Y19240D02*
Y19360D01*
X14440Y19300D02*
X14560D01*
X14500Y19240D02*
Y19360D01*
X13440Y19300D02*
X13560D01*
X13500Y19240D02*
Y19360D01*
X13740Y19300D02*
X13860D01*
X13800Y19240D02*
Y19360D01*
X11040Y17352D02*
X11160D01*
X11100Y17292D02*
Y17412D01*
X11340Y17352D02*
X11460D01*
X11400Y17292D02*
Y17412D01*
X11640Y15852D02*
X11760D01*
X11700Y15792D02*
Y15912D01*
X12840Y17052D02*
X12960D01*
X12900Y16992D02*
Y17112D01*
X12840Y14052D02*
X12960D01*
X12900Y13992D02*
Y14112D01*
X9890Y14652D02*
X10010D01*
X9950Y14592D02*
Y14712D01*
X5540Y18400D02*
X5660D01*
X5600Y18340D02*
Y18460D01*
X5240Y18400D02*
X5360D01*
X5300Y18340D02*
Y18460D01*
X4940Y18400D02*
X5060D01*
X5000Y18340D02*
Y18460D01*
X4640Y18400D02*
X4760D01*
X4700Y18340D02*
Y18460D01*
X4340Y18400D02*
X4460D01*
X4400Y18340D02*
Y18460D01*
X5840Y18400D02*
X5960D01*
X5900Y18340D02*
Y18460D01*
X5540Y18700D02*
X5660D01*
X5600Y18640D02*
Y18760D01*
X5240Y18700D02*
X5360D01*
X5300Y18640D02*
Y18760D01*
X4940Y18700D02*
X5060D01*
X5000Y18640D02*
Y18760D01*
X4640Y18700D02*
X4760D01*
X4700Y18640D02*
Y18760D01*
X4340Y18700D02*
X4460D01*
X4400Y18640D02*
Y18760D01*
X5840Y18700D02*
X5960D01*
X5900Y18640D02*
Y18760D01*
X5540Y19000D02*
X5660D01*
X5600Y18940D02*
Y19060D01*
X5240Y19000D02*
X5360D01*
X5300Y18940D02*
Y19060D01*
X4940Y19000D02*
X5060D01*
X5000Y18940D02*
Y19060D01*
X4640Y19000D02*
X4760D01*
X4700Y18940D02*
Y19060D01*
X4340Y19000D02*
X4460D01*
X4400Y18940D02*
Y19060D01*
X5840Y19000D02*
X5960D01*
X5900Y18940D02*
Y19060D01*
X5840Y19300D02*
X5960D01*
X5900Y19240D02*
Y19360D01*
X6540Y19300D02*
X6660D01*
X6600Y19240D02*
Y19360D01*
X7140Y19300D02*
X7260D01*
X7200Y19240D02*
Y19360D01*
X6840Y19300D02*
X6960D01*
X6900Y19240D02*
Y19360D01*
X6540Y19000D02*
X6660D01*
X6600Y18940D02*
Y19060D01*
X13140Y18700D02*
X13260D01*
X13200Y18640D02*
Y18760D01*
X13140Y19300D02*
X13260D01*
X13200Y19240D02*
Y19360D01*
X11640Y14052D02*
X11760D01*
X11700Y13992D02*
Y14112D01*
X11640Y14052D02*
X11760D01*
X11700Y13992D02*
Y14112D01*
X4340Y19300D02*
X4460D01*
X4400Y19240D02*
Y19360D01*
X4640Y19300D02*
X4760D01*
X4700Y19240D02*
Y19360D01*
X4940Y19300D02*
X5060D01*
X5000Y19240D02*
Y19360D01*
X5240Y19300D02*
X5360D01*
X5300Y19240D02*
Y19360D01*
X5540Y19300D02*
X5660D01*
X5600Y19240D02*
Y19360D01*
X10440Y14952D02*
X10560D01*
X10500Y14892D02*
Y15012D01*
X9890Y14952D02*
X10010D01*
X9950Y14892D02*
Y15012D01*
X9590Y14952D02*
X9710D01*
X9650Y14892D02*
Y15012D01*
X9590Y14652D02*
X9710D01*
X9650Y14592D02*
Y14712D01*
X9290Y14952D02*
X9410D01*
X9350Y14892D02*
Y15012D01*
X9290Y14652D02*
X9410D01*
X9350Y14592D02*
Y14712D01*
X8990Y14952D02*
X9110D01*
X9050Y14892D02*
Y15012D01*
X8990Y14652D02*
X9110D01*
X9050Y14592D02*
Y14712D01*
X8690Y14652D02*
X8810D01*
X8750Y14592D02*
Y14712D01*
X13140Y18400D02*
X13260D01*
X13200Y18340D02*
Y18460D01*
X13440Y18400D02*
X13560D01*
X13500Y18340D02*
Y18460D01*
X13740Y18400D02*
X13860D01*
X13800Y18340D02*
Y18460D01*
X13440Y18700D02*
X13560D01*
X13500Y18640D02*
Y18760D01*
X13740Y18700D02*
X13860D01*
X13800Y18640D02*
Y18760D01*
X13140Y19000D02*
X13260D01*
X13200Y18940D02*
Y19060D01*
X13440Y19000D02*
X13560D01*
X13500Y18940D02*
Y19060D01*
X13740Y19000D02*
X13860D01*
X13800Y18940D02*
Y19060D01*
X10440Y14952D02*
X10560D01*
X10500Y14892D02*
Y15012D01*
X10440Y14652D02*
X10560D01*
X10500Y14592D02*
Y14712D01*
X10440Y14352D02*
X10560D01*
X10500Y14292D02*
Y14412D01*
X10440Y14052D02*
X10560D01*
X10500Y13992D02*
Y14112D01*
X10740Y14952D02*
X10860D01*
X10800Y14892D02*
Y15012D01*
X10740Y14652D02*
X10860D01*
X10800Y14592D02*
Y14712D01*
X10740Y14352D02*
X10860D01*
X10800Y14292D02*
Y14412D01*
X10740Y14052D02*
X10860D01*
X10800Y13992D02*
Y14112D01*
X11040Y14952D02*
X11160D01*
X11100Y14892D02*
Y15012D01*
X11040Y14652D02*
X11160D01*
X11100Y14592D02*
Y14712D01*
X11040Y14352D02*
X11160D01*
X11100Y14292D02*
Y14412D01*
X11040Y14052D02*
X11160D01*
X11100Y13992D02*
Y14112D01*
X11340Y14952D02*
X11460D01*
X11400Y14892D02*
Y15012D01*
X11340Y14652D02*
X11460D01*
X11400Y14592D02*
Y14712D01*
X11340Y14352D02*
X11460D01*
X11400Y14292D02*
Y14412D01*
X11340Y14052D02*
X11460D01*
X11400Y13992D02*
Y14112D01*
X11640Y14952D02*
X11760D01*
X11700Y14892D02*
Y15012D01*
X11640Y14652D02*
X11760D01*
X11700Y14592D02*
Y14712D01*
X11640Y14352D02*
X11760D01*
X11700Y14292D02*
Y14412D01*
X11940Y14052D02*
X12060D01*
X12000Y13992D02*
Y14112D01*
X12240Y14052D02*
X12360D01*
X12300Y13992D02*
Y14112D01*
X12540Y14052D02*
X12660D01*
X12600Y13992D02*
Y14112D01*
X11640Y14352D02*
X11760D01*
X11700Y14292D02*
Y14412D01*
X11940Y14352D02*
X12060D01*
X12000Y14292D02*
Y14412D01*
X12240Y14352D02*
X12360D01*
X12300Y14292D02*
Y14412D01*
X12540Y14352D02*
X12660D01*
X12600Y14292D02*
Y14412D01*
X12840Y14352D02*
X12960D01*
X12900Y14292D02*
Y14412D01*
X11640Y14652D02*
X11760D01*
X11700Y14592D02*
Y14712D01*
X12840Y14652D02*
X12960D01*
X12900Y14592D02*
Y14712D01*
X11640Y14952D02*
X11760D01*
X11700Y14892D02*
Y15012D01*
X12840Y14952D02*
X12960D01*
X12900Y14892D02*
Y15012D01*
X11640Y15252D02*
X11760D01*
X11700Y15192D02*
Y15312D01*
X12840Y15252D02*
X12960D01*
X12900Y15192D02*
Y15312D01*
X11640Y15552D02*
X11760D01*
X11700Y15492D02*
Y15612D01*
X12840Y15552D02*
X12960D01*
X12900Y15492D02*
Y15612D01*
X12840Y15852D02*
X12960D01*
X12900Y15792D02*
Y15912D01*
X11640Y16152D02*
X11760D01*
X11700Y16092D02*
Y16212D01*
X12840Y16152D02*
X12960D01*
X12900Y16092D02*
Y16212D01*
X11640Y16452D02*
X11760D01*
X11700Y16392D02*
Y16512D01*
X12840Y16452D02*
X12960D01*
X12900Y16392D02*
Y16512D01*
X11640Y16752D02*
X11760D01*
X11700Y16692D02*
Y16812D01*
X12840Y16752D02*
X12960D01*
X12900Y16692D02*
Y16812D01*
X11640Y17052D02*
X11760D01*
X11700Y16992D02*
Y17112D01*
X12840Y17352D02*
X12960D01*
X12900Y17292D02*
Y17412D01*
X11640Y17352D02*
X11760D01*
X11700Y17292D02*
Y17412D01*
X10740Y17352D02*
X10860D01*
X10800Y17292D02*
Y17412D01*
X10440Y17352D02*
X10560D01*
X10500Y17292D02*
Y17412D01*
X9890Y17352D02*
X10010D01*
X9950Y17292D02*
Y17412D01*
X10440Y17352D02*
X10560D01*
X10500Y17292D02*
Y17412D01*
X8690Y14952D02*
X8810D01*
X8750Y14892D02*
Y15012D01*
X8690Y15252D02*
X8810D01*
X8750Y15192D02*
Y15312D01*
X8690Y15552D02*
X8810D01*
X8750Y15492D02*
Y15612D01*
X8690Y15852D02*
X8810D01*
X8750Y15792D02*
Y15912D01*
X8690Y16152D02*
X8810D01*
X8750Y16092D02*
Y16212D01*
X8690Y16452D02*
X8810D01*
X8750Y16392D02*
Y16512D01*
X8690Y16752D02*
X8810D01*
X8750Y16692D02*
Y16812D01*
X8690Y17052D02*
X8810D01*
X8750Y16992D02*
Y17112D01*
X9590Y17352D02*
X9710D01*
X9650Y17292D02*
Y17412D01*
X9290Y17352D02*
X9410D01*
X9350Y17292D02*
Y17412D01*
X8990Y17352D02*
X9110D01*
X9050Y17292D02*
Y17412D01*
X8690Y17352D02*
X8810D01*
X8750Y17292D02*
Y17412D01*
X6840Y18400D02*
X6960D01*
X6900Y18340D02*
Y18460D01*
X6540Y18400D02*
X6660D01*
X6600Y18340D02*
Y18460D01*
X7140Y18400D02*
X7260D01*
X7200Y18340D02*
Y18460D01*
X6840Y18700D02*
X6960D01*
X6900Y18640D02*
Y18760D01*
X6540Y18700D02*
X6660D01*
X6600Y18640D02*
Y18760D01*
X7140Y18700D02*
X7260D01*
X7200Y18640D02*
Y18760D01*
X6840Y19000D02*
X6960D01*
X6900Y18940D02*
Y19060D01*
X7140Y19000D02*
X7260D01*
X7200Y18940D02*
Y19060D01*
X14190Y5150D02*
X14310D01*
X14250Y5090D02*
Y5210D01*
X14190Y3840D02*
X14310D01*
X14250Y3780D02*
Y3900D01*
X10190Y3840D02*
X10310D01*
X10250Y3780D02*
Y3900D01*
X10190Y5150D02*
X10310D01*
X10250Y5090D02*
Y5210D01*
X6140Y3840D02*
X6260D01*
X6200Y3780D02*
Y3900D01*
X6140Y5150D02*
X6260D01*
X6200Y5090D02*
Y5210D01*
X1558Y5341D02*
X1678D01*
X1618Y5281D02*
Y5401D01*
X1558Y5656D02*
X1678D01*
X1618Y5596D02*
Y5716D01*
X1558Y5971D02*
X1678D01*
X1618Y5911D02*
Y6031D01*
X17964Y4357D02*
X18239D01*
X18102Y4219D02*
Y4494D01*
X17964Y6640D02*
X18239D01*
X18102Y6502D02*
Y6778D01*
X1264Y6640D02*
X1539D01*
X1402Y6502D02*
Y6778D01*
X1264Y4357D02*
X1539D01*
X1402Y4219D02*
Y4494D01*
M02*
