M48
;Layer_Color=9474304
;FILE_FORMAT=2:4
INCH,LZ
;TYPE=PLATED
T1F00S00C0.0120
T2F00S00C0.0160
T3F00S00C0.0180
T4F00S00C0.0276
T5F00S00C0.0315
T6F00S00C0.0866
%
T01
X0053Y0005
X00566
X00602
X00638
X00674
X0071
Y0009
X00674
X00638
X00602
X00566
X0053
Y0013
X00566
X00602
X00638
X00674
X0071
Y0017
X00674
X00638
X00602
X00566
X0053
X0048Y0023
Y0026
Y0029
X00505Y00425
X0062Y00384
Y00515
X00605Y0068
X00575
X00545
X00515
X00485
Y0071
X00515
X00545
X00575
X00605
X00635
Y0068
X00665
X00695
X00725
Y0071
X00695
X00665
X00905
Y0068
X00935
X00965
X00995
X01025
X01055
X01085
X01115
X01145
X01175
X01205
Y0071
X01175
X01145
X01115
X01085
X01055
X01025
X00995
X00965
X00935
X01025Y00515
Y00384
X0091Y00425
X00883Y0029
X00853
Y0026
X00883
Y0023
X00853
Y002
Y0017
Y0014
Y0011
Y0008
Y0005
X0079
Y0008
Y0011
Y0014
Y0017
Y002
Y0023
X0076
Y0026
Y0029
X0079
Y0026
X0074Y004369
X01145
X01168Y0029
Y0026
Y0023
X01198
Y0026
Y0029
X01255
X01285
Y0026
Y0023
X01255
Y0026
Y002
Y0017
Y0014
Y0011
Y0008
Y0005
X01198
Y0008
Y0011
Y0014
Y0017
Y002
X01117Y0017
X01081
X01045
X01009
X00973
X00937
Y0013
X00973
X01009
X01045
X01081
X01117
Y0009
X01081
X01045
X01009
X00973
X00937
Y0005
X00973
X01009
X01045
X01081
X01117
X01027Y0011
X01337Y0013
X01373
X01409
X01445
X01481
X01517
Y0017
X01481
X01445
X01409
X01373
X01337
Y0009
X01373
X01409
X01445
X01481
X01517
Y0005
X01481
X01445
X01409
X01373
X01337
X01427Y0011
X016
Y0014
Y0017
Y002
Y0023
X0157
Y0026
Y0029
X016
Y0026
Y0008
Y0005
X01545Y004369
X01425Y00384
Y00515
X01435Y0068
X01405
X01375
X01345
X01375Y0071
X01405
X01435
X01465
Y0068
X01495
X01525
X01555
X01585
X01615
X01645
X01675
Y0071
X01645
X01615
X01585
X01555
X01525
X01495
X018349Y007501
X0188Y0082
X01905
X01945Y0078
Y00735
X019825
X0202
Y00695
X019825
X01945
X0202Y0078
X0201Y00535
Y00475
X0198Y00445
Y00415
X0192
Y00445
X0186
Y00415
X018294Y005026
Y005341
Y005656
X0182Y01
X0185
X0188
X0191
X0194
X0197
Y0103
X0194
X0191
X0188
X0185
X0182
Y0106
X0185
X0188
X0191
X0194
X0197
Y0109
X0194
X0191
X0188
X0185
X0182
Y0112
X0185
X0188
X0191
X0194
X0197
Y0115
X0194
X0191
X0188
X0185
X0182
Y0118
X0185
X0188
X0191
X0194
X0197
Y0121
X0194
Y0124
X0191
Y0121
X0188
X0185
X0182
Y0124
X0185
X0188
Y0127
X0185
X0182
Y013
X0185
X0188
X0191
Y0127
X0194
X0197
Y0124
Y013
X0194
Y0133
X0191
X0188
X0185
X0182
Y0136
X0185
X0188
X0191
X0194
X0197
Y0133
Y0139
X0194
X0191
X0188
X0185
X0182
X0179
Y0136
X0176
Y0139
X0129Y014052
X0126
X0123
X012
X0117
X0114
X0111
X0108
X0105
X0052Y01395
X0062Y0011
X0131Y00425
X0045Y0029
Y0026
Y0023
Y002
Y0017
Y0014
Y0011
Y0008
Y0005
X003294Y004711
X001618
Y005026
Y005341
Y005656
Y005971
X00425Y0068
X00455
Y0071
X00425
X00245Y0103
X00215
X00185
X00155
X00125
X00095
X00065
Y0106
X00095
X00125
X00155
X00185
X00215
X00245
Y0109
X00215
X00185
X00155
X00125
X00095
X00065
Y0112
X00095
X00125
X00155
X00185
X00215
X00245
Y0115
X00215
X00185
X00155
X00125
X00095
X00065
Y0118
X00095
X00125
X00155
X00185
X00215
X00245
Y0121
X00215
X00185
X00155
X00125
X00095
X00065
Y0124
X00095
X00125
X00155
X00185
X00215
X00245
Y0127
X00275
X00305
X00335
Y013
X00305
X00275
Y0133
Y0136
X00245
X00215
X00185
X00155
X00125
X00095
Y0133
Y013
Y0127
X00065
Y013
Y0133
Y0136
Y0139
X00095
X00125
X00155
X00185
X00215
X00245
X00275
X00245Y0133
Y013
X00215
Y0127
X00185
X00155
X00125
Y013
X00155
X00185
Y0133
X00215
X00155
X00125
Y0142
X00155
X00185
X00215
X00245
X00275
Y0145
X00245
X00215
X00185
X00155
X00125
X00095
Y0142
X00065
Y0145
Y0148
X00095
X00125
X00155
X00185
X00215
X00245
X00275
Y0151
X00245
X00215
X00185
X00155
X00125
X00095
X00065
Y0154
X00095
X00125
X00155
X00185
X00215
X00245
X00275
Y0157
X00245
X00215
X00185
X00155
X00125
X00095
X00065
Y016
X00095
X00125
X00155
X00185
X00215
X00245
X00275
Y0163
X00245
X00215
X00185
X00155
X00125
X00095
X00065
Y0166
X00095
X00125
X00155
X00185
X00215
X00245
X00275
Y0169
X00245
X00215
X00185
X00155
X00125
X00095
X00065
Y0172
X00095
X00125
X00155
X00185
X00215
X00245
X00275
Y0175
X00245
X00215
X00185
X00155
X00125
X00095
X00065
Y0178
X00095
X00125
X00155
X00185
X00215
X00245
X00275
Y0181
X00245
X00215
X00185
X00155
X00125
X00095
X00065
X00155Y0184
X00185
X00215
X00245
X00275
X00305
X00335
X00365
Y0187
X00335
X00305
X00275
X00245
X00215
X00185
X00155
Y019
X00185
X00215
X00245
X00275
X00305
X00335
X00365
Y0193
X00335
X00305
X00275
X00245
X00215
X00185
X00155
X0044
Y019
Y0187
Y0184
X0047
X005
X0053
X0056
X0059
Y0187
X0056
X0053
X005
X0047
Y019
X005
X0053
X0056
X0059
Y0193
X0056
X0053
X005
X0047
X0066
X0069
X0072
Y019
Y0187
Y0184
X0069
X0066
Y0187
Y019
X0069
Y0187
X00785Y0188
X00821
X00857
X00893
X00929
X00965
Y0184
X00929
X00893
X00857
X00821
X00785
Y018
X00821
X00857
X00893
X00929
X00965
X00965Y017352
X00995
X0105
X0108
X0111
X0114
X0117
Y017052
Y016752
Y016452
Y016152
Y015852
Y015552
Y015252
Y014952
X0114
X0111
X0108
X0105
Y014652
Y014352
X0108
Y014652
X0111
Y014352
X0114
Y014652
X0117
Y014352
X012
X0123
X0126
X0129
Y014652
Y014952
Y015252
Y015552
Y015852
Y016152
Y016452
Y016752
Y017052
Y017352
X01258Y018
X01222
X01186
X0115
X01114
X01078
Y0184
X01114
X0115
X01186
X01222
X01258
Y0188
X01222
X01186
X0115
X01114
X01078
Y0192
X01114
X0115
X01186
X01222
X01258
X0132Y0193
X0135
X0138
Y019
Y0187
Y0184
X0135
X0132
Y0187
X0135
Y019
X0132
X0145
Y0187
Y0184
X0148
X0151
X0154
X0157
X016
Y0187
X0157
X0154
X0151
X0148
Y019
X0151
X0154
X0157
X016
Y0193
X0157
X0154
X0151
X0148
X0145
X0167
X0167
X017
X0173
X0176
X0179
X0182
X0185
Y019
Y0187
Y0184
Y0181
Y0178
Y0175
Y0172
Y0169
Y0166
Y0163
Y016
Y0157
Y0154
Y0151
Y0148
Y0145
Y0142
X0188
X0191
X0194
X0197
Y0145
Y0148
Y0151
Y0154
Y0157
Y016
Y0163
Y0166
Y0169
Y0172
Y0175
Y0178
Y0181
X0194
Y0178
Y0175
Y0172
Y0169
Y0166
Y0163
Y016
Y0157
Y0154
Y0151
Y0148
Y0145
X0191
Y0148
Y0151
Y0154
Y0157
Y016
Y0163
Y0166
Y0169
Y0172
Y0175
Y0178
Y0181
X0188
Y0178
Y0175
Y0172
Y0169
Y0166
Y0163
Y016
Y0157
Y0154
Y0151
Y0148
Y0145
X0182
Y0142
X0179
X0176
Y0145
X0179
Y0148
X0182
Y0151
X0179
X0176
Y0148
Y0154
X0179
X0182
Y0157
X0179
X0176
Y016
X0179
X0182
Y0163
X0179
X0176
Y0166
X0179
X0182
Y0169
X0179
X0176
Y0172
X0179
X0182
Y0175
X0179
X0176
Y0178
X0179
X0182
Y0181
X0179
X0176
Y0184
X0179
X0182
Y0187
X0179
X0176
X0173
Y0184
X017
X0167
Y0187
X017
Y019
X0167
X0173
X0176
X0179
X0182
X0188
Y0187
Y0184
X0191
Y0187
Y019
X0191Y0193
X0188
X01525Y01785
Y01755
Y01725
Y01695
Y01665
Y01635
Y01605
Y01575
Y01545
Y01515
Y01485
Y01455
X00995Y014652
Y014952
X00965
Y014652
X00935
Y014952
X00905
Y014652
X00875
Y014952
Y015252
Y015552
Y015852
Y016152
Y016452
Y016752
Y017052
Y017352
X00905
X00935
X00755
X00755Y01705
Y01675
Y01645
Y01615
Y01585
Y01555
Y01525
Y01495
Y01465
X0052Y01455
Y01425
Y01485
Y01515
Y01545
Y01575
Y01605
Y01635
Y01665
Y01695
Y01725
Y01755
Y01785
X00785Y0192
X00821
X00857
X00893
X00929
X00965
X00875Y0186
X01168
T02
X00515Y0051
X00915
X013175
T03
X017Y00605
T04
X018102Y004357
Y00664
X001402
Y004357
T05
X009238Y01545
X011206
T06
X019843Y00063
X00063
Y019055
X019843
M30
