G04*
G04 #@! TF.GenerationSoftware,Altium Limited,Altium Designer,22.0.2 (36)*
G04*
G04 Layer_Color=16711935*
%FSLAX24Y24*%
%MOIN*%
G70*
G04*
G04 #@! TF.SameCoordinates,5AD8CBCB-7B86-44EA-BE16-98DFC8B2639C*
G04*
G04*
G04 #@! TF.FilePolarity,Positive*
G04*
G01*
G75*
%ADD12C,0.0079*%
%ADD16C,0.0050*%
%ADD17C,0.0100*%
%ADD57C,0.0039*%
D12*
X3836Y12681D02*
G03*
X3836Y12681I-39J0D01*
G01*
X13386D02*
G03*
X13386Y12681I-39J0D01*
G01*
X8636D02*
G03*
X8636Y12681I-39J0D01*
G01*
Y6969D02*
G03*
X8636Y6969I-39J0D01*
G01*
X3836D02*
G03*
X3836Y6969I-39J0D01*
G01*
X13386D02*
G03*
X13386Y6969I-39J0D01*
G01*
D16*
X3501Y7784D02*
Y11869D01*
X7399D01*
Y7784D02*
Y11869D01*
X3501Y7784D02*
X7399D01*
X13051D02*
Y11869D01*
X16949D01*
Y7784D02*
Y11869D01*
X13051Y7784D02*
X16949D01*
X8301D02*
X12199D01*
Y11869D01*
X8301D02*
X12199D01*
X8301Y7784D02*
Y11869D01*
Y11866D02*
X12199D01*
Y7781D02*
Y11866D01*
X8301Y7781D02*
X12199D01*
X8301D02*
Y11866D01*
X3501D02*
X7399D01*
Y7781D02*
Y11866D01*
X3501Y7781D02*
X7399D01*
X3501D02*
Y11866D01*
X13051D02*
X16949D01*
Y7781D02*
Y11866D01*
X13051Y7781D02*
X16949D01*
X13051D02*
Y11866D01*
D17*
X20079Y0D02*
G03*
X20472Y394I0J394D01*
G01*
Y19291D02*
G03*
X20079Y19685I-394J0D01*
G01*
X394D02*
G03*
X0Y19291I0J-394D01*
G01*
Y394D02*
G03*
X394Y0I394J0D01*
G01*
Y19685D02*
X20079D01*
X394Y0D02*
X20079D01*
X0Y394D02*
Y19291D01*
X20472Y394D02*
Y19291D01*
D57*
X18633Y6542D02*
G03*
X18633Y6542I-157J0D01*
G01*
X1933D02*
G03*
X1933Y6542I-157J0D01*
G01*
X18161Y4140D02*
Y6857D01*
X19027Y4140D02*
Y6857D01*
X18161D02*
X19027D01*
X18161Y4140D02*
X19027D01*
X1461D02*
X2327D01*
X1461Y6857D02*
X2327D01*
Y4140D02*
Y6857D01*
X1461Y4140D02*
Y6857D01*
M02*
