G04*
G04 #@! TF.GenerationSoftware,Altium Limited,Altium Designer,22.0.2 (36)*
G04*
G04 Layer_Color=128*
%FSLAX24Y24*%
%MOIN*%
G70*
G04*
G04 #@! TF.SameCoordinates,5AD8CBCB-7B86-44EA-BE16-98DFC8B2639C*
G04*
G04*
G04 #@! TF.FilePolarity,Positive*
G04*
G01*
G75*
%ADD17C,0.0100*%
%ADD18C,0.0197*%
%ADD45O,0.0572X0.0139*%
%ADD47R,0.0315X0.0354*%
G36*
X17269Y17851D02*
Y17249D01*
X17230Y17210D01*
X16724D01*
X16685Y17249D01*
Y17395D01*
X16724Y17434D01*
X16844D01*
X16883Y17474D01*
Y17626D01*
X16844Y17666D01*
X16724D01*
X16685Y17705D01*
Y17851D01*
X16724Y17890D01*
X17230D01*
X17269Y17851D01*
D02*
G37*
G36*
X16015D02*
Y17705D01*
X15976Y17666D01*
X15856D01*
X15817Y17626D01*
Y17474D01*
X15856Y17434D01*
X15976D01*
X16015Y17395D01*
Y17249D01*
X15976Y17210D01*
X15470D01*
X15431Y17249D01*
Y17851D01*
X15470Y17890D01*
X15976D01*
X16015Y17851D01*
D02*
G37*
G36*
X15069D02*
Y17249D01*
X15030Y17210D01*
X14524D01*
X14485Y17249D01*
Y17395D01*
X14524Y17434D01*
X14644D01*
X14683Y17474D01*
Y17626D01*
X14644Y17666D01*
X14524D01*
X14485Y17705D01*
Y17851D01*
X14524Y17890D01*
X15030D01*
X15069Y17851D01*
D02*
G37*
G36*
X13815D02*
Y17705D01*
X13776Y17666D01*
X13656D01*
X13617Y17626D01*
Y17474D01*
X13656Y17434D01*
X13776D01*
X13815Y17395D01*
Y17249D01*
X13776Y17210D01*
X13270D01*
X13231Y17249D01*
Y17851D01*
X13270Y17890D01*
X13776D01*
X13815Y17851D01*
D02*
G37*
G36*
X7219D02*
Y17249D01*
X7180Y17210D01*
X6674D01*
X6635Y17249D01*
Y17395D01*
X6674Y17434D01*
X6794D01*
X6833Y17474D01*
Y17626D01*
X6794Y17666D01*
X6674D01*
X6635Y17705D01*
Y17851D01*
X6674Y17890D01*
X7180D01*
X7219Y17851D01*
D02*
G37*
G36*
X5965D02*
Y17705D01*
X5926Y17666D01*
X5806D01*
X5767Y17626D01*
Y17474D01*
X5806Y17434D01*
X5926D01*
X5965Y17395D01*
Y17249D01*
X5926Y17210D01*
X5420D01*
X5381Y17249D01*
Y17851D01*
X5420Y17890D01*
X5926D01*
X5965Y17851D01*
D02*
G37*
G36*
X5019D02*
Y17249D01*
X4980Y17210D01*
X4474D01*
X4435Y17249D01*
Y17395D01*
X4474Y17434D01*
X4594D01*
X4633Y17474D01*
Y17626D01*
X4594Y17666D01*
X4474D01*
X4435Y17705D01*
Y17851D01*
X4474Y17890D01*
X4980D01*
X5019Y17851D01*
D02*
G37*
G36*
X3765D02*
Y17705D01*
X3726Y17666D01*
X3606D01*
X3567Y17626D01*
Y17474D01*
X3606Y17434D01*
X3726D01*
X3765Y17395D01*
Y17249D01*
X3726Y17210D01*
X3220D01*
X3181Y17249D01*
Y17851D01*
X3220Y17890D01*
X3726D01*
X3765Y17851D01*
D02*
G37*
G36*
X17269Y16901D02*
Y16299D01*
X17230Y16260D01*
X16724D01*
X16685Y16299D01*
Y16445D01*
X16724Y16484D01*
X16844D01*
X16883Y16524D01*
Y16676D01*
X16844Y16716D01*
X16724D01*
X16685Y16755D01*
Y16901D01*
X16724Y16940D01*
X17230D01*
X17269Y16901D01*
D02*
G37*
G36*
X16015D02*
Y16755D01*
X15976Y16716D01*
X15856D01*
X15817Y16676D01*
Y16524D01*
X15856Y16484D01*
X15976D01*
X16015Y16445D01*
Y16299D01*
X15976Y16260D01*
X15470D01*
X15431Y16299D01*
Y16901D01*
X15470Y16940D01*
X15976D01*
X16015Y16901D01*
D02*
G37*
G36*
X15069D02*
Y16299D01*
X15030Y16260D01*
X14524D01*
X14485Y16299D01*
Y16445D01*
X14524Y16484D01*
X14644D01*
X14683Y16524D01*
Y16676D01*
X14644Y16716D01*
X14524D01*
X14485Y16755D01*
Y16901D01*
X14524Y16940D01*
X15030D01*
X15069Y16901D01*
D02*
G37*
G36*
X13815D02*
Y16755D01*
X13776Y16716D01*
X13656D01*
X13617Y16676D01*
Y16524D01*
X13656Y16484D01*
X13776D01*
X13815Y16445D01*
Y16299D01*
X13776Y16260D01*
X13270D01*
X13231Y16299D01*
Y16901D01*
X13270Y16940D01*
X13776D01*
X13815Y16901D01*
D02*
G37*
G36*
X11119D02*
Y16299D01*
X11080Y16260D01*
X10574D01*
X10535Y16299D01*
Y16445D01*
X10574Y16484D01*
X10694D01*
X10733Y16524D01*
Y16676D01*
X10694Y16716D01*
X10574D01*
X10535Y16755D01*
Y16901D01*
X10574Y16940D01*
X11080D01*
X11119Y16901D01*
D02*
G37*
G36*
X9865D02*
Y16755D01*
X9826Y16716D01*
X9706D01*
X9667Y16676D01*
Y16524D01*
X9706Y16484D01*
X9826D01*
X9865Y16445D01*
Y16299D01*
X9826Y16260D01*
X9320D01*
X9281Y16299D01*
Y16901D01*
X9320Y16940D01*
X9826D01*
X9865Y16901D01*
D02*
G37*
G36*
X7219D02*
Y16299D01*
X7180Y16260D01*
X6674D01*
X6635Y16299D01*
Y16445D01*
X6674Y16484D01*
X6794D01*
X6833Y16524D01*
Y16676D01*
X6794Y16716D01*
X6674D01*
X6635Y16755D01*
Y16901D01*
X6674Y16940D01*
X7180D01*
X7219Y16901D01*
D02*
G37*
G36*
X5965D02*
Y16755D01*
X5926Y16716D01*
X5806D01*
X5767Y16676D01*
Y16524D01*
X5806Y16484D01*
X5926D01*
X5965Y16445D01*
Y16299D01*
X5926Y16260D01*
X5420D01*
X5381Y16299D01*
Y16901D01*
X5420Y16940D01*
X5926D01*
X5965Y16901D01*
D02*
G37*
G36*
X5019D02*
Y16299D01*
X4980Y16260D01*
X4474D01*
X4435Y16299D01*
Y16445D01*
X4474Y16484D01*
X4594D01*
X4633Y16524D01*
Y16676D01*
X4594Y16716D01*
X4474D01*
X4435Y16755D01*
Y16901D01*
X4474Y16940D01*
X4980D01*
X5019Y16901D01*
D02*
G37*
G36*
X3765D02*
Y16755D01*
X3726Y16716D01*
X3606D01*
X3567Y16676D01*
Y16524D01*
X3606Y16484D01*
X3726D01*
X3765Y16445D01*
Y16299D01*
X3726Y16260D01*
X3220D01*
X3181Y16299D01*
Y16901D01*
X3220Y16940D01*
X3726D01*
X3765Y16901D01*
D02*
G37*
G36*
X17269Y15951D02*
Y15349D01*
X17230Y15310D01*
X16724D01*
X16685Y15349D01*
Y15495D01*
X16724Y15534D01*
X16844D01*
X16883Y15574D01*
Y15726D01*
X16844Y15766D01*
X16724D01*
X16685Y15805D01*
Y15951D01*
X16724Y15990D01*
X17230D01*
X17269Y15951D01*
D02*
G37*
G36*
X16015D02*
Y15805D01*
X15976Y15766D01*
X15856D01*
X15817Y15726D01*
Y15574D01*
X15856Y15534D01*
X15976D01*
X16015Y15495D01*
Y15349D01*
X15976Y15310D01*
X15470D01*
X15431Y15349D01*
Y15951D01*
X15470Y15990D01*
X15976D01*
X16015Y15951D01*
D02*
G37*
G36*
X15069D02*
Y15349D01*
X15030Y15310D01*
X14524D01*
X14485Y15349D01*
Y15495D01*
X14524Y15534D01*
X14644D01*
X14683Y15574D01*
Y15726D01*
X14644Y15766D01*
X14524D01*
X14485Y15805D01*
Y15951D01*
X14524Y15990D01*
X15030D01*
X15069Y15951D01*
D02*
G37*
G36*
X13815D02*
Y15805D01*
X13776Y15766D01*
X13656D01*
X13617Y15726D01*
Y15574D01*
X13656Y15534D01*
X13776D01*
X13815Y15495D01*
Y15349D01*
X13776Y15310D01*
X13270D01*
X13231Y15349D01*
Y15951D01*
X13270Y15990D01*
X13776D01*
X13815Y15951D01*
D02*
G37*
G36*
X7219D02*
Y15349D01*
X7180Y15310D01*
X6674D01*
X6635Y15349D01*
Y15495D01*
X6674Y15534D01*
X6794D01*
X6833Y15574D01*
Y15726D01*
X6794Y15766D01*
X6674D01*
X6635Y15805D01*
Y15951D01*
X6674Y15990D01*
X7180D01*
X7219Y15951D01*
D02*
G37*
G36*
X5965D02*
Y15805D01*
X5926Y15766D01*
X5806D01*
X5767Y15726D01*
Y15574D01*
X5806Y15534D01*
X5926D01*
X5965Y15495D01*
Y15349D01*
X5926Y15310D01*
X5420D01*
X5381Y15349D01*
Y15951D01*
X5420Y15990D01*
X5926D01*
X5965Y15951D01*
D02*
G37*
G36*
X5019D02*
Y15349D01*
X4980Y15310D01*
X4474D01*
X4435Y15349D01*
Y15495D01*
X4474Y15534D01*
X4594D01*
X4633Y15574D01*
Y15726D01*
X4594Y15766D01*
X4474D01*
X4435Y15805D01*
Y15951D01*
X4474Y15990D01*
X4980D01*
X5019Y15951D01*
D02*
G37*
G36*
X3765D02*
Y15805D01*
X3726Y15766D01*
X3606D01*
X3567Y15726D01*
Y15574D01*
X3606Y15534D01*
X3726D01*
X3765Y15495D01*
Y15349D01*
X3726Y15310D01*
X3220D01*
X3181Y15349D01*
Y15951D01*
X3220Y15990D01*
X3726D01*
X3765Y15951D01*
D02*
G37*
G36*
X17269Y15001D02*
Y14399D01*
X17230Y14360D01*
X16724D01*
X16685Y14399D01*
Y14545D01*
X16724Y14584D01*
X16844D01*
X16883Y14624D01*
Y14776D01*
X16844Y14816D01*
X16724D01*
X16685Y14855D01*
Y15001D01*
X16724Y15040D01*
X17230D01*
X17269Y15001D01*
D02*
G37*
G36*
X16015D02*
Y14855D01*
X15976Y14816D01*
X15856D01*
X15817Y14776D01*
Y14624D01*
X15856Y14584D01*
X15976D01*
X16015Y14545D01*
Y14399D01*
X15976Y14360D01*
X15470D01*
X15431Y14399D01*
Y15001D01*
X15470Y15040D01*
X15976D01*
X16015Y15001D01*
D02*
G37*
G36*
X15069D02*
Y14399D01*
X15030Y14360D01*
X14524D01*
X14485Y14399D01*
Y14545D01*
X14524Y14584D01*
X14644D01*
X14683Y14624D01*
Y14776D01*
X14644Y14816D01*
X14524D01*
X14485Y14855D01*
Y15001D01*
X14524Y15040D01*
X15030D01*
X15069Y15001D01*
D02*
G37*
G36*
X13815D02*
Y14855D01*
X13776Y14816D01*
X13656D01*
X13617Y14776D01*
Y14624D01*
X13656Y14584D01*
X13776D01*
X13815Y14545D01*
Y14399D01*
X13776Y14360D01*
X13270D01*
X13231Y14399D01*
Y15001D01*
X13270Y15040D01*
X13776D01*
X13815Y15001D01*
D02*
G37*
G36*
X7219D02*
Y14399D01*
X7180Y14360D01*
X6674D01*
X6635Y14399D01*
Y14545D01*
X6674Y14584D01*
X6794D01*
X6833Y14624D01*
Y14776D01*
X6794Y14816D01*
X6674D01*
X6635Y14855D01*
Y15001D01*
X6674Y15040D01*
X7180D01*
X7219Y15001D01*
D02*
G37*
G36*
X5965D02*
Y14855D01*
X5926Y14816D01*
X5806D01*
X5767Y14776D01*
Y14624D01*
X5806Y14584D01*
X5926D01*
X5965Y14545D01*
Y14399D01*
X5926Y14360D01*
X5420D01*
X5381Y14399D01*
Y15001D01*
X5420Y15040D01*
X5926D01*
X5965Y15001D01*
D02*
G37*
G36*
X5009D02*
Y14399D01*
X4969Y14360D01*
X4463D01*
X4424Y14399D01*
Y14545D01*
X4463Y14584D01*
X4583D01*
X4623Y14624D01*
Y14776D01*
X4583Y14816D01*
X4463D01*
X4424Y14855D01*
Y15001D01*
X4463Y15040D01*
X4969D01*
X5009Y15001D01*
D02*
G37*
G36*
X3755D02*
Y14855D01*
X3715Y14816D01*
X3595D01*
X3556Y14776D01*
Y14624D01*
X3595Y14584D01*
X3715D01*
X3755Y14545D01*
Y14399D01*
X3715Y14360D01*
X3209D01*
X3170Y14399D01*
Y15001D01*
X3209Y15040D01*
X3715D01*
X3755Y15001D01*
D02*
G37*
G36*
X12805Y12370D02*
Y12056D01*
X12785Y12036D01*
X12696D01*
Y12182D01*
X12566D01*
Y12036D01*
X12470D01*
X12451Y12056D01*
Y12370D01*
X12470Y12390D01*
X12785D01*
X12805Y12370D01*
D02*
G37*
G36*
X8013D02*
Y12056D01*
X7993Y12036D01*
X7904D01*
Y12182D01*
X7774D01*
Y12036D01*
X7678D01*
X7659Y12056D01*
Y12370D01*
X7678Y12390D01*
X7993D01*
X8013Y12370D01*
D02*
G37*
G36*
X3171D02*
Y12056D01*
X3151Y12036D01*
X3061D01*
Y12182D01*
X2932D01*
Y12036D01*
X2836D01*
X2817Y12056D01*
Y12370D01*
X2836Y12390D01*
X3151D01*
X3171Y12370D01*
D02*
G37*
G36*
X12805Y11741D02*
Y11430D01*
X12785Y11410D01*
X12470D01*
X12451Y11430D01*
Y11741D01*
X12470Y11760D01*
X12566D01*
Y11611D01*
X12696D01*
Y11760D01*
X12785D01*
X12805Y11741D01*
D02*
G37*
G36*
X8013D02*
Y11430D01*
X7993Y11410D01*
X7678D01*
X7659Y11430D01*
Y11741D01*
X7678Y11760D01*
X7774D01*
Y11611D01*
X7904D01*
Y11760D01*
X7993D01*
X8013Y11741D01*
D02*
G37*
G36*
X3171D02*
Y11430D01*
X3151Y11410D01*
X2836D01*
X2817Y11430D01*
Y11741D01*
X2836Y11760D01*
X2932D01*
Y11611D01*
X3061D01*
Y11760D01*
X3151D01*
X3171Y11741D01*
D02*
G37*
G36*
X16791Y11382D02*
X16516D01*
Y12406D01*
X16791D01*
Y11382D01*
D02*
G37*
G36*
X16319D02*
X16043D01*
Y12406D01*
X16319D01*
Y11382D01*
D02*
G37*
G36*
X15846D02*
X15571D01*
Y12406D01*
X15846D01*
Y11382D01*
D02*
G37*
G36*
X15374D02*
X15098D01*
Y12406D01*
X15374D01*
Y11382D01*
D02*
G37*
G36*
X14902D02*
X14626D01*
Y12406D01*
X14902D01*
Y11382D01*
D02*
G37*
G36*
X14429D02*
X14154D01*
Y12406D01*
X14429D01*
Y11382D01*
D02*
G37*
G36*
X13957D02*
X13681D01*
Y12406D01*
X13957D01*
Y11382D01*
D02*
G37*
G36*
X13484D02*
X13209D01*
Y12406D01*
X13484D01*
Y11382D01*
D02*
G37*
G36*
X12041D02*
X11766D01*
Y12406D01*
X12041D01*
Y11382D01*
D02*
G37*
G36*
X11569D02*
X11293D01*
Y12406D01*
X11569D01*
Y11382D01*
D02*
G37*
G36*
X11096D02*
X10821D01*
Y12406D01*
X11096D01*
Y11382D01*
D02*
G37*
G36*
X10624D02*
X10348D01*
Y12406D01*
X10624D01*
Y11382D01*
D02*
G37*
G36*
X10152D02*
X9876D01*
Y12406D01*
X10152D01*
Y11382D01*
D02*
G37*
G36*
X9679D02*
X9404D01*
Y12406D01*
X9679D01*
Y11382D01*
D02*
G37*
G36*
X9207D02*
X8931D01*
Y12406D01*
X9207D01*
Y11382D01*
D02*
G37*
G36*
X8734D02*
X8459D01*
Y12406D01*
X8734D01*
Y11382D01*
D02*
G37*
G36*
X7241D02*
X6966D01*
Y12406D01*
X7241D01*
Y11382D01*
D02*
G37*
G36*
X6769D02*
X6493D01*
Y12406D01*
X6769D01*
Y11382D01*
D02*
G37*
G36*
X6296D02*
X6021D01*
Y12406D01*
X6296D01*
Y11382D01*
D02*
G37*
G36*
X5824D02*
X5548D01*
Y12406D01*
X5824D01*
Y11382D01*
D02*
G37*
G36*
X5352D02*
X5076D01*
Y12406D01*
X5352D01*
Y11382D01*
D02*
G37*
G36*
X4879D02*
X4604D01*
Y12406D01*
X4879D01*
Y11382D01*
D02*
G37*
G36*
X4407D02*
X4131D01*
Y12406D01*
X4407D01*
Y11382D01*
D02*
G37*
G36*
X3934D02*
X3659D01*
Y12406D01*
X3934D01*
Y11382D01*
D02*
G37*
G36*
X17865Y8950D02*
Y8497D01*
X17846Y8477D01*
X17680Y8479D01*
Y8652D01*
X17503D01*
Y8475D01*
X17342Y8477D01*
X17322Y8497D01*
Y8950D01*
X17342Y8969D01*
X17846D01*
X17865Y8950D01*
D02*
G37*
G36*
X20027Y8620D02*
Y8309D01*
X20007Y8290D01*
X19912D01*
Y8439D01*
X19782D01*
Y8290D01*
X19693D01*
X19673Y8309D01*
Y8620D01*
X19693Y8640D01*
X20007D01*
X20027Y8620D01*
D02*
G37*
G36*
X17865Y8103D02*
Y7650D01*
X17846Y7631D01*
X17342D01*
X17322Y7650D01*
Y8103D01*
X17342Y8123D01*
X17503Y8121D01*
Y7948D01*
X17680D01*
Y8123D01*
X17846Y8123D01*
X17865Y8103D01*
D02*
G37*
G36*
X20027Y7994D02*
Y7680D01*
X20007Y7660D01*
X19693D01*
X19673Y7680D01*
Y7994D01*
X19693Y8014D01*
X19782D01*
Y7868D01*
X19912D01*
Y8014D01*
X20007D01*
X20027Y7994D01*
D02*
G37*
G36*
X19134Y8007D02*
Y7693D01*
X19114Y7673D01*
X18803D01*
X18783Y7693D01*
Y7788D01*
X18933D01*
Y7918D01*
X18783D01*
Y8007D01*
X18803Y8027D01*
X19114D01*
X19134Y8007D01*
D02*
G37*
G36*
X18508D02*
Y7918D01*
X18362D01*
Y7788D01*
X18508D01*
Y7693D01*
X18488Y7673D01*
X18173D01*
X18154Y7693D01*
Y8007D01*
X18173Y8027D01*
X18488D01*
X18508Y8007D01*
D02*
G37*
D17*
X20079Y0D02*
G03*
X20472Y394I0J394D01*
G01*
Y19291D02*
G03*
X20079Y19685I-394J0D01*
G01*
X394D02*
G03*
X0Y19291I0J-394D01*
G01*
Y394D02*
G03*
X394Y0I394J0D01*
G01*
Y19685D02*
X20079D01*
X394Y0D02*
X20079D01*
X0Y394D02*
Y19291D01*
X20472Y394D02*
Y19291D01*
D18*
X7202Y7531D02*
G03*
X7202Y7531I-98J0D01*
G01*
X6730D02*
G03*
X6730Y7531I-98J0D01*
G01*
X6257D02*
G03*
X6257Y7531I-98J0D01*
G01*
X5785D02*
G03*
X5785Y7531I-98J0D01*
G01*
X5312D02*
G03*
X5312Y7531I-98J0D01*
G01*
X4840D02*
G03*
X4840Y7531I-98J0D01*
G01*
X4367D02*
G03*
X4367Y7531I-98J0D01*
G01*
X3895D02*
G03*
X3895Y7531I-98J0D01*
G01*
X6730Y8004D02*
G03*
X6730Y8004I-98J0D01*
G01*
X6257D02*
G03*
X6257Y8004I-98J0D01*
G01*
X5785D02*
G03*
X5785Y8004I-98J0D01*
G01*
X5312D02*
G03*
X5312Y8004I-98J0D01*
G01*
X4840D02*
G03*
X4840Y8004I-98J0D01*
G01*
X4367D02*
G03*
X4367Y8004I-98J0D01*
G01*
X6730Y8476D02*
G03*
X6730Y8476I-98J0D01*
G01*
X6257D02*
G03*
X6257Y8476I-98J0D01*
G01*
X5785D02*
G03*
X5785Y8476I-98J0D01*
G01*
X5312D02*
G03*
X5312Y8476I-98J0D01*
G01*
X4840D02*
G03*
X4840Y8476I-98J0D01*
G01*
X4367D02*
G03*
X4367Y8476I-98J0D01*
G01*
X6730Y8949D02*
G03*
X6730Y8949I-98J0D01*
G01*
X6257D02*
G03*
X6257Y8949I-98J0D01*
G01*
X5785D02*
G03*
X5785Y8949I-98J0D01*
G01*
X5312D02*
G03*
X5312Y8949I-98J0D01*
G01*
X4840D02*
G03*
X4840Y8949I-98J0D01*
G01*
X4367D02*
G03*
X4367Y8949I-98J0D01*
G01*
X7202Y9421D02*
G03*
X7202Y9421I-98J0D01*
G01*
X6730D02*
G03*
X6730Y9421I-98J0D01*
G01*
X6257D02*
G03*
X6257Y9421I-98J0D01*
G01*
X5785D02*
G03*
X5785Y9421I-98J0D01*
G01*
X5312D02*
G03*
X5312Y9421I-98J0D01*
G01*
X4840D02*
G03*
X4840Y9421I-98J0D01*
G01*
X4367D02*
G03*
X4367Y9421I-98J0D01*
G01*
X3895D02*
G03*
X3895Y9421I-98J0D01*
G01*
X7202Y9894D02*
G03*
X7202Y9894I-98J0D01*
G01*
X6730D02*
G03*
X6730Y9894I-98J0D01*
G01*
X6257D02*
G03*
X6257Y9894I-98J0D01*
G01*
X5785D02*
G03*
X5785Y9894I-98J0D01*
G01*
X5312D02*
G03*
X5312Y9894I-98J0D01*
G01*
X4840D02*
G03*
X4840Y9894I-98J0D01*
G01*
X4367D02*
G03*
X4367Y9894I-98J0D01*
G01*
X3895D02*
G03*
X3895Y9894I-98J0D01*
G01*
X16752Y7531D02*
G03*
X16752Y7531I-98J0D01*
G01*
X16280D02*
G03*
X16280Y7531I-98J0D01*
G01*
X15807D02*
G03*
X15807Y7531I-98J0D01*
G01*
X15335D02*
G03*
X15335Y7531I-98J0D01*
G01*
X14862D02*
G03*
X14862Y7531I-98J0D01*
G01*
X14390D02*
G03*
X14390Y7531I-98J0D01*
G01*
X13917D02*
G03*
X13917Y7531I-98J0D01*
G01*
X13445D02*
G03*
X13445Y7531I-98J0D01*
G01*
X16280Y8004D02*
G03*
X16280Y8004I-98J0D01*
G01*
X15807D02*
G03*
X15807Y8004I-98J0D01*
G01*
X15335D02*
G03*
X15335Y8004I-98J0D01*
G01*
X14862D02*
G03*
X14862Y8004I-98J0D01*
G01*
X14390D02*
G03*
X14390Y8004I-98J0D01*
G01*
X13917D02*
G03*
X13917Y8004I-98J0D01*
G01*
X16280Y8476D02*
G03*
X16280Y8476I-98J0D01*
G01*
X15807D02*
G03*
X15807Y8476I-98J0D01*
G01*
X15335D02*
G03*
X15335Y8476I-98J0D01*
G01*
X14862D02*
G03*
X14862Y8476I-98J0D01*
G01*
X14390D02*
G03*
X14390Y8476I-98J0D01*
G01*
X13917D02*
G03*
X13917Y8476I-98J0D01*
G01*
X16280Y8949D02*
G03*
X16280Y8949I-98J0D01*
G01*
X15807D02*
G03*
X15807Y8949I-98J0D01*
G01*
X15335D02*
G03*
X15335Y8949I-98J0D01*
G01*
X14862D02*
G03*
X14862Y8949I-98J0D01*
G01*
X14390D02*
G03*
X14390Y8949I-98J0D01*
G01*
X13917D02*
G03*
X13917Y8949I-98J0D01*
G01*
X16752Y9421D02*
G03*
X16752Y9421I-98J0D01*
G01*
X16280D02*
G03*
X16280Y9421I-98J0D01*
G01*
X15807D02*
G03*
X15807Y9421I-98J0D01*
G01*
X15335D02*
G03*
X15335Y9421I-98J0D01*
G01*
X14862D02*
G03*
X14862Y9421I-98J0D01*
G01*
X14390D02*
G03*
X14390Y9421I-98J0D01*
G01*
X13917D02*
G03*
X13917Y9421I-98J0D01*
G01*
X13445D02*
G03*
X13445Y9421I-98J0D01*
G01*
X16752Y9894D02*
G03*
X16752Y9894I-98J0D01*
G01*
X16280D02*
G03*
X16280Y9894I-98J0D01*
G01*
X15807D02*
G03*
X15807Y9894I-98J0D01*
G01*
X15335D02*
G03*
X15335Y9894I-98J0D01*
G01*
X14862D02*
G03*
X14862Y9894I-98J0D01*
G01*
X14390D02*
G03*
X14390Y9894I-98J0D01*
G01*
X13917D02*
G03*
X13917Y9894I-98J0D01*
G01*
X13445D02*
G03*
X13445Y9894I-98J0D01*
G01*
X8695D02*
G03*
X8695Y9894I-98J0D01*
G01*
X9167D02*
G03*
X9167Y9894I-98J0D01*
G01*
X9640D02*
G03*
X9640Y9894I-98J0D01*
G01*
X10112D02*
G03*
X10112Y9894I-98J0D01*
G01*
X10585D02*
G03*
X10585Y9894I-98J0D01*
G01*
X11057D02*
G03*
X11057Y9894I-98J0D01*
G01*
X11530D02*
G03*
X11530Y9894I-98J0D01*
G01*
X12002D02*
G03*
X12002Y9894I-98J0D01*
G01*
X8695Y9421D02*
G03*
X8695Y9421I-98J0D01*
G01*
X9167D02*
G03*
X9167Y9421I-98J0D01*
G01*
X9640D02*
G03*
X9640Y9421I-98J0D01*
G01*
X10112D02*
G03*
X10112Y9421I-98J0D01*
G01*
X10585D02*
G03*
X10585Y9421I-98J0D01*
G01*
X11057D02*
G03*
X11057Y9421I-98J0D01*
G01*
X11530D02*
G03*
X11530Y9421I-98J0D01*
G01*
X12002D02*
G03*
X12002Y9421I-98J0D01*
G01*
X9167Y8949D02*
G03*
X9167Y8949I-98J0D01*
G01*
X9640D02*
G03*
X9640Y8949I-98J0D01*
G01*
X10112D02*
G03*
X10112Y8949I-98J0D01*
G01*
X10585D02*
G03*
X10585Y8949I-98J0D01*
G01*
X11057D02*
G03*
X11057Y8949I-98J0D01*
G01*
X11530D02*
G03*
X11530Y8949I-98J0D01*
G01*
X9167Y8476D02*
G03*
X9167Y8476I-98J0D01*
G01*
X9640D02*
G03*
X9640Y8476I-98J0D01*
G01*
X10112D02*
G03*
X10112Y8476I-98J0D01*
G01*
X10585D02*
G03*
X10585Y8476I-98J0D01*
G01*
X11057D02*
G03*
X11057Y8476I-98J0D01*
G01*
X11530D02*
G03*
X11530Y8476I-98J0D01*
G01*
X9167Y8004D02*
G03*
X9167Y8004I-98J0D01*
G01*
X9640D02*
G03*
X9640Y8004I-98J0D01*
G01*
X10112D02*
G03*
X10112Y8004I-98J0D01*
G01*
X10585D02*
G03*
X10585Y8004I-98J0D01*
G01*
X11057D02*
G03*
X11057Y8004I-98J0D01*
G01*
X11530D02*
G03*
X11530Y8004I-98J0D01*
G01*
X8695Y7531D02*
G03*
X8695Y7531I-98J0D01*
G01*
X9167D02*
G03*
X9167Y7531I-98J0D01*
G01*
X9640D02*
G03*
X9640Y7531I-98J0D01*
G01*
X10112D02*
G03*
X10112Y7531I-98J0D01*
G01*
X10585D02*
G03*
X10585Y7531I-98J0D01*
G01*
X11057D02*
G03*
X11057Y7531I-98J0D01*
G01*
X11530D02*
G03*
X11530Y7531I-98J0D01*
G01*
X12002D02*
G03*
X12002Y7531I-98J0D01*
G01*
D45*
X7909Y4881D02*
D03*
Y4625D02*
D03*
Y4369D02*
D03*
Y4113D02*
D03*
X5604Y4881D02*
D03*
Y4625D02*
D03*
Y4369D02*
D03*
Y4113D02*
D03*
X9644D02*
D03*
Y4369D02*
D03*
Y4625D02*
D03*
Y4881D02*
D03*
X11948Y4113D02*
D03*
Y4369D02*
D03*
Y4625D02*
D03*
Y4881D02*
D03*
X13664Y4113D02*
D03*
Y4369D02*
D03*
Y4625D02*
D03*
Y4881D02*
D03*
X15969Y4113D02*
D03*
Y4369D02*
D03*
Y4625D02*
D03*
Y4881D02*
D03*
D47*
X18913Y8700D02*
D03*
X18362D02*
D03*
X15095Y5571D02*
D03*
X14544D02*
D03*
X11075D02*
D03*
X10524D02*
D03*
X7035D02*
D03*
X6484D02*
D03*
M02*
