G04*
G04 #@! TF.GenerationSoftware,Altium Limited,Altium Designer,22.0.2 (36)*
G04*
G04 Layer_Color=32896*
%FSLAX24Y24*%
%MOIN*%
G70*
G04*
G04 #@! TF.SameCoordinates,5AD8CBCB-7B86-44EA-BE16-98DFC8B2639C*
G04*
G04*
G04 #@! TF.FilePolarity,Positive*
G04*
G01*
G75*
%ADD10C,0.0060*%
%ADD12C,0.0079*%
%ADD14C,0.0150*%
%ADD16C,0.0050*%
%ADD17C,0.0100*%
%ADD56C,0.0118*%
G36*
X6860Y18907D02*
X6460D01*
Y19335D01*
X6860D01*
Y18907D01*
D02*
G37*
G36*
X6174Y18901D02*
X5774D01*
Y19329D01*
X6174D01*
Y18901D01*
D02*
G37*
G36*
X14698Y18895D02*
X13598D01*
Y19324D01*
X14698D01*
Y18895D01*
D02*
G37*
G36*
X6163Y18274D02*
X5763D01*
Y18701D01*
X6163D01*
Y18274D01*
D02*
G37*
G36*
X6842Y18264D02*
X6442D01*
Y18691D01*
X6842D01*
Y18264D01*
D02*
G37*
G36*
X14698Y18245D02*
X13598D01*
Y18674D01*
X14698D01*
Y18245D01*
D02*
G37*
G36*
X18157Y4508D02*
X18193D01*
Y4490D01*
X18211D01*
Y4468D01*
X18229D01*
Y4450D01*
X18251D01*
Y4414D01*
X18269D01*
Y4302D01*
X18251D01*
Y4261D01*
X18229D01*
Y4244D01*
X18211D01*
Y4226D01*
X18193D01*
Y4208D01*
X18139D01*
Y4190D01*
X18063D01*
Y4208D01*
X18027D01*
Y4226D01*
X17991D01*
Y4244D01*
X17973D01*
Y4284D01*
X17955D01*
Y4320D01*
X17932D01*
Y4396D01*
X17955D01*
Y4450D01*
X17973D01*
Y4468D01*
X17991D01*
Y4490D01*
X18009D01*
Y4508D01*
X18045D01*
Y4526D01*
X18157D01*
Y4508D01*
D02*
G37*
G36*
X18251Y5249D02*
X18345D01*
Y5231D01*
X18404D01*
Y5213D01*
X18458D01*
Y5191D01*
X18494D01*
Y5173D01*
X18529D01*
Y5155D01*
X18570D01*
Y5137D01*
X18588D01*
Y5119D01*
X18624D01*
Y5101D01*
X18642D01*
Y5083D01*
X18678D01*
Y5065D01*
X18700D01*
Y5047D01*
Y5043D01*
X18718D01*
Y5025D01*
X18736D01*
Y5007D01*
X18754D01*
Y4989D01*
X18772D01*
Y4971D01*
X18790D01*
Y4953D01*
X18808D01*
Y4912D01*
X18826D01*
Y4894D01*
X18848D01*
Y4858D01*
X18866D01*
Y4841D01*
X18884D01*
Y4805D01*
X18902D01*
Y4764D01*
X18920D01*
Y4728D01*
X18938D01*
Y4674D01*
X18956D01*
Y4616D01*
X18974D01*
Y4526D01*
X18996D01*
Y4226D01*
X18974D01*
Y4149D01*
X18956D01*
Y4077D01*
X18938D01*
Y4042D01*
X18920D01*
Y3983D01*
X18902D01*
Y3947D01*
X18884D01*
Y3929D01*
X18866D01*
Y3893D01*
X18848D01*
Y3853D01*
X18826D01*
Y3835D01*
X18808D01*
Y3817D01*
X18790D01*
Y3781D01*
X18772D01*
Y3763D01*
X18754D01*
Y3741D01*
X18736D01*
Y3723D01*
X18718D01*
Y3705D01*
X18700D01*
Y3687D01*
X18678D01*
Y3669D01*
X18642D01*
Y3651D01*
X18511D01*
Y3669D01*
X18476D01*
Y3687D01*
X18458D01*
Y3705D01*
X18440D01*
Y3723D01*
X18422D01*
Y3781D01*
X18404D01*
Y3835D01*
X18422D01*
Y3893D01*
X18440D01*
Y3911D01*
X18458D01*
Y3929D01*
X18494D01*
Y3947D01*
X18511D01*
Y3965D01*
X18529D01*
Y3983D01*
X18552D01*
Y4001D01*
X18570D01*
Y4019D01*
X18588D01*
Y4059D01*
X18606D01*
Y4095D01*
X18624D01*
Y4113D01*
X18642D01*
Y4167D01*
X18660D01*
Y4208D01*
X18678D01*
Y4302D01*
X18700D01*
Y4450D01*
X18678D01*
Y4544D01*
X18660D01*
Y4598D01*
X18642D01*
Y4639D01*
X18624D01*
Y4674D01*
X18606D01*
Y4710D01*
X18588D01*
Y4728D01*
X18570D01*
Y4746D01*
X18552D01*
Y4764D01*
X18529D01*
Y4787D01*
X18511D01*
Y4805D01*
X18494D01*
Y4823D01*
X18476D01*
Y4841D01*
X18458D01*
Y4858D01*
X18440D01*
Y4876D01*
X18404D01*
Y4894D01*
X18363D01*
Y4912D01*
X18327D01*
Y4935D01*
X18269D01*
Y4953D01*
X18157D01*
Y4971D01*
X18045D01*
Y4953D01*
X17955D01*
Y4935D01*
X17897D01*
Y4912D01*
X17861D01*
Y4894D01*
X17825D01*
Y4876D01*
X17784D01*
Y4858D01*
X17766D01*
Y4841D01*
X17730D01*
Y4823D01*
X17712D01*
Y4805D01*
X17695D01*
Y4787D01*
X17677D01*
Y4764D01*
X17654D01*
Y4746D01*
X17636D01*
Y4710D01*
X17618D01*
Y4692D01*
X17600D01*
Y4656D01*
X17582D01*
Y4616D01*
X17564D01*
Y4562D01*
X17546D01*
Y4490D01*
X17528D01*
Y4261D01*
X17546D01*
Y4190D01*
X17564D01*
Y4149D01*
X17582D01*
Y4113D01*
X17600D01*
Y4077D01*
X17618D01*
Y4042D01*
X17636D01*
Y4019D01*
X17654D01*
Y4001D01*
X17677D01*
Y3983D01*
X17695D01*
Y3965D01*
X17712D01*
Y3947D01*
X17730D01*
Y3929D01*
X17748D01*
Y3911D01*
X17766D01*
Y3893D01*
X17802D01*
Y3871D01*
X17825D01*
Y3835D01*
X17843D01*
Y3723D01*
X17825D01*
Y3687D01*
X17802D01*
Y3669D01*
X17784D01*
Y3651D01*
X17766D01*
Y3633D01*
X17712D01*
Y3615D01*
X17654D01*
Y3633D01*
X17600D01*
Y3651D01*
X17582D01*
Y3669D01*
X17564D01*
Y3687D01*
X17546D01*
Y3705D01*
X17506D01*
Y3723D01*
X17488D01*
Y3741D01*
X17470D01*
Y3763D01*
X17452D01*
Y3781D01*
X17434D01*
Y3799D01*
X17416D01*
Y3835D01*
X17398D01*
Y3853D01*
X17380D01*
Y3893D01*
X17358D01*
Y3911D01*
X17340D01*
Y3947D01*
X17322D01*
Y3983D01*
X17304D01*
Y4019D01*
X17286D01*
Y4059D01*
X17268D01*
Y4113D01*
X17250D01*
Y4190D01*
X17232D01*
Y4320D01*
X17210D01*
Y4432D01*
X17232D01*
Y4562D01*
X17250D01*
Y4639D01*
X17268D01*
Y4692D01*
X17286D01*
Y4746D01*
X17304D01*
Y4787D01*
X17322D01*
Y4823D01*
X17340D01*
Y4841D01*
X17358D01*
Y4876D01*
X17380D01*
Y4894D01*
X17398D01*
Y4935D01*
X17416D01*
Y4953D01*
X17434D01*
Y4971D01*
X17452D01*
Y4989D01*
X17470D01*
Y5007D01*
X17488D01*
Y5025D01*
X17506D01*
Y5043D01*
X17528D01*
Y5065D01*
X17546D01*
Y5083D01*
X17582D01*
Y5101D01*
X17600D01*
Y5119D01*
X17618D01*
Y5137D01*
X17654D01*
Y5155D01*
X17695D01*
Y5173D01*
X17730D01*
Y5191D01*
X17766D01*
Y5213D01*
X17802D01*
Y5231D01*
X17879D01*
Y5249D01*
X17955D01*
Y5267D01*
X18251D01*
Y5249D01*
D02*
G37*
G36*
X18175Y4042D02*
X18211D01*
Y4019D01*
X18229D01*
Y3983D01*
X18251D01*
Y3418D01*
Y3413D01*
Y3391D01*
X18229D01*
Y3355D01*
X18211D01*
Y3337D01*
X18027D01*
Y3355D01*
X18009D01*
Y3373D01*
X17991D01*
Y3409D01*
X17973D01*
Y3965D01*
X17991D01*
Y4001D01*
X18009D01*
Y4019D01*
X18027D01*
Y4042D01*
X18063D01*
Y4059D01*
X18175D01*
Y4042D01*
D02*
G37*
G36*
X18305Y5675D02*
X18404D01*
Y5657D01*
X18476D01*
Y5635D01*
X18570D01*
Y5617D01*
X18624D01*
Y5599D01*
X18678D01*
Y5581D01*
X18736D01*
Y5563D01*
X18772D01*
Y5545D01*
X18826D01*
Y5527D01*
X18866D01*
Y5509D01*
X18902D01*
Y5487D01*
X18938D01*
Y5469D01*
X18956D01*
Y5451D01*
X18996D01*
Y5433D01*
X19032D01*
Y5415D01*
X19050D01*
Y5397D01*
X19086D01*
Y5379D01*
X19104D01*
Y5361D01*
X19126D01*
Y5339D01*
X19144D01*
Y5321D01*
X19162D01*
Y5303D01*
X19198D01*
Y5285D01*
X19216D01*
Y5267D01*
X19234D01*
Y5231D01*
X19252D01*
Y5213D01*
X19275D01*
Y5173D01*
X19293D01*
Y5155D01*
X19310D01*
Y5119D01*
X19328D01*
Y5083D01*
X19346D01*
Y5043D01*
X19364D01*
Y4989D01*
X19382D01*
Y4953D01*
X19400D01*
Y4894D01*
X19423D01*
Y4841D01*
X19441D01*
Y4764D01*
X19459D01*
Y4656D01*
X19477D01*
Y4490D01*
X19459D01*
Y4414D01*
X19477D01*
Y4342D01*
X19495D01*
Y4320D01*
X19512D01*
Y4302D01*
X19530D01*
Y4261D01*
X19548D01*
Y4244D01*
X19571D01*
Y4226D01*
X19589D01*
Y4208D01*
X19607D01*
Y4190D01*
X19625D01*
Y4167D01*
X19643D01*
Y4149D01*
X19661D01*
Y4131D01*
X19679D01*
Y4113D01*
X19697D01*
Y4077D01*
X19719D01*
Y4059D01*
X19737D01*
Y4019D01*
X19755D01*
Y3871D01*
X19737D01*
Y3853D01*
X19719D01*
Y3835D01*
X19679D01*
Y3817D01*
X19661D01*
Y3799D01*
X19625D01*
Y3781D01*
X19589D01*
Y3763D01*
X19548D01*
Y3741D01*
X19495D01*
Y3633D01*
X19512D01*
Y3593D01*
X19530D01*
Y3521D01*
X19512D01*
Y3427D01*
X19530D01*
Y3373D01*
X19512D01*
Y3355D01*
X19495D01*
Y3319D01*
X19477D01*
Y3189D01*
X19495D01*
Y3112D01*
X19512D01*
Y3094D01*
X19530D01*
Y3058D01*
X19512D01*
Y3000D01*
X19495D01*
Y2982D01*
X19459D01*
Y2964D01*
X19346D01*
Y2982D01*
X19310D01*
Y3000D01*
X19275D01*
Y3023D01*
X19234D01*
Y3041D01*
X19216D01*
Y3058D01*
X19180D01*
Y3076D01*
X19162D01*
Y3094D01*
X19126D01*
Y3112D01*
X19104D01*
Y3130D01*
X19086D01*
Y3148D01*
X19050D01*
Y3171D01*
X19032D01*
Y3189D01*
X19014D01*
Y3207D01*
X18996D01*
Y3225D01*
X18956D01*
Y3243D01*
X18938D01*
Y3260D01*
X18920D01*
Y3278D01*
X18902D01*
Y3296D01*
X18884D01*
Y3319D01*
X18866D01*
Y3337D01*
X18848D01*
Y3373D01*
X18826D01*
Y3557D01*
X18848D01*
Y3575D01*
X18866D01*
Y3615D01*
X18884D01*
Y3633D01*
X18902D01*
Y3651D01*
X18920D01*
Y3669D01*
X18938D01*
Y3687D01*
X18956D01*
Y3723D01*
X18974D01*
Y3741D01*
X18996D01*
Y3763D01*
X19014D01*
Y3799D01*
X19032D01*
Y3817D01*
X19050D01*
Y3853D01*
X19068D01*
Y3893D01*
X19086D01*
Y3929D01*
X19104D01*
Y3965D01*
X19126D01*
Y4019D01*
X19144D01*
Y4095D01*
X19162D01*
Y4190D01*
X19180D01*
Y4302D01*
X19198D01*
Y4396D01*
X19180D01*
Y4616D01*
X19162D01*
Y4692D01*
X19144D01*
Y4728D01*
X19126D01*
Y4764D01*
X19104D01*
Y4805D01*
X19086D01*
Y4841D01*
X19068D01*
Y4894D01*
X19050D01*
Y4935D01*
X19032D01*
Y4971D01*
X19014D01*
Y4989D01*
X18996D01*
Y5007D01*
X18974D01*
Y5043D01*
X18956D01*
Y5065D01*
X18938D01*
Y5101D01*
X18920D01*
Y5119D01*
X18902D01*
Y5137D01*
X18884D01*
Y5155D01*
X18866D01*
Y5173D01*
X18848D01*
Y5191D01*
X18826D01*
Y5213D01*
X18808D01*
Y5231D01*
X18772D01*
Y5249D01*
X18754D01*
Y5267D01*
X18736D01*
Y5285D01*
X18718D01*
Y5303D01*
X18678D01*
Y5321D01*
X18660D01*
Y5339D01*
X18624D01*
Y5361D01*
X18606D01*
Y5379D01*
X18570D01*
Y5397D01*
X18529D01*
Y5415D01*
X18476D01*
Y5433D01*
X18422D01*
Y5451D01*
X18363D01*
Y5469D01*
X18269D01*
Y5487D01*
X17973D01*
Y5469D01*
X17879D01*
Y5451D01*
X17802D01*
Y5433D01*
X17748D01*
Y5415D01*
X17695D01*
Y5397D01*
X17654D01*
Y5379D01*
X17600D01*
Y5361D01*
X17564D01*
Y5339D01*
X17546D01*
Y5321D01*
X17506D01*
Y5303D01*
X17488D01*
Y5285D01*
X17470D01*
Y5267D01*
X17434D01*
Y5249D01*
X17416D01*
Y5231D01*
X17380D01*
Y5213D01*
X17358D01*
Y5191D01*
X17340D01*
Y5173D01*
X17322D01*
Y5155D01*
X17304D01*
Y5119D01*
X17286D01*
Y5101D01*
X17268D01*
Y5083D01*
X17250D01*
Y5043D01*
X17232D01*
Y5025D01*
X17210D01*
Y4989D01*
X17192D01*
Y4953D01*
X17174D01*
Y4935D01*
X17156D01*
Y4894D01*
X17138D01*
Y4890D01*
Y4885D01*
Y4858D01*
X17120D01*
Y4805D01*
X17102D01*
Y4746D01*
X17084D01*
Y4692D01*
X17062D01*
Y4616D01*
X17044D01*
Y4261D01*
X17026D01*
Y4302D01*
X17008D01*
Y4342D01*
X16990D01*
Y4396D01*
X16972D01*
Y4526D01*
X16954D01*
Y4805D01*
X16972D01*
Y4876D01*
X16990D01*
Y4971D01*
X17008D01*
Y5007D01*
X17026D01*
Y5043D01*
X17044D01*
Y5083D01*
X17062D01*
Y5119D01*
X17084D01*
Y5137D01*
X17102D01*
Y5173D01*
X17120D01*
Y5191D01*
X17138D01*
Y5231D01*
X17156D01*
Y5249D01*
X17174D01*
Y5267D01*
X17192D01*
Y5285D01*
X17210D01*
Y5303D01*
X17232D01*
Y5321D01*
X17250D01*
Y5339D01*
X17268D01*
Y5361D01*
X17286D01*
Y5379D01*
X17304D01*
Y5397D01*
X17340D01*
Y5415D01*
X17358D01*
Y5433D01*
X17380D01*
Y5451D01*
X17416D01*
Y5469D01*
X17434D01*
Y5487D01*
X17452D01*
Y5509D01*
X17488D01*
Y5527D01*
X17528D01*
Y5545D01*
X17564D01*
Y5563D01*
X17600D01*
Y5581D01*
X17636D01*
Y5599D01*
X17677D01*
Y5617D01*
X17730D01*
Y5635D01*
X17784D01*
Y5657D01*
X17861D01*
Y5675D01*
X17955D01*
Y5693D01*
X18305D01*
Y5675D01*
D02*
G37*
G36*
X1500Y12731D02*
X534D01*
Y16869D01*
X1500D01*
Y12731D01*
D02*
G37*
G36*
X14518Y2300D02*
X14378D01*
X14250Y2778D01*
X14124Y2300D01*
X13985D01*
X13830Y2940D01*
X13960D01*
X14059Y2492D01*
X14170Y2940D01*
X14325D01*
X14441Y2500D01*
X14538Y2940D01*
X14670D01*
X14518Y2300D01*
D02*
G37*
G36*
X10369D02*
X10229D01*
X10002Y2940D01*
X10140D01*
X10296Y2466D01*
X10459Y2940D01*
X10598D01*
X10369Y2300D01*
D02*
G37*
G36*
X6455Y2610D02*
Y2590D01*
X6454Y2572D01*
Y2554D01*
X6453Y2539D01*
X6453Y2524D01*
X6452Y2511D01*
X6451Y2499D01*
X6449Y2488D01*
X6448Y2479D01*
X6447Y2470D01*
X6446Y2463D01*
X6445Y2457D01*
X6444Y2453D01*
Y2450D01*
X6443Y2448D01*
Y2447D01*
X6439Y2433D01*
X6434Y2420D01*
X6428Y2408D01*
X6422Y2398D01*
X6416Y2389D01*
X6412Y2381D01*
X6408Y2378D01*
X6407Y2376D01*
X6396Y2364D01*
X6384Y2353D01*
X6371Y2343D01*
X6359Y2335D01*
X6349Y2329D01*
X6340Y2324D01*
X6334Y2321D01*
X6333Y2320D01*
X6332D01*
X6323Y2317D01*
X6313Y2314D01*
X6290Y2308D01*
X6267Y2305D01*
X6244Y2303D01*
X6234Y2302D01*
X6224Y2301D01*
X6216D01*
X6207Y2300D01*
X6193D01*
X6166Y2301D01*
X6142Y2303D01*
X6120Y2306D01*
X6103Y2310D01*
X6095Y2311D01*
X6088Y2313D01*
X6083Y2315D01*
X6078Y2317D01*
X6074Y2318D01*
X6071Y2318D01*
X6071Y2319D01*
X6070D01*
X6053Y2327D01*
X6038Y2336D01*
X6025Y2344D01*
X6014Y2353D01*
X6006Y2360D01*
X5999Y2366D01*
X5996Y2369D01*
X5995Y2371D01*
X5984Y2384D01*
X5976Y2398D01*
X5970Y2411D01*
X5964Y2424D01*
X5960Y2435D01*
X5958Y2444D01*
X5957Y2447D01*
Y2450D01*
X5956Y2451D01*
Y2452D01*
X5954Y2462D01*
X5952Y2473D01*
X5950Y2485D01*
X5949Y2497D01*
X5947Y2525D01*
X5946Y2552D01*
Y2564D01*
Y2576D01*
X5945Y2587D01*
Y2596D01*
Y2603D01*
Y2610D01*
Y2614D01*
Y2614D01*
Y2952D01*
X6074D01*
Y2597D01*
Y2583D01*
Y2570D01*
X6075Y2558D01*
Y2547D01*
X6076Y2538D01*
Y2528D01*
X6077Y2520D01*
Y2513D01*
X6079Y2502D01*
X6080Y2493D01*
X6081Y2489D01*
Y2487D01*
X6083Y2475D01*
X6088Y2465D01*
X6094Y2455D01*
X6099Y2447D01*
X6105Y2441D01*
X6109Y2436D01*
X6113Y2433D01*
X6114Y2432D01*
X6125Y2425D01*
X6139Y2419D01*
X6152Y2416D01*
X6166Y2413D01*
X6178Y2411D01*
X6187Y2410D01*
X6196D01*
X6216Y2411D01*
X6232Y2414D01*
X6247Y2417D01*
X6260Y2422D01*
X6269Y2426D01*
X6277Y2430D01*
X6280Y2432D01*
X6282Y2433D01*
X6292Y2442D01*
X6301Y2454D01*
X6308Y2464D01*
X6313Y2474D01*
X6317Y2483D01*
X6319Y2491D01*
X6321Y2495D01*
Y2497D01*
X6322Y2503D01*
X6323Y2508D01*
Y2516D01*
X6324Y2524D01*
X6325Y2541D01*
Y2560D01*
X6326Y2577D01*
Y2584D01*
Y2591D01*
Y2597D01*
Y2601D01*
Y2603D01*
Y2604D01*
Y2952D01*
X6455D01*
Y2610D01*
D02*
G37*
G36*
X2688Y7579D02*
X2687Y7549D01*
X2686Y7521D01*
X2683Y7498D01*
X2680Y7479D01*
X2677Y7463D01*
X2674Y7451D01*
X2673Y7448D01*
Y7444D01*
X2672Y7443D01*
Y7442D01*
X2663Y7418D01*
X2653Y7395D01*
X2643Y7378D01*
X2633Y7362D01*
X2624Y7350D01*
X2618Y7341D01*
X2613Y7335D01*
X2611Y7333D01*
X2590Y7314D01*
X2568Y7298D01*
X2544Y7283D01*
X2523Y7272D01*
X2503Y7263D01*
X2496Y7259D01*
X2489Y7257D01*
X2482Y7254D01*
X2478Y7252D01*
X2476Y7251D01*
X2474D01*
X2448Y7243D01*
X2420Y7237D01*
X2393Y7232D01*
X2368Y7230D01*
X2356Y7229D01*
X2344Y7228D01*
X2336D01*
X2327Y7227D01*
X2320D01*
X2316D01*
X2312D01*
X2311D01*
X2272Y7228D01*
X2238Y7231D01*
X2221Y7232D01*
X2207Y7234D01*
X2192Y7237D01*
X2180Y7239D01*
X2169Y7242D01*
X2159Y7244D01*
X2150Y7247D01*
X2143Y7248D01*
X2138Y7250D01*
X2133Y7251D01*
X2131Y7252D01*
X2130D01*
X2103Y7262D01*
X2079Y7274D01*
X2058Y7287D01*
X2040Y7299D01*
X2026Y7309D01*
X2015Y7318D01*
X2008Y7323D01*
X2006Y7324D01*
Y7325D01*
X1988Y7344D01*
X1973Y7363D01*
X1961Y7383D01*
X1951Y7401D01*
X1943Y7417D01*
X1938Y7430D01*
X1937Y7434D01*
X1936Y7438D01*
X1935Y7440D01*
Y7441D01*
X1929Y7462D01*
X1926Y7485D01*
X1922Y7510D01*
X1921Y7533D01*
X1920Y7554D01*
X1919Y7563D01*
Y7870D01*
X2688D01*
Y7579D01*
D02*
G37*
G36*
Y6954D02*
X2517D01*
X2491D01*
X2468D01*
X2447Y6953D01*
X2428Y6952D01*
X2410D01*
X2396Y6951D01*
X2381Y6950D01*
X2370Y6949D01*
X2360Y6948D01*
X2351Y6947D01*
X2344Y6945D01*
X2339D01*
X2336Y6944D01*
X2332Y6943D01*
X2330D01*
X2314Y6939D01*
X2301Y6933D01*
X2290Y6928D01*
X2282Y6922D01*
X2276Y6918D01*
X2271Y6913D01*
X2269Y6911D01*
X2268Y6910D01*
X2262Y6901D01*
X2258Y6892D01*
X2254Y6883D01*
X2252Y6876D01*
X2251Y6869D01*
X2250Y6862D01*
Y6858D01*
X2251Y6846D01*
X2253Y6833D01*
X2258Y6822D01*
X2262Y6811D01*
X2267Y6802D01*
X2271Y6796D01*
X2273Y6790D01*
X2274Y6789D01*
X2147Y6742D01*
X2137Y6760D01*
X2130Y6777D01*
X2124Y6793D01*
X2121Y6809D01*
X2119Y6821D01*
X2118Y6831D01*
Y6840D01*
X2119Y6853D01*
X2120Y6864D01*
X2123Y6876D01*
X2127Y6884D01*
X2130Y6892D01*
X2132Y6899D01*
X2134Y6902D01*
X2136Y6903D01*
X2143Y6914D01*
X2155Y6924D01*
X2167Y6935D01*
X2179Y6944D01*
X2191Y6953D01*
X2201Y6960D01*
X2208Y6964D01*
X2209Y6965D01*
X2130D01*
Y7102D01*
X2688D01*
Y6954D01*
D02*
G37*
G36*
Y6531D02*
X2130D01*
Y6679D01*
X2688D01*
Y6531D01*
D02*
G37*
G36*
X2056D02*
X1919D01*
Y6679D01*
X2056D01*
Y6531D01*
D02*
G37*
G36*
X2688Y6228D02*
Y6094D01*
X2130Y5873D01*
Y6024D01*
X2416Y6131D01*
X2432Y6138D01*
X2448Y6142D01*
X2453Y6144D01*
X2458Y6146D01*
X2461Y6147D01*
X2462D01*
X2468Y6148D01*
X2474Y6150D01*
X2491Y6156D01*
X2498Y6158D01*
X2504Y6160D01*
X2509Y6161D01*
X2510Y6162D01*
X2416Y6192D01*
X2130Y6298D01*
Y6452D01*
X2688Y6228D01*
D02*
G37*
G36*
X2434Y5823D02*
X2456Y5822D01*
X2474Y5819D01*
X2492Y5816D01*
X2510Y5812D01*
X2526Y5807D01*
X2540Y5802D01*
X2553Y5797D01*
X2566Y5792D01*
X2576Y5787D01*
X2584Y5782D01*
X2592Y5779D01*
X2598Y5774D01*
X2602Y5772D01*
X2604Y5771D01*
X2606Y5770D01*
X2622Y5756D01*
X2637Y5741D01*
X2649Y5725D01*
X2660Y5707D01*
X2669Y5689D01*
X2677Y5671D01*
X2683Y5653D01*
X2688Y5636D01*
X2692Y5620D01*
X2694Y5605D01*
X2697Y5590D01*
X2699Y5578D01*
Y5568D01*
X2700Y5561D01*
Y5555D01*
X2698Y5522D01*
X2693Y5492D01*
X2687Y5467D01*
X2679Y5445D01*
X2674Y5435D01*
X2671Y5427D01*
X2668Y5419D01*
X2664Y5413D01*
X2661Y5409D01*
X2660Y5405D01*
X2658Y5403D01*
Y5402D01*
X2640Y5381D01*
X2621Y5362D01*
X2600Y5347D01*
X2580Y5335D01*
X2562Y5325D01*
X2554Y5321D01*
X2548Y5318D01*
X2542Y5316D01*
X2538Y5313D01*
X2536Y5312D01*
X2534D01*
X2510Y5459D01*
X2524Y5465D01*
X2538Y5470D01*
X2548Y5476D01*
X2557Y5482D01*
X2563Y5487D01*
X2568Y5491D01*
X2570Y5495D01*
X2571Y5496D01*
X2578Y5505D01*
X2582Y5515D01*
X2586Y5525D01*
X2588Y5533D01*
X2589Y5541D01*
X2590Y5548D01*
Y5553D01*
X2589Y5571D01*
X2584Y5588D01*
X2579Y5603D01*
X2572Y5616D01*
X2566Y5626D01*
X2560Y5632D01*
X2556Y5638D01*
X2554Y5639D01*
X2540Y5650D01*
X2523Y5658D01*
X2506Y5665D01*
X2490Y5669D01*
X2474Y5671D01*
X2463Y5672D01*
X2459Y5673D01*
X2456D01*
X2453D01*
X2452D01*
Y5305D01*
X2421D01*
X2393Y5307D01*
X2367Y5310D01*
X2342Y5315D01*
X2319Y5320D01*
X2299Y5326D01*
X2280Y5332D01*
X2263Y5339D01*
X2249Y5346D01*
X2236Y5352D01*
X2226Y5358D01*
X2217Y5363D01*
X2210Y5368D01*
X2204Y5371D01*
X2202Y5373D01*
X2201Y5375D01*
X2187Y5388D01*
X2173Y5403D01*
X2162Y5419D01*
X2153Y5435D01*
X2145Y5451D01*
X2138Y5468D01*
X2132Y5483D01*
X2128Y5499D01*
X2124Y5513D01*
X2122Y5527D01*
X2120Y5539D01*
X2119Y5549D01*
X2118Y5558D01*
Y5570D01*
X2119Y5590D01*
X2121Y5609D01*
X2126Y5628D01*
X2130Y5645D01*
X2136Y5661D01*
X2142Y5676D01*
X2150Y5690D01*
X2157Y5702D01*
X2165Y5713D01*
X2172Y5723D01*
X2179Y5732D01*
X2184Y5739D01*
X2189Y5745D01*
X2193Y5749D01*
X2196Y5751D01*
X2197Y5752D01*
X2212Y5764D01*
X2229Y5776D01*
X2246Y5786D01*
X2263Y5795D01*
X2282Y5801D01*
X2300Y5807D01*
X2334Y5816D01*
X2351Y5819D01*
X2366Y5821D01*
X2379Y5822D01*
X2390Y5823D01*
X2400Y5824D01*
X2408D01*
X2412D01*
X2413D01*
X2434Y5823D01*
D02*
G37*
G36*
X2688Y5042D02*
X2517D01*
X2491D01*
X2468D01*
X2447Y5041D01*
X2428Y5040D01*
X2410D01*
X2396Y5039D01*
X2381Y5038D01*
X2370Y5037D01*
X2360Y5036D01*
X2351Y5035D01*
X2344Y5033D01*
X2339D01*
X2336Y5032D01*
X2332Y5031D01*
X2330D01*
X2314Y5027D01*
X2301Y5021D01*
X2290Y5016D01*
X2282Y5010D01*
X2276Y5006D01*
X2271Y5001D01*
X2269Y4999D01*
X2268Y4998D01*
X2262Y4989D01*
X2258Y4980D01*
X2254Y4971D01*
X2252Y4963D01*
X2251Y4957D01*
X2250Y4950D01*
Y4946D01*
X2251Y4933D01*
X2253Y4921D01*
X2258Y4910D01*
X2262Y4899D01*
X2267Y4890D01*
X2271Y4883D01*
X2273Y4878D01*
X2274Y4877D01*
X2147Y4830D01*
X2137Y4848D01*
X2130Y4865D01*
X2124Y4881D01*
X2121Y4897D01*
X2119Y4909D01*
X2118Y4919D01*
Y4928D01*
X2119Y4941D01*
X2120Y4952D01*
X2123Y4963D01*
X2127Y4972D01*
X2130Y4980D01*
X2132Y4987D01*
X2134Y4990D01*
X2136Y4991D01*
X2143Y5002D01*
X2155Y5012D01*
X2167Y5023D01*
X2179Y5032D01*
X2191Y5041D01*
X2201Y5048D01*
X2208Y5052D01*
X2209Y5053D01*
X2130D01*
Y5190D01*
X2688D01*
Y5042D01*
D02*
G37*
G36*
X2800Y1731D02*
X1975D01*
Y3469D01*
X2800D01*
Y1731D01*
D02*
G37*
G36*
X1600D02*
X303D01*
Y10512D01*
X1600D01*
Y1731D01*
D02*
G37*
G36*
X19060Y9423D02*
X19067Y9423D01*
X19080Y9421D01*
X19090Y9417D01*
X19095Y9416D01*
X19100Y9414D01*
X19104Y9412D01*
X19108Y9410D01*
X19111Y9408D01*
X19113Y9407D01*
X19115Y9405D01*
X19117Y9405D01*
X19118Y9404D01*
X19118Y9404D01*
X19123Y9400D01*
X19127Y9395D01*
X19130Y9390D01*
X19134Y9385D01*
X19139Y9374D01*
X19143Y9364D01*
X19144Y9358D01*
X19145Y9354D01*
X19147Y9350D01*
X19147Y9346D01*
X19148Y9343D01*
Y9340D01*
X19148Y9339D01*
Y9338D01*
X19093Y9333D01*
X19093Y9341D01*
X19091Y9348D01*
X19089Y9355D01*
X19087Y9359D01*
X19085Y9363D01*
X19084Y9365D01*
X19083Y9367D01*
X19082Y9367D01*
X19078Y9371D01*
X19073Y9373D01*
X19069Y9375D01*
X19064Y9377D01*
X19061Y9377D01*
X19057Y9378D01*
X19054D01*
X19048Y9377D01*
X19043Y9376D01*
X19038Y9375D01*
X19034Y9373D01*
X19031Y9371D01*
X19029Y9370D01*
X19027Y9368D01*
X19027Y9368D01*
X19024Y9364D01*
X19021Y9359D01*
X19019Y9355D01*
X19018Y9350D01*
X19017Y9346D01*
X19017Y9342D01*
Y9340D01*
Y9340D01*
Y9339D01*
X19017Y9333D01*
X19019Y9327D01*
X19021Y9321D01*
X19023Y9316D01*
X19025Y9312D01*
X19027Y9308D01*
X19028Y9306D01*
X19029Y9306D01*
X19030Y9303D01*
X19033Y9300D01*
X19036Y9296D01*
X19039Y9293D01*
X19047Y9285D01*
X19054Y9277D01*
X19062Y9270D01*
X19065Y9266D01*
X19068Y9264D01*
X19071Y9261D01*
X19073Y9260D01*
X19074Y9258D01*
X19074Y9258D01*
X19083Y9250D01*
X19090Y9243D01*
X19097Y9236D01*
X19103Y9229D01*
X19109Y9223D01*
X19114Y9217D01*
X19119Y9212D01*
X19123Y9207D01*
X19126Y9203D01*
X19129Y9199D01*
X19131Y9197D01*
X19133Y9194D01*
X19135Y9192D01*
X19135Y9190D01*
X19136Y9189D01*
Y9189D01*
X19142Y9179D01*
X19146Y9169D01*
X19149Y9160D01*
X19152Y9152D01*
X19153Y9145D01*
X19154Y9142D01*
X19154Y9139D01*
X19155Y9137D01*
X19155Y9135D01*
Y9135D01*
Y9134D01*
X18962D01*
Y9185D01*
X19071D01*
X19068Y9191D01*
X19064Y9195D01*
X19063Y9197D01*
X19061Y9199D01*
X19061Y9200D01*
X19060Y9200D01*
X19058Y9202D01*
X19057Y9204D01*
X19052Y9209D01*
X19046Y9214D01*
X19041Y9219D01*
X19036Y9224D01*
X19031Y9229D01*
X19029Y9230D01*
X19028Y9231D01*
X19027Y9232D01*
X19027Y9232D01*
X19018Y9241D01*
X19010Y9248D01*
X19004Y9255D01*
X18999Y9260D01*
X18995Y9264D01*
X18993Y9267D01*
X18991Y9269D01*
X18991Y9269D01*
X18985Y9276D01*
X18981Y9283D01*
X18977Y9289D01*
X18974Y9295D01*
X18972Y9299D01*
X18970Y9303D01*
X18969Y9305D01*
X18969Y9306D01*
X18966Y9313D01*
X18964Y9319D01*
X18963Y9325D01*
X18962Y9331D01*
X18962Y9336D01*
X18962Y9340D01*
Y9342D01*
Y9343D01*
X18962Y9349D01*
X18963Y9355D01*
X18964Y9361D01*
X18965Y9367D01*
X18969Y9376D01*
X18974Y9385D01*
X18976Y9388D01*
X18978Y9391D01*
X18980Y9394D01*
X18982Y9396D01*
X18984Y9398D01*
X18985Y9400D01*
X18986Y9400D01*
X18986Y9400D01*
X18991Y9405D01*
X18996Y9408D01*
X19001Y9411D01*
X19007Y9414D01*
X19018Y9418D01*
X19029Y9421D01*
X19033Y9422D01*
X19038Y9422D01*
X19042Y9423D01*
X19046Y9423D01*
X19049Y9424D01*
X19053D01*
X19060Y9423D01*
D02*
G37*
G36*
X18724D02*
X18731Y9423D01*
X18744Y9421D01*
X18755Y9417D01*
X18760Y9416D01*
X18764Y9414D01*
X18769Y9412D01*
X18772Y9410D01*
X18775Y9408D01*
X18778Y9407D01*
X18780Y9405D01*
X18781Y9405D01*
X18782Y9404D01*
X18782Y9404D01*
X18787Y9400D01*
X18791Y9395D01*
X18795Y9390D01*
X18798Y9385D01*
X18803Y9374D01*
X18807Y9364D01*
X18808Y9358D01*
X18810Y9354D01*
X18811Y9350D01*
X18811Y9346D01*
X18812Y9343D01*
Y9340D01*
X18813Y9339D01*
Y9338D01*
X18758Y9333D01*
X18757Y9341D01*
X18755Y9348D01*
X18754Y9355D01*
X18751Y9359D01*
X18750Y9363D01*
X18748Y9365D01*
X18747Y9367D01*
X18746Y9367D01*
X18742Y9371D01*
X18738Y9373D01*
X18733Y9375D01*
X18729Y9377D01*
X18725Y9377D01*
X18721Y9378D01*
X18719D01*
X18712Y9377D01*
X18707Y9376D01*
X18702Y9375D01*
X18698Y9373D01*
X18695Y9371D01*
X18693Y9370D01*
X18692Y9368D01*
X18691Y9368D01*
X18688Y9364D01*
X18685Y9359D01*
X18684Y9355D01*
X18682Y9350D01*
X18682Y9346D01*
X18681Y9342D01*
Y9340D01*
Y9340D01*
Y9339D01*
X18682Y9333D01*
X18683Y9327D01*
X18685Y9321D01*
X18687Y9316D01*
X18689Y9312D01*
X18691Y9308D01*
X18692Y9306D01*
X18693Y9306D01*
X18694Y9303D01*
X18697Y9300D01*
X18700Y9296D01*
X18704Y9293D01*
X18711Y9285D01*
X18719Y9277D01*
X18726Y9270D01*
X18729Y9266D01*
X18733Y9264D01*
X18735Y9261D01*
X18737Y9260D01*
X18738Y9258D01*
X18739Y9258D01*
X18747Y9250D01*
X18754Y9243D01*
X18761Y9236D01*
X18768Y9229D01*
X18773Y9223D01*
X18778Y9217D01*
X18783Y9212D01*
X18787Y9207D01*
X18790Y9203D01*
X18793Y9199D01*
X18796Y9197D01*
X18797Y9194D01*
X18799Y9192D01*
X18800Y9190D01*
X18801Y9189D01*
Y9189D01*
X18806Y9179D01*
X18810Y9169D01*
X18813Y9160D01*
X18816Y9152D01*
X18818Y9145D01*
X18818Y9142D01*
X18818Y9139D01*
X18819Y9137D01*
X18819Y9135D01*
Y9135D01*
Y9134D01*
X18626D01*
Y9185D01*
X18736D01*
X18732Y9191D01*
X18729Y9195D01*
X18727Y9197D01*
X18726Y9199D01*
X18725Y9200D01*
X18724Y9200D01*
X18723Y9202D01*
X18721Y9204D01*
X18716Y9209D01*
X18711Y9214D01*
X18705Y9219D01*
X18700Y9224D01*
X18695Y9229D01*
X18694Y9230D01*
X18692Y9231D01*
X18692Y9232D01*
X18691Y9232D01*
X18682Y9241D01*
X18674Y9248D01*
X18668Y9255D01*
X18663Y9260D01*
X18660Y9264D01*
X18657Y9267D01*
X18655Y9269D01*
X18655Y9269D01*
X18650Y9276D01*
X18645Y9283D01*
X18641Y9289D01*
X18638Y9295D01*
X18636Y9299D01*
X18634Y9303D01*
X18633Y9305D01*
X18633Y9306D01*
X18630Y9313D01*
X18629Y9319D01*
X18627Y9325D01*
X18627Y9331D01*
X18626Y9336D01*
X18626Y9340D01*
Y9342D01*
Y9343D01*
X18626Y9349D01*
X18627Y9355D01*
X18628Y9361D01*
X18630Y9367D01*
X18634Y9376D01*
X18638Y9385D01*
X18640Y9388D01*
X18642Y9391D01*
X18645Y9394D01*
X18647Y9396D01*
X18648Y9398D01*
X18649Y9400D01*
X18650Y9400D01*
X18650Y9400D01*
X18655Y9405D01*
X18660Y9408D01*
X18665Y9411D01*
X18671Y9414D01*
X18682Y9418D01*
X18693Y9421D01*
X18698Y9422D01*
X18702Y9422D01*
X18707Y9423D01*
X18710Y9423D01*
X18713Y9424D01*
X18717D01*
X18724Y9423D01*
D02*
G37*
G36*
X18578Y9211D02*
X18577Y9200D01*
X18576Y9191D01*
X18575Y9183D01*
X18574Y9177D01*
X18573Y9171D01*
X18571Y9167D01*
X18570Y9165D01*
X18570Y9164D01*
X18567Y9159D01*
X18563Y9153D01*
X18559Y9149D01*
X18555Y9145D01*
X18552Y9142D01*
X18548Y9140D01*
X18547Y9139D01*
X18546Y9139D01*
X18540Y9136D01*
X18533Y9133D01*
X18527Y9132D01*
X18521Y9131D01*
X18516Y9130D01*
X18512Y9130D01*
X18508D01*
X18501Y9130D01*
X18494Y9131D01*
X18487Y9132D01*
X18481Y9134D01*
X18476Y9136D01*
X18472Y9137D01*
X18470Y9138D01*
X18469Y9139D01*
X18462Y9142D01*
X18456Y9147D01*
X18451Y9151D01*
X18447Y9156D01*
X18443Y9159D01*
X18441Y9162D01*
X18439Y9164D01*
X18439Y9165D01*
Y9134D01*
X18387D01*
Y9343D01*
X18443D01*
Y9255D01*
Y9247D01*
Y9240D01*
X18443Y9233D01*
X18444Y9227D01*
Y9222D01*
X18444Y9217D01*
X18444Y9214D01*
X18445Y9210D01*
X18445Y9207D01*
X18446Y9205D01*
X18446Y9203D01*
Y9201D01*
X18447Y9199D01*
Y9199D01*
X18449Y9194D01*
X18451Y9191D01*
X18454Y9188D01*
X18456Y9185D01*
X18459Y9182D01*
X18461Y9181D01*
X18462Y9180D01*
X18462Y9179D01*
X18466Y9177D01*
X18471Y9175D01*
X18475Y9174D01*
X18479Y9173D01*
X18483Y9172D01*
X18485Y9172D01*
X18488D01*
X18492Y9172D01*
X18496Y9173D01*
X18500Y9174D01*
X18503Y9175D01*
X18505Y9176D01*
X18507Y9177D01*
X18508Y9177D01*
X18508Y9177D01*
X18511Y9180D01*
X18513Y9182D01*
X18516Y9185D01*
X18517Y9187D01*
X18518Y9190D01*
X18519Y9192D01*
X18519Y9193D01*
Y9193D01*
X18520Y9195D01*
X18520Y9198D01*
X18521Y9202D01*
X18521Y9206D01*
X18521Y9214D01*
X18522Y9224D01*
X18522Y9233D01*
Y9236D01*
Y9240D01*
Y9243D01*
Y9245D01*
Y9246D01*
Y9247D01*
Y9343D01*
X18578D01*
Y9211D01*
D02*
G37*
G36*
X18912Y9134D02*
X18857D01*
Y9189D01*
X18912D01*
Y9134D01*
D02*
G37*
G36*
X18330D02*
X18272D01*
Y9256D01*
X18152D01*
Y9305D01*
X18272D01*
Y9373D01*
X18132D01*
Y9422D01*
X18330D01*
Y9134D01*
D02*
G37*
G36*
X14774Y6285D02*
X14779Y6277D01*
X14785Y6268D01*
X14791Y6262D01*
X14796Y6256D01*
X14800Y6252D01*
X14802Y6250D01*
X14803Y6249D01*
X14804Y6249D01*
X14805Y6248D01*
X14814Y6242D01*
X14822Y6236D01*
X14830Y6231D01*
X14837Y6228D01*
X14843Y6225D01*
X14847Y6223D01*
X14849Y6223D01*
X14850Y6223D01*
X14851Y6222D01*
X14851D01*
Y6172D01*
X14836Y6178D01*
X14823Y6184D01*
X14817Y6188D01*
X14811Y6191D01*
X14805Y6195D01*
X14800Y6198D01*
X14796Y6201D01*
X14792Y6204D01*
X14788Y6207D01*
X14785Y6209D01*
X14783Y6211D01*
X14781Y6213D01*
X14780Y6213D01*
X14780Y6214D01*
Y6005D01*
X14725D01*
Y6295D01*
X14770D01*
X14774Y6285D01*
D02*
G37*
G36*
X14631Y6082D02*
X14631Y6072D01*
X14630Y6062D01*
X14629Y6054D01*
X14627Y6048D01*
X14626Y6042D01*
X14625Y6039D01*
X14624Y6037D01*
X14624Y6036D01*
X14620Y6030D01*
X14617Y6025D01*
X14613Y6020D01*
X14609Y6017D01*
X14605Y6014D01*
X14602Y6012D01*
X14600Y6010D01*
X14599Y6010D01*
X14593Y6007D01*
X14587Y6005D01*
X14580Y6003D01*
X14574Y6002D01*
X14569Y6001D01*
X14565Y6001D01*
X14562D01*
X14554Y6001D01*
X14547Y6002D01*
X14540Y6004D01*
X14535Y6005D01*
X14530Y6007D01*
X14526Y6009D01*
X14523Y6010D01*
X14523Y6010D01*
X14516Y6014D01*
X14510Y6018D01*
X14505Y6022D01*
X14500Y6027D01*
X14497Y6031D01*
X14494Y6034D01*
X14493Y6036D01*
X14492Y6037D01*
Y6005D01*
X14441D01*
Y6214D01*
X14496D01*
Y6126D01*
Y6118D01*
Y6111D01*
X14497Y6104D01*
X14497Y6099D01*
Y6093D01*
X14498Y6089D01*
X14498Y6085D01*
X14498Y6081D01*
X14499Y6078D01*
X14499Y6076D01*
X14500Y6074D01*
Y6072D01*
X14500Y6070D01*
Y6070D01*
X14502Y6066D01*
X14505Y6062D01*
X14507Y6059D01*
X14510Y6056D01*
X14512Y6054D01*
X14514Y6052D01*
X14515Y6051D01*
X14516Y6051D01*
X14520Y6048D01*
X14525Y6047D01*
X14529Y6045D01*
X14533Y6044D01*
X14536Y6044D01*
X14539Y6043D01*
X14541D01*
X14546Y6044D01*
X14550Y6044D01*
X14553Y6045D01*
X14556Y6046D01*
X14559Y6047D01*
X14560Y6048D01*
X14562Y6048D01*
X14562Y6049D01*
X14565Y6051D01*
X14567Y6054D01*
X14569Y6056D01*
X14570Y6059D01*
X14572Y6061D01*
X14572Y6063D01*
X14573Y6064D01*
Y6064D01*
X14573Y6067D01*
X14574Y6069D01*
X14574Y6073D01*
X14575Y6077D01*
X14575Y6086D01*
X14575Y6095D01*
X14576Y6104D01*
Y6108D01*
Y6111D01*
Y6114D01*
Y6116D01*
Y6118D01*
Y6118D01*
Y6214D01*
X14631D01*
Y6082D01*
D02*
G37*
G36*
X14966Y6005D02*
X14911D01*
Y6061D01*
X14966D01*
Y6005D01*
D02*
G37*
G36*
X14384D02*
X14325D01*
Y6128D01*
X14205D01*
Y6176D01*
X14325D01*
Y6245D01*
X14186D01*
Y6293D01*
X14384D01*
Y6005D01*
D02*
G37*
G36*
X15116Y6295D02*
X15123Y6294D01*
X15130Y6292D01*
X15136Y6290D01*
X15142Y6288D01*
X15147Y6285D01*
X15152Y6283D01*
X15157Y6280D01*
X15160Y6277D01*
X15164Y6275D01*
X15167Y6272D01*
X15169Y6270D01*
X15171Y6268D01*
X15172Y6266D01*
X15173Y6265D01*
X15174Y6265D01*
X15179Y6258D01*
X15183Y6250D01*
X15186Y6241D01*
X15190Y6232D01*
X15192Y6222D01*
X15195Y6212D01*
X15196Y6203D01*
X15198Y6193D01*
X15199Y6184D01*
X15200Y6176D01*
X15201Y6168D01*
X15201Y6161D01*
X15201Y6156D01*
Y6151D01*
Y6150D01*
Y6149D01*
Y6148D01*
Y6148D01*
X15201Y6133D01*
X15200Y6119D01*
X15199Y6106D01*
X15197Y6094D01*
X15196Y6084D01*
X15194Y6074D01*
X15191Y6066D01*
X15189Y6059D01*
X15186Y6052D01*
X15184Y6047D01*
X15182Y6042D01*
X15180Y6038D01*
X15179Y6036D01*
X15177Y6034D01*
X15176Y6032D01*
X15176Y6032D01*
X15171Y6026D01*
X15166Y6022D01*
X15160Y6017D01*
X15154Y6014D01*
X15149Y6010D01*
X15143Y6008D01*
X15138Y6006D01*
X15132Y6004D01*
X15127Y6003D01*
X15123Y6002D01*
X15119Y6001D01*
X15115Y6000D01*
X15112D01*
X15110Y6000D01*
X15108D01*
X15101Y6000D01*
X15094Y6001D01*
X15087Y6003D01*
X15080Y6005D01*
X15075Y6007D01*
X15069Y6009D01*
X15065Y6012D01*
X15060Y6015D01*
X15056Y6017D01*
X15052Y6020D01*
X15050Y6023D01*
X15047Y6025D01*
X15045Y6027D01*
X15044Y6028D01*
X15043Y6029D01*
X15043Y6030D01*
X15038Y6037D01*
X15034Y6045D01*
X15030Y6054D01*
X15027Y6063D01*
X15024Y6073D01*
X15022Y6082D01*
X15020Y6092D01*
X15018Y6102D01*
X15017Y6111D01*
X15016Y6119D01*
X15015Y6127D01*
X15015Y6134D01*
X15015Y6139D01*
Y6144D01*
Y6145D01*
Y6146D01*
Y6147D01*
Y6147D01*
X15015Y6162D01*
X15016Y6176D01*
X15017Y6188D01*
X15019Y6200D01*
X15021Y6211D01*
X15023Y6220D01*
X15026Y6229D01*
X15029Y6237D01*
X15031Y6244D01*
X15034Y6249D01*
X15036Y6254D01*
X15038Y6258D01*
X15040Y6261D01*
X15042Y6263D01*
X15043Y6265D01*
X15043Y6265D01*
X15048Y6270D01*
X15052Y6275D01*
X15058Y6279D01*
X15063Y6282D01*
X15069Y6285D01*
X15074Y6287D01*
X15079Y6290D01*
X15085Y6291D01*
X15090Y6292D01*
X15094Y6293D01*
X15098Y6294D01*
X15101Y6295D01*
X15104Y6295D01*
X15108D01*
X15116Y6295D01*
D02*
G37*
G36*
X10774Y6285D02*
X10779Y6277D01*
X10785Y6268D01*
X10791Y6262D01*
X10796Y6256D01*
X10800Y6252D01*
X10802Y6250D01*
X10803Y6249D01*
X10804Y6249D01*
X10805Y6248D01*
X10814Y6242D01*
X10822Y6236D01*
X10830Y6231D01*
X10837Y6228D01*
X10843Y6225D01*
X10847Y6223D01*
X10849Y6223D01*
X10850Y6223D01*
X10851Y6222D01*
X10851D01*
Y6172D01*
X10836Y6178D01*
X10823Y6184D01*
X10817Y6188D01*
X10811Y6191D01*
X10805Y6195D01*
X10800Y6198D01*
X10796Y6201D01*
X10792Y6204D01*
X10788Y6207D01*
X10785Y6209D01*
X10783Y6211D01*
X10781Y6213D01*
X10780Y6213D01*
X10780Y6214D01*
Y6005D01*
X10725D01*
Y6295D01*
X10770D01*
X10774Y6285D01*
D02*
G37*
G36*
X10631Y6082D02*
X10631Y6072D01*
X10630Y6062D01*
X10629Y6054D01*
X10627Y6048D01*
X10626Y6042D01*
X10625Y6039D01*
X10624Y6037D01*
X10624Y6036D01*
X10620Y6030D01*
X10617Y6025D01*
X10613Y6020D01*
X10609Y6017D01*
X10605Y6014D01*
X10602Y6012D01*
X10600Y6010D01*
X10599Y6010D01*
X10593Y6007D01*
X10587Y6005D01*
X10580Y6003D01*
X10574Y6002D01*
X10569Y6001D01*
X10565Y6001D01*
X10562D01*
X10554Y6001D01*
X10547Y6002D01*
X10540Y6004D01*
X10535Y6005D01*
X10530Y6007D01*
X10526Y6009D01*
X10523Y6010D01*
X10523Y6010D01*
X10516Y6014D01*
X10510Y6018D01*
X10505Y6022D01*
X10500Y6027D01*
X10497Y6031D01*
X10494Y6034D01*
X10493Y6036D01*
X10492Y6037D01*
Y6005D01*
X10441D01*
Y6214D01*
X10496D01*
Y6126D01*
Y6118D01*
Y6111D01*
X10497Y6104D01*
X10497Y6099D01*
Y6093D01*
X10498Y6089D01*
X10498Y6085D01*
X10498Y6081D01*
X10499Y6078D01*
X10499Y6076D01*
X10500Y6074D01*
Y6072D01*
X10500Y6070D01*
Y6070D01*
X10502Y6066D01*
X10505Y6062D01*
X10507Y6059D01*
X10510Y6056D01*
X10512Y6054D01*
X10514Y6052D01*
X10515Y6051D01*
X10516Y6051D01*
X10520Y6048D01*
X10525Y6047D01*
X10529Y6045D01*
X10533Y6044D01*
X10536Y6044D01*
X10539Y6043D01*
X10541D01*
X10546Y6044D01*
X10550Y6044D01*
X10553Y6045D01*
X10556Y6046D01*
X10559Y6047D01*
X10560Y6048D01*
X10562Y6048D01*
X10562Y6049D01*
X10565Y6051D01*
X10567Y6054D01*
X10569Y6056D01*
X10570Y6059D01*
X10572Y6061D01*
X10572Y6063D01*
X10573Y6064D01*
Y6064D01*
X10573Y6067D01*
X10574Y6069D01*
X10574Y6073D01*
X10575Y6077D01*
X10575Y6086D01*
X10575Y6095D01*
X10576Y6104D01*
Y6108D01*
Y6111D01*
Y6114D01*
Y6116D01*
Y6118D01*
Y6118D01*
Y6214D01*
X10631D01*
Y6082D01*
D02*
G37*
G36*
X10966Y6005D02*
X10911D01*
Y6061D01*
X10966D01*
Y6005D01*
D02*
G37*
G36*
X10384D02*
X10325D01*
Y6128D01*
X10205D01*
Y6176D01*
X10325D01*
Y6245D01*
X10186D01*
Y6293D01*
X10384D01*
Y6005D01*
D02*
G37*
G36*
X11116Y6295D02*
X11123Y6294D01*
X11130Y6292D01*
X11136Y6290D01*
X11142Y6288D01*
X11147Y6285D01*
X11152Y6283D01*
X11157Y6280D01*
X11160Y6277D01*
X11164Y6275D01*
X11167Y6272D01*
X11169Y6270D01*
X11171Y6268D01*
X11172Y6266D01*
X11173Y6265D01*
X11174Y6265D01*
X11179Y6258D01*
X11183Y6250D01*
X11186Y6241D01*
X11190Y6232D01*
X11192Y6222D01*
X11195Y6212D01*
X11196Y6203D01*
X11198Y6193D01*
X11199Y6184D01*
X11200Y6176D01*
X11201Y6168D01*
X11201Y6161D01*
X11201Y6156D01*
Y6151D01*
Y6150D01*
Y6149D01*
Y6148D01*
Y6148D01*
X11201Y6133D01*
X11200Y6119D01*
X11199Y6106D01*
X11197Y6094D01*
X11196Y6084D01*
X11194Y6074D01*
X11191Y6066D01*
X11189Y6059D01*
X11186Y6052D01*
X11184Y6047D01*
X11182Y6042D01*
X11180Y6038D01*
X11179Y6036D01*
X11177Y6034D01*
X11176Y6032D01*
X11176Y6032D01*
X11171Y6026D01*
X11166Y6022D01*
X11160Y6017D01*
X11154Y6014D01*
X11149Y6010D01*
X11143Y6008D01*
X11138Y6006D01*
X11132Y6004D01*
X11127Y6003D01*
X11123Y6002D01*
X11119Y6001D01*
X11115Y6000D01*
X11112D01*
X11110Y6000D01*
X11108D01*
X11101Y6000D01*
X11094Y6001D01*
X11087Y6003D01*
X11080Y6005D01*
X11075Y6007D01*
X11069Y6009D01*
X11065Y6012D01*
X11060Y6015D01*
X11056Y6017D01*
X11053Y6020D01*
X11050Y6023D01*
X11047Y6025D01*
X11045Y6027D01*
X11044Y6028D01*
X11043Y6029D01*
X11043Y6030D01*
X11038Y6037D01*
X11034Y6045D01*
X11030Y6054D01*
X11027Y6063D01*
X11024Y6073D01*
X11022Y6082D01*
X11020Y6092D01*
X11018Y6102D01*
X11017Y6111D01*
X11016Y6119D01*
X11015Y6127D01*
X11015Y6134D01*
X11015Y6139D01*
Y6144D01*
Y6145D01*
Y6146D01*
Y6147D01*
Y6147D01*
X11015Y6162D01*
X11016Y6176D01*
X11017Y6188D01*
X11019Y6200D01*
X11021Y6211D01*
X11023Y6220D01*
X11026Y6229D01*
X11029Y6237D01*
X11031Y6244D01*
X11034Y6249D01*
X11036Y6254D01*
X11038Y6258D01*
X11040Y6261D01*
X11042Y6263D01*
X11043Y6265D01*
X11043Y6265D01*
X11048Y6270D01*
X11053Y6275D01*
X11058Y6279D01*
X11063Y6282D01*
X11069Y6285D01*
X11074Y6287D01*
X11079Y6290D01*
X11085Y6291D01*
X11090Y6292D01*
X11094Y6293D01*
X11098Y6294D01*
X11101Y6295D01*
X11104Y6295D01*
X11108D01*
X11116Y6295D01*
D02*
G37*
G36*
X6774Y6285D02*
X6779Y6277D01*
X6785Y6268D01*
X6791Y6262D01*
X6796Y6256D01*
X6800Y6252D01*
X6802Y6250D01*
X6803Y6249D01*
X6804Y6249D01*
X6805Y6248D01*
X6814Y6242D01*
X6822Y6236D01*
X6830Y6231D01*
X6837Y6228D01*
X6843Y6225D01*
X6847Y6223D01*
X6849Y6223D01*
X6850Y6223D01*
X6851Y6222D01*
X6851D01*
Y6172D01*
X6836Y6178D01*
X6823Y6184D01*
X6817Y6188D01*
X6811Y6191D01*
X6805Y6195D01*
X6800Y6198D01*
X6796Y6201D01*
X6792Y6204D01*
X6788Y6207D01*
X6785Y6209D01*
X6783Y6211D01*
X6781Y6213D01*
X6780Y6213D01*
X6780Y6214D01*
Y6005D01*
X6725D01*
Y6295D01*
X6770D01*
X6774Y6285D01*
D02*
G37*
G36*
X6631Y6082D02*
X6631Y6072D01*
X6630Y6062D01*
X6629Y6054D01*
X6627Y6048D01*
X6626Y6042D01*
X6625Y6039D01*
X6624Y6037D01*
X6624Y6036D01*
X6620Y6030D01*
X6617Y6025D01*
X6613Y6020D01*
X6609Y6017D01*
X6605Y6014D01*
X6602Y6012D01*
X6600Y6010D01*
X6599Y6010D01*
X6593Y6007D01*
X6587Y6005D01*
X6580Y6003D01*
X6574Y6002D01*
X6569Y6001D01*
X6565Y6001D01*
X6562D01*
X6554Y6001D01*
X6547Y6002D01*
X6540Y6004D01*
X6535Y6005D01*
X6530Y6007D01*
X6526Y6009D01*
X6523Y6010D01*
X6523Y6010D01*
X6516Y6014D01*
X6510Y6018D01*
X6505Y6022D01*
X6500Y6027D01*
X6497Y6031D01*
X6494Y6034D01*
X6493Y6036D01*
X6492Y6037D01*
Y6005D01*
X6441D01*
Y6214D01*
X6496D01*
Y6126D01*
Y6118D01*
Y6111D01*
X6497Y6104D01*
X6497Y6099D01*
Y6093D01*
X6498Y6089D01*
X6498Y6085D01*
X6498Y6081D01*
X6499Y6078D01*
X6499Y6076D01*
X6500Y6074D01*
Y6072D01*
X6500Y6070D01*
Y6070D01*
X6502Y6066D01*
X6505Y6062D01*
X6507Y6059D01*
X6510Y6056D01*
X6512Y6054D01*
X6514Y6052D01*
X6515Y6051D01*
X6516Y6051D01*
X6520Y6048D01*
X6525Y6047D01*
X6529Y6045D01*
X6533Y6044D01*
X6536Y6044D01*
X6539Y6043D01*
X6541D01*
X6546Y6044D01*
X6550Y6044D01*
X6553Y6045D01*
X6556Y6046D01*
X6559Y6047D01*
X6560Y6048D01*
X6562Y6048D01*
X6562Y6049D01*
X6565Y6051D01*
X6567Y6054D01*
X6569Y6056D01*
X6570Y6059D01*
X6572Y6061D01*
X6572Y6063D01*
X6573Y6064D01*
Y6064D01*
X6573Y6067D01*
X6574Y6069D01*
X6574Y6073D01*
X6575Y6077D01*
X6575Y6086D01*
X6575Y6095D01*
X6576Y6104D01*
Y6108D01*
Y6111D01*
Y6114D01*
Y6116D01*
Y6118D01*
Y6118D01*
Y6214D01*
X6631D01*
Y6082D01*
D02*
G37*
G36*
X6966Y6005D02*
X6911D01*
Y6061D01*
X6966D01*
Y6005D01*
D02*
G37*
G36*
X6384D02*
X6325D01*
Y6128D01*
X6205D01*
Y6176D01*
X6325D01*
Y6245D01*
X6186D01*
Y6293D01*
X6384D01*
Y6005D01*
D02*
G37*
G36*
X7116Y6295D02*
X7123Y6294D01*
X7130Y6292D01*
X7136Y6290D01*
X7142Y6288D01*
X7147Y6285D01*
X7152Y6283D01*
X7157Y6280D01*
X7160Y6277D01*
X7164Y6275D01*
X7167Y6272D01*
X7169Y6270D01*
X7171Y6268D01*
X7172Y6266D01*
X7173Y6265D01*
X7174Y6265D01*
X7179Y6258D01*
X7183Y6250D01*
X7186Y6241D01*
X7190Y6232D01*
X7192Y6222D01*
X7195Y6212D01*
X7196Y6203D01*
X7198Y6193D01*
X7199Y6184D01*
X7200Y6176D01*
X7201Y6168D01*
X7201Y6161D01*
X7201Y6156D01*
Y6151D01*
Y6150D01*
Y6149D01*
Y6148D01*
Y6148D01*
X7201Y6133D01*
X7200Y6119D01*
X7199Y6106D01*
X7197Y6094D01*
X7196Y6084D01*
X7194Y6074D01*
X7191Y6066D01*
X7189Y6059D01*
X7186Y6052D01*
X7184Y6047D01*
X7182Y6042D01*
X7180Y6038D01*
X7179Y6036D01*
X7177Y6034D01*
X7176Y6032D01*
X7176Y6032D01*
X7171Y6026D01*
X7166Y6022D01*
X7160Y6017D01*
X7154Y6014D01*
X7149Y6010D01*
X7143Y6008D01*
X7138Y6006D01*
X7132Y6004D01*
X7127Y6003D01*
X7123Y6002D01*
X7119Y6001D01*
X7115Y6000D01*
X7112D01*
X7110Y6000D01*
X7108D01*
X7101Y6000D01*
X7094Y6001D01*
X7087Y6003D01*
X7080Y6005D01*
X7075Y6007D01*
X7069Y6009D01*
X7065Y6012D01*
X7060Y6015D01*
X7056Y6017D01*
X7053Y6020D01*
X7050Y6023D01*
X7047Y6025D01*
X7045Y6027D01*
X7044Y6028D01*
X7043Y6029D01*
X7043Y6030D01*
X7038Y6037D01*
X7034Y6045D01*
X7030Y6054D01*
X7027Y6063D01*
X7024Y6073D01*
X7022Y6082D01*
X7020Y6092D01*
X7018Y6102D01*
X7017Y6111D01*
X7016Y6119D01*
X7015Y6127D01*
X7015Y6134D01*
X7015Y6139D01*
Y6144D01*
Y6145D01*
Y6146D01*
Y6147D01*
Y6147D01*
X7015Y6162D01*
X7016Y6176D01*
X7017Y6188D01*
X7019Y6200D01*
X7021Y6211D01*
X7023Y6220D01*
X7026Y6229D01*
X7029Y6237D01*
X7031Y6244D01*
X7034Y6249D01*
X7036Y6254D01*
X7038Y6258D01*
X7040Y6261D01*
X7042Y6263D01*
X7043Y6265D01*
X7043Y6265D01*
X7048Y6270D01*
X7053Y6275D01*
X7058Y6279D01*
X7063Y6282D01*
X7069Y6285D01*
X7074Y6287D01*
X7079Y6290D01*
X7085Y6291D01*
X7090Y6292D01*
X7094Y6293D01*
X7098Y6294D01*
X7101Y6295D01*
X7104Y6295D01*
X7108D01*
X7116Y6295D01*
D02*
G37*
G36*
X18892Y7445D02*
X18900Y7444D01*
X18907Y7442D01*
X18913Y7440D01*
X18918Y7439D01*
X18923Y7437D01*
X18925Y7436D01*
X18925Y7436D01*
X18926D01*
X18933Y7432D01*
X18939Y7428D01*
X18944Y7424D01*
X18948Y7420D01*
X18951Y7416D01*
X18954Y7413D01*
X18955Y7412D01*
X18956Y7411D01*
X18960Y7405D01*
X18963Y7398D01*
X18965Y7391D01*
X18968Y7384D01*
X18970Y7378D01*
X18971Y7373D01*
X18971Y7371D01*
Y7370D01*
X18972Y7369D01*
Y7369D01*
X18921Y7361D01*
X18920Y7367D01*
X18918Y7373D01*
X18916Y7378D01*
X18914Y7382D01*
X18912Y7385D01*
X18910Y7388D01*
X18909Y7389D01*
X18909Y7389D01*
X18905Y7393D01*
X18901Y7395D01*
X18897Y7397D01*
X18893Y7398D01*
X18890Y7399D01*
X18887Y7399D01*
X18885D01*
X18880Y7399D01*
X18875Y7398D01*
X18871Y7396D01*
X18868Y7395D01*
X18865Y7393D01*
X18863Y7392D01*
X18862Y7391D01*
X18861Y7390D01*
X18858Y7387D01*
X18856Y7383D01*
X18855Y7379D01*
X18854Y7375D01*
X18853Y7372D01*
X18853Y7370D01*
Y7368D01*
Y7367D01*
X18853Y7361D01*
X18854Y7355D01*
X18856Y7351D01*
X18858Y7347D01*
X18861Y7344D01*
X18863Y7342D01*
X18864Y7340D01*
X18865Y7340D01*
X18870Y7336D01*
X18875Y7334D01*
X18881Y7332D01*
X18886Y7331D01*
X18891Y7331D01*
X18896Y7330D01*
X18899D01*
X18905Y7286D01*
X18900Y7287D01*
X18895Y7288D01*
X18891Y7289D01*
X18887Y7289D01*
X18884Y7290D01*
X18880D01*
X18874Y7289D01*
X18869Y7288D01*
X18864Y7286D01*
X18860Y7284D01*
X18857Y7281D01*
X18855Y7279D01*
X18853Y7278D01*
X18853Y7277D01*
X18849Y7272D01*
X18846Y7267D01*
X18844Y7261D01*
X18842Y7256D01*
X18841Y7251D01*
X18841Y7247D01*
Y7245D01*
Y7244D01*
Y7244D01*
X18841Y7236D01*
X18843Y7229D01*
X18845Y7223D01*
X18847Y7218D01*
X18849Y7214D01*
X18851Y7211D01*
X18853Y7209D01*
X18853Y7209D01*
X18858Y7204D01*
X18863Y7201D01*
X18867Y7199D01*
X18872Y7197D01*
X18876Y7197D01*
X18879Y7196D01*
X18881Y7196D01*
X18882D01*
X18888Y7196D01*
X18893Y7197D01*
X18897Y7199D01*
X18901Y7201D01*
X18904Y7203D01*
X18907Y7204D01*
X18908Y7206D01*
X18909Y7206D01*
X18913Y7211D01*
X18916Y7216D01*
X18918Y7221D01*
X18920Y7226D01*
X18921Y7231D01*
X18922Y7234D01*
X18923Y7237D01*
Y7237D01*
Y7238D01*
X18976Y7231D01*
X18975Y7224D01*
X18973Y7218D01*
X18970Y7207D01*
X18965Y7197D01*
X18962Y7192D01*
X18960Y7188D01*
X18957Y7185D01*
X18955Y7182D01*
X18952Y7179D01*
X18950Y7177D01*
X18949Y7175D01*
X18948Y7174D01*
X18947Y7173D01*
X18946Y7172D01*
X18941Y7169D01*
X18936Y7165D01*
X18931Y7162D01*
X18925Y7160D01*
X18914Y7155D01*
X18904Y7153D01*
X18899Y7152D01*
X18895Y7151D01*
X18891Y7151D01*
X18888Y7150D01*
X18885Y7150D01*
X18881D01*
X18874Y7150D01*
X18866Y7151D01*
X18860Y7153D01*
X18853Y7154D01*
X18847Y7156D01*
X18841Y7158D01*
X18836Y7161D01*
X18831Y7163D01*
X18827Y7166D01*
X18823Y7168D01*
X18820Y7170D01*
X18817Y7172D01*
X18815Y7174D01*
X18814Y7175D01*
X18813Y7176D01*
X18812Y7177D01*
X18807Y7182D01*
X18803Y7187D01*
X18799Y7192D01*
X18796Y7198D01*
X18794Y7204D01*
X18791Y7209D01*
X18788Y7219D01*
X18787Y7224D01*
X18786Y7228D01*
X18785Y7232D01*
X18785Y7235D01*
X18784Y7238D01*
Y7240D01*
Y7241D01*
Y7242D01*
X18785Y7251D01*
X18787Y7259D01*
X18789Y7267D01*
X18792Y7274D01*
X18795Y7279D01*
X18797Y7283D01*
X18799Y7285D01*
X18799Y7286D01*
X18805Y7292D01*
X18812Y7298D01*
X18819Y7302D01*
X18825Y7305D01*
X18830Y7308D01*
X18835Y7309D01*
X18836Y7310D01*
X18838D01*
X18839Y7310D01*
X18839D01*
X18831Y7315D01*
X18825Y7319D01*
X18820Y7324D01*
X18815Y7329D01*
X18811Y7334D01*
X18807Y7339D01*
X18805Y7344D01*
X18802Y7349D01*
X18801Y7353D01*
X18799Y7358D01*
X18799Y7361D01*
X18798Y7365D01*
X18798Y7367D01*
X18797Y7369D01*
Y7370D01*
Y7371D01*
X18798Y7376D01*
X18798Y7380D01*
X18801Y7390D01*
X18804Y7398D01*
X18807Y7405D01*
X18811Y7411D01*
X18814Y7415D01*
X18816Y7417D01*
X18817Y7418D01*
X18817Y7418D01*
X18818Y7419D01*
X18822Y7423D01*
X18828Y7427D01*
X18833Y7431D01*
X18838Y7434D01*
X18844Y7437D01*
X18849Y7439D01*
X18860Y7442D01*
X18864Y7443D01*
X18869Y7444D01*
X18873Y7444D01*
X18876Y7445D01*
X18879Y7445D01*
X18883D01*
X18892Y7445D01*
D02*
G37*
G36*
X18556D02*
X18564Y7444D01*
X18571Y7442D01*
X18578Y7440D01*
X18583Y7439D01*
X18587Y7437D01*
X18589Y7436D01*
X18590Y7436D01*
X18590D01*
X18597Y7432D01*
X18603Y7428D01*
X18608Y7424D01*
X18612Y7420D01*
X18616Y7416D01*
X18618Y7413D01*
X18620Y7412D01*
X18620Y7411D01*
X18624Y7405D01*
X18627Y7398D01*
X18630Y7391D01*
X18632Y7384D01*
X18634Y7378D01*
X18635Y7373D01*
X18636Y7371D01*
Y7370D01*
X18636Y7369D01*
Y7369D01*
X18585Y7361D01*
X18584Y7367D01*
X18582Y7373D01*
X18581Y7378D01*
X18579Y7382D01*
X18576Y7385D01*
X18575Y7388D01*
X18574Y7389D01*
X18573Y7389D01*
X18569Y7393D01*
X18565Y7395D01*
X18561Y7397D01*
X18557Y7398D01*
X18554Y7399D01*
X18551Y7399D01*
X18549D01*
X18544Y7399D01*
X18539Y7398D01*
X18535Y7396D01*
X18532Y7395D01*
X18529Y7393D01*
X18527Y7392D01*
X18526Y7391D01*
X18526Y7390D01*
X18523Y7387D01*
X18521Y7383D01*
X18519Y7379D01*
X18518Y7375D01*
X18517Y7372D01*
X18517Y7370D01*
Y7368D01*
Y7367D01*
X18517Y7361D01*
X18519Y7355D01*
X18521Y7351D01*
X18523Y7347D01*
X18525Y7344D01*
X18527Y7342D01*
X18529Y7340D01*
X18529Y7340D01*
X18534Y7336D01*
X18539Y7334D01*
X18545Y7332D01*
X18551Y7331D01*
X18556Y7331D01*
X18560Y7330D01*
X18564D01*
X18569Y7286D01*
X18564Y7287D01*
X18559Y7288D01*
X18555Y7289D01*
X18551Y7289D01*
X18548Y7290D01*
X18544D01*
X18538Y7289D01*
X18533Y7288D01*
X18529Y7286D01*
X18524Y7284D01*
X18522Y7281D01*
X18519Y7279D01*
X18517Y7278D01*
X18517Y7277D01*
X18513Y7272D01*
X18510Y7267D01*
X18508Y7261D01*
X18507Y7256D01*
X18506Y7251D01*
X18505Y7247D01*
Y7245D01*
Y7244D01*
Y7244D01*
X18506Y7236D01*
X18507Y7229D01*
X18509Y7223D01*
X18511Y7218D01*
X18514Y7214D01*
X18515Y7211D01*
X18517Y7209D01*
X18517Y7209D01*
X18522Y7204D01*
X18527Y7201D01*
X18532Y7199D01*
X18536Y7197D01*
X18540Y7197D01*
X18543Y7196D01*
X18545Y7196D01*
X18546D01*
X18552Y7196D01*
X18557Y7197D01*
X18561Y7199D01*
X18566Y7201D01*
X18569Y7203D01*
X18571Y7204D01*
X18573Y7206D01*
X18573Y7206D01*
X18577Y7211D01*
X18580Y7216D01*
X18582Y7221D01*
X18584Y7226D01*
X18586Y7231D01*
X18586Y7234D01*
X18587Y7237D01*
Y7237D01*
Y7238D01*
X18640Y7231D01*
X18639Y7224D01*
X18638Y7218D01*
X18634Y7207D01*
X18629Y7197D01*
X18626Y7192D01*
X18624Y7188D01*
X18621Y7185D01*
X18619Y7182D01*
X18617Y7179D01*
X18615Y7177D01*
X18613Y7175D01*
X18612Y7174D01*
X18611Y7173D01*
X18611Y7172D01*
X18606Y7169D01*
X18600Y7165D01*
X18595Y7162D01*
X18589Y7160D01*
X18579Y7155D01*
X18569Y7153D01*
X18564Y7152D01*
X18559Y7151D01*
X18556Y7151D01*
X18552Y7150D01*
X18549Y7150D01*
X18546D01*
X18538Y7150D01*
X18531Y7151D01*
X18524Y7153D01*
X18517Y7154D01*
X18512Y7156D01*
X18506Y7158D01*
X18500Y7161D01*
X18496Y7163D01*
X18492Y7166D01*
X18487Y7168D01*
X18484Y7170D01*
X18482Y7172D01*
X18480Y7174D01*
X18478Y7175D01*
X18477Y7176D01*
X18477Y7177D01*
X18472Y7182D01*
X18467Y7187D01*
X18464Y7192D01*
X18460Y7198D01*
X18458Y7204D01*
X18455Y7209D01*
X18452Y7219D01*
X18451Y7224D01*
X18450Y7228D01*
X18450Y7232D01*
X18449Y7235D01*
X18449Y7238D01*
Y7240D01*
Y7241D01*
Y7242D01*
X18450Y7251D01*
X18451Y7259D01*
X18453Y7267D01*
X18456Y7274D01*
X18459Y7279D01*
X18461Y7283D01*
X18463Y7285D01*
X18464Y7286D01*
X18470Y7292D01*
X18476Y7298D01*
X18483Y7302D01*
X18489Y7305D01*
X18494Y7308D01*
X18499Y7309D01*
X18501Y7310D01*
X18502D01*
X18503Y7310D01*
X18503D01*
X18496Y7315D01*
X18489Y7319D01*
X18484Y7324D01*
X18479Y7329D01*
X18475Y7334D01*
X18472Y7339D01*
X18469Y7344D01*
X18467Y7349D01*
X18465Y7353D01*
X18464Y7358D01*
X18463Y7361D01*
X18462Y7365D01*
X18462Y7367D01*
X18462Y7369D01*
Y7370D01*
Y7371D01*
X18462Y7376D01*
X18462Y7380D01*
X18465Y7390D01*
X18468Y7398D01*
X18472Y7405D01*
X18475Y7411D01*
X18479Y7415D01*
X18480Y7417D01*
X18481Y7418D01*
X18482Y7418D01*
X18482Y7419D01*
X18487Y7423D01*
X18492Y7427D01*
X18497Y7431D01*
X18502Y7434D01*
X18508Y7437D01*
X18514Y7439D01*
X18524Y7442D01*
X18529Y7443D01*
X18533Y7444D01*
X18537Y7444D01*
X18541Y7445D01*
X18544Y7445D01*
X18547D01*
X18556Y7445D01*
D02*
G37*
G36*
X18404Y7155D02*
X18349D01*
Y7222D01*
X18324Y7249D01*
X18271Y7155D01*
X18212D01*
X18288Y7288D01*
X18217Y7364D01*
X18284D01*
X18349Y7291D01*
Y7443D01*
X18404D01*
Y7155D01*
D02*
G37*
G36*
X18738D02*
X18683D01*
Y7211D01*
X18738D01*
Y7155D01*
D02*
G37*
G36*
X17982Y7155D02*
X17928D01*
Y7345D01*
X17811Y7155D01*
X17753D01*
Y7443D01*
X17807D01*
Y7249D01*
X17926Y7443D01*
X17982D01*
Y7155D01*
D02*
G37*
G36*
X17332Y7448D02*
X17343Y7447D01*
X17353Y7445D01*
X17362Y7442D01*
X17371Y7439D01*
X17379Y7436D01*
X17386Y7432D01*
X17393Y7428D01*
X17399Y7425D01*
X17404Y7421D01*
X17409Y7417D01*
X17412Y7415D01*
X17415Y7412D01*
X17417Y7410D01*
X17419Y7409D01*
X17419Y7408D01*
X17426Y7400D01*
X17431Y7392D01*
X17436Y7383D01*
X17440Y7374D01*
X17444Y7365D01*
X17447Y7355D01*
X17449Y7346D01*
X17451Y7338D01*
X17453Y7329D01*
X17454Y7321D01*
X17455Y7314D01*
X17456Y7308D01*
Y7304D01*
X17456Y7300D01*
Y7297D01*
Y7297D01*
Y7296D01*
X17456Y7284D01*
X17454Y7272D01*
X17453Y7261D01*
X17450Y7251D01*
X17448Y7242D01*
X17444Y7232D01*
X17441Y7224D01*
X17438Y7217D01*
X17434Y7211D01*
X17431Y7205D01*
X17428Y7200D01*
X17425Y7196D01*
X17423Y7193D01*
X17421Y7191D01*
X17420Y7190D01*
X17419Y7189D01*
X17412Y7182D01*
X17405Y7176D01*
X17397Y7171D01*
X17389Y7167D01*
X17381Y7163D01*
X17373Y7160D01*
X17366Y7157D01*
X17359Y7155D01*
X17352Y7153D01*
X17345Y7152D01*
X17340Y7151D01*
X17335Y7151D01*
X17331Y7150D01*
X17328Y7150D01*
X17325D01*
X17317Y7150D01*
X17309Y7151D01*
X17301Y7152D01*
X17294Y7154D01*
X17287Y7155D01*
X17281Y7157D01*
X17275Y7159D01*
X17270Y7162D01*
X17265Y7164D01*
X17261Y7166D01*
X17257Y7167D01*
X17254Y7169D01*
X17252Y7171D01*
X17250Y7172D01*
X17249Y7172D01*
X17249Y7173D01*
X17243Y7177D01*
X17238Y7182D01*
X17229Y7194D01*
X17222Y7205D01*
X17216Y7217D01*
X17213Y7222D01*
X17211Y7227D01*
X17210Y7232D01*
X17208Y7235D01*
X17207Y7239D01*
X17206Y7241D01*
X17206Y7243D01*
Y7243D01*
X17262Y7261D01*
X17265Y7249D01*
X17269Y7240D01*
X17273Y7232D01*
X17277Y7225D01*
X17280Y7220D01*
X17283Y7217D01*
X17285Y7215D01*
X17286Y7214D01*
X17293Y7209D01*
X17300Y7206D01*
X17306Y7203D01*
X17312Y7201D01*
X17317Y7200D01*
X17322Y7200D01*
X17324Y7200D01*
X17326D01*
X17332Y7200D01*
X17337Y7200D01*
X17347Y7203D01*
X17356Y7207D01*
X17363Y7211D01*
X17369Y7215D01*
X17373Y7219D01*
X17374Y7220D01*
X17376Y7222D01*
X17376Y7222D01*
X17377Y7222D01*
X17380Y7227D01*
X17383Y7232D01*
X17386Y7238D01*
X17388Y7244D01*
X17391Y7257D01*
X17394Y7270D01*
X17394Y7276D01*
X17395Y7282D01*
X17396Y7287D01*
Y7292D01*
X17396Y7295D01*
Y7298D01*
Y7300D01*
Y7301D01*
X17396Y7310D01*
X17395Y7319D01*
X17394Y7327D01*
X17393Y7334D01*
X17392Y7341D01*
X17390Y7347D01*
X17388Y7353D01*
X17386Y7358D01*
X17384Y7362D01*
X17383Y7365D01*
X17381Y7368D01*
X17379Y7371D01*
X17378Y7373D01*
X17377Y7374D01*
X17377Y7375D01*
Y7375D01*
X17373Y7380D01*
X17369Y7383D01*
X17364Y7386D01*
X17360Y7389D01*
X17351Y7393D01*
X17343Y7396D01*
X17336Y7398D01*
X17332Y7398D01*
X17330Y7398D01*
X17327Y7399D01*
X17325D01*
X17316Y7398D01*
X17309Y7397D01*
X17302Y7395D01*
X17296Y7392D01*
X17292Y7390D01*
X17288Y7388D01*
X17286Y7386D01*
X17285Y7385D01*
X17280Y7380D01*
X17275Y7375D01*
X17271Y7369D01*
X17268Y7363D01*
X17266Y7358D01*
X17265Y7354D01*
X17264Y7353D01*
Y7351D01*
X17264Y7351D01*
Y7351D01*
X17206Y7364D01*
X17211Y7376D01*
X17215Y7387D01*
X17220Y7396D01*
X17225Y7403D01*
X17229Y7409D01*
X17231Y7412D01*
X17233Y7414D01*
X17234Y7415D01*
X17235Y7416D01*
X17236Y7417D01*
X17236D01*
X17242Y7422D01*
X17249Y7427D01*
X17256Y7432D01*
X17263Y7435D01*
X17270Y7438D01*
X17278Y7441D01*
X17285Y7443D01*
X17291Y7445D01*
X17298Y7446D01*
X17303Y7447D01*
X17308Y7447D01*
X17313Y7448D01*
X17317Y7448D01*
X17322D01*
X17332Y7448D01*
D02*
G37*
G36*
X17712Y7394D02*
X17627D01*
Y7155D01*
X17568D01*
Y7394D01*
X17483D01*
Y7443D01*
X17712D01*
Y7394D01*
D02*
G37*
%LPC*%
G36*
X1209Y16719D02*
X937D01*
X927Y16718D01*
X916Y16718D01*
X902Y16716D01*
X887Y16715D01*
X872Y16713D01*
X856Y16710D01*
X839Y16707D01*
X822Y16702D01*
X805Y16697D01*
X789Y16691D01*
X774Y16684D01*
X759Y16676D01*
X747Y16667D01*
X746Y16667D01*
X744Y16665D01*
X741Y16662D01*
X737Y16658D01*
X732Y16653D01*
X727Y16647D01*
X721Y16639D01*
X715Y16631D01*
X710Y16622D01*
X704Y16612D01*
X699Y16600D01*
X694Y16588D01*
X690Y16576D01*
X687Y16562D01*
X685Y16548D01*
X684Y16532D01*
Y16526D01*
X685Y16522D01*
Y16517D01*
X685Y16511D01*
X688Y16498D01*
X692Y16483D01*
X698Y16467D01*
X706Y16451D01*
X711Y16443D01*
X717Y16436D01*
Y16435D01*
X719Y16434D01*
X721Y16432D01*
X723Y16430D01*
X727Y16426D01*
X731Y16423D01*
X741Y16415D01*
X755Y16407D01*
X771Y16399D01*
X790Y16391D01*
X812Y16386D01*
X822Y16481D01*
X821D01*
X818Y16482D01*
X813Y16483D01*
X806Y16485D01*
X799Y16487D01*
X792Y16491D01*
X785Y16494D01*
X779Y16499D01*
X779Y16500D01*
X777Y16502D01*
X775Y16505D01*
X772Y16510D01*
X770Y16515D01*
X768Y16522D01*
X766Y16530D01*
X765Y16538D01*
Y16539D01*
X766Y16543D01*
X767Y16549D01*
X769Y16556D01*
X772Y16565D01*
X777Y16573D01*
X784Y16582D01*
X794Y16590D01*
X795Y16591D01*
X796Y16593D01*
X799Y16594D01*
X802Y16596D01*
X807Y16598D01*
X812Y16599D01*
X819Y16602D01*
X826Y16604D01*
X834Y16607D01*
X844Y16609D01*
X854Y16611D01*
X866Y16613D01*
X879Y16615D01*
X894Y16616D01*
X910Y16618D01*
X909Y16617D01*
X907Y16616D01*
X906Y16614D01*
X903Y16611D01*
X899Y16607D01*
X896Y16603D01*
X887Y16593D01*
X880Y16579D01*
X873Y16564D01*
X870Y16555D01*
X868Y16546D01*
X867Y16536D01*
X866Y16526D01*
Y16520D01*
X867Y16516D01*
X868Y16511D01*
X868Y16505D01*
X870Y16497D01*
X872Y16490D01*
X878Y16474D01*
X882Y16465D01*
X886Y16456D01*
X891Y16447D01*
X898Y16438D01*
X905Y16429D01*
X913Y16421D01*
X914Y16420D01*
X916Y16419D01*
X918Y16417D01*
X922Y16414D01*
X927Y16411D01*
X932Y16407D01*
X939Y16403D01*
X946Y16399D01*
X954Y16394D01*
X964Y16391D01*
X973Y16387D01*
X984Y16383D01*
X996Y16381D01*
X1008Y16379D01*
X1021Y16377D01*
X1035Y16377D01*
X684D01*
X1042D01*
X1048Y16377D01*
X1055Y16378D01*
X1062Y16379D01*
X1071Y16380D01*
X1080Y16382D01*
X1101Y16388D01*
X1111Y16391D01*
X1121Y16397D01*
X1132Y16402D01*
X1142Y16408D01*
X1152Y16415D01*
X1161Y16423D01*
X1162Y16424D01*
X1164Y16425D01*
X1166Y16428D01*
X1169Y16431D01*
X1172Y16436D01*
X1176Y16442D01*
X1181Y16448D01*
X1185Y16455D01*
X1189Y16463D01*
X1194Y16472D01*
X1198Y16482D01*
X1201Y16493D01*
X1204Y16504D01*
X1206Y16516D01*
X1208Y16528D01*
X1209Y16542D01*
Y16545D01*
X1208Y16549D01*
Y16554D01*
X1206Y16561D01*
X1206Y16569D01*
X1203Y16577D01*
X1201Y16587D01*
X1198Y16596D01*
X1194Y16607D01*
X1189Y16618D01*
X1183Y16628D01*
X1177Y16639D01*
X1169Y16650D01*
X1159Y16660D01*
X1149Y16670D01*
X1148Y16670D01*
X1146Y16672D01*
X1142Y16674D01*
X1137Y16677D01*
X1130Y16681D01*
X1122Y16685D01*
X1112Y16690D01*
X1101Y16694D01*
X1088Y16699D01*
X1074Y16704D01*
X1058Y16707D01*
X1039Y16711D01*
X1020Y16715D01*
X998Y16717D01*
X976Y16718D01*
X950Y16719D01*
X1209D01*
D02*
G37*
G36*
X1199Y16098D02*
X691D01*
Y15994D01*
X1112D01*
Y15736D01*
X1199D01*
Y16098D01*
D02*
G37*
G36*
X1207Y15690D02*
D01*
Y15572D01*
X1206Y15577D01*
Y15581D01*
X1206Y15587D01*
X1203Y15600D01*
X1200Y15614D01*
X1195Y15629D01*
X1187Y15644D01*
X1177Y15657D01*
X1176D01*
X1175Y15659D01*
X1171Y15662D01*
X1164Y15668D01*
X1155Y15674D01*
X1144Y15679D01*
X1131Y15685D01*
X1115Y15688D01*
X1107Y15689D01*
X1098Y15690D01*
X819D01*
X1093D01*
X1087Y15689D01*
X1080Y15688D01*
X1071Y15686D01*
X1062Y15684D01*
X1053Y15680D01*
X1043Y15675D01*
X1041Y15674D01*
X1038Y15672D01*
X1034Y15669D01*
X1029Y15664D01*
X1023Y15659D01*
X1016Y15651D01*
X1010Y15643D01*
X1005Y15634D01*
X1004Y15632D01*
X1003Y15628D01*
X1001Y15623D01*
X997Y15614D01*
X993Y15603D01*
X990Y15589D01*
X986Y15573D01*
X982Y15555D01*
Y15554D01*
X981Y15552D01*
X981Y15549D01*
X980Y15544D01*
X979Y15538D01*
X978Y15531D01*
X974Y15517D01*
X970Y15501D01*
X967Y15485D01*
X962Y15471D01*
X960Y15464D01*
X958Y15459D01*
X948D01*
X947D01*
X944D01*
X939Y15460D01*
X932Y15460D01*
X925Y15463D01*
X919Y15465D01*
X913Y15469D01*
X907Y15474D01*
X907Y15475D01*
X905Y15477D01*
X904Y15480D01*
X901Y15486D01*
X899Y15493D01*
X897Y15502D01*
X896Y15513D01*
X895Y15526D01*
Y15531D01*
X896Y15535D01*
X896Y15541D01*
X898Y15548D01*
X899Y15555D01*
X902Y15562D01*
X906Y15568D01*
X907Y15568D01*
X908Y15570D01*
X910Y15573D01*
X914Y15576D01*
X919Y15580D01*
X926Y15584D01*
X933Y15588D01*
X942Y15591D01*
X926Y15679D01*
X925D01*
X924Y15679D01*
X921Y15678D01*
X917Y15677D01*
X913Y15675D01*
X907Y15673D01*
X896Y15668D01*
X883Y15660D01*
X870Y15651D01*
X857Y15641D01*
X846Y15628D01*
Y15628D01*
X845Y15627D01*
X844Y15625D01*
X842Y15622D01*
X840Y15617D01*
X838Y15613D01*
X835Y15607D01*
X833Y15601D01*
X831Y15594D01*
X828Y15586D01*
X825Y15577D01*
X824Y15566D01*
X822Y15556D01*
X821Y15544D01*
X819Y15532D01*
Y15508D01*
X820Y15503D01*
Y15497D01*
X822Y15482D01*
X823Y15466D01*
X826Y15450D01*
X831Y15435D01*
X833Y15428D01*
X836Y15421D01*
Y15420D01*
X836Y15420D01*
X839Y15416D01*
X842Y15410D01*
X846Y15403D01*
X852Y15395D01*
X859Y15388D01*
X867Y15381D01*
X875Y15375D01*
X876Y15375D01*
X879Y15373D01*
X886Y15371D01*
X890Y15370D01*
X895Y15369D01*
X900Y15367D01*
X907Y15366D01*
X914Y15365D01*
X922Y15364D01*
X931Y15364D01*
X941Y15363D01*
X951Y15362D01*
X963D01*
X1078Y15364D01*
X1078D01*
X1080D01*
X1082D01*
X1086D01*
X1095D01*
X1105Y15363D01*
X1117D01*
X1129Y15361D01*
X1141Y15361D01*
X1150Y15359D01*
X1151D01*
X1154Y15358D01*
X1159Y15357D01*
X1165Y15355D01*
X1172Y15352D01*
X1181Y15349D01*
X1189Y15346D01*
X1199Y15341D01*
Y15438D01*
X1198D01*
X1198Y15439D01*
X1195Y15440D01*
X1192Y15441D01*
X1188Y15443D01*
X1183Y15444D01*
X1177Y15446D01*
X1170Y15448D01*
X1169D01*
X1169Y15449D01*
X1166Y15449D01*
X1162Y15451D01*
X1159Y15452D01*
X1160Y15453D01*
X1163Y15456D01*
X1167Y15461D01*
X1172Y15468D01*
X1178Y15476D01*
X1185Y15485D01*
X1190Y15495D01*
X1195Y15506D01*
X1196Y15507D01*
X1197Y15511D01*
X1199Y15517D01*
X1201Y15524D01*
X1203Y15533D01*
X1205Y15543D01*
X1206Y15555D01*
X1207Y15567D01*
Y15341D01*
X819D01*
X1207D01*
Y15690D01*
D02*
G37*
G36*
X1350Y15312D02*
D01*
Y15229D01*
X1349Y15235D01*
Y15241D01*
X1349Y15250D01*
X1347Y15259D01*
X1343Y15279D01*
X1266Y15288D01*
Y15287D01*
X1267Y15284D01*
X1268Y15280D01*
X1269Y15274D01*
X1270Y15268D01*
X1271Y15261D01*
X1272Y15247D01*
Y15241D01*
X1270Y15235D01*
X1269Y15227D01*
X1266Y15219D01*
X1263Y15211D01*
X1258Y15203D01*
X1251Y15196D01*
X1250Y15196D01*
X1247Y15193D01*
X1243Y15190D01*
X1237Y15187D01*
X1229Y15183D01*
X1221Y15179D01*
X1211Y15175D01*
X1200Y15171D01*
X828Y15312D01*
Y15207D01*
X1092Y15119D01*
X828Y15032D01*
Y14931D01*
X1186Y15062D01*
X1249Y15085D01*
X1251Y15086D01*
X1255Y15087D01*
X1260Y15090D01*
X1268Y15093D01*
X1276Y15097D01*
X1284Y15102D01*
X1292Y15106D01*
X1299Y15110D01*
X1300Y15111D01*
X1302Y15113D01*
X1305Y15115D01*
X1309Y15118D01*
X1318Y15126D01*
X1327Y15137D01*
X1328Y15138D01*
X1329Y15140D01*
X1331Y15143D01*
X1333Y15147D01*
X1335Y15153D01*
X1338Y15159D01*
X1341Y15166D01*
X1343Y15174D01*
Y15175D01*
X1344Y15178D01*
X1346Y15182D01*
X1346Y15189D01*
X1348Y15196D01*
X1349Y15204D01*
X1350Y15214D01*
Y14931D01*
X828D01*
X1350D01*
Y15312D01*
D02*
G37*
G36*
X1016Y14896D02*
X1007D01*
X1001Y14895D01*
X993Y14894D01*
X984Y14894D01*
X975Y14892D01*
X964Y14890D01*
X941Y14884D01*
X929Y14880D01*
X916Y14876D01*
X905Y14870D01*
X893Y14863D01*
X882Y14856D01*
X872Y14848D01*
X871Y14847D01*
X870Y14846D01*
X867Y14843D01*
X864Y14839D01*
X860Y14834D01*
X856Y14828D01*
X851Y14822D01*
X845Y14814D01*
X841Y14806D01*
X836Y14797D01*
X831Y14787D01*
X828Y14776D01*
X825Y14765D01*
X822Y14752D01*
X820Y14740D01*
X819Y14726D01*
Y14727D01*
Y14718D01*
X820Y14712D01*
X821Y14706D01*
X822Y14698D01*
X824Y14689D01*
X826Y14679D01*
X829Y14669D01*
X833Y14658D01*
X837Y14647D01*
X843Y14636D01*
X849Y14626D01*
X856Y14615D01*
X865Y14605D01*
X875Y14596D01*
X876Y14595D01*
X877Y14594D01*
X881Y14592D01*
X885Y14589D01*
X891Y14585D01*
X898Y14581D01*
X907Y14577D01*
X916Y14572D01*
X927Y14568D01*
X940Y14564D01*
X953Y14560D01*
X969Y14556D01*
X985Y14553D01*
X1003Y14551D01*
X1021Y14550D01*
X1042D01*
Y14795D01*
X1043D01*
X1044D01*
X1047D01*
X1050Y14794D01*
X1057Y14794D01*
X1067Y14792D01*
X1078Y14789D01*
X1090Y14785D01*
X1101Y14780D01*
X1110Y14772D01*
X1111Y14772D01*
X1114Y14768D01*
X1118Y14763D01*
X1122Y14757D01*
X1127Y14749D01*
X1130Y14738D01*
X1133Y14727D01*
X1134Y14715D01*
Y14712D01*
X1133Y14707D01*
X1132Y14702D01*
X1131Y14696D01*
X1129Y14689D01*
X1126Y14683D01*
X1121Y14677D01*
X1121Y14676D01*
X1119Y14674D01*
X1116Y14671D01*
X1112Y14668D01*
X1106Y14663D01*
X1099Y14660D01*
X1090Y14656D01*
X1081Y14652D01*
X1097Y14555D01*
X1098D01*
X1099Y14555D01*
X1102Y14557D01*
X1106Y14558D01*
X1110Y14561D01*
X1115Y14563D01*
X1127Y14569D01*
X1141Y14578D01*
X1155Y14588D01*
X1167Y14601D01*
X1179Y14615D01*
Y14615D01*
X1181Y14616D01*
X1181Y14619D01*
X1183Y14622D01*
X1186Y14626D01*
X1188Y14631D01*
X1190Y14636D01*
X1193Y14643D01*
X1198Y14658D01*
X1203Y14675D01*
X1206Y14695D01*
X1207Y14716D01*
Y14563D01*
Y14725D01*
Y14720D01*
X1206Y14725D01*
Y14732D01*
X1205Y14740D01*
X1203Y14749D01*
X1202Y14760D01*
X1199Y14770D01*
X1196Y14782D01*
X1192Y14794D01*
X1186Y14806D01*
X1181Y14817D01*
X1173Y14829D01*
X1165Y14840D01*
X1155Y14850D01*
X1144Y14860D01*
X1144Y14860D01*
X1142Y14861D01*
X1139Y14863D01*
X1135Y14865D01*
X1130Y14868D01*
X1124Y14871D01*
X1118Y14874D01*
X1110Y14877D01*
X1101Y14881D01*
X1091Y14884D01*
X1081Y14888D01*
X1069Y14890D01*
X1057Y14892D01*
X1044Y14894D01*
X1030Y14895D01*
X1016Y14896D01*
D02*
G37*
G36*
X1199Y14473D02*
X819D01*
X828D01*
Y14382D01*
X880D01*
X879Y14382D01*
X875Y14379D01*
X868Y14374D01*
X860Y14368D01*
X852Y14362D01*
X844Y14355D01*
X836Y14348D01*
X831Y14341D01*
X831Y14340D01*
X829Y14338D01*
X828Y14333D01*
X825Y14328D01*
X823Y14322D01*
X821Y14315D01*
X820Y14308D01*
X819Y14299D01*
Y14293D01*
X820Y14286D01*
X822Y14278D01*
X824Y14268D01*
X828Y14256D01*
X832Y14245D01*
X839Y14234D01*
X924Y14265D01*
X923Y14265D01*
X922Y14269D01*
X919Y14273D01*
X916Y14279D01*
X913Y14287D01*
X910Y14294D01*
X908Y14302D01*
X907Y14310D01*
Y14313D01*
X908Y14318D01*
X909Y14322D01*
X910Y14328D01*
X913Y14333D01*
X916Y14339D01*
X919Y14345D01*
X920Y14346D01*
X922Y14347D01*
X925Y14350D01*
X929Y14353D01*
X934Y14357D01*
X942Y14361D01*
X950Y14365D01*
X961Y14367D01*
X962D01*
X964Y14368D01*
X967Y14369D01*
X970D01*
X975Y14370D01*
X981Y14370D01*
X987Y14371D01*
X995Y14372D01*
X1004Y14373D01*
X1014Y14373D01*
X1026D01*
X1038Y14374D01*
X1053Y14375D01*
X1068D01*
X1085D01*
X1199D01*
Y14234D01*
X839D01*
X1199D01*
Y14473D01*
D02*
G37*
G36*
Y14043D02*
Y13860D01*
X687Y14043D01*
Y13932D01*
X1066Y13801D01*
X687Y13676D01*
Y13566D01*
D01*
X1199Y13748D01*
Y14043D01*
D02*
G37*
G36*
X1016Y13543D02*
X1007D01*
X1001Y13542D01*
X993Y13542D01*
X984Y13541D01*
X975Y13539D01*
X964Y13537D01*
X941Y13531D01*
X929Y13528D01*
X916Y13523D01*
X905Y13517D01*
X893Y13511D01*
X882Y13503D01*
X872Y13495D01*
X871Y13494D01*
X870Y13493D01*
X867Y13490D01*
X864Y13486D01*
X860Y13482D01*
X856Y13476D01*
X851Y13469D01*
X845Y13462D01*
X841Y13454D01*
X836Y13444D01*
X831Y13434D01*
X828Y13423D01*
X825Y13412D01*
X822Y13400D01*
X820Y13387D01*
X819Y13374D01*
Y13374D01*
Y13366D01*
X820Y13360D01*
X821Y13353D01*
X822Y13345D01*
X824Y13336D01*
X826Y13326D01*
X829Y13316D01*
X833Y13306D01*
X837Y13294D01*
X843Y13283D01*
X849Y13273D01*
X856Y13263D01*
X865Y13252D01*
X875Y13243D01*
X876Y13243D01*
X877Y13241D01*
X881Y13239D01*
X885Y13236D01*
X891Y13232D01*
X898Y13229D01*
X907Y13224D01*
X916Y13220D01*
X927Y13215D01*
X940Y13211D01*
X953Y13207D01*
X969Y13203D01*
X985Y13200D01*
X1003Y13198D01*
X1021Y13197D01*
X1042D01*
Y13442D01*
X1043D01*
X1044D01*
X1047D01*
X1050Y13442D01*
X1057Y13441D01*
X1067Y13440D01*
X1078Y13437D01*
X1090Y13432D01*
X1101Y13427D01*
X1110Y13420D01*
X1111Y13419D01*
X1114Y13415D01*
X1118Y13411D01*
X1122Y13404D01*
X1127Y13396D01*
X1130Y13385D01*
X1133Y13374D01*
X1134Y13363D01*
Y13359D01*
X1133Y13354D01*
X1132Y13349D01*
X1131Y13343D01*
X1129Y13337D01*
X1126Y13330D01*
X1121Y13324D01*
X1121Y13323D01*
X1119Y13321D01*
X1116Y13318D01*
X1112Y13315D01*
X1106Y13311D01*
X1099Y13307D01*
X1090Y13303D01*
X1081Y13300D01*
X1097Y13202D01*
X1098D01*
X1099Y13203D01*
X1102Y13204D01*
X1106Y13206D01*
X1110Y13208D01*
X1115Y13210D01*
X1127Y13217D01*
X1141Y13225D01*
X1155Y13235D01*
X1167Y13248D01*
X1179Y13262D01*
Y13263D01*
X1181Y13263D01*
X1181Y13266D01*
X1183Y13269D01*
X1186Y13273D01*
X1188Y13278D01*
X1190Y13283D01*
X1193Y13290D01*
X1198Y13305D01*
X1203Y13322D01*
X1206Y13342D01*
X1207Y13363D01*
Y13210D01*
Y13372D01*
Y13368D01*
X1206Y13372D01*
Y13379D01*
X1205Y13387D01*
X1203Y13397D01*
X1202Y13407D01*
X1199Y13417D01*
X1196Y13429D01*
X1192Y13441D01*
X1186Y13453D01*
X1181Y13465D01*
X1173Y13477D01*
X1165Y13488D01*
X1155Y13497D01*
X1144Y13507D01*
X1144Y13508D01*
X1142Y13508D01*
X1139Y13510D01*
X1135Y13513D01*
X1130Y13515D01*
X1124Y13518D01*
X1118Y13522D01*
X1110Y13525D01*
X1101Y13528D01*
X1091Y13531D01*
X1081Y13535D01*
X1069Y13537D01*
X1057Y13539D01*
X1044Y13542D01*
X1030Y13542D01*
X1016Y13543D01*
D02*
G37*
G36*
X1199Y13121D02*
X819D01*
X828D01*
Y13030D01*
X880D01*
X879Y13029D01*
X875Y13026D01*
X868Y13021D01*
X860Y13015D01*
X852Y13010D01*
X844Y13002D01*
X836Y12996D01*
X831Y12988D01*
X831Y12987D01*
X829Y12985D01*
X828Y12981D01*
X825Y12976D01*
X823Y12970D01*
X821Y12962D01*
X820Y12955D01*
X819Y12946D01*
Y12940D01*
X820Y12933D01*
X822Y12925D01*
X824Y12915D01*
X828Y12904D01*
X832Y12893D01*
X839Y12881D01*
X924Y12912D01*
X923Y12913D01*
X922Y12916D01*
X919Y12921D01*
X916Y12927D01*
X913Y12934D01*
X910Y12941D01*
X908Y12950D01*
X907Y12958D01*
Y12961D01*
X908Y12965D01*
X909Y12970D01*
X910Y12975D01*
X913Y12981D01*
X916Y12987D01*
X919Y12993D01*
X920Y12993D01*
X922Y12995D01*
X925Y12998D01*
X929Y13001D01*
X934Y13004D01*
X942Y13008D01*
X950Y13012D01*
X961Y13015D01*
X962D01*
X964Y13015D01*
X967Y13016D01*
X970D01*
X975Y13017D01*
X981Y13018D01*
X987Y13018D01*
X995Y13019D01*
X1004Y13020D01*
X1014Y13021D01*
X1026D01*
X1038Y13021D01*
X1053Y13022D01*
X1068D01*
X1085D01*
X1199D01*
Y12881D01*
X839D01*
X1199D01*
Y13121D01*
D02*
G37*
%LPD*%
G36*
X1044Y16607D02*
X1055Y16606D01*
X1067Y16604D01*
X1079Y16600D01*
X1091Y16595D01*
X1101Y16587D01*
X1102Y16587D01*
X1105Y16584D01*
X1110Y16579D01*
X1114Y16573D01*
X1119Y16565D01*
X1123Y16557D01*
X1126Y16548D01*
X1127Y16537D01*
Y16533D01*
X1126Y16528D01*
X1124Y16521D01*
X1122Y16514D01*
X1118Y16506D01*
X1113Y16499D01*
X1107Y16491D01*
X1106Y16491D01*
X1102Y16488D01*
X1097Y16485D01*
X1090Y16482D01*
X1080Y16479D01*
X1068Y16476D01*
X1053Y16474D01*
X1036Y16473D01*
X1036D01*
X1034D01*
X1031D01*
X1028D01*
X1019Y16474D01*
X1008Y16475D01*
X996Y16478D01*
X984Y16481D01*
X972Y16486D01*
X962Y16493D01*
X962Y16493D01*
X959Y16496D01*
X955Y16500D01*
X950Y16506D01*
X946Y16513D01*
X942Y16522D01*
X939Y16531D01*
X939Y16542D01*
Y16546D01*
X940Y16552D01*
X942Y16559D01*
X944Y16566D01*
X948Y16574D01*
X954Y16582D01*
X962Y16590D01*
X962Y16590D01*
X966Y16593D01*
X971Y16596D01*
X978Y16599D01*
X987Y16603D01*
X998Y16606D01*
X1012Y16608D01*
X1027Y16609D01*
X1028D01*
X1030D01*
X1032D01*
X1036D01*
X1044Y16607D01*
D02*
G37*
G36*
X1095Y15591D02*
X1100Y15589D01*
X1106Y15588D01*
X1112Y15586D01*
X1118Y15582D01*
X1124Y15577D01*
X1124Y15576D01*
X1126Y15574D01*
X1128Y15571D01*
X1131Y15566D01*
X1134Y15560D01*
X1136Y15554D01*
X1138Y15546D01*
X1138Y15537D01*
Y15533D01*
X1138Y15528D01*
X1136Y15521D01*
X1134Y15513D01*
X1131Y15505D01*
X1127Y15495D01*
X1121Y15486D01*
X1121Y15486D01*
X1119Y15483D01*
X1116Y15480D01*
X1112Y15477D01*
X1107Y15473D01*
X1102Y15469D01*
X1095Y15466D01*
X1089Y15463D01*
X1088D01*
X1087Y15463D01*
X1083Y15462D01*
X1078Y15461D01*
X1072Y15460D01*
X1064Y15460D01*
X1053Y15459D01*
X1041D01*
X1021D01*
Y15460D01*
X1023Y15463D01*
X1024Y15467D01*
X1026Y15474D01*
X1028Y15482D01*
X1031Y15493D01*
X1034Y15505D01*
X1037Y15520D01*
Y15521D01*
X1038Y15523D01*
X1038Y15526D01*
X1040Y15533D01*
X1042Y15542D01*
X1044Y15551D01*
X1047Y15560D01*
X1051Y15567D01*
X1054Y15573D01*
X1055Y15574D01*
X1056Y15576D01*
X1059Y15579D01*
X1063Y15582D01*
X1068Y15586D01*
X1074Y15588D01*
X1081Y15591D01*
X1088Y15591D01*
X1089D01*
X1092D01*
X1095Y15591D01*
D02*
G37*
G36*
X982Y14647D02*
X981D01*
X980D01*
X979D01*
X976Y14648D01*
X967Y14649D01*
X959Y14650D01*
X948Y14653D01*
X937Y14657D01*
X927Y14663D01*
X918Y14669D01*
X917Y14670D01*
X914Y14673D01*
X910Y14678D01*
X906Y14683D01*
X902Y14691D01*
X899Y14700D01*
X896Y14709D01*
X895Y14720D01*
Y14726D01*
X896Y14732D01*
X898Y14739D01*
X901Y14747D01*
X905Y14756D01*
X910Y14765D01*
X919Y14773D01*
X919Y14774D01*
X923Y14776D01*
X928Y14780D01*
X936Y14783D01*
X944Y14788D01*
X956Y14791D01*
X968Y14793D01*
X982Y14794D01*
Y14647D01*
D02*
G37*
G36*
Y13294D02*
X981D01*
X980D01*
X979D01*
X976Y13295D01*
X967Y13296D01*
X959Y13297D01*
X948Y13300D01*
X937Y13304D01*
X927Y13310D01*
X918Y13317D01*
X917Y13317D01*
X914Y13320D01*
X910Y13325D01*
X906Y13331D01*
X902Y13338D01*
X899Y13347D01*
X896Y13357D01*
X895Y13368D01*
Y13373D01*
X896Y13379D01*
X898Y13386D01*
X901Y13394D01*
X905Y13403D01*
X910Y13412D01*
X919Y13420D01*
X919Y13421D01*
X923Y13423D01*
X928Y13427D01*
X936Y13431D01*
X944Y13435D01*
X956Y13438D01*
X968Y13440D01*
X982Y13441D01*
Y13294D01*
D02*
G37*
%LPC*%
G36*
X2558Y7714D02*
X2049D01*
Y7613D01*
X2050Y7599D01*
Y7585D01*
X2051Y7574D01*
Y7564D01*
X2052Y7554D01*
Y7547D01*
X2055Y7534D01*
X2056Y7525D01*
X2057Y7520D01*
Y7519D01*
X2061Y7503D01*
X2067Y7490D01*
X2072Y7478D01*
X2079Y7467D01*
X2085Y7459D01*
X2089Y7452D01*
X2092Y7449D01*
X2093Y7448D01*
X2104Y7438D01*
X2117Y7429D01*
X2129Y7421D01*
X2140Y7414D01*
X2151Y7410D01*
X2160Y7407D01*
X2166Y7404D01*
X2167Y7403D01*
X2168D01*
X2188Y7398D01*
X2209Y7393D01*
X2232Y7391D01*
X2254Y7389D01*
X2273Y7388D01*
X2282Y7387D01*
X2290D01*
X2296D01*
X2300D01*
X2303D01*
X2304D01*
X2336Y7388D01*
X2364Y7389D01*
X2388Y7392D01*
X2408Y7394D01*
X2424Y7398D01*
X2431Y7399D01*
X2436Y7401D01*
X2440Y7402D01*
X2443D01*
X2444Y7403D01*
X2446D01*
X2463Y7410D01*
X2479Y7415D01*
X2491Y7423D01*
X2501Y7429D01*
X2509Y7434D01*
X2514Y7439D01*
X2518Y7442D01*
X2519Y7443D01*
X2527Y7453D01*
X2533Y7463D01*
X2539Y7473D01*
X2543Y7483D01*
X2547Y7492D01*
X2549Y7499D01*
X2551Y7503D01*
Y7505D01*
X2553Y7518D01*
X2554Y7532D01*
X2557Y7548D01*
Y7563D01*
X2558Y7578D01*
Y7714D01*
D02*
G37*
G36*
X2362Y5671D02*
X2341Y5670D01*
X2322Y5667D01*
X2306Y5662D01*
X2292Y5656D01*
X2281Y5650D01*
X2273Y5645D01*
X2268Y5641D01*
X2267Y5640D01*
X2254Y5628D01*
X2246Y5615D01*
X2240Y5601D01*
X2236Y5589D01*
X2233Y5578D01*
X2231Y5569D01*
Y5561D01*
X2232Y5545D01*
X2237Y5530D01*
X2242Y5517D01*
X2248Y5506D01*
X2254Y5497D01*
X2260Y5490D01*
X2264Y5486D01*
X2266Y5485D01*
X2279Y5475D01*
X2294Y5466D01*
X2311Y5460D01*
X2327Y5456D01*
X2340Y5453D01*
X2352Y5452D01*
X2357Y5451D01*
X2359D01*
X2361D01*
X2362D01*
Y5671D01*
D02*
G37*
G36*
X2128Y3319D02*
Y3207D01*
X2507Y3077D01*
X2128Y2952D01*
Y2841D01*
X2640Y3023D01*
Y2952D01*
Y3135D01*
X2128Y3319D01*
D02*
G37*
G36*
X2506Y2815D02*
X2494Y2720D01*
X2495D01*
X2495D01*
X2500Y2719D01*
X2506Y2718D01*
X2515Y2715D01*
X2523Y2712D01*
X2533Y2708D01*
X2542Y2702D01*
X2550Y2695D01*
X2551Y2695D01*
X2553Y2692D01*
X2556Y2687D01*
X2559Y2682D01*
X2563Y2675D01*
X2566Y2667D01*
X2568Y2658D01*
X2569Y2647D01*
Y2646D01*
X2568Y2642D01*
X2567Y2637D01*
X2566Y2630D01*
X2563Y2621D01*
X2559Y2613D01*
X2553Y2604D01*
X2546Y2596D01*
X2545Y2596D01*
X2541Y2593D01*
X2536Y2590D01*
X2529Y2585D01*
X2521Y2582D01*
X2509Y2578D01*
X2497Y2576D01*
X2483Y2575D01*
X2482D01*
X2481D01*
X2477D01*
X2470Y2576D01*
X2461Y2577D01*
X2452Y2580D01*
X2442Y2584D01*
X2432Y2589D01*
X2424Y2596D01*
X2423Y2596D01*
X2420Y2599D01*
X2416Y2604D01*
X2412Y2609D01*
X2408Y2616D01*
X2405Y2624D01*
X2402Y2633D01*
X2401Y2644D01*
Y2651D01*
X2402Y2656D01*
X2403Y2663D01*
X2404Y2671D01*
X2407Y2679D01*
X2409Y2689D01*
X2330Y2678D01*
Y2672D01*
X2329Y2664D01*
X2328Y2655D01*
X2326Y2646D01*
X2323Y2636D01*
X2318Y2626D01*
X2313Y2617D01*
X2312Y2616D01*
X2309Y2613D01*
X2305Y2610D01*
X2299Y2606D01*
X2293Y2602D01*
X2284Y2599D01*
X2275Y2596D01*
X2264Y2596D01*
X2262D01*
X2259D01*
X2255Y2596D01*
X2249Y2598D01*
X2242Y2599D01*
X2236Y2602D01*
X2228Y2606D01*
X2222Y2611D01*
X2222Y2612D01*
X2220Y2614D01*
X2217Y2617D01*
X2214Y2622D01*
X2212Y2628D01*
X2209Y2635D01*
X2207Y2644D01*
X2207Y2653D01*
Y2657D01*
X2207Y2661D01*
X2209Y2667D01*
X2211Y2674D01*
X2214Y2681D01*
X2219Y2689D01*
X2225Y2695D01*
X2225Y2696D01*
X2227Y2698D01*
X2232Y2701D01*
X2238Y2705D01*
X2244Y2709D01*
X2253Y2712D01*
X2264Y2715D01*
X2276Y2717D01*
X2261Y2807D01*
X2260D01*
X2259Y2806D01*
X2256D01*
X2253Y2806D01*
X2244Y2803D01*
X2233Y2801D01*
X2222Y2796D01*
X2209Y2792D01*
X2197Y2786D01*
X2186Y2779D01*
X2185Y2778D01*
X2182Y2775D01*
X2176Y2771D01*
X2170Y2765D01*
X2163Y2758D01*
X2156Y2749D01*
X2148Y2738D01*
X2142Y2726D01*
Y2725D01*
X2141Y2724D01*
X2139Y2720D01*
X2136Y2712D01*
X2133Y2704D01*
X2131Y2693D01*
X2128Y2679D01*
X2126Y2665D01*
X2125Y2650D01*
Y2474D01*
Y2643D01*
X2126Y2638D01*
X2127Y2631D01*
X2128Y2624D01*
X2129Y2616D01*
X2131Y2608D01*
X2136Y2590D01*
X2140Y2580D01*
X2145Y2570D01*
X2150Y2560D01*
X2156Y2551D01*
X2164Y2542D01*
X2172Y2533D01*
X2173Y2533D01*
X2173Y2532D01*
X2176Y2530D01*
X2179Y2527D01*
X2186Y2522D01*
X2196Y2515D01*
X2209Y2508D01*
X2224Y2503D01*
X2240Y2499D01*
X2248Y2498D01*
X2257Y2497D01*
X2258D01*
X2260D01*
X2264Y2498D01*
X2268Y2499D01*
X2274Y2499D01*
X2281Y2501D01*
X2288Y2503D01*
X2296Y2506D01*
X2304Y2510D01*
X2313Y2515D01*
X2322Y2521D01*
X2331Y2528D01*
X2340Y2537D01*
X2349Y2547D01*
X2357Y2558D01*
X2365Y2571D01*
Y2570D01*
X2366Y2569D01*
Y2567D01*
X2367Y2564D01*
X2370Y2556D01*
X2374Y2546D01*
X2380Y2535D01*
X2387Y2523D01*
X2397Y2511D01*
X2408Y2501D01*
X2410Y2499D01*
X2414Y2496D01*
X2421Y2493D01*
X2430Y2488D01*
X2441Y2482D01*
X2455Y2479D01*
X2470Y2476D01*
X2487Y2474D01*
X2125D01*
X2494D01*
X2498Y2475D01*
X2504Y2476D01*
X2511Y2477D01*
X2519Y2479D01*
X2527Y2480D01*
X2545Y2486D01*
X2555Y2490D01*
X2565Y2495D01*
X2575Y2501D01*
X2584Y2508D01*
X2594Y2515D01*
X2603Y2524D01*
X2603Y2525D01*
X2605Y2526D01*
X2607Y2529D01*
X2610Y2533D01*
X2614Y2538D01*
X2617Y2543D01*
X2622Y2550D01*
X2626Y2558D01*
X2631Y2566D01*
X2635Y2576D01*
X2639Y2586D01*
X2643Y2596D01*
X2646Y2608D01*
X2648Y2620D01*
X2649Y2633D01*
X2650Y2647D01*
Y2653D01*
X2649Y2658D01*
X2649Y2664D01*
X2648Y2671D01*
X2646Y2678D01*
X2645Y2687D01*
X2640Y2705D01*
X2633Y2724D01*
X2629Y2735D01*
X2623Y2744D01*
X2617Y2753D01*
X2610Y2762D01*
X2609Y2763D01*
X2608Y2764D01*
X2606Y2767D01*
X2603Y2769D01*
X2599Y2773D01*
X2594Y2777D01*
X2589Y2781D01*
X2582Y2786D01*
X2575Y2790D01*
X2567Y2795D01*
X2549Y2803D01*
X2529Y2810D01*
X2518Y2813D01*
X2506Y2815D01*
D02*
G37*
G36*
X2640Y2392D02*
X2542D01*
Y2294D01*
X2640D01*
Y2392D01*
D02*
G37*
G36*
X2387Y2214D02*
X2373D01*
X2364Y2213D01*
X2352Y2212D01*
X2338Y2211D01*
X2323Y2209D01*
X2307Y2208D01*
X2290Y2205D01*
X2273Y2202D01*
X2255Y2197D01*
X2238Y2193D01*
X2222Y2187D01*
X2206Y2180D01*
X2191Y2173D01*
X2179Y2164D01*
X2178Y2163D01*
X2176Y2162D01*
X2173Y2160D01*
X2170Y2156D01*
X2166Y2152D01*
X2162Y2147D01*
X2157Y2140D01*
X2152Y2134D01*
X2147Y2126D01*
X2142Y2118D01*
X2138Y2108D01*
X2133Y2098D01*
X2131Y2086D01*
X2128Y2074D01*
X2126Y2061D01*
X2125Y2048D01*
Y2214D01*
D01*
D01*
Y1881D01*
D01*
Y2041D01*
X2126Y2035D01*
X2127Y2029D01*
X2128Y2022D01*
X2130Y2015D01*
X2132Y2006D01*
X2135Y1996D01*
X2139Y1987D01*
X2142Y1978D01*
X2148Y1968D01*
X2154Y1958D01*
X2161Y1949D01*
X2169Y1940D01*
X2179Y1932D01*
X2179Y1931D01*
X2182Y1930D01*
X2185Y1927D01*
X2190Y1924D01*
X2198Y1920D01*
X2207Y1916D01*
X2216Y1911D01*
X2229Y1907D01*
X2242Y1902D01*
X2258Y1897D01*
X2275Y1893D01*
X2294Y1890D01*
X2315Y1886D01*
X2337Y1884D01*
X2361Y1882D01*
X2388Y1881D01*
X2125D01*
X2402D01*
X2412Y1882D01*
X2424Y1883D01*
X2438Y1884D01*
X2452Y1886D01*
X2469Y1887D01*
X2486Y1890D01*
X2503Y1894D01*
X2521Y1898D01*
X2538Y1903D01*
X2555Y1908D01*
X2570Y1916D01*
X2585Y1923D01*
X2597Y1932D01*
X2598Y1933D01*
X2600Y1934D01*
X2603Y1936D01*
X2606Y1939D01*
X2609Y1944D01*
X2614Y1949D01*
X2619Y1955D01*
X2623Y1962D01*
X2629Y1970D01*
X2634Y1978D01*
X2638Y1988D01*
X2642Y1998D01*
X2645Y2009D01*
X2648Y2022D01*
X2649Y2035D01*
X2650Y2048D01*
Y2051D01*
X2649Y2055D01*
Y2061D01*
X2649Y2066D01*
X2647Y2074D01*
X2646Y2082D01*
X2643Y2091D01*
X2640Y2101D01*
X2636Y2110D01*
X2632Y2120D01*
X2626Y2130D01*
X2620Y2140D01*
X2612Y2150D01*
X2603Y2160D01*
X2593Y2169D01*
X2592Y2169D01*
X2590Y2171D01*
X2586Y2173D01*
X2582Y2175D01*
X2575Y2179D01*
X2567Y2183D01*
X2557Y2187D01*
X2546Y2191D01*
X2532Y2195D01*
X2518Y2200D01*
X2501Y2203D01*
X2482Y2206D01*
X2461Y2209D01*
X2438Y2211D01*
X2414Y2213D01*
X2387Y2214D01*
D02*
G37*
%LPD*%
G36*
X2418Y2109D02*
X2428D01*
X2438Y2109D01*
X2458Y2108D01*
X2479Y2106D01*
X2489Y2106D01*
X2498Y2104D01*
X2506Y2103D01*
X2513Y2101D01*
X2515Y2101D01*
X2518Y2100D01*
X2524Y2098D01*
X2531Y2095D01*
X2538Y2092D01*
X2546Y2088D01*
X2552Y2083D01*
X2558Y2079D01*
X2558Y2078D01*
X2559Y2077D01*
X2561Y2074D01*
X2563Y2070D01*
X2565Y2066D01*
X2567Y2061D01*
X2568Y2055D01*
X2569Y2048D01*
Y2045D01*
X2568Y2041D01*
X2567Y2038D01*
X2566Y2032D01*
X2564Y2027D01*
X2561Y2022D01*
X2558Y2017D01*
X2557Y2016D01*
X2555Y2015D01*
X2552Y2012D01*
X2548Y2009D01*
X2543Y2006D01*
X2535Y2002D01*
X2527Y1998D01*
X2517Y1995D01*
X2516D01*
X2515Y1995D01*
X2512D01*
X2509Y1994D01*
X2505Y1993D01*
X2500Y1992D01*
X2494Y1991D01*
X2486Y1990D01*
X2478Y1989D01*
X2469Y1988D01*
X2458Y1987D01*
X2447Y1987D01*
X2434Y1986D01*
X2420D01*
X2404Y1985D01*
X2388D01*
X2387D01*
X2384D01*
X2379D01*
X2373D01*
X2366D01*
X2358Y1986D01*
X2348D01*
X2338Y1987D01*
X2318Y1987D01*
X2298Y1989D01*
X2288Y1990D01*
X2279Y1992D01*
X2270Y1993D01*
X2264Y1995D01*
X2263D01*
X2262Y1995D01*
X2259Y1996D01*
X2253Y1998D01*
X2245Y2001D01*
X2238Y2004D01*
X2230Y2008D01*
X2224Y2012D01*
X2219Y2017D01*
X2218Y2018D01*
X2216Y2019D01*
X2215Y2022D01*
X2213Y2026D01*
X2210Y2030D01*
X2208Y2035D01*
X2207Y2041D01*
X2207Y2048D01*
Y2051D01*
X2207Y2055D01*
X2208Y2058D01*
X2210Y2063D01*
X2212Y2069D01*
X2215Y2075D01*
X2219Y2080D01*
X2219Y2081D01*
X2221Y2082D01*
X2224Y2084D01*
X2227Y2087D01*
X2233Y2091D01*
X2240Y2094D01*
X2249Y2098D01*
X2259Y2101D01*
X2260D01*
X2261Y2101D01*
X2264D01*
X2267Y2102D01*
X2271Y2103D01*
X2276Y2103D01*
X2282Y2104D01*
X2290Y2105D01*
X2298Y2106D01*
X2307Y2107D01*
X2318Y2108D01*
X2330Y2109D01*
X2343Y2109D01*
X2356D01*
X2372Y2110D01*
X2388D01*
X2389D01*
X2392D01*
X2397D01*
X2403D01*
X2410D01*
X2418Y2109D01*
D02*
G37*
%LPC*%
G36*
X1432Y10362D02*
X471D01*
Y9558D01*
Y9940D01*
X473Y9915D01*
X474Y9887D01*
X476Y9860D01*
X478Y9833D01*
X481Y9810D01*
Y9807D01*
X483Y9800D01*
X485Y9790D01*
X490Y9776D01*
X495Y9761D01*
X502Y9744D01*
X510Y9726D01*
X521Y9710D01*
X523Y9708D01*
X527Y9703D01*
X534Y9695D01*
X542Y9683D01*
X555Y9672D01*
X569Y9660D01*
X584Y9647D01*
X602Y9636D01*
X605Y9635D01*
X610Y9632D01*
X621Y9627D01*
X635Y9621D01*
X652Y9615D01*
X670Y9610D01*
X692Y9607D01*
X714Y9606D01*
X716D01*
X717D01*
X725D01*
X738Y9607D01*
X755Y9610D01*
X774Y9615D01*
X795Y9621D01*
X816Y9631D01*
X838Y9643D01*
X841Y9645D01*
X848Y9650D01*
X857Y9658D01*
X870Y9668D01*
X882Y9682D01*
X898Y9699D01*
X910Y9718D01*
X923Y9740D01*
Y9739D01*
X924Y9736D01*
X925Y9732D01*
X927Y9726D01*
X934Y9710D01*
X943Y9690D01*
X954Y9670D01*
X970Y9646D01*
X988Y9625D01*
X1010Y9606D01*
X1013Y9604D01*
X1021Y9599D01*
X1034Y9590D01*
X1050Y9582D01*
X1072Y9574D01*
X1096Y9565D01*
X1124Y9560D01*
X1154Y9558D01*
X471D01*
X1432D01*
Y10362D01*
D02*
G37*
G36*
Y9389D02*
X478D01*
Y8712D01*
D01*
Y9195D01*
X1270D01*
Y8712D01*
X1432D01*
Y9389D01*
D02*
G37*
G36*
Y8672D02*
X471Y8300D01*
Y8672D01*
Y7708D01*
D01*
Y8094D01*
X1432Y7708D01*
Y7918D01*
X1214Y8001D01*
Y8387D01*
X1432Y8466D01*
Y8672D01*
D02*
G37*
G36*
Y7689D02*
X471D01*
Y6907D01*
Y6928D01*
X623D01*
X1270Y7454D01*
Y6907D01*
X1432D01*
Y7689D01*
D02*
G37*
G36*
Y6784D02*
X471D01*
Y6072D01*
X634D01*
Y6590D01*
X846D01*
Y6108D01*
X1009D01*
Y6590D01*
X1270D01*
Y6054D01*
X1432D01*
Y6784D01*
D02*
G37*
G36*
Y5889D02*
X471D01*
Y5025D01*
Y5456D01*
X473Y5443D01*
Y5428D01*
X474Y5413D01*
Y5394D01*
X478Y5358D01*
X483Y5321D01*
X490Y5286D01*
X494Y5271D01*
X498Y5257D01*
Y5256D01*
X499Y5254D01*
X503Y5246D01*
X510Y5233D01*
X519Y5217D01*
X533Y5199D01*
X548Y5181D01*
X567Y5163D01*
X591Y5146D01*
X592D01*
X594Y5145D01*
X598Y5142D01*
X602Y5139D01*
X616Y5132D01*
X634Y5124D01*
X656Y5117D01*
X681Y5110D01*
X710Y5104D01*
X741Y5103D01*
X742D01*
X745D01*
X752D01*
X759Y5104D01*
X768D01*
X778Y5106D01*
X803Y5111D01*
X832Y5118D01*
X861Y5129D01*
X892Y5146D01*
X906Y5156D01*
X920Y5167D01*
X921Y5168D01*
X923Y5170D01*
X927Y5174D01*
X931Y5179D01*
X936Y5185D01*
X943Y5193D01*
X950Y5203D01*
X957Y5214D01*
X966Y5227D01*
X973Y5242D01*
X979Y5257D01*
X986Y5274D01*
X993Y5293D01*
X999Y5313D01*
X1004Y5333D01*
X1009Y5357D01*
Y5356D01*
X1010Y5354D01*
X1016Y5346D01*
X1022Y5335D01*
X1032Y5321D01*
X1045Y5304D01*
X1057Y5288D01*
X1072Y5270D01*
X1089Y5254D01*
X1091Y5253D01*
X1097Y5246D01*
X1109Y5238D01*
X1125Y5225D01*
X1146Y5209D01*
X1160Y5200D01*
X1174Y5190D01*
X1189Y5179D01*
X1206Y5168D01*
X1225Y5156D01*
X1245Y5143D01*
X1432Y5025D01*
Y5258D01*
X1224Y5397D01*
X1222Y5399D01*
X1218Y5400D01*
X1213Y5404D01*
X1206Y5410D01*
X1197Y5415D01*
X1186Y5422D01*
X1164Y5438D01*
X1139Y5456D01*
X1117Y5472D01*
X1096Y5487D01*
X1089Y5494D01*
X1082Y5500D01*
X1081Y5501D01*
X1078Y5504D01*
X1072Y5510D01*
X1066Y5517D01*
X1060Y5526D01*
X1053Y5536D01*
X1047Y5547D01*
X1042Y5558D01*
Y5560D01*
X1041Y5564D01*
X1038Y5571D01*
X1036Y5582D01*
X1034Y5596D01*
X1032Y5612D01*
X1031Y5632D01*
Y5694D01*
X1432D01*
Y5889D01*
D02*
G37*
G36*
Y4546D02*
X471D01*
Y3887D01*
X1432D01*
X634D01*
Y4352D01*
X861D01*
Y3951D01*
X1024D01*
Y4352D01*
X1432D01*
Y4546D01*
D02*
G37*
G36*
X1450Y3766D02*
Y3310D01*
X1449Y3321D01*
X1447Y3335D01*
X1446Y3353D01*
X1443Y3374D01*
X1439Y3397D01*
X1433Y3422D01*
X1426Y3450D01*
X1418Y3476D01*
X1407Y3505D01*
X1394Y3533D01*
X1381Y3562D01*
X1363Y3589D01*
X1343Y3615D01*
X1320Y3640D01*
X1318Y3641D01*
X1314Y3646D01*
X1306Y3651D01*
X1296Y3659D01*
X1282Y3669D01*
X1265Y3680D01*
X1247Y3691D01*
X1225Y3703D01*
X1202Y3715D01*
X1174Y3726D01*
X1145Y3737D01*
X1113Y3747D01*
X1078Y3755D01*
X1041Y3761D01*
X1000Y3765D01*
X959Y3766D01*
X1450D01*
X945D01*
X934Y3765D01*
X921D01*
X907Y3764D01*
X891Y3762D01*
X873Y3761D01*
X834Y3755D01*
X792Y3748D01*
X750Y3737D01*
X712Y3723D01*
X710D01*
X709Y3722D01*
X705Y3719D01*
X699Y3718D01*
X685Y3709D01*
X667Y3700D01*
X646Y3687D01*
X626Y3672D01*
X602Y3654D01*
X580Y3634D01*
X578Y3633D01*
X577Y3632D01*
X570Y3625D01*
X559Y3612D01*
X546Y3597D01*
X533Y3579D01*
X517Y3558D01*
X503Y3535D01*
X492Y3510D01*
Y3508D01*
X491Y3505D01*
X488Y3500D01*
X487Y3493D01*
X483Y3485D01*
X480Y3475D01*
X477Y3462D01*
X473Y3450D01*
X466Y3419D01*
X459Y3385D01*
X455Y3344D01*
X453Y3303D01*
Y3331D01*
Y3293D01*
X455Y3282D01*
Y3268D01*
X458Y3250D01*
X460Y3229D01*
X465Y3206D01*
X470Y3181D01*
X477Y3154D01*
X485Y3126D01*
X496Y3099D01*
X509Y3070D01*
X524Y3042D01*
X542Y3014D01*
X563Y2988D01*
X587Y2963D01*
X588Y2961D01*
X592Y2957D01*
X601Y2950D01*
X610Y2943D01*
X624Y2934D01*
X641Y2922D01*
X660Y2911D01*
X682Y2899D01*
X706Y2886D01*
X734Y2875D01*
X764Y2864D01*
X796Y2854D01*
X832Y2846D01*
X870Y2841D01*
X910Y2836D01*
X953Y2835D01*
X453D01*
X963D01*
X975Y2836D01*
X992D01*
X1011Y2839D01*
X1034Y2842D01*
X1060Y2846D01*
X1086Y2850D01*
X1115Y2857D01*
X1146Y2866D01*
X1177Y2877D01*
X1207Y2889D01*
X1236Y2903D01*
X1265Y2921D01*
X1293Y2941D01*
X1320Y2963D01*
X1321Y2964D01*
X1325Y2968D01*
X1332Y2975D01*
X1340Y2986D01*
X1350Y2999D01*
X1361Y3014D01*
X1372Y3032D01*
X1385Y3052D01*
X1397Y3075D01*
X1408Y3100D01*
X1419Y3128D01*
X1429Y3158D01*
X1438Y3190D01*
X1444Y3225D01*
X1449Y3261D01*
X1450Y3300D01*
Y2835D01*
D01*
D01*
Y3766D01*
D02*
G37*
G36*
X960Y2717D02*
X949D01*
X936Y2716D01*
X920D01*
X900Y2713D01*
X877Y2710D01*
X852Y2707D01*
X823Y2702D01*
X793Y2695D01*
X763Y2686D01*
X732Y2677D01*
X700Y2664D01*
X670Y2650D01*
X641Y2634D01*
X613Y2616D01*
X587Y2594D01*
X585Y2592D01*
X581Y2588D01*
X574Y2581D01*
X566Y2571D01*
X556Y2559D01*
X545Y2544D01*
X533Y2527D01*
X520Y2506D01*
X508Y2484D01*
X495Y2460D01*
X484Y2432D01*
X474Y2405D01*
X466Y2373D01*
X459Y2341D01*
X455Y2305D01*
X453Y2269D01*
Y2717D01*
Y1881D01*
Y2252D01*
X455Y2240D01*
X456Y2224D01*
X459Y2208D01*
X462Y2188D01*
X466Y2167D01*
X471Y2145D01*
X478Y2122D01*
X487Y2098D01*
X498Y2073D01*
X509Y2049D01*
X523Y2027D01*
X539Y2004D01*
X558Y1983D01*
Y1981D01*
X560Y1980D01*
X564Y1976D01*
X569Y1972D01*
X576Y1966D01*
X584Y1961D01*
X603Y1945D01*
X628Y1930D01*
X659Y1913D01*
X694Y1898D01*
X734Y1884D01*
X780Y2076D01*
X778D01*
X777Y2077D01*
X773D01*
X767Y2080D01*
X755Y2084D01*
X738Y2091D01*
X719Y2101D01*
X699Y2113D01*
X680Y2130D01*
X663Y2148D01*
X662Y2151D01*
X656Y2158D01*
X649Y2169D01*
X641Y2184D01*
X632Y2203D01*
X626Y2226D01*
X620Y2251D01*
X619Y2278D01*
Y2288D01*
X620Y2296D01*
X621Y2305D01*
X623Y2316D01*
X628Y2340D01*
X638Y2367D01*
X652Y2396D01*
X660Y2412D01*
X670Y2426D01*
X682Y2439D01*
X696Y2452D01*
X698D01*
X700Y2455D01*
X705Y2457D01*
X712Y2462D01*
X720Y2467D01*
X730Y2473D01*
X742Y2478D01*
X756Y2484D01*
X773Y2491D01*
X791Y2496D01*
X812Y2502D01*
X834Y2507D01*
X859Y2512D01*
X885Y2514D01*
X914Y2516D01*
X946Y2517D01*
X948D01*
X954D01*
X964D01*
X975Y2516D01*
X991D01*
X1009Y2513D01*
X1027Y2512D01*
X1047Y2509D01*
X1091Y2501D01*
X1134Y2489D01*
X1154Y2482D01*
X1174Y2473D01*
X1192Y2463D01*
X1207Y2452D01*
X1208Y2451D01*
X1210Y2449D01*
X1214Y2445D01*
X1220Y2439D01*
X1231Y2426D01*
X1245Y2406D01*
X1260Y2383D01*
X1271Y2353D01*
X1281Y2320D01*
X1282Y2302D01*
X1283Y2283D01*
Y2276D01*
X1282Y2270D01*
X1281Y2255D01*
X1278Y2237D01*
X1271Y2217D01*
X1263Y2195D01*
X1252Y2173D01*
X1235Y2151D01*
X1232Y2148D01*
X1225Y2141D01*
X1214Y2131D01*
X1197Y2120D01*
X1175Y2106D01*
X1149Y2094D01*
X1117Y2081D01*
X1079Y2070D01*
X1138Y1881D01*
X1449D01*
Y2290D01*
X1447Y2299D01*
X1446Y2313D01*
X1444Y2328D01*
X1442Y2348D01*
X1438Y2369D01*
X1432Y2392D01*
X1425Y2416D01*
X1417Y2441D01*
X1406Y2467D01*
X1393Y2494D01*
X1379Y2520D01*
X1361Y2546D01*
X1342Y2571D01*
X1318Y2595D01*
X1317Y2596D01*
X1313Y2600D01*
X1304Y2606D01*
X1295Y2614D01*
X1281Y2623D01*
X1265Y2634D01*
X1246Y2645D01*
X1224Y2656D01*
X1200Y2667D01*
X1174Y2678D01*
X1143Y2689D01*
X1111Y2698D01*
X1078Y2706D01*
X1041Y2711D01*
X1002Y2716D01*
X960Y2717D01*
D02*
G37*
%LPD*%
G36*
X853Y9982D02*
X852Y9958D01*
Y9915D01*
X850Y9907D01*
Y9899D01*
X849Y9893D01*
X848Y9885D01*
X843Y9872D01*
X839Y9860D01*
X834Y9847D01*
X827Y9835D01*
X817Y9824D01*
X816Y9822D01*
X812Y9819D01*
X806Y9814D01*
X796Y9808D01*
X785Y9804D01*
X773Y9799D01*
X757Y9796D01*
X741Y9794D01*
X739D01*
X734D01*
X725Y9796D01*
X714Y9797D01*
X703Y9800D01*
X692Y9806D01*
X680Y9811D01*
X669Y9819D01*
X667Y9821D01*
X664Y9824D01*
X659Y9831D01*
X653Y9837D01*
X648Y9849D01*
X642Y9861D01*
X638Y9876D01*
X635Y9893D01*
Y9894D01*
X634Y9900D01*
Y9915D01*
X632Y9924D01*
Y9960D01*
X631Y9975D01*
Y10168D01*
X853D01*
Y9982D01*
D02*
G37*
G36*
X1270Y9954D02*
X1268Y9933D01*
Y9911D01*
X1267Y9889D01*
X1265Y9871D01*
Y9862D01*
X1264Y9857D01*
Y9856D01*
X1263Y9850D01*
X1260Y9842D01*
X1257Y9832D01*
X1252Y9821D01*
X1245Y9808D01*
X1236Y9797D01*
X1227Y9786D01*
X1225Y9785D01*
X1221Y9782D01*
X1214Y9778D01*
X1204Y9772D01*
X1193Y9767D01*
X1179Y9763D01*
X1163Y9760D01*
X1145Y9758D01*
X1143D01*
X1138D01*
X1129Y9760D01*
X1120Y9761D01*
X1107Y9764D01*
X1096Y9768D01*
X1084Y9774D01*
X1071Y9781D01*
X1070Y9782D01*
X1066Y9785D01*
X1060Y9789D01*
X1054Y9796D01*
X1046Y9804D01*
X1039Y9815D01*
X1032Y9828D01*
X1027Y9842D01*
Y9843D01*
X1024Y9850D01*
X1022Y9861D01*
X1021Y9868D01*
X1020Y9878D01*
X1018Y9887D01*
X1017Y9900D01*
X1016Y9914D01*
Y9930D01*
X1014Y9947D01*
X1013Y9967D01*
Y10168D01*
X1270D01*
Y9954D01*
D02*
G37*
G36*
X1432Y9558D02*
X1165D01*
X1178Y9560D01*
X1195Y9563D01*
X1214Y9565D01*
X1236Y9571D01*
X1258Y9579D01*
X1282Y9589D01*
X1285Y9590D01*
X1292Y9595D01*
X1303Y9602D01*
X1317Y9611D01*
X1333Y9622D01*
X1349Y9638D01*
X1365Y9653D01*
X1381Y9672D01*
X1382Y9675D01*
X1386Y9682D01*
X1393Y9693D01*
X1400Y9708D01*
X1408Y9728D01*
X1415Y9750D01*
X1422Y9775D01*
X1426Y9803D01*
Y9808D01*
X1428Y9814D01*
Y9828D01*
X1429Y9837D01*
Y9864D01*
X1431Y9880D01*
Y9922D01*
X1432Y9946D01*
Y9558D01*
D02*
G37*
G36*
X1052Y8064D02*
X695Y8198D01*
X1052Y8329D01*
Y8064D01*
D02*
G37*
G36*
X634Y7182D02*
Y7631D01*
X471D01*
Y7689D01*
X1257D01*
X634Y7182D01*
D02*
G37*
G36*
X878Y5506D02*
X877Y5478D01*
X875Y5449D01*
X874Y5419D01*
X873Y5407D01*
X871Y5396D01*
X868Y5385D01*
X867Y5378D01*
Y5376D01*
X864Y5372D01*
X861Y5365D01*
X857Y5358D01*
X845Y5340D01*
X837Y5332D01*
X827Y5324D01*
X825Y5322D01*
X821Y5321D01*
X816Y5317D01*
X807Y5313D01*
X796Y5310D01*
X784Y5306D01*
X770Y5304D01*
X755Y5303D01*
X752D01*
X746D01*
X738Y5304D01*
X727Y5306D01*
X714Y5310D01*
X702Y5314D01*
X688Y5321D01*
X677Y5329D01*
X675Y5331D01*
X671Y5333D01*
X667Y5340D01*
X660Y5349D01*
X653Y5358D01*
X648Y5371D01*
X642Y5386D01*
X638Y5403D01*
Y5404D01*
X637Y5408D01*
Y5417D01*
X635Y5429D01*
Y5460D01*
X634Y5472D01*
Y5694D01*
X878D01*
Y5506D01*
D02*
G37*
G36*
X978Y3565D02*
X992Y3564D01*
X1009Y3562D01*
X1025Y3560D01*
X1045Y3557D01*
X1085Y3548D01*
X1125Y3535D01*
X1146Y3526D01*
X1165Y3517D01*
X1183Y3504D01*
X1200Y3492D01*
X1202Y3490D01*
X1204Y3487D01*
X1208Y3483D01*
X1213Y3478D01*
X1220Y3471D01*
X1227Y3461D01*
X1235Y3451D01*
X1242Y3439D01*
X1258Y3412D01*
X1271Y3379D01*
X1276Y3361D01*
X1281Y3342D01*
X1283Y3321D01*
X1285Y3300D01*
Y3289D01*
X1283Y3281D01*
X1282Y3271D01*
X1281Y3260D01*
X1274Y3233D01*
X1264Y3203D01*
X1257Y3188D01*
X1250Y3171D01*
X1240Y3156D01*
X1229Y3139D01*
X1217Y3124D01*
X1202Y3110D01*
X1200Y3108D01*
X1197Y3107D01*
X1193Y3103D01*
X1186Y3099D01*
X1177Y3092D01*
X1165Y3086D01*
X1153Y3079D01*
X1138Y3072D01*
X1121Y3065D01*
X1103Y3058D01*
X1082Y3052D01*
X1059Y3046D01*
X1035Y3042D01*
X1009Y3038D01*
X979Y3036D01*
X949Y3035D01*
X948D01*
X942D01*
X934D01*
X921Y3036D01*
X907Y3038D01*
X892Y3039D01*
X874Y3040D01*
X856Y3045D01*
X816Y3053D01*
X774Y3065D01*
X753Y3074D01*
X735Y3083D01*
X717Y3096D01*
X700Y3108D01*
X699Y3110D01*
X696Y3111D01*
X694Y3115D01*
X688Y3121D01*
X681Y3129D01*
X674Y3138D01*
X667Y3147D01*
X659Y3160D01*
X652Y3172D01*
X645Y3188D01*
X631Y3219D01*
X626Y3238D01*
X623Y3257D01*
X620Y3278D01*
X619Y3300D01*
Y3311D01*
X620Y3319D01*
X621Y3331D01*
X623Y3342D01*
X628Y3369D01*
X639Y3400D01*
X645Y3417D01*
X653Y3433D01*
X663Y3449D01*
X674Y3465D01*
X687Y3480D01*
X702Y3494D01*
X703Y3496D01*
X706Y3497D01*
X710Y3501D01*
X717Y3505D01*
X727Y3511D01*
X737Y3517D01*
X749Y3523D01*
X764Y3530D01*
X781Y3537D01*
X799Y3544D01*
X820Y3550D01*
X842Y3555D01*
X867Y3560D01*
X893Y3564D01*
X921Y3565D01*
X952Y3566D01*
X953D01*
X959D01*
X967D01*
X978Y3565D01*
D02*
G37*
G36*
X1449Y1881D02*
X1139D01*
X1145Y1883D01*
X1153Y1886D01*
X1164Y1890D01*
X1177Y1895D01*
X1192Y1901D01*
X1208Y1908D01*
X1227Y1916D01*
X1264Y1936D01*
X1303Y1961D01*
X1340Y1991D01*
X1357Y2008D01*
X1372Y2026D01*
X1374Y2027D01*
X1375Y2030D01*
X1379Y2036D01*
X1385Y2044D01*
X1390Y2054D01*
X1396Y2066D01*
X1403Y2080D01*
X1410Y2095D01*
X1418Y2113D01*
X1425Y2133D01*
X1431Y2154D01*
X1436Y2176D01*
X1442Y2199D01*
X1446Y2226D01*
X1447Y2252D01*
X1449Y2281D01*
Y1881D01*
D02*
G37*
%LPC*%
G36*
X15110Y6249D02*
X15108D01*
X15105Y6249D01*
X15101Y6248D01*
X15098Y6247D01*
X15096Y6246D01*
X15094Y6245D01*
X15092Y6244D01*
X15091Y6243D01*
X15091Y6243D01*
X15088Y6240D01*
X15086Y6236D01*
X15084Y6232D01*
X15082Y6228D01*
X15080Y6223D01*
X15079Y6220D01*
X15079Y6218D01*
X15078Y6218D01*
Y6217D01*
X15077Y6213D01*
X15077Y6209D01*
X15076Y6203D01*
X15075Y6198D01*
X15074Y6187D01*
X15074Y6175D01*
X15073Y6170D01*
Y6164D01*
X15073Y6160D01*
Y6156D01*
Y6152D01*
Y6149D01*
Y6148D01*
Y6147D01*
Y6138D01*
X15073Y6129D01*
Y6121D01*
X15074Y6114D01*
X15074Y6108D01*
X15075Y6102D01*
X15075Y6097D01*
X15076Y6092D01*
X15076Y6088D01*
X15077Y6084D01*
X15077Y6082D01*
X15078Y6079D01*
X15078Y6077D01*
Y6076D01*
X15079Y6075D01*
Y6075D01*
X15080Y6069D01*
X15082Y6064D01*
X15085Y6060D01*
X15086Y6057D01*
X15088Y6055D01*
X15090Y6053D01*
X15090Y6052D01*
X15091Y6052D01*
X15094Y6050D01*
X15097Y6048D01*
X15100Y6047D01*
X15102Y6047D01*
X15105Y6046D01*
X15107Y6046D01*
X15108D01*
X15112Y6046D01*
X15115Y6047D01*
X15118Y6048D01*
X15121Y6049D01*
X15123Y6050D01*
X15124Y6051D01*
X15125Y6052D01*
X15126Y6052D01*
X15128Y6055D01*
X15131Y6059D01*
X15133Y6063D01*
X15135Y6067D01*
X15136Y6071D01*
X15137Y6074D01*
X15138Y6076D01*
X15138Y6077D01*
X15139Y6081D01*
X15140Y6086D01*
X15141Y6091D01*
X15141Y6096D01*
X15142Y6108D01*
X15142Y6119D01*
X15143Y6125D01*
Y6130D01*
X15143Y6135D01*
Y6139D01*
Y6142D01*
Y6145D01*
Y6147D01*
Y6147D01*
Y6156D01*
X15143Y6165D01*
Y6173D01*
X15142Y6180D01*
X15142Y6186D01*
X15142Y6193D01*
X15141Y6198D01*
X15140Y6203D01*
X15140Y6207D01*
X15139Y6210D01*
X15139Y6213D01*
X15139Y6215D01*
X15138Y6217D01*
Y6219D01*
X15138Y6219D01*
Y6220D01*
X15136Y6225D01*
X15134Y6230D01*
X15132Y6234D01*
X15130Y6238D01*
X15129Y6240D01*
X15127Y6241D01*
X15127Y6242D01*
X15126Y6243D01*
X15123Y6245D01*
X15120Y6246D01*
X15117Y6248D01*
X15114Y6248D01*
X15112Y6249D01*
X15110Y6249D01*
D02*
G37*
G36*
X11110D02*
X11108D01*
X11105Y6249D01*
X11101Y6248D01*
X11098Y6247D01*
X11096Y6246D01*
X11094Y6245D01*
X11092Y6244D01*
X11091Y6243D01*
X11091Y6243D01*
X11088Y6240D01*
X11086Y6236D01*
X11084Y6232D01*
X11082Y6228D01*
X11080Y6223D01*
X11079Y6220D01*
X11079Y6218D01*
X11078Y6218D01*
Y6217D01*
X11077Y6213D01*
X11077Y6209D01*
X11076Y6203D01*
X11075Y6198D01*
X11074Y6187D01*
X11074Y6175D01*
X11073Y6170D01*
Y6164D01*
X11073Y6160D01*
Y6156D01*
Y6152D01*
Y6149D01*
Y6148D01*
Y6147D01*
Y6138D01*
X11073Y6129D01*
Y6121D01*
X11074Y6114D01*
X11074Y6108D01*
X11075Y6102D01*
X11075Y6097D01*
X11076Y6092D01*
X11076Y6088D01*
X11077Y6084D01*
X11077Y6082D01*
X11078Y6079D01*
X11078Y6077D01*
Y6076D01*
X11079Y6075D01*
Y6075D01*
X11080Y6069D01*
X11082Y6064D01*
X11085Y6060D01*
X11086Y6057D01*
X11088Y6055D01*
X11090Y6053D01*
X11090Y6052D01*
X11091Y6052D01*
X11094Y6050D01*
X11097Y6048D01*
X11100Y6047D01*
X11102Y6047D01*
X11105Y6046D01*
X11107Y6046D01*
X11108D01*
X11112Y6046D01*
X11115Y6047D01*
X11118Y6048D01*
X11121Y6049D01*
X11123Y6050D01*
X11124Y6051D01*
X11125Y6052D01*
X11126Y6052D01*
X11128Y6055D01*
X11131Y6059D01*
X11133Y6063D01*
X11135Y6067D01*
X11136Y6071D01*
X11137Y6074D01*
X11138Y6076D01*
X11138Y6077D01*
X11139Y6081D01*
X11140Y6086D01*
X11141Y6091D01*
X11141Y6096D01*
X11142Y6108D01*
X11142Y6119D01*
X11143Y6125D01*
Y6130D01*
X11143Y6135D01*
Y6139D01*
Y6142D01*
Y6145D01*
Y6147D01*
Y6147D01*
Y6156D01*
X11143Y6165D01*
Y6173D01*
X11142Y6180D01*
X11142Y6186D01*
X11142Y6193D01*
X11141Y6198D01*
X11140Y6203D01*
X11140Y6207D01*
X11139Y6210D01*
X11139Y6213D01*
X11139Y6215D01*
X11138Y6217D01*
Y6219D01*
X11138Y6219D01*
Y6220D01*
X11136Y6225D01*
X11134Y6230D01*
X11132Y6234D01*
X11130Y6238D01*
X11129Y6240D01*
X11127Y6241D01*
X11127Y6242D01*
X11126Y6243D01*
X11123Y6245D01*
X11120Y6246D01*
X11117Y6248D01*
X11114Y6248D01*
X11112Y6249D01*
X11110Y6249D01*
D02*
G37*
G36*
X7110D02*
X7108D01*
X7104Y6249D01*
X7101Y6248D01*
X7098Y6247D01*
X7096Y6246D01*
X7094Y6245D01*
X7092Y6244D01*
X7091Y6243D01*
X7091Y6243D01*
X7088Y6240D01*
X7086Y6236D01*
X7084Y6232D01*
X7082Y6228D01*
X7080Y6223D01*
X7079Y6220D01*
X7079Y6218D01*
X7078Y6218D01*
Y6217D01*
X7077Y6213D01*
X7077Y6209D01*
X7076Y6203D01*
X7075Y6198D01*
X7074Y6187D01*
X7074Y6175D01*
X7073Y6170D01*
Y6164D01*
X7073Y6160D01*
Y6156D01*
Y6152D01*
Y6149D01*
Y6148D01*
Y6147D01*
Y6138D01*
X7073Y6129D01*
Y6121D01*
X7074Y6114D01*
X7074Y6108D01*
X7075Y6102D01*
X7075Y6097D01*
X7076Y6092D01*
X7076Y6088D01*
X7077Y6084D01*
X7077Y6082D01*
X7078Y6079D01*
X7078Y6077D01*
Y6076D01*
X7079Y6075D01*
Y6075D01*
X7080Y6069D01*
X7082Y6064D01*
X7085Y6060D01*
X7086Y6057D01*
X7088Y6055D01*
X7090Y6053D01*
X7090Y6052D01*
X7091Y6052D01*
X7094Y6050D01*
X7097Y6048D01*
X7100Y6047D01*
X7102Y6047D01*
X7104Y6046D01*
X7107Y6046D01*
X7108D01*
X7112Y6046D01*
X7115Y6047D01*
X7118Y6048D01*
X7121Y6049D01*
X7123Y6050D01*
X7124Y6051D01*
X7125Y6052D01*
X7126Y6052D01*
X7128Y6055D01*
X7131Y6059D01*
X7133Y6063D01*
X7135Y6067D01*
X7136Y6071D01*
X7137Y6074D01*
X7138Y6076D01*
X7138Y6077D01*
X7139Y6081D01*
X7140Y6086D01*
X7141Y6091D01*
X7141Y6096D01*
X7142Y6108D01*
X7142Y6119D01*
X7143Y6125D01*
Y6130D01*
X7143Y6135D01*
Y6139D01*
Y6142D01*
Y6145D01*
Y6147D01*
Y6147D01*
Y6156D01*
X7143Y6165D01*
Y6173D01*
X7142Y6180D01*
X7142Y6186D01*
X7142Y6193D01*
X7141Y6198D01*
X7140Y6203D01*
X7140Y6207D01*
X7139Y6210D01*
X7139Y6213D01*
X7139Y6215D01*
X7138Y6217D01*
Y6219D01*
X7138Y6219D01*
Y6220D01*
X7136Y6225D01*
X7134Y6230D01*
X7132Y6234D01*
X7130Y6238D01*
X7129Y6240D01*
X7127Y6241D01*
X7127Y6242D01*
X7126Y6243D01*
X7123Y6245D01*
X7120Y6246D01*
X7117Y6248D01*
X7114Y6248D01*
X7112Y6249D01*
X7110Y6249D01*
D02*
G37*
%LPD*%
D10*
X9191Y16230D02*
G03*
X9251Y16170I60J0D01*
G01*
Y17030D02*
G03*
X9191Y16970I0J-60D01*
G01*
X11149Y16170D02*
G03*
X11209Y16230I0J60D01*
G01*
Y16970D02*
G03*
X11149Y17030I-60J0D01*
G01*
X3091Y17180D02*
G03*
X3151Y17120I60J0D01*
G01*
Y17980D02*
G03*
X3091Y17920I0J-60D01*
G01*
X5049Y17120D02*
G03*
X5109Y17180I0J60D01*
G01*
Y17920D02*
G03*
X5049Y17980I-60J0D01*
G01*
X7309Y16970D02*
G03*
X7249Y17030I-60J0D01*
G01*
Y16170D02*
G03*
X7309Y16230I0J60D01*
G01*
X5351Y17030D02*
G03*
X5291Y16970I0J-60D01*
G01*
Y16230D02*
G03*
X5351Y16170I60J0D01*
G01*
X3091Y16230D02*
G03*
X3151Y16170I60J0D01*
G01*
Y17030D02*
G03*
X3091Y16970I0J-60D01*
G01*
X5049Y16170D02*
G03*
X5109Y16230I0J60D01*
G01*
Y16970D02*
G03*
X5049Y17030I-60J0D01*
G01*
X3091Y15280D02*
G03*
X3151Y15220I60J0D01*
G01*
Y16080D02*
G03*
X3091Y16020I0J-60D01*
G01*
X5049Y15220D02*
G03*
X5109Y15280I0J60D01*
G01*
Y16020D02*
G03*
X5049Y16080I-60J0D01*
G01*
X7309Y17920D02*
G03*
X7249Y17980I-60J0D01*
G01*
Y17120D02*
G03*
X7309Y17180I0J60D01*
G01*
X5351Y17980D02*
G03*
X5291Y17920I0J-60D01*
G01*
Y17180D02*
G03*
X5351Y17120I60J0D01*
G01*
X5291Y15280D02*
G03*
X5351Y15220I60J0D01*
G01*
Y16080D02*
G03*
X5291Y16020I0J-60D01*
G01*
X7249Y15220D02*
G03*
X7309Y15280I0J60D01*
G01*
Y16020D02*
G03*
X7249Y16080I-60J0D01*
G01*
X5291Y14330D02*
G03*
X5351Y14270I60J0D01*
G01*
Y15130D02*
G03*
X5291Y15070I0J-60D01*
G01*
X7249Y14270D02*
G03*
X7309Y14330I0J60D01*
G01*
Y15070D02*
G03*
X7249Y15130I-60J0D01*
G01*
X15341Y14330D02*
G03*
X15401Y14270I60J0D01*
G01*
Y15130D02*
G03*
X15341Y15070I0J-60D01*
G01*
X17299Y14270D02*
G03*
X17359Y14330I0J60D01*
G01*
Y15070D02*
G03*
X17299Y15130I-60J0D01*
G01*
X15341Y15280D02*
G03*
X15401Y15220I60J0D01*
G01*
Y16080D02*
G03*
X15341Y16020I0J-60D01*
G01*
X17299Y15220D02*
G03*
X17359Y15280I0J60D01*
G01*
Y16020D02*
G03*
X17299Y16080I-60J0D01*
G01*
X15159Y15070D02*
G03*
X15099Y15130I-60J0D01*
G01*
Y14270D02*
G03*
X15159Y14330I0J60D01*
G01*
X13201Y15130D02*
G03*
X13141Y15070I0J-60D01*
G01*
Y14330D02*
G03*
X13201Y14270I60J0D01*
G01*
X15159Y16020D02*
G03*
X15099Y16080I-60J0D01*
G01*
Y15220D02*
G03*
X15159Y15280I0J60D01*
G01*
X13201Y16080D02*
G03*
X13141Y16020I0J-60D01*
G01*
Y15280D02*
G03*
X13201Y15220I60J0D01*
G01*
X15159Y16970D02*
G03*
X15099Y17030I-60J0D01*
G01*
Y16170D02*
G03*
X15159Y16230I0J60D01*
G01*
X13201Y17030D02*
G03*
X13141Y16970I0J-60D01*
G01*
Y16230D02*
G03*
X13201Y16170I60J0D01*
G01*
X15159Y17920D02*
G03*
X15099Y17980I-60J0D01*
G01*
Y17120D02*
G03*
X15159Y17180I0J60D01*
G01*
X13201Y17980D02*
G03*
X13141Y17920I0J-60D01*
G01*
Y17180D02*
G03*
X13201Y17120I60J0D01*
G01*
X15341Y16230D02*
G03*
X15401Y16170I60J0D01*
G01*
Y17030D02*
G03*
X15341Y16970I0J-60D01*
G01*
X17299Y16170D02*
G03*
X17359Y16230I0J60D01*
G01*
Y16970D02*
G03*
X17299Y17030I-60J0D01*
G01*
X15341Y17180D02*
G03*
X15401Y17120I60J0D01*
G01*
Y17980D02*
G03*
X15341Y17920I0J-60D01*
G01*
X17299Y17120D02*
G03*
X17359Y17180I0J60D01*
G01*
Y17920D02*
G03*
X17299Y17980I-60J0D01*
G01*
X5099Y15070D02*
G03*
X5039Y15130I-60J0D01*
G01*
Y14270D02*
G03*
X5099Y14330I0J60D01*
G01*
X3140Y15130D02*
G03*
X3080Y15070I0J-60D01*
G01*
Y14330D02*
G03*
X3140Y14270I60J0D01*
G01*
X9191Y16230D02*
Y16970D01*
X9251Y17030D02*
X9835D01*
X9251Y16170D02*
X9835D01*
X11209Y16230D02*
Y16970D01*
X10565Y17030D02*
X11149D01*
X10565Y16170D02*
X11149D01*
X3091Y17180D02*
Y17920D01*
X3151Y17980D02*
X3735D01*
X3151Y17120D02*
X3735D01*
X5109Y17180D02*
Y17920D01*
X4465Y17980D02*
X5049D01*
X4465Y17120D02*
X5049D01*
X7309Y16230D02*
Y16970D01*
X6665Y16170D02*
X7249D01*
X6665Y17030D02*
X7249D01*
X5291Y16230D02*
Y16970D01*
X5351Y16170D02*
X5935D01*
X5351Y17030D02*
X5935D01*
X3091Y16230D02*
Y16970D01*
X3151Y17030D02*
X3735D01*
X3151Y16170D02*
X3735D01*
X5109Y16230D02*
Y16970D01*
X4465Y17030D02*
X5049D01*
X4465Y16170D02*
X5049D01*
X3091Y15280D02*
Y16020D01*
X3151Y16080D02*
X3735D01*
X3151Y15220D02*
X3735D01*
X5109Y15280D02*
Y16020D01*
X4465Y16080D02*
X5049D01*
X4465Y15220D02*
X5049D01*
X7309Y17180D02*
Y17920D01*
X6665Y17120D02*
X7249D01*
X6665Y17980D02*
X7249D01*
X5291Y17180D02*
Y17920D01*
X5351Y17120D02*
X5935D01*
X5351Y17980D02*
X5935D01*
X5351Y16080D02*
X5935D01*
X5351Y15220D02*
X5935D01*
X5291Y15280D02*
Y16020D01*
X6665Y16080D02*
X7249D01*
X6665Y15220D02*
X7249D01*
X7309Y15280D02*
Y16020D01*
X5351Y15130D02*
X5935D01*
X5351Y14270D02*
X5935D01*
X5291Y14330D02*
Y15070D01*
X6665Y15130D02*
X7249D01*
X6665Y14270D02*
X7249D01*
X7309Y14330D02*
Y15070D01*
X15341Y14330D02*
Y15070D01*
X15401Y15130D02*
X15985D01*
X15401Y14270D02*
X15985D01*
X17359Y14330D02*
Y15070D01*
X16715Y15130D02*
X17299D01*
X16715Y14270D02*
X17299D01*
X15341Y15280D02*
Y16020D01*
X15401Y16080D02*
X15985D01*
X15401Y15220D02*
X15985D01*
X17359Y15280D02*
Y16020D01*
X16715Y16080D02*
X17299D01*
X16715Y15220D02*
X17299D01*
X15159Y14330D02*
Y15070D01*
X14515Y14270D02*
X15099D01*
X14515Y15130D02*
X15099D01*
X13141Y14330D02*
Y15070D01*
X13201Y14270D02*
X13785D01*
X13201Y15130D02*
X13785D01*
X15159Y15280D02*
Y16020D01*
X14515Y15220D02*
X15099D01*
X14515Y16080D02*
X15099D01*
X13141Y15280D02*
Y16020D01*
X13201Y15220D02*
X13785D01*
X13201Y16080D02*
X13785D01*
X15159Y16230D02*
Y16970D01*
X14515Y16170D02*
X15099D01*
X14515Y17030D02*
X15099D01*
X13141Y16230D02*
Y16970D01*
X13201Y16170D02*
X13785D01*
X13201Y17030D02*
X13785D01*
X15159Y17180D02*
Y17920D01*
X14515Y17120D02*
X15099D01*
X14515Y17980D02*
X15099D01*
X13141Y17180D02*
Y17920D01*
X13201Y17120D02*
X13785D01*
X13201Y17980D02*
X13785D01*
X15341Y16230D02*
Y16970D01*
X15401Y17030D02*
X15985D01*
X15401Y16170D02*
X15985D01*
X17359Y16230D02*
Y16970D01*
X16715Y17030D02*
X17299D01*
X16715Y16170D02*
X17299D01*
X15341Y17180D02*
Y17920D01*
X15401Y17980D02*
X15985D01*
X15401Y17120D02*
X15985D01*
X17359Y17180D02*
Y17920D01*
X16715Y17980D02*
X17299D01*
X16715Y17120D02*
X17299D01*
X20110Y7605D02*
Y7982D01*
X19590Y7605D02*
X20110D01*
X19590D02*
Y7982D01*
X20110Y8318D02*
Y8695D01*
X19590D02*
X20110D01*
X19590Y8318D02*
Y8695D01*
X18812Y8110D02*
X19189D01*
Y7590D02*
Y8110D01*
X18812Y7590D02*
X19189D01*
X18098Y8110D02*
X18476D01*
X18098Y7590D02*
Y8110D01*
Y7590D02*
X18476D01*
X17955Y7607D02*
Y8113D01*
X17233Y7607D02*
X17955D01*
X17233D02*
Y8113D01*
X17955Y8487D02*
Y8993D01*
X17233D02*
X17955D01*
X17233Y8487D02*
Y8993D01*
X4454Y14270D02*
X5039D01*
X4454Y15130D02*
X5039D01*
X5099Y14330D02*
Y15070D01*
X3140Y14270D02*
X3725D01*
X3140Y15130D02*
X3725D01*
X3080Y14330D02*
Y15070D01*
X12888Y11355D02*
Y11732D01*
X12368Y11355D02*
X12888D01*
X12368D02*
Y11732D01*
X12888Y12068D02*
Y12445D01*
X12368D02*
X12888D01*
X12368Y12068D02*
Y12445D01*
X8096Y11355D02*
Y11732D01*
X7576Y11355D02*
X8096D01*
X7576D02*
Y11732D01*
X8096Y12068D02*
Y12445D01*
X7576D02*
X8096D01*
X7576Y12068D02*
Y12445D01*
X3254Y11355D02*
Y11732D01*
X2734Y11355D02*
X3254D01*
X2734D02*
Y11732D01*
X3254Y12068D02*
Y12445D01*
X2734D02*
X3254D01*
X2734Y12068D02*
Y12445D01*
D12*
X3836Y12681D02*
G03*
X3836Y12681I-39J0D01*
G01*
X13386D02*
G03*
X13386Y12681I-39J0D01*
G01*
X8636D02*
G03*
X8636Y12681I-39J0D01*
G01*
D14*
X13558Y18195D02*
X14758D01*
X13558Y19395D02*
X14758D01*
Y18195D02*
Y19395D01*
X13558Y18195D02*
Y19395D01*
X5708Y18201D02*
X6908D01*
X5708Y19401D02*
X6908D01*
Y18201D02*
Y19401D01*
X5708Y18201D02*
Y19401D01*
D16*
X7399Y10484D02*
Y11869D01*
X3501Y10484D02*
Y11869D01*
X7399Y7886D02*
Y8776D01*
X3501Y7886D02*
Y8776D01*
X16949Y10484D02*
Y11869D01*
X13051Y10484D02*
Y11869D01*
X16949Y7886D02*
Y8776D01*
X13051Y7886D02*
Y8776D01*
X8301Y7886D02*
Y8776D01*
X12199Y7886D02*
Y8776D01*
X8301Y10484D02*
Y11869D01*
X12199Y10484D02*
Y11869D01*
D17*
X6956Y3906D02*
G03*
X6556Y3906I-200J0D01*
G01*
X18084Y8540D02*
G03*
X18206Y8418I122J0D01*
G01*
Y8977D02*
G03*
X18084Y8855I0J-122D01*
G01*
X19063Y8421D02*
G03*
X19185Y8543I0J122D01*
G01*
Y8858D02*
G03*
X19063Y8980I-122J0D01*
G01*
X10996Y3906D02*
G03*
X10596Y3906I-200J0D01*
G01*
X14266Y5411D02*
G03*
X14388Y5289I122J0D01*
G01*
Y5848D02*
G03*
X14266Y5726I0J-122D01*
G01*
X15245Y5291D02*
G03*
X15367Y5413I0J122D01*
G01*
Y5728D02*
G03*
X15245Y5850I-122J0D01*
G01*
X10246Y5411D02*
G03*
X10368Y5289I122J0D01*
G01*
Y5848D02*
G03*
X10246Y5726I0J-122D01*
G01*
X11224Y5291D02*
G03*
X11346Y5413I0J122D01*
G01*
Y5728D02*
G03*
X11224Y5850I-122J0D01*
G01*
X6206Y5411D02*
G03*
X6328Y5289I122J0D01*
G01*
Y5848D02*
G03*
X6206Y5726I0J-122D01*
G01*
X7185Y5291D02*
G03*
X7307Y5413I0J122D01*
G01*
Y5728D02*
G03*
X7185Y5850I-122J0D01*
G01*
X15017Y3906D02*
G03*
X14617Y3906I-200J0D01*
G01*
X5890Y5087D02*
X7622D01*
Y3906D02*
Y3974D01*
Y5020D02*
Y5087D01*
X5890Y3906D02*
Y3974D01*
Y5020D02*
Y5087D01*
X6956Y3906D02*
X7622D01*
X5890D02*
X6556D01*
X19185Y8543D02*
Y8858D01*
X18748Y8421D02*
X19063D01*
X18748Y8980D02*
X19063D01*
X18206Y8418D02*
X18521D01*
X18084Y8540D02*
Y8855D01*
X18206Y8977D02*
X18521D01*
X9930Y3906D02*
X10596D01*
X10996D02*
X11662D01*
X9930Y5020D02*
Y5087D01*
Y3906D02*
Y3974D01*
X11662Y5020D02*
Y5087D01*
Y3906D02*
Y3974D01*
X9930Y5087D02*
X11662D01*
X15367Y5413D02*
Y5728D01*
X14930Y5291D02*
X15245D01*
X14930Y5850D02*
X15245D01*
X14388Y5289D02*
X14703D01*
X14266Y5411D02*
Y5726D01*
X14388Y5848D02*
X14703D01*
X11346Y5413D02*
Y5728D01*
X10909Y5291D02*
X11224D01*
X10909Y5850D02*
X11224D01*
X10368Y5289D02*
X10683D01*
X10246Y5411D02*
Y5726D01*
X10368Y5848D02*
X10683D01*
X7307Y5413D02*
Y5728D01*
X6870Y5291D02*
X7185D01*
X6870Y5850D02*
X7185D01*
X6328Y5289D02*
X6643D01*
X6206Y5411D02*
Y5726D01*
X6328Y5848D02*
X6643D01*
X13950Y3906D02*
X14617D01*
X15017D02*
X15683D01*
X13950Y5020D02*
Y5087D01*
Y3906D02*
Y3974D01*
X15683Y5020D02*
Y5087D01*
Y3906D02*
Y3974D01*
X13950Y5087D02*
X15683D01*
X20079Y0D02*
G03*
X20472Y394I0J394D01*
G01*
Y19291D02*
G03*
X20079Y19685I-394J0D01*
G01*
X394D02*
G03*
X0Y19291I0J-394D01*
G01*
Y394D02*
G03*
X394Y0I394J0D01*
G01*
Y19685D02*
X20079D01*
X394Y0D02*
X20079D01*
X0Y394D02*
Y19291D01*
X20472Y394D02*
Y19291D01*
D56*
X5663Y3874D02*
G03*
X5663Y3874I-59J0D01*
G01*
X9703D02*
G03*
X9703Y3874I-59J0D01*
G01*
X13723D02*
G03*
X13723Y3874I-59J0D01*
G01*
M02*
