G04*
G04 #@! TF.GenerationSoftware,Altium Limited,Altium Designer,22.0.2 (36)*
G04*
G04 Layer_Color=1930808*
%FSLAX24Y24*%
%MOIN*%
G70*
G04*
G04 #@! TF.SameCoordinates,5AD8CBCB-7B86-44EA-BE16-98DFC8B2639C*
G04*
G04*
G04 #@! TF.FilePolarity,Positive*
G04*
G01*
G75*
%ADD17C,0.0100*%
%ADD57C,0.0039*%
%ADD58C,0.0020*%
%ADD59C,0.0020*%
G36*
X16980Y17235D02*
X16783D01*
Y17865D01*
X16980D01*
Y17235D01*
D02*
G37*
G36*
X13717D02*
X13520D01*
Y17865D01*
X13717D01*
Y17235D01*
D02*
G37*
G36*
X5867D02*
X5659D01*
Y17865D01*
X5867D01*
Y17235D01*
D02*
G37*
G36*
X4730D02*
X4533D01*
Y17865D01*
X4730D01*
Y17235D01*
D02*
G37*
G36*
X3494Y17875D02*
Y17865D01*
Y17865D01*
X3667D01*
Y17235D01*
X3470D01*
Y17841D01*
X3460D01*
X3446Y17855D01*
Y17865D01*
Y17875D01*
X3460Y17889D01*
X3480D01*
X3494Y17875D01*
D02*
G37*
G36*
X15744D02*
Y17865D01*
Y17865D01*
X15917D01*
Y17235D01*
X15744D01*
Y17235D01*
Y17225D01*
X15730Y17211D01*
X15710D01*
X15696Y17225D01*
Y17235D01*
Y17245D01*
X15710Y17259D01*
X15720D01*
Y17841D01*
X15710D01*
X15696Y17855D01*
Y17865D01*
Y17875D01*
X15710Y17889D01*
X15730D01*
X15744Y17875D01*
D02*
G37*
G36*
X14804D02*
Y17865D01*
Y17855D01*
X14790Y17841D01*
X14780D01*
Y17259D01*
X14790D01*
X14804Y17245D01*
Y17235D01*
Y17225D01*
X14790Y17211D01*
X14770D01*
X14756Y17225D01*
Y17235D01*
Y17235D01*
X14583D01*
Y17865D01*
X14756D01*
Y17865D01*
Y17875D01*
X14770Y17889D01*
X14790D01*
X14804Y17875D01*
D02*
G37*
G36*
X6943D02*
Y17865D01*
Y17855D01*
X6930Y17842D01*
Y17259D01*
X6940D01*
X6954Y17245D01*
Y17235D01*
Y17225D01*
X6940Y17211D01*
X6920D01*
X6906Y17225D01*
Y17235D01*
Y17235D01*
X6722D01*
Y17865D01*
X6896D01*
Y17865D01*
Y17875D01*
X6909Y17889D01*
X6929D01*
X6943Y17875D01*
D02*
G37*
G36*
X16980Y16285D02*
X16783D01*
Y16915D01*
X16980D01*
Y16285D01*
D02*
G37*
G36*
X13717D02*
X13520D01*
Y16915D01*
X13717D01*
Y16285D01*
D02*
G37*
G36*
X10830D02*
X10633D01*
Y16915D01*
X10830D01*
Y16285D01*
D02*
G37*
G36*
X9594Y16925D02*
Y16915D01*
Y16915D01*
X9767D01*
Y16285D01*
X9570D01*
Y16891D01*
X9560D01*
X9546Y16905D01*
Y16915D01*
Y16925D01*
X9560Y16939D01*
X9580D01*
X9594Y16925D01*
D02*
G37*
G36*
X5867Y16285D02*
X5659D01*
Y16915D01*
X5867D01*
Y16285D01*
D02*
G37*
G36*
X4730D02*
X4533D01*
Y16915D01*
X4730D01*
Y16285D01*
D02*
G37*
G36*
X3494Y16925D02*
Y16915D01*
Y16915D01*
X3667D01*
Y16285D01*
X3470D01*
Y16891D01*
X3460D01*
X3446Y16905D01*
Y16915D01*
Y16925D01*
X3460Y16939D01*
X3480D01*
X3494Y16925D01*
D02*
G37*
G36*
X15744D02*
Y16915D01*
Y16915D01*
X15917D01*
Y16285D01*
X15744D01*
Y16285D01*
Y16275D01*
X15730Y16261D01*
X15710D01*
X15696Y16275D01*
Y16285D01*
Y16295D01*
X15710Y16309D01*
X15720D01*
Y16891D01*
X15710D01*
X15696Y16905D01*
Y16915D01*
Y16925D01*
X15710Y16939D01*
X15730D01*
X15744Y16925D01*
D02*
G37*
G36*
X14804D02*
Y16915D01*
Y16905D01*
X14790Y16891D01*
X14780D01*
Y16309D01*
X14790D01*
X14804Y16295D01*
Y16285D01*
Y16275D01*
X14790Y16261D01*
X14770D01*
X14756Y16275D01*
Y16285D01*
Y16285D01*
X14583D01*
Y16915D01*
X14756D01*
Y16915D01*
Y16925D01*
X14770Y16939D01*
X14790D01*
X14804Y16925D01*
D02*
G37*
G36*
X6943D02*
Y16915D01*
Y16905D01*
X6930Y16892D01*
Y16309D01*
X6940D01*
X6954Y16295D01*
Y16285D01*
Y16275D01*
X6940Y16261D01*
X6920D01*
X6906Y16275D01*
Y16285D01*
Y16285D01*
X6722D01*
Y16915D01*
X6896D01*
Y16915D01*
Y16925D01*
X6909Y16939D01*
X6929D01*
X6943Y16925D01*
D02*
G37*
G36*
X16980Y15335D02*
X16783D01*
Y15965D01*
X16980D01*
Y15335D01*
D02*
G37*
G36*
X13717D02*
X13520D01*
Y15965D01*
X13717D01*
Y15335D01*
D02*
G37*
G36*
X5867D02*
X5659D01*
Y15965D01*
X5867D01*
Y15335D01*
D02*
G37*
G36*
X4730D02*
X4526D01*
Y15965D01*
X4730D01*
Y15335D01*
D02*
G37*
G36*
X15744Y15975D02*
Y15965D01*
Y15965D01*
X15917D01*
Y15335D01*
X15744D01*
Y15335D01*
Y15325D01*
X15730Y15311D01*
X15710D01*
X15696Y15325D01*
Y15335D01*
Y15345D01*
X15710Y15359D01*
X15720D01*
Y15941D01*
X15710D01*
X15696Y15955D01*
Y15965D01*
Y15975D01*
X15710Y15989D01*
X15730D01*
X15744Y15975D01*
D02*
G37*
G36*
X14804D02*
Y15965D01*
Y15955D01*
X14790Y15941D01*
X14780D01*
Y15359D01*
X14790D01*
X14804Y15345D01*
Y15335D01*
Y15325D01*
X14790Y15311D01*
X14770D01*
X14756Y15325D01*
Y15335D01*
Y15335D01*
X14583D01*
Y15965D01*
X14756D01*
Y15965D01*
Y15975D01*
X14770Y15989D01*
X14790D01*
X14804Y15975D01*
D02*
G37*
G36*
X6943D02*
Y15965D01*
Y15955D01*
X6930Y15942D01*
Y15359D01*
X6940D01*
X6954Y15345D01*
Y15335D01*
Y15325D01*
X6940Y15311D01*
X6920D01*
X6906Y15325D01*
Y15335D01*
Y15335D01*
X6722D01*
Y15965D01*
X6896D01*
Y15965D01*
Y15975D01*
X6909Y15989D01*
X6929D01*
X6943Y15975D01*
D02*
G37*
G36*
X3494D02*
Y15965D01*
Y15965D01*
X3667D01*
Y15335D01*
X3487D01*
Y15335D01*
Y15325D01*
X3473Y15311D01*
X3454D01*
X3440Y15325D01*
Y15335D01*
Y15345D01*
X3454Y15359D01*
X3463D01*
Y15941D01*
X3460D01*
X3446Y15955D01*
Y15965D01*
Y15975D01*
X3460Y15989D01*
X3480D01*
X3494Y15975D01*
D02*
G37*
G36*
X16980Y14385D02*
X16783D01*
Y15015D01*
X16980D01*
Y14385D01*
D02*
G37*
G36*
X13717D02*
X13520D01*
Y15015D01*
X13717D01*
Y14385D01*
D02*
G37*
G36*
X5867D02*
X5659D01*
Y15015D01*
X5867D01*
Y14385D01*
D02*
G37*
G36*
X4719D02*
X4522D01*
Y15015D01*
X4719D01*
Y14385D01*
D02*
G37*
G36*
X15744Y15025D02*
Y15015D01*
Y15015D01*
X15917D01*
Y14385D01*
X15744D01*
Y14385D01*
Y14375D01*
X15730Y14361D01*
X15710D01*
X15696Y14375D01*
Y14385D01*
Y14395D01*
X15710Y14409D01*
X15720D01*
Y14991D01*
X15710D01*
X15696Y15005D01*
Y15015D01*
Y15025D01*
X15710Y15039D01*
X15730D01*
X15744Y15025D01*
D02*
G37*
G36*
X14804D02*
Y15015D01*
Y15005D01*
X14790Y14991D01*
X14780D01*
Y14409D01*
X14790D01*
X14804Y14395D01*
Y14385D01*
Y14375D01*
X14790Y14361D01*
X14770D01*
X14756Y14375D01*
Y14385D01*
Y14385D01*
X14583D01*
Y15015D01*
X14756D01*
Y15015D01*
Y15025D01*
X14770Y15039D01*
X14790D01*
X14804Y15025D01*
D02*
G37*
G36*
X6943D02*
Y15015D01*
Y15005D01*
X6930Y14992D01*
Y14409D01*
X6940D01*
X6954Y14395D01*
Y14385D01*
Y14375D01*
X6940Y14361D01*
X6920D01*
X6906Y14375D01*
Y14385D01*
Y14385D01*
X6722D01*
Y15015D01*
X6896D01*
Y15015D01*
Y15025D01*
X6909Y15039D01*
X6929D01*
X6943Y15025D01*
D02*
G37*
G36*
X3483D02*
Y15015D01*
Y15015D01*
X3656D01*
Y14385D01*
X3483D01*
Y14385D01*
Y14375D01*
X3469Y14361D01*
X3450D01*
X3436Y14375D01*
Y14385D01*
Y14395D01*
X3450Y14409D01*
X3459D01*
Y14991D01*
X3450D01*
X3436Y15005D01*
Y15015D01*
Y15025D01*
X3450Y15039D01*
X3469D01*
X3483Y15025D01*
D02*
G37*
G36*
X16980Y13435D02*
X16783D01*
Y14065D01*
X16980D01*
Y13435D01*
D02*
G37*
G36*
X14804Y14075D02*
Y14065D01*
Y14055D01*
X14790Y14041D01*
X14780D01*
Y13435D01*
X14583D01*
Y14065D01*
X14756D01*
Y14065D01*
Y14075D01*
X14770Y14089D01*
X14790D01*
X14804Y14075D01*
D02*
G37*
G36*
X13717Y13435D02*
X13520D01*
Y14065D01*
X13717D01*
Y13435D01*
D02*
G37*
G36*
X6943Y14075D02*
Y14065D01*
Y14055D01*
X6929Y14041D01*
X6919D01*
Y13435D01*
X6722D01*
Y14065D01*
X6896D01*
Y14065D01*
Y14075D01*
X6909Y14089D01*
X6929D01*
X6943Y14075D01*
D02*
G37*
G36*
X5856Y13435D02*
X5659D01*
Y14065D01*
X5856D01*
Y13435D01*
D02*
G37*
G36*
X4719D02*
X4522D01*
Y14065D01*
X4719D01*
Y13435D01*
D02*
G37*
G36*
X15917D02*
X15744D01*
Y13435D01*
Y13425D01*
X15730Y13411D01*
X15710D01*
X15696Y13425D01*
Y13435D01*
Y13445D01*
X15710Y13459D01*
X15720D01*
Y14065D01*
X15917D01*
Y13435D01*
D02*
G37*
G36*
X3656D02*
X3483D01*
Y13435D01*
Y13425D01*
X3469Y13411D01*
X3450D01*
X3436Y13425D01*
Y13435D01*
Y13445D01*
X3450Y13459D01*
X3459D01*
Y14065D01*
X3656D01*
Y13435D01*
D02*
G37*
G36*
X12785Y12097D02*
X12470D01*
Y12215D01*
X12785D01*
Y12097D01*
D02*
G37*
G36*
X7993D02*
X7678D01*
Y12215D01*
X7993D01*
Y12097D01*
D02*
G37*
G36*
X3151D02*
X2836D01*
Y12215D01*
X3151D01*
Y12097D01*
D02*
G37*
G36*
X12785Y11585D02*
X12494D01*
Y11575D01*
X12480Y11561D01*
X12461D01*
X12447Y11575D01*
Y11595D01*
X12461Y11609D01*
X12470D01*
Y11703D01*
X12785D01*
Y11585D01*
D02*
G37*
G36*
X7993D02*
X7702D01*
Y11575D01*
X7688Y11561D01*
X7669D01*
X7655Y11575D01*
Y11595D01*
X7669Y11609D01*
X7678D01*
Y11703D01*
X7993D01*
Y11585D01*
D02*
G37*
G36*
X3151D02*
X2860D01*
Y11575D01*
X2846Y11561D01*
X2826D01*
X2813Y11575D01*
Y11595D01*
X2826Y11609D01*
X2836D01*
Y11703D01*
X3151D01*
Y11585D01*
D02*
G37*
G36*
X18953Y8543D02*
X18834D01*
Y8857D01*
X18953D01*
Y8543D01*
D02*
G37*
G36*
X18346Y8867D02*
Y8857D01*
Y8857D01*
X18441D01*
Y8543D01*
X18323D01*
Y8834D01*
X18313D01*
X18299Y8848D01*
Y8857D01*
Y8867D01*
X18313Y8881D01*
X18332D01*
X18346Y8867D01*
D02*
G37*
G36*
X17868Y8703D02*
Y8684D01*
X17854Y8670D01*
X17845D01*
Y8536D01*
X17343D01*
Y8694D01*
X17821D01*
Y8703D01*
X17835Y8717D01*
X17854D01*
X17868Y8703D01*
D02*
G37*
G36*
X20031Y8475D02*
Y8455D01*
X20017Y8441D01*
X20007D01*
Y8347D01*
X19693D01*
Y8465D01*
X19984D01*
Y8475D01*
X19998Y8489D01*
X20017D01*
X20031Y8475D01*
D02*
G37*
G36*
X12785Y7938D02*
X12470D01*
Y8056D01*
X12785D01*
Y7938D01*
D02*
G37*
G36*
X7993D02*
X7678D01*
Y8056D01*
X7993D01*
Y7938D01*
D02*
G37*
G36*
X3151D02*
X2836D01*
Y8056D01*
X3151D01*
Y7938D01*
D02*
G37*
G36*
X17845Y7906D02*
X17343D01*
Y8064D01*
X17845D01*
Y7906D01*
D02*
G37*
G36*
X20007Y7835D02*
X19693D01*
Y7953D01*
X20007D01*
Y7835D01*
D02*
G37*
G36*
X18447Y7693D02*
X18329D01*
Y8007D01*
X18447D01*
Y7693D01*
D02*
G37*
G36*
X18959Y7716D02*
X18968D01*
X18982Y7702D01*
Y7692D01*
Y7683D01*
X18968Y7669D01*
X18949D01*
X18935Y7683D01*
Y7692D01*
Y7693D01*
X18841D01*
Y8007D01*
X18959D01*
Y7716D01*
D02*
G37*
G36*
X12785Y7450D02*
X12795D01*
X12809Y7436D01*
Y7416D01*
X12795Y7402D01*
X12776D01*
X12762Y7416D01*
Y7426D01*
X12470D01*
Y7544D01*
X12785D01*
Y7450D01*
D02*
G37*
G36*
X7993D02*
X8003D01*
X8017Y7436D01*
Y7416D01*
X8003Y7402D01*
X7984D01*
X7970Y7416D01*
Y7426D01*
X7678D01*
Y7544D01*
X7993D01*
Y7450D01*
D02*
G37*
G36*
X3151D02*
X3161D01*
X3175Y7436D01*
Y7416D01*
X3161Y7402D01*
X3141D01*
X3128Y7416D01*
Y7426D01*
X2836D01*
Y7544D01*
X3151D01*
Y7450D01*
D02*
G37*
G36*
X13236Y6492D02*
X13250Y6478D01*
X13250Y6469D01*
X15274D01*
Y5386D01*
X13226D01*
Y6445D01*
X13217Y6445D01*
X13203Y6459D01*
X13203Y6469D01*
X13203Y6478D01*
X13217Y6492D01*
X13236Y6492D01*
D02*
G37*
G36*
X9236D02*
X9250Y6478D01*
X9250Y6469D01*
X11274D01*
Y5386D01*
X9226D01*
Y6445D01*
X9217Y6445D01*
X9203Y6459D01*
X9203Y6469D01*
X9203Y6478D01*
X9217Y6492D01*
X9236Y6492D01*
D02*
G37*
G36*
X5186D02*
X5200Y6478D01*
X5200Y6469D01*
X7224D01*
Y5386D01*
X5176D01*
Y6445D01*
X5167Y6445D01*
X5153Y6459D01*
X5153Y6469D01*
X5153Y6478D01*
X5167Y6492D01*
X5186Y6492D01*
D02*
G37*
G36*
X16076Y4837D02*
X15679D01*
Y4924D01*
X16076D01*
Y4837D01*
D02*
G37*
G36*
X13954D02*
X13557D01*
Y4924D01*
X13954D01*
Y4837D01*
D02*
G37*
G36*
X12056D02*
X11658D01*
Y4924D01*
X12056D01*
Y4837D01*
D02*
G37*
G36*
X9934D02*
X9536D01*
Y4924D01*
X9934D01*
Y4837D01*
D02*
G37*
G36*
X8016D02*
X7618D01*
Y4924D01*
X8016D01*
Y4837D01*
D02*
G37*
G36*
X5894D02*
X5496D01*
Y4924D01*
X5894D01*
Y4837D01*
D02*
G37*
G36*
X16076Y4581D02*
X15679D01*
Y4668D01*
X16076D01*
Y4581D01*
D02*
G37*
G36*
X13954D02*
X13557D01*
Y4668D01*
X13954D01*
Y4581D01*
D02*
G37*
G36*
X12056D02*
X11658D01*
Y4668D01*
X12056D01*
Y4581D01*
D02*
G37*
G36*
X9934D02*
X9536D01*
Y4668D01*
X9934D01*
Y4581D01*
D02*
G37*
G36*
X8016D02*
X7618D01*
Y4668D01*
X8016D01*
Y4581D01*
D02*
G37*
G36*
X5894D02*
X5496D01*
Y4668D01*
X5894D01*
Y4581D01*
D02*
G37*
G36*
X16076Y4326D02*
X15679D01*
Y4412D01*
X16076D01*
Y4326D01*
D02*
G37*
G36*
X13954D02*
X13557D01*
Y4412D01*
X13954D01*
Y4326D01*
D02*
G37*
G36*
X12056D02*
X11658D01*
Y4412D01*
X12056D01*
Y4326D01*
D02*
G37*
G36*
X9934D02*
X9536D01*
Y4412D01*
X9934D01*
Y4326D01*
D02*
G37*
G36*
X8016D02*
X7618D01*
Y4412D01*
X8016D01*
Y4326D01*
D02*
G37*
G36*
X5894D02*
X5496D01*
Y4412D01*
X5894D01*
Y4326D01*
D02*
G37*
G36*
X16076Y4070D02*
X15679D01*
Y4156D01*
X16076D01*
Y4070D01*
D02*
G37*
G36*
X13954D02*
X13557D01*
Y4156D01*
X13954D01*
Y4070D01*
D02*
G37*
G36*
X12056D02*
X11658D01*
Y4156D01*
X12056D01*
Y4070D01*
D02*
G37*
G36*
X9934D02*
X9536D01*
Y4156D01*
X9934D01*
Y4070D01*
D02*
G37*
G36*
X8016D02*
X7618D01*
Y4156D01*
X8016D01*
Y4070D01*
D02*
G37*
G36*
X5894D02*
X5496D01*
Y4156D01*
X5894D01*
Y4070D01*
D02*
G37*
G36*
X13580Y3916D02*
Y3896D01*
X13567Y3883D01*
X13547D01*
X13533Y3896D01*
Y3916D01*
X13547Y3930D01*
X13567D01*
X13580Y3916D01*
D02*
G37*
G36*
X9560D02*
Y3896D01*
X9546Y3883D01*
X9526D01*
X9513Y3896D01*
Y3916D01*
X9526Y3930D01*
X9546D01*
X9560Y3916D01*
D02*
G37*
G36*
X5520D02*
Y3896D01*
X5506Y3883D01*
X5487D01*
X5473Y3896D01*
Y3916D01*
X5487Y3930D01*
X5506D01*
X5520Y3916D01*
D02*
G37*
G36*
X15274Y2531D02*
X13226D01*
Y3614D01*
X15274D01*
Y2531D01*
D02*
G37*
G36*
X11274D02*
X9226D01*
Y3614D01*
X11274D01*
Y2531D01*
D02*
G37*
G36*
X7224D02*
X5176D01*
Y3614D01*
X7224D01*
Y2531D01*
D02*
G37*
D17*
X20079Y0D02*
G03*
X20472Y394I0J394D01*
G01*
Y19291D02*
G03*
X20079Y19685I-394J0D01*
G01*
X394D02*
G03*
X0Y19291I0J-394D01*
G01*
Y394D02*
G03*
X394Y0I394J0D01*
G01*
Y19685D02*
X20079D01*
X394Y0D02*
X20079D01*
X0Y394D02*
Y19291D01*
X20472Y394D02*
Y19291D01*
D57*
X18397Y5498D02*
X18791D01*
X18594Y5302D02*
Y5695D01*
X1894Y5302D02*
Y5695D01*
X1697Y5498D02*
X2091D01*
D58*
X3363Y7110D02*
Y12543D01*
X7537D01*
Y7110D02*
Y12543D01*
X3363Y7110D02*
X7537D01*
X12913D02*
Y12543D01*
X17087D01*
Y7110D02*
Y12543D01*
X12913Y7110D02*
X17087D01*
X8163D02*
X12337D01*
Y12543D01*
X8163D02*
X12337D01*
X8163Y7110D02*
Y12543D01*
Y12540D02*
X12337D01*
Y7107D02*
Y12540D01*
X8163Y7107D02*
X12337D01*
X8163D02*
Y12540D01*
X3363D02*
X7537D01*
Y7107D02*
Y12540D01*
X3363Y7107D02*
X7537D01*
X3363D02*
Y12540D01*
X12913D02*
X17087D01*
Y7107D02*
Y12540D01*
X12913Y7107D02*
X17087D01*
X12913D02*
Y12540D01*
X17098Y4042D02*
Y6955D01*
X20090Y4042D02*
Y6955D01*
X17098D02*
X20090D01*
X17098Y4042D02*
X20090D01*
X398D02*
X3390D01*
X398Y6955D02*
X3390D01*
Y4042D02*
Y6955D01*
X398Y4042D02*
Y6955D01*
D59*
X5890Y3906D02*
Y5087D01*
X7622D01*
Y3906D02*
Y5087D01*
X5890Y3906D02*
X7622D01*
X15720Y15335D02*
Y15965D01*
X16980D01*
Y15335D02*
Y15965D01*
X15720Y15335D02*
X16980D01*
X11274Y2531D02*
Y6468D01*
X9226Y2531D02*
X11274D01*
X9226D02*
Y6468D01*
X11274D01*
X7224Y2531D02*
Y6468D01*
X5176Y2531D02*
X7224D01*
X5176D02*
Y6468D01*
X7224D01*
X9570Y16915D02*
X10830D01*
Y16285D02*
Y16915D01*
X9570Y16285D02*
X10830D01*
X9570D02*
Y16915D01*
X3470Y17865D02*
X4730D01*
Y17235D02*
Y17865D01*
X3470Y17235D02*
X4730D01*
X3470D02*
Y17865D01*
X5670Y16285D02*
X6930D01*
X5670D02*
Y16915D01*
X6930D01*
Y16285D02*
Y16915D01*
X3470D02*
X4730D01*
Y16285D02*
Y16915D01*
X3470Y16285D02*
X4730D01*
X3470D02*
Y16915D01*
Y15965D02*
X4730D01*
Y15335D02*
Y15965D01*
X3470Y15335D02*
X4730D01*
X3470D02*
Y15965D01*
X5670Y17235D02*
X6930D01*
X5670D02*
Y17865D01*
X6930D01*
Y17235D02*
Y17865D01*
Y15335D02*
Y15965D01*
X5670D02*
X6930D01*
X5670Y15335D02*
Y15965D01*
Y15335D02*
X6930D01*
Y14385D02*
Y15015D01*
X5670D02*
X6930D01*
X5670Y14385D02*
Y15015D01*
Y14385D02*
X6930D01*
X3459D02*
X4719D01*
Y15015D01*
X3459D02*
X4719D01*
X3459Y14385D02*
Y15015D01*
X3463Y15335D02*
X4723D01*
Y15965D01*
X3463D02*
X4723D01*
X3463Y15335D02*
Y15965D01*
X13520Y15015D02*
X14780D01*
X13520Y14385D02*
Y15015D01*
Y14385D02*
X14780D01*
Y15015D01*
X15720Y13435D02*
Y14065D01*
X16980D01*
Y13435D02*
Y14065D01*
X15720Y13435D02*
X16980D01*
X13520Y15965D02*
X14780D01*
X13520Y15335D02*
Y15965D01*
Y15335D02*
X14780D01*
Y15965D01*
X15720Y14385D02*
X16980D01*
Y15015D01*
X15720D02*
X16980D01*
X15720Y14385D02*
Y15015D01*
X14780Y13435D02*
Y14065D01*
X13520Y13435D02*
X14780D01*
X13520D02*
Y14065D01*
X14780D01*
X15720Y15015D02*
X16980D01*
Y14385D02*
Y15015D01*
X15720Y14385D02*
X16980D01*
X15720D02*
Y15015D01*
Y15965D02*
X16980D01*
Y15335D02*
Y15965D01*
X15720Y15335D02*
X16980D01*
X15720D02*
Y15965D01*
X13520Y14385D02*
X14780D01*
X13520D02*
Y15015D01*
X14780D01*
Y14385D02*
Y15015D01*
X13520Y15335D02*
X14780D01*
X13520D02*
Y15965D01*
X14780D01*
Y15335D02*
Y15965D01*
X13520Y16915D02*
X14780D01*
X13520Y16285D02*
Y16915D01*
Y16285D02*
X14780D01*
Y16915D01*
X15720Y16285D02*
X16980D01*
Y16915D01*
X15720D02*
X16980D01*
X15720Y16285D02*
Y16915D01*
X13520Y17865D02*
X14780D01*
X13520Y17235D02*
Y17865D01*
Y17235D02*
X14780D01*
Y17865D01*
X15720Y17235D02*
X16980D01*
Y17865D01*
X15720D02*
X16980D01*
X15720Y17235D02*
Y17865D01*
X13520Y16285D02*
X14780D01*
X13520D02*
Y16915D01*
X14780D01*
Y16285D02*
Y16915D01*
X13520Y17235D02*
X14780D01*
X13520D02*
Y17865D01*
X14780D01*
Y17235D02*
Y17865D01*
X15720Y16915D02*
X16980D01*
Y16285D02*
Y16915D01*
X15720Y16285D02*
X16980D01*
X15720D02*
Y16915D01*
Y17865D02*
X16980D01*
Y17235D02*
Y17865D01*
X15720Y17235D02*
X16980D01*
X15720D02*
Y17865D01*
X3151Y7426D02*
Y8056D01*
X2836D02*
X3151D01*
X2836Y7426D02*
Y8056D01*
Y7426D02*
X3151D01*
X13226Y6468D02*
X15274D01*
X13226Y2531D02*
Y6468D01*
Y2531D02*
X15274D01*
Y6468D01*
X19693Y8465D02*
X20007D01*
X19693Y7835D02*
Y8465D01*
Y7835D02*
X20007D01*
Y8465D01*
X18329Y7693D02*
X18959D01*
X18329D02*
Y8007D01*
X18959D01*
Y7693D02*
Y8007D01*
X18323Y8543D02*
Y8857D01*
Y8543D02*
X18953D01*
Y8857D01*
X18323D02*
X18953D01*
X17343Y8694D02*
X17845D01*
X17343Y7906D02*
Y8694D01*
Y7906D02*
X17845D01*
Y8694D01*
X9930Y3906D02*
X11662D01*
Y5087D01*
X9930D02*
X11662D01*
X9930Y3906D02*
Y5087D01*
X3459Y14385D02*
Y15015D01*
Y14385D02*
X4719D01*
Y15015D01*
X3459D02*
X4719D01*
X14505Y5413D02*
Y5728D01*
Y5413D02*
X15135D01*
Y5728D01*
X14505D02*
X15135D01*
X10484Y5413D02*
Y5728D01*
Y5413D02*
X11114D01*
Y5728D01*
X10484D02*
X11114D01*
X6444Y5413D02*
Y5728D01*
Y5413D02*
X7074D01*
Y5728D01*
X6444D02*
X7074D01*
X12470Y11585D02*
Y12215D01*
X12785D01*
Y11585D02*
Y12215D01*
X12470Y11585D02*
X12785D01*
X7678D02*
Y12215D01*
X7993D01*
Y11585D02*
Y12215D01*
X7678Y11585D02*
X7993D01*
X2836D02*
Y12215D01*
X3151D01*
Y11585D02*
Y12215D01*
X2836Y11585D02*
X3151D01*
X7993Y7426D02*
Y8056D01*
X7678D02*
X7993D01*
X7678Y7426D02*
Y8056D01*
Y7426D02*
X7993D01*
X13950Y3906D02*
X15683D01*
Y5087D01*
X13950D02*
X15683D01*
X13950Y3906D02*
Y5087D01*
X12470Y7426D02*
X12785D01*
X12470D02*
Y8056D01*
X12785D01*
Y7426D02*
Y8056D01*
X6919Y13435D02*
Y14065D01*
X5659Y13435D02*
X6919D01*
X5659D02*
Y14065D01*
X6919D01*
Y14385D02*
Y15015D01*
X5659Y14385D02*
X6919D01*
X5659D02*
Y15015D01*
X6919D01*
Y17235D02*
Y17865D01*
X5659Y17235D02*
X6919D01*
X5659D02*
Y17865D01*
X6919D01*
Y15335D02*
Y15965D01*
X5659Y15335D02*
X6919D01*
X5659D02*
Y15965D01*
X6919D01*
Y16285D02*
Y16915D01*
X5659Y16285D02*
X6919D01*
X5659D02*
Y16915D01*
X6919D01*
X3459Y13435D02*
Y14065D01*
X4719D01*
Y13435D02*
Y14065D01*
X3459Y13435D02*
X4719D01*
M02*
