G04*
G04 #@! TF.GenerationSoftware,Altium Limited,Altium Designer,22.0.2 (36)*
G04*
G04 Layer_Color=16711935*
%FSLAX24Y24*%
%MOIN*%
G70*
G04*
G04 #@! TF.SameCoordinates,5AD8CBCB-7B86-44EA-BE16-98DFC8B2639C*
G04*
G04*
G04 #@! TF.FilePolarity,Negative*
G04*
G01*
G75*
%ADD17C,0.0100*%
%ADD23R,0.0625X0.0720*%
%ADD25R,0.0380X0.0358*%
%ADD26R,0.0395X0.1182*%
G04:AMPARAMS|DCode=28|XSize=263.9mil|YSize=204.9mil|CornerRadius=33.5mil|HoleSize=0mil|Usage=FLASHONLY|Rotation=0.000|XOffset=0mil|YOffset=0mil|HoleType=Round|Shape=RoundedRectangle|*
%AMROUNDEDRECTD28*
21,1,0.2639,0.1378,0,0,0.0*
21,1,0.1969,0.2049,0,0,0.0*
1,1,0.0671,0.0984,-0.0689*
1,1,0.0671,-0.0984,-0.0689*
1,1,0.0671,-0.0984,0.0689*
1,1,0.0671,0.0984,0.0689*
%
%ADD28ROUNDEDRECTD28*%
%ADD29C,0.1104*%
%ADD30C,0.0280*%
%ADD31C,0.0671*%
%ADD49R,0.0800X0.3050*%
%ADD50R,1.2261X0.0600*%
%ADD51C,0.0178*%
%ADD52O,0.0652X0.0219*%
%ADD53R,0.0358X0.0380*%
%ADD54R,0.0395X0.0434*%
%ADD55R,0.0582X0.0486*%
G36*
X16850Y11303D02*
X13622D01*
Y12484D01*
X14016D01*
Y11697D01*
X14094D01*
Y12484D01*
X14488D01*
Y11697D01*
X14567D01*
Y12484D01*
X14961D01*
Y11697D01*
X15039D01*
Y12484D01*
X15433D01*
Y11697D01*
X15512D01*
Y12484D01*
X15906D01*
Y11697D01*
X15984D01*
Y12484D01*
X16378D01*
Y11697D01*
X16457D01*
Y12484D01*
X16850D01*
Y11303D01*
D02*
G37*
G36*
X12100D02*
X8872D01*
Y12484D01*
X9266D01*
Y11697D01*
X9344D01*
Y12484D01*
X9738D01*
Y11697D01*
X9817D01*
Y12484D01*
X10211D01*
Y11697D01*
X10289D01*
Y12484D01*
X10683D01*
Y11697D01*
X10762D01*
Y12484D01*
X11156D01*
Y11697D01*
X11234D01*
Y12484D01*
X11628D01*
Y11697D01*
X11707D01*
Y12484D01*
X12100D01*
Y11303D01*
D02*
G37*
G36*
X7300D02*
X4072D01*
Y12484D01*
X4466D01*
Y11697D01*
X4544D01*
Y12484D01*
X4938D01*
Y11697D01*
X5017D01*
Y12484D01*
X5411D01*
Y11697D01*
X5489D01*
Y12484D01*
X5883D01*
Y11697D01*
X5962D01*
Y12484D01*
X6356D01*
Y11697D01*
X6434D01*
Y12484D01*
X6828D01*
Y11697D01*
X6907D01*
Y12484D01*
X7300D01*
Y11303D01*
D02*
G37*
G36*
X16949Y8862D02*
X16752D01*
Y7799D01*
X17028D01*
Y7169D01*
X12972D01*
Y7799D01*
X13248D01*
Y8862D01*
X13051D01*
Y10398D01*
X16949D01*
Y8862D01*
D02*
G37*
G36*
X12199D02*
X12002D01*
Y7799D01*
X12278D01*
Y7169D01*
X8222D01*
Y7799D01*
X8498D01*
Y8862D01*
X8301D01*
Y10398D01*
X12199D01*
Y8862D01*
D02*
G37*
G36*
X7399D02*
X7202D01*
Y7799D01*
X7478D01*
Y7169D01*
X3422D01*
Y7799D01*
X3698D01*
Y8862D01*
X3501D01*
Y10398D01*
X7399D01*
Y8862D01*
D02*
G37*
D17*
X20079Y0D02*
G03*
X20472Y394I0J394D01*
G01*
Y19291D02*
G03*
X20079Y19685I-394J0D01*
G01*
X394D02*
G03*
X0Y19291I0J-394D01*
G01*
Y394D02*
G03*
X394Y0I394J0D01*
G01*
Y19685D02*
X20079D01*
X394Y0D02*
X20079D01*
X0Y394D02*
Y19291D01*
X20472Y394D02*
Y19291D01*
D23*
X9573Y16600D02*
D03*
X10827D02*
D03*
X3473Y17550D02*
D03*
X4727D02*
D03*
X6927Y16600D02*
D03*
X5673D02*
D03*
X3473D02*
D03*
X4727D02*
D03*
X3473Y15650D02*
D03*
X4727D02*
D03*
X6927Y17550D02*
D03*
X5673D02*
D03*
Y15650D02*
D03*
X6927D02*
D03*
X5673Y14700D02*
D03*
X6927D02*
D03*
X15723D02*
D03*
X16977D02*
D03*
X15723Y15650D02*
D03*
X16977D02*
D03*
X14777Y14700D02*
D03*
X13523D02*
D03*
X14777Y15650D02*
D03*
X13523D02*
D03*
X14777Y16600D02*
D03*
X13523D02*
D03*
X14777Y17550D02*
D03*
X13523D02*
D03*
X15723Y16600D02*
D03*
X16977D02*
D03*
X15723Y17550D02*
D03*
X16977D02*
D03*
X4716Y14700D02*
D03*
X3462D02*
D03*
D25*
X19850Y7853D02*
D03*
Y8447D02*
D03*
X12628Y11603D02*
D03*
Y12197D02*
D03*
X7836Y11603D02*
D03*
Y12197D02*
D03*
X2994Y11603D02*
D03*
Y12197D02*
D03*
D26*
X3796Y11894D02*
D03*
X13346D02*
D03*
X8596D02*
D03*
D28*
X14270Y1100D02*
D03*
X6200D02*
D03*
X10270D02*
D03*
X8750Y18600D02*
D03*
X11680D02*
D03*
D29*
X630Y19055D02*
D03*
X19843D02*
D03*
Y630D02*
D03*
X630D02*
D03*
D30*
X13370Y1300D02*
D03*
X13730D02*
D03*
X14450D02*
D03*
X14810D02*
D03*
X15170D02*
D03*
X14090D02*
D03*
X13370Y1700D02*
D03*
X13730D02*
D03*
X14450D02*
D03*
X14810D02*
D03*
X15170D02*
D03*
X14090D02*
D03*
X13370Y500D02*
D03*
X13730D02*
D03*
X14450D02*
D03*
X14810D02*
D03*
X15170D02*
D03*
X14090D02*
D03*
X13370Y900D02*
D03*
X13730D02*
D03*
X14450D02*
D03*
X14810D02*
D03*
X15170D02*
D03*
X14090D02*
D03*
X5300Y1300D02*
D03*
X5660D02*
D03*
X6380D02*
D03*
X6740D02*
D03*
X7100D02*
D03*
X6020D02*
D03*
X5300Y1700D02*
D03*
X5660D02*
D03*
X6380D02*
D03*
X6740D02*
D03*
X7100D02*
D03*
X6020D02*
D03*
X5300Y500D02*
D03*
X5660D02*
D03*
X6380D02*
D03*
X6740D02*
D03*
X7100D02*
D03*
X6020D02*
D03*
X5300Y900D02*
D03*
X5660D02*
D03*
X6380D02*
D03*
X6740D02*
D03*
X7100D02*
D03*
X6020D02*
D03*
X9370Y1300D02*
D03*
X9730D02*
D03*
X10450D02*
D03*
X10810D02*
D03*
X11170D02*
D03*
X10090D02*
D03*
X9370Y1700D02*
D03*
X9730D02*
D03*
X10450D02*
D03*
X10810D02*
D03*
X11170D02*
D03*
X10090D02*
D03*
X9370Y500D02*
D03*
X9730D02*
D03*
X10450D02*
D03*
X10810D02*
D03*
X11170D02*
D03*
X10090D02*
D03*
X9370Y900D02*
D03*
X9730D02*
D03*
X10450D02*
D03*
X10810D02*
D03*
X11170D02*
D03*
X10090D02*
D03*
X8570Y18400D02*
D03*
X9650D02*
D03*
X9290D02*
D03*
X8930D02*
D03*
X8210D02*
D03*
X7850D02*
D03*
X8570Y18000D02*
D03*
X9650D02*
D03*
X9290D02*
D03*
X8930D02*
D03*
X8210D02*
D03*
X7850D02*
D03*
X8570Y19200D02*
D03*
X9650D02*
D03*
X9290D02*
D03*
X8930D02*
D03*
X8210D02*
D03*
X7850D02*
D03*
X8570Y18800D02*
D03*
X9650D02*
D03*
X9290D02*
D03*
X8930D02*
D03*
X8210D02*
D03*
X7850D02*
D03*
X11500Y18400D02*
D03*
X12580D02*
D03*
X12220D02*
D03*
X11860D02*
D03*
X11140D02*
D03*
X10780D02*
D03*
X11500Y18000D02*
D03*
X12580D02*
D03*
X12220D02*
D03*
X11860D02*
D03*
X11140D02*
D03*
X10780D02*
D03*
X11500Y19200D02*
D03*
X12580D02*
D03*
X12220D02*
D03*
X11860D02*
D03*
X11140D02*
D03*
X10780D02*
D03*
X11500Y18800D02*
D03*
X12580D02*
D03*
X12220D02*
D03*
X11860D02*
D03*
X11140D02*
D03*
X10780D02*
D03*
D31*
X11206Y15450D02*
D03*
X9238D02*
D03*
D49*
X12300Y16075D02*
D03*
X8150D02*
D03*
D50*
X10220Y13400D02*
D03*
D51*
X10250Y4032D02*
D03*
Y4229D02*
D03*
Y4938D02*
D03*
Y4741D02*
D03*
X6200Y4938D02*
D03*
Y4741D02*
D03*
Y4032D02*
D03*
Y4229D02*
D03*
X14250D02*
D03*
Y4032D02*
D03*
Y4741D02*
D03*
Y4938D02*
D03*
D52*
X7909Y4881D02*
D03*
Y4625D02*
D03*
Y4369D02*
D03*
Y4113D02*
D03*
X5604Y4881D02*
D03*
Y4625D02*
D03*
Y4369D02*
D03*
Y4113D02*
D03*
X9644D02*
D03*
Y4369D02*
D03*
Y4625D02*
D03*
Y4881D02*
D03*
X11948Y4113D02*
D03*
Y4369D02*
D03*
Y4625D02*
D03*
Y4881D02*
D03*
X13664Y4113D02*
D03*
Y4369D02*
D03*
Y4625D02*
D03*
Y4881D02*
D03*
X15969Y4113D02*
D03*
Y4369D02*
D03*
Y4625D02*
D03*
Y4881D02*
D03*
D53*
X18940Y7850D02*
D03*
X18347D02*
D03*
D54*
X18913Y8700D02*
D03*
X18362D02*
D03*
X15095Y5571D02*
D03*
X14544D02*
D03*
X11075D02*
D03*
X10524D02*
D03*
X7035D02*
D03*
X6484D02*
D03*
D55*
X17594Y7906D02*
D03*
Y8694D02*
D03*
M02*
