G04*
G04 #@! TF.GenerationSoftware,Altium Limited,Altium Designer,22.0.2 (36)*
G04*
G04 Layer_Color=8421504*
%FSLAX24Y24*%
%MOIN*%
G70*
G04*
G04 #@! TF.SameCoordinates,5AD8CBCB-7B86-44EA-BE16-98DFC8B2639C*
G04*
G04*
G04 #@! TF.FilePolarity,Positive*
G04*
G01*
G75*
%ADD17C,0.0100*%
%ADD18C,0.0197*%
%ADD19R,0.2047X0.1378*%
%ADD20O,0.0787X0.0138*%
G36*
X7209Y17851D02*
Y17249D01*
X7169Y17210D01*
X6663D01*
X6624Y17249D01*
Y17395D01*
X6663Y17434D01*
X6783D01*
X6823Y17474D01*
Y17626D01*
X6783Y17666D01*
X6663D01*
X6624Y17705D01*
Y17851D01*
X6663Y17890D01*
X7169D01*
X7209Y17851D01*
D02*
G37*
G36*
X5955D02*
Y17705D01*
X5915Y17666D01*
X5795D01*
X5756Y17626D01*
Y17474D01*
X5795Y17434D01*
X5915D01*
X5955Y17395D01*
Y17249D01*
X5915Y17210D01*
X5409D01*
X5370Y17249D01*
Y17851D01*
X5409Y17890D01*
X5915D01*
X5955Y17851D01*
D02*
G37*
G36*
X7209Y16901D02*
Y16299D01*
X7169Y16260D01*
X6663D01*
X6624Y16299D01*
Y16445D01*
X6663Y16484D01*
X6783D01*
X6823Y16524D01*
Y16676D01*
X6783Y16716D01*
X6663D01*
X6624Y16755D01*
Y16901D01*
X6663Y16940D01*
X7169D01*
X7209Y16901D01*
D02*
G37*
G36*
X5955D02*
Y16755D01*
X5915Y16716D01*
X5795D01*
X5756Y16676D01*
Y16524D01*
X5795Y16484D01*
X5915D01*
X5955Y16445D01*
Y16299D01*
X5915Y16260D01*
X5409D01*
X5370Y16299D01*
Y16901D01*
X5409Y16940D01*
X5915D01*
X5955Y16901D01*
D02*
G37*
G36*
X7209Y15951D02*
Y15349D01*
X7169Y15310D01*
X6663D01*
X6624Y15349D01*
Y15495D01*
X6663Y15534D01*
X6783D01*
X6823Y15574D01*
Y15726D01*
X6783Y15766D01*
X6663D01*
X6624Y15805D01*
Y15951D01*
X6663Y15990D01*
X7169D01*
X7209Y15951D01*
D02*
G37*
G36*
X5955D02*
Y15805D01*
X5915Y15766D01*
X5795D01*
X5756Y15726D01*
Y15574D01*
X5795Y15534D01*
X5915D01*
X5955Y15495D01*
Y15349D01*
X5915Y15310D01*
X5409D01*
X5370Y15349D01*
Y15951D01*
X5409Y15990D01*
X5915D01*
X5955Y15951D01*
D02*
G37*
G36*
X5013D02*
Y15349D01*
X4973Y15310D01*
X4467D01*
X4428Y15349D01*
Y15495D01*
X4467Y15534D01*
X4587D01*
X4627Y15574D01*
Y15726D01*
X4587Y15766D01*
X4467D01*
X4428Y15805D01*
Y15951D01*
X4467Y15990D01*
X4973D01*
X5013Y15951D01*
D02*
G37*
G36*
X3759D02*
Y15805D01*
X3719Y15766D01*
X3599D01*
X3560Y15726D01*
Y15574D01*
X3599Y15534D01*
X3719D01*
X3759Y15495D01*
Y15349D01*
X3719Y15310D01*
X3213D01*
X3174Y15349D01*
Y15951D01*
X3213Y15990D01*
X3719D01*
X3759Y15951D01*
D02*
G37*
G36*
X7209Y15001D02*
Y14399D01*
X7169Y14360D01*
X6663D01*
X6624Y14399D01*
Y14545D01*
X6663Y14584D01*
X6783D01*
X6823Y14624D01*
Y14776D01*
X6783Y14816D01*
X6663D01*
X6624Y14855D01*
Y15001D01*
X6663Y15040D01*
X7169D01*
X7209Y15001D01*
D02*
G37*
G36*
X5955D02*
Y14855D01*
X5915Y14816D01*
X5795D01*
X5756Y14776D01*
Y14624D01*
X5795Y14584D01*
X5915D01*
X5955Y14545D01*
Y14399D01*
X5915Y14360D01*
X5409D01*
X5370Y14399D01*
Y15001D01*
X5409Y15040D01*
X5915D01*
X5955Y15001D01*
D02*
G37*
G36*
X5009D02*
Y14399D01*
X4969Y14360D01*
X4463D01*
X4424Y14399D01*
Y14545D01*
X4463Y14584D01*
X4583D01*
X4623Y14624D01*
Y14776D01*
X4583Y14816D01*
X4463D01*
X4424Y14855D01*
Y15001D01*
X4463Y15040D01*
X4969D01*
X5009Y15001D01*
D02*
G37*
G36*
X3755D02*
Y14855D01*
X3715Y14816D01*
X3595D01*
X3556Y14776D01*
Y14624D01*
X3595Y14584D01*
X3715D01*
X3755Y14545D01*
Y14399D01*
X3715Y14360D01*
X3209D01*
X3170Y14399D01*
Y15001D01*
X3209Y15040D01*
X3715D01*
X3755Y15001D01*
D02*
G37*
G36*
X7209Y14051D02*
Y13449D01*
X7169Y13410D01*
X6663D01*
X6624Y13449D01*
Y13595D01*
X6663Y13634D01*
X6783D01*
X6823Y13674D01*
Y13826D01*
X6783Y13866D01*
X6663D01*
X6624Y13905D01*
Y14051D01*
X6663Y14090D01*
X7169D01*
X7209Y14051D01*
D02*
G37*
G36*
X5955D02*
Y13905D01*
X5915Y13866D01*
X5795D01*
X5756Y13826D01*
Y13674D01*
X5795Y13634D01*
X5915D01*
X5955Y13595D01*
Y13449D01*
X5915Y13410D01*
X5409D01*
X5370Y13449D01*
Y14051D01*
X5409Y14090D01*
X5915D01*
X5955Y14051D01*
D02*
G37*
G36*
X5009D02*
Y13449D01*
X4969Y13410D01*
X4463D01*
X4424Y13449D01*
Y13595D01*
X4463Y13634D01*
X4583D01*
X4623Y13674D01*
Y13826D01*
X4583Y13866D01*
X4463D01*
X4424Y13905D01*
Y14051D01*
X4463Y14090D01*
X4969D01*
X5009Y14051D01*
D02*
G37*
G36*
X3755D02*
Y13905D01*
X3715Y13866D01*
X3595D01*
X3556Y13826D01*
Y13674D01*
X3595Y13634D01*
X3715D01*
X3755Y13595D01*
Y13449D01*
X3715Y13410D01*
X3209D01*
X3170Y13449D01*
Y14051D01*
X3209Y14090D01*
X3715D01*
X3755Y14051D01*
D02*
G37*
G36*
X8013Y8212D02*
Y7897D01*
X7993Y7877D01*
X7898D01*
Y8023D01*
X7768D01*
Y7877D01*
X7678D01*
X7659Y7897D01*
Y8212D01*
X7678Y8231D01*
X7993D01*
X8013Y8212D01*
D02*
G37*
G36*
X3171D02*
Y7897D01*
X3151Y7877D01*
X3056D01*
Y8023D01*
X2926D01*
Y7877D01*
X2836D01*
X2817Y7897D01*
Y8212D01*
X2836Y8231D01*
X3151D01*
X3171Y8212D01*
D02*
G37*
G36*
X8013Y7582D02*
Y7271D01*
X7993Y7251D01*
X7678D01*
X7659Y7271D01*
Y7582D01*
X7678Y7601D01*
X7768D01*
Y7452D01*
X7898D01*
Y7601D01*
X7993D01*
X8013Y7582D01*
D02*
G37*
G36*
X3171D02*
Y7271D01*
X3151Y7251D01*
X2836D01*
X2817Y7271D01*
Y7582D01*
X2836Y7601D01*
X2926D01*
Y7452D01*
X3056D01*
Y7601D01*
X3151D01*
X3171Y7582D01*
D02*
G37*
G36*
X10624Y7244D02*
X10348D01*
Y8268D01*
X10624D01*
Y7244D01*
D02*
G37*
G36*
X10152D02*
X9876D01*
Y8268D01*
X10152D01*
Y7244D01*
D02*
G37*
G36*
X9679D02*
X9404D01*
Y8268D01*
X9679D01*
Y7244D01*
D02*
G37*
G36*
X9207D02*
X8931D01*
Y8268D01*
X9207D01*
Y7244D01*
D02*
G37*
G36*
X8734D02*
X8459D01*
Y8268D01*
X8734D01*
Y7244D01*
D02*
G37*
G36*
X7241D02*
X6966D01*
Y8268D01*
X7241D01*
Y7244D01*
D02*
G37*
G36*
X6769D02*
X6493D01*
Y8268D01*
X6769D01*
Y7244D01*
D02*
G37*
G36*
X6296D02*
X6021D01*
Y8268D01*
X6296D01*
Y7244D01*
D02*
G37*
G36*
X5824D02*
X5548D01*
Y8268D01*
X5824D01*
Y7244D01*
D02*
G37*
G36*
X5352D02*
X5076D01*
Y8268D01*
X5352D01*
Y7244D01*
D02*
G37*
G36*
X4879D02*
X4604D01*
Y8268D01*
X4879D01*
Y7244D01*
D02*
G37*
G36*
X4407D02*
X4131D01*
Y8268D01*
X4407D01*
Y7244D01*
D02*
G37*
G36*
X3934D02*
X3659D01*
Y8268D01*
X3934D01*
Y7244D01*
D02*
G37*
G36*
X17269Y14051D02*
Y13449D01*
X17230Y13410D01*
X16724D01*
X16685Y13449D01*
Y13595D01*
X16724Y13634D01*
X16844D01*
X16883Y13674D01*
Y13826D01*
X16844Y13866D01*
X16724D01*
X16685Y13905D01*
Y14051D01*
X16724Y14090D01*
X17230D01*
X17269Y14051D01*
D02*
G37*
G36*
X16015D02*
Y13905D01*
X15976Y13866D01*
X15856D01*
X15817Y13826D01*
Y13674D01*
X15856Y13634D01*
X15976D01*
X16015Y13595D01*
Y13449D01*
X15976Y13410D01*
X15470D01*
X15431Y13449D01*
Y14051D01*
X15470Y14090D01*
X15976D01*
X16015Y14051D01*
D02*
G37*
G36*
X15069D02*
Y13449D01*
X15030Y13410D01*
X14524D01*
X14485Y13449D01*
Y13595D01*
X14524Y13634D01*
X14644D01*
X14683Y13674D01*
Y13826D01*
X14644Y13866D01*
X14524D01*
X14485Y13905D01*
Y14051D01*
X14524Y14090D01*
X15030D01*
X15069Y14051D01*
D02*
G37*
G36*
X13815D02*
Y13905D01*
X13776Y13866D01*
X13656D01*
X13617Y13826D01*
Y13674D01*
X13656Y13634D01*
X13776D01*
X13815Y13595D01*
Y13449D01*
X13776Y13410D01*
X13270D01*
X13231Y13449D01*
Y14051D01*
X13270Y14090D01*
X13776D01*
X13815Y14051D01*
D02*
G37*
G36*
X12805Y8212D02*
Y7897D01*
X12785Y7877D01*
X12690D01*
Y8023D01*
X12560D01*
Y7877D01*
X12470D01*
X12451Y7897D01*
Y8212D01*
X12470Y8231D01*
X12785D01*
X12805Y8212D01*
D02*
G37*
G36*
Y7582D02*
Y7271D01*
X12785Y7251D01*
X12470D01*
X12451Y7271D01*
Y7582D01*
X12470Y7601D01*
X12560D01*
Y7452D01*
X12690D01*
Y7601D01*
X12785D01*
X12805Y7582D01*
D02*
G37*
G36*
X16791Y7244D02*
X16516D01*
Y8268D01*
X16791D01*
Y7244D01*
D02*
G37*
G36*
X16319D02*
X16043D01*
Y8268D01*
X16319D01*
Y7244D01*
D02*
G37*
G36*
X15846D02*
X15571D01*
Y8268D01*
X15846D01*
Y7244D01*
D02*
G37*
G36*
X15374D02*
X15098D01*
Y8268D01*
X15374D01*
Y7244D01*
D02*
G37*
G36*
X14902D02*
X14626D01*
Y8268D01*
X14902D01*
Y7244D01*
D02*
G37*
G36*
X14429D02*
X14154D01*
Y8268D01*
X14429D01*
Y7244D01*
D02*
G37*
G36*
X13957D02*
X13681D01*
Y8268D01*
X13957D01*
Y7244D01*
D02*
G37*
G36*
X13484D02*
X13209D01*
Y8268D01*
X13484D01*
Y7244D01*
D02*
G37*
G36*
X12041D02*
X11766D01*
Y8268D01*
X12041D01*
Y7244D01*
D02*
G37*
G36*
X11569D02*
X11293D01*
Y8268D01*
X11569D01*
Y7244D01*
D02*
G37*
G36*
X11096D02*
X10821D01*
Y8268D01*
X11096D01*
Y7244D01*
D02*
G37*
G36*
X13815Y15001D02*
Y14855D01*
X13776Y14816D01*
X13656D01*
X13617Y14776D01*
Y14624D01*
X13656Y14584D01*
X13776D01*
X13815Y14545D01*
Y14399D01*
X13776Y14360D01*
X13270D01*
X13231Y14399D01*
Y15001D01*
X13270Y15040D01*
X13776D01*
X13815Y15001D01*
D01*
D02*
G37*
G36*
Y15951D02*
Y15805D01*
X13776Y15766D01*
X13656D01*
X13617Y15726D01*
Y15574D01*
X13656Y15534D01*
X13776D01*
X13815Y15495D01*
Y15349D01*
X13776Y15310D01*
X13270D01*
X13231Y15349D01*
Y15951D01*
X13270Y15990D01*
X13776D01*
X13815Y15951D01*
D01*
D02*
G37*
G36*
X14485Y15001D02*
Y14855D01*
X14524Y14816D01*
X14644D01*
X14683Y14776D01*
Y14624D01*
X14644Y14584D01*
X14524D01*
X14485Y14545D01*
Y14399D01*
X14524Y14360D01*
X15030D01*
X15069Y14399D01*
Y15001D01*
X15030Y15040D01*
X14524D01*
X14485Y15001D01*
D01*
D02*
G37*
G36*
Y15951D02*
Y15805D01*
X14524Y15766D01*
X14644D01*
X14683Y15726D01*
Y15574D01*
X14644Y15534D01*
X14524D01*
X14485Y15495D01*
Y15349D01*
X14524Y15310D01*
X15030D01*
X15069Y15349D01*
Y15951D01*
X15030Y15990D01*
X14524D01*
X14485Y15951D01*
D01*
D02*
G37*
G36*
X13815Y16901D02*
Y16755D01*
X13776Y16716D01*
X13656D01*
X13617Y16676D01*
Y16524D01*
X13656Y16484D01*
X13776D01*
X13815Y16445D01*
Y16299D01*
X13776Y16260D01*
X13270D01*
X13231Y16299D01*
Y16901D01*
X13270Y16940D01*
X13776D01*
X13815Y16901D01*
D01*
D02*
G37*
G36*
Y17851D02*
Y17705D01*
X13776Y17666D01*
X13656D01*
X13617Y17626D01*
Y17474D01*
X13656Y17434D01*
X13776D01*
X13815Y17395D01*
Y17249D01*
X13776Y17210D01*
X13270D01*
X13231Y17249D01*
Y17851D01*
X13270Y17890D01*
X13776D01*
X13815Y17851D01*
D01*
D02*
G37*
G36*
X14485Y16901D02*
Y16755D01*
X14524Y16716D01*
X14644D01*
X14683Y16676D01*
Y16524D01*
X14644Y16484D01*
X14524D01*
X14485Y16445D01*
Y16299D01*
X14524Y16260D01*
X15030D01*
X15069Y16299D01*
Y16901D01*
X15030Y16940D01*
X14524D01*
X14485Y16901D01*
D01*
D02*
G37*
G36*
Y17851D02*
Y17705D01*
X14524Y17666D01*
X14644D01*
X14683Y17626D01*
Y17474D01*
X14644Y17434D01*
X14524D01*
X14485Y17395D01*
Y17249D01*
X14524Y17210D01*
X15030D01*
X15069Y17249D01*
Y17851D01*
X15030Y17890D01*
X14524D01*
X14485Y17851D01*
D01*
D02*
G37*
G36*
X16015Y14399D02*
Y14545D01*
X15976Y14584D01*
X15856D01*
X15817Y14624D01*
Y14776D01*
X15856Y14816D01*
X15976D01*
X16015Y14855D01*
Y15001D01*
X15976Y15040D01*
X15470D01*
X15431Y15001D01*
Y14399D01*
X15470Y14360D01*
X15976D01*
X16015Y14399D01*
D01*
D02*
G37*
G36*
Y15349D02*
Y15495D01*
X15976Y15534D01*
X15856D01*
X15817Y15574D01*
Y15726D01*
X15856Y15766D01*
X15976D01*
X16015Y15805D01*
Y15951D01*
X15976Y15990D01*
X15470D01*
X15431Y15951D01*
Y15349D01*
X15470Y15310D01*
X15976D01*
X16015Y15349D01*
D01*
D02*
G37*
G36*
X16685Y14399D02*
Y14545D01*
X16724Y14584D01*
X16844D01*
X16883Y14624D01*
Y14776D01*
X16844Y14816D01*
X16724D01*
X16685Y14855D01*
Y15001D01*
X16724Y15040D01*
X17230D01*
X17269Y15001D01*
Y14399D01*
X17230Y14360D01*
X16724D01*
X16685Y14399D01*
D01*
D02*
G37*
G36*
Y15349D02*
Y15495D01*
X16724Y15534D01*
X16844D01*
X16883Y15574D01*
Y15726D01*
X16844Y15766D01*
X16724D01*
X16685Y15805D01*
Y15951D01*
X16724Y15990D01*
X17230D01*
X17269Y15951D01*
Y15349D01*
X17230Y15310D01*
X16724D01*
X16685Y15349D01*
D01*
D02*
G37*
G36*
X16015Y16299D02*
Y16445D01*
X15976Y16484D01*
X15856D01*
X15817Y16524D01*
Y16676D01*
X15856Y16716D01*
X15976D01*
X16015Y16755D01*
Y16901D01*
X15976Y16940D01*
X15470D01*
X15431Y16901D01*
Y16299D01*
X15470Y16260D01*
X15976D01*
X16015Y16299D01*
D01*
D02*
G37*
G36*
Y17249D02*
Y17395D01*
X15976Y17434D01*
X15856D01*
X15817Y17474D01*
Y17626D01*
X15856Y17666D01*
X15976D01*
X16015Y17705D01*
Y17851D01*
X15976Y17890D01*
X15470D01*
X15431Y17851D01*
Y17249D01*
X15470Y17210D01*
X15976D01*
X16015Y17249D01*
D01*
D02*
G37*
G36*
X16685Y16299D02*
Y16445D01*
X16724Y16484D01*
X16844D01*
X16883Y16524D01*
Y16676D01*
X16844Y16716D01*
X16724D01*
X16685Y16755D01*
Y16901D01*
X16724Y16940D01*
X17230D01*
X17269Y16901D01*
Y16299D01*
X17230Y16260D01*
X16724D01*
X16685Y16299D01*
D01*
D02*
G37*
G36*
Y17249D02*
Y17395D01*
X16724Y17434D01*
X16844D01*
X16883Y17474D01*
Y17626D01*
X16844Y17666D01*
X16724D01*
X16685Y17705D01*
Y17851D01*
X16724Y17890D01*
X17230D01*
X17269Y17851D01*
Y17249D01*
X17230Y17210D01*
X16724D01*
X16685Y17249D01*
D01*
D02*
G37*
D17*
X20079Y0D02*
G03*
X20472Y394I0J394D01*
G01*
Y19291D02*
G03*
X20079Y19685I-394J0D01*
G01*
X394D02*
G03*
X0Y19291I0J-394D01*
G01*
Y394D02*
G03*
X394Y0I394J0D01*
G01*
Y19685D02*
X20079D01*
X394Y0D02*
X20079D01*
X0Y394D02*
Y19291D01*
X20472Y394D02*
Y19291D01*
D18*
X8695Y9756D02*
G03*
X8695Y9756I-98J0D01*
G01*
X9167D02*
G03*
X9167Y9756I-98J0D01*
G01*
X9640D02*
G03*
X9640Y9756I-98J0D01*
G01*
X10112D02*
G03*
X10112Y9756I-98J0D01*
G01*
X10585D02*
G03*
X10585Y9756I-98J0D01*
G01*
X11057D02*
G03*
X11057Y9756I-98J0D01*
G01*
X11530D02*
G03*
X11530Y9756I-98J0D01*
G01*
X12002D02*
G03*
X12002Y9756I-98J0D01*
G01*
X8695Y10229D02*
G03*
X8695Y10229I-98J0D01*
G01*
X9167D02*
G03*
X9167Y10229I-98J0D01*
G01*
X9640D02*
G03*
X9640Y10229I-98J0D01*
G01*
X10112D02*
G03*
X10112Y10229I-98J0D01*
G01*
X10585D02*
G03*
X10585Y10229I-98J0D01*
G01*
X11057D02*
G03*
X11057Y10229I-98J0D01*
G01*
X11530D02*
G03*
X11530Y10229I-98J0D01*
G01*
X12002D02*
G03*
X12002Y10229I-98J0D01*
G01*
X9167Y10701D02*
G03*
X9167Y10701I-98J0D01*
G01*
X9640D02*
G03*
X9640Y10701I-98J0D01*
G01*
X10112D02*
G03*
X10112Y10701I-98J0D01*
G01*
X10585D02*
G03*
X10585Y10701I-98J0D01*
G01*
X11057D02*
G03*
X11057Y10701I-98J0D01*
G01*
X11530D02*
G03*
X11530Y10701I-98J0D01*
G01*
X9167Y11174D02*
G03*
X9167Y11174I-98J0D01*
G01*
X9640D02*
G03*
X9640Y11174I-98J0D01*
G01*
X10112D02*
G03*
X10112Y11174I-98J0D01*
G01*
X10585D02*
G03*
X10585Y11174I-98J0D01*
G01*
X11057D02*
G03*
X11057Y11174I-98J0D01*
G01*
X11530D02*
G03*
X11530Y11174I-98J0D01*
G01*
X9167Y11646D02*
G03*
X9167Y11646I-98J0D01*
G01*
X9640D02*
G03*
X9640Y11646I-98J0D01*
G01*
X10112D02*
G03*
X10112Y11646I-98J0D01*
G01*
X10585D02*
G03*
X10585Y11646I-98J0D01*
G01*
X11057D02*
G03*
X11057Y11646I-98J0D01*
G01*
X11530D02*
G03*
X11530Y11646I-98J0D01*
G01*
X8695Y12119D02*
G03*
X8695Y12119I-98J0D01*
G01*
X9167D02*
G03*
X9167Y12119I-98J0D01*
G01*
X9640D02*
G03*
X9640Y12119I-98J0D01*
G01*
X10112D02*
G03*
X10112Y12119I-98J0D01*
G01*
X10585D02*
G03*
X10585Y12119I-98J0D01*
G01*
X11057D02*
G03*
X11057Y12119I-98J0D01*
G01*
X11530D02*
G03*
X11530Y12119I-98J0D01*
G01*
X12002D02*
G03*
X12002Y12119I-98J0D01*
G01*
X3895Y9756D02*
G03*
X3895Y9756I-98J0D01*
G01*
X4367D02*
G03*
X4367Y9756I-98J0D01*
G01*
X4840D02*
G03*
X4840Y9756I-98J0D01*
G01*
X5312D02*
G03*
X5312Y9756I-98J0D01*
G01*
X5785D02*
G03*
X5785Y9756I-98J0D01*
G01*
X6257D02*
G03*
X6257Y9756I-98J0D01*
G01*
X6730D02*
G03*
X6730Y9756I-98J0D01*
G01*
X7202D02*
G03*
X7202Y9756I-98J0D01*
G01*
X3895Y10229D02*
G03*
X3895Y10229I-98J0D01*
G01*
X4367D02*
G03*
X4367Y10229I-98J0D01*
G01*
X4840D02*
G03*
X4840Y10229I-98J0D01*
G01*
X5312D02*
G03*
X5312Y10229I-98J0D01*
G01*
X5785D02*
G03*
X5785Y10229I-98J0D01*
G01*
X6257D02*
G03*
X6257Y10229I-98J0D01*
G01*
X6730D02*
G03*
X6730Y10229I-98J0D01*
G01*
X7202D02*
G03*
X7202Y10229I-98J0D01*
G01*
X4367Y10701D02*
G03*
X4367Y10701I-98J0D01*
G01*
X4840D02*
G03*
X4840Y10701I-98J0D01*
G01*
X5312D02*
G03*
X5312Y10701I-98J0D01*
G01*
X5785D02*
G03*
X5785Y10701I-98J0D01*
G01*
X6257D02*
G03*
X6257Y10701I-98J0D01*
G01*
X6730D02*
G03*
X6730Y10701I-98J0D01*
G01*
X4367Y11174D02*
G03*
X4367Y11174I-98J0D01*
G01*
X4840D02*
G03*
X4840Y11174I-98J0D01*
G01*
X5312D02*
G03*
X5312Y11174I-98J0D01*
G01*
X5785D02*
G03*
X5785Y11174I-98J0D01*
G01*
X6257D02*
G03*
X6257Y11174I-98J0D01*
G01*
X6730D02*
G03*
X6730Y11174I-98J0D01*
G01*
X4367Y11646D02*
G03*
X4367Y11646I-98J0D01*
G01*
X4840D02*
G03*
X4840Y11646I-98J0D01*
G01*
X5312D02*
G03*
X5312Y11646I-98J0D01*
G01*
X5785D02*
G03*
X5785Y11646I-98J0D01*
G01*
X6257D02*
G03*
X6257Y11646I-98J0D01*
G01*
X6730D02*
G03*
X6730Y11646I-98J0D01*
G01*
X3895Y12119D02*
G03*
X3895Y12119I-98J0D01*
G01*
X4367D02*
G03*
X4367Y12119I-98J0D01*
G01*
X4840D02*
G03*
X4840Y12119I-98J0D01*
G01*
X5312D02*
G03*
X5312Y12119I-98J0D01*
G01*
X5785D02*
G03*
X5785Y12119I-98J0D01*
G01*
X6257D02*
G03*
X6257Y12119I-98J0D01*
G01*
X6730D02*
G03*
X6730Y12119I-98J0D01*
G01*
X7202D02*
G03*
X7202Y12119I-98J0D01*
G01*
X13445Y9756D02*
G03*
X13445Y9756I-98J0D01*
G01*
X13917D02*
G03*
X13917Y9756I-98J0D01*
G01*
X14390D02*
G03*
X14390Y9756I-98J0D01*
G01*
X14862D02*
G03*
X14862Y9756I-98J0D01*
G01*
X15335D02*
G03*
X15335Y9756I-98J0D01*
G01*
X15807D02*
G03*
X15807Y9756I-98J0D01*
G01*
X16280D02*
G03*
X16280Y9756I-98J0D01*
G01*
X16752D02*
G03*
X16752Y9756I-98J0D01*
G01*
X13445Y10229D02*
G03*
X13445Y10229I-98J0D01*
G01*
X13917D02*
G03*
X13917Y10229I-98J0D01*
G01*
X14390D02*
G03*
X14390Y10229I-98J0D01*
G01*
X14862D02*
G03*
X14862Y10229I-98J0D01*
G01*
X15335D02*
G03*
X15335Y10229I-98J0D01*
G01*
X15807D02*
G03*
X15807Y10229I-98J0D01*
G01*
X16280D02*
G03*
X16280Y10229I-98J0D01*
G01*
X16752D02*
G03*
X16752Y10229I-98J0D01*
G01*
X13917Y10701D02*
G03*
X13917Y10701I-98J0D01*
G01*
X14390D02*
G03*
X14390Y10701I-98J0D01*
G01*
X14862D02*
G03*
X14862Y10701I-98J0D01*
G01*
X15335D02*
G03*
X15335Y10701I-98J0D01*
G01*
X15807D02*
G03*
X15807Y10701I-98J0D01*
G01*
X16280D02*
G03*
X16280Y10701I-98J0D01*
G01*
X13917Y11174D02*
G03*
X13917Y11174I-98J0D01*
G01*
X14390D02*
G03*
X14390Y11174I-98J0D01*
G01*
X14862D02*
G03*
X14862Y11174I-98J0D01*
G01*
X15335D02*
G03*
X15335Y11174I-98J0D01*
G01*
X15807D02*
G03*
X15807Y11174I-98J0D01*
G01*
X16280D02*
G03*
X16280Y11174I-98J0D01*
G01*
X13917Y11646D02*
G03*
X13917Y11646I-98J0D01*
G01*
X14390D02*
G03*
X14390Y11646I-98J0D01*
G01*
X14862D02*
G03*
X14862Y11646I-98J0D01*
G01*
X15335D02*
G03*
X15335Y11646I-98J0D01*
G01*
X15807D02*
G03*
X15807Y11646I-98J0D01*
G01*
X16280D02*
G03*
X16280Y11646I-98J0D01*
G01*
X13445Y12119D02*
G03*
X13445Y12119I-98J0D01*
G01*
X13917D02*
G03*
X13917Y12119I-98J0D01*
G01*
X14390D02*
G03*
X14390Y12119I-98J0D01*
G01*
X14862D02*
G03*
X14862Y12119I-98J0D01*
G01*
X15335D02*
G03*
X15335Y12119I-98J0D01*
G01*
X15807D02*
G03*
X15807Y12119I-98J0D01*
G01*
X16280D02*
G03*
X16280Y12119I-98J0D01*
G01*
X16752D02*
G03*
X16752Y12119I-98J0D01*
G01*
D19*
X10250Y6000D02*
D03*
Y3000D02*
D03*
X6200Y6000D02*
D03*
Y3000D02*
D03*
X14250D02*
D03*
Y6000D02*
D03*
D20*
X17767Y5971D02*
D03*
Y5656D02*
D03*
Y5341D02*
D03*
Y5026D02*
D03*
Y4711D02*
D03*
X19420D02*
D03*
Y5026D02*
D03*
Y5341D02*
D03*
Y5656D02*
D03*
Y5971D02*
D03*
Y6286D02*
D03*
X17767D02*
D03*
X2720Y4711D02*
D03*
Y5026D02*
D03*
Y5341D02*
D03*
Y5656D02*
D03*
Y5971D02*
D03*
Y6286D02*
D03*
X1067Y4711D02*
D03*
Y5026D02*
D03*
Y5341D02*
D03*
Y5656D02*
D03*
Y5971D02*
D03*
Y6286D02*
D03*
M02*
