G04*
G04 #@! TF.GenerationSoftware,Altium Limited,Altium Designer,22.0.2 (36)*
G04*
G04 Layer_Physical_Order=2*
G04 Layer_Color=6736896*
%FSLAX24Y24*%
%MOIN*%
G70*
G04*
G04 #@! TF.SameCoordinates,5AD8CBCB-7B86-44EA-BE16-98DFC8B2639C*
G04*
G04*
G04 #@! TF.FilePolarity,Positive*
G04*
G01*
G75*
%ADD17C,0.0100*%
G04:AMPARAMS|DCode=37|XSize=255.9mil|YSize=196.9mil|CornerRadius=29.5mil|HoleSize=0mil|Usage=FLASHONLY|Rotation=0.000|XOffset=0mil|YOffset=0mil|HoleType=Round|Shape=RoundedRectangle|*
%AMROUNDEDRECTD37*
21,1,0.2559,0.1378,0,0,0.0*
21,1,0.1969,0.1969,0,0,0.0*
1,1,0.0591,0.0984,-0.0689*
1,1,0.0591,-0.0984,-0.0689*
1,1,0.0591,-0.0984,0.0689*
1,1,0.0591,0.0984,0.0689*
%
%ADD37ROUNDEDRECTD37*%
%ADD39C,0.0200*%
%ADD40C,0.0591*%
G36*
X19530Y19535D02*
X19491Y19513D01*
X19385Y19406D01*
X19310Y19276D01*
X19260Y19284D01*
Y19332D01*
X19236Y19391D01*
X19191Y19436D01*
X19132Y19460D01*
X19068D01*
X19009Y19436D01*
X18982Y19409D01*
X18950Y19396D01*
X18918Y19409D01*
X18891Y19436D01*
X18832Y19460D01*
X18768D01*
X18709Y19436D01*
X18682Y19409D01*
X18650Y19396D01*
X18618Y19409D01*
X18591Y19436D01*
X18532Y19460D01*
X18468D01*
X18409Y19436D01*
X18382Y19409D01*
X18350Y19396D01*
X18318Y19409D01*
X18291Y19436D01*
X18232Y19460D01*
X18168D01*
X18109Y19436D01*
X18082Y19409D01*
X18050Y19396D01*
X18018Y19409D01*
X17991Y19436D01*
X17932Y19460D01*
X17868D01*
X17809Y19436D01*
X17782Y19409D01*
X17750Y19396D01*
X17718Y19409D01*
X17691Y19436D01*
X17632Y19460D01*
X17568D01*
X17509Y19436D01*
X17482Y19409D01*
X17450Y19396D01*
X17418Y19409D01*
X17391Y19436D01*
X17332Y19460D01*
X17268D01*
X17209Y19436D01*
X17182Y19409D01*
X17150Y19396D01*
X17118Y19409D01*
X17091Y19436D01*
X17032Y19460D01*
X16968D01*
X16909Y19436D01*
X16882Y19409D01*
X16850Y19396D01*
X16818Y19409D01*
X16791Y19436D01*
X16732Y19460D01*
X16668D01*
X16609Y19436D01*
X16564Y19391D01*
X16540Y19332D01*
Y19268D01*
X16564Y19209D01*
X16591Y19182D01*
X16604Y19150D01*
X16591Y19118D01*
X16564Y19091D01*
X16540Y19032D01*
Y18968D01*
X16564Y18909D01*
X16591Y18882D01*
X16604Y18850D01*
X16591Y18818D01*
X16564Y18791D01*
X16540Y18732D01*
Y18668D01*
X16564Y18609D01*
X16591Y18582D01*
X16604Y18550D01*
X16591Y18518D01*
X16564Y18491D01*
X16540Y18432D01*
Y18368D01*
X16564Y18309D01*
X16609Y18264D01*
X16668Y18240D01*
X16732D01*
X16791Y18264D01*
X16818Y18291D01*
X16850Y18304D01*
X16882Y18291D01*
X16909Y18264D01*
X16968Y18240D01*
X17032D01*
X17091Y18264D01*
X17118Y18291D01*
X17150Y18304D01*
X17182Y18291D01*
X17209Y18264D01*
X17268Y18240D01*
X17332D01*
X17391Y18264D01*
X17418Y18291D01*
X17446Y18302D01*
X17492Y18280D01*
X17504Y18250D01*
X17491Y18218D01*
X17464Y18191D01*
X17440Y18132D01*
Y18068D01*
X17464Y18009D01*
X17491Y17982D01*
X17504Y17950D01*
X17491Y17918D01*
X17464Y17891D01*
X17440Y17832D01*
Y17768D01*
X17464Y17709D01*
X17491Y17682D01*
X17504Y17650D01*
X17491Y17618D01*
X17464Y17591D01*
X17440Y17532D01*
Y17468D01*
X17464Y17409D01*
X17491Y17382D01*
X17504Y17350D01*
X17491Y17318D01*
X17464Y17291D01*
X17440Y17232D01*
Y17168D01*
X17464Y17109D01*
X17491Y17082D01*
X17504Y17050D01*
X17491Y17018D01*
X17464Y16991D01*
X17440Y16932D01*
Y16868D01*
X17464Y16809D01*
X17491Y16782D01*
X17504Y16750D01*
X17491Y16718D01*
X17464Y16691D01*
X17440Y16632D01*
Y16568D01*
X17464Y16509D01*
X17491Y16482D01*
X17504Y16450D01*
X17491Y16418D01*
X17464Y16391D01*
X17440Y16332D01*
Y16268D01*
X17464Y16209D01*
X17491Y16182D01*
X17504Y16150D01*
X17491Y16118D01*
X17464Y16091D01*
X17440Y16032D01*
Y15968D01*
X17464Y15909D01*
X17491Y15882D01*
X17504Y15850D01*
X17491Y15818D01*
X17464Y15791D01*
X17440Y15732D01*
Y15668D01*
X17464Y15609D01*
X17491Y15582D01*
X17504Y15550D01*
X17491Y15518D01*
X17464Y15491D01*
X17440Y15432D01*
Y15368D01*
X17464Y15309D01*
X17491Y15282D01*
X17504Y15250D01*
X17491Y15218D01*
X17464Y15191D01*
X17440Y15132D01*
Y15068D01*
X17464Y15009D01*
X17491Y14982D01*
X17504Y14950D01*
X17491Y14918D01*
X17464Y14891D01*
X17440Y14832D01*
Y14768D01*
X17464Y14709D01*
X17491Y14682D01*
X17504Y14650D01*
X17491Y14618D01*
X17464Y14591D01*
X17440Y14532D01*
Y14468D01*
X17464Y14409D01*
X17491Y14382D01*
X17504Y14350D01*
X17491Y14318D01*
X17464Y14291D01*
X17440Y14232D01*
Y14168D01*
X17464Y14109D01*
X17491Y14082D01*
X17504Y14050D01*
X17491Y14018D01*
X17464Y13991D01*
X17440Y13932D01*
Y13868D01*
X17464Y13809D01*
X17491Y13782D01*
X17504Y13750D01*
X17491Y13718D01*
X17464Y13691D01*
X17440Y13632D01*
Y13568D01*
X17464Y13509D01*
X17509Y13464D01*
X17568Y13440D01*
X17632D01*
X17691Y13464D01*
X17718Y13491D01*
X17750Y13504D01*
X17782Y13491D01*
X17809Y13464D01*
X17868Y13440D01*
X17932D01*
X17991Y13464D01*
X18018Y13491D01*
X18050Y13504D01*
X18080Y13492D01*
X18102Y13446D01*
X18091Y13418D01*
X18064Y13391D01*
X18040Y13332D01*
Y13268D01*
X18064Y13209D01*
X18091Y13182D01*
X18104Y13150D01*
X18091Y13118D01*
X18064Y13091D01*
X18040Y13032D01*
Y12968D01*
X18064Y12909D01*
X18091Y12882D01*
X18104Y12850D01*
X18091Y12818D01*
X18064Y12791D01*
X18040Y12732D01*
Y12668D01*
X18064Y12609D01*
X18091Y12582D01*
X18104Y12550D01*
X18091Y12518D01*
X18064Y12491D01*
X18040Y12432D01*
Y12368D01*
X18064Y12309D01*
X18091Y12282D01*
X18104Y12250D01*
X18091Y12218D01*
X18064Y12191D01*
X18040Y12132D01*
Y12068D01*
X18064Y12009D01*
X18091Y11982D01*
X18104Y11950D01*
X18091Y11918D01*
X18064Y11891D01*
X18040Y11832D01*
Y11768D01*
X18064Y11709D01*
X18091Y11682D01*
X18104Y11650D01*
X18091Y11618D01*
X18064Y11591D01*
X18040Y11532D01*
Y11468D01*
X18064Y11409D01*
X18091Y11382D01*
X18104Y11350D01*
X18091Y11318D01*
X18064Y11291D01*
X18040Y11232D01*
Y11168D01*
X18064Y11109D01*
X18091Y11082D01*
X18104Y11050D01*
X18091Y11018D01*
X18064Y10991D01*
X18040Y10932D01*
Y10868D01*
X18064Y10809D01*
X18091Y10782D01*
X18104Y10750D01*
X18091Y10718D01*
X18064Y10691D01*
X18040Y10632D01*
Y10568D01*
X18064Y10509D01*
X18091Y10482D01*
X18104Y10450D01*
X18091Y10418D01*
X18064Y10391D01*
X18040Y10332D01*
Y10268D01*
X18064Y10209D01*
X18091Y10182D01*
X18104Y10150D01*
X18091Y10118D01*
X18064Y10091D01*
X18040Y10032D01*
Y9968D01*
X18064Y9909D01*
X18109Y9864D01*
X18168Y9840D01*
X18232D01*
X18291Y9864D01*
X18318Y9891D01*
X18350Y9904D01*
X18382Y9891D01*
X18409Y9864D01*
X18468Y9840D01*
X18532D01*
X18591Y9864D01*
X18618Y9891D01*
X18650Y9904D01*
X18682Y9891D01*
X18709Y9864D01*
X18768Y9840D01*
X18832D01*
X18891Y9864D01*
X18918Y9891D01*
X18950Y9904D01*
X18982Y9891D01*
X19009Y9864D01*
X19068Y9840D01*
X19132D01*
X19191Y9864D01*
X19218Y9891D01*
X19250Y9904D01*
X19282Y9891D01*
X19309Y9864D01*
X19368Y9840D01*
X19432D01*
X19491Y9864D01*
X19518Y9891D01*
X19550Y9904D01*
X19582Y9891D01*
X19609Y9864D01*
X19668Y9840D01*
X19732D01*
X19791Y9864D01*
X19836Y9909D01*
X19860Y9968D01*
Y10032D01*
X19836Y10091D01*
X19809Y10118D01*
X19796Y10150D01*
X19809Y10182D01*
X19836Y10209D01*
X19860Y10268D01*
Y10332D01*
X19836Y10391D01*
X19809Y10418D01*
X19796Y10450D01*
X19809Y10482D01*
X19836Y10509D01*
X19860Y10568D01*
Y10632D01*
X19836Y10691D01*
X19809Y10718D01*
X19796Y10750D01*
X19809Y10782D01*
X19836Y10809D01*
X19860Y10868D01*
Y10932D01*
X19836Y10991D01*
X19809Y11018D01*
X19796Y11050D01*
X19809Y11082D01*
X19836Y11109D01*
X19860Y11168D01*
Y11232D01*
X19836Y11291D01*
X19809Y11318D01*
X19796Y11350D01*
X19809Y11382D01*
X19836Y11409D01*
X19860Y11468D01*
Y11532D01*
X19836Y11591D01*
X19809Y11618D01*
X19796Y11650D01*
X19809Y11682D01*
X19836Y11709D01*
X19860Y11768D01*
Y11832D01*
X19836Y11891D01*
X19809Y11918D01*
X19796Y11950D01*
X19809Y11982D01*
X19836Y12009D01*
X19860Y12068D01*
Y12132D01*
X19836Y12191D01*
X19809Y12218D01*
X19796Y12250D01*
X19809Y12282D01*
X19836Y12309D01*
X19860Y12368D01*
Y12432D01*
X19836Y12491D01*
X19809Y12518D01*
X19796Y12550D01*
X19809Y12582D01*
X19836Y12609D01*
X19860Y12668D01*
Y12732D01*
X19836Y12791D01*
X19809Y12818D01*
X19796Y12850D01*
X19809Y12882D01*
X19836Y12909D01*
X19860Y12968D01*
Y13032D01*
X19836Y13091D01*
X19809Y13118D01*
X19796Y13150D01*
X19809Y13182D01*
X19836Y13209D01*
X19860Y13268D01*
Y13332D01*
X19836Y13391D01*
X19809Y13418D01*
X19796Y13450D01*
X19809Y13482D01*
X19836Y13509D01*
X19860Y13568D01*
Y13632D01*
X19836Y13691D01*
X19809Y13718D01*
X19796Y13750D01*
X19809Y13782D01*
X19836Y13809D01*
X19860Y13868D01*
Y13932D01*
X19836Y13991D01*
X19809Y14018D01*
X19796Y14050D01*
X19809Y14082D01*
X19836Y14109D01*
X19860Y14168D01*
Y14232D01*
X19836Y14291D01*
X19809Y14318D01*
X19796Y14350D01*
X19809Y14382D01*
X19836Y14409D01*
X19860Y14468D01*
Y14532D01*
X19836Y14591D01*
X19809Y14618D01*
X19796Y14650D01*
X19809Y14682D01*
X19836Y14709D01*
X19860Y14768D01*
Y14832D01*
X19836Y14891D01*
X19809Y14918D01*
X19796Y14950D01*
X19809Y14982D01*
X19836Y15009D01*
X19860Y15068D01*
Y15132D01*
X19836Y15191D01*
X19809Y15218D01*
X19796Y15250D01*
X19809Y15282D01*
X19836Y15309D01*
X19860Y15368D01*
Y15432D01*
X19836Y15491D01*
X19809Y15518D01*
X19796Y15550D01*
X19809Y15582D01*
X19836Y15609D01*
X19860Y15668D01*
Y15732D01*
X19836Y15791D01*
X19809Y15818D01*
X19796Y15850D01*
X19809Y15882D01*
X19836Y15909D01*
X19860Y15968D01*
Y16032D01*
X19836Y16091D01*
X19809Y16118D01*
X19796Y16150D01*
X19809Y16182D01*
X19836Y16209D01*
X19860Y16268D01*
Y16332D01*
X19836Y16391D01*
X19809Y16418D01*
X19796Y16450D01*
X19809Y16482D01*
X19836Y16509D01*
X19860Y16568D01*
Y16632D01*
X19836Y16691D01*
X19809Y16718D01*
X19796Y16750D01*
X19809Y16782D01*
X19836Y16809D01*
X19860Y16868D01*
Y16932D01*
X19836Y16991D01*
X19809Y17018D01*
X19796Y17050D01*
X19809Y17082D01*
X19836Y17109D01*
X19860Y17168D01*
Y17232D01*
X19836Y17291D01*
X19809Y17318D01*
X19796Y17350D01*
X19809Y17382D01*
X19836Y17409D01*
X19860Y17468D01*
Y17532D01*
X19836Y17591D01*
X19809Y17618D01*
X19796Y17650D01*
X19809Y17682D01*
X19836Y17709D01*
X19860Y17768D01*
Y17832D01*
X19836Y17891D01*
X19809Y17918D01*
X19796Y17950D01*
X19809Y17982D01*
X19836Y18009D01*
X19860Y18068D01*
Y18132D01*
X19836Y18191D01*
X19791Y18236D01*
X19732Y18260D01*
X19668D01*
X19609Y18236D01*
X19582Y18209D01*
X19550Y18196D01*
X19518Y18209D01*
X19491Y18236D01*
X19432Y18260D01*
X19368D01*
X19309Y18236D01*
X19282Y18209D01*
X19250Y18196D01*
X19218Y18209D01*
X19209Y18218D01*
X19196Y18250D01*
X19209Y18282D01*
X19236Y18309D01*
X19260Y18368D01*
Y18432D01*
X19236Y18491D01*
X19209Y18518D01*
X19196Y18550D01*
X19209Y18582D01*
X19236Y18609D01*
X19260Y18668D01*
Y18732D01*
X19236Y18791D01*
X19209Y18818D01*
X19196Y18850D01*
X19209Y18882D01*
X19236Y18909D01*
X19237Y18913D01*
X19290Y18909D01*
X19310Y18834D01*
X19385Y18704D01*
X19491Y18598D01*
X19622Y18522D01*
X19767Y18483D01*
X19918D01*
X20063Y18522D01*
X20194Y18598D01*
X20300Y18704D01*
X20322Y18742D01*
X20370Y18729D01*
X20370Y8950D01*
X102D01*
Y18729D01*
X150Y18742D01*
X172Y18704D01*
X279Y18598D01*
X409Y18522D01*
X555Y18483D01*
X705D01*
X851Y18522D01*
X981Y18598D01*
X1087Y18704D01*
X1163Y18834D01*
X1202Y18980D01*
Y19130D01*
X1163Y19276D01*
X1087Y19406D01*
X981Y19513D01*
X943Y19535D01*
X956Y19583D01*
X10421Y19583D01*
X10435Y19533D01*
X10385Y19468D01*
X10350Y19382D01*
X10337Y19289D01*
Y17911D01*
X10350Y17818D01*
X10385Y17732D01*
X10442Y17658D01*
X10517Y17601D01*
X10603Y17565D01*
X10696Y17553D01*
X10736D01*
X10746Y17503D01*
X10709Y17488D01*
X10682Y17460D01*
X10650Y17448D01*
X10618Y17460D01*
X10591Y17488D01*
X10532Y17512D01*
X10468D01*
X10409Y17488D01*
X10364Y17443D01*
X10340Y17384D01*
Y17320D01*
X10364Y17261D01*
X10409Y17216D01*
X10468Y17192D01*
X10532D01*
X10591Y17216D01*
X10618Y17243D01*
X10650Y17256D01*
X10682Y17243D01*
X10709Y17216D01*
X10768Y17192D01*
X10832D01*
X10891Y17216D01*
X10918Y17243D01*
X10950Y17256D01*
X10982Y17243D01*
X11009Y17216D01*
X11068Y17192D01*
X11132D01*
X11191Y17216D01*
X11218Y17243D01*
X11250Y17256D01*
X11282Y17243D01*
X11309Y17216D01*
X11368Y17192D01*
X11432D01*
X11491Y17216D01*
X11518Y17243D01*
X11550Y17256D01*
X11582Y17243D01*
X11591Y17234D01*
X11604Y17202D01*
X11591Y17170D01*
X11564Y17143D01*
X11540Y17084D01*
Y17020D01*
X11564Y16961D01*
X11591Y16934D01*
X11604Y16902D01*
X11591Y16870D01*
X11564Y16843D01*
X11540Y16784D01*
Y16720D01*
X11564Y16661D01*
X11591Y16634D01*
X11604Y16602D01*
X11591Y16570D01*
X11564Y16543D01*
X11540Y16484D01*
Y16420D01*
X11564Y16361D01*
X11591Y16334D01*
X11604Y16302D01*
X11591Y16270D01*
X11564Y16243D01*
X11540Y16184D01*
Y16120D01*
X11564Y16061D01*
X11591Y16034D01*
X11604Y16002D01*
X11591Y15970D01*
X11564Y15943D01*
X11540Y15884D01*
Y15820D01*
X11564Y15761D01*
X11591Y15734D01*
X11604Y15702D01*
X11591Y15670D01*
X11564Y15643D01*
X11564Y15641D01*
X11508Y15638D01*
X11491Y15668D01*
X11424Y15734D01*
X11343Y15781D01*
X11253Y15805D01*
X11159D01*
X11069Y15781D01*
X10988Y15734D01*
X10922Y15668D01*
X10875Y15587D01*
X10851Y15497D01*
Y15403D01*
X10875Y15313D01*
X10922Y15232D01*
X10988Y15166D01*
X11021Y15147D01*
X11018Y15091D01*
X11009Y15088D01*
X10982Y15060D01*
X10950Y15048D01*
X10918Y15060D01*
X10891Y15088D01*
X10832Y15112D01*
X10768D01*
X10709Y15088D01*
X10682Y15060D01*
X10650Y15048D01*
X10618Y15060D01*
X10591Y15088D01*
X10532Y15112D01*
X10468D01*
X10409Y15088D01*
X10364Y15043D01*
X10340Y14984D01*
Y14920D01*
X10364Y14861D01*
X10391Y14834D01*
X10404Y14802D01*
X10391Y14770D01*
X10364Y14743D01*
X10340Y14684D01*
Y14620D01*
X10364Y14561D01*
X10391Y14534D01*
X10404Y14502D01*
X10391Y14470D01*
X10364Y14443D01*
X10340Y14384D01*
Y14320D01*
X10364Y14261D01*
X10391Y14234D01*
X10404Y14202D01*
X10391Y14170D01*
X10364Y14143D01*
X10340Y14084D01*
Y14020D01*
X10364Y13961D01*
X10409Y13916D01*
X10468Y13892D01*
X10532D01*
X10591Y13916D01*
X10618Y13943D01*
X10650Y13956D01*
X10682Y13943D01*
X10709Y13916D01*
X10768Y13892D01*
X10832D01*
X10891Y13916D01*
X10918Y13943D01*
X10950Y13956D01*
X10982Y13943D01*
X11009Y13916D01*
X11068Y13892D01*
X11132D01*
X11191Y13916D01*
X11218Y13943D01*
X11250Y13956D01*
X11282Y13943D01*
X11309Y13916D01*
X11368Y13892D01*
X11432D01*
X11491Y13916D01*
X11518Y13943D01*
X11550Y13956D01*
X11582Y13943D01*
X11609Y13916D01*
X11668Y13892D01*
X11732D01*
X11791Y13916D01*
X11818Y13943D01*
X11850Y13956D01*
X11882Y13943D01*
X11909Y13916D01*
X11968Y13892D01*
X12032D01*
X12091Y13916D01*
X12118Y13943D01*
X12150Y13956D01*
X12182Y13943D01*
X12209Y13916D01*
X12268Y13892D01*
X12332D01*
X12391Y13916D01*
X12418Y13943D01*
X12450Y13956D01*
X12482Y13943D01*
X12509Y13916D01*
X12568Y13892D01*
X12632D01*
X12691Y13916D01*
X12718Y13943D01*
X12750Y13956D01*
X12782Y13943D01*
X12809Y13916D01*
X12868Y13892D01*
X12932D01*
X12991Y13916D01*
X13036Y13961D01*
X13060Y14020D01*
Y14084D01*
X13036Y14143D01*
X13009Y14170D01*
X12996Y14202D01*
X13009Y14234D01*
X13036Y14261D01*
X13060Y14320D01*
Y14384D01*
X13036Y14443D01*
X13009Y14470D01*
X12996Y14502D01*
X13009Y14534D01*
X13036Y14561D01*
X13060Y14620D01*
Y14684D01*
X13036Y14743D01*
X13009Y14770D01*
X12996Y14802D01*
X13009Y14834D01*
X13036Y14861D01*
X13060Y14920D01*
Y14984D01*
X13036Y15043D01*
X13009Y15070D01*
X12996Y15102D01*
X13009Y15134D01*
X13036Y15161D01*
X13060Y15220D01*
Y15284D01*
X13036Y15343D01*
X13009Y15370D01*
X12996Y15402D01*
X13009Y15434D01*
X13036Y15461D01*
X13060Y15520D01*
Y15584D01*
X13036Y15643D01*
X13009Y15670D01*
X12996Y15702D01*
X13009Y15734D01*
X13036Y15761D01*
X13060Y15820D01*
Y15884D01*
X13036Y15943D01*
X13009Y15970D01*
X12996Y16002D01*
X13009Y16034D01*
X13036Y16061D01*
X13060Y16120D01*
Y16184D01*
X13036Y16243D01*
X13009Y16270D01*
X12996Y16302D01*
X13009Y16334D01*
X13036Y16361D01*
X13060Y16420D01*
Y16484D01*
X13036Y16543D01*
X13009Y16570D01*
X12996Y16602D01*
X13009Y16634D01*
X13036Y16661D01*
X13060Y16720D01*
Y16784D01*
X13036Y16843D01*
X13009Y16870D01*
X12996Y16902D01*
X13009Y16934D01*
X13036Y16961D01*
X13060Y17020D01*
Y17084D01*
X13036Y17143D01*
X13009Y17170D01*
X12996Y17202D01*
X13009Y17234D01*
X13036Y17261D01*
X13060Y17320D01*
Y17384D01*
X13036Y17443D01*
X12991Y17488D01*
X12932Y17512D01*
X12868D01*
X12809Y17488D01*
X12764Y17443D01*
X12740Y17384D01*
Y17320D01*
X12764Y17261D01*
X12791Y17234D01*
X12804Y17202D01*
X12791Y17170D01*
X12764Y17143D01*
X12740Y17084D01*
Y17020D01*
X12764Y16961D01*
X12791Y16934D01*
X12804Y16902D01*
X12791Y16870D01*
X12764Y16843D01*
X12740Y16784D01*
Y16720D01*
X12764Y16661D01*
X12791Y16634D01*
X12804Y16602D01*
X12791Y16570D01*
X12764Y16543D01*
X12740Y16484D01*
Y16420D01*
X12764Y16361D01*
X12791Y16334D01*
X12804Y16302D01*
X12791Y16270D01*
X12764Y16243D01*
X12740Y16184D01*
Y16120D01*
X12764Y16061D01*
X12791Y16034D01*
X12804Y16002D01*
X12791Y15970D01*
X12764Y15943D01*
X12740Y15884D01*
Y15820D01*
X12764Y15761D01*
X12791Y15734D01*
X12804Y15702D01*
X12791Y15670D01*
X12764Y15643D01*
X12740Y15584D01*
Y15520D01*
X12764Y15461D01*
X12791Y15434D01*
X12804Y15402D01*
X12791Y15370D01*
X12764Y15343D01*
X12740Y15284D01*
Y15220D01*
X12764Y15161D01*
X12791Y15134D01*
X12804Y15102D01*
X12791Y15070D01*
X12764Y15043D01*
X12740Y14984D01*
Y14920D01*
X12764Y14861D01*
X12791Y14834D01*
X12804Y14802D01*
X12791Y14770D01*
X12764Y14743D01*
X12740Y14684D01*
Y14620D01*
X12764Y14561D01*
X12791Y14534D01*
X12802Y14506D01*
X12780Y14460D01*
X12750Y14448D01*
X12718Y14460D01*
X12691Y14488D01*
X12632Y14512D01*
X12568D01*
X12509Y14488D01*
X12482Y14460D01*
X12450Y14448D01*
X12418Y14460D01*
X12391Y14488D01*
X12332Y14512D01*
X12268D01*
X12209Y14488D01*
X12182Y14460D01*
X12150Y14448D01*
X12118Y14460D01*
X12091Y14488D01*
X12032Y14512D01*
X11968D01*
X11909Y14488D01*
X11882Y14460D01*
X11850Y14448D01*
X11820Y14460D01*
X11798Y14506D01*
X11809Y14534D01*
X11836Y14561D01*
X11860Y14620D01*
Y14684D01*
X11836Y14743D01*
X11809Y14770D01*
X11796Y14802D01*
X11809Y14834D01*
X11836Y14861D01*
X11860Y14920D01*
Y14984D01*
X11836Y15043D01*
X11809Y15070D01*
X11796Y15102D01*
X11809Y15134D01*
X11836Y15161D01*
X11860Y15220D01*
Y15284D01*
X11836Y15343D01*
X11809Y15370D01*
X11796Y15402D01*
X11809Y15434D01*
X11836Y15461D01*
X11860Y15520D01*
Y15584D01*
X11836Y15643D01*
X11809Y15670D01*
X11796Y15702D01*
X11809Y15734D01*
X11836Y15761D01*
X11860Y15820D01*
Y15884D01*
X11836Y15943D01*
X11809Y15970D01*
X11796Y16002D01*
X11809Y16034D01*
X11836Y16061D01*
X11860Y16120D01*
Y16184D01*
X11836Y16243D01*
X11809Y16270D01*
X11796Y16302D01*
X11809Y16334D01*
X11836Y16361D01*
X11860Y16420D01*
Y16484D01*
X11836Y16543D01*
X11809Y16570D01*
X11796Y16602D01*
X11809Y16634D01*
X11836Y16661D01*
X11860Y16720D01*
Y16784D01*
X11836Y16843D01*
X11809Y16870D01*
X11796Y16902D01*
X11809Y16934D01*
X11836Y16961D01*
X11860Y17020D01*
Y17084D01*
X11836Y17143D01*
X11809Y17170D01*
X11796Y17202D01*
X11809Y17234D01*
X11836Y17261D01*
X11860Y17320D01*
Y17384D01*
X11836Y17443D01*
X11791Y17488D01*
X11754Y17503D01*
X11764Y17553D01*
X12664D01*
X12757Y17565D01*
X12843Y17601D01*
X12918Y17658D01*
X12975Y17732D01*
X13010Y17818D01*
X13023Y17911D01*
Y18286D01*
X13034Y18292D01*
X13073Y18301D01*
X13109Y18264D01*
X13168Y18240D01*
X13232D01*
X13291Y18264D01*
X13318Y18291D01*
X13350Y18304D01*
X13382Y18291D01*
X13409Y18264D01*
X13468Y18240D01*
X13532D01*
X13591Y18264D01*
X13618Y18291D01*
X13650Y18304D01*
X13682Y18291D01*
X13709Y18264D01*
X13768Y18240D01*
X13832D01*
X13891Y18264D01*
X13936Y18309D01*
X13960Y18368D01*
Y18432D01*
X13936Y18491D01*
X13909Y18518D01*
X13896Y18550D01*
X13909Y18582D01*
X13936Y18609D01*
X13960Y18668D01*
Y18732D01*
X13936Y18791D01*
X13909Y18818D01*
X13896Y18850D01*
X13909Y18882D01*
X13936Y18909D01*
X13960Y18968D01*
Y19032D01*
X13936Y19091D01*
X13909Y19118D01*
X13896Y19150D01*
X13909Y19182D01*
X13936Y19209D01*
X13960Y19268D01*
Y19332D01*
X13936Y19391D01*
X13891Y19436D01*
X13832Y19460D01*
X13768D01*
X13709Y19436D01*
X13682Y19409D01*
X13650Y19396D01*
X13618Y19409D01*
X13591Y19436D01*
X13532Y19460D01*
X13468D01*
X13409Y19436D01*
X13382Y19409D01*
X13350Y19396D01*
X13318Y19409D01*
X13291Y19436D01*
X13232Y19460D01*
X13168D01*
X13109Y19436D01*
X13064Y19391D01*
X13061Y19382D01*
X13024Y19382D01*
X13008Y19386D01*
X12975Y19468D01*
X12925Y19533D01*
X12939Y19583D01*
X19517Y19583D01*
X19530Y19535D01*
D02*
G37*
G36*
X17100Y6350D02*
X12950D01*
Y8500D01*
X17100D01*
Y6350D01*
D02*
G37*
G36*
X12300D02*
X8200D01*
Y8500D01*
X12300D01*
Y6350D01*
D02*
G37*
G36*
X7576D02*
X3390D01*
Y8490D01*
X3400Y8500D01*
X7576D01*
Y6350D01*
D02*
G37*
G36*
X16175Y102D02*
X12350D01*
Y3500D01*
X16175D01*
Y102D01*
D02*
G37*
G36*
X12150D02*
X8300D01*
Y3500D01*
X12150D01*
Y102D01*
D02*
G37*
G36*
X8100D02*
X4275D01*
Y3500D01*
X8100D01*
Y102D01*
D02*
G37*
%LPC*%
G36*
X5932Y19460D02*
X5868D01*
X5809Y19436D01*
X5782Y19409D01*
X5750Y19396D01*
X5718Y19409D01*
X5691Y19436D01*
X5632Y19460D01*
X5568D01*
X5509Y19436D01*
X5482Y19409D01*
X5450Y19396D01*
X5418Y19409D01*
X5391Y19436D01*
X5332Y19460D01*
X5268D01*
X5209Y19436D01*
X5182Y19409D01*
X5150Y19396D01*
X5118Y19409D01*
X5091Y19436D01*
X5032Y19460D01*
X4968D01*
X4909Y19436D01*
X4882Y19409D01*
X4850Y19396D01*
X4818Y19409D01*
X4791Y19436D01*
X4732Y19460D01*
X4668D01*
X4609Y19436D01*
X4582Y19409D01*
X4550Y19396D01*
X4518Y19409D01*
X4491Y19436D01*
X4432Y19460D01*
X4368D01*
X4309Y19436D01*
X4264Y19391D01*
X4240Y19332D01*
Y19268D01*
X4264Y19209D01*
X4291Y19182D01*
X4304Y19150D01*
X4291Y19118D01*
X4264Y19091D01*
X4240Y19032D01*
Y18968D01*
X4264Y18909D01*
X4291Y18882D01*
X4304Y18850D01*
X4291Y18818D01*
X4264Y18791D01*
X4240Y18732D01*
Y18668D01*
X4264Y18609D01*
X4291Y18582D01*
X4304Y18550D01*
X4291Y18518D01*
X4264Y18491D01*
X4240Y18432D01*
Y18368D01*
X4264Y18309D01*
X4309Y18264D01*
X4368Y18240D01*
X4432D01*
X4491Y18264D01*
X4518Y18291D01*
X4550Y18304D01*
X4582Y18291D01*
X4609Y18264D01*
X4668Y18240D01*
X4732D01*
X4791Y18264D01*
X4818Y18291D01*
X4850Y18304D01*
X4882Y18291D01*
X4909Y18264D01*
X4968Y18240D01*
X5032D01*
X5091Y18264D01*
X5118Y18291D01*
X5150Y18304D01*
X5182Y18291D01*
X5209Y18264D01*
X5268Y18240D01*
X5332D01*
X5391Y18264D01*
X5418Y18291D01*
X5450Y18304D01*
X5482Y18291D01*
X5509Y18264D01*
X5568Y18240D01*
X5632D01*
X5691Y18264D01*
X5718Y18291D01*
X5750Y18304D01*
X5782Y18291D01*
X5809Y18264D01*
X5868Y18240D01*
X5932D01*
X5991Y18264D01*
X6036Y18309D01*
X6060Y18368D01*
Y18432D01*
X6036Y18491D01*
X6009Y18518D01*
X5996Y18550D01*
X6009Y18582D01*
X6036Y18609D01*
X6060Y18668D01*
Y18732D01*
X6036Y18791D01*
X6009Y18818D01*
X5996Y18850D01*
X6009Y18882D01*
X6036Y18909D01*
X6060Y18968D01*
Y19032D01*
X6036Y19091D01*
X6009Y19118D01*
X5996Y19150D01*
X6009Y19182D01*
X6036Y19209D01*
X6060Y19268D01*
Y19332D01*
X6036Y19391D01*
X5991Y19436D01*
X5932Y19460D01*
D02*
G37*
G36*
X5232Y18010D02*
X5168D01*
X5109Y17986D01*
X5064Y17941D01*
X5040Y17882D01*
Y17818D01*
X5064Y17759D01*
X5091Y17732D01*
X5104Y17700D01*
X5091Y17668D01*
X5064Y17641D01*
X5040Y17582D01*
Y17518D01*
X5064Y17459D01*
X5091Y17432D01*
X5104Y17400D01*
X5091Y17368D01*
X5064Y17341D01*
X5040Y17282D01*
Y17218D01*
X5064Y17159D01*
X5091Y17132D01*
X5104Y17100D01*
X5091Y17068D01*
X5064Y17041D01*
X5040Y16982D01*
Y16918D01*
X5064Y16859D01*
X5091Y16832D01*
X5104Y16800D01*
X5091Y16768D01*
X5064Y16741D01*
X5040Y16682D01*
Y16618D01*
X5064Y16559D01*
X5091Y16532D01*
X5104Y16500D01*
X5091Y16468D01*
X5064Y16441D01*
X5040Y16382D01*
Y16318D01*
X5064Y16259D01*
X5091Y16232D01*
X5104Y16200D01*
X5091Y16168D01*
X5064Y16141D01*
X5040Y16082D01*
Y16018D01*
X5064Y15959D01*
X5091Y15932D01*
X5104Y15900D01*
X5091Y15868D01*
X5064Y15841D01*
X5040Y15782D01*
Y15718D01*
X5064Y15659D01*
X5091Y15632D01*
X5104Y15600D01*
X5091Y15568D01*
X5064Y15541D01*
X5040Y15482D01*
Y15418D01*
X5064Y15359D01*
X5091Y15332D01*
X5104Y15300D01*
X5091Y15268D01*
X5064Y15241D01*
X5040Y15182D01*
Y15118D01*
X5064Y15059D01*
X5091Y15032D01*
X5104Y15000D01*
X5091Y14968D01*
X5064Y14941D01*
X5040Y14882D01*
Y14818D01*
X5064Y14759D01*
X5091Y14732D01*
X5104Y14700D01*
X5091Y14668D01*
X5064Y14641D01*
X5040Y14582D01*
Y14518D01*
X5064Y14459D01*
X5091Y14432D01*
X5104Y14400D01*
X5091Y14368D01*
X5064Y14341D01*
X5040Y14282D01*
Y14218D01*
X5064Y14159D01*
X5091Y14132D01*
X5104Y14100D01*
X5091Y14068D01*
X5064Y14041D01*
X5040Y13982D01*
Y13918D01*
X5064Y13859D01*
X5109Y13814D01*
X5168Y13790D01*
X5232D01*
X5291Y13814D01*
X5336Y13859D01*
X5360Y13918D01*
Y13982D01*
X5336Y14041D01*
X5309Y14068D01*
X5296Y14100D01*
X5309Y14132D01*
X5336Y14159D01*
X5360Y14218D01*
Y14282D01*
X5336Y14341D01*
X5309Y14368D01*
X5296Y14400D01*
X5309Y14432D01*
X5336Y14459D01*
X5360Y14518D01*
Y14582D01*
X5336Y14641D01*
X5309Y14668D01*
X5296Y14700D01*
X5309Y14732D01*
X5336Y14759D01*
X5360Y14818D01*
Y14882D01*
X5336Y14941D01*
X5309Y14968D01*
X5296Y15000D01*
X5309Y15032D01*
X5336Y15059D01*
X5360Y15118D01*
Y15182D01*
X5336Y15241D01*
X5309Y15268D01*
X5296Y15300D01*
X5309Y15332D01*
X5336Y15359D01*
X5360Y15418D01*
Y15482D01*
X5336Y15541D01*
X5309Y15568D01*
X5296Y15600D01*
X5309Y15632D01*
X5336Y15659D01*
X5360Y15718D01*
Y15782D01*
X5336Y15841D01*
X5309Y15868D01*
X5296Y15900D01*
X5309Y15932D01*
X5336Y15959D01*
X5360Y16018D01*
Y16082D01*
X5336Y16141D01*
X5309Y16168D01*
X5296Y16200D01*
X5309Y16232D01*
X5336Y16259D01*
X5360Y16318D01*
Y16382D01*
X5336Y16441D01*
X5309Y16468D01*
X5296Y16500D01*
X5309Y16532D01*
X5336Y16559D01*
X5360Y16618D01*
Y16682D01*
X5336Y16741D01*
X5309Y16768D01*
X5296Y16800D01*
X5309Y16832D01*
X5336Y16859D01*
X5360Y16918D01*
Y16982D01*
X5336Y17041D01*
X5309Y17068D01*
X5296Y17100D01*
X5309Y17132D01*
X5336Y17159D01*
X5360Y17218D01*
Y17282D01*
X5336Y17341D01*
X5309Y17368D01*
X5296Y17400D01*
X5309Y17432D01*
X5336Y17459D01*
X5360Y17518D01*
Y17582D01*
X5336Y17641D01*
X5309Y17668D01*
X5296Y17700D01*
X5309Y17732D01*
X5336Y17759D01*
X5360Y17818D01*
Y17882D01*
X5336Y17941D01*
X5291Y17986D01*
X5232Y18010D01*
D02*
G37*
%LPD*%
D17*
X20079Y0D02*
G03*
X20472Y394I0J394D01*
G01*
Y19291D02*
G03*
X20079Y19685I-394J0D01*
G01*
X394D02*
G03*
X0Y19291I0J-394D01*
G01*
Y394D02*
G03*
X394Y0I394J0D01*
G01*
Y19685D02*
X20079D01*
X394Y0D02*
X20079D01*
X0Y394D02*
Y19291D01*
X20472Y394D02*
Y19291D01*
D37*
X14270Y1100D02*
D03*
X6200D02*
D03*
X10270D02*
D03*
X8750Y18600D02*
D03*
D39*
X13370Y1300D02*
D03*
X13730D02*
D03*
X14450D02*
D03*
X14810D02*
D03*
X15170D02*
D03*
X14090D02*
D03*
X13370Y1700D02*
D03*
X13730D02*
D03*
X14450D02*
D03*
X14810D02*
D03*
X15170D02*
D03*
X14090D02*
D03*
X13370Y500D02*
D03*
X13730D02*
D03*
X14450D02*
D03*
X14810D02*
D03*
X15170D02*
D03*
X14090D02*
D03*
X13370Y900D02*
D03*
X13730D02*
D03*
X14450D02*
D03*
X14810D02*
D03*
X15170D02*
D03*
X14090D02*
D03*
X5300Y1300D02*
D03*
X5660D02*
D03*
X6380D02*
D03*
X6740D02*
D03*
X7100D02*
D03*
X6020D02*
D03*
X5300Y1700D02*
D03*
X5660D02*
D03*
X6380D02*
D03*
X6740D02*
D03*
X7100D02*
D03*
X6020D02*
D03*
X5300Y500D02*
D03*
X5660D02*
D03*
X6380D02*
D03*
X6740D02*
D03*
X7100D02*
D03*
X6020D02*
D03*
X5300Y900D02*
D03*
X5660D02*
D03*
X6380D02*
D03*
X6740D02*
D03*
X7100D02*
D03*
X6020D02*
D03*
X9370Y1300D02*
D03*
X9730D02*
D03*
X10450D02*
D03*
X10810D02*
D03*
X11170D02*
D03*
X10090D02*
D03*
X9370Y1700D02*
D03*
X9730D02*
D03*
X10450D02*
D03*
X10810D02*
D03*
X11170D02*
D03*
X10090D02*
D03*
X9370Y500D02*
D03*
X9730D02*
D03*
X10450D02*
D03*
X10810D02*
D03*
X11170D02*
D03*
X10090D02*
D03*
X9370Y900D02*
D03*
X9730D02*
D03*
X10450D02*
D03*
X10810D02*
D03*
X11170D02*
D03*
X10090D02*
D03*
X8570Y18400D02*
D03*
X9650D02*
D03*
X9290D02*
D03*
X8930D02*
D03*
X8210D02*
D03*
X7850D02*
D03*
X8570Y18000D02*
D03*
X9650D02*
D03*
X9290D02*
D03*
X8930D02*
D03*
X8210D02*
D03*
X7850D02*
D03*
X8570Y19200D02*
D03*
X9650D02*
D03*
X9290D02*
D03*
X8930D02*
D03*
X8210D02*
D03*
X7850D02*
D03*
X8570Y18800D02*
D03*
X9650D02*
D03*
X9290D02*
D03*
X8930D02*
D03*
X8210D02*
D03*
X7850D02*
D03*
X15700Y2300D02*
D03*
Y2600D02*
D03*
Y2900D02*
D03*
X16000D02*
D03*
Y2600D02*
D03*
Y2300D02*
D03*
Y2000D02*
D03*
Y1700D02*
D03*
Y1400D02*
D03*
Y1100D02*
D03*
Y800D02*
D03*
Y500D02*
D03*
D03*
X11680Y2300D02*
D03*
Y2600D02*
D03*
Y2900D02*
D03*
X11980Y2300D02*
D03*
Y2600D02*
D03*
Y2900D02*
D03*
D03*
Y2600D02*
D03*
Y2300D02*
D03*
Y2000D02*
D03*
Y1700D02*
D03*
Y1400D02*
D03*
Y1100D02*
D03*
Y800D02*
D03*
Y500D02*
D03*
X7600Y2300D02*
D03*
Y2600D02*
D03*
Y2900D02*
D03*
X8530D02*
D03*
X7900D02*
D03*
Y2600D02*
D03*
Y2300D02*
D03*
Y2000D02*
D03*
Y1700D02*
D03*
Y1400D02*
D03*
Y1100D02*
D03*
Y800D02*
D03*
Y500D02*
D03*
X12850Y2300D02*
D03*
Y2600D02*
D03*
Y2900D02*
D03*
X12550Y2300D02*
D03*
Y2600D02*
D03*
Y2900D02*
D03*
X8830D02*
D03*
X12550D02*
D03*
Y2600D02*
D03*
Y2300D02*
D03*
Y2000D02*
D03*
Y1700D02*
D03*
Y1400D02*
D03*
Y1100D02*
D03*
Y800D02*
D03*
Y500D02*
D03*
X8830Y2300D02*
D03*
Y2600D02*
D03*
X8530Y2300D02*
D03*
Y2600D02*
D03*
Y2000D02*
D03*
Y1700D02*
D03*
Y1400D02*
D03*
Y1100D02*
D03*
Y800D02*
D03*
Y500D02*
D03*
X4800Y2300D02*
D03*
Y2600D02*
D03*
Y2900D02*
D03*
X4500D02*
D03*
Y2600D02*
D03*
Y2300D02*
D03*
Y2000D02*
D03*
Y1700D02*
D03*
Y1400D02*
D03*
Y1100D02*
D03*
Y800D02*
D03*
Y500D02*
D03*
X16750Y6800D02*
D03*
X16450D02*
D03*
X13450D02*
D03*
X13750D02*
D03*
X14050D02*
D03*
X14350D02*
D03*
X14650D02*
D03*
X14950D02*
D03*
X15250D02*
D03*
X15550D02*
D03*
X15850D02*
D03*
X16150D02*
D03*
X16750Y7100D02*
D03*
X16450D02*
D03*
X16150D02*
D03*
X15850D02*
D03*
X15550D02*
D03*
X15250D02*
D03*
X14950D02*
D03*
X14650D02*
D03*
X14350D02*
D03*
X14050D02*
D03*
X13750D02*
D03*
X9050Y6800D02*
D03*
X9350D02*
D03*
X9650D02*
D03*
X9950D02*
D03*
X10250D02*
D03*
X10550D02*
D03*
X10850D02*
D03*
X11150D02*
D03*
X11450D02*
D03*
X11750D02*
D03*
X12050D02*
D03*
X10250Y7100D02*
D03*
X12050D02*
D03*
X11750D02*
D03*
X11450D02*
D03*
X11150D02*
D03*
X10850D02*
D03*
X10550D02*
D03*
X9950D02*
D03*
X9650D02*
D03*
X9350D02*
D03*
X9050D02*
D03*
X4250Y6800D02*
D03*
X4550D02*
D03*
X4850D02*
D03*
X5150D02*
D03*
X5450D02*
D03*
X5750D02*
D03*
X6050D02*
D03*
X6350D02*
D03*
X6650D02*
D03*
X6950D02*
D03*
X7250D02*
D03*
X4250Y7100D02*
D03*
X4550D02*
D03*
X5150D02*
D03*
X5450D02*
D03*
X5750D02*
D03*
X7250D02*
D03*
X6950D02*
D03*
X6650D02*
D03*
X6350D02*
D03*
X6050D02*
D03*
X4850D02*
D03*
X2450Y10300D02*
D03*
X1550D02*
D03*
X1250D02*
D03*
X950D02*
D03*
X650D02*
D03*
X2150D02*
D03*
X1850D02*
D03*
X2450Y10600D02*
D03*
X1550D02*
D03*
X1250D02*
D03*
X950D02*
D03*
X650D02*
D03*
X2150D02*
D03*
X1850D02*
D03*
X2450Y10900D02*
D03*
X1550D02*
D03*
X1250D02*
D03*
X950D02*
D03*
X650D02*
D03*
X2150D02*
D03*
X1850D02*
D03*
X1550Y11200D02*
D03*
X1250D02*
D03*
X1850D02*
D03*
X3350Y13000D02*
D03*
Y12700D02*
D03*
X3050Y13000D02*
D03*
Y12700D02*
D03*
X2750D02*
D03*
Y13000D02*
D03*
Y13300D02*
D03*
X2150Y13600D02*
D03*
X950D02*
D03*
X1250D02*
D03*
X1550D02*
D03*
X2450D02*
D03*
X2750D02*
D03*
X1850D02*
D03*
X2150Y11200D02*
D03*
X650D02*
D03*
X950D02*
D03*
X2450D02*
D03*
X1850Y11500D02*
D03*
X2150D02*
D03*
X650D02*
D03*
X950D02*
D03*
X1250D02*
D03*
X1550D02*
D03*
X2450D02*
D03*
X1850Y11800D02*
D03*
X2150D02*
D03*
X650D02*
D03*
X950D02*
D03*
X1250D02*
D03*
X1550D02*
D03*
X2450D02*
D03*
X1850Y12100D02*
D03*
X2150D02*
D03*
X650D02*
D03*
X950D02*
D03*
X1250D02*
D03*
X1550D02*
D03*
X2450D02*
D03*
X1850Y12400D02*
D03*
X2150D02*
D03*
X650D02*
D03*
X950D02*
D03*
X1250D02*
D03*
X1550D02*
D03*
X2450D02*
D03*
X1850Y12700D02*
D03*
X2150D02*
D03*
X650D02*
D03*
X950D02*
D03*
X1250D02*
D03*
X1550D02*
D03*
X2450D02*
D03*
X1850Y13000D02*
D03*
X2150D02*
D03*
X650D02*
D03*
X950D02*
D03*
X1250D02*
D03*
X1550D02*
D03*
X2450D02*
D03*
X1850Y13300D02*
D03*
X2150D02*
D03*
X650D02*
D03*
X950D02*
D03*
X1250D02*
D03*
X1550D02*
D03*
X2450D02*
D03*
X1850Y13600D02*
D03*
X15250Y14550D02*
D03*
Y14850D02*
D03*
Y15150D02*
D03*
Y15450D02*
D03*
Y15750D02*
D03*
Y16050D02*
D03*
Y16350D02*
D03*
Y16650D02*
D03*
Y16950D02*
D03*
Y17250D02*
D03*
Y17550D02*
D03*
Y17850D02*
D03*
D03*
X7550Y17352D02*
D03*
X2450Y13600D02*
D03*
X1550D02*
D03*
X1250D02*
D03*
X950D02*
D03*
X650D02*
D03*
X2150D02*
D03*
X2750Y13900D02*
D03*
X2450D02*
D03*
X1550D02*
D03*
X1250D02*
D03*
X950D02*
D03*
X650D02*
D03*
X2150D02*
D03*
X1850D02*
D03*
X2750Y14200D02*
D03*
X2450D02*
D03*
X1550D02*
D03*
X1250D02*
D03*
X950D02*
D03*
X650D02*
D03*
X2150D02*
D03*
X1850D02*
D03*
X2750Y14500D02*
D03*
X2450D02*
D03*
X1550D02*
D03*
X1250D02*
D03*
X950D02*
D03*
X650D02*
D03*
X2150D02*
D03*
X1850D02*
D03*
X2750Y14800D02*
D03*
X2450D02*
D03*
X1550D02*
D03*
X1250D02*
D03*
X950D02*
D03*
X650D02*
D03*
X2150D02*
D03*
X1850D02*
D03*
X2750Y15100D02*
D03*
X2450D02*
D03*
X1550D02*
D03*
X1250D02*
D03*
X950D02*
D03*
X650D02*
D03*
X2150D02*
D03*
X1850D02*
D03*
X2750Y15400D02*
D03*
X2450D02*
D03*
X1550D02*
D03*
X1250D02*
D03*
X950D02*
D03*
X650D02*
D03*
X2150D02*
D03*
X1850D02*
D03*
X2750Y15700D02*
D03*
X2450D02*
D03*
X1550D02*
D03*
X1250D02*
D03*
X950D02*
D03*
X650D02*
D03*
X2150D02*
D03*
X1850D02*
D03*
X2750Y16000D02*
D03*
X2450D02*
D03*
X1550D02*
D03*
X1250D02*
D03*
X950D02*
D03*
X650D02*
D03*
X2150D02*
D03*
X1850D02*
D03*
X2750Y16300D02*
D03*
X2450D02*
D03*
X1550D02*
D03*
X1250D02*
D03*
X950D02*
D03*
X650D02*
D03*
X2150D02*
D03*
X1850D02*
D03*
X2750Y16600D02*
D03*
X2450D02*
D03*
X1550D02*
D03*
X1250D02*
D03*
X950D02*
D03*
X650D02*
D03*
X2150D02*
D03*
X1850D02*
D03*
X2750Y16900D02*
D03*
X2450D02*
D03*
X1550D02*
D03*
X1250D02*
D03*
X950D02*
D03*
X650D02*
D03*
X2150D02*
D03*
X1850D02*
D03*
X2750Y17200D02*
D03*
X2450D02*
D03*
X1550D02*
D03*
X1250D02*
D03*
X950D02*
D03*
X650D02*
D03*
X2150D02*
D03*
X1850D02*
D03*
X2750Y17500D02*
D03*
X2450D02*
D03*
X1550D02*
D03*
X1250D02*
D03*
X950D02*
D03*
X650D02*
D03*
X2150D02*
D03*
X1850D02*
D03*
X2750Y17800D02*
D03*
X2450D02*
D03*
X1550D02*
D03*
X1250D02*
D03*
X950D02*
D03*
X650D02*
D03*
X2150D02*
D03*
X1850D02*
D03*
X2750Y18100D02*
D03*
X2450D02*
D03*
X1550D02*
D03*
X1250D02*
D03*
X950D02*
D03*
X650D02*
D03*
X2150D02*
D03*
X1850D02*
D03*
X3650Y18400D02*
D03*
X3350D02*
D03*
X3050D02*
D03*
X2750D02*
D03*
X2450D02*
D03*
X1550D02*
D03*
X2150D02*
D03*
X1850D02*
D03*
X3650Y18700D02*
D03*
X3350D02*
D03*
X3050D02*
D03*
X2750D02*
D03*
X2450D02*
D03*
X1550D02*
D03*
X2150D02*
D03*
X1850D02*
D03*
X3650Y19000D02*
D03*
X3350D02*
D03*
X3050D02*
D03*
X2750D02*
D03*
X2450D02*
D03*
X1550D02*
D03*
X2150D02*
D03*
X1850D02*
D03*
X2750Y19300D02*
D03*
X2150D02*
D03*
X1850D02*
D03*
X1550D02*
D03*
X2450D02*
D03*
X3050D02*
D03*
X3350D02*
D03*
X3650D02*
D03*
X7550Y14650D02*
D03*
Y14950D02*
D03*
Y15250D02*
D03*
Y15550D02*
D03*
Y15850D02*
D03*
Y16150D02*
D03*
Y16450D02*
D03*
Y16750D02*
D03*
Y17050D02*
D03*
X14500Y18400D02*
D03*
X14800D02*
D03*
X15100D02*
D03*
X15400D02*
D03*
X15700D02*
D03*
X16000D02*
D03*
X14500Y18700D02*
D03*
X14800D02*
D03*
X15100D02*
D03*
X15400D02*
D03*
X15700D02*
D03*
X16000D02*
D03*
X14500Y19000D02*
D03*
X14800D02*
D03*
X15100D02*
D03*
X15400D02*
D03*
X15700D02*
D03*
X16000D02*
D03*
Y19300D02*
D03*
X15700D02*
D03*
X15400D02*
D03*
X15100D02*
D03*
X14800D02*
D03*
X14500D02*
D03*
X9950Y14652D02*
D03*
X6600Y19300D02*
D03*
X7200D02*
D03*
X6900D02*
D03*
X6600Y19000D02*
D03*
X9950Y14952D02*
D03*
X9650D02*
D03*
Y14652D02*
D03*
X9350Y14952D02*
D03*
Y14652D02*
D03*
X9050Y14952D02*
D03*
Y14652D02*
D03*
X8750D02*
D03*
X9950Y17352D02*
D03*
X8750Y14952D02*
D03*
Y15252D02*
D03*
Y15552D02*
D03*
Y15852D02*
D03*
Y16152D02*
D03*
Y16452D02*
D03*
Y16752D02*
D03*
Y17052D02*
D03*
X9650Y17352D02*
D03*
X9350D02*
D03*
X9050D02*
D03*
X8750D02*
D03*
X6900Y18400D02*
D03*
X6600D02*
D03*
X7200D02*
D03*
X6900Y18700D02*
D03*
X6600D02*
D03*
X7200D02*
D03*
X6900Y19000D02*
D03*
X7200D02*
D03*
D40*
X9238Y15450D02*
D03*
M02*
