G04*
G04 #@! TF.GenerationSoftware,Altium Limited,Altium Designer,22.0.2 (36)*
G04*
G04 Layer_Color=255*
%FSLAX24Y24*%
%MOIN*%
G70*
G04*
G04 #@! TF.SameCoordinates,5AD8CBCB-7B86-44EA-BE16-98DFC8B2639C*
G04*
G04*
G04 #@! TF.FilePolarity,Positive*
G04*
G01*
G75*
%ADD17C,0.0100*%
%ADD32R,0.0585X0.0680*%
%ADD33R,0.0340X0.0318*%
%ADD34R,0.0315X0.1102*%
%ADD35R,0.0197X0.0197*%
%ADD36R,0.0157X0.0157*%
G04:AMPARAMS|DCode=37|XSize=255.9mil|YSize=196.9mil|CornerRadius=29.5mil|HoleSize=0mil|Usage=FLASHONLY|Rotation=0.000|XOffset=0mil|YOffset=0mil|HoleType=Round|Shape=RoundedRectangle|*
%AMROUNDEDRECTD37*
21,1,0.2559,0.1378,0,0,0.0*
21,1,0.1969,0.1969,0,0,0.0*
1,1,0.0591,0.0984,-0.0689*
1,1,0.0591,-0.0984,-0.0689*
1,1,0.0591,-0.0984,0.0689*
1,1,0.0591,0.0984,0.0689*
%
%ADD37ROUNDEDRECTD37*%
%ADD38C,0.1024*%
%ADD39C,0.0200*%
%ADD40C,0.0591*%
%ADD44C,0.0098*%
%ADD45O,0.0572X0.0139*%
%ADD46R,0.0318X0.0340*%
%ADD47R,0.0315X0.0354*%
%ADD48R,0.0542X0.0446*%
D17*
X20079Y0D02*
G03*
X20472Y394I0J394D01*
G01*
Y19291D02*
G03*
X20079Y19685I-394J0D01*
G01*
X394D02*
G03*
X0Y19291I0J-394D01*
G01*
Y394D02*
G03*
X394Y0I394J0D01*
G01*
Y19685D02*
X20079D01*
X394Y0D02*
X20079D01*
X0Y394D02*
Y19291D01*
X20472Y394D02*
Y19291D01*
D32*
X9573Y16600D02*
D03*
X10827D02*
D03*
X3473Y17550D02*
D03*
X4727D02*
D03*
X6927Y16600D02*
D03*
X5673D02*
D03*
X3473D02*
D03*
X4727D02*
D03*
X3473Y15650D02*
D03*
X4727D02*
D03*
X6927Y17550D02*
D03*
X5673D02*
D03*
Y15650D02*
D03*
X6927D02*
D03*
X5673Y14700D02*
D03*
X6927D02*
D03*
X15723D02*
D03*
X16977D02*
D03*
X15723Y15650D02*
D03*
X16977D02*
D03*
X14777Y14700D02*
D03*
X13523D02*
D03*
X14777Y15650D02*
D03*
X13523D02*
D03*
X14777Y16600D02*
D03*
X13523D02*
D03*
X14777Y17550D02*
D03*
X13523D02*
D03*
X15723Y16600D02*
D03*
X16977D02*
D03*
X15723Y17550D02*
D03*
X16977D02*
D03*
X4716Y14700D02*
D03*
X3462D02*
D03*
D33*
X19850Y7853D02*
D03*
Y8447D02*
D03*
X12628Y11603D02*
D03*
Y12197D02*
D03*
X7836Y11603D02*
D03*
Y12197D02*
D03*
X2994Y11603D02*
D03*
Y12197D02*
D03*
D34*
X3796Y11894D02*
D03*
X13346D02*
D03*
X8596D02*
D03*
D35*
X5430Y8384D02*
D03*
X14980D02*
D03*
X10230D02*
D03*
D36*
X5450Y11500D02*
D03*
X15000D02*
D03*
X10250D02*
D03*
D37*
X14270Y1100D02*
D03*
X6200D02*
D03*
X10270D02*
D03*
X8750Y18600D02*
D03*
X11680D02*
D03*
D38*
X630Y19055D02*
D03*
X19843D02*
D03*
Y630D02*
D03*
X630D02*
D03*
D39*
X13370Y1300D02*
D03*
X13730D02*
D03*
X14450D02*
D03*
X14810D02*
D03*
X15170D02*
D03*
X14090D02*
D03*
X13370Y1700D02*
D03*
X13730D02*
D03*
X14450D02*
D03*
X14810D02*
D03*
X15170D02*
D03*
X14090D02*
D03*
X13370Y500D02*
D03*
X13730D02*
D03*
X14450D02*
D03*
X14810D02*
D03*
X15170D02*
D03*
X14090D02*
D03*
X13370Y900D02*
D03*
X13730D02*
D03*
X14450D02*
D03*
X14810D02*
D03*
X15170D02*
D03*
X14090D02*
D03*
X5300Y1300D02*
D03*
X5660D02*
D03*
X6380D02*
D03*
X6740D02*
D03*
X7100D02*
D03*
X6020D02*
D03*
X5300Y1700D02*
D03*
X5660D02*
D03*
X6380D02*
D03*
X6740D02*
D03*
X7100D02*
D03*
X6020D02*
D03*
X5300Y500D02*
D03*
X5660D02*
D03*
X6380D02*
D03*
X6740D02*
D03*
X7100D02*
D03*
X6020D02*
D03*
X5300Y900D02*
D03*
X5660D02*
D03*
X6380D02*
D03*
X6740D02*
D03*
X7100D02*
D03*
X6020D02*
D03*
X9370Y1300D02*
D03*
X9730D02*
D03*
X10450D02*
D03*
X10810D02*
D03*
X11170D02*
D03*
X10090D02*
D03*
X9370Y1700D02*
D03*
X9730D02*
D03*
X10450D02*
D03*
X10810D02*
D03*
X11170D02*
D03*
X10090D02*
D03*
X9370Y500D02*
D03*
X9730D02*
D03*
X10450D02*
D03*
X10810D02*
D03*
X11170D02*
D03*
X10090D02*
D03*
X9370Y900D02*
D03*
X9730D02*
D03*
X10450D02*
D03*
X10810D02*
D03*
X11170D02*
D03*
X10090D02*
D03*
X8570Y18400D02*
D03*
X9650D02*
D03*
X9290D02*
D03*
X8930D02*
D03*
X8210D02*
D03*
X7850D02*
D03*
X8570Y18000D02*
D03*
X9650D02*
D03*
X9290D02*
D03*
X8930D02*
D03*
X8210D02*
D03*
X7850D02*
D03*
X8570Y19200D02*
D03*
X9650D02*
D03*
X9290D02*
D03*
X8930D02*
D03*
X8210D02*
D03*
X7850D02*
D03*
X8570Y18800D02*
D03*
X9650D02*
D03*
X9290D02*
D03*
X8930D02*
D03*
X8210D02*
D03*
X7850D02*
D03*
X11500Y18400D02*
D03*
X12580D02*
D03*
X12220D02*
D03*
X11860D02*
D03*
X11140D02*
D03*
X10780D02*
D03*
X11500Y18000D02*
D03*
X12580D02*
D03*
X12220D02*
D03*
X11860D02*
D03*
X11140D02*
D03*
X10780D02*
D03*
X11500Y19200D02*
D03*
X12580D02*
D03*
X12220D02*
D03*
X11860D02*
D03*
X11140D02*
D03*
X10780D02*
D03*
X11500Y18800D02*
D03*
X12580D02*
D03*
X12220D02*
D03*
X11860D02*
D03*
X11140D02*
D03*
X10780D02*
D03*
D40*
X11206Y15450D02*
D03*
X9238D02*
D03*
D44*
X10250Y4032D02*
D03*
Y4229D02*
D03*
Y4938D02*
D03*
Y4741D02*
D03*
X6200Y4938D02*
D03*
Y4741D02*
D03*
Y4032D02*
D03*
Y4229D02*
D03*
X14250D02*
D03*
Y4032D02*
D03*
Y4741D02*
D03*
Y4938D02*
D03*
D45*
X7909Y4881D02*
D03*
Y4625D02*
D03*
Y4369D02*
D03*
Y4113D02*
D03*
X5604Y4881D02*
D03*
Y4625D02*
D03*
Y4369D02*
D03*
Y4113D02*
D03*
X9644D02*
D03*
Y4369D02*
D03*
Y4625D02*
D03*
Y4881D02*
D03*
X11948Y4113D02*
D03*
Y4369D02*
D03*
Y4625D02*
D03*
Y4881D02*
D03*
X13664Y4113D02*
D03*
Y4369D02*
D03*
Y4625D02*
D03*
Y4881D02*
D03*
X15969Y4113D02*
D03*
Y4369D02*
D03*
Y4625D02*
D03*
Y4881D02*
D03*
D46*
X18940Y7850D02*
D03*
X18347D02*
D03*
D47*
X18913Y8700D02*
D03*
X18362D02*
D03*
X15095Y5571D02*
D03*
X14544D02*
D03*
X11075D02*
D03*
X10524D02*
D03*
X7035D02*
D03*
X6484D02*
D03*
D48*
X17594Y7906D02*
D03*
Y8694D02*
D03*
M02*
