G04*
G04 #@! TF.GenerationSoftware,Altium Limited,Altium Designer,22.0.2 (36)*
G04*
G04 Layer_Physical_Order=3*
G04 Layer_Color=16440176*
%FSLAX24Y24*%
%MOIN*%
G70*
G04*
G04 #@! TF.SameCoordinates,22A08989-F282-469C-B082-2707E795951A*
G04*
G04*
G04 #@! TF.FilePolarity,Positive*
G04*
G01*
G75*
%ADD14C,0.0100*%
%ADD47C,0.0220*%
%ADD48C,0.2362*%
%ADD50C,0.0591*%
%ADD51C,0.0200*%
G36*
X20107Y19583D02*
X20164Y19572D01*
X20217Y19550D01*
X20265Y19518D01*
X20305Y19477D01*
X20337Y19430D01*
X20359Y19376D01*
X20370Y19320D01*
X20370Y19291D01*
X20370Y8650D01*
X18168D01*
X18160Y8662D01*
Y8726D01*
X18136Y8784D01*
X18091Y8829D01*
X18032Y8854D01*
X17968D01*
X17909Y8829D01*
X17864Y8784D01*
X17840Y8726D01*
Y8662D01*
X17832Y8650D01*
X102D01*
Y19291D01*
Y19320D01*
X113Y19376D01*
X135Y19430D01*
X167Y19477D01*
X208Y19518D01*
X256Y19550D01*
X309Y19572D01*
X365Y19583D01*
X394Y19583D01*
X10983Y19583D01*
X10995Y19534D01*
X10950Y19511D01*
X10791Y19397D01*
X10653Y19259D01*
X10539Y19100D01*
X10450Y18926D01*
X10389Y18741D01*
X10359Y18548D01*
Y18352D01*
X10389Y18159D01*
X10450Y17974D01*
X10539Y17800D01*
X10653Y17641D01*
X10791Y17503D01*
X10950Y17389D01*
X11124Y17300D01*
X11309Y17239D01*
X11485Y17212D01*
X11495Y17210D01*
X11491Y17160D01*
X11483Y17160D01*
X11468D01*
X11409Y17136D01*
X11364Y17091D01*
X11340Y17032D01*
Y16968D01*
X11364Y16909D01*
X11391Y16882D01*
X11404Y16850D01*
X11391Y16818D01*
X11364Y16791D01*
X11340Y16732D01*
Y16668D01*
X11364Y16609D01*
X11391Y16582D01*
X11404Y16550D01*
X11391Y16518D01*
X11364Y16491D01*
X11340Y16432D01*
Y16368D01*
X11364Y16309D01*
X11391Y16282D01*
X11404Y16250D01*
X11391Y16218D01*
X11364Y16191D01*
X11340Y16132D01*
Y16068D01*
X11364Y16009D01*
X11409Y15964D01*
X11468Y15940D01*
X11510D01*
X11544Y15898D01*
X11545Y15894D01*
X11540Y15882D01*
Y15818D01*
X11564Y15759D01*
X11609Y15714D01*
X11668Y15690D01*
X11710D01*
X11744Y15648D01*
X11745Y15644D01*
X11740Y15632D01*
Y15568D01*
X11764Y15509D01*
X11791Y15482D01*
X11804Y15450D01*
X11791Y15418D01*
X11764Y15391D01*
X11740Y15332D01*
Y15268D01*
X11764Y15209D01*
X11779Y15194D01*
X11751Y15152D01*
X11732Y15160D01*
X11668D01*
X11609Y15136D01*
X11564Y15091D01*
X11540Y15032D01*
Y14968D01*
X11545Y14956D01*
X11544Y14952D01*
X11510Y14910D01*
X11468D01*
X11409Y14886D01*
X11364Y14841D01*
X11340Y14782D01*
Y14718D01*
X11364Y14659D01*
X11391Y14632D01*
X11404Y14600D01*
X11391Y14568D01*
X11364Y14541D01*
X11340Y14482D01*
Y14418D01*
X11364Y14359D01*
X11391Y14332D01*
X11404Y14300D01*
X11391Y14268D01*
X11364Y14241D01*
X11340Y14182D01*
Y14118D01*
X11364Y14059D01*
X11391Y14032D01*
X11404Y14000D01*
X11391Y13968D01*
X11364Y13941D01*
X11340Y13882D01*
Y13818D01*
X11364Y13759D01*
X11409Y13714D01*
X11468Y13690D01*
X11532D01*
X11591Y13714D01*
X11636Y13759D01*
X11660Y13818D01*
Y13882D01*
X11636Y13941D01*
X11609Y13968D01*
X11596Y14000D01*
X11609Y14032D01*
X11636Y14059D01*
X11660Y14118D01*
Y14182D01*
X11636Y14241D01*
X11609Y14268D01*
X11596Y14300D01*
X11609Y14332D01*
X11636Y14359D01*
X11660Y14418D01*
Y14482D01*
X11636Y14541D01*
X11609Y14568D01*
X11596Y14600D01*
X11609Y14632D01*
X11636Y14659D01*
X11660Y14718D01*
Y14782D01*
X11700Y14814D01*
X11700D01*
X11710Y14807D01*
X11740Y14768D01*
Y14718D01*
X11764Y14659D01*
X11791Y14632D01*
X11804Y14600D01*
X11791Y14568D01*
X11764Y14541D01*
X11740Y14482D01*
Y14418D01*
X11764Y14359D01*
X11791Y14332D01*
X11804Y14300D01*
X11791Y14268D01*
X11764Y14241D01*
X11740Y14182D01*
Y14118D01*
X11764Y14059D01*
X11791Y14032D01*
X11804Y14000D01*
X11791Y13968D01*
X11764Y13941D01*
X11740Y13882D01*
Y13818D01*
X11764Y13759D01*
X11809Y13714D01*
X11868Y13690D01*
X11932D01*
X11991Y13714D01*
X12036Y13759D01*
X12060Y13818D01*
Y13882D01*
X12036Y13941D01*
X12009Y13968D01*
X11996Y14000D01*
X12009Y14032D01*
X12036Y14059D01*
X12060Y14118D01*
Y14182D01*
X12036Y14241D01*
X12009Y14268D01*
X11996Y14300D01*
X12009Y14332D01*
X12036Y14359D01*
X12060Y14418D01*
Y14482D01*
X12036Y14541D01*
X12009Y14568D01*
X11996Y14600D01*
X12009Y14632D01*
X12036Y14659D01*
X12060Y14718D01*
Y14782D01*
X12100Y14814D01*
X12100D01*
X12110Y14807D01*
X12140Y14768D01*
Y14718D01*
X12164Y14659D01*
X12191Y14632D01*
X12204Y14600D01*
X12191Y14568D01*
X12164Y14541D01*
X12140Y14482D01*
Y14418D01*
X12164Y14359D01*
X12191Y14332D01*
X12204Y14300D01*
X12191Y14268D01*
X12164Y14241D01*
X12140Y14182D01*
Y14118D01*
X12164Y14059D01*
X12191Y14032D01*
X12204Y14000D01*
X12191Y13968D01*
X12164Y13941D01*
X12140Y13882D01*
Y13818D01*
X12164Y13759D01*
X12209Y13714D01*
X12268Y13690D01*
X12332D01*
X12391Y13714D01*
X12436Y13759D01*
X12460Y13818D01*
Y13882D01*
X12436Y13941D01*
X12409Y13968D01*
X12396Y14000D01*
X12409Y14032D01*
X12436Y14059D01*
X12460Y14118D01*
Y14182D01*
X12436Y14241D01*
X12409Y14268D01*
X12396Y14300D01*
X12409Y14332D01*
X12436Y14359D01*
X12460Y14418D01*
Y14482D01*
X12436Y14541D01*
X12409Y14568D01*
X12396Y14600D01*
X12409Y14632D01*
X12436Y14659D01*
X12460Y14718D01*
Y14782D01*
X12500Y14814D01*
X12500D01*
X12510Y14807D01*
X12540Y14768D01*
Y14718D01*
X12564Y14659D01*
X12591Y14632D01*
X12604Y14600D01*
X12591Y14568D01*
X12564Y14541D01*
X12540Y14482D01*
Y14418D01*
X12564Y14359D01*
X12591Y14332D01*
X12604Y14300D01*
X12591Y14268D01*
X12564Y14241D01*
X12540Y14182D01*
Y14118D01*
X12564Y14059D01*
X12591Y14032D01*
X12604Y14000D01*
X12591Y13968D01*
X12564Y13941D01*
X12540Y13882D01*
Y13818D01*
X12564Y13759D01*
X12609Y13714D01*
X12668Y13690D01*
X12732D01*
X12791Y13714D01*
X12836Y13759D01*
X12860Y13818D01*
Y13882D01*
X12836Y13941D01*
X12809Y13968D01*
X12796Y14000D01*
X12809Y14032D01*
X12836Y14059D01*
X12860Y14118D01*
Y14182D01*
X12836Y14241D01*
X12809Y14268D01*
X12796Y14300D01*
X12809Y14332D01*
X12836Y14359D01*
X12860Y14418D01*
Y14482D01*
X12836Y14541D01*
X12809Y14568D01*
X12796Y14600D01*
X12809Y14632D01*
X12836Y14659D01*
X12860Y14718D01*
Y14782D01*
X12836Y14841D01*
X12791Y14886D01*
X12732Y14910D01*
X12690D01*
X12656Y14952D01*
X12655Y14956D01*
X12660Y14968D01*
Y15032D01*
X12636Y15091D01*
X12621Y15106D01*
X12649Y15148D01*
X12668Y15140D01*
X12732D01*
X12791Y15164D01*
X12836Y15209D01*
X12860Y15268D01*
Y15332D01*
X12836Y15391D01*
X12809Y15418D01*
X12796Y15450D01*
X12809Y15482D01*
X12836Y15509D01*
X12860Y15568D01*
Y15632D01*
X12836Y15691D01*
X12791Y15736D01*
X12732Y15760D01*
X12690D01*
X12656Y15802D01*
X12655Y15806D01*
X12660Y15818D01*
Y15882D01*
X12655Y15894D01*
X12656Y15898D01*
X12690Y15940D01*
X12732D01*
X12791Y15964D01*
X12836Y16009D01*
X12860Y16068D01*
Y16132D01*
X12836Y16191D01*
X12809Y16218D01*
X12796Y16250D01*
X12809Y16282D01*
X12836Y16309D01*
X12860Y16368D01*
Y16432D01*
X12836Y16491D01*
X12809Y16518D01*
X12796Y16550D01*
X12809Y16582D01*
X12836Y16609D01*
X12860Y16668D01*
Y16732D01*
X12836Y16791D01*
X12809Y16818D01*
X12796Y16850D01*
X12809Y16882D01*
X12836Y16909D01*
X12860Y16968D01*
Y17032D01*
X12836Y17091D01*
X12791Y17136D01*
X12732Y17160D01*
X12668D01*
X12609Y17136D01*
X12564Y17091D01*
X12540Y17032D01*
Y16968D01*
X12564Y16909D01*
X12591Y16882D01*
X12604Y16850D01*
X12591Y16818D01*
X12564Y16791D01*
X12540Y16732D01*
Y16668D01*
X12564Y16609D01*
X12591Y16582D01*
X12604Y16550D01*
X12591Y16518D01*
X12564Y16491D01*
X12540Y16432D01*
Y16368D01*
X12564Y16309D01*
X12591Y16282D01*
X12604Y16250D01*
X12591Y16218D01*
X12564Y16191D01*
X12540Y16132D01*
Y16068D01*
X12500Y16036D01*
X12500D01*
X12490Y16043D01*
X12460Y16082D01*
Y16132D01*
X12436Y16191D01*
X12409Y16218D01*
X12396Y16250D01*
X12409Y16282D01*
X12436Y16309D01*
X12460Y16368D01*
Y16432D01*
X12436Y16491D01*
X12409Y16518D01*
X12396Y16550D01*
X12409Y16582D01*
X12436Y16609D01*
X12460Y16668D01*
Y16732D01*
X12436Y16791D01*
X12409Y16818D01*
X12396Y16850D01*
X12409Y16882D01*
X12436Y16909D01*
X12460Y16968D01*
Y17032D01*
X12436Y17091D01*
X12391Y17136D01*
X12332Y17160D01*
X12268D01*
X12209Y17136D01*
X12164Y17091D01*
X12140Y17032D01*
Y16968D01*
X12164Y16909D01*
X12191Y16882D01*
X12204Y16850D01*
X12191Y16818D01*
X12164Y16791D01*
X12140Y16732D01*
Y16668D01*
X12164Y16609D01*
X12191Y16582D01*
X12204Y16550D01*
X12191Y16518D01*
X12164Y16491D01*
X12140Y16432D01*
Y16368D01*
X12164Y16309D01*
X12191Y16282D01*
X12204Y16250D01*
X12191Y16218D01*
X12164Y16191D01*
X12140Y16132D01*
Y16068D01*
X12100Y16036D01*
X12100D01*
X12090Y16043D01*
X12060Y16082D01*
Y16132D01*
X12036Y16191D01*
X12009Y16218D01*
X11996Y16250D01*
X12009Y16282D01*
X12036Y16309D01*
X12060Y16368D01*
Y16432D01*
X12036Y16491D01*
X12009Y16518D01*
X11996Y16550D01*
X12009Y16582D01*
X12036Y16609D01*
X12060Y16668D01*
Y16732D01*
X12036Y16791D01*
X12009Y16818D01*
X11996Y16850D01*
X12009Y16882D01*
X12036Y16909D01*
X12060Y16968D01*
Y17032D01*
X12036Y17091D01*
X11991Y17136D01*
X11932Y17160D01*
X11868D01*
X11809Y17136D01*
X11764Y17091D01*
X11740Y17032D01*
Y16968D01*
X11764Y16909D01*
X11791Y16882D01*
X11804Y16850D01*
X11791Y16818D01*
X11764Y16791D01*
X11740Y16732D01*
Y16668D01*
X11764Y16609D01*
X11791Y16582D01*
X11804Y16550D01*
X11791Y16518D01*
X11764Y16491D01*
X11740Y16432D01*
Y16368D01*
X11764Y16309D01*
X11791Y16282D01*
X11804Y16250D01*
X11791Y16218D01*
X11764Y16191D01*
X11740Y16132D01*
Y16068D01*
X11700Y16036D01*
X11700D01*
X11690Y16043D01*
X11660Y16082D01*
Y16132D01*
X11636Y16191D01*
X11609Y16218D01*
X11596Y16250D01*
X11609Y16282D01*
X11636Y16309D01*
X11660Y16368D01*
Y16432D01*
X11636Y16491D01*
X11609Y16518D01*
X11596Y16550D01*
X11609Y16582D01*
X11636Y16609D01*
X11660Y16668D01*
Y16732D01*
X11636Y16791D01*
X11609Y16818D01*
X11596Y16850D01*
X11609Y16882D01*
X11636Y16909D01*
X11660Y16968D01*
Y17032D01*
X11636Y17091D01*
X11591Y17136D01*
X11541Y17156D01*
X11532Y17160D01*
X11534Y17209D01*
X11544Y17209D01*
X11698D01*
X11891Y17239D01*
X12076Y17300D01*
X12250Y17389D01*
X12409Y17503D01*
X12547Y17641D01*
X12661Y17800D01*
X12750Y17974D01*
X12811Y18159D01*
X12841Y18352D01*
Y18548D01*
X12811Y18741D01*
X12750Y18926D01*
X12661Y19100D01*
X12547Y19259D01*
X12409Y19397D01*
X12250Y19511D01*
X12205Y19534D01*
X12217Y19583D01*
X20079Y19583D01*
X20107Y19583D01*
D02*
G37*
G36*
X14399Y6800D02*
X14393Y6800D01*
X14387Y6799D01*
X14381Y6797D01*
X14375Y6794D01*
X14368Y6790D01*
X14361Y6786D01*
X14354Y6781D01*
X14347Y6775D01*
X14332Y6761D01*
X14261Y6832D01*
X14268Y6839D01*
X14281Y6854D01*
X14286Y6861D01*
X14290Y6868D01*
X14294Y6875D01*
X14297Y6881D01*
X14299Y6887D01*
X14300Y6893D01*
X14300Y6899D01*
X14399Y6800D01*
D02*
G37*
G36*
X9599D02*
X9593Y6800D01*
X9587Y6799D01*
X9581Y6797D01*
X9575Y6794D01*
X9568Y6790D01*
X9561Y6786D01*
X9554Y6781D01*
X9547Y6775D01*
X9532Y6761D01*
X9461Y6832D01*
X9468Y6839D01*
X9481Y6854D01*
X9486Y6861D01*
X9490Y6868D01*
X9494Y6875D01*
X9497Y6881D01*
X9499Y6887D01*
X9500Y6893D01*
X9500Y6899D01*
X9599Y6800D01*
D02*
G37*
G36*
X4899D02*
X4893Y6800D01*
X4887Y6799D01*
X4881Y6797D01*
X4875Y6794D01*
X4868Y6790D01*
X4861Y6786D01*
X4854Y6781D01*
X4847Y6775D01*
X4832Y6761D01*
X4761Y6832D01*
X4768Y6839D01*
X4781Y6854D01*
X4786Y6861D01*
X4790Y6868D01*
X4794Y6875D01*
X4797Y6881D01*
X4799Y6887D01*
X4800Y6893D01*
X4800Y6899D01*
X4899Y6800D01*
D02*
G37*
G36*
X1789Y5094D02*
X1782Y5087D01*
X1769Y5072D01*
X1764Y5065D01*
X1760Y5058D01*
X1756Y5051D01*
X1753Y5045D01*
X1751Y5039D01*
X1750Y5033D01*
X1750Y5027D01*
X1651Y5126D01*
X1657Y5126D01*
X1663Y5127D01*
X1669Y5129D01*
X1675Y5132D01*
X1682Y5136D01*
X1689Y5140D01*
X1696Y5145D01*
X1703Y5151D01*
X1718Y5165D01*
X1789Y5094D01*
D02*
G37*
G36*
X7613Y4855D02*
X7628Y4843D01*
X7635Y4838D01*
X7642Y4834D01*
X7649Y4830D01*
X7655Y4827D01*
X7661Y4825D01*
X7667Y4824D01*
X7673Y4824D01*
X7574Y4725D01*
X7574Y4731D01*
X7572Y4737D01*
X7571Y4743D01*
X7568Y4749D01*
X7564Y4756D01*
X7560Y4763D01*
X7555Y4770D01*
X7549Y4777D01*
X7535Y4792D01*
X7606Y4863D01*
X7613Y4855D01*
D02*
G37*
G36*
X1789Y4779D02*
X1782Y4772D01*
X1769Y4757D01*
X1764Y4750D01*
X1760Y4743D01*
X1756Y4736D01*
X1753Y4730D01*
X1751Y4724D01*
X1750Y4718D01*
X1750Y4712D01*
X1651Y4811D01*
X1657Y4811D01*
X1663Y4812D01*
X1669Y4814D01*
X1675Y4817D01*
X1682Y4821D01*
X1689Y4825D01*
X1696Y4830D01*
X1703Y4836D01*
X1718Y4850D01*
X1789Y4779D01*
D02*
G37*
G36*
X11918Y4624D02*
X11912Y4624D01*
X11906Y4622D01*
X11900Y4621D01*
X11894Y4618D01*
X11887Y4614D01*
X11880Y4610D01*
X11873Y4605D01*
X11866Y4599D01*
X11850Y4585D01*
X11780Y4656D01*
X11787Y4663D01*
X11800Y4678D01*
X11805Y4685D01*
X11809Y4692D01*
X11813Y4699D01*
X11815Y4705D01*
X11817Y4711D01*
X11818Y4717D01*
X11819Y4723D01*
X11918Y4624D01*
D02*
G37*
G36*
X3732Y4660D02*
X3737Y4657D01*
X3742Y4654D01*
X3749Y4651D01*
X3756Y4649D01*
X3764Y4647D01*
X3772Y4646D01*
X3782Y4645D01*
X3802Y4644D01*
Y4544D01*
X3792Y4544D01*
X3772Y4542D01*
X3764Y4541D01*
X3756Y4539D01*
X3749Y4537D01*
X3742Y4534D01*
X3737Y4531D01*
X3732Y4528D01*
X3727Y4524D01*
Y4664D01*
X3732Y4660D01*
D02*
G37*
G36*
X3366Y4524D02*
X3363Y4519D01*
X3360Y4514D01*
X3357Y4507D01*
X3355Y4500D01*
X3353Y4492D01*
X3352Y4484D01*
X3351Y4474D01*
X3350Y4453D01*
X3250D01*
X3250Y4464D01*
X3248Y4484D01*
X3247Y4492D01*
X3245Y4500D01*
X3243Y4507D01*
X3240Y4514D01*
X3237Y4519D01*
X3234Y4524D01*
X3230Y4529D01*
X3370D01*
X3366Y4524D01*
D02*
G37*
G36*
X2889Y4418D02*
X2882Y4411D01*
X2869Y4396D01*
X2864Y4389D01*
X2860Y4382D01*
X2856Y4375D01*
X2853Y4369D01*
X2851Y4363D01*
X2850Y4357D01*
X2850Y4351D01*
X2751Y4450D01*
X2757Y4450D01*
X2763Y4451D01*
X2769Y4453D01*
X2775Y4456D01*
X2782Y4460D01*
X2789Y4464D01*
X2796Y4469D01*
X2803Y4475D01*
X2818Y4489D01*
X2889Y4418D01*
D02*
G37*
G36*
X16000Y750D02*
X15352Y102D01*
X12400D01*
Y1800D01*
X13000Y2400D01*
Y2700D01*
X16000D01*
Y750D01*
D02*
G37*
G36*
X11726Y2698D02*
X11726Y2074D01*
X11945Y1855D01*
Y102D01*
X8500D01*
Y1850D01*
X8738Y2088D01*
Y2700D01*
X11725D01*
X11726Y2698D01*
D02*
G37*
G36*
X7514Y2386D02*
X8050Y1850D01*
Y102D01*
X5248D01*
X4500Y850D01*
Y2700D01*
X7514D01*
Y2386D01*
D02*
G37*
%LPC*%
G36*
X6232Y19210D02*
X6168D01*
X6109Y19186D01*
X6064Y19141D01*
X6052Y19111D01*
X5998D01*
X5986Y19141D01*
X5941Y19186D01*
X5882Y19210D01*
X5818D01*
X5759Y19186D01*
X5714Y19141D01*
X5702Y19111D01*
X5648D01*
X5636Y19141D01*
X5591Y19186D01*
X5532Y19210D01*
X5468D01*
X5409Y19186D01*
X5364Y19141D01*
X5352Y19111D01*
X5298D01*
X5286Y19141D01*
X5241Y19186D01*
X5182Y19210D01*
X5118D01*
X5059Y19186D01*
X5014Y19141D01*
X4990Y19082D01*
Y19018D01*
X5014Y18959D01*
X5059Y18914D01*
X5089Y18902D01*
Y18848D01*
X5059Y18836D01*
X5014Y18791D01*
X4990Y18732D01*
Y18668D01*
X5014Y18609D01*
X5059Y18564D01*
X5089Y18552D01*
Y18498D01*
X5059Y18486D01*
X5014Y18441D01*
X4990Y18382D01*
Y18318D01*
X5014Y18259D01*
X5059Y18214D01*
X5089Y18202D01*
Y18148D01*
X5059Y18136D01*
X5014Y18091D01*
X4990Y18032D01*
Y17968D01*
X5014Y17909D01*
X5059Y17864D01*
X5089Y17852D01*
Y17798D01*
X5059Y17786D01*
X5014Y17741D01*
X4990Y17682D01*
Y17618D01*
X5014Y17559D01*
X5059Y17514D01*
X5089Y17502D01*
Y17448D01*
X5059Y17436D01*
X5014Y17391D01*
X4990Y17332D01*
Y17268D01*
X5014Y17209D01*
X5059Y17164D01*
X5089Y17152D01*
Y17098D01*
X5059Y17086D01*
X5014Y17041D01*
X4990Y16982D01*
Y16918D01*
X5014Y16859D01*
X5059Y16814D01*
X5089Y16802D01*
Y16748D01*
X5059Y16736D01*
X5014Y16691D01*
X4990Y16632D01*
Y16568D01*
X5014Y16509D01*
X5059Y16464D01*
X5089Y16452D01*
Y16398D01*
X5059Y16386D01*
X5014Y16341D01*
X4990Y16282D01*
Y16218D01*
X5014Y16159D01*
X5059Y16114D01*
X5089Y16102D01*
Y16048D01*
X5059Y16036D01*
X5014Y15991D01*
X4990Y15932D01*
Y15868D01*
X5014Y15809D01*
X5041Y15782D01*
X5054Y15750D01*
X5041Y15718D01*
X5014Y15691D01*
X4990Y15632D01*
Y15568D01*
X5014Y15509D01*
X5059Y15464D01*
X5118Y15440D01*
X5182D01*
X5241Y15464D01*
X5286Y15509D01*
X5310Y15568D01*
Y15632D01*
X5286Y15691D01*
X5259Y15718D01*
X5246Y15750D01*
X5259Y15782D01*
X5286Y15809D01*
X5310Y15868D01*
Y15932D01*
X5286Y15991D01*
X5241Y16036D01*
X5211Y16048D01*
Y16102D01*
X5241Y16114D01*
X5286Y16159D01*
X5310Y16218D01*
Y16282D01*
X5286Y16341D01*
X5241Y16386D01*
X5211Y16398D01*
Y16452D01*
X5241Y16464D01*
X5286Y16509D01*
X5310Y16568D01*
Y16632D01*
X5286Y16691D01*
X5241Y16736D01*
X5211Y16748D01*
Y16802D01*
X5241Y16814D01*
X5286Y16859D01*
X5310Y16918D01*
Y16982D01*
X5286Y17041D01*
X5241Y17086D01*
X5211Y17098D01*
Y17152D01*
X5241Y17164D01*
X5286Y17209D01*
X5310Y17268D01*
Y17332D01*
X5286Y17391D01*
X5241Y17436D01*
X5211Y17448D01*
Y17502D01*
X5241Y17514D01*
X5286Y17559D01*
X5310Y17618D01*
Y17682D01*
X5286Y17741D01*
X5241Y17786D01*
X5211Y17798D01*
Y17852D01*
X5241Y17864D01*
X5286Y17909D01*
X5310Y17968D01*
Y18032D01*
X5286Y18091D01*
X5241Y18136D01*
X5211Y18148D01*
Y18202D01*
X5241Y18214D01*
X5286Y18259D01*
X5310Y18318D01*
Y18382D01*
X5286Y18441D01*
X5241Y18486D01*
X5211Y18498D01*
Y18552D01*
X5241Y18564D01*
X5286Y18609D01*
X5310Y18668D01*
Y18732D01*
X5286Y18791D01*
X5241Y18836D01*
X5211Y18848D01*
Y18902D01*
X5241Y18914D01*
X5286Y18959D01*
X5298Y18989D01*
X5352D01*
X5364Y18959D01*
X5409Y18914D01*
X5468Y18890D01*
X5532D01*
X5591Y18914D01*
X5636Y18959D01*
X5648Y18989D01*
X5702D01*
X5714Y18959D01*
X5759Y18914D01*
X5818Y18890D01*
X5882D01*
X5941Y18914D01*
X5986Y18959D01*
X5998Y18989D01*
X6052D01*
X6064Y18959D01*
X6109Y18914D01*
X6168Y18890D01*
X6232D01*
X6291Y18914D01*
X6336Y18959D01*
X6360Y19018D01*
Y19082D01*
X6336Y19141D01*
X6291Y19186D01*
X6232Y19210D01*
D02*
G37*
G36*
X16232Y18610D02*
X16168D01*
X16109Y18586D01*
X16082Y18559D01*
X16050Y18546D01*
X16018Y18559D01*
X15991Y18586D01*
X15932Y18610D01*
X15868D01*
X15809Y18586D01*
X15782Y18559D01*
X15750Y18546D01*
X15718Y18559D01*
X15691Y18586D01*
X15632Y18610D01*
X15568D01*
X15509Y18586D01*
X15482Y18559D01*
X15450Y18546D01*
X15418Y18559D01*
X15391Y18586D01*
X15332Y18610D01*
X15268D01*
X15209Y18586D01*
X15182Y18559D01*
X15150Y18546D01*
X15118Y18559D01*
X15091Y18586D01*
X15032Y18610D01*
X14968D01*
X14909Y18586D01*
X14882Y18559D01*
X14850Y18546D01*
X14818Y18559D01*
X14791Y18586D01*
X14732Y18610D01*
X14668D01*
X14609Y18586D01*
X14582Y18559D01*
X14550Y18546D01*
X14518Y18559D01*
X14491Y18586D01*
X14432Y18610D01*
X14368D01*
X14309Y18586D01*
X14282Y18559D01*
X14250Y18546D01*
X14218Y18559D01*
X14191Y18586D01*
X14132Y18610D01*
X14068D01*
X14009Y18586D01*
X13982Y18559D01*
X13950Y18546D01*
X13918Y18559D01*
X13891Y18586D01*
X13832Y18610D01*
X13768D01*
X13709Y18586D01*
X13682Y18559D01*
X13650Y18546D01*
X13618Y18559D01*
X13591Y18586D01*
X13532Y18610D01*
X13468D01*
X13409Y18586D01*
X13382Y18559D01*
X13350Y18546D01*
X13318Y18559D01*
X13291Y18586D01*
X13232Y18610D01*
X13168D01*
X13109Y18586D01*
X13064Y18541D01*
X13040Y18482D01*
Y18418D01*
X13064Y18359D01*
X13109Y18314D01*
X13168Y18290D01*
X13232D01*
X13291Y18314D01*
X13318Y18341D01*
X13350Y18354D01*
X13382Y18341D01*
X13409Y18314D01*
X13468Y18290D01*
X13532D01*
X13591Y18314D01*
X13618Y18341D01*
X13650Y18354D01*
X13682Y18341D01*
X13709Y18314D01*
X13720Y18310D01*
X13710Y18260D01*
X13668D01*
X13609Y18236D01*
X13564Y18191D01*
X13552Y18161D01*
X13498D01*
X13486Y18191D01*
X13441Y18236D01*
X13382Y18260D01*
X13318D01*
X13259Y18236D01*
X13232Y18209D01*
X13200Y18196D01*
X13168Y18209D01*
X13141Y18236D01*
X13082Y18260D01*
X13018D01*
X12959Y18236D01*
X12914Y18191D01*
X12890Y18132D01*
Y18068D01*
X12914Y18009D01*
X12959Y17964D01*
X13018Y17940D01*
X13082D01*
X13141Y17964D01*
X13168Y17991D01*
X13200Y18004D01*
X13232Y17991D01*
X13259Y17964D01*
X13318Y17940D01*
X13382D01*
X13441Y17964D01*
X13486Y18009D01*
X13498Y18039D01*
X13552D01*
X13564Y18009D01*
X13609Y17964D01*
X13668Y17940D01*
X13732D01*
X13791Y17964D01*
X13836Y18009D01*
X13860Y18068D01*
Y18132D01*
X13836Y18191D01*
X13791Y18236D01*
X13780Y18240D01*
X13790Y18290D01*
X13832D01*
X13891Y18314D01*
X13918Y18341D01*
X13950Y18354D01*
X13982Y18341D01*
X14009Y18314D01*
X14068Y18290D01*
X14132D01*
X14191Y18314D01*
X14218Y18341D01*
X14250Y18354D01*
X14282Y18341D01*
X14309Y18314D01*
X14368Y18290D01*
X14432D01*
X14491Y18314D01*
X14518Y18341D01*
X14550Y18354D01*
X14582Y18341D01*
X14609Y18314D01*
X14668Y18290D01*
X14732D01*
X14791Y18314D01*
X14818Y18341D01*
X14850Y18354D01*
X14882Y18341D01*
X14909Y18314D01*
X14968Y18290D01*
X15032D01*
X15091Y18314D01*
X15118Y18341D01*
X15150Y18354D01*
X15182Y18341D01*
X15209Y18314D01*
X15268Y18290D01*
X15332D01*
X15391Y18314D01*
X15418Y18341D01*
X15450Y18354D01*
X15482Y18341D01*
X15509Y18314D01*
X15568Y18290D01*
X15632D01*
X15691Y18314D01*
X15718Y18341D01*
X15750Y18354D01*
X15782Y18341D01*
X15809Y18314D01*
X15868Y18290D01*
X15932D01*
X15991Y18314D01*
X16018Y18341D01*
X16050Y18354D01*
X16082Y18341D01*
X16109Y18314D01*
X16168Y18290D01*
X16232D01*
X16291Y18314D01*
X16336Y18359D01*
X16360Y18418D01*
Y18482D01*
X16336Y18541D01*
X16291Y18586D01*
X16232Y18610D01*
D02*
G37*
G36*
X19760Y19469D02*
X19610D01*
X19464Y19430D01*
X19334Y19355D01*
X19227Y19249D01*
X19152Y19118D01*
X19113Y18973D01*
Y18822D01*
X19152Y18677D01*
X19227Y18547D01*
X19334Y18440D01*
X19464Y18365D01*
X19610Y18326D01*
X19760D01*
X19906Y18365D01*
X20036Y18440D01*
X20143Y18547D01*
X20218Y18677D01*
X20257Y18822D01*
Y18973D01*
X20218Y19118D01*
X20143Y19249D01*
X20036Y19355D01*
X19906Y19430D01*
X19760Y19469D01*
D02*
G37*
G36*
X863D02*
X712D01*
X567Y19430D01*
X436Y19355D01*
X330Y19249D01*
X255Y19118D01*
X216Y18973D01*
Y18822D01*
X255Y18677D01*
X330Y18547D01*
X436Y18440D01*
X567Y18365D01*
X712Y18326D01*
X863D01*
X1008Y18365D01*
X1138Y18440D01*
X1245Y18547D01*
X1320Y18677D01*
X1359Y18822D01*
Y18973D01*
X1320Y19118D01*
X1245Y19249D01*
X1138Y19355D01*
X1008Y19430D01*
X863Y19469D01*
D02*
G37*
G36*
X17282Y18260D02*
X17218D01*
X17159Y18236D01*
X17132Y18209D01*
X17100Y18196D01*
X17068Y18209D01*
X17041Y18236D01*
X16982Y18260D01*
X16918D01*
X16859Y18236D01*
X16832Y18209D01*
X16800Y18196D01*
X16768Y18209D01*
X16741Y18236D01*
X16682Y18260D01*
X16618D01*
X16559Y18236D01*
X16532Y18209D01*
X16500Y18196D01*
X16468Y18209D01*
X16441Y18236D01*
X16382Y18260D01*
X16318D01*
X16259Y18236D01*
X16214Y18191D01*
X16190Y18132D01*
Y18068D01*
X16214Y18009D01*
X16259Y17964D01*
X16318Y17940D01*
X16382D01*
X16441Y17964D01*
X16468Y17991D01*
X16500Y18004D01*
X16532Y17991D01*
X16559Y17964D01*
X16618Y17940D01*
X16682D01*
X16741Y17964D01*
X16768Y17991D01*
X16800Y18004D01*
X16832Y17991D01*
X16859Y17964D01*
X16918Y17940D01*
X16982D01*
X17041Y17964D01*
X17068Y17991D01*
X17100Y18004D01*
X17132Y17991D01*
X17159Y17964D01*
X17189Y17952D01*
Y17898D01*
X17159Y17886D01*
X17114Y17841D01*
X17090Y17782D01*
Y17718D01*
X17114Y17659D01*
X17141Y17632D01*
X17154Y17600D01*
X17141Y17568D01*
X17114Y17541D01*
X17090Y17482D01*
Y17418D01*
X17114Y17359D01*
X17141Y17332D01*
X17154Y17300D01*
X17141Y17268D01*
X17114Y17241D01*
X17090Y17182D01*
Y17118D01*
X17114Y17059D01*
X17141Y17032D01*
X17154Y17000D01*
X17141Y16968D01*
X17114Y16941D01*
X17090Y16882D01*
Y16818D01*
X17114Y16759D01*
X17141Y16732D01*
X17154Y16700D01*
X17141Y16668D01*
X17114Y16641D01*
X17090Y16582D01*
Y16518D01*
X17114Y16459D01*
X17141Y16432D01*
X17154Y16400D01*
X17141Y16368D01*
X17114Y16341D01*
X17090Y16282D01*
Y16218D01*
X17114Y16159D01*
X17141Y16132D01*
X17154Y16100D01*
X17141Y16068D01*
X17114Y16041D01*
X17090Y15982D01*
Y15918D01*
X17114Y15859D01*
X17141Y15832D01*
X17154Y15800D01*
X17141Y15768D01*
X17114Y15741D01*
X17090Y15682D01*
Y15618D01*
X17114Y15559D01*
X17141Y15532D01*
X17154Y15500D01*
X17141Y15468D01*
X17114Y15441D01*
X17090Y15382D01*
Y15318D01*
X17114Y15259D01*
X17141Y15232D01*
X17154Y15200D01*
X17141Y15168D01*
X17114Y15141D01*
X17090Y15082D01*
Y15018D01*
X17114Y14959D01*
X17141Y14932D01*
X17154Y14900D01*
X17141Y14868D01*
X17114Y14841D01*
X17090Y14782D01*
Y14718D01*
X17114Y14659D01*
X17141Y14632D01*
X17154Y14600D01*
X17141Y14568D01*
X17114Y14541D01*
X17090Y14482D01*
Y14418D01*
X17114Y14359D01*
X17141Y14332D01*
X17154Y14300D01*
X17141Y14268D01*
X17114Y14241D01*
X17090Y14182D01*
Y14118D01*
X17114Y14059D01*
X17141Y14032D01*
X17154Y14000D01*
X17141Y13968D01*
X17114Y13941D01*
X17090Y13882D01*
Y13818D01*
X17114Y13759D01*
X17159Y13714D01*
X17218Y13690D01*
X17282D01*
X17341Y13714D01*
X17386Y13759D01*
X17396Y13784D01*
X17450D01*
X17463Y13752D01*
X17508Y13707D01*
X17567Y13683D01*
X17631D01*
X17690Y13707D01*
X17735Y13752D01*
X17759Y13811D01*
Y13875D01*
X17735Y13933D01*
X17708Y13960D01*
X17695Y13993D01*
X17708Y14025D01*
X17735Y14052D01*
X17759Y14111D01*
Y14175D01*
X17735Y14233D01*
X17708Y14260D01*
X17695Y14293D01*
X17708Y14325D01*
X17735Y14352D01*
X17759Y14411D01*
Y14475D01*
X17735Y14533D01*
X17708Y14560D01*
X17695Y14593D01*
X17708Y14625D01*
X17735Y14652D01*
X17759Y14711D01*
Y14775D01*
X17735Y14833D01*
X17708Y14860D01*
X17695Y14893D01*
X17708Y14925D01*
X17735Y14952D01*
X17759Y15011D01*
Y15075D01*
X17735Y15133D01*
X17708Y15160D01*
X17695Y15193D01*
X17708Y15225D01*
X17735Y15252D01*
X17759Y15311D01*
Y15375D01*
X17735Y15433D01*
X17708Y15460D01*
X17695Y15493D01*
X17708Y15525D01*
X17735Y15552D01*
X17759Y15611D01*
Y15675D01*
X17735Y15733D01*
X17708Y15760D01*
X17695Y15793D01*
X17708Y15825D01*
X17735Y15852D01*
X17759Y15911D01*
Y15975D01*
X17735Y16033D01*
X17708Y16060D01*
X17695Y16093D01*
X17708Y16125D01*
X17735Y16152D01*
X17759Y16211D01*
Y16275D01*
X17735Y16333D01*
X17708Y16360D01*
X17695Y16393D01*
X17708Y16425D01*
X17735Y16452D01*
X17759Y16511D01*
Y16575D01*
X17735Y16633D01*
X17708Y16660D01*
X17695Y16693D01*
X17708Y16725D01*
X17735Y16752D01*
X17759Y16811D01*
Y16875D01*
X17735Y16933D01*
X17708Y16960D01*
X17695Y16993D01*
X17708Y17025D01*
X17735Y17052D01*
X17759Y17111D01*
Y17175D01*
X17735Y17233D01*
X17708Y17260D01*
X17695Y17293D01*
X17708Y17325D01*
X17735Y17352D01*
X17759Y17411D01*
Y17475D01*
X17735Y17533D01*
X17708Y17560D01*
X17695Y17593D01*
X17708Y17625D01*
X17735Y17652D01*
X17759Y17711D01*
Y17775D01*
X17735Y17833D01*
X17690Y17878D01*
X17660Y17891D01*
Y17945D01*
X17690Y17957D01*
X17735Y18002D01*
X17759Y18061D01*
Y18125D01*
X17735Y18183D01*
X17690Y18228D01*
X17631Y18253D01*
X17567D01*
X17508Y18228D01*
X17463Y18183D01*
X17453Y18158D01*
X17399D01*
X17386Y18191D01*
X17341Y18236D01*
X17282Y18260D01*
D02*
G37*
G36*
X3582Y16060D02*
X3518D01*
X3459Y16036D01*
X3414Y15991D01*
X3390Y15932D01*
Y15868D01*
X3414Y15809D01*
X3441Y15782D01*
X3454Y15750D01*
X3441Y15718D01*
X3414Y15691D01*
X3402Y15661D01*
X3348D01*
X3336Y15691D01*
X3291Y15736D01*
X3232Y15760D01*
X3168D01*
X3109Y15736D01*
X3064Y15691D01*
X3040Y15632D01*
Y15568D01*
X3064Y15509D01*
X3109Y15464D01*
X3168Y15440D01*
X3232D01*
X3291Y15464D01*
X3336Y15509D01*
X3348Y15539D01*
X3402D01*
X3414Y15509D01*
X3459Y15464D01*
X3518Y15440D01*
X3582D01*
X3641Y15464D01*
X3686Y15509D01*
X3710Y15568D01*
Y15632D01*
X3686Y15691D01*
X3659Y15718D01*
X3646Y15750D01*
X3659Y15782D01*
X3686Y15809D01*
X3710Y15868D01*
Y15932D01*
X3686Y15991D01*
X3641Y16036D01*
X3582Y16060D01*
D02*
G37*
G36*
X6632Y15760D02*
X6568D01*
X6509Y15736D01*
X6464Y15691D01*
X6440Y15632D01*
Y15568D01*
X6464Y15509D01*
X6509Y15464D01*
X6568Y15440D01*
X6632D01*
X6691Y15464D01*
X6736Y15509D01*
X6760Y15568D01*
Y15632D01*
X6736Y15691D01*
X6691Y15736D01*
X6632Y15760D01*
D02*
G37*
G36*
X6182Y16060D02*
X6118D01*
X6059Y16036D01*
X6014Y15991D01*
X5990Y15932D01*
Y15868D01*
X6014Y15809D01*
X6041Y15782D01*
X6054Y15750D01*
X6041Y15718D01*
X6014Y15691D01*
X5990Y15632D01*
Y15568D01*
X6014Y15509D01*
X6059Y15464D01*
X6118Y15440D01*
X6182D01*
X6241Y15464D01*
X6286Y15509D01*
X6310Y15568D01*
Y15632D01*
X6286Y15691D01*
X6259Y15718D01*
X6246Y15750D01*
X6259Y15782D01*
X6286Y15809D01*
X6310Y15868D01*
Y15932D01*
X6286Y15991D01*
X6241Y16036D01*
X6182Y16060D01*
D02*
G37*
G36*
X5682D02*
X5618D01*
X5559Y16036D01*
X5514Y15991D01*
X5490Y15932D01*
Y15868D01*
X5514Y15809D01*
X5541Y15782D01*
X5554Y15750D01*
X5541Y15718D01*
X5514Y15691D01*
X5490Y15632D01*
Y15568D01*
X5514Y15509D01*
X5559Y15464D01*
X5618Y15440D01*
X5682D01*
X5741Y15464D01*
X5786Y15509D01*
X5810Y15568D01*
Y15632D01*
X5786Y15691D01*
X5759Y15718D01*
X5746Y15750D01*
X5759Y15782D01*
X5786Y15809D01*
X5810Y15868D01*
Y15932D01*
X5786Y15991D01*
X5741Y16036D01*
X5682Y16060D01*
D02*
G37*
G36*
X4782Y19210D02*
X4718D01*
X4659Y19186D01*
X4614Y19141D01*
X4590Y19082D01*
Y19018D01*
X4614Y18959D01*
X4659Y18914D01*
X4689Y18902D01*
Y18848D01*
X4659Y18836D01*
X4614Y18791D01*
X4590Y18732D01*
Y18668D01*
X4614Y18609D01*
X4659Y18564D01*
X4689Y18552D01*
Y18498D01*
X4659Y18486D01*
X4614Y18441D01*
X4590Y18382D01*
Y18318D01*
X4614Y18259D01*
X4659Y18214D01*
X4689Y18202D01*
Y18148D01*
X4659Y18136D01*
X4614Y18091D01*
X4590Y18032D01*
Y17968D01*
X4614Y17909D01*
X4659Y17864D01*
X4689Y17852D01*
Y17798D01*
X4659Y17786D01*
X4614Y17741D01*
X4590Y17682D01*
Y17618D01*
X4614Y17559D01*
X4659Y17514D01*
X4689Y17502D01*
Y17448D01*
X4659Y17436D01*
X4614Y17391D01*
X4590Y17332D01*
Y17268D01*
X4614Y17209D01*
X4659Y17164D01*
X4689Y17152D01*
Y17098D01*
X4659Y17086D01*
X4614Y17041D01*
X4590Y16982D01*
Y16918D01*
X4614Y16859D01*
X4659Y16814D01*
X4689Y16802D01*
Y16748D01*
X4659Y16736D01*
X4614Y16691D01*
X4590Y16632D01*
Y16568D01*
X4614Y16509D01*
X4659Y16464D01*
X4689Y16452D01*
Y16398D01*
X4659Y16386D01*
X4614Y16341D01*
X4590Y16282D01*
Y16218D01*
X4614Y16159D01*
X4659Y16114D01*
X4689Y16102D01*
Y16048D01*
X4659Y16036D01*
X4614Y15991D01*
X4590Y15932D01*
Y15868D01*
X4614Y15809D01*
X4641Y15782D01*
X4654Y15750D01*
X4641Y15718D01*
X4614Y15691D01*
X4590Y15632D01*
Y15568D01*
X4614Y15509D01*
X4659Y15464D01*
X4718Y15440D01*
X4782D01*
X4841Y15464D01*
X4886Y15509D01*
X4910Y15568D01*
Y15632D01*
X4886Y15691D01*
X4859Y15718D01*
X4846Y15750D01*
X4859Y15782D01*
X4886Y15809D01*
X4910Y15868D01*
Y15932D01*
X4886Y15991D01*
X4841Y16036D01*
X4811Y16048D01*
Y16102D01*
X4841Y16114D01*
X4886Y16159D01*
X4910Y16218D01*
Y16282D01*
X4886Y16341D01*
X4841Y16386D01*
X4811Y16398D01*
Y16452D01*
X4841Y16464D01*
X4886Y16509D01*
X4910Y16568D01*
Y16632D01*
X4886Y16691D01*
X4841Y16736D01*
X4811Y16748D01*
Y16802D01*
X4841Y16814D01*
X4886Y16859D01*
X4910Y16918D01*
Y16982D01*
X4886Y17041D01*
X4841Y17086D01*
X4811Y17098D01*
Y17152D01*
X4841Y17164D01*
X4886Y17209D01*
X4910Y17268D01*
Y17332D01*
X4886Y17391D01*
X4841Y17436D01*
X4811Y17448D01*
Y17502D01*
X4841Y17514D01*
X4886Y17559D01*
X4910Y17618D01*
Y17682D01*
X4886Y17741D01*
X4841Y17786D01*
X4811Y17798D01*
Y17852D01*
X4841Y17864D01*
X4886Y17909D01*
X4910Y17968D01*
Y18032D01*
X4886Y18091D01*
X4841Y18136D01*
X4811Y18148D01*
Y18202D01*
X4841Y18214D01*
X4886Y18259D01*
X4910Y18318D01*
Y18382D01*
X4886Y18441D01*
X4841Y18486D01*
X4811Y18498D01*
Y18552D01*
X4841Y18564D01*
X4886Y18609D01*
X4910Y18668D01*
Y18732D01*
X4886Y18791D01*
X4841Y18836D01*
X4811Y18848D01*
Y18902D01*
X4841Y18914D01*
X4886Y18959D01*
X4910Y19018D01*
Y19082D01*
X4886Y19141D01*
X4841Y19186D01*
X4782Y19210D01*
D02*
G37*
G36*
X4382Y16060D02*
X4318D01*
X4259Y16036D01*
X4214Y15991D01*
X4190Y15932D01*
Y15868D01*
X4214Y15809D01*
X4241Y15782D01*
X4254Y15750D01*
X4241Y15718D01*
X4214Y15691D01*
X4190Y15632D01*
Y15568D01*
X4214Y15509D01*
X4259Y15464D01*
X4318Y15440D01*
X4382D01*
X4441Y15464D01*
X4486Y15509D01*
X4510Y15568D01*
Y15632D01*
X4486Y15691D01*
X4459Y15718D01*
X4446Y15750D01*
X4459Y15782D01*
X4486Y15809D01*
X4510Y15868D01*
Y15932D01*
X4486Y15991D01*
X4441Y16036D01*
X4382Y16060D01*
D02*
G37*
G36*
X3982D02*
X3918D01*
X3859Y16036D01*
X3814Y15991D01*
X3790Y15932D01*
Y15868D01*
X3814Y15809D01*
X3841Y15782D01*
X3854Y15750D01*
X3841Y15718D01*
X3814Y15691D01*
X3790Y15632D01*
Y15568D01*
X3814Y15509D01*
X3859Y15464D01*
X3918Y15440D01*
X3982D01*
X4041Y15464D01*
X4086Y15509D01*
X4110Y15568D01*
Y15632D01*
X4086Y15691D01*
X4059Y15718D01*
X4046Y15750D01*
X4059Y15782D01*
X4086Y15809D01*
X4110Y15868D01*
Y15932D01*
X4086Y15991D01*
X4041Y16036D01*
X3982Y16060D01*
D02*
G37*
G36*
X3232Y15360D02*
X3168D01*
X3109Y15336D01*
X3082Y15309D01*
X3050Y15296D01*
X3018Y15309D01*
X2991Y15336D01*
X2932Y15360D01*
X2868D01*
X2809Y15336D01*
X2764Y15291D01*
X2740Y15232D01*
Y15168D01*
X2764Y15109D01*
X2809Y15064D01*
X2868Y15040D01*
X2932D01*
X2991Y15064D01*
X3018Y15091D01*
X3050Y15104D01*
X3082Y15091D01*
X3109Y15064D01*
X3168Y15040D01*
X3232D01*
X3291Y15064D01*
X3336Y15109D01*
X3360Y15168D01*
Y15232D01*
X3336Y15291D01*
X3291Y15336D01*
X3232Y15360D01*
D02*
G37*
G36*
X11253Y15805D02*
X11159D01*
X11069Y15781D01*
X10988Y15734D01*
X10922Y15668D01*
X10875Y15587D01*
X10851Y15497D01*
Y15403D01*
X10875Y15313D01*
X10922Y15232D01*
X10988Y15166D01*
X11069Y15119D01*
X11159Y15095D01*
X11253D01*
X11343Y15119D01*
X11424Y15166D01*
X11491Y15232D01*
X11537Y15313D01*
X11562Y15403D01*
Y15497D01*
X11537Y15587D01*
X11491Y15668D01*
X11424Y15734D01*
X11343Y15781D01*
X11253Y15805D01*
D02*
G37*
G36*
X3232Y14960D02*
X3168D01*
X3109Y14936D01*
X3082Y14909D01*
X3050Y14896D01*
X3018Y14909D01*
X2991Y14936D01*
X2932Y14960D01*
X2868D01*
X2809Y14936D01*
X2764Y14891D01*
X2740Y14832D01*
Y14768D01*
X2764Y14709D01*
X2809Y14664D01*
X2868Y14640D01*
X2932D01*
X2991Y14664D01*
X3018Y14691D01*
X3050Y14704D01*
X3082Y14691D01*
X3109Y14664D01*
X3168Y14640D01*
X3232D01*
X3291Y14664D01*
X3336Y14709D01*
X3360Y14768D01*
Y14832D01*
X3336Y14891D01*
X3291Y14936D01*
X3232Y14960D01*
D02*
G37*
G36*
X12660Y12760D02*
X12596D01*
X12537Y12736D01*
X12492Y12691D01*
X12468Y12632D01*
Y12568D01*
X12492Y12509D01*
X12537Y12464D01*
X12596Y12440D01*
X12660D01*
X12719Y12464D01*
X12764Y12509D01*
X12788Y12568D01*
Y12632D01*
X12764Y12691D01*
X12719Y12736D01*
X12660Y12760D01*
D02*
G37*
G36*
X7868D02*
X7804D01*
X7745Y12736D01*
X7700Y12691D01*
X7676Y12632D01*
Y12568D01*
X7700Y12509D01*
X7745Y12464D01*
X7804Y12440D01*
X7868D01*
X7926Y12464D01*
X7971Y12509D01*
X7996Y12568D01*
Y12632D01*
X7971Y12691D01*
X7926Y12736D01*
X7868Y12760D01*
D02*
G37*
G36*
X3032D02*
X2968D01*
X2909Y12736D01*
X2864Y12691D01*
X2840Y12632D01*
Y12568D01*
X2864Y12509D01*
X2909Y12464D01*
X2968Y12440D01*
X3032D01*
X3091Y12464D01*
X3136Y12509D01*
X3160Y12568D01*
Y12632D01*
X3136Y12691D01*
X3091Y12736D01*
X3032Y12760D01*
D02*
G37*
G36*
X18232Y11760D02*
X18168D01*
X18109Y11736D01*
X18082Y11709D01*
X18050Y11696D01*
X18018Y11709D01*
X17991Y11736D01*
X17932Y11760D01*
X17868D01*
X17809Y11736D01*
X17782Y11709D01*
X17750Y11696D01*
X17718Y11709D01*
X17691Y11736D01*
X17632Y11760D01*
X17568D01*
X17509Y11736D01*
X17482Y11709D01*
X17450Y11696D01*
X17418Y11709D01*
X17391Y11736D01*
X17332Y11760D01*
X17268D01*
X17209Y11736D01*
X17164Y11691D01*
X17140Y11632D01*
Y11568D01*
X17164Y11509D01*
X17191Y11482D01*
X17204Y11450D01*
X17191Y11418D01*
X17164Y11391D01*
X17140Y11332D01*
Y11268D01*
X17164Y11209D01*
X17209Y11164D01*
X17268Y11140D01*
X17332D01*
X17391Y11164D01*
X17418Y11191D01*
X17450Y11204D01*
X17482Y11191D01*
X17509Y11164D01*
X17568Y11140D01*
X17632D01*
X17691Y11164D01*
X17718Y11191D01*
X17750Y11204D01*
X17782Y11191D01*
X17809Y11164D01*
X17868Y11140D01*
X17932D01*
X17991Y11164D01*
X18018Y11191D01*
X18050Y11204D01*
X18082Y11191D01*
X18109Y11164D01*
X18168Y11140D01*
X18232D01*
X18291Y11164D01*
X18336Y11209D01*
X18360Y11268D01*
Y11332D01*
X18336Y11391D01*
X18309Y11418D01*
X18296Y11450D01*
X18309Y11482D01*
X18336Y11509D01*
X18360Y11568D01*
Y11632D01*
X18336Y11691D01*
X18291Y11736D01*
X18232Y11760D01*
D02*
G37*
%LPD*%
D14*
X2750Y4350D02*
X3550Y5150D01*
X4650D02*
X5650Y6150D01*
X3550Y5150D02*
X4650D01*
X3656Y4594D02*
X4572D01*
X5030Y5052D02*
X7345D01*
X4572Y4594D02*
X5030Y5052D01*
X7345D02*
X7674Y4724D01*
X11045Y3850D02*
X11919Y4724D01*
X3300Y4350D02*
X3800Y3850D01*
X11045D01*
X3800Y5350D02*
X4900Y6450D01*
X1650Y4711D02*
X2289Y5350D01*
X3800D01*
X3550Y5550D02*
X4900Y6900D01*
X1650Y5026D02*
X2174Y5550D01*
X3550D01*
X3300Y4350D02*
Y4600D01*
X13650Y6150D02*
X14400Y6900D01*
X5650Y6150D02*
X13650D01*
X4900Y6450D02*
X9150D01*
X9600Y6900D01*
X20079Y0D02*
G03*
X20472Y394I0J394D01*
G01*
Y19291D02*
G03*
X20079Y19685I-394J0D01*
G01*
X394D02*
G03*
X0Y19291I0J-394D01*
G01*
Y394D02*
G03*
X394Y0I394J0D01*
G01*
Y19685D02*
X20079D01*
X394Y0D02*
X20079D01*
X0Y394D02*
Y19291D01*
X20472Y394D02*
Y19291D01*
D47*
X8850Y19050D02*
D03*
X8426Y18874D02*
D03*
X8250Y18450D02*
D03*
X8426Y18026D02*
D03*
X8850Y17850D02*
D03*
X9274Y18026D02*
D03*
X9450Y18450D02*
D03*
X9274Y18874D02*
D03*
X10224Y1750D02*
D03*
X9800Y1574D02*
D03*
X9624Y1150D02*
D03*
X9800Y726D02*
D03*
X10224Y550D02*
D03*
X10649Y726D02*
D03*
X10824Y1150D02*
D03*
X10649Y1574D02*
D03*
X6600Y1750D02*
D03*
X6176Y1574D02*
D03*
X6000Y1150D02*
D03*
X6176Y726D02*
D03*
X6600Y550D02*
D03*
X7024Y726D02*
D03*
X7200Y1150D02*
D03*
X7024Y1574D02*
D03*
X14274D02*
D03*
X14450Y1150D02*
D03*
X14274Y726D02*
D03*
X13850Y550D02*
D03*
X13426Y726D02*
D03*
X13250Y1150D02*
D03*
X13426Y1574D02*
D03*
X13850Y1750D02*
D03*
D48*
X8850Y18450D02*
D03*
X10224Y1150D02*
D03*
X6600D02*
D03*
X13850D02*
D03*
D50*
X9238Y15450D02*
D03*
D51*
X18200Y10650D02*
D03*
Y10400D02*
D03*
Y10150D02*
D03*
Y9900D02*
D03*
Y9650D02*
D03*
Y9400D02*
D03*
Y9150D02*
D03*
X17900Y10650D02*
D03*
Y10400D02*
D03*
Y10150D02*
D03*
Y9900D02*
D03*
Y9650D02*
D03*
Y9400D02*
D03*
Y9150D02*
D03*
X17600D02*
D03*
Y9400D02*
D03*
Y9650D02*
D03*
Y9900D02*
D03*
Y10150D02*
D03*
Y10400D02*
D03*
Y10650D02*
D03*
X2250Y10167D02*
D03*
Y9867D02*
D03*
Y9567D02*
D03*
Y9267D02*
D03*
Y8967D02*
D03*
X1950D02*
D03*
Y9267D02*
D03*
Y9567D02*
D03*
Y9867D02*
D03*
Y10167D02*
D03*
X2250Y10467D02*
D03*
X1950D02*
D03*
X1650D02*
D03*
Y10167D02*
D03*
Y9867D02*
D03*
Y9567D02*
D03*
Y9267D02*
D03*
Y8967D02*
D03*
X1650Y10750D02*
D03*
Y11050D02*
D03*
Y11350D02*
D03*
Y11650D02*
D03*
Y11950D02*
D03*
Y12250D02*
D03*
X1950D02*
D03*
X2250D02*
D03*
X1950Y11950D02*
D03*
Y11650D02*
D03*
Y11350D02*
D03*
Y11050D02*
D03*
Y10750D02*
D03*
X2250D02*
D03*
Y11050D02*
D03*
Y11350D02*
D03*
Y11650D02*
D03*
Y11950D02*
D03*
X2900Y13900D02*
D03*
Y13550D02*
D03*
X15000Y13350D02*
D03*
X3200Y13900D02*
D03*
Y13550D02*
D03*
X7650Y14150D02*
D03*
Y13850D02*
D03*
Y13550D02*
D03*
X7250Y13850D02*
D03*
Y13550D02*
D03*
X8600D02*
D03*
X9000D02*
D03*
X15000Y17650D02*
D03*
Y17250D02*
D03*
Y16750D02*
D03*
Y16300D02*
D03*
Y15750D02*
D03*
Y15350D02*
D03*
Y14850D02*
D03*
Y14300D02*
D03*
Y13800D02*
D03*
X8600Y13850D02*
D03*
X9000D02*
D03*
X8600Y14150D02*
D03*
X9000D02*
D03*
X8600Y14450D02*
D03*
X9000D02*
D03*
X8600Y14750D02*
D03*
X9000D02*
D03*
X8400Y15050D02*
D03*
X8788D02*
D03*
X8200Y16100D02*
D03*
X8600Y15300D02*
D03*
X7800Y17350D02*
D03*
X8200Y15600D02*
D03*
X8000Y15850D02*
D03*
X7800Y17000D02*
D03*
Y16700D02*
D03*
Y16400D02*
D03*
Y16100D02*
D03*
X8600Y15600D02*
D03*
X8400Y15850D02*
D03*
X8200Y16400D02*
D03*
Y16700D02*
D03*
Y17000D02*
D03*
X8600D02*
D03*
Y16700D02*
D03*
Y16400D02*
D03*
Y16100D02*
D03*
X8800Y15850D02*
D03*
X9000Y16100D02*
D03*
Y16400D02*
D03*
Y16700D02*
D03*
Y17000D02*
D03*
X14600Y2350D02*
D03*
X15650D02*
D03*
X15400D02*
D03*
X15100D02*
D03*
X14850D02*
D03*
X15050Y350D02*
D03*
X15400D02*
D03*
X15550Y550D02*
D03*
X15250D02*
D03*
X15700Y750D02*
D03*
X15400D02*
D03*
X15250Y950D02*
D03*
X15800D02*
D03*
X15550D02*
D03*
X15400Y1150D02*
D03*
X15650D02*
D03*
X15800Y1350D02*
D03*
X15550D02*
D03*
X15400Y1550D02*
D03*
X15650D02*
D03*
X15800Y1750D02*
D03*
X15250D02*
D03*
X15550D02*
D03*
X15650Y1950D02*
D03*
X15400D02*
D03*
X15100D02*
D03*
X15800Y2150D02*
D03*
X15550D02*
D03*
X15250D02*
D03*
X15000D02*
D03*
X14750D02*
D03*
X13200Y2350D02*
D03*
X13000Y2150D02*
D03*
X11050Y2350D02*
D03*
X11350D02*
D03*
X9400D02*
D03*
X9100D02*
D03*
X6050Y2400D02*
D03*
X5750D02*
D03*
X7250Y2350D02*
D03*
X5450Y2400D02*
D03*
X5150D02*
D03*
X4850D02*
D03*
X4700Y2200D02*
D03*
X7450D02*
D03*
X5600D02*
D03*
X5300D02*
D03*
X5000D02*
D03*
X12800Y2000D02*
D03*
X12650Y1800D02*
D03*
X12558Y860D02*
D03*
Y1090D02*
D03*
Y1550D02*
D03*
Y1320D02*
D03*
Y630D02*
D03*
Y400D02*
D03*
X11300Y350D02*
D03*
X11600D02*
D03*
X11450Y600D02*
D03*
X11750D02*
D03*
X11600Y800D02*
D03*
X11800Y950D02*
D03*
X11600Y1150D02*
D03*
X11800Y1350D02*
D03*
X11600Y1550D02*
D03*
X11800Y1750D02*
D03*
X11450D02*
D03*
X11650Y1950D02*
D03*
X11350D02*
D03*
X11500Y2150D02*
D03*
X11200D02*
D03*
X9100Y350D02*
D03*
X8800D02*
D03*
X8950Y550D02*
D03*
X8650D02*
D03*
X8800Y750D02*
D03*
X8650Y950D02*
D03*
X8800Y1150D02*
D03*
X8650Y1350D02*
D03*
X8800Y1550D02*
D03*
X8650Y1750D02*
D03*
X8950D02*
D03*
X8800Y1950D02*
D03*
X9100D02*
D03*
X8950Y2150D02*
D03*
X9250D02*
D03*
X7900Y400D02*
D03*
Y630D02*
D03*
Y1320D02*
D03*
Y1550D02*
D03*
Y1090D02*
D03*
Y860D02*
D03*
X7800Y1800D02*
D03*
X7650Y2000D02*
D03*
X5450Y400D02*
D03*
X5300Y600D02*
D03*
X5150Y400D02*
D03*
X5000Y600D02*
D03*
X4850Y800D02*
D03*
X5150D02*
D03*
X4700Y1000D02*
D03*
X5000D02*
D03*
X4850Y1200D02*
D03*
X5150D02*
D03*
X4700Y1400D02*
D03*
X5000D02*
D03*
X5150Y1600D02*
D03*
X4850D02*
D03*
X5300Y1800D02*
D03*
X5000D02*
D03*
X4700D02*
D03*
X4850Y2000D02*
D03*
X5150D02*
D03*
X5450D02*
D03*
X11919Y4724D02*
D03*
X3300Y4600D02*
D03*
X3656Y4594D02*
D03*
X2750Y4350D02*
D03*
X7674Y4724D02*
D03*
X14400Y6900D02*
D03*
X9600D02*
D03*
X1650Y4711D02*
D03*
Y5026D02*
D03*
X4900Y6900D02*
D03*
M02*
