G04*
G04 #@! TF.GenerationSoftware,Altium Limited,Altium Designer,22.0.2 (36)*
G04*
G04 Layer_Physical_Order=2*
G04 Layer_Color=36540*
%FSLAX24Y24*%
%MOIN*%
G70*
G04*
G04 #@! TF.SameCoordinates,22A08989-F282-469C-B082-2707E795951A*
G04*
G04*
G04 #@! TF.FilePolarity,Positive*
G04*
G01*
G75*
%ADD14C,0.0100*%
%ADD47C,0.0220*%
%ADD48C,0.2362*%
%ADD50C,0.0591*%
%ADD51C,0.0200*%
G36*
X20107Y19583D02*
X20164Y19572D01*
X20217Y19550D01*
X20265Y19518D01*
X20305Y19477D01*
X20337Y19430D01*
X20359Y19376D01*
X20370Y19320D01*
X20370Y19291D01*
X20370Y10950D01*
X2436D01*
X2402Y11000D01*
X2410Y11018D01*
Y11082D01*
X2386Y11141D01*
X2359Y11168D01*
X2346Y11200D01*
X2359Y11232D01*
X2386Y11259D01*
X2410Y11318D01*
Y11382D01*
X2386Y11441D01*
X2359Y11468D01*
X2346Y11500D01*
X2359Y11532D01*
X2386Y11559D01*
X2410Y11618D01*
Y11682D01*
X2386Y11741D01*
X2359Y11768D01*
X2346Y11800D01*
X2359Y11832D01*
X2386Y11859D01*
X2410Y11918D01*
Y11982D01*
X2386Y12041D01*
X2359Y12068D01*
X2346Y12100D01*
X2359Y12132D01*
X2386Y12159D01*
X2410Y12218D01*
Y12282D01*
X2386Y12341D01*
X2341Y12386D01*
X2282Y12410D01*
X2218D01*
X2159Y12386D01*
X2132Y12359D01*
X2100Y12346D01*
X2068Y12359D01*
X2041Y12386D01*
X1982Y12410D01*
X1918D01*
X1859Y12386D01*
X1832Y12359D01*
X1800Y12346D01*
X1768Y12359D01*
X1741Y12386D01*
X1682Y12410D01*
X1618D01*
X1559Y12386D01*
X1514Y12341D01*
X1490Y12282D01*
Y12218D01*
X1514Y12159D01*
X1541Y12132D01*
X1554Y12100D01*
X1541Y12068D01*
X1514Y12041D01*
X1490Y11982D01*
Y11918D01*
X1514Y11859D01*
X1541Y11832D01*
X1554Y11800D01*
X1541Y11768D01*
X1514Y11741D01*
X1490Y11682D01*
Y11618D01*
X1514Y11559D01*
X1541Y11532D01*
X1554Y11500D01*
X1541Y11468D01*
X1514Y11441D01*
X1490Y11382D01*
Y11318D01*
X1514Y11259D01*
X1541Y11232D01*
X1554Y11200D01*
X1541Y11168D01*
X1514Y11141D01*
X1490Y11082D01*
Y11018D01*
X1498Y11000D01*
X1464Y10950D01*
X102D01*
Y19291D01*
Y19320D01*
X113Y19376D01*
X135Y19430D01*
X167Y19477D01*
X208Y19518D01*
X256Y19550D01*
X309Y19572D01*
X365Y19583D01*
X394Y19583D01*
X8233Y19583D01*
X8245Y19534D01*
X8200Y19511D01*
X8041Y19397D01*
X7903Y19259D01*
X7789Y19100D01*
X7700Y18926D01*
X7639Y18741D01*
X7609Y18548D01*
Y18352D01*
X7639Y18159D01*
X7700Y17974D01*
X7789Y17800D01*
X7903Y17641D01*
X8041Y17503D01*
X8200Y17389D01*
X8374Y17300D01*
X8559Y17239D01*
X8752Y17209D01*
X8948D01*
X9141Y17239D01*
X9326Y17300D01*
X9500Y17389D01*
X9659Y17503D01*
X9797Y17641D01*
X9911Y17800D01*
X10000Y17974D01*
X10061Y18159D01*
X10091Y18352D01*
Y18548D01*
X10061Y18741D01*
X10000Y18926D01*
X9911Y19100D01*
X9797Y19259D01*
X9659Y19397D01*
X9500Y19511D01*
X9455Y19534D01*
X9467Y19583D01*
X20079Y19583D01*
X20107Y19583D01*
D02*
G37*
G36*
X16800Y7584D02*
Y6450D01*
X16500Y6150D01*
X13400D01*
X13100Y6450D01*
Y7600D01*
X13400Y7900D01*
X16484D01*
X16800Y7584D01*
D02*
G37*
G36*
X12061D02*
Y6450D01*
X11761Y6150D01*
X8661D01*
X8361Y6450D01*
Y7600D01*
X8661Y7900D01*
X11746D01*
X12061Y7584D01*
D02*
G37*
G36*
X7500D02*
Y6450D01*
X7200Y6150D01*
X4100D01*
X3800Y6450D01*
Y7600D01*
X4100Y7900D01*
X7184D01*
X7500Y7584D01*
D02*
G37*
G36*
X19244Y8543D02*
X19244Y6000D01*
X19394Y5850D01*
X20094D01*
Y4000D01*
X12626D01*
X12598Y4042D01*
X12601Y4048D01*
Y4112D01*
X12577Y4171D01*
X12532Y4216D01*
X12473Y4240D01*
X12409D01*
X12350Y4216D01*
X12305Y4171D01*
X12281Y4112D01*
Y4048D01*
X12284Y4042D01*
X12256Y4000D01*
X8350D01*
X8317Y4050D01*
X8325Y4068D01*
Y4132D01*
X8300Y4191D01*
X8255Y4236D01*
X8196Y4260D01*
X8133D01*
X8074Y4236D01*
X8029Y4191D01*
X8005Y4132D01*
Y4068D01*
X8012Y4050D01*
X7979Y4000D01*
X4644D01*
X4494Y4150D01*
X4494Y5650D01*
X4694Y5850D01*
X17120D01*
X17130Y5800D01*
X17109Y5792D01*
X17064Y5747D01*
X17040Y5688D01*
Y5624D01*
X17064Y5565D01*
X17102Y5528D01*
X17106Y5498D01*
X17102Y5469D01*
X17064Y5432D01*
X17040Y5373D01*
Y5309D01*
X17064Y5250D01*
X17102Y5213D01*
X17106Y5183D01*
X17102Y5154D01*
X17064Y5117D01*
X17040Y5058D01*
Y4994D01*
X17064Y4935D01*
X17109Y4890D01*
X17168Y4866D01*
X17232D01*
X17291Y4890D01*
X17336Y4935D01*
X17360Y4994D01*
Y5058D01*
X17336Y5117D01*
X17298Y5154D01*
X17294Y5183D01*
X17298Y5213D01*
X17336Y5250D01*
X17360Y5309D01*
Y5373D01*
X17336Y5432D01*
X17298Y5469D01*
X17294Y5498D01*
X17298Y5528D01*
X17336Y5565D01*
X17360Y5624D01*
Y5688D01*
X17336Y5747D01*
X17291Y5792D01*
X17270Y5800D01*
X17280Y5850D01*
X18494D01*
X18644Y6000D01*
X18644Y8507D01*
X18679Y8543D01*
X19244Y8543D01*
D02*
G37*
G36*
X16000Y750D02*
X15352Y102D01*
X12400D01*
Y1800D01*
X13000Y2400D01*
Y2700D01*
X16000D01*
Y750D01*
D02*
G37*
G36*
X11726Y2698D02*
Y2074D01*
X11950Y1850D01*
X11950D01*
Y102D01*
X8512D01*
Y1838D01*
X8500Y1850D01*
X8738Y2088D01*
Y2665D01*
X8773Y2700D01*
X11726Y2698D01*
D02*
G37*
G36*
X7533Y2367D02*
X8050Y1850D01*
Y102D01*
X5248D01*
X4500Y850D01*
Y2700D01*
X7533D01*
Y2367D01*
D02*
G37*
%LPC*%
G36*
X19760Y19469D02*
X19610D01*
X19464Y19430D01*
X19334Y19355D01*
X19227Y19249D01*
X19152Y19118D01*
X19113Y18973D01*
Y18822D01*
X19152Y18677D01*
X19227Y18547D01*
X19334Y18440D01*
X19464Y18365D01*
X19610Y18326D01*
X19760D01*
X19906Y18365D01*
X20036Y18440D01*
X20143Y18547D01*
X20218Y18677D01*
X20257Y18822D01*
Y18973D01*
X20218Y19118D01*
X20143Y19249D01*
X20036Y19355D01*
X19906Y19430D01*
X19760Y19469D01*
D02*
G37*
G36*
X863D02*
X712D01*
X567Y19430D01*
X436Y19355D01*
X330Y19249D01*
X255Y19118D01*
X216Y18973D01*
Y18822D01*
X255Y18677D01*
X330Y18547D01*
X436Y18440D01*
X567Y18365D01*
X712Y18326D01*
X863D01*
X1008Y18365D01*
X1138Y18440D01*
X1245Y18547D01*
X1320Y18677D01*
X1359Y18822D01*
Y18973D01*
X1320Y19118D01*
X1245Y19249D01*
X1138Y19355D01*
X1008Y19430D01*
X863Y19469D01*
D02*
G37*
G36*
X15032Y17810D02*
X14968D01*
X14909Y17786D01*
X14864Y17741D01*
X14840Y17682D01*
Y17618D01*
X14864Y17559D01*
X14909Y17514D01*
X14968Y17490D01*
X15032D01*
X15091Y17514D01*
X15136Y17559D01*
X15160Y17618D01*
Y17682D01*
X15136Y17741D01*
X15091Y17786D01*
X15032Y17810D01*
D02*
G37*
G36*
Y17410D02*
X14968D01*
X14909Y17386D01*
X14864Y17341D01*
X14840Y17282D01*
Y17218D01*
X14864Y17159D01*
X14909Y17114D01*
X14968Y17090D01*
X15032D01*
X15091Y17114D01*
X15136Y17159D01*
X15160Y17218D01*
Y17282D01*
X15136Y17341D01*
X15091Y17386D01*
X15032Y17410D01*
D02*
G37*
G36*
Y16910D02*
X14968D01*
X14909Y16886D01*
X14864Y16841D01*
X14840Y16782D01*
Y16718D01*
X14864Y16659D01*
X14909Y16614D01*
X14968Y16590D01*
X15032D01*
X15091Y16614D01*
X15136Y16659D01*
X15160Y16718D01*
Y16782D01*
X15136Y16841D01*
X15091Y16886D01*
X15032Y16910D01*
D02*
G37*
G36*
Y16460D02*
X14968D01*
X14909Y16436D01*
X14864Y16391D01*
X14840Y16332D01*
Y16268D01*
X14864Y16209D01*
X14909Y16164D01*
X14968Y16140D01*
X15032D01*
X15091Y16164D01*
X15136Y16209D01*
X15160Y16268D01*
Y16332D01*
X15136Y16391D01*
X15091Y16436D01*
X15032Y16460D01*
D02*
G37*
G36*
Y15910D02*
X14968D01*
X14909Y15886D01*
X14864Y15841D01*
X14840Y15782D01*
Y15718D01*
X14864Y15659D01*
X14909Y15614D01*
X14968Y15590D01*
X15032D01*
X15091Y15614D01*
X15136Y15659D01*
X15160Y15718D01*
Y15782D01*
X15136Y15841D01*
X15091Y15886D01*
X15032Y15910D01*
D02*
G37*
G36*
Y15510D02*
X14968D01*
X14909Y15486D01*
X14864Y15441D01*
X14840Y15382D01*
Y15318D01*
X14864Y15259D01*
X14909Y15214D01*
X14968Y15190D01*
X15032D01*
X15091Y15214D01*
X15136Y15259D01*
X15160Y15318D01*
Y15382D01*
X15136Y15441D01*
X15091Y15486D01*
X15032Y15510D01*
D02*
G37*
G36*
X9285Y15805D02*
X9191D01*
X9101Y15781D01*
X9020Y15734D01*
X8953Y15668D01*
X8907Y15587D01*
X8882Y15497D01*
Y15403D01*
X8907Y15313D01*
X8953Y15232D01*
X9020Y15166D01*
X9101Y15119D01*
X9191Y15095D01*
X9285D01*
X9375Y15119D01*
X9456Y15166D01*
X9522Y15232D01*
X9569Y15313D01*
X9593Y15403D01*
Y15497D01*
X9569Y15587D01*
X9522Y15668D01*
X9456Y15734D01*
X9375Y15781D01*
X9285Y15805D01*
D02*
G37*
G36*
X15032Y15010D02*
X14968D01*
X14909Y14986D01*
X14864Y14941D01*
X14840Y14882D01*
Y14818D01*
X14864Y14759D01*
X14909Y14714D01*
X14968Y14690D01*
X15032D01*
X15091Y14714D01*
X15136Y14759D01*
X15160Y14818D01*
Y14882D01*
X15136Y14941D01*
X15091Y14986D01*
X15032Y15010D01*
D02*
G37*
G36*
Y14460D02*
X14968D01*
X14909Y14436D01*
X14864Y14391D01*
X14840Y14332D01*
Y14268D01*
X14864Y14209D01*
X14909Y14164D01*
X14968Y14140D01*
X15032D01*
X15091Y14164D01*
X15136Y14209D01*
X15160Y14268D01*
Y14332D01*
X15136Y14391D01*
X15091Y14436D01*
X15032Y14460D01*
D02*
G37*
G36*
X3232Y14060D02*
X3168D01*
X3109Y14036D01*
X3082Y14009D01*
X3050Y13996D01*
X3018Y14009D01*
X2991Y14036D01*
X2932Y14060D01*
X2868D01*
X2809Y14036D01*
X2764Y13991D01*
X2740Y13932D01*
Y13868D01*
X2764Y13809D01*
X2809Y13764D01*
X2839Y13752D01*
Y13698D01*
X2809Y13686D01*
X2764Y13641D01*
X2740Y13582D01*
Y13518D01*
X2764Y13459D01*
X2809Y13414D01*
X2868Y13390D01*
X2932D01*
X2991Y13414D01*
X3018Y13441D01*
X3050Y13454D01*
X3082Y13441D01*
X3109Y13414D01*
X3168Y13390D01*
X3232D01*
X3291Y13414D01*
X3336Y13459D01*
X3360Y13518D01*
Y13582D01*
X3336Y13641D01*
X3291Y13686D01*
X3261Y13698D01*
Y13752D01*
X3291Y13764D01*
X3336Y13809D01*
X3360Y13868D01*
Y13932D01*
X3336Y13991D01*
X3291Y14036D01*
X3232Y14060D01*
D02*
G37*
G36*
X15032Y13960D02*
X14968D01*
X14909Y13936D01*
X14864Y13891D01*
X14840Y13832D01*
Y13768D01*
X14864Y13709D01*
X14909Y13664D01*
X14968Y13640D01*
X15032D01*
X15091Y13664D01*
X15136Y13709D01*
X15160Y13768D01*
Y13832D01*
X15136Y13891D01*
X15091Y13936D01*
X15032Y13960D01*
D02*
G37*
G36*
X7832Y17510D02*
X7768D01*
X7709Y17486D01*
X7664Y17441D01*
X7640Y17382D01*
Y17318D01*
X7664Y17259D01*
X7709Y17214D01*
X7739Y17202D01*
Y17148D01*
X7709Y17136D01*
X7664Y17091D01*
X7640Y17032D01*
Y16968D01*
X7664Y16909D01*
X7691Y16882D01*
X7704Y16850D01*
X7691Y16818D01*
X7664Y16791D01*
X7640Y16732D01*
Y16668D01*
X7664Y16609D01*
X7691Y16582D01*
X7704Y16550D01*
X7691Y16518D01*
X7664Y16491D01*
X7640Y16432D01*
Y16368D01*
X7664Y16309D01*
X7691Y16282D01*
X7704Y16250D01*
X7691Y16218D01*
X7664Y16191D01*
X7640Y16132D01*
Y16068D01*
X7664Y16009D01*
X7709Y15964D01*
X7768Y15940D01*
X7810D01*
X7844Y15898D01*
X7845Y15894D01*
X7840Y15882D01*
Y15818D01*
X7864Y15759D01*
X7909Y15714D01*
X7968Y15690D01*
X8010D01*
X8044Y15648D01*
X8045Y15644D01*
X8040Y15632D01*
Y15568D01*
X8064Y15509D01*
X8109Y15464D01*
X8168Y15440D01*
X8232D01*
X8291Y15464D01*
X8336Y15509D01*
X8360Y15568D01*
Y15632D01*
X8400Y15664D01*
X8400D01*
X8410Y15657D01*
X8440Y15618D01*
Y15568D01*
X8464Y15509D01*
X8491Y15482D01*
X8504Y15450D01*
X8491Y15418D01*
X8464Y15391D01*
X8440Y15332D01*
Y15268D01*
X8445Y15256D01*
X8444Y15252D01*
X8410Y15210D01*
X8368D01*
X8309Y15186D01*
X8264Y15141D01*
X8240Y15082D01*
Y15018D01*
X8264Y14959D01*
X8309Y14914D01*
X8368Y14890D01*
X8432D01*
X8451Y14898D01*
X8479Y14856D01*
X8464Y14841D01*
X8440Y14782D01*
Y14718D01*
X8464Y14659D01*
X8491Y14632D01*
X8504Y14600D01*
X8491Y14568D01*
X8464Y14541D01*
X8440Y14482D01*
Y14418D01*
X8464Y14359D01*
X8491Y14332D01*
X8504Y14300D01*
X8491Y14268D01*
X8464Y14241D01*
X8440Y14182D01*
Y14118D01*
X8464Y14059D01*
X8491Y14032D01*
X8504Y14000D01*
X8491Y13968D01*
X8464Y13941D01*
X8440Y13882D01*
Y13818D01*
X8464Y13759D01*
X8491Y13732D01*
X8504Y13700D01*
X8491Y13668D01*
X8464Y13641D01*
X8440Y13582D01*
Y13518D01*
X8464Y13459D01*
X8509Y13414D01*
X8568Y13390D01*
X8632D01*
X8691Y13414D01*
X8736Y13459D01*
X8760Y13518D01*
Y13582D01*
X8736Y13641D01*
X8709Y13668D01*
X8696Y13700D01*
X8709Y13732D01*
X8736Y13759D01*
X8760Y13818D01*
Y13882D01*
X8736Y13941D01*
X8709Y13968D01*
X8696Y14000D01*
X8709Y14032D01*
X8736Y14059D01*
X8760Y14118D01*
Y14182D01*
X8736Y14241D01*
X8709Y14268D01*
X8696Y14300D01*
X8709Y14332D01*
X8736Y14359D01*
X8760Y14418D01*
Y14482D01*
X8736Y14541D01*
X8709Y14568D01*
X8696Y14600D01*
X8709Y14632D01*
X8736Y14659D01*
X8760Y14718D01*
Y14782D01*
X8736Y14841D01*
X8729Y14847D01*
X8754Y14887D01*
X8757Y14890D01*
X8820D01*
X8860Y14907D01*
X8887Y14865D01*
D01*
X8887Y14865D01*
X8864Y14841D01*
X8859Y14828D01*
X8840Y14782D01*
Y14718D01*
X8864Y14659D01*
X8891Y14632D01*
X8904Y14600D01*
X8891Y14568D01*
X8864Y14541D01*
X8840Y14482D01*
Y14418D01*
X8864Y14359D01*
X8891Y14332D01*
X8904Y14300D01*
X8891Y14268D01*
X8864Y14241D01*
X8840Y14182D01*
Y14118D01*
X8864Y14059D01*
X8891Y14032D01*
X8904Y14000D01*
X8891Y13968D01*
X8864Y13941D01*
X8840Y13882D01*
Y13818D01*
X8864Y13759D01*
X8891Y13732D01*
X8904Y13700D01*
X8891Y13668D01*
X8864Y13641D01*
X8840Y13582D01*
Y13518D01*
X8864Y13459D01*
X8909Y13414D01*
X8968Y13390D01*
X9032D01*
X9091Y13414D01*
X9136Y13459D01*
X9160Y13518D01*
Y13582D01*
X9136Y13641D01*
X9109Y13668D01*
X9096Y13700D01*
X9109Y13732D01*
X9136Y13759D01*
X9160Y13818D01*
Y13882D01*
X9136Y13941D01*
X9109Y13968D01*
X9096Y14000D01*
X9109Y14032D01*
X9136Y14059D01*
X9160Y14118D01*
Y14182D01*
X9136Y14241D01*
X9109Y14268D01*
X9096Y14300D01*
X9109Y14332D01*
X9136Y14359D01*
X9160Y14418D01*
Y14482D01*
X9136Y14541D01*
X9109Y14568D01*
X9096Y14600D01*
X9109Y14632D01*
X9136Y14659D01*
X9160Y14718D01*
Y14782D01*
X9136Y14841D01*
X9091Y14886D01*
X9032Y14910D01*
X8968D01*
X8928Y14893D01*
X8901Y14935D01*
D01*
X8901Y14935D01*
X8923Y14959D01*
X8928Y14972D01*
X8948Y15018D01*
Y15082D01*
X8923Y15141D01*
X8878Y15186D01*
X8820Y15210D01*
X8790D01*
X8757Y15260D01*
X8760Y15268D01*
Y15332D01*
X8736Y15391D01*
X8709Y15418D01*
X8696Y15450D01*
X8709Y15482D01*
X8736Y15509D01*
X8760Y15568D01*
Y15632D01*
X8755Y15644D01*
X8756Y15648D01*
X8790Y15690D01*
X8832D01*
X8891Y15714D01*
X8936Y15759D01*
X8960Y15818D01*
Y15882D01*
X8955Y15894D01*
X8956Y15898D01*
X8990Y15940D01*
X9032D01*
X9091Y15964D01*
X9136Y16009D01*
X9160Y16068D01*
Y16132D01*
X9136Y16191D01*
X9109Y16218D01*
X9096Y16250D01*
X9109Y16282D01*
X9136Y16309D01*
X9160Y16368D01*
Y16432D01*
X9136Y16491D01*
X9109Y16518D01*
X9096Y16550D01*
X9109Y16582D01*
X9136Y16609D01*
X9160Y16668D01*
Y16732D01*
X9136Y16791D01*
X9109Y16818D01*
X9096Y16850D01*
X9109Y16882D01*
X9136Y16909D01*
X9160Y16968D01*
Y17032D01*
X9136Y17091D01*
X9091Y17136D01*
X9032Y17160D01*
X8968D01*
X8909Y17136D01*
X8864Y17091D01*
X8840Y17032D01*
Y16968D01*
X8864Y16909D01*
X8891Y16882D01*
X8904Y16850D01*
X8891Y16818D01*
X8864Y16791D01*
X8840Y16732D01*
Y16668D01*
X8864Y16609D01*
X8891Y16582D01*
X8904Y16550D01*
X8891Y16518D01*
X8864Y16491D01*
X8840Y16432D01*
Y16368D01*
X8864Y16309D01*
X8891Y16282D01*
X8904Y16250D01*
X8891Y16218D01*
X8864Y16191D01*
X8840Y16132D01*
Y16068D01*
X8800Y16036D01*
X8800D01*
X8790Y16043D01*
X8760Y16082D01*
Y16132D01*
X8736Y16191D01*
X8709Y16218D01*
X8696Y16250D01*
X8709Y16282D01*
X8736Y16309D01*
X8760Y16368D01*
Y16432D01*
X8736Y16491D01*
X8709Y16518D01*
X8696Y16550D01*
X8709Y16582D01*
X8736Y16609D01*
X8760Y16668D01*
Y16732D01*
X8736Y16791D01*
X8709Y16818D01*
X8696Y16850D01*
X8709Y16882D01*
X8736Y16909D01*
X8760Y16968D01*
Y17032D01*
X8736Y17091D01*
X8691Y17136D01*
X8632Y17160D01*
X8568D01*
X8509Y17136D01*
X8464Y17091D01*
X8440Y17032D01*
Y16968D01*
X8464Y16909D01*
X8491Y16882D01*
X8504Y16850D01*
X8491Y16818D01*
X8464Y16791D01*
X8440Y16732D01*
Y16668D01*
X8464Y16609D01*
X8491Y16582D01*
X8504Y16550D01*
X8491Y16518D01*
X8464Y16491D01*
X8440Y16432D01*
Y16368D01*
X8464Y16309D01*
X8491Y16282D01*
X8504Y16250D01*
X8491Y16218D01*
X8464Y16191D01*
X8440Y16132D01*
Y16068D01*
X8400Y16036D01*
X8400D01*
X8390Y16043D01*
X8360Y16082D01*
Y16132D01*
X8336Y16191D01*
X8309Y16218D01*
X8296Y16250D01*
X8309Y16282D01*
X8336Y16309D01*
X8360Y16368D01*
Y16432D01*
X8336Y16491D01*
X8309Y16518D01*
X8296Y16550D01*
X8309Y16582D01*
X8336Y16609D01*
X8360Y16668D01*
Y16732D01*
X8336Y16791D01*
X8309Y16818D01*
X8296Y16850D01*
X8309Y16882D01*
X8336Y16909D01*
X8360Y16968D01*
Y17032D01*
X8336Y17091D01*
X8291Y17136D01*
X8232Y17160D01*
X8168D01*
X8109Y17136D01*
X8064Y17091D01*
X8040Y17032D01*
Y16968D01*
X8064Y16909D01*
X8091Y16882D01*
X8104Y16850D01*
X8091Y16818D01*
X8064Y16791D01*
X8040Y16732D01*
Y16668D01*
X8064Y16609D01*
X8091Y16582D01*
X8104Y16550D01*
X8091Y16518D01*
X8064Y16491D01*
X8040Y16432D01*
Y16368D01*
X8064Y16309D01*
X8091Y16282D01*
X8104Y16250D01*
X8091Y16218D01*
X8064Y16191D01*
X8040Y16132D01*
Y16068D01*
X8000Y16036D01*
X8000D01*
X7990Y16043D01*
X7960Y16082D01*
Y16132D01*
X7936Y16191D01*
X7909Y16218D01*
X7896Y16250D01*
X7909Y16282D01*
X7936Y16309D01*
X7960Y16368D01*
Y16432D01*
X7936Y16491D01*
X7909Y16518D01*
X7896Y16550D01*
X7909Y16582D01*
X7936Y16609D01*
X7960Y16668D01*
Y16732D01*
X7936Y16791D01*
X7909Y16818D01*
X7896Y16850D01*
X7909Y16882D01*
X7936Y16909D01*
X7960Y16968D01*
Y17032D01*
X7936Y17091D01*
X7891Y17136D01*
X7861Y17148D01*
Y17202D01*
X7891Y17214D01*
X7936Y17259D01*
X7960Y17318D01*
Y17382D01*
X7936Y17441D01*
X7891Y17486D01*
X7832Y17510D01*
D02*
G37*
G36*
X7682Y14310D02*
X7618D01*
X7559Y14286D01*
X7514Y14241D01*
X7490Y14182D01*
Y14118D01*
X7514Y14059D01*
X7541Y14032D01*
X7554Y14000D01*
X7541Y13968D01*
X7514Y13941D01*
X7490Y13882D01*
Y13818D01*
X7514Y13759D01*
X7541Y13732D01*
X7554Y13700D01*
X7541Y13668D01*
X7514Y13641D01*
X7490Y13582D01*
Y13518D01*
X7514Y13459D01*
X7559Y13414D01*
X7618Y13390D01*
X7682D01*
X7741Y13414D01*
X7786Y13459D01*
X7810Y13518D01*
Y13582D01*
X7786Y13641D01*
X7759Y13668D01*
X7746Y13700D01*
X7759Y13732D01*
X7786Y13759D01*
X7810Y13818D01*
Y13882D01*
X7786Y13941D01*
X7759Y13968D01*
X7746Y14000D01*
X7759Y14032D01*
X7786Y14059D01*
X7810Y14118D01*
Y14182D01*
X7786Y14241D01*
X7741Y14286D01*
X7682Y14310D01*
D02*
G37*
G36*
X7282Y14010D02*
X7218D01*
X7159Y13986D01*
X7114Y13941D01*
X7090Y13882D01*
Y13818D01*
X7114Y13759D01*
X7141Y13732D01*
X7154Y13700D01*
X7141Y13668D01*
X7114Y13641D01*
X7090Y13582D01*
Y13518D01*
X7114Y13459D01*
X7159Y13414D01*
X7218Y13390D01*
X7282D01*
X7341Y13414D01*
X7386Y13459D01*
X7410Y13518D01*
Y13582D01*
X7386Y13641D01*
X7359Y13668D01*
X7346Y13700D01*
X7359Y13732D01*
X7386Y13759D01*
X7410Y13818D01*
Y13882D01*
X7386Y13941D01*
X7341Y13986D01*
X7282Y14010D01*
D02*
G37*
G36*
X15032Y13510D02*
X14968D01*
X14909Y13486D01*
X14864Y13441D01*
X14840Y13382D01*
Y13318D01*
X14864Y13259D01*
X14909Y13214D01*
X14968Y13190D01*
X15032D01*
X15091Y13214D01*
X15136Y13259D01*
X15160Y13318D01*
Y13382D01*
X15136Y13441D01*
X15091Y13486D01*
X15032Y13510D01*
D02*
G37*
G36*
X12473Y4988D02*
X12409D01*
X12350Y4963D01*
X12305Y4918D01*
X12281Y4859D01*
Y4796D01*
X12305Y4737D01*
X12350Y4692D01*
X12409Y4668D01*
X12473D01*
X12532Y4692D01*
X12577Y4737D01*
X12601Y4796D01*
Y4859D01*
X12577Y4918D01*
X12532Y4963D01*
X12473Y4988D01*
D02*
G37*
G36*
X8196D02*
X8133D01*
X8074Y4963D01*
X8029Y4918D01*
X8005Y4859D01*
Y4796D01*
X8029Y4737D01*
X8074Y4692D01*
X8133Y4668D01*
X8196D01*
X8255Y4692D01*
X8300Y4737D01*
X8325Y4796D01*
Y4859D01*
X8300Y4918D01*
X8255Y4963D01*
X8196Y4988D01*
D02*
G37*
G36*
X11951Y4884D02*
X11887D01*
X11828Y4860D01*
X11783Y4815D01*
X11759Y4756D01*
Y4692D01*
X11783Y4633D01*
X11828Y4588D01*
X11887Y4564D01*
X11951D01*
X12009Y4588D01*
X12054Y4633D01*
X12079Y4692D01*
Y4756D01*
X12054Y4815D01*
X12009Y4860D01*
X11951Y4884D01*
D02*
G37*
G36*
X7706D02*
X7642D01*
X7583Y4860D01*
X7538Y4815D01*
X7514Y4756D01*
Y4692D01*
X7538Y4633D01*
X7583Y4588D01*
X7642Y4564D01*
X7706D01*
X7765Y4588D01*
X7810Y4633D01*
X7834Y4692D01*
Y4756D01*
X7810Y4815D01*
X7765Y4860D01*
X7706Y4884D01*
D02*
G37*
G36*
X18141Y4554D02*
X18062D01*
X17990Y4524D01*
X17934Y4469D01*
X17904Y4396D01*
Y4317D01*
X17934Y4245D01*
X17990Y4189D01*
X18062Y4159D01*
X18141D01*
X18214Y4189D01*
X18269Y4245D01*
X18299Y4317D01*
Y4396D01*
X18269Y4469D01*
X18214Y4524D01*
X18141Y4554D01*
D02*
G37*
%LPD*%
D14*
X20079Y0D02*
G03*
X20472Y394I0J394D01*
G01*
Y19291D02*
G03*
X20079Y19685I-394J0D01*
G01*
X394D02*
G03*
X0Y19291I0J-394D01*
G01*
Y394D02*
G03*
X394Y0I394J0D01*
G01*
Y19685D02*
X20079D01*
X394Y0D02*
X20079D01*
X0Y394D02*
Y19291D01*
X20472Y394D02*
Y19291D01*
D47*
X10224Y1750D02*
D03*
X9800Y1574D02*
D03*
X9624Y1150D02*
D03*
X9800Y726D02*
D03*
X10224Y550D02*
D03*
X10649Y726D02*
D03*
X10824Y1150D02*
D03*
X10649Y1574D02*
D03*
X6600Y1750D02*
D03*
X6176Y1574D02*
D03*
X6000Y1150D02*
D03*
X6176Y726D02*
D03*
X6600Y550D02*
D03*
X7024Y726D02*
D03*
X7200Y1150D02*
D03*
X7024Y1574D02*
D03*
X14274D02*
D03*
X14450Y1150D02*
D03*
X14274Y726D02*
D03*
X13850Y550D02*
D03*
X13426Y726D02*
D03*
X13250Y1150D02*
D03*
X13426Y1574D02*
D03*
X13850Y1750D02*
D03*
X12024Y18874D02*
D03*
X12200Y18450D02*
D03*
X12024Y18026D02*
D03*
X11600Y17850D02*
D03*
X11176Y18026D02*
D03*
X11000Y18450D02*
D03*
X11176Y18874D02*
D03*
X11600Y19050D02*
D03*
D48*
X10224Y1150D02*
D03*
X6600D02*
D03*
X13850D02*
D03*
X11600Y18450D02*
D03*
D50*
X11206Y15450D02*
D03*
D51*
X5400Y4300D02*
D03*
X6200Y4650D02*
D03*
X17599Y13843D02*
D03*
Y14143D02*
D03*
Y14443D02*
D03*
Y14743D02*
D03*
Y15043D02*
D03*
Y15343D02*
D03*
Y15643D02*
D03*
Y15943D02*
D03*
Y16243D02*
D03*
Y16543D02*
D03*
Y16843D02*
D03*
Y17143D02*
D03*
Y17443D02*
D03*
Y17743D02*
D03*
Y18093D02*
D03*
X4750Y19050D02*
D03*
Y18700D02*
D03*
Y18350D02*
D03*
Y18000D02*
D03*
Y17650D02*
D03*
Y17300D02*
D03*
Y16950D02*
D03*
Y16600D02*
D03*
Y16250D02*
D03*
X18200Y11600D02*
D03*
X17900D02*
D03*
X17600D02*
D03*
X17300D02*
D03*
Y11300D02*
D03*
X18200D02*
D03*
X17900D02*
D03*
X17600D02*
D03*
X2900Y15200D02*
D03*
Y14800D02*
D03*
X3550Y15900D02*
D03*
X3950D02*
D03*
X4350D02*
D03*
X4750D02*
D03*
X3200Y15600D02*
D03*
Y15200D02*
D03*
Y14800D02*
D03*
X3550Y15600D02*
D03*
X3950D02*
D03*
X4350D02*
D03*
X4750D02*
D03*
X5150D02*
D03*
X5650D02*
D03*
X6600D02*
D03*
X6150D02*
D03*
X5150Y15900D02*
D03*
X5650D02*
D03*
X6150D02*
D03*
X5150Y16250D02*
D03*
Y16600D02*
D03*
Y16950D02*
D03*
Y17300D02*
D03*
Y17650D02*
D03*
Y18000D02*
D03*
Y18350D02*
D03*
Y18700D02*
D03*
Y19050D02*
D03*
X5500D02*
D03*
X5850D02*
D03*
X6200D02*
D03*
X16200Y18450D02*
D03*
X17250Y18100D02*
D03*
X16950D02*
D03*
X16650D02*
D03*
X16350D02*
D03*
X15900Y18450D02*
D03*
X15600D02*
D03*
X15300D02*
D03*
X15000D02*
D03*
X14700D02*
D03*
X14400D02*
D03*
X14100D02*
D03*
X13800D02*
D03*
X13500D02*
D03*
X13200D02*
D03*
X13700Y18100D02*
D03*
X13350D02*
D03*
X13050D02*
D03*
X17250Y17750D02*
D03*
Y17450D02*
D03*
Y17150D02*
D03*
Y16850D02*
D03*
Y16550D02*
D03*
Y16250D02*
D03*
Y15950D02*
D03*
Y15650D02*
D03*
Y15350D02*
D03*
Y15050D02*
D03*
Y14750D02*
D03*
Y14450D02*
D03*
Y14150D02*
D03*
Y13850D02*
D03*
X12700D02*
D03*
X12300D02*
D03*
X11900D02*
D03*
X11500D02*
D03*
X12700Y14150D02*
D03*
X12300D02*
D03*
X11900D02*
D03*
X11500D02*
D03*
X12700Y14450D02*
D03*
X12300D02*
D03*
X11900D02*
D03*
X11500D02*
D03*
X12700Y14750D02*
D03*
X12300D02*
D03*
X11500D02*
D03*
X11900D02*
D03*
X11700Y15000D02*
D03*
X12100D02*
D03*
X12500D02*
D03*
X11900Y15300D02*
D03*
X12700D02*
D03*
X12300D02*
D03*
X12700Y15600D02*
D03*
X12300D02*
D03*
X11900D02*
D03*
X12500Y15850D02*
D03*
X12100D02*
D03*
X11700D02*
D03*
X12700Y16100D02*
D03*
Y16400D02*
D03*
Y16700D02*
D03*
Y17000D02*
D03*
X12300D02*
D03*
Y16700D02*
D03*
Y16400D02*
D03*
Y16100D02*
D03*
X11900Y17000D02*
D03*
Y16700D02*
D03*
Y16400D02*
D03*
Y16100D02*
D03*
X11500D02*
D03*
Y16400D02*
D03*
Y16700D02*
D03*
Y17000D02*
D03*
X19700Y4350D02*
D03*
X19400D02*
D03*
X19100D02*
D03*
X17650Y4250D02*
D03*
X17350D02*
D03*
Y4550D02*
D03*
X20000Y5100D02*
D03*
Y5350D02*
D03*
Y5600D02*
D03*
X18750Y5100D02*
D03*
Y5350D02*
D03*
Y5600D02*
D03*
X19050Y7500D02*
D03*
X18800D02*
D03*
X19050Y8250D02*
D03*
X18800D02*
D03*
X14600Y2350D02*
D03*
X15650D02*
D03*
X15400D02*
D03*
X15100D02*
D03*
X14850D02*
D03*
X15050Y350D02*
D03*
X15400D02*
D03*
X15550Y550D02*
D03*
X15250D02*
D03*
X15700Y750D02*
D03*
X15400D02*
D03*
X15250Y950D02*
D03*
X15800D02*
D03*
X15550D02*
D03*
X15400Y1150D02*
D03*
X15650D02*
D03*
X15800Y1350D02*
D03*
X15550D02*
D03*
X15400Y1550D02*
D03*
X15650D02*
D03*
X15800Y1750D02*
D03*
X15250D02*
D03*
X15550D02*
D03*
X15650Y1950D02*
D03*
X15400D02*
D03*
X15100D02*
D03*
X15800Y2150D02*
D03*
X15550D02*
D03*
X15250D02*
D03*
X15000D02*
D03*
X14750D02*
D03*
X13200Y2350D02*
D03*
X13000Y2150D02*
D03*
X11050Y2350D02*
D03*
X11350D02*
D03*
X9400D02*
D03*
X9100D02*
D03*
X6050Y2400D02*
D03*
X5750D02*
D03*
X7250Y2350D02*
D03*
X5450Y2400D02*
D03*
X5150D02*
D03*
X4850D02*
D03*
X4700Y2200D02*
D03*
X7450D02*
D03*
X5600D02*
D03*
X5300D02*
D03*
X5000D02*
D03*
X12800Y2000D02*
D03*
X12650Y1800D02*
D03*
X12558Y860D02*
D03*
Y1090D02*
D03*
Y1550D02*
D03*
Y1320D02*
D03*
Y630D02*
D03*
Y400D02*
D03*
X11300Y350D02*
D03*
X11600D02*
D03*
X11450Y600D02*
D03*
X11750D02*
D03*
X11600Y800D02*
D03*
X11800Y950D02*
D03*
X11600Y1150D02*
D03*
X11800Y1350D02*
D03*
X11600Y1550D02*
D03*
X11800Y1750D02*
D03*
X11450D02*
D03*
X11650Y1950D02*
D03*
X11350D02*
D03*
X11500Y2150D02*
D03*
X11200D02*
D03*
X9100Y350D02*
D03*
X8800D02*
D03*
X8950Y550D02*
D03*
X8650D02*
D03*
X8800Y750D02*
D03*
X8650Y950D02*
D03*
X8800Y1150D02*
D03*
X8650Y1350D02*
D03*
X8800Y1550D02*
D03*
X8650Y1750D02*
D03*
X8950D02*
D03*
X8800Y1950D02*
D03*
X9100D02*
D03*
X8950Y2150D02*
D03*
X9250D02*
D03*
X7900Y400D02*
D03*
Y630D02*
D03*
Y1320D02*
D03*
Y1550D02*
D03*
Y1090D02*
D03*
Y860D02*
D03*
X7800Y1800D02*
D03*
X7650Y2000D02*
D03*
X5450Y400D02*
D03*
X5300Y600D02*
D03*
X5150Y400D02*
D03*
X5000Y600D02*
D03*
X4850Y800D02*
D03*
X5150D02*
D03*
X4700Y1000D02*
D03*
X5000D02*
D03*
X4850Y1200D02*
D03*
X5150D02*
D03*
X4700Y1400D02*
D03*
X5000D02*
D03*
X5150Y1600D02*
D03*
X4850D02*
D03*
X5300Y1800D02*
D03*
X5000D02*
D03*
X4700D02*
D03*
X4850Y2000D02*
D03*
X5150D02*
D03*
X5450D02*
D03*
X15150Y4334D02*
D03*
X6700D02*
D03*
X10950D02*
D03*
X9600Y4251D02*
D03*
X16500Y7100D02*
D03*
X11600Y6900D02*
D03*
X16400D02*
D03*
X16150D02*
D03*
X15900D02*
D03*
X15650D02*
D03*
X15400D02*
D03*
X15150D02*
D03*
X14900D02*
D03*
X14650D02*
D03*
X14400D02*
D03*
X16250Y7100D02*
D03*
X16000D02*
D03*
X15750D02*
D03*
X15500D02*
D03*
X15250D02*
D03*
X15000D02*
D03*
X14750D02*
D03*
X16400Y7300D02*
D03*
X16150D02*
D03*
X15900D02*
D03*
X15650D02*
D03*
X15400D02*
D03*
X15150D02*
D03*
X14900D02*
D03*
X14500Y7100D02*
D03*
X14400Y7300D02*
D03*
X14650D02*
D03*
X11350Y6900D02*
D03*
X11100D02*
D03*
X10850D02*
D03*
X10600D02*
D03*
X10350D02*
D03*
X10100D02*
D03*
X9850D02*
D03*
X9600D02*
D03*
X11450Y7100D02*
D03*
X11200D02*
D03*
X10950D02*
D03*
X10700D02*
D03*
X10450D02*
D03*
X10200D02*
D03*
X9950D02*
D03*
X9726Y7095D02*
D03*
X9600Y7300D02*
D03*
X11600D02*
D03*
X11350D02*
D03*
X11100D02*
D03*
X10850D02*
D03*
X10600D02*
D03*
X10350D02*
D03*
X10100D02*
D03*
X9850D02*
D03*
X6900Y6900D02*
D03*
X6650D02*
D03*
X6400D02*
D03*
X6150D02*
D03*
X5900D02*
D03*
X5650D02*
D03*
X5400D02*
D03*
X5150D02*
D03*
X4900D02*
D03*
X7050Y7100D02*
D03*
X6800D02*
D03*
X6550D02*
D03*
X6300D02*
D03*
X6050D02*
D03*
X5800D02*
D03*
X5550D02*
D03*
X5300D02*
D03*
X5050D02*
D03*
X7150Y7300D02*
D03*
X6900D02*
D03*
X6650D02*
D03*
X6400D02*
D03*
X6150D02*
D03*
X5900D02*
D03*
X5650D02*
D03*
X5400D02*
D03*
X5150D02*
D03*
X4900D02*
D03*
X14000Y4350D02*
D03*
X10450Y4671D02*
D03*
X14700D02*
D03*
X7836Y12600D02*
D03*
X12628D02*
D03*
X3000D02*
D03*
M02*
