G04*
G04 #@! TF.GenerationSoftware,Altium Limited,Altium Designer,22.0.2 (36)*
G04*
G04 Layer_Color=65535*
%FSLAX24Y24*%
%MOIN*%
G70*
G04*
G04 #@! TF.SameCoordinates,22A08989-F282-469C-B082-2707E795951A*
G04*
G04*
G04 #@! TF.FilePolarity,Positive*
G04*
G01*
G75*
%ADD10C,0.0157*%
%ADD11C,0.0098*%
%ADD12C,0.0060*%
%ADD13C,0.0059*%
%ADD14C,0.0100*%
%ADD15C,0.0079*%
%ADD16C,0.0070*%
G36*
X18789Y8455D02*
X18793Y8455D01*
X18798Y8454D01*
X18804Y8453D01*
X18810Y8452D01*
X18817Y8450D01*
X18824Y8448D01*
X18831Y8446D01*
X18839Y8442D01*
X18846Y8439D01*
X18852Y8435D01*
X18859Y8430D01*
X18866Y8425D01*
X18866D01*
X18866Y8424D01*
X18868Y8422D01*
X18869Y8421D01*
X18871Y8419D01*
X18872Y8417D01*
X18877Y8411D01*
X18881Y8403D01*
X18886Y8394D01*
X18891Y8384D01*
X18895Y8372D01*
X18838Y8358D01*
Y8358D01*
X18837Y8359D01*
Y8360D01*
X18837Y8362D01*
X18835Y8365D01*
X18833Y8370D01*
X18830Y8376D01*
X18827Y8382D01*
X18822Y8388D01*
X18816Y8393D01*
X18815Y8393D01*
X18813Y8395D01*
X18810Y8397D01*
X18805Y8400D01*
X18799Y8402D01*
X18793Y8404D01*
X18785Y8406D01*
X18777Y8406D01*
X18774D01*
X18772Y8406D01*
X18769Y8405D01*
X18766Y8405D01*
X18759Y8403D01*
X18750Y8400D01*
X18742Y8396D01*
X18737Y8394D01*
X18733Y8391D01*
X18729Y8387D01*
X18725Y8383D01*
Y8383D01*
X18724Y8382D01*
X18723Y8380D01*
X18722Y8378D01*
X18720Y8376D01*
X18719Y8373D01*
X18717Y8369D01*
X18715Y8365D01*
X18713Y8360D01*
X18712Y8355D01*
X18710Y8348D01*
X18708Y8342D01*
X18707Y8334D01*
X18706Y8326D01*
X18706Y8318D01*
X18705Y8308D01*
Y8308D01*
Y8306D01*
Y8303D01*
X18706Y8299D01*
Y8295D01*
X18707Y8289D01*
X18707Y8284D01*
X18708Y8278D01*
X18710Y8265D01*
X18714Y8252D01*
X18716Y8246D01*
X18719Y8240D01*
X18722Y8234D01*
X18725Y8230D01*
X18725Y8229D01*
X18726Y8229D01*
X18727Y8228D01*
X18729Y8226D01*
X18733Y8223D01*
X18739Y8219D01*
X18746Y8214D01*
X18755Y8211D01*
X18765Y8208D01*
X18770Y8207D01*
X18776Y8207D01*
X18778D01*
X18780Y8207D01*
X18784Y8208D01*
X18789Y8209D01*
X18795Y8211D01*
X18802Y8213D01*
X18809Y8217D01*
X18815Y8222D01*
X18816Y8222D01*
X18818Y8224D01*
X18821Y8228D01*
X18824Y8233D01*
X18829Y8239D01*
X18832Y8247D01*
X18836Y8257D01*
X18839Y8268D01*
X18896Y8251D01*
Y8250D01*
X18896Y8249D01*
X18895Y8246D01*
X18894Y8243D01*
X18892Y8239D01*
X18890Y8234D01*
X18888Y8229D01*
X18886Y8224D01*
X18880Y8213D01*
X18872Y8201D01*
X18863Y8190D01*
X18858Y8185D01*
X18853Y8180D01*
X18852Y8180D01*
X18851Y8180D01*
X18850Y8178D01*
X18847Y8177D01*
X18844Y8175D01*
X18841Y8173D01*
X18837Y8171D01*
X18832Y8169D01*
X18827Y8167D01*
X18821Y8165D01*
X18814Y8163D01*
X18808Y8161D01*
X18801Y8160D01*
X18793Y8158D01*
X18785Y8158D01*
X18776Y8157D01*
X18774D01*
X18771Y8158D01*
X18767Y8158D01*
X18762Y8159D01*
X18756Y8160D01*
X18750Y8161D01*
X18743Y8162D01*
X18736Y8165D01*
X18728Y8167D01*
X18720Y8170D01*
X18713Y8174D01*
X18705Y8178D01*
X18697Y8184D01*
X18689Y8189D01*
X18682Y8197D01*
X18682Y8197D01*
X18681Y8198D01*
X18679Y8201D01*
X18676Y8204D01*
X18674Y8208D01*
X18671Y8212D01*
X18667Y8218D01*
X18664Y8225D01*
X18661Y8232D01*
X18657Y8240D01*
X18654Y8249D01*
X18651Y8259D01*
X18649Y8269D01*
X18647Y8280D01*
X18646Y8291D01*
X18646Y8304D01*
Y8304D01*
Y8305D01*
Y8307D01*
X18646Y8311D01*
Y8316D01*
X18647Y8322D01*
X18648Y8329D01*
X18648Y8336D01*
X18650Y8345D01*
X18652Y8354D01*
X18655Y8363D01*
X18658Y8372D01*
X18661Y8382D01*
X18666Y8391D01*
X18671Y8400D01*
X18676Y8408D01*
X18683Y8416D01*
X18683Y8416D01*
X18684Y8417D01*
X18686Y8420D01*
X18689Y8422D01*
X18693Y8425D01*
X18698Y8428D01*
X18703Y8432D01*
X18709Y8436D01*
X18715Y8440D01*
X18723Y8443D01*
X18731Y8447D01*
X18739Y8450D01*
X18749Y8452D01*
X18758Y8454D01*
X18769Y8455D01*
X18780Y8456D01*
X18785D01*
X18789Y8455D01*
D02*
G37*
G36*
X18349Y8162D02*
X18290D01*
X18173Y8352D01*
Y8162D01*
X18120D01*
Y8450D01*
X18176D01*
X18295Y8256D01*
Y8450D01*
X18349D01*
Y8162D01*
D02*
G37*
G36*
X18618Y8402D02*
X18533D01*
Y8162D01*
X18475D01*
Y8402D01*
X18390D01*
Y8450D01*
X18618D01*
Y8402D01*
D02*
G37*
G36*
X13777Y19150D02*
X13011D01*
Y19269D01*
X13777D01*
Y19150D01*
D02*
G37*
G36*
X7477Y19371D02*
X7730D01*
Y19198D01*
X7477D01*
Y18950D01*
X7309D01*
Y19198D01*
X7058D01*
Y19371D01*
X7309D01*
Y19619D01*
X7477D01*
Y19371D01*
D02*
G37*
G36*
X12315Y850D02*
X12176D01*
X12050Y1328D01*
X11922Y850D01*
X11782D01*
X11630Y1490D01*
X11762D01*
X11859Y1050D01*
X11975Y1490D01*
X12130D01*
X12241Y1042D01*
X12340Y1490D01*
X12470D01*
X12315Y850D01*
D02*
G37*
G36*
X8671D02*
X8531D01*
X8302Y1490D01*
X8441D01*
X8604Y1016D01*
X8760Y1490D01*
X8898D01*
X8671Y850D01*
D02*
G37*
G36*
X5155Y1164D02*
Y1164D01*
Y1160D01*
Y1153D01*
Y1146D01*
Y1137D01*
X5154Y1126D01*
Y1114D01*
Y1102D01*
X5153Y1075D01*
X5151Y1047D01*
X5150Y1035D01*
X5148Y1023D01*
X5146Y1012D01*
X5144Y1002D01*
Y1001D01*
X5143Y1000D01*
Y997D01*
X5142Y994D01*
X5140Y985D01*
X5136Y974D01*
X5130Y961D01*
X5124Y948D01*
X5116Y934D01*
X5105Y921D01*
X5104Y919D01*
X5101Y916D01*
X5094Y910D01*
X5086Y903D01*
X5075Y894D01*
X5062Y886D01*
X5047Y877D01*
X5030Y869D01*
X5030D01*
X5029Y869D01*
X5026Y868D01*
X5022Y867D01*
X5017Y865D01*
X5012Y863D01*
X5005Y861D01*
X4997Y860D01*
X4980Y856D01*
X4958Y853D01*
X4934Y851D01*
X4907Y850D01*
X4893D01*
X4884Y851D01*
X4876D01*
X4866Y852D01*
X4856Y853D01*
X4833Y855D01*
X4810Y858D01*
X4787Y864D01*
X4777Y867D01*
X4768Y870D01*
X4767D01*
X4766Y871D01*
X4760Y874D01*
X4751Y879D01*
X4741Y885D01*
X4729Y893D01*
X4716Y903D01*
X4704Y914D01*
X4693Y926D01*
X4692Y928D01*
X4688Y931D01*
X4684Y939D01*
X4678Y948D01*
X4672Y958D01*
X4666Y970D01*
X4661Y983D01*
X4657Y997D01*
Y998D01*
X4656Y1000D01*
Y1003D01*
X4655Y1007D01*
X4654Y1013D01*
X4653Y1020D01*
X4652Y1029D01*
X4651Y1038D01*
X4649Y1049D01*
X4648Y1061D01*
X4647Y1074D01*
X4647Y1089D01*
X4646Y1104D01*
Y1122D01*
X4645Y1140D01*
Y1160D01*
Y1502D01*
X4774D01*
Y1154D01*
Y1153D01*
Y1151D01*
Y1147D01*
Y1141D01*
Y1134D01*
Y1127D01*
X4775Y1110D01*
Y1091D01*
X4776Y1074D01*
X4777Y1066D01*
Y1058D01*
X4778Y1053D01*
X4779Y1047D01*
Y1045D01*
X4781Y1041D01*
X4783Y1033D01*
X4787Y1024D01*
X4792Y1014D01*
X4799Y1004D01*
X4807Y992D01*
X4818Y983D01*
X4820Y982D01*
X4823Y979D01*
X4831Y976D01*
X4840Y972D01*
X4853Y967D01*
X4868Y964D01*
X4884Y961D01*
X4904Y960D01*
X4913D01*
X4922Y961D01*
X4934Y963D01*
X4948Y966D01*
X4961Y969D01*
X4975Y975D01*
X4986Y982D01*
X4987Y983D01*
X4991Y986D01*
X4995Y991D01*
X5001Y997D01*
X5006Y1005D01*
X5012Y1015D01*
X5017Y1025D01*
X5019Y1037D01*
Y1039D01*
X5020Y1043D01*
X5021Y1052D01*
X5023Y1063D01*
Y1070D01*
X5024Y1078D01*
Y1088D01*
X5025Y1097D01*
Y1108D01*
X5026Y1120D01*
Y1133D01*
Y1147D01*
Y1502D01*
X5155D01*
Y1164D01*
D02*
G37*
D10*
X3821Y7224D02*
G03*
X3821Y7224I-79J0D01*
G01*
X13419D02*
G03*
X13419Y7224I-79J0D01*
G01*
X8613D02*
G03*
X8613Y7224I-79J0D01*
G01*
D11*
X17816Y6571D02*
G03*
X17816Y6571I-49J0D01*
G01*
X1116D02*
G03*
X1116Y6571I-49J0D01*
G01*
D12*
X14893Y15220D02*
G03*
X14953Y15280I0J60D01*
G01*
Y16020D02*
G03*
X14893Y16080I-60J0D01*
G01*
X12934Y15280D02*
G03*
X12994Y15220I60J0D01*
G01*
Y16080D02*
G03*
X12934Y16020I0J-60D01*
G01*
X14893Y13420D02*
G03*
X14953Y13480I0J60D01*
G01*
Y14220D02*
G03*
X14893Y14280I-60J0D01*
G01*
X12934Y13480D02*
G03*
X12994Y13420I60J0D01*
G01*
Y14280D02*
G03*
X12934Y14220I0J-60D01*
G01*
X12994Y15180D02*
G03*
X12934Y15120I0J-60D01*
G01*
Y14380D02*
G03*
X12994Y14320I60J0D01*
G01*
X14953Y15120D02*
G03*
X14893Y15180I-60J0D01*
G01*
Y14320D02*
G03*
X14953Y14380I0J60D01*
G01*
X4324Y15349D02*
G03*
X4264Y15409I-60J0D01*
G01*
X3524D02*
G03*
X3464Y15349I0J-60D01*
G01*
X4264Y13391D02*
G03*
X4324Y13451I0J60D01*
G01*
X3464D02*
G03*
X3524Y13391I60J0D01*
G01*
X5224Y15349D02*
G03*
X5164Y15409I-60J0D01*
G01*
X4424D02*
G03*
X4364Y15349I0J-60D01*
G01*
X5164Y13391D02*
G03*
X5224Y13451I0J60D01*
G01*
X4364D02*
G03*
X4424Y13391I60J0D01*
G01*
X6124Y15349D02*
G03*
X6064Y15409I-60J0D01*
G01*
X5324D02*
G03*
X5264Y15349I0J-60D01*
G01*
X6064Y13391D02*
G03*
X6124Y13451I0J60D01*
G01*
X5264D02*
G03*
X5324Y13391I60J0D01*
G01*
X7024Y15349D02*
G03*
X6964Y15409I-60J0D01*
G01*
X6224D02*
G03*
X6164Y15349I0J-60D01*
G01*
X6964Y13391D02*
G03*
X7024Y13451I0J60D01*
G01*
X6164D02*
G03*
X6224Y13391I60J0D01*
G01*
X16993Y17020D02*
G03*
X17053Y17080I0J60D01*
G01*
Y17820D02*
G03*
X16993Y17880I-60J0D01*
G01*
X15034Y17080D02*
G03*
X15094Y17020I60J0D01*
G01*
Y17880D02*
G03*
X15034Y17820I0J-60D01*
G01*
X5594Y16980D02*
G03*
X5534Y16920I0J-60D01*
G01*
Y16180D02*
G03*
X5594Y16120I60J0D01*
G01*
X7553Y16920D02*
G03*
X7493Y16980I-60J0D01*
G01*
Y16120D02*
G03*
X7553Y16180I0J60D01*
G01*
X5594Y17880D02*
G03*
X5534Y17820I0J-60D01*
G01*
Y17080D02*
G03*
X5594Y17020I60J0D01*
G01*
X7553Y17820D02*
G03*
X7493Y17880I-60J0D01*
G01*
Y17020D02*
G03*
X7553Y17080I0J60D01*
G01*
X5594Y18780D02*
G03*
X5534Y18720I0J-60D01*
G01*
Y17980D02*
G03*
X5594Y17920I60J0D01*
G01*
X7553Y18720D02*
G03*
X7493Y18780I-60J0D01*
G01*
Y17920D02*
G03*
X7553Y17980I0J60D01*
G01*
X12994Y17880D02*
G03*
X12934Y17820I0J-60D01*
G01*
Y17080D02*
G03*
X12994Y17020I60J0D01*
G01*
X14953Y17820D02*
G03*
X14893Y17880I-60J0D01*
G01*
Y17020D02*
G03*
X14953Y17080I0J60D01*
G01*
X16993Y16120D02*
G03*
X17053Y16180I0J60D01*
G01*
Y16920D02*
G03*
X16993Y16980I-60J0D01*
G01*
X15034Y16180D02*
G03*
X15094Y16120I60J0D01*
G01*
Y16980D02*
G03*
X15034Y16920I0J-60D01*
G01*
X12994Y16980D02*
G03*
X12934Y16920I0J-60D01*
G01*
Y16180D02*
G03*
X12994Y16120I60J0D01*
G01*
X14953Y16920D02*
G03*
X14893Y16980I-60J0D01*
G01*
Y16120D02*
G03*
X14953Y16180I0J60D01*
G01*
X16993Y13420D02*
G03*
X17053Y13480I0J60D01*
G01*
Y14220D02*
G03*
X16993Y14280I-60J0D01*
G01*
X15034Y13480D02*
G03*
X15094Y13420I60J0D01*
G01*
Y14280D02*
G03*
X15034Y14220I0J-60D01*
G01*
X16993Y14320D02*
G03*
X17053Y14380I0J60D01*
G01*
Y15120D02*
G03*
X16993Y15180I-60J0D01*
G01*
X15034Y14380D02*
G03*
X15094Y14320I60J0D01*
G01*
Y15180D02*
G03*
X15034Y15120I0J-60D01*
G01*
X16993Y15220D02*
G03*
X17053Y15280I0J60D01*
G01*
Y16020D02*
G03*
X16993Y16080I-60J0D01*
G01*
X15034Y15280D02*
G03*
X15094Y15220I60J0D01*
G01*
Y16080D02*
G03*
X15034Y16020I0J-60D01*
G01*
X17911Y8487D02*
Y8993D01*
X17189D02*
X17911D01*
X17189Y8487D02*
Y8993D01*
X17911Y7607D02*
Y8113D01*
X17189Y7607D02*
X17911D01*
X17189D02*
Y8113D01*
X3555Y7360D02*
X3932D01*
X3555Y6840D02*
Y7360D01*
Y6840D02*
X3932D01*
X4268Y7360D02*
X4645D01*
Y6840D02*
Y7360D01*
X4268Y6840D02*
X4645D01*
X13147Y7360D02*
X13524D01*
X13147Y6840D02*
Y7360D01*
Y6840D02*
X13524D01*
X13860Y7360D02*
X14237D01*
Y6840D02*
Y7360D01*
X13860Y6840D02*
X14237D01*
X8340Y7360D02*
X8717D01*
X8340Y6840D02*
Y7360D01*
Y6840D02*
X8717D01*
X9053Y7360D02*
X9431D01*
Y6840D02*
Y7360D01*
X9053Y6840D02*
X9431D01*
X14953Y15280D02*
Y16020D01*
X14308Y16080D02*
X14893D01*
X14308Y15220D02*
X14893D01*
X12934Y15280D02*
Y16020D01*
X12994Y16080D02*
X13579D01*
X12994Y15220D02*
X13579D01*
X14953Y13480D02*
Y14220D01*
X14308Y14280D02*
X14893D01*
X14308Y13420D02*
X14893D01*
X12934Y13480D02*
Y14220D01*
X12994Y14280D02*
X13579D01*
X12994Y13420D02*
X13579D01*
X7576Y7455D02*
Y7832D01*
Y7455D02*
X8096D01*
Y7832D01*
X7576Y8168D02*
Y8545D01*
X8096D01*
Y8168D02*
Y8545D01*
X3254Y8168D02*
Y8545D01*
X2734D02*
X3254D01*
X2734Y8168D02*
Y8545D01*
X3254Y7455D02*
Y7832D01*
X2734Y7455D02*
X3254D01*
X2734D02*
Y7832D01*
X12888Y8168D02*
Y8545D01*
X12368D02*
X12888D01*
X12368Y8168D02*
Y8545D01*
X12888Y7455D02*
Y7832D01*
X12368Y7455D02*
X12888D01*
X12368D02*
Y7832D01*
X12994Y14320D02*
X13579D01*
X12994Y15180D02*
X13579D01*
X12934Y14380D02*
Y15120D01*
X14308Y14320D02*
X14893D01*
X14308Y15180D02*
X14893D01*
X14953Y14380D02*
Y15120D01*
X3464Y14765D02*
Y15349D01*
X4324Y14765D02*
Y15349D01*
X3524Y15409D02*
X4264D01*
X3464Y13451D02*
Y14035D01*
X4324Y13451D02*
Y14035D01*
X3524Y13391D02*
X4264D01*
X4364Y14765D02*
Y15349D01*
X5224Y14765D02*
Y15349D01*
X4424Y15409D02*
X5164D01*
X4364Y13451D02*
Y14035D01*
X5224Y13451D02*
Y14035D01*
X4424Y13391D02*
X5164D01*
X5264Y14765D02*
Y15349D01*
X6124Y14765D02*
Y15349D01*
X5324Y15409D02*
X6064D01*
X5264Y13451D02*
Y14035D01*
X6124Y13451D02*
Y14035D01*
X5324Y13391D02*
X6064D01*
X6164Y14765D02*
Y15349D01*
X7024Y14765D02*
Y15349D01*
X6224Y15409D02*
X6964D01*
X6164Y13451D02*
Y14035D01*
X7024Y13451D02*
Y14035D01*
X6224Y13391D02*
X6964D01*
X16408Y17880D02*
X16993D01*
X16408Y17020D02*
X16993D01*
X17053Y17080D02*
Y17820D01*
X15094Y17880D02*
X15679D01*
X15094Y17020D02*
X15679D01*
X15034Y17080D02*
Y17820D01*
X5594Y16120D02*
X6179D01*
X5594Y16980D02*
X6179D01*
X5534Y16180D02*
Y16920D01*
X6908Y16120D02*
X7493D01*
X6908Y16980D02*
X7493D01*
X7553Y16180D02*
Y16920D01*
X5594Y17020D02*
X6179D01*
X5594Y17880D02*
X6179D01*
X5534Y17080D02*
Y17820D01*
X6908Y17020D02*
X7493D01*
X6908Y17880D02*
X7493D01*
X7553Y17080D02*
Y17820D01*
X5594Y17920D02*
X6179D01*
X5594Y18780D02*
X6179D01*
X5534Y17980D02*
Y18720D01*
X6908Y17920D02*
X7493D01*
X6908Y18780D02*
X7493D01*
X7553Y17980D02*
Y18720D01*
X12994Y17020D02*
X13579D01*
X12994Y17880D02*
X13579D01*
X12934Y17080D02*
Y17820D01*
X14308Y17020D02*
X14893D01*
X14308Y17880D02*
X14893D01*
X14953Y17080D02*
Y17820D01*
X16408Y16980D02*
X16993D01*
X16408Y16120D02*
X16993D01*
X17053Y16180D02*
Y16920D01*
X15094Y16980D02*
X15679D01*
X15094Y16120D02*
X15679D01*
X15034Y16180D02*
Y16920D01*
X12994Y16120D02*
X13579D01*
X12994Y16980D02*
X13579D01*
X12934Y16180D02*
Y16920D01*
X14308Y16120D02*
X14893D01*
X14308Y16980D02*
X14893D01*
X14953Y16180D02*
Y16920D01*
X16408Y14280D02*
X16993D01*
X16408Y13420D02*
X16993D01*
X17053Y13480D02*
Y14220D01*
X15094Y14280D02*
X15679D01*
X15094Y13420D02*
X15679D01*
X15034Y13480D02*
Y14220D01*
X16408Y15180D02*
X16993D01*
X16408Y14320D02*
X16993D01*
X17053Y14380D02*
Y15120D01*
X15094Y15180D02*
X15679D01*
X15094Y14320D02*
X15679D01*
X15034Y14380D02*
Y15120D01*
X16408Y16080D02*
X16993D01*
X16408Y15220D02*
X16993D01*
X17053Y15280D02*
Y16020D01*
X15094Y16080D02*
X15679D01*
X15094Y15220D02*
X15679D01*
X15034Y15280D02*
Y16020D01*
D13*
X12191Y15450D02*
G03*
X12191Y15450I-1969J0D01*
G01*
X8603Y15000D02*
X8938D01*
X8788Y14850D02*
Y15185D01*
X10222Y13514D02*
Y15450D01*
Y17372D01*
Y16905D02*
X10232D01*
X10661Y17334D01*
X10222Y16476D02*
X10256D01*
X11003Y17223D01*
X10222Y15920D02*
Y15941D01*
X11321Y17040D01*
X10222Y15450D02*
X10247D01*
X11607Y16810D01*
X10222Y14863D02*
Y14924D01*
X11830Y16532D01*
X10222Y14386D02*
Y14392D01*
X12028Y16198D01*
X10222Y13862D02*
X10232D01*
X12147Y15777D01*
X10447Y13488D02*
Y13496D01*
X12171Y15220D01*
D14*
X3656Y4182D02*
Y4740D01*
X4361Y2650D02*
X4419D01*
X4361Y6272D02*
X4384D01*
X4419D01*
X7357Y4182D02*
Y4740D01*
X15858Y4182D02*
Y4740D01*
X12886Y6272D02*
X12921D01*
X12863D02*
X12886D01*
X12863Y2650D02*
X12921D01*
X12158Y4182D02*
Y4740D01*
X11582Y4182D02*
Y4740D01*
X8609Y6272D02*
X8644D01*
X8586D02*
X8609D01*
X8586Y2650D02*
X8644D01*
X7881Y4182D02*
Y4740D01*
X7373Y7772D02*
X7426D01*
Y9012D01*
X3434Y7772D02*
Y9012D01*
Y7772D02*
X3510D01*
X13033D02*
X13109D01*
X13033D02*
Y9012D01*
X17025Y7772D02*
Y9012D01*
X16972Y7772D02*
X17025D01*
X8226D02*
X8302D01*
X8226D02*
Y9012D01*
X12218Y7772D02*
Y9012D01*
X12165Y7772D02*
X12218D01*
X20079Y0D02*
G03*
X20472Y394I0J394D01*
G01*
Y19291D02*
G03*
X20079Y19685I-394J0D01*
G01*
X394D02*
G03*
X0Y19291I0J-394D01*
G01*
Y394D02*
G03*
X394Y0I394J0D01*
G01*
Y19685D02*
X20079D01*
X394Y0D02*
X20079D01*
X0Y394D02*
Y19291D01*
X20472Y394D02*
Y19291D01*
D15*
X18318Y4140D02*
Y6857D01*
X18869Y4140D02*
Y6857D01*
X18318D02*
X18869D01*
X18318Y4140D02*
X18869D01*
X1618D02*
X2169D01*
X1618Y6857D02*
X2169D01*
Y4140D02*
Y6857D01*
X1618Y4140D02*
Y6857D01*
D16*
X12377Y8850D02*
X12877D01*
X12879Y8852D01*
Y12215D01*
X12377Y8850D02*
Y12215D01*
X12879D01*
X7594D02*
X8096D01*
X7594Y8850D02*
Y12215D01*
X8096Y8852D02*
Y12215D01*
X8094Y8850D02*
X8096Y8852D01*
X7594Y8850D02*
X8094D01*
X4294Y12591D02*
X16294D01*
X4294D02*
Y13182D01*
X16294Y12591D02*
Y13182D01*
X4294Y13200D02*
X16294D01*
M02*
