M48
;Layer_Color=9474304
;FILE_FORMAT=2:4
INCH,LZ
;TYPE=PLATED
T1F00S00C0.0120
T2F00S00C0.0160
T3F00S00C0.0180
T4F00S00C0.0220
T5F00S00C0.0276
T6F00S00C0.0315
T7F00S00C0.0350
T8F00S00C0.0866
%
T01
X00515Y0004
X00545
X0053Y0006
X005
X00485Y0008
X00515
X005Y001
X0047
X00485Y0012
X00515
X005Y0014
X0047
X00485Y0016
X00515
X0053Y0018
X005
X0047
X00485Y002
X00515
X00545
X0056Y0022
X0053
X005
X0047
X00485Y0024
X00515
X00545
X00575
X00605
X00725Y00235
X00745Y0022
X00765Y002
X0078Y0018
X0079Y00155
Y00132
Y00109
Y00086
Y00063
Y0004
X00865Y00055
X00895
X0091Y00035
X0088
Y00075
X00865Y00095
X0088Y00115
X00865Y00135
X0088Y00155
X00865Y00175
X00895
X0088Y00195
X0091
X00895Y00215
X00925
X0094Y00235
X0091
X01105
X01135
X0115Y00215
X0112
X01135Y00195
X01145Y00175
X0116Y00155
Y00115
Y0008
X01145Y0006
X01175
X0116Y00035
X0113
X0118Y00095
Y00135
Y00175
X01165Y00195
X01265Y0018
X012558Y00155
Y00132
Y00109
Y00086
Y00063
Y0004
X0128Y002
X013Y00215
X0132Y00235
X0146
X01485
X0151
X0154
X01565
X01555Y00215
X0158
X01565Y00195
X0154
X0151
X015Y00215
X01525
Y00175
X01555
X0158
X01565Y00155
X0154
X01555Y00135
X0158
X01565Y00115
X0154
X01525Y00095
X01555
X0158
X0157Y00075
X0154
X01555Y00055
X01525
X0154Y00035
X01505
X01475Y00215
X0147Y004671
X01465Y0069
X0149
X01515
X0154
X01565
X0159
X01615
X0164
X0165Y0071
X01625
X016
X01575
X0155
X01525
X015
X01475
X0145
X0144Y0069
Y0073
X01465
X0149
X01515
X0154
X01565
X0159
X01615
X0164
X01835Y0075
X0188
X01905
X01945Y00735
X01975
X02005
Y0076
Y00785
X01905Y00825
X0188
X018Y008694
X0179Y00915
Y0094
Y00965
Y0099
Y01015
Y0104
Y01065
X0182
Y0104
Y01015
Y0099
Y00965
Y0094
Y00915
X0176
Y0094
Y00965
Y0099
Y01015
Y0104
Y01065
Y0113
Y0116
X0179
X0182
Y0113
X0179
X0173
Y0116
X01725Y01385
X017599Y013843
Y014143
X015Y0138
Y01335
X0127Y01385
X0123
X0119
X0115
X012628Y0126
X009Y01355
Y01385
X0086
Y01355
X00765
Y01385
X00725
Y01355
X007836Y0126
X00715Y0073
X0069
X00665
X0064
X00615
X0059
X00565
X0054
X00515
X0049
X00505Y0071
X0053
X00555
X0058
X00605
X0063
X00655
X0068
X00705
X0069Y0069
X00665
X0064
X00615
X0059
X00565
X0054
X00515
X0049
X0096
X00985
X0101
X01035
X0106
X01085
X0111
X01135
X0116
X01145Y0071
X0112
X01095
X0107
X01045
X0102
X00995
X009726Y007095
X00985Y0073
X0096
X0101
X01035
X0106
X01085
X0111
X01135
X0116
X011919Y004724
X012441Y004828
Y00408
X008165Y0041
Y004828
X007674Y004724
X0172Y005026
Y005341
Y005656
X01735Y00455
Y00425
X01765
X0191Y00435
X0194
X0197
X02Y0051
Y00535
Y0056
Y00605
Y0063
X0198Y00665
X01945
X01875Y0056
Y00535
Y0051
X003939Y004804
X003656Y004594
X0033Y0046
X00275Y00435
X003939Y0041
X00165Y004711
Y005026
Y005341
Y005656
Y005971
X00165Y008967
X00195
X00225
Y009267
Y009567
Y009867
Y010167
X00195
Y009867
Y009567
Y009267
X00165
Y009567
Y009867
Y010167
Y010467
X00165Y01075
Y01105
Y01135
Y01165
Y01195
Y01225
X00195
X00225
Y01195
X00195
Y01165
Y01135
Y01105
Y01075
X00195Y010467
X00225
X00225Y01075
Y01105
Y01135
Y01165
X003Y0126
X0029Y01355
X0032
Y0139
X0029
Y0148
X0032
Y0152
X0029
X0032Y0156
X00355
Y0159
X00395
Y0156
X00435
Y0159
X00475
Y0156
X00515
Y0159
Y01625
Y0166
Y01695
Y0173
Y01765
Y018
Y01835
Y0187
Y01905
X0055
X00585
X0062
X00475
Y0187
Y01835
Y018
Y01765
Y0173
Y01695
Y0166
Y01625
X00565Y0159
Y0156
X00615
Y0159
X0066Y0156
X0082
X0086
Y0153
X008788Y01505
X0084
X0086Y01475
Y01445
Y01415
X009
Y01445
Y01475
X0088Y01585
X0084
X008
X0082Y0161
Y0164
Y0167
Y017
X0078
Y0167
Y0164
Y0161
X0086
Y0164
Y0167
Y017
X009
Y0167
Y0164
Y0161
X0078Y01735
X00765Y01415
X0115
Y01445
Y01475
X0119
Y01445
Y01415
X0123
Y01445
Y01475
X0127
Y01445
Y01415
X0125Y015
X0121
X0117
X0119Y0153
Y0156
X0123
Y0153
X0127
Y0156
X0125Y01585
X0121
X0117
X0119Y0161
Y0164
Y0167
Y017
X0123
Y0167
Y0164
Y0161
X0127
Y0164
Y0167
Y017
X0115
Y0167
Y0164
Y0161
X01305Y0181
X01335
X0137
X0138Y01845
X0141
X0144
X0147
X015
X0153
X0156
X0159
X0162
X01635Y0181
X01665
X01695
X01725
Y01775
Y01745
Y01715
Y01685
Y01655
Y01625
Y01595
Y01565
Y01535
Y01505
Y01475
Y01445
Y01415
X017599Y014443
Y014743
Y015043
Y015343
Y015643
Y015943
Y016243
Y016543
Y016843
Y017143
Y017443
Y017743
Y018093
X015Y01765
Y01725
Y01675
Y0163
Y01575
Y01535
Y01485
Y0143
X0135Y01845
X0132
T02
X0054Y0043
X0062Y00465
X0067Y004334
X0096Y004251
X01045Y004671
X01095Y004334
X014Y00435
X01515Y004334
T03
X0171Y006286
T04
X006176Y000726
X006Y00115
X006176Y001574
X0066Y00175
X007024Y001574
X0072Y00115
X007024Y000726
X0066Y00055
X0098Y000726
X009624Y00115
X0098Y001574
X010224Y00175
X010649Y001574
X010824Y00115
X010649Y000726
X010224Y00055
X013426Y000726
X01385Y00055
X014274Y000726
X01445Y00115
X014274Y001574
X01385Y00175
X013426Y001574
X01325Y00115
X012024Y018026
X0122Y01845
X012024Y018874
X0116Y01905
X011176Y018874
X011Y01845
X011176Y018026
X0116Y01785
X009274Y018026
X00885Y01785
X008426Y018026
X00825Y01845
X008426Y018874
X00885Y01905
X009274Y018874
X00945Y01845
T05
X018102Y004357
Y00664
X001402
Y004357
T06
X009238Y01545
X011206
T07
X0066Y00115
X010224
X01385
X0116Y01845
X00885
T08
X019685Y000787
X000787
Y018898
X019685
M30
