G04*
G04 #@! TF.GenerationSoftware,Altium Limited,Altium Designer,22.0.2 (36)*
G04*
G04 Layer_Color=2752767*
%FSLAX24Y24*%
%MOIN*%
G70*
G04*
G04 #@! TF.SameCoordinates,22A08989-F282-469C-B082-2707E795951A*
G04*
G04*
G04 #@! TF.FilePolarity,Positive*
G04*
G01*
G75*
%ADD14C,0.0100*%
%ADD58C,0.0020*%
%ADD59C,0.0027*%
D14*
X20079Y0D02*
G03*
X20472Y394I0J394D01*
G01*
Y19291D02*
G03*
X20079Y19685I-394J0D01*
G01*
X394D02*
G03*
X0Y19291I0J-394D01*
G01*
Y394D02*
G03*
X394Y0I394J0D01*
G01*
Y19685D02*
X20079D01*
X394Y0D02*
X20079D01*
X0Y394D02*
Y19291D01*
X20472Y394D02*
Y19291D01*
D58*
X8770Y18970D02*
Y19130D01*
X8930D01*
Y18970D01*
X8770D01*
X8346Y18794D02*
Y18954D01*
X8506D01*
Y18794D01*
X8346D01*
X8170Y18370D02*
Y18530D01*
X8330D01*
Y18370D01*
X8170D01*
X8346Y17946D02*
Y18106D01*
X8506D01*
Y17946D01*
X8346D01*
X8770Y17770D02*
Y17930D01*
X8930D01*
Y17770D01*
X8770D01*
X9194Y17946D02*
Y18106D01*
X9354D01*
Y17946D01*
X9194D01*
X9370Y18370D02*
Y18530D01*
X9530D01*
Y18370D01*
X9370D01*
X9194Y18794D02*
Y18954D01*
X9354D01*
Y18794D01*
X9194D01*
X10144Y1670D02*
Y1830D01*
X10304D01*
Y1670D01*
X10144D01*
X9720Y1494D02*
Y1654D01*
X9880D01*
Y1494D01*
X9720D01*
X9544Y1070D02*
Y1230D01*
X9704D01*
Y1070D01*
X9544D01*
X9720Y646D02*
Y806D01*
X9880D01*
Y646D01*
X9720D01*
X10144Y470D02*
Y630D01*
X10304D01*
Y470D01*
X10144D01*
X10569Y646D02*
Y806D01*
X10729D01*
Y646D01*
X10569D01*
X10744Y1070D02*
Y1230D01*
X10904D01*
Y1070D01*
X10744D01*
X10569Y1494D02*
Y1654D01*
X10729D01*
Y1494D01*
X10569D01*
X6520Y1670D02*
Y1830D01*
X6680D01*
Y1670D01*
X6520D01*
X6096Y1494D02*
Y1654D01*
X6256D01*
Y1494D01*
X6096D01*
X5920Y1070D02*
Y1230D01*
X6080D01*
Y1070D01*
X5920D01*
X6096Y646D02*
Y806D01*
X6256D01*
Y646D01*
X6096D01*
X6520Y470D02*
Y630D01*
X6680D01*
Y470D01*
X6520D01*
X6944Y646D02*
Y806D01*
X7104D01*
Y646D01*
X6944D01*
X7120Y1070D02*
Y1230D01*
X7280D01*
Y1070D01*
X7120D01*
X6944Y1494D02*
Y1654D01*
X7104D01*
Y1494D01*
X6944D01*
X14194D02*
Y1654D01*
X14354D01*
Y1494D01*
X14194D01*
X14370Y1070D02*
Y1230D01*
X14530D01*
Y1070D01*
X14370D01*
X14194Y646D02*
Y806D01*
X14354D01*
Y646D01*
X14194D01*
X13770Y470D02*
Y630D01*
X13930D01*
Y470D01*
X13770D01*
X13346Y646D02*
Y806D01*
X13506D01*
Y646D01*
X13346D01*
X13170Y1070D02*
Y1230D01*
X13330D01*
Y1070D01*
X13170D01*
X13346Y1494D02*
Y1654D01*
X13506D01*
Y1494D01*
X13346D01*
X13770Y1670D02*
Y1830D01*
X13930D01*
Y1670D01*
X13770D01*
X11944Y18794D02*
Y18954D01*
X12104D01*
Y18794D01*
X11944D01*
X12120Y18370D02*
Y18530D01*
X12280D01*
Y18370D01*
X12120D01*
X11944Y17946D02*
Y18106D01*
X12104D01*
Y17946D01*
X11944D01*
X11520Y17770D02*
Y17930D01*
X11680D01*
Y17770D01*
X11520D01*
X11096Y17946D02*
Y18106D01*
X11256D01*
Y17946D01*
X11096D01*
X10920Y18370D02*
Y18530D01*
X11080D01*
Y18370D01*
X10920D01*
X11096Y18794D02*
Y18954D01*
X11256D01*
Y18794D01*
X11096D01*
X11520Y18970D02*
Y19130D01*
X11680D01*
Y18970D01*
X11520D01*
X19685Y18818D02*
X19605Y18978D01*
X19765D01*
X19685Y18818D01*
Y707D02*
X19605Y867D01*
X19765D01*
X19685Y707D01*
X787Y18818D02*
X707Y18978D01*
X867D01*
X787Y18818D01*
Y707D02*
X707Y867D01*
X867D01*
X787Y707D01*
X9238Y15370D02*
X9278Y15410D01*
X9318D01*
X9278Y15450D01*
X9318Y15490D01*
X9278D01*
X9238Y15530D01*
X9198Y15490D01*
X9158D01*
X9198Y15450D01*
X9158Y15410D01*
X9198D01*
X9238Y15370D01*
X11206D02*
X11246Y15410D01*
X11286D01*
X11246Y15450D01*
X11286Y15490D01*
X11246D01*
X11206Y15530D01*
X11166Y15490D01*
X11126D01*
X11166Y15450D01*
X11126Y15410D01*
X11166D01*
X11206Y15370D01*
X3859Y4724D02*
X3899Y4804D01*
X3859Y4884D01*
X3939Y4844D01*
X4019Y4884D01*
X3979Y4804D01*
X4019Y4724D01*
X3939Y4764D01*
X3859Y4724D01*
X5360Y4260D02*
Y4220D01*
X5440D01*
Y4260D01*
X5480D01*
Y4340D01*
X5440D01*
Y4380D01*
X5360D01*
Y4340D01*
X5320D01*
Y4260D01*
X5360D01*
X6160Y4610D02*
Y4570D01*
X6240D01*
Y4610D01*
X6280D01*
Y4690D01*
X6240D01*
Y4730D01*
X6160D01*
Y4690D01*
X6120D01*
Y4610D01*
X6160D01*
X3859Y4020D02*
X3899Y4100D01*
X3859Y4180D01*
X3939Y4140D01*
X4019Y4180D01*
X3979Y4100D01*
X4019Y4020D01*
X3939Y4060D01*
X3859Y4020D01*
X17519Y13763D02*
X17559Y13843D01*
X17519Y13923D01*
X17599Y13883D01*
X17679Y13923D01*
X17639Y13843D01*
X17679Y13763D01*
X17599Y13803D01*
X17519Y13763D01*
Y14063D02*
X17559Y14143D01*
X17519Y14223D01*
X17599Y14183D01*
X17679Y14223D01*
X17639Y14143D01*
X17679Y14063D01*
X17599Y14103D01*
X17519Y14063D01*
Y14363D02*
X17559Y14443D01*
X17519Y14523D01*
X17599Y14483D01*
X17679Y14523D01*
X17639Y14443D01*
X17679Y14363D01*
X17599Y14403D01*
X17519Y14363D01*
Y14663D02*
X17559Y14743D01*
X17519Y14823D01*
X17599Y14783D01*
X17679Y14823D01*
X17639Y14743D01*
X17679Y14663D01*
X17599Y14703D01*
X17519Y14663D01*
Y14963D02*
X17559Y15043D01*
X17519Y15123D01*
X17599Y15083D01*
X17679Y15123D01*
X17639Y15043D01*
X17679Y14963D01*
X17599Y15003D01*
X17519Y14963D01*
Y15263D02*
X17559Y15343D01*
X17519Y15423D01*
X17599Y15383D01*
X17679Y15423D01*
X17639Y15343D01*
X17679Y15263D01*
X17599Y15303D01*
X17519Y15263D01*
Y15563D02*
X17559Y15643D01*
X17519Y15723D01*
X17599Y15683D01*
X17679Y15723D01*
X17639Y15643D01*
X17679Y15563D01*
X17599Y15603D01*
X17519Y15563D01*
Y15863D02*
X17559Y15943D01*
X17519Y16023D01*
X17599Y15983D01*
X17679Y16023D01*
X17639Y15943D01*
X17679Y15863D01*
X17599Y15903D01*
X17519Y15863D01*
Y16163D02*
X17559Y16243D01*
X17519Y16323D01*
X17599Y16283D01*
X17679Y16323D01*
X17639Y16243D01*
X17679Y16163D01*
X17599Y16203D01*
X17519Y16163D01*
Y16463D02*
X17559Y16543D01*
X17519Y16623D01*
X17599Y16583D01*
X17679Y16623D01*
X17639Y16543D01*
X17679Y16463D01*
X17599Y16503D01*
X17519Y16463D01*
Y16763D02*
X17559Y16843D01*
X17519Y16923D01*
X17599Y16883D01*
X17679Y16923D01*
X17639Y16843D01*
X17679Y16763D01*
X17599Y16803D01*
X17519Y16763D01*
Y17063D02*
X17559Y17143D01*
X17519Y17223D01*
X17599Y17183D01*
X17679Y17223D01*
X17639Y17143D01*
X17679Y17063D01*
X17599Y17103D01*
X17519Y17063D01*
Y17363D02*
X17559Y17443D01*
X17519Y17523D01*
X17599Y17483D01*
X17679Y17523D01*
X17639Y17443D01*
X17679Y17363D01*
X17599Y17403D01*
X17519Y17363D01*
Y17663D02*
X17559Y17743D01*
X17519Y17823D01*
X17599Y17783D01*
X17679Y17823D01*
X17639Y17743D01*
X17679Y17663D01*
X17599Y17703D01*
X17519Y17663D01*
Y18013D02*
X17559Y18093D01*
X17519Y18173D01*
X17599Y18133D01*
X17679Y18173D01*
X17639Y18093D01*
X17679Y18013D01*
X17599Y18053D01*
X17519Y18013D01*
X4670Y18970D02*
X4710Y19050D01*
X4670Y19130D01*
X4750Y19090D01*
X4830Y19130D01*
X4790Y19050D01*
X4830Y18970D01*
X4750Y19010D01*
X4670Y18970D01*
Y18620D02*
X4710Y18700D01*
X4670Y18780D01*
X4750Y18740D01*
X4830Y18780D01*
X4790Y18700D01*
X4830Y18620D01*
X4750Y18660D01*
X4670Y18620D01*
Y18270D02*
X4710Y18350D01*
X4670Y18430D01*
X4750Y18390D01*
X4830Y18430D01*
X4790Y18350D01*
X4830Y18270D01*
X4750Y18310D01*
X4670Y18270D01*
Y17920D02*
X4710Y18000D01*
X4670Y18080D01*
X4750Y18040D01*
X4830Y18080D01*
X4790Y18000D01*
X4830Y17920D01*
X4750Y17960D01*
X4670Y17920D01*
Y17570D02*
X4710Y17650D01*
X4670Y17730D01*
X4750Y17690D01*
X4830Y17730D01*
X4790Y17650D01*
X4830Y17570D01*
X4750Y17610D01*
X4670Y17570D01*
Y17220D02*
X4710Y17300D01*
X4670Y17380D01*
X4750Y17340D01*
X4830Y17380D01*
X4790Y17300D01*
X4830Y17220D01*
X4750Y17260D01*
X4670Y17220D01*
Y16870D02*
X4710Y16950D01*
X4670Y17030D01*
X4750Y16990D01*
X4830Y17030D01*
X4790Y16950D01*
X4830Y16870D01*
X4750Y16910D01*
X4670Y16870D01*
Y16520D02*
X4710Y16600D01*
X4670Y16680D01*
X4750Y16640D01*
X4830Y16680D01*
X4790Y16600D01*
X4830Y16520D01*
X4750Y16560D01*
X4670Y16520D01*
Y16170D02*
X4710Y16250D01*
X4670Y16330D01*
X4750Y16290D01*
X4830Y16330D01*
X4790Y16250D01*
X4830Y16170D01*
X4750Y16210D01*
X4670Y16170D01*
X18120Y11520D02*
X18160Y11600D01*
X18120Y11680D01*
X18200Y11640D01*
X18280Y11680D01*
X18240Y11600D01*
X18280Y11520D01*
X18200Y11560D01*
X18120Y11520D01*
X17820D02*
X17860Y11600D01*
X17820Y11680D01*
X17900Y11640D01*
X17980Y11680D01*
X17940Y11600D01*
X17980Y11520D01*
X17900Y11560D01*
X17820Y11520D01*
X17520D02*
X17560Y11600D01*
X17520Y11680D01*
X17600Y11640D01*
X17680Y11680D01*
X17640Y11600D01*
X17680Y11520D01*
X17600Y11560D01*
X17520Y11520D01*
X17220D02*
X17260Y11600D01*
X17220Y11680D01*
X17300Y11640D01*
X17380Y11680D01*
X17340Y11600D01*
X17380Y11520D01*
X17300Y11560D01*
X17220Y11520D01*
Y11220D02*
X17260Y11300D01*
X17220Y11380D01*
X17300Y11340D01*
X17380Y11380D01*
X17340Y11300D01*
X17380Y11220D01*
X17300Y11260D01*
X17220Y11220D01*
X18120D02*
X18160Y11300D01*
X18120Y11380D01*
X18200Y11340D01*
X18280Y11380D01*
X18240Y11300D01*
X18280Y11220D01*
X18200Y11260D01*
X18120Y11220D01*
X17820D02*
X17860Y11300D01*
X17820Y11380D01*
X17900Y11340D01*
X17980Y11380D01*
X17940Y11300D01*
X17980Y11220D01*
X17900Y11260D01*
X17820Y11220D01*
X17520D02*
X17560Y11300D01*
X17520Y11380D01*
X17600Y11340D01*
X17680Y11380D01*
X17640Y11300D01*
X17680Y11220D01*
X17600Y11260D01*
X17520Y11220D01*
X18120Y10570D02*
X18160Y10650D01*
X18120Y10730D01*
X18200Y10690D01*
X18280Y10730D01*
X18240Y10650D01*
X18280Y10570D01*
X18200Y10610D01*
X18120Y10570D01*
Y10320D02*
X18160Y10400D01*
X18120Y10480D01*
X18200Y10440D01*
X18280Y10480D01*
X18240Y10400D01*
X18280Y10320D01*
X18200Y10360D01*
X18120Y10320D01*
Y10070D02*
X18160Y10150D01*
X18120Y10230D01*
X18200Y10190D01*
X18280Y10230D01*
X18240Y10150D01*
X18280Y10070D01*
X18200Y10110D01*
X18120Y10070D01*
Y9820D02*
X18160Y9900D01*
X18120Y9980D01*
X18200Y9940D01*
X18280Y9980D01*
X18240Y9900D01*
X18280Y9820D01*
X18200Y9860D01*
X18120Y9820D01*
Y9570D02*
X18160Y9650D01*
X18120Y9730D01*
X18200Y9690D01*
X18280Y9730D01*
X18240Y9650D01*
X18280Y9570D01*
X18200Y9610D01*
X18120Y9570D01*
Y9320D02*
X18160Y9400D01*
X18120Y9480D01*
X18200Y9440D01*
X18280Y9480D01*
X18240Y9400D01*
X18280Y9320D01*
X18200Y9360D01*
X18120Y9320D01*
Y9070D02*
X18160Y9150D01*
X18120Y9230D01*
X18200Y9190D01*
X18280Y9230D01*
X18240Y9150D01*
X18280Y9070D01*
X18200Y9110D01*
X18120Y9070D01*
X17820Y10570D02*
X17860Y10650D01*
X17820Y10730D01*
X17900Y10690D01*
X17980Y10730D01*
X17940Y10650D01*
X17980Y10570D01*
X17900Y10610D01*
X17820Y10570D01*
Y10320D02*
X17860Y10400D01*
X17820Y10480D01*
X17900Y10440D01*
X17980Y10480D01*
X17940Y10400D01*
X17980Y10320D01*
X17900Y10360D01*
X17820Y10320D01*
Y10070D02*
X17860Y10150D01*
X17820Y10230D01*
X17900Y10190D01*
X17980Y10230D01*
X17940Y10150D01*
X17980Y10070D01*
X17900Y10110D01*
X17820Y10070D01*
Y9820D02*
X17860Y9900D01*
X17820Y9980D01*
X17900Y9940D01*
X17980Y9980D01*
X17940Y9900D01*
X17980Y9820D01*
X17900Y9860D01*
X17820Y9820D01*
Y9570D02*
X17860Y9650D01*
X17820Y9730D01*
X17900Y9690D01*
X17980Y9730D01*
X17940Y9650D01*
X17980Y9570D01*
X17900Y9610D01*
X17820Y9570D01*
Y9320D02*
X17860Y9400D01*
X17820Y9480D01*
X17900Y9440D01*
X17980Y9480D01*
X17940Y9400D01*
X17980Y9320D01*
X17900Y9360D01*
X17820Y9320D01*
Y9070D02*
X17860Y9150D01*
X17820Y9230D01*
X17900Y9190D01*
X17980Y9230D01*
X17940Y9150D01*
X17980Y9070D01*
X17900Y9110D01*
X17820Y9070D01*
X17520D02*
X17560Y9150D01*
X17520Y9230D01*
X17600Y9190D01*
X17680Y9230D01*
X17640Y9150D01*
X17680Y9070D01*
X17600Y9110D01*
X17520Y9070D01*
Y9320D02*
X17560Y9400D01*
X17520Y9480D01*
X17600Y9440D01*
X17680Y9480D01*
X17640Y9400D01*
X17680Y9320D01*
X17600Y9360D01*
X17520Y9320D01*
Y9570D02*
X17560Y9650D01*
X17520Y9730D01*
X17600Y9690D01*
X17680Y9730D01*
X17640Y9650D01*
X17680Y9570D01*
X17600Y9610D01*
X17520Y9570D01*
Y9820D02*
X17560Y9900D01*
X17520Y9980D01*
X17600Y9940D01*
X17680Y9980D01*
X17640Y9900D01*
X17680Y9820D01*
X17600Y9860D01*
X17520Y9820D01*
Y10070D02*
X17560Y10150D01*
X17520Y10230D01*
X17600Y10190D01*
X17680Y10230D01*
X17640Y10150D01*
X17680Y10070D01*
X17600Y10110D01*
X17520Y10070D01*
Y10320D02*
X17560Y10400D01*
X17520Y10480D01*
X17600Y10440D01*
X17680Y10480D01*
X17640Y10400D01*
X17680Y10320D01*
X17600Y10360D01*
X17520Y10320D01*
Y10570D02*
X17560Y10650D01*
X17520Y10730D01*
X17600Y10690D01*
X17680Y10730D01*
X17640Y10650D01*
X17680Y10570D01*
X17600Y10610D01*
X17520Y10570D01*
X2170Y10087D02*
X2210Y10167D01*
X2170Y10247D01*
X2250Y10207D01*
X2330Y10247D01*
X2290Y10167D01*
X2330Y10087D01*
X2250Y10127D01*
X2170Y10087D01*
Y9787D02*
X2210Y9867D01*
X2170Y9947D01*
X2250Y9907D01*
X2330Y9947D01*
X2290Y9867D01*
X2330Y9787D01*
X2250Y9827D01*
X2170Y9787D01*
Y9487D02*
X2210Y9567D01*
X2170Y9647D01*
X2250Y9607D01*
X2330Y9647D01*
X2290Y9567D01*
X2330Y9487D01*
X2250Y9527D01*
X2170Y9487D01*
Y9187D02*
X2210Y9267D01*
X2170Y9347D01*
X2250Y9307D01*
X2330Y9347D01*
X2290Y9267D01*
X2330Y9187D01*
X2250Y9227D01*
X2170Y9187D01*
Y8887D02*
X2210Y8967D01*
X2170Y9047D01*
X2250Y9007D01*
X2330Y9047D01*
X2290Y8967D01*
X2330Y8887D01*
X2250Y8927D01*
X2170Y8887D01*
X1870D02*
X1910Y8967D01*
X1870Y9047D01*
X1950Y9007D01*
X2030Y9047D01*
X1990Y8967D01*
X2030Y8887D01*
X1950Y8927D01*
X1870Y8887D01*
Y9187D02*
X1910Y9267D01*
X1870Y9347D01*
X1950Y9307D01*
X2030Y9347D01*
X1990Y9267D01*
X2030Y9187D01*
X1950Y9227D01*
X1870Y9187D01*
Y9487D02*
X1910Y9567D01*
X1870Y9647D01*
X1950Y9607D01*
X2030Y9647D01*
X1990Y9567D01*
X2030Y9487D01*
X1950Y9527D01*
X1870Y9487D01*
Y9787D02*
X1910Y9867D01*
X1870Y9947D01*
X1950Y9907D01*
X2030Y9947D01*
X1990Y9867D01*
X2030Y9787D01*
X1950Y9827D01*
X1870Y9787D01*
Y10087D02*
X1910Y10167D01*
X1870Y10247D01*
X1950Y10207D01*
X2030Y10247D01*
X1990Y10167D01*
X2030Y10087D01*
X1950Y10127D01*
X1870Y10087D01*
X2170Y10387D02*
X2210Y10467D01*
X2170Y10547D01*
X2250Y10507D01*
X2330Y10547D01*
X2290Y10467D01*
X2330Y10387D01*
X2250Y10427D01*
X2170Y10387D01*
X1870D02*
X1910Y10467D01*
X1870Y10547D01*
X1950Y10507D01*
X2030Y10547D01*
X1990Y10467D01*
X2030Y10387D01*
X1950Y10427D01*
X1870Y10387D01*
X1570D02*
X1610Y10467D01*
X1570Y10547D01*
X1650Y10507D01*
X1730Y10547D01*
X1690Y10467D01*
X1730Y10387D01*
X1650Y10427D01*
X1570Y10387D01*
Y10087D02*
X1610Y10167D01*
X1570Y10247D01*
X1650Y10207D01*
X1730Y10247D01*
X1690Y10167D01*
X1730Y10087D01*
X1650Y10127D01*
X1570Y10087D01*
Y9787D02*
X1610Y9867D01*
X1570Y9947D01*
X1650Y9907D01*
X1730Y9947D01*
X1690Y9867D01*
X1730Y9787D01*
X1650Y9827D01*
X1570Y9787D01*
Y9487D02*
X1610Y9567D01*
X1570Y9647D01*
X1650Y9607D01*
X1730Y9647D01*
X1690Y9567D01*
X1730Y9487D01*
X1650Y9527D01*
X1570Y9487D01*
Y9187D02*
X1610Y9267D01*
X1570Y9347D01*
X1650Y9307D01*
X1730Y9347D01*
X1690Y9267D01*
X1730Y9187D01*
X1650Y9227D01*
X1570Y9187D01*
Y8887D02*
X1610Y8967D01*
X1570Y9047D01*
X1650Y9007D01*
X1730Y9047D01*
X1690Y8967D01*
X1730Y8887D01*
X1650Y8927D01*
X1570Y8887D01*
X1570Y10670D02*
X1610Y10750D01*
X1570Y10830D01*
X1650Y10790D01*
X1730Y10830D01*
X1690Y10750D01*
X1730Y10670D01*
X1650Y10710D01*
X1570Y10670D01*
Y10970D02*
X1610Y11050D01*
X1570Y11130D01*
X1650Y11090D01*
X1730Y11130D01*
X1690Y11050D01*
X1730Y10970D01*
X1650Y11010D01*
X1570Y10970D01*
Y11270D02*
X1610Y11350D01*
X1570Y11430D01*
X1650Y11390D01*
X1730Y11430D01*
X1690Y11350D01*
X1730Y11270D01*
X1650Y11310D01*
X1570Y11270D01*
Y11570D02*
X1610Y11650D01*
X1570Y11730D01*
X1650Y11690D01*
X1730Y11730D01*
X1690Y11650D01*
X1730Y11570D01*
X1650Y11610D01*
X1570Y11570D01*
Y11870D02*
X1610Y11950D01*
X1570Y12030D01*
X1650Y11990D01*
X1730Y12030D01*
X1690Y11950D01*
X1730Y11870D01*
X1650Y11910D01*
X1570Y11870D01*
Y12170D02*
X1610Y12250D01*
X1570Y12330D01*
X1650Y12290D01*
X1730Y12330D01*
X1690Y12250D01*
X1730Y12170D01*
X1650Y12210D01*
X1570Y12170D01*
X1870D02*
X1910Y12250D01*
X1870Y12330D01*
X1950Y12290D01*
X2030Y12330D01*
X1990Y12250D01*
X2030Y12170D01*
X1950Y12210D01*
X1870Y12170D01*
X2170D02*
X2210Y12250D01*
X2170Y12330D01*
X2250Y12290D01*
X2330Y12330D01*
X2290Y12250D01*
X2330Y12170D01*
X2250Y12210D01*
X2170Y12170D01*
X1870Y11870D02*
X1910Y11950D01*
X1870Y12030D01*
X1950Y11990D01*
X2030Y12030D01*
X1990Y11950D01*
X2030Y11870D01*
X1950Y11910D01*
X1870Y11870D01*
Y11570D02*
X1910Y11650D01*
X1870Y11730D01*
X1950Y11690D01*
X2030Y11730D01*
X1990Y11650D01*
X2030Y11570D01*
X1950Y11610D01*
X1870Y11570D01*
Y11270D02*
X1910Y11350D01*
X1870Y11430D01*
X1950Y11390D01*
X2030Y11430D01*
X1990Y11350D01*
X2030Y11270D01*
X1950Y11310D01*
X1870Y11270D01*
Y10970D02*
X1910Y11050D01*
X1870Y11130D01*
X1950Y11090D01*
X2030Y11130D01*
X1990Y11050D01*
X2030Y10970D01*
X1950Y11010D01*
X1870Y10970D01*
Y10670D02*
X1910Y10750D01*
X1870Y10830D01*
X1950Y10790D01*
X2030Y10830D01*
X1990Y10750D01*
X2030Y10670D01*
X1950Y10710D01*
X1870Y10670D01*
X2170D02*
X2210Y10750D01*
X2170Y10830D01*
X2250Y10790D01*
X2330Y10830D01*
X2290Y10750D01*
X2330Y10670D01*
X2250Y10710D01*
X2170Y10670D01*
Y10970D02*
X2210Y11050D01*
X2170Y11130D01*
X2250Y11090D01*
X2330Y11130D01*
X2290Y11050D01*
X2330Y10970D01*
X2250Y11010D01*
X2170Y10970D01*
Y11270D02*
X2210Y11350D01*
X2170Y11430D01*
X2250Y11390D01*
X2330Y11430D01*
X2290Y11350D01*
X2330Y11270D01*
X2250Y11310D01*
X2170Y11270D01*
Y11570D02*
X2210Y11650D01*
X2170Y11730D01*
X2250Y11690D01*
X2330Y11730D01*
X2290Y11650D01*
X2330Y11570D01*
X2250Y11610D01*
X2170Y11570D01*
Y11870D02*
X2210Y11950D01*
X2170Y12030D01*
X2250Y11990D01*
X2330Y12030D01*
X2290Y11950D01*
X2330Y11870D01*
X2250Y11910D01*
X2170Y11870D01*
X2820Y13820D02*
X2860Y13900D01*
X2820Y13980D01*
X2900Y13940D01*
X2980Y13980D01*
X2940Y13900D01*
X2980Y13820D01*
X2900Y13860D01*
X2820Y13820D01*
Y13470D02*
X2860Y13550D01*
X2820Y13630D01*
X2900Y13590D01*
X2980Y13630D01*
X2940Y13550D01*
X2980Y13470D01*
X2900Y13510D01*
X2820Y13470D01*
Y15120D02*
X2860Y15200D01*
X2820Y15280D01*
X2900Y15240D01*
X2980Y15280D01*
X2940Y15200D01*
X2980Y15120D01*
X2900Y15160D01*
X2820Y15120D01*
Y14720D02*
X2860Y14800D01*
X2820Y14880D01*
X2900Y14840D01*
X2980Y14880D01*
X2940Y14800D01*
X2980Y14720D01*
X2900Y14760D01*
X2820Y14720D01*
X19720Y6570D02*
X19760Y6650D01*
X19720Y6730D01*
X19800Y6690D01*
X19880Y6730D01*
X19840Y6650D01*
X19880Y6570D01*
X19800Y6610D01*
X19720Y6570D01*
X19370D02*
X19410Y6650D01*
X19370Y6730D01*
X19450Y6690D01*
X19530Y6730D01*
X19490Y6650D01*
X19530Y6570D01*
X19450Y6610D01*
X19370Y6570D01*
X19920Y6220D02*
X19960Y6300D01*
X19920Y6380D01*
X20000Y6340D01*
X20080Y6380D01*
X20040Y6300D01*
X20080Y6220D01*
X20000Y6260D01*
X19920Y6220D01*
Y5970D02*
X19960Y6050D01*
X19920Y6130D01*
X20000Y6090D01*
X20080Y6130D01*
X20040Y6050D01*
X20080Y5970D01*
X20000Y6010D01*
X19920Y5970D01*
X19370Y7270D02*
X19410Y7350D01*
X19370Y7430D01*
X19450Y7390D01*
X19530Y7430D01*
X19490Y7350D01*
X19530Y7270D01*
X19450Y7310D01*
X19370Y7270D01*
X19670D02*
X19710Y7350D01*
X19670Y7430D01*
X19750Y7390D01*
X19830Y7430D01*
X19790Y7350D01*
X19830Y7270D01*
X19750Y7310D01*
X19670Y7270D01*
X19970D02*
X20010Y7350D01*
X19970Y7430D01*
X20050Y7390D01*
X20130Y7430D01*
X20090Y7350D01*
X20130Y7270D01*
X20050Y7310D01*
X19970Y7270D01*
Y7520D02*
X20010Y7600D01*
X19970Y7680D01*
X20050Y7640D01*
X20130Y7680D01*
X20090Y7600D01*
X20130Y7520D01*
X20050Y7560D01*
X19970Y7520D01*
Y7770D02*
X20010Y7850D01*
X19970Y7930D01*
X20050Y7890D01*
X20130Y7930D01*
X20090Y7850D01*
X20130Y7770D01*
X20050Y7810D01*
X19970Y7770D01*
X14920Y13270D02*
X14960Y13350D01*
X14920Y13430D01*
X15000Y13390D01*
X15080Y13430D01*
X15040Y13350D01*
X15080Y13270D01*
X15000Y13310D01*
X14920Y13270D01*
X3470Y15820D02*
X3510Y15900D01*
X3470Y15980D01*
X3550Y15940D01*
X3630Y15980D01*
X3590Y15900D01*
X3630Y15820D01*
X3550Y15860D01*
X3470Y15820D01*
X3870D02*
X3910Y15900D01*
X3870Y15980D01*
X3950Y15940D01*
X4030Y15980D01*
X3990Y15900D01*
X4030Y15820D01*
X3950Y15860D01*
X3870Y15820D01*
X4270D02*
X4310Y15900D01*
X4270Y15980D01*
X4350Y15940D01*
X4430Y15980D01*
X4390Y15900D01*
X4430Y15820D01*
X4350Y15860D01*
X4270Y15820D01*
X4670D02*
X4710Y15900D01*
X4670Y15980D01*
X4750Y15940D01*
X4830Y15980D01*
X4790Y15900D01*
X4830Y15820D01*
X4750Y15860D01*
X4670Y15820D01*
X3120Y15520D02*
X3160Y15600D01*
X3120Y15680D01*
X3200Y15640D01*
X3280Y15680D01*
X3240Y15600D01*
X3280Y15520D01*
X3200Y15560D01*
X3120Y15520D01*
Y15120D02*
X3160Y15200D01*
X3120Y15280D01*
X3200Y15240D01*
X3280Y15280D01*
X3240Y15200D01*
X3280Y15120D01*
X3200Y15160D01*
X3120Y15120D01*
Y14720D02*
X3160Y14800D01*
X3120Y14880D01*
X3200Y14840D01*
X3280Y14880D01*
X3240Y14800D01*
X3280Y14720D01*
X3200Y14760D01*
X3120Y14720D01*
X3470Y15520D02*
X3510Y15600D01*
X3470Y15680D01*
X3550Y15640D01*
X3630Y15680D01*
X3590Y15600D01*
X3630Y15520D01*
X3550Y15560D01*
X3470Y15520D01*
X3870D02*
X3910Y15600D01*
X3870Y15680D01*
X3950Y15640D01*
X4030Y15680D01*
X3990Y15600D01*
X4030Y15520D01*
X3950Y15560D01*
X3870Y15520D01*
X4270D02*
X4310Y15600D01*
X4270Y15680D01*
X4350Y15640D01*
X4430Y15680D01*
X4390Y15600D01*
X4430Y15520D01*
X4350Y15560D01*
X4270Y15520D01*
X4670D02*
X4710Y15600D01*
X4670Y15680D01*
X4750Y15640D01*
X4830Y15680D01*
X4790Y15600D01*
X4830Y15520D01*
X4750Y15560D01*
X4670Y15520D01*
X5070D02*
X5110Y15600D01*
X5070Y15680D01*
X5150Y15640D01*
X5230Y15680D01*
X5190Y15600D01*
X5230Y15520D01*
X5150Y15560D01*
X5070Y15520D01*
X5570D02*
X5610Y15600D01*
X5570Y15680D01*
X5650Y15640D01*
X5730Y15680D01*
X5690Y15600D01*
X5730Y15520D01*
X5650Y15560D01*
X5570Y15520D01*
X6520D02*
X6560Y15600D01*
X6520Y15680D01*
X6600Y15640D01*
X6680Y15680D01*
X6640Y15600D01*
X6680Y15520D01*
X6600Y15560D01*
X6520Y15520D01*
X6070D02*
X6110Y15600D01*
X6070Y15680D01*
X6150Y15640D01*
X6230Y15680D01*
X6190Y15600D01*
X6230Y15520D01*
X6150Y15560D01*
X6070Y15520D01*
X5070Y15820D02*
X5110Y15900D01*
X5070Y15980D01*
X5150Y15940D01*
X5230Y15980D01*
X5190Y15900D01*
X5230Y15820D01*
X5150Y15860D01*
X5070Y15820D01*
X5570D02*
X5610Y15900D01*
X5570Y15980D01*
X5650Y15940D01*
X5730Y15980D01*
X5690Y15900D01*
X5730Y15820D01*
X5650Y15860D01*
X5570Y15820D01*
X6070D02*
X6110Y15900D01*
X6070Y15980D01*
X6150Y15940D01*
X6230Y15980D01*
X6190Y15900D01*
X6230Y15820D01*
X6150Y15860D01*
X6070Y15820D01*
X5070Y16170D02*
X5110Y16250D01*
X5070Y16330D01*
X5150Y16290D01*
X5230Y16330D01*
X5190Y16250D01*
X5230Y16170D01*
X5150Y16210D01*
X5070Y16170D01*
Y16520D02*
X5110Y16600D01*
X5070Y16680D01*
X5150Y16640D01*
X5230Y16680D01*
X5190Y16600D01*
X5230Y16520D01*
X5150Y16560D01*
X5070Y16520D01*
Y16870D02*
X5110Y16950D01*
X5070Y17030D01*
X5150Y16990D01*
X5230Y17030D01*
X5190Y16950D01*
X5230Y16870D01*
X5150Y16910D01*
X5070Y16870D01*
Y17220D02*
X5110Y17300D01*
X5070Y17380D01*
X5150Y17340D01*
X5230Y17380D01*
X5190Y17300D01*
X5230Y17220D01*
X5150Y17260D01*
X5070Y17220D01*
Y17570D02*
X5110Y17650D01*
X5070Y17730D01*
X5150Y17690D01*
X5230Y17730D01*
X5190Y17650D01*
X5230Y17570D01*
X5150Y17610D01*
X5070Y17570D01*
Y17920D02*
X5110Y18000D01*
X5070Y18080D01*
X5150Y18040D01*
X5230Y18080D01*
X5190Y18000D01*
X5230Y17920D01*
X5150Y17960D01*
X5070Y17920D01*
Y18270D02*
X5110Y18350D01*
X5070Y18430D01*
X5150Y18390D01*
X5230Y18430D01*
X5190Y18350D01*
X5230Y18270D01*
X5150Y18310D01*
X5070Y18270D01*
Y18620D02*
X5110Y18700D01*
X5070Y18780D01*
X5150Y18740D01*
X5230Y18780D01*
X5190Y18700D01*
X5230Y18620D01*
X5150Y18660D01*
X5070Y18620D01*
Y18970D02*
X5110Y19050D01*
X5070Y19130D01*
X5150Y19090D01*
X5230Y19130D01*
X5190Y19050D01*
X5230Y18970D01*
X5150Y19010D01*
X5070Y18970D01*
X5420D02*
X5460Y19050D01*
X5420Y19130D01*
X5500Y19090D01*
X5580Y19130D01*
X5540Y19050D01*
X5580Y18970D01*
X5500Y19010D01*
X5420Y18970D01*
X5770D02*
X5810Y19050D01*
X5770Y19130D01*
X5850Y19090D01*
X5930Y19130D01*
X5890Y19050D01*
X5930Y18970D01*
X5850Y19010D01*
X5770Y18970D01*
X6120D02*
X6160Y19050D01*
X6120Y19130D01*
X6200Y19090D01*
X6280Y19130D01*
X6240Y19050D01*
X6280Y18970D01*
X6200Y19010D01*
X6120Y18970D01*
X3120Y13820D02*
X3160Y13900D01*
X3120Y13980D01*
X3200Y13940D01*
X3280Y13980D01*
X3240Y13900D01*
X3280Y13820D01*
X3200Y13860D01*
X3120Y13820D01*
Y13470D02*
X3160Y13550D01*
X3120Y13630D01*
X3200Y13590D01*
X3280Y13630D01*
X3240Y13550D01*
X3280Y13470D01*
X3200Y13510D01*
X3120Y13470D01*
X7570Y14070D02*
X7610Y14150D01*
X7570Y14230D01*
X7650Y14190D01*
X7730Y14230D01*
X7690Y14150D01*
X7730Y14070D01*
X7650Y14110D01*
X7570Y14070D01*
Y13770D02*
X7610Y13850D01*
X7570Y13930D01*
X7650Y13890D01*
X7730Y13930D01*
X7690Y13850D01*
X7730Y13770D01*
X7650Y13810D01*
X7570Y13770D01*
Y13470D02*
X7610Y13550D01*
X7570Y13630D01*
X7650Y13590D01*
X7730Y13630D01*
X7690Y13550D01*
X7730Y13470D01*
X7650Y13510D01*
X7570Y13470D01*
X7170Y13770D02*
X7210Y13850D01*
X7170Y13930D01*
X7250Y13890D01*
X7330Y13930D01*
X7290Y13850D01*
X7330Y13770D01*
X7250Y13810D01*
X7170Y13770D01*
Y13470D02*
X7210Y13550D01*
X7170Y13630D01*
X7250Y13590D01*
X7330Y13630D01*
X7290Y13550D01*
X7330Y13470D01*
X7250Y13510D01*
X7170Y13470D01*
X8520D02*
X8560Y13550D01*
X8520Y13630D01*
X8600Y13590D01*
X8680Y13630D01*
X8640Y13550D01*
X8680Y13470D01*
X8600Y13510D01*
X8520Y13470D01*
X8920D02*
X8960Y13550D01*
X8920Y13630D01*
X9000Y13590D01*
X9080Y13630D01*
X9040Y13550D01*
X9080Y13470D01*
X9000Y13510D01*
X8920Y13470D01*
X14920Y17570D02*
X14960Y17650D01*
X14920Y17730D01*
X15000Y17690D01*
X15080Y17730D01*
X15040Y17650D01*
X15080Y17570D01*
X15000Y17610D01*
X14920Y17570D01*
Y17170D02*
X14960Y17250D01*
X14920Y17330D01*
X15000Y17290D01*
X15080Y17330D01*
X15040Y17250D01*
X15080Y17170D01*
X15000Y17210D01*
X14920Y17170D01*
Y16670D02*
X14960Y16750D01*
X14920Y16830D01*
X15000Y16790D01*
X15080Y16830D01*
X15040Y16750D01*
X15080Y16670D01*
X15000Y16710D01*
X14920Y16670D01*
Y16220D02*
X14960Y16300D01*
X14920Y16380D01*
X15000Y16340D01*
X15080Y16380D01*
X15040Y16300D01*
X15080Y16220D01*
X15000Y16260D01*
X14920Y16220D01*
Y15670D02*
X14960Y15750D01*
X14920Y15830D01*
X15000Y15790D01*
X15080Y15830D01*
X15040Y15750D01*
X15080Y15670D01*
X15000Y15710D01*
X14920Y15670D01*
Y15270D02*
X14960Y15350D01*
X14920Y15430D01*
X15000Y15390D01*
X15080Y15430D01*
X15040Y15350D01*
X15080Y15270D01*
X15000Y15310D01*
X14920Y15270D01*
Y14770D02*
X14960Y14850D01*
X14920Y14930D01*
X15000Y14890D01*
X15080Y14930D01*
X15040Y14850D01*
X15080Y14770D01*
X15000Y14810D01*
X14920Y14770D01*
Y14220D02*
X14960Y14300D01*
X14920Y14380D01*
X15000Y14340D01*
X15080Y14380D01*
X15040Y14300D01*
X15080Y14220D01*
X15000Y14260D01*
X14920Y14220D01*
Y13720D02*
X14960Y13800D01*
X14920Y13880D01*
X15000Y13840D01*
X15080Y13880D01*
X15040Y13800D01*
X15080Y13720D01*
X15000Y13760D01*
X14920Y13720D01*
X16120Y18370D02*
X16160Y18450D01*
X16120Y18530D01*
X16200Y18490D01*
X16280Y18530D01*
X16240Y18450D01*
X16280Y18370D01*
X16200Y18410D01*
X16120Y18370D01*
X17170Y18020D02*
X17210Y18100D01*
X17170Y18180D01*
X17250Y18140D01*
X17330Y18180D01*
X17290Y18100D01*
X17330Y18020D01*
X17250Y18060D01*
X17170Y18020D01*
X16870D02*
X16910Y18100D01*
X16870Y18180D01*
X16950Y18140D01*
X17030Y18180D01*
X16990Y18100D01*
X17030Y18020D01*
X16950Y18060D01*
X16870Y18020D01*
X16570D02*
X16610Y18100D01*
X16570Y18180D01*
X16650Y18140D01*
X16730Y18180D01*
X16690Y18100D01*
X16730Y18020D01*
X16650Y18060D01*
X16570Y18020D01*
X16270D02*
X16310Y18100D01*
X16270Y18180D01*
X16350Y18140D01*
X16430Y18180D01*
X16390Y18100D01*
X16430Y18020D01*
X16350Y18060D01*
X16270Y18020D01*
X15820Y18370D02*
X15860Y18450D01*
X15820Y18530D01*
X15900Y18490D01*
X15980Y18530D01*
X15940Y18450D01*
X15980Y18370D01*
X15900Y18410D01*
X15820Y18370D01*
X15520D02*
X15560Y18450D01*
X15520Y18530D01*
X15600Y18490D01*
X15680Y18530D01*
X15640Y18450D01*
X15680Y18370D01*
X15600Y18410D01*
X15520Y18370D01*
X15220D02*
X15260Y18450D01*
X15220Y18530D01*
X15300Y18490D01*
X15380Y18530D01*
X15340Y18450D01*
X15380Y18370D01*
X15300Y18410D01*
X15220Y18370D01*
X14920D02*
X14960Y18450D01*
X14920Y18530D01*
X15000Y18490D01*
X15080Y18530D01*
X15040Y18450D01*
X15080Y18370D01*
X15000Y18410D01*
X14920Y18370D01*
X14620D02*
X14660Y18450D01*
X14620Y18530D01*
X14700Y18490D01*
X14780Y18530D01*
X14740Y18450D01*
X14780Y18370D01*
X14700Y18410D01*
X14620Y18370D01*
X14320D02*
X14360Y18450D01*
X14320Y18530D01*
X14400Y18490D01*
X14480Y18530D01*
X14440Y18450D01*
X14480Y18370D01*
X14400Y18410D01*
X14320Y18370D01*
X14020D02*
X14060Y18450D01*
X14020Y18530D01*
X14100Y18490D01*
X14180Y18530D01*
X14140Y18450D01*
X14180Y18370D01*
X14100Y18410D01*
X14020Y18370D01*
X13720D02*
X13760Y18450D01*
X13720Y18530D01*
X13800Y18490D01*
X13880Y18530D01*
X13840Y18450D01*
X13880Y18370D01*
X13800Y18410D01*
X13720Y18370D01*
X13420D02*
X13460Y18450D01*
X13420Y18530D01*
X13500Y18490D01*
X13580Y18530D01*
X13540Y18450D01*
X13580Y18370D01*
X13500Y18410D01*
X13420Y18370D01*
X13120D02*
X13160Y18450D01*
X13120Y18530D01*
X13200Y18490D01*
X13280Y18530D01*
X13240Y18450D01*
X13280Y18370D01*
X13200Y18410D01*
X13120Y18370D01*
X13620Y18020D02*
X13660Y18100D01*
X13620Y18180D01*
X13700Y18140D01*
X13780Y18180D01*
X13740Y18100D01*
X13780Y18020D01*
X13700Y18060D01*
X13620Y18020D01*
X13270D02*
X13310Y18100D01*
X13270Y18180D01*
X13350Y18140D01*
X13430Y18180D01*
X13390Y18100D01*
X13430Y18020D01*
X13350Y18060D01*
X13270Y18020D01*
X12970D02*
X13010Y18100D01*
X12970Y18180D01*
X13050Y18140D01*
X13130Y18180D01*
X13090Y18100D01*
X13130Y18020D01*
X13050Y18060D01*
X12970Y18020D01*
X17170Y17670D02*
X17210Y17750D01*
X17170Y17830D01*
X17250Y17790D01*
X17330Y17830D01*
X17290Y17750D01*
X17330Y17670D01*
X17250Y17710D01*
X17170Y17670D01*
Y17370D02*
X17210Y17450D01*
X17170Y17530D01*
X17250Y17490D01*
X17330Y17530D01*
X17290Y17450D01*
X17330Y17370D01*
X17250Y17410D01*
X17170Y17370D01*
Y17070D02*
X17210Y17150D01*
X17170Y17230D01*
X17250Y17190D01*
X17330Y17230D01*
X17290Y17150D01*
X17330Y17070D01*
X17250Y17110D01*
X17170Y17070D01*
Y16770D02*
X17210Y16850D01*
X17170Y16930D01*
X17250Y16890D01*
X17330Y16930D01*
X17290Y16850D01*
X17330Y16770D01*
X17250Y16810D01*
X17170Y16770D01*
Y16470D02*
X17210Y16550D01*
X17170Y16630D01*
X17250Y16590D01*
X17330Y16630D01*
X17290Y16550D01*
X17330Y16470D01*
X17250Y16510D01*
X17170Y16470D01*
Y16170D02*
X17210Y16250D01*
X17170Y16330D01*
X17250Y16290D01*
X17330Y16330D01*
X17290Y16250D01*
X17330Y16170D01*
X17250Y16210D01*
X17170Y16170D01*
Y15870D02*
X17210Y15950D01*
X17170Y16030D01*
X17250Y15990D01*
X17330Y16030D01*
X17290Y15950D01*
X17330Y15870D01*
X17250Y15910D01*
X17170Y15870D01*
Y15570D02*
X17210Y15650D01*
X17170Y15730D01*
X17250Y15690D01*
X17330Y15730D01*
X17290Y15650D01*
X17330Y15570D01*
X17250Y15610D01*
X17170Y15570D01*
Y15270D02*
X17210Y15350D01*
X17170Y15430D01*
X17250Y15390D01*
X17330Y15430D01*
X17290Y15350D01*
X17330Y15270D01*
X17250Y15310D01*
X17170Y15270D01*
Y14970D02*
X17210Y15050D01*
X17170Y15130D01*
X17250Y15090D01*
X17330Y15130D01*
X17290Y15050D01*
X17330Y14970D01*
X17250Y15010D01*
X17170Y14970D01*
Y14670D02*
X17210Y14750D01*
X17170Y14830D01*
X17250Y14790D01*
X17330Y14830D01*
X17290Y14750D01*
X17330Y14670D01*
X17250Y14710D01*
X17170Y14670D01*
Y14370D02*
X17210Y14450D01*
X17170Y14530D01*
X17250Y14490D01*
X17330Y14530D01*
X17290Y14450D01*
X17330Y14370D01*
X17250Y14410D01*
X17170Y14370D01*
Y14070D02*
X17210Y14150D01*
X17170Y14230D01*
X17250Y14190D01*
X17330Y14230D01*
X17290Y14150D01*
X17330Y14070D01*
X17250Y14110D01*
X17170Y14070D01*
Y13770D02*
X17210Y13850D01*
X17170Y13930D01*
X17250Y13890D01*
X17330Y13930D01*
X17290Y13850D01*
X17330Y13770D01*
X17250Y13810D01*
X17170Y13770D01*
X12620D02*
X12660Y13850D01*
X12620Y13930D01*
X12700Y13890D01*
X12780Y13930D01*
X12740Y13850D01*
X12780Y13770D01*
X12700Y13810D01*
X12620Y13770D01*
X12220D02*
X12260Y13850D01*
X12220Y13930D01*
X12300Y13890D01*
X12380Y13930D01*
X12340Y13850D01*
X12380Y13770D01*
X12300Y13810D01*
X12220Y13770D01*
X11820D02*
X11860Y13850D01*
X11820Y13930D01*
X11900Y13890D01*
X11980Y13930D01*
X11940Y13850D01*
X11980Y13770D01*
X11900Y13810D01*
X11820Y13770D01*
X11420D02*
X11460Y13850D01*
X11420Y13930D01*
X11500Y13890D01*
X11580Y13930D01*
X11540Y13850D01*
X11580Y13770D01*
X11500Y13810D01*
X11420Y13770D01*
X12620Y14070D02*
X12660Y14150D01*
X12620Y14230D01*
X12700Y14190D01*
X12780Y14230D01*
X12740Y14150D01*
X12780Y14070D01*
X12700Y14110D01*
X12620Y14070D01*
X12220D02*
X12260Y14150D01*
X12220Y14230D01*
X12300Y14190D01*
X12380Y14230D01*
X12340Y14150D01*
X12380Y14070D01*
X12300Y14110D01*
X12220Y14070D01*
X11820D02*
X11860Y14150D01*
X11820Y14230D01*
X11900Y14190D01*
X11980Y14230D01*
X11940Y14150D01*
X11980Y14070D01*
X11900Y14110D01*
X11820Y14070D01*
X11420D02*
X11460Y14150D01*
X11420Y14230D01*
X11500Y14190D01*
X11580Y14230D01*
X11540Y14150D01*
X11580Y14070D01*
X11500Y14110D01*
X11420Y14070D01*
X12620Y14370D02*
X12660Y14450D01*
X12620Y14530D01*
X12700Y14490D01*
X12780Y14530D01*
X12740Y14450D01*
X12780Y14370D01*
X12700Y14410D01*
X12620Y14370D01*
X12220D02*
X12260Y14450D01*
X12220Y14530D01*
X12300Y14490D01*
X12380Y14530D01*
X12340Y14450D01*
X12380Y14370D01*
X12300Y14410D01*
X12220Y14370D01*
X11820D02*
X11860Y14450D01*
X11820Y14530D01*
X11900Y14490D01*
X11980Y14530D01*
X11940Y14450D01*
X11980Y14370D01*
X11900Y14410D01*
X11820Y14370D01*
X11420D02*
X11460Y14450D01*
X11420Y14530D01*
X11500Y14490D01*
X11580Y14530D01*
X11540Y14450D01*
X11580Y14370D01*
X11500Y14410D01*
X11420Y14370D01*
X12620Y14670D02*
X12660Y14750D01*
X12620Y14830D01*
X12700Y14790D01*
X12780Y14830D01*
X12740Y14750D01*
X12780Y14670D01*
X12700Y14710D01*
X12620Y14670D01*
X12220D02*
X12260Y14750D01*
X12220Y14830D01*
X12300Y14790D01*
X12380Y14830D01*
X12340Y14750D01*
X12380Y14670D01*
X12300Y14710D01*
X12220Y14670D01*
X11420D02*
X11460Y14750D01*
X11420Y14830D01*
X11500Y14790D01*
X11580Y14830D01*
X11540Y14750D01*
X11580Y14670D01*
X11500Y14710D01*
X11420Y14670D01*
X11820D02*
X11860Y14750D01*
X11820Y14830D01*
X11900Y14790D01*
X11980Y14830D01*
X11940Y14750D01*
X11980Y14670D01*
X11900Y14710D01*
X11820Y14670D01*
X8520Y13770D02*
X8560Y13850D01*
X8520Y13930D01*
X8600Y13890D01*
X8680Y13930D01*
X8640Y13850D01*
X8680Y13770D01*
X8600Y13810D01*
X8520Y13770D01*
X8920D02*
X8960Y13850D01*
X8920Y13930D01*
X9000Y13890D01*
X9080Y13930D01*
X9040Y13850D01*
X9080Y13770D01*
X9000Y13810D01*
X8920Y13770D01*
X8520Y14070D02*
X8560Y14150D01*
X8520Y14230D01*
X8600Y14190D01*
X8680Y14230D01*
X8640Y14150D01*
X8680Y14070D01*
X8600Y14110D01*
X8520Y14070D01*
X8920D02*
X8960Y14150D01*
X8920Y14230D01*
X9000Y14190D01*
X9080Y14230D01*
X9040Y14150D01*
X9080Y14070D01*
X9000Y14110D01*
X8920Y14070D01*
X8520Y14370D02*
X8560Y14450D01*
X8520Y14530D01*
X8600Y14490D01*
X8680Y14530D01*
X8640Y14450D01*
X8680Y14370D01*
X8600Y14410D01*
X8520Y14370D01*
X8920D02*
X8960Y14450D01*
X8920Y14530D01*
X9000Y14490D01*
X9080Y14530D01*
X9040Y14450D01*
X9080Y14370D01*
X9000Y14410D01*
X8920Y14370D01*
X8520Y14670D02*
X8560Y14750D01*
X8520Y14830D01*
X8600Y14790D01*
X8680Y14830D01*
X8640Y14750D01*
X8680Y14670D01*
X8600Y14710D01*
X8520Y14670D01*
X8920D02*
X8960Y14750D01*
X8920Y14830D01*
X9000Y14790D01*
X9080Y14830D01*
X9040Y14750D01*
X9080Y14670D01*
X9000Y14710D01*
X8920Y14670D01*
X8320Y14970D02*
X8360Y15050D01*
X8320Y15130D01*
X8400Y15090D01*
X8480Y15130D01*
X8440Y15050D01*
X8480Y14970D01*
X8400Y15010D01*
X8320Y14970D01*
X8708D02*
X8748Y15050D01*
X8708Y15130D01*
X8788Y15090D01*
X8868Y15130D01*
X8828Y15050D01*
X8868Y14970D01*
X8788Y15010D01*
X8708Y14970D01*
X8120Y16020D02*
X8160Y16100D01*
X8120Y16180D01*
X8200Y16140D01*
X8280Y16180D01*
X8240Y16100D01*
X8280Y16020D01*
X8200Y16060D01*
X8120Y16020D01*
X8520Y15220D02*
X8560Y15300D01*
X8520Y15380D01*
X8600Y15340D01*
X8680Y15380D01*
X8640Y15300D01*
X8680Y15220D01*
X8600Y15260D01*
X8520Y15220D01*
X11620Y14920D02*
X11660Y15000D01*
X11620Y15080D01*
X11700Y15040D01*
X11780Y15080D01*
X11740Y15000D01*
X11780Y14920D01*
X11700Y14960D01*
X11620Y14920D01*
X12020D02*
X12060Y15000D01*
X12020Y15080D01*
X12100Y15040D01*
X12180Y15080D01*
X12140Y15000D01*
X12180Y14920D01*
X12100Y14960D01*
X12020Y14920D01*
X12420D02*
X12460Y15000D01*
X12420Y15080D01*
X12500Y15040D01*
X12580Y15080D01*
X12540Y15000D01*
X12580Y14920D01*
X12500Y14960D01*
X12420Y14920D01*
X11820Y15220D02*
X11860Y15300D01*
X11820Y15380D01*
X11900Y15340D01*
X11980Y15380D01*
X11940Y15300D01*
X11980Y15220D01*
X11900Y15260D01*
X11820Y15220D01*
X12620D02*
X12660Y15300D01*
X12620Y15380D01*
X12700Y15340D01*
X12780Y15380D01*
X12740Y15300D01*
X12780Y15220D01*
X12700Y15260D01*
X12620Y15220D01*
X12220D02*
X12260Y15300D01*
X12220Y15380D01*
X12300Y15340D01*
X12380Y15380D01*
X12340Y15300D01*
X12380Y15220D01*
X12300Y15260D01*
X12220Y15220D01*
X12620Y15520D02*
X12660Y15600D01*
X12620Y15680D01*
X12700Y15640D01*
X12780Y15680D01*
X12740Y15600D01*
X12780Y15520D01*
X12700Y15560D01*
X12620Y15520D01*
X12220D02*
X12260Y15600D01*
X12220Y15680D01*
X12300Y15640D01*
X12380Y15680D01*
X12340Y15600D01*
X12380Y15520D01*
X12300Y15560D01*
X12220Y15520D01*
X11820D02*
X11860Y15600D01*
X11820Y15680D01*
X11900Y15640D01*
X11980Y15680D01*
X11940Y15600D01*
X11980Y15520D01*
X11900Y15560D01*
X11820Y15520D01*
X12420Y15770D02*
X12460Y15850D01*
X12420Y15930D01*
X12500Y15890D01*
X12580Y15930D01*
X12540Y15850D01*
X12580Y15770D01*
X12500Y15810D01*
X12420Y15770D01*
X12020D02*
X12060Y15850D01*
X12020Y15930D01*
X12100Y15890D01*
X12180Y15930D01*
X12140Y15850D01*
X12180Y15770D01*
X12100Y15810D01*
X12020Y15770D01*
X11620D02*
X11660Y15850D01*
X11620Y15930D01*
X11700Y15890D01*
X11780Y15930D01*
X11740Y15850D01*
X11780Y15770D01*
X11700Y15810D01*
X11620Y15770D01*
X12620Y16020D02*
X12660Y16100D01*
X12620Y16180D01*
X12700Y16140D01*
X12780Y16180D01*
X12740Y16100D01*
X12780Y16020D01*
X12700Y16060D01*
X12620Y16020D01*
Y16320D02*
X12660Y16400D01*
X12620Y16480D01*
X12700Y16440D01*
X12780Y16480D01*
X12740Y16400D01*
X12780Y16320D01*
X12700Y16360D01*
X12620Y16320D01*
Y16620D02*
X12660Y16700D01*
X12620Y16780D01*
X12700Y16740D01*
X12780Y16780D01*
X12740Y16700D01*
X12780Y16620D01*
X12700Y16660D01*
X12620Y16620D01*
Y16920D02*
X12660Y17000D01*
X12620Y17080D01*
X12700Y17040D01*
X12780Y17080D01*
X12740Y17000D01*
X12780Y16920D01*
X12700Y16960D01*
X12620Y16920D01*
X12220D02*
X12260Y17000D01*
X12220Y17080D01*
X12300Y17040D01*
X12380Y17080D01*
X12340Y17000D01*
X12380Y16920D01*
X12300Y16960D01*
X12220Y16920D01*
Y16620D02*
X12260Y16700D01*
X12220Y16780D01*
X12300Y16740D01*
X12380Y16780D01*
X12340Y16700D01*
X12380Y16620D01*
X12300Y16660D01*
X12220Y16620D01*
Y16320D02*
X12260Y16400D01*
X12220Y16480D01*
X12300Y16440D01*
X12380Y16480D01*
X12340Y16400D01*
X12380Y16320D01*
X12300Y16360D01*
X12220Y16320D01*
Y16020D02*
X12260Y16100D01*
X12220Y16180D01*
X12300Y16140D01*
X12380Y16180D01*
X12340Y16100D01*
X12380Y16020D01*
X12300Y16060D01*
X12220Y16020D01*
X11820Y16920D02*
X11860Y17000D01*
X11820Y17080D01*
X11900Y17040D01*
X11980Y17080D01*
X11940Y17000D01*
X11980Y16920D01*
X11900Y16960D01*
X11820Y16920D01*
Y16620D02*
X11860Y16700D01*
X11820Y16780D01*
X11900Y16740D01*
X11980Y16780D01*
X11940Y16700D01*
X11980Y16620D01*
X11900Y16660D01*
X11820Y16620D01*
Y16320D02*
X11860Y16400D01*
X11820Y16480D01*
X11900Y16440D01*
X11980Y16480D01*
X11940Y16400D01*
X11980Y16320D01*
X11900Y16360D01*
X11820Y16320D01*
Y16020D02*
X11860Y16100D01*
X11820Y16180D01*
X11900Y16140D01*
X11980Y16180D01*
X11940Y16100D01*
X11980Y16020D01*
X11900Y16060D01*
X11820Y16020D01*
X11420D02*
X11460Y16100D01*
X11420Y16180D01*
X11500Y16140D01*
X11580Y16180D01*
X11540Y16100D01*
X11580Y16020D01*
X11500Y16060D01*
X11420Y16020D01*
Y16320D02*
X11460Y16400D01*
X11420Y16480D01*
X11500Y16440D01*
X11580Y16480D01*
X11540Y16400D01*
X11580Y16320D01*
X11500Y16360D01*
X11420Y16320D01*
Y16620D02*
X11460Y16700D01*
X11420Y16780D01*
X11500Y16740D01*
X11580Y16780D01*
X11540Y16700D01*
X11580Y16620D01*
X11500Y16660D01*
X11420Y16620D01*
Y16920D02*
X11460Y17000D01*
X11420Y17080D01*
X11500Y17040D01*
X11580Y17080D01*
X11540Y17000D01*
X11580Y16920D01*
X11500Y16960D01*
X11420Y16920D01*
X7720Y17270D02*
X7760Y17350D01*
X7720Y17430D01*
X7800Y17390D01*
X7880Y17430D01*
X7840Y17350D01*
X7880Y17270D01*
X7800Y17310D01*
X7720Y17270D01*
X8120Y15520D02*
X8160Y15600D01*
X8120Y15680D01*
X8200Y15640D01*
X8280Y15680D01*
X8240Y15600D01*
X8280Y15520D01*
X8200Y15560D01*
X8120Y15520D01*
X7920Y15770D02*
X7960Y15850D01*
X7920Y15930D01*
X8000Y15890D01*
X8080Y15930D01*
X8040Y15850D01*
X8080Y15770D01*
X8000Y15810D01*
X7920Y15770D01*
X7720Y16920D02*
X7760Y17000D01*
X7720Y17080D01*
X7800Y17040D01*
X7880Y17080D01*
X7840Y17000D01*
X7880Y16920D01*
X7800Y16960D01*
X7720Y16920D01*
Y16620D02*
X7760Y16700D01*
X7720Y16780D01*
X7800Y16740D01*
X7880Y16780D01*
X7840Y16700D01*
X7880Y16620D01*
X7800Y16660D01*
X7720Y16620D01*
Y16320D02*
X7760Y16400D01*
X7720Y16480D01*
X7800Y16440D01*
X7880Y16480D01*
X7840Y16400D01*
X7880Y16320D01*
X7800Y16360D01*
X7720Y16320D01*
Y16020D02*
X7760Y16100D01*
X7720Y16180D01*
X7800Y16140D01*
X7880Y16180D01*
X7840Y16100D01*
X7880Y16020D01*
X7800Y16060D01*
X7720Y16020D01*
X8520Y15520D02*
X8560Y15600D01*
X8520Y15680D01*
X8600Y15640D01*
X8680Y15680D01*
X8640Y15600D01*
X8680Y15520D01*
X8600Y15560D01*
X8520Y15520D01*
X8320Y15770D02*
X8360Y15850D01*
X8320Y15930D01*
X8400Y15890D01*
X8480Y15930D01*
X8440Y15850D01*
X8480Y15770D01*
X8400Y15810D01*
X8320Y15770D01*
X8120Y16320D02*
X8160Y16400D01*
X8120Y16480D01*
X8200Y16440D01*
X8280Y16480D01*
X8240Y16400D01*
X8280Y16320D01*
X8200Y16360D01*
X8120Y16320D01*
Y16620D02*
X8160Y16700D01*
X8120Y16780D01*
X8200Y16740D01*
X8280Y16780D01*
X8240Y16700D01*
X8280Y16620D01*
X8200Y16660D01*
X8120Y16620D01*
Y16920D02*
X8160Y17000D01*
X8120Y17080D01*
X8200Y17040D01*
X8280Y17080D01*
X8240Y17000D01*
X8280Y16920D01*
X8200Y16960D01*
X8120Y16920D01*
X8520D02*
X8560Y17000D01*
X8520Y17080D01*
X8600Y17040D01*
X8680Y17080D01*
X8640Y17000D01*
X8680Y16920D01*
X8600Y16960D01*
X8520Y16920D01*
Y16620D02*
X8560Y16700D01*
X8520Y16780D01*
X8600Y16740D01*
X8680Y16780D01*
X8640Y16700D01*
X8680Y16620D01*
X8600Y16660D01*
X8520Y16620D01*
Y16320D02*
X8560Y16400D01*
X8520Y16480D01*
X8600Y16440D01*
X8680Y16480D01*
X8640Y16400D01*
X8680Y16320D01*
X8600Y16360D01*
X8520Y16320D01*
Y16020D02*
X8560Y16100D01*
X8520Y16180D01*
X8600Y16140D01*
X8680Y16180D01*
X8640Y16100D01*
X8680Y16020D01*
X8600Y16060D01*
X8520Y16020D01*
X8720Y15770D02*
X8760Y15850D01*
X8720Y15930D01*
X8800Y15890D01*
X8880Y15930D01*
X8840Y15850D01*
X8880Y15770D01*
X8800Y15810D01*
X8720Y15770D01*
X8920Y16020D02*
X8960Y16100D01*
X8920Y16180D01*
X9000Y16140D01*
X9080Y16180D01*
X9040Y16100D01*
X9080Y16020D01*
X9000Y16060D01*
X8920Y16020D01*
Y16320D02*
X8960Y16400D01*
X8920Y16480D01*
X9000Y16440D01*
X9080Y16480D01*
X9040Y16400D01*
X9080Y16320D01*
X9000Y16360D01*
X8920Y16320D01*
Y16620D02*
X8960Y16700D01*
X8920Y16780D01*
X9000Y16740D01*
X9080Y16780D01*
X9040Y16700D01*
X9080Y16620D01*
X9000Y16660D01*
X8920Y16620D01*
Y16920D02*
X8960Y17000D01*
X8920Y17080D01*
X9000Y17040D01*
X9080Y17080D01*
X9040Y17000D01*
X9080Y16920D01*
X9000Y16960D01*
X8920Y16920D01*
X19620Y4270D02*
X19660Y4350D01*
X19620Y4430D01*
X19700Y4390D01*
X19780Y4430D01*
X19740Y4350D01*
X19780Y4270D01*
X19700Y4310D01*
X19620Y4270D01*
X19320D02*
X19360Y4350D01*
X19320Y4430D01*
X19400Y4390D01*
X19480Y4430D01*
X19440Y4350D01*
X19480Y4270D01*
X19400Y4310D01*
X19320Y4270D01*
X19020D02*
X19060Y4350D01*
X19020Y4430D01*
X19100Y4390D01*
X19180Y4430D01*
X19140Y4350D01*
X19180Y4270D01*
X19100Y4310D01*
X19020Y4270D01*
X17570Y4170D02*
X17610Y4250D01*
X17570Y4330D01*
X17650Y4290D01*
X17730Y4330D01*
X17690Y4250D01*
X17730Y4170D01*
X17650Y4210D01*
X17570Y4170D01*
X17270D02*
X17310Y4250D01*
X17270Y4330D01*
X17350Y4290D01*
X17430Y4330D01*
X17390Y4250D01*
X17430Y4170D01*
X17350Y4210D01*
X17270Y4170D01*
Y4470D02*
X17310Y4550D01*
X17270Y4630D01*
X17350Y4590D01*
X17430Y4630D01*
X17390Y4550D01*
X17430Y4470D01*
X17350Y4510D01*
X17270Y4470D01*
X19920Y5020D02*
X19960Y5100D01*
X19920Y5180D01*
X20000Y5140D01*
X20080Y5180D01*
X20040Y5100D01*
X20080Y5020D01*
X20000Y5060D01*
X19920Y5020D01*
Y5270D02*
X19960Y5350D01*
X19920Y5430D01*
X20000Y5390D01*
X20080Y5430D01*
X20040Y5350D01*
X20080Y5270D01*
X20000Y5310D01*
X19920Y5270D01*
Y5520D02*
X19960Y5600D01*
X19920Y5680D01*
X20000Y5640D01*
X20080Y5680D01*
X20040Y5600D01*
X20080Y5520D01*
X20000Y5560D01*
X19920Y5520D01*
X18670Y5020D02*
X18710Y5100D01*
X18670Y5180D01*
X18750Y5140D01*
X18830Y5180D01*
X18790Y5100D01*
X18830Y5020D01*
X18750Y5060D01*
X18670Y5020D01*
Y5270D02*
X18710Y5350D01*
X18670Y5430D01*
X18750Y5390D01*
X18830Y5430D01*
X18790Y5350D01*
X18830Y5270D01*
X18750Y5310D01*
X18670Y5270D01*
Y5520D02*
X18710Y5600D01*
X18670Y5680D01*
X18750Y5640D01*
X18830Y5680D01*
X18790Y5600D01*
X18830Y5520D01*
X18750Y5560D01*
X18670Y5520D01*
X18970Y7420D02*
X19010Y7500D01*
X18970Y7580D01*
X19050Y7540D01*
X19130Y7580D01*
X19090Y7500D01*
X19130Y7420D01*
X19050Y7460D01*
X18970Y7420D01*
X18720D02*
X18760Y7500D01*
X18720Y7580D01*
X18800Y7540D01*
X18880Y7580D01*
X18840Y7500D01*
X18880Y7420D01*
X18800Y7460D01*
X18720Y7420D01*
X18970Y8170D02*
X19010Y8250D01*
X18970Y8330D01*
X19050Y8290D01*
X19130Y8330D01*
X19090Y8250D01*
X19130Y8170D01*
X19050Y8210D01*
X18970Y8170D01*
X18720D02*
X18760Y8250D01*
X18720Y8330D01*
X18800Y8290D01*
X18880Y8330D01*
X18840Y8250D01*
X18880Y8170D01*
X18800Y8210D01*
X18720Y8170D01*
X14520Y2270D02*
X14560Y2350D01*
X14520Y2430D01*
X14600Y2390D01*
X14680Y2430D01*
X14640Y2350D01*
X14680Y2270D01*
X14600Y2310D01*
X14520Y2270D01*
X15570D02*
X15610Y2350D01*
X15570Y2430D01*
X15650Y2390D01*
X15730Y2430D01*
X15690Y2350D01*
X15730Y2270D01*
X15650Y2310D01*
X15570Y2270D01*
X15320D02*
X15360Y2350D01*
X15320Y2430D01*
X15400Y2390D01*
X15480Y2430D01*
X15440Y2350D01*
X15480Y2270D01*
X15400Y2310D01*
X15320Y2270D01*
X15020D02*
X15060Y2350D01*
X15020Y2430D01*
X15100Y2390D01*
X15180Y2430D01*
X15140Y2350D01*
X15180Y2270D01*
X15100Y2310D01*
X15020Y2270D01*
X14770D02*
X14810Y2350D01*
X14770Y2430D01*
X14850Y2390D01*
X14930Y2430D01*
X14890Y2350D01*
X14930Y2270D01*
X14850Y2310D01*
X14770Y2270D01*
X14970Y270D02*
X15010Y350D01*
X14970Y430D01*
X15050Y390D01*
X15130Y430D01*
X15090Y350D01*
X15130Y270D01*
X15050Y310D01*
X14970Y270D01*
X15320D02*
X15360Y350D01*
X15320Y430D01*
X15400Y390D01*
X15480Y430D01*
X15440Y350D01*
X15480Y270D01*
X15400Y310D01*
X15320Y270D01*
X15470Y470D02*
X15510Y550D01*
X15470Y630D01*
X15550Y590D01*
X15630Y630D01*
X15590Y550D01*
X15630Y470D01*
X15550Y510D01*
X15470Y470D01*
X15170D02*
X15210Y550D01*
X15170Y630D01*
X15250Y590D01*
X15330Y630D01*
X15290Y550D01*
X15330Y470D01*
X15250Y510D01*
X15170Y470D01*
X15620Y670D02*
X15660Y750D01*
X15620Y830D01*
X15700Y790D01*
X15780Y830D01*
X15740Y750D01*
X15780Y670D01*
X15700Y710D01*
X15620Y670D01*
X15320D02*
X15360Y750D01*
X15320Y830D01*
X15400Y790D01*
X15480Y830D01*
X15440Y750D01*
X15480Y670D01*
X15400Y710D01*
X15320Y670D01*
X15170Y870D02*
X15210Y950D01*
X15170Y1030D01*
X15250Y990D01*
X15330Y1030D01*
X15290Y950D01*
X15330Y870D01*
X15250Y910D01*
X15170Y870D01*
X15720D02*
X15760Y950D01*
X15720Y1030D01*
X15800Y990D01*
X15880Y1030D01*
X15840Y950D01*
X15880Y870D01*
X15800Y910D01*
X15720Y870D01*
X15470D02*
X15510Y950D01*
X15470Y1030D01*
X15550Y990D01*
X15630Y1030D01*
X15590Y950D01*
X15630Y870D01*
X15550Y910D01*
X15470Y870D01*
X15320Y1070D02*
X15360Y1150D01*
X15320Y1230D01*
X15400Y1190D01*
X15480Y1230D01*
X15440Y1150D01*
X15480Y1070D01*
X15400Y1110D01*
X15320Y1070D01*
X15570D02*
X15610Y1150D01*
X15570Y1230D01*
X15650Y1190D01*
X15730Y1230D01*
X15690Y1150D01*
X15730Y1070D01*
X15650Y1110D01*
X15570Y1070D01*
X15720Y1270D02*
X15760Y1350D01*
X15720Y1430D01*
X15800Y1390D01*
X15880Y1430D01*
X15840Y1350D01*
X15880Y1270D01*
X15800Y1310D01*
X15720Y1270D01*
X15470D02*
X15510Y1350D01*
X15470Y1430D01*
X15550Y1390D01*
X15630Y1430D01*
X15590Y1350D01*
X15630Y1270D01*
X15550Y1310D01*
X15470Y1270D01*
X15320Y1470D02*
X15360Y1550D01*
X15320Y1630D01*
X15400Y1590D01*
X15480Y1630D01*
X15440Y1550D01*
X15480Y1470D01*
X15400Y1510D01*
X15320Y1470D01*
X15570D02*
X15610Y1550D01*
X15570Y1630D01*
X15650Y1590D01*
X15730Y1630D01*
X15690Y1550D01*
X15730Y1470D01*
X15650Y1510D01*
X15570Y1470D01*
X15720Y1670D02*
X15760Y1750D01*
X15720Y1830D01*
X15800Y1790D01*
X15880Y1830D01*
X15840Y1750D01*
X15880Y1670D01*
X15800Y1710D01*
X15720Y1670D01*
X15170D02*
X15210Y1750D01*
X15170Y1830D01*
X15250Y1790D01*
X15330Y1830D01*
X15290Y1750D01*
X15330Y1670D01*
X15250Y1710D01*
X15170Y1670D01*
X15470D02*
X15510Y1750D01*
X15470Y1830D01*
X15550Y1790D01*
X15630Y1830D01*
X15590Y1750D01*
X15630Y1670D01*
X15550Y1710D01*
X15470Y1670D01*
X15570Y1870D02*
X15610Y1950D01*
X15570Y2030D01*
X15650Y1990D01*
X15730Y2030D01*
X15690Y1950D01*
X15730Y1870D01*
X15650Y1910D01*
X15570Y1870D01*
X15320D02*
X15360Y1950D01*
X15320Y2030D01*
X15400Y1990D01*
X15480Y2030D01*
X15440Y1950D01*
X15480Y1870D01*
X15400Y1910D01*
X15320Y1870D01*
X15020D02*
X15060Y1950D01*
X15020Y2030D01*
X15100Y1990D01*
X15180Y2030D01*
X15140Y1950D01*
X15180Y1870D01*
X15100Y1910D01*
X15020Y1870D01*
X15720Y2070D02*
X15760Y2150D01*
X15720Y2230D01*
X15800Y2190D01*
X15880Y2230D01*
X15840Y2150D01*
X15880Y2070D01*
X15800Y2110D01*
X15720Y2070D01*
X15470D02*
X15510Y2150D01*
X15470Y2230D01*
X15550Y2190D01*
X15630Y2230D01*
X15590Y2150D01*
X15630Y2070D01*
X15550Y2110D01*
X15470Y2070D01*
X15170D02*
X15210Y2150D01*
X15170Y2230D01*
X15250Y2190D01*
X15330Y2230D01*
X15290Y2150D01*
X15330Y2070D01*
X15250Y2110D01*
X15170Y2070D01*
X14920D02*
X14960Y2150D01*
X14920Y2230D01*
X15000Y2190D01*
X15080Y2230D01*
X15040Y2150D01*
X15080Y2070D01*
X15000Y2110D01*
X14920Y2070D01*
X14670D02*
X14710Y2150D01*
X14670Y2230D01*
X14750Y2190D01*
X14830Y2230D01*
X14790Y2150D01*
X14830Y2070D01*
X14750Y2110D01*
X14670Y2070D01*
X13120Y2270D02*
X13160Y2350D01*
X13120Y2430D01*
X13200Y2390D01*
X13280Y2430D01*
X13240Y2350D01*
X13280Y2270D01*
X13200Y2310D01*
X13120Y2270D01*
X12920Y2070D02*
X12960Y2150D01*
X12920Y2230D01*
X13000Y2190D01*
X13080Y2230D01*
X13040Y2150D01*
X13080Y2070D01*
X13000Y2110D01*
X12920Y2070D01*
X10970Y2270D02*
X11010Y2350D01*
X10970Y2430D01*
X11050Y2390D01*
X11130Y2430D01*
X11090Y2350D01*
X11130Y2270D01*
X11050Y2310D01*
X10970Y2270D01*
X11270D02*
X11310Y2350D01*
X11270Y2430D01*
X11350Y2390D01*
X11430Y2430D01*
X11390Y2350D01*
X11430Y2270D01*
X11350Y2310D01*
X11270Y2270D01*
X9320D02*
X9360Y2350D01*
X9320Y2430D01*
X9400Y2390D01*
X9480Y2430D01*
X9440Y2350D01*
X9480Y2270D01*
X9400Y2310D01*
X9320Y2270D01*
X9020D02*
X9060Y2350D01*
X9020Y2430D01*
X9100Y2390D01*
X9180Y2430D01*
X9140Y2350D01*
X9180Y2270D01*
X9100Y2310D01*
X9020Y2270D01*
X5970Y2320D02*
X6010Y2400D01*
X5970Y2480D01*
X6050Y2440D01*
X6130Y2480D01*
X6090Y2400D01*
X6130Y2320D01*
X6050Y2360D01*
X5970Y2320D01*
X5670D02*
X5710Y2400D01*
X5670Y2480D01*
X5750Y2440D01*
X5830Y2480D01*
X5790Y2400D01*
X5830Y2320D01*
X5750Y2360D01*
X5670Y2320D01*
X7170Y2270D02*
X7210Y2350D01*
X7170Y2430D01*
X7250Y2390D01*
X7330Y2430D01*
X7290Y2350D01*
X7330Y2270D01*
X7250Y2310D01*
X7170Y2270D01*
X5370Y2320D02*
X5410Y2400D01*
X5370Y2480D01*
X5450Y2440D01*
X5530Y2480D01*
X5490Y2400D01*
X5530Y2320D01*
X5450Y2360D01*
X5370Y2320D01*
X5070D02*
X5110Y2400D01*
X5070Y2480D01*
X5150Y2440D01*
X5230Y2480D01*
X5190Y2400D01*
X5230Y2320D01*
X5150Y2360D01*
X5070Y2320D01*
X4770D02*
X4810Y2400D01*
X4770Y2480D01*
X4850Y2440D01*
X4930Y2480D01*
X4890Y2400D01*
X4930Y2320D01*
X4850Y2360D01*
X4770Y2320D01*
X4620Y2120D02*
X4660Y2200D01*
X4620Y2280D01*
X4700Y2240D01*
X4780Y2280D01*
X4740Y2200D01*
X4780Y2120D01*
X4700Y2160D01*
X4620Y2120D01*
X7370D02*
X7410Y2200D01*
X7370Y2280D01*
X7450Y2240D01*
X7530Y2280D01*
X7490Y2200D01*
X7530Y2120D01*
X7450Y2160D01*
X7370Y2120D01*
X5520D02*
X5560Y2200D01*
X5520Y2280D01*
X5600Y2240D01*
X5680Y2280D01*
X5640Y2200D01*
X5680Y2120D01*
X5600Y2160D01*
X5520Y2120D01*
X5220D02*
X5260Y2200D01*
X5220Y2280D01*
X5300Y2240D01*
X5380Y2280D01*
X5340Y2200D01*
X5380Y2120D01*
X5300Y2160D01*
X5220Y2120D01*
X4920D02*
X4960Y2200D01*
X4920Y2280D01*
X5000Y2240D01*
X5080Y2280D01*
X5040Y2200D01*
X5080Y2120D01*
X5000Y2160D01*
X4920Y2120D01*
X12720Y1920D02*
X12760Y2000D01*
X12720Y2080D01*
X12800Y2040D01*
X12880Y2080D01*
X12840Y2000D01*
X12880Y1920D01*
X12800Y1960D01*
X12720Y1920D01*
X12570Y1720D02*
X12610Y1800D01*
X12570Y1880D01*
X12650Y1840D01*
X12730Y1880D01*
X12690Y1800D01*
X12730Y1720D01*
X12650Y1760D01*
X12570Y1720D01*
X12478Y780D02*
X12518Y860D01*
X12478Y940D01*
X12558Y900D01*
X12638Y940D01*
X12598Y860D01*
X12638Y780D01*
X12558Y820D01*
X12478Y780D01*
Y1010D02*
X12518Y1090D01*
X12478Y1170D01*
X12558Y1130D01*
X12638Y1170D01*
X12598Y1090D01*
X12638Y1010D01*
X12558Y1050D01*
X12478Y1010D01*
Y1470D02*
X12518Y1550D01*
X12478Y1630D01*
X12558Y1590D01*
X12638Y1630D01*
X12598Y1550D01*
X12638Y1470D01*
X12558Y1510D01*
X12478Y1470D01*
Y1240D02*
X12518Y1320D01*
X12478Y1400D01*
X12558Y1360D01*
X12638Y1400D01*
X12598Y1320D01*
X12638Y1240D01*
X12558Y1280D01*
X12478Y1240D01*
Y550D02*
X12518Y630D01*
X12478Y710D01*
X12558Y670D01*
X12638Y710D01*
X12598Y630D01*
X12638Y550D01*
X12558Y590D01*
X12478Y550D01*
Y320D02*
X12518Y400D01*
X12478Y480D01*
X12558Y440D01*
X12638Y480D01*
X12598Y400D01*
X12638Y320D01*
X12558Y360D01*
X12478Y320D01*
X11220Y270D02*
X11260Y350D01*
X11220Y430D01*
X11300Y390D01*
X11380Y430D01*
X11340Y350D01*
X11380Y270D01*
X11300Y310D01*
X11220Y270D01*
X11520D02*
X11560Y350D01*
X11520Y430D01*
X11600Y390D01*
X11680Y430D01*
X11640Y350D01*
X11680Y270D01*
X11600Y310D01*
X11520Y270D01*
X11370Y520D02*
X11410Y600D01*
X11370Y680D01*
X11450Y640D01*
X11530Y680D01*
X11490Y600D01*
X11530Y520D01*
X11450Y560D01*
X11370Y520D01*
X11670D02*
X11710Y600D01*
X11670Y680D01*
X11750Y640D01*
X11830Y680D01*
X11790Y600D01*
X11830Y520D01*
X11750Y560D01*
X11670Y520D01*
X11520Y720D02*
X11560Y800D01*
X11520Y880D01*
X11600Y840D01*
X11680Y880D01*
X11640Y800D01*
X11680Y720D01*
X11600Y760D01*
X11520Y720D01*
X11720Y870D02*
X11760Y950D01*
X11720Y1030D01*
X11800Y990D01*
X11880Y1030D01*
X11840Y950D01*
X11880Y870D01*
X11800Y910D01*
X11720Y870D01*
X11520Y1070D02*
X11560Y1150D01*
X11520Y1230D01*
X11600Y1190D01*
X11680Y1230D01*
X11640Y1150D01*
X11680Y1070D01*
X11600Y1110D01*
X11520Y1070D01*
X11720Y1270D02*
X11760Y1350D01*
X11720Y1430D01*
X11800Y1390D01*
X11880Y1430D01*
X11840Y1350D01*
X11880Y1270D01*
X11800Y1310D01*
X11720Y1270D01*
X11520Y1470D02*
X11560Y1550D01*
X11520Y1630D01*
X11600Y1590D01*
X11680Y1630D01*
X11640Y1550D01*
X11680Y1470D01*
X11600Y1510D01*
X11520Y1470D01*
X11720Y1670D02*
X11760Y1750D01*
X11720Y1830D01*
X11800Y1790D01*
X11880Y1830D01*
X11840Y1750D01*
X11880Y1670D01*
X11800Y1710D01*
X11720Y1670D01*
X11370D02*
X11410Y1750D01*
X11370Y1830D01*
X11450Y1790D01*
X11530Y1830D01*
X11490Y1750D01*
X11530Y1670D01*
X11450Y1710D01*
X11370Y1670D01*
X11570Y1870D02*
X11610Y1950D01*
X11570Y2030D01*
X11650Y1990D01*
X11730Y2030D01*
X11690Y1950D01*
X11730Y1870D01*
X11650Y1910D01*
X11570Y1870D01*
X11270D02*
X11310Y1950D01*
X11270Y2030D01*
X11350Y1990D01*
X11430Y2030D01*
X11390Y1950D01*
X11430Y1870D01*
X11350Y1910D01*
X11270Y1870D01*
X11420Y2070D02*
X11460Y2150D01*
X11420Y2230D01*
X11500Y2190D01*
X11580Y2230D01*
X11540Y2150D01*
X11580Y2070D01*
X11500Y2110D01*
X11420Y2070D01*
X11120D02*
X11160Y2150D01*
X11120Y2230D01*
X11200Y2190D01*
X11280Y2230D01*
X11240Y2150D01*
X11280Y2070D01*
X11200Y2110D01*
X11120Y2070D01*
X9020Y270D02*
X9060Y350D01*
X9020Y430D01*
X9100Y390D01*
X9180Y430D01*
X9140Y350D01*
X9180Y270D01*
X9100Y310D01*
X9020Y270D01*
X8720D02*
X8760Y350D01*
X8720Y430D01*
X8800Y390D01*
X8880Y430D01*
X8840Y350D01*
X8880Y270D01*
X8800Y310D01*
X8720Y270D01*
X8870Y470D02*
X8910Y550D01*
X8870Y630D01*
X8950Y590D01*
X9030Y630D01*
X8990Y550D01*
X9030Y470D01*
X8950Y510D01*
X8870Y470D01*
X8570D02*
X8610Y550D01*
X8570Y630D01*
X8650Y590D01*
X8730Y630D01*
X8690Y550D01*
X8730Y470D01*
X8650Y510D01*
X8570Y470D01*
X8720Y670D02*
X8760Y750D01*
X8720Y830D01*
X8800Y790D01*
X8880Y830D01*
X8840Y750D01*
X8880Y670D01*
X8800Y710D01*
X8720Y670D01*
X8570Y870D02*
X8610Y950D01*
X8570Y1030D01*
X8650Y990D01*
X8730Y1030D01*
X8690Y950D01*
X8730Y870D01*
X8650Y910D01*
X8570Y870D01*
X8720Y1070D02*
X8760Y1150D01*
X8720Y1230D01*
X8800Y1190D01*
X8880Y1230D01*
X8840Y1150D01*
X8880Y1070D01*
X8800Y1110D01*
X8720Y1070D01*
X8570Y1270D02*
X8610Y1350D01*
X8570Y1430D01*
X8650Y1390D01*
X8730Y1430D01*
X8690Y1350D01*
X8730Y1270D01*
X8650Y1310D01*
X8570Y1270D01*
X8720Y1470D02*
X8760Y1550D01*
X8720Y1630D01*
X8800Y1590D01*
X8880Y1630D01*
X8840Y1550D01*
X8880Y1470D01*
X8800Y1510D01*
X8720Y1470D01*
X8570Y1670D02*
X8610Y1750D01*
X8570Y1830D01*
X8650Y1790D01*
X8730Y1830D01*
X8690Y1750D01*
X8730Y1670D01*
X8650Y1710D01*
X8570Y1670D01*
X8870D02*
X8910Y1750D01*
X8870Y1830D01*
X8950Y1790D01*
X9030Y1830D01*
X8990Y1750D01*
X9030Y1670D01*
X8950Y1710D01*
X8870Y1670D01*
X8720Y1870D02*
X8760Y1950D01*
X8720Y2030D01*
X8800Y1990D01*
X8880Y2030D01*
X8840Y1950D01*
X8880Y1870D01*
X8800Y1910D01*
X8720Y1870D01*
X9020D02*
X9060Y1950D01*
X9020Y2030D01*
X9100Y1990D01*
X9180Y2030D01*
X9140Y1950D01*
X9180Y1870D01*
X9100Y1910D01*
X9020Y1870D01*
X8870Y2070D02*
X8910Y2150D01*
X8870Y2230D01*
X8950Y2190D01*
X9030Y2230D01*
X8990Y2150D01*
X9030Y2070D01*
X8950Y2110D01*
X8870Y2070D01*
X9170D02*
X9210Y2150D01*
X9170Y2230D01*
X9250Y2190D01*
X9330Y2230D01*
X9290Y2150D01*
X9330Y2070D01*
X9250Y2110D01*
X9170Y2070D01*
X7820Y320D02*
X7860Y400D01*
X7820Y480D01*
X7900Y440D01*
X7980Y480D01*
X7940Y400D01*
X7980Y320D01*
X7900Y360D01*
X7820Y320D01*
Y550D02*
X7860Y630D01*
X7820Y710D01*
X7900Y670D01*
X7980Y710D01*
X7940Y630D01*
X7980Y550D01*
X7900Y590D01*
X7820Y550D01*
Y1240D02*
X7860Y1320D01*
X7820Y1400D01*
X7900Y1360D01*
X7980Y1400D01*
X7940Y1320D01*
X7980Y1240D01*
X7900Y1280D01*
X7820Y1240D01*
Y1470D02*
X7860Y1550D01*
X7820Y1630D01*
X7900Y1590D01*
X7980Y1630D01*
X7940Y1550D01*
X7980Y1470D01*
X7900Y1510D01*
X7820Y1470D01*
Y1010D02*
X7860Y1090D01*
X7820Y1170D01*
X7900Y1130D01*
X7980Y1170D01*
X7940Y1090D01*
X7980Y1010D01*
X7900Y1050D01*
X7820Y1010D01*
Y780D02*
X7860Y860D01*
X7820Y940D01*
X7900Y900D01*
X7980Y940D01*
X7940Y860D01*
X7980Y780D01*
X7900Y820D01*
X7820Y780D01*
X7720Y1720D02*
X7760Y1800D01*
X7720Y1880D01*
X7800Y1840D01*
X7880Y1880D01*
X7840Y1800D01*
X7880Y1720D01*
X7800Y1760D01*
X7720Y1720D01*
X7570Y1920D02*
X7610Y2000D01*
X7570Y2080D01*
X7650Y2040D01*
X7730Y2080D01*
X7690Y2000D01*
X7730Y1920D01*
X7650Y1960D01*
X7570Y1920D01*
X5370Y320D02*
X5410Y400D01*
X5370Y480D01*
X5450Y440D01*
X5530Y480D01*
X5490Y400D01*
X5530Y320D01*
X5450Y360D01*
X5370Y320D01*
X5220Y520D02*
X5260Y600D01*
X5220Y680D01*
X5300Y640D01*
X5380Y680D01*
X5340Y600D01*
X5380Y520D01*
X5300Y560D01*
X5220Y520D01*
X5070Y320D02*
X5110Y400D01*
X5070Y480D01*
X5150Y440D01*
X5230Y480D01*
X5190Y400D01*
X5230Y320D01*
X5150Y360D01*
X5070Y320D01*
X4920Y520D02*
X4960Y600D01*
X4920Y680D01*
X5000Y640D01*
X5080Y680D01*
X5040Y600D01*
X5080Y520D01*
X5000Y560D01*
X4920Y520D01*
X4770Y720D02*
X4810Y800D01*
X4770Y880D01*
X4850Y840D01*
X4930Y880D01*
X4890Y800D01*
X4930Y720D01*
X4850Y760D01*
X4770Y720D01*
X5070D02*
X5110Y800D01*
X5070Y880D01*
X5150Y840D01*
X5230Y880D01*
X5190Y800D01*
X5230Y720D01*
X5150Y760D01*
X5070Y720D01*
X4620Y920D02*
X4660Y1000D01*
X4620Y1080D01*
X4700Y1040D01*
X4780Y1080D01*
X4740Y1000D01*
X4780Y920D01*
X4700Y960D01*
X4620Y920D01*
X4920D02*
X4960Y1000D01*
X4920Y1080D01*
X5000Y1040D01*
X5080Y1080D01*
X5040Y1000D01*
X5080Y920D01*
X5000Y960D01*
X4920Y920D01*
X4770Y1120D02*
X4810Y1200D01*
X4770Y1280D01*
X4850Y1240D01*
X4930Y1280D01*
X4890Y1200D01*
X4930Y1120D01*
X4850Y1160D01*
X4770Y1120D01*
X5070D02*
X5110Y1200D01*
X5070Y1280D01*
X5150Y1240D01*
X5230Y1280D01*
X5190Y1200D01*
X5230Y1120D01*
X5150Y1160D01*
X5070Y1120D01*
X4620Y1320D02*
X4660Y1400D01*
X4620Y1480D01*
X4700Y1440D01*
X4780Y1480D01*
X4740Y1400D01*
X4780Y1320D01*
X4700Y1360D01*
X4620Y1320D01*
X4920D02*
X4960Y1400D01*
X4920Y1480D01*
X5000Y1440D01*
X5080Y1480D01*
X5040Y1400D01*
X5080Y1320D01*
X5000Y1360D01*
X4920Y1320D01*
X5070Y1520D02*
X5110Y1600D01*
X5070Y1680D01*
X5150Y1640D01*
X5230Y1680D01*
X5190Y1600D01*
X5230Y1520D01*
X5150Y1560D01*
X5070Y1520D01*
X4770D02*
X4810Y1600D01*
X4770Y1680D01*
X4850Y1640D01*
X4930Y1680D01*
X4890Y1600D01*
X4930Y1520D01*
X4850Y1560D01*
X4770Y1520D01*
X5220Y1720D02*
X5260Y1800D01*
X5220Y1880D01*
X5300Y1840D01*
X5380Y1880D01*
X5340Y1800D01*
X5380Y1720D01*
X5300Y1760D01*
X5220Y1720D01*
X4920D02*
X4960Y1800D01*
X4920Y1880D01*
X5000Y1840D01*
X5080Y1880D01*
X5040Y1800D01*
X5080Y1720D01*
X5000Y1760D01*
X4920Y1720D01*
X4620D02*
X4660Y1800D01*
X4620Y1880D01*
X4700Y1840D01*
X4780Y1880D01*
X4740Y1800D01*
X4780Y1720D01*
X4700Y1760D01*
X4620Y1720D01*
X4770Y1920D02*
X4810Y2000D01*
X4770Y2080D01*
X4850Y2040D01*
X4930Y2080D01*
X4890Y2000D01*
X4930Y1920D01*
X4850Y1960D01*
X4770Y1920D01*
X5070D02*
X5110Y2000D01*
X5070Y2080D01*
X5150Y2040D01*
X5230Y2080D01*
X5190Y2000D01*
X5230Y1920D01*
X5150Y1960D01*
X5070Y1920D01*
X5370D02*
X5410Y2000D01*
X5370Y2080D01*
X5450Y2040D01*
X5530Y2080D01*
X5490Y2000D01*
X5530Y1920D01*
X5450Y1960D01*
X5370Y1920D01*
X15110Y4294D02*
Y4254D01*
X15190D01*
Y4294D01*
X15230D01*
Y4374D01*
X15190D01*
Y4414D01*
X15110D01*
Y4374D01*
X15070D01*
Y4294D01*
X15110D01*
X17920Y8614D02*
X17960Y8694D01*
X17920Y8774D01*
X18000Y8734D01*
X18080Y8774D01*
X18040Y8694D01*
X18080Y8614D01*
X18000Y8654D01*
X17920Y8614D01*
X18270Y7420D02*
X18310Y7500D01*
X18270Y7580D01*
X18350Y7540D01*
X18430Y7580D01*
X18390Y7500D01*
X18430Y7420D01*
X18350Y7460D01*
X18270Y7420D01*
X6660Y4294D02*
Y4254D01*
X6740D01*
Y4294D01*
X6780D01*
Y4374D01*
X6740D01*
Y4414D01*
X6660D01*
Y4374D01*
X6620D01*
Y4294D01*
X6660D01*
X10910D02*
Y4254D01*
X10990D01*
Y4294D01*
X11030D01*
Y4374D01*
X10990D01*
Y4414D01*
X10910D01*
Y4374D01*
X10870D01*
Y4294D01*
X10910D01*
X9560Y4211D02*
Y4171D01*
X9640D01*
Y4211D01*
X9680D01*
Y4291D01*
X9640D01*
Y4331D01*
X9560D01*
Y4291D01*
X9520D01*
Y4211D01*
X9560D01*
X8085Y4020D02*
X8125Y4100D01*
X8085Y4180D01*
X8165Y4140D01*
X8245Y4180D01*
X8205Y4100D01*
X8245Y4020D01*
X8165Y4060D01*
X8085Y4020D01*
X11839Y4644D02*
X11879Y4724D01*
X11839Y4804D01*
X11919Y4764D01*
X11999Y4804D01*
X11959Y4724D01*
X11999Y4644D01*
X11919Y4684D01*
X11839Y4644D01*
X3220Y4520D02*
X3260Y4600D01*
X3220Y4680D01*
X3300Y4640D01*
X3380Y4680D01*
X3340Y4600D01*
X3380Y4520D01*
X3300Y4560D01*
X3220Y4520D01*
X3576Y4514D02*
X3616Y4594D01*
X3576Y4674D01*
X3656Y4634D01*
X3736Y4674D01*
X3696Y4594D01*
X3736Y4514D01*
X3656Y4554D01*
X3576Y4514D01*
X2670Y4270D02*
X2710Y4350D01*
X2670Y4430D01*
X2750Y4390D01*
X2830Y4430D01*
X2790Y4350D01*
X2830Y4270D01*
X2750Y4310D01*
X2670Y4270D01*
X7594Y4644D02*
X7634Y4724D01*
X7594Y4804D01*
X7674Y4764D01*
X7754Y4804D01*
X7714Y4724D01*
X7754Y4644D01*
X7674Y4684D01*
X7594Y4644D01*
X16420Y7020D02*
X16460Y7100D01*
X16420Y7180D01*
X16500Y7140D01*
X16580Y7180D01*
X16540Y7100D01*
X16580Y7020D01*
X16500Y7060D01*
X16420Y7020D01*
X11520Y6820D02*
X11560Y6900D01*
X11520Y6980D01*
X11600Y6940D01*
X11680Y6980D01*
X11640Y6900D01*
X11680Y6820D01*
X11600Y6860D01*
X11520Y6820D01*
X16320D02*
X16360Y6900D01*
X16320Y6980D01*
X16400Y6940D01*
X16480Y6980D01*
X16440Y6900D01*
X16480Y6820D01*
X16400Y6860D01*
X16320Y6820D01*
X16070D02*
X16110Y6900D01*
X16070Y6980D01*
X16150Y6940D01*
X16230Y6980D01*
X16190Y6900D01*
X16230Y6820D01*
X16150Y6860D01*
X16070Y6820D01*
X15820D02*
X15860Y6900D01*
X15820Y6980D01*
X15900Y6940D01*
X15980Y6980D01*
X15940Y6900D01*
X15980Y6820D01*
X15900Y6860D01*
X15820Y6820D01*
X15570D02*
X15610Y6900D01*
X15570Y6980D01*
X15650Y6940D01*
X15730Y6980D01*
X15690Y6900D01*
X15730Y6820D01*
X15650Y6860D01*
X15570Y6820D01*
X15320D02*
X15360Y6900D01*
X15320Y6980D01*
X15400Y6940D01*
X15480Y6980D01*
X15440Y6900D01*
X15480Y6820D01*
X15400Y6860D01*
X15320Y6820D01*
X15070D02*
X15110Y6900D01*
X15070Y6980D01*
X15150Y6940D01*
X15230Y6980D01*
X15190Y6900D01*
X15230Y6820D01*
X15150Y6860D01*
X15070Y6820D01*
X14820D02*
X14860Y6900D01*
X14820Y6980D01*
X14900Y6940D01*
X14980Y6980D01*
X14940Y6900D01*
X14980Y6820D01*
X14900Y6860D01*
X14820Y6820D01*
X14570D02*
X14610Y6900D01*
X14570Y6980D01*
X14650Y6940D01*
X14730Y6980D01*
X14690Y6900D01*
X14730Y6820D01*
X14650Y6860D01*
X14570Y6820D01*
X14320D02*
X14360Y6900D01*
X14320Y6980D01*
X14400Y6940D01*
X14480Y6980D01*
X14440Y6900D01*
X14480Y6820D01*
X14400Y6860D01*
X14320Y6820D01*
X16170Y7020D02*
X16210Y7100D01*
X16170Y7180D01*
X16250Y7140D01*
X16330Y7180D01*
X16290Y7100D01*
X16330Y7020D01*
X16250Y7060D01*
X16170Y7020D01*
X15920D02*
X15960Y7100D01*
X15920Y7180D01*
X16000Y7140D01*
X16080Y7180D01*
X16040Y7100D01*
X16080Y7020D01*
X16000Y7060D01*
X15920Y7020D01*
X15670D02*
X15710Y7100D01*
X15670Y7180D01*
X15750Y7140D01*
X15830Y7180D01*
X15790Y7100D01*
X15830Y7020D01*
X15750Y7060D01*
X15670Y7020D01*
X15420D02*
X15460Y7100D01*
X15420Y7180D01*
X15500Y7140D01*
X15580Y7180D01*
X15540Y7100D01*
X15580Y7020D01*
X15500Y7060D01*
X15420Y7020D01*
X15170D02*
X15210Y7100D01*
X15170Y7180D01*
X15250Y7140D01*
X15330Y7180D01*
X15290Y7100D01*
X15330Y7020D01*
X15250Y7060D01*
X15170Y7020D01*
X14920D02*
X14960Y7100D01*
X14920Y7180D01*
X15000Y7140D01*
X15080Y7180D01*
X15040Y7100D01*
X15080Y7020D01*
X15000Y7060D01*
X14920Y7020D01*
X14670D02*
X14710Y7100D01*
X14670Y7180D01*
X14750Y7140D01*
X14830Y7180D01*
X14790Y7100D01*
X14830Y7020D01*
X14750Y7060D01*
X14670Y7020D01*
X16320Y7220D02*
X16360Y7300D01*
X16320Y7380D01*
X16400Y7340D01*
X16480Y7380D01*
X16440Y7300D01*
X16480Y7220D01*
X16400Y7260D01*
X16320Y7220D01*
X16070D02*
X16110Y7300D01*
X16070Y7380D01*
X16150Y7340D01*
X16230Y7380D01*
X16190Y7300D01*
X16230Y7220D01*
X16150Y7260D01*
X16070Y7220D01*
X15820D02*
X15860Y7300D01*
X15820Y7380D01*
X15900Y7340D01*
X15980Y7380D01*
X15940Y7300D01*
X15980Y7220D01*
X15900Y7260D01*
X15820Y7220D01*
X15570D02*
X15610Y7300D01*
X15570Y7380D01*
X15650Y7340D01*
X15730Y7380D01*
X15690Y7300D01*
X15730Y7220D01*
X15650Y7260D01*
X15570Y7220D01*
X15320D02*
X15360Y7300D01*
X15320Y7380D01*
X15400Y7340D01*
X15480Y7380D01*
X15440Y7300D01*
X15480Y7220D01*
X15400Y7260D01*
X15320Y7220D01*
X15070D02*
X15110Y7300D01*
X15070Y7380D01*
X15150Y7340D01*
X15230Y7380D01*
X15190Y7300D01*
X15230Y7220D01*
X15150Y7260D01*
X15070Y7220D01*
X14820D02*
X14860Y7300D01*
X14820Y7380D01*
X14900Y7340D01*
X14980Y7380D01*
X14940Y7300D01*
X14980Y7220D01*
X14900Y7260D01*
X14820Y7220D01*
X14420Y7020D02*
X14460Y7100D01*
X14420Y7180D01*
X14500Y7140D01*
X14580Y7180D01*
X14540Y7100D01*
X14580Y7020D01*
X14500Y7060D01*
X14420Y7020D01*
X14320Y7220D02*
X14360Y7300D01*
X14320Y7380D01*
X14400Y7340D01*
X14480Y7380D01*
X14440Y7300D01*
X14480Y7220D01*
X14400Y7260D01*
X14320Y7220D01*
X14570D02*
X14610Y7300D01*
X14570Y7380D01*
X14650Y7340D01*
X14730Y7380D01*
X14690Y7300D01*
X14730Y7220D01*
X14650Y7260D01*
X14570Y7220D01*
X11270Y6820D02*
X11310Y6900D01*
X11270Y6980D01*
X11350Y6940D01*
X11430Y6980D01*
X11390Y6900D01*
X11430Y6820D01*
X11350Y6860D01*
X11270Y6820D01*
X11020D02*
X11060Y6900D01*
X11020Y6980D01*
X11100Y6940D01*
X11180Y6980D01*
X11140Y6900D01*
X11180Y6820D01*
X11100Y6860D01*
X11020Y6820D01*
X10770D02*
X10810Y6900D01*
X10770Y6980D01*
X10850Y6940D01*
X10930Y6980D01*
X10890Y6900D01*
X10930Y6820D01*
X10850Y6860D01*
X10770Y6820D01*
X10520D02*
X10560Y6900D01*
X10520Y6980D01*
X10600Y6940D01*
X10680Y6980D01*
X10640Y6900D01*
X10680Y6820D01*
X10600Y6860D01*
X10520Y6820D01*
X10270D02*
X10310Y6900D01*
X10270Y6980D01*
X10350Y6940D01*
X10430Y6980D01*
X10390Y6900D01*
X10430Y6820D01*
X10350Y6860D01*
X10270Y6820D01*
X10020D02*
X10060Y6900D01*
X10020Y6980D01*
X10100Y6940D01*
X10180Y6980D01*
X10140Y6900D01*
X10180Y6820D01*
X10100Y6860D01*
X10020Y6820D01*
X9770D02*
X9810Y6900D01*
X9770Y6980D01*
X9850Y6940D01*
X9930Y6980D01*
X9890Y6900D01*
X9930Y6820D01*
X9850Y6860D01*
X9770Y6820D01*
X9520D02*
X9560Y6900D01*
X9520Y6980D01*
X9600Y6940D01*
X9680Y6980D01*
X9640Y6900D01*
X9680Y6820D01*
X9600Y6860D01*
X9520Y6820D01*
X11370Y7020D02*
X11410Y7100D01*
X11370Y7180D01*
X11450Y7140D01*
X11530Y7180D01*
X11490Y7100D01*
X11530Y7020D01*
X11450Y7060D01*
X11370Y7020D01*
X11120D02*
X11160Y7100D01*
X11120Y7180D01*
X11200Y7140D01*
X11280Y7180D01*
X11240Y7100D01*
X11280Y7020D01*
X11200Y7060D01*
X11120Y7020D01*
X10870D02*
X10910Y7100D01*
X10870Y7180D01*
X10950Y7140D01*
X11030Y7180D01*
X10990Y7100D01*
X11030Y7020D01*
X10950Y7060D01*
X10870Y7020D01*
X10620D02*
X10660Y7100D01*
X10620Y7180D01*
X10700Y7140D01*
X10780Y7180D01*
X10740Y7100D01*
X10780Y7020D01*
X10700Y7060D01*
X10620Y7020D01*
X10370D02*
X10410Y7100D01*
X10370Y7180D01*
X10450Y7140D01*
X10530Y7180D01*
X10490Y7100D01*
X10530Y7020D01*
X10450Y7060D01*
X10370Y7020D01*
X10120D02*
X10160Y7100D01*
X10120Y7180D01*
X10200Y7140D01*
X10280Y7180D01*
X10240Y7100D01*
X10280Y7020D01*
X10200Y7060D01*
X10120Y7020D01*
X9870D02*
X9910Y7100D01*
X9870Y7180D01*
X9950Y7140D01*
X10030Y7180D01*
X9990Y7100D01*
X10030Y7020D01*
X9950Y7060D01*
X9870Y7020D01*
X9646Y7015D02*
X9686Y7095D01*
X9646Y7175D01*
X9726Y7135D01*
X9806Y7175D01*
X9766Y7095D01*
X9806Y7015D01*
X9726Y7055D01*
X9646Y7015D01*
X9520Y7220D02*
X9560Y7300D01*
X9520Y7380D01*
X9600Y7340D01*
X9680Y7380D01*
X9640Y7300D01*
X9680Y7220D01*
X9600Y7260D01*
X9520Y7220D01*
X11520D02*
X11560Y7300D01*
X11520Y7380D01*
X11600Y7340D01*
X11680Y7380D01*
X11640Y7300D01*
X11680Y7220D01*
X11600Y7260D01*
X11520Y7220D01*
X11270D02*
X11310Y7300D01*
X11270Y7380D01*
X11350Y7340D01*
X11430Y7380D01*
X11390Y7300D01*
X11430Y7220D01*
X11350Y7260D01*
X11270Y7220D01*
X11020D02*
X11060Y7300D01*
X11020Y7380D01*
X11100Y7340D01*
X11180Y7380D01*
X11140Y7300D01*
X11180Y7220D01*
X11100Y7260D01*
X11020Y7220D01*
X10770D02*
X10810Y7300D01*
X10770Y7380D01*
X10850Y7340D01*
X10930Y7380D01*
X10890Y7300D01*
X10930Y7220D01*
X10850Y7260D01*
X10770Y7220D01*
X10520D02*
X10560Y7300D01*
X10520Y7380D01*
X10600Y7340D01*
X10680Y7380D01*
X10640Y7300D01*
X10680Y7220D01*
X10600Y7260D01*
X10520Y7220D01*
X10270D02*
X10310Y7300D01*
X10270Y7380D01*
X10350Y7340D01*
X10430Y7380D01*
X10390Y7300D01*
X10430Y7220D01*
X10350Y7260D01*
X10270Y7220D01*
X10020D02*
X10060Y7300D01*
X10020Y7380D01*
X10100Y7340D01*
X10180Y7380D01*
X10140Y7300D01*
X10180Y7220D01*
X10100Y7260D01*
X10020Y7220D01*
X9770D02*
X9810Y7300D01*
X9770Y7380D01*
X9850Y7340D01*
X9930Y7380D01*
X9890Y7300D01*
X9930Y7220D01*
X9850Y7260D01*
X9770Y7220D01*
X1570Y4631D02*
X1610Y4711D01*
X1570Y4791D01*
X1650Y4751D01*
X1730Y4791D01*
X1690Y4711D01*
X1730Y4631D01*
X1650Y4671D01*
X1570Y4631D01*
Y4946D02*
X1610Y5026D01*
X1570Y5106D01*
X1650Y5066D01*
X1730Y5106D01*
X1690Y5026D01*
X1730Y4946D01*
X1650Y4986D01*
X1570Y4946D01*
X6820Y6820D02*
X6860Y6900D01*
X6820Y6980D01*
X6900Y6940D01*
X6980Y6980D01*
X6940Y6900D01*
X6980Y6820D01*
X6900Y6860D01*
X6820Y6820D01*
X6570D02*
X6610Y6900D01*
X6570Y6980D01*
X6650Y6940D01*
X6730Y6980D01*
X6690Y6900D01*
X6730Y6820D01*
X6650Y6860D01*
X6570Y6820D01*
X6320D02*
X6360Y6900D01*
X6320Y6980D01*
X6400Y6940D01*
X6480Y6980D01*
X6440Y6900D01*
X6480Y6820D01*
X6400Y6860D01*
X6320Y6820D01*
X6070D02*
X6110Y6900D01*
X6070Y6980D01*
X6150Y6940D01*
X6230Y6980D01*
X6190Y6900D01*
X6230Y6820D01*
X6150Y6860D01*
X6070Y6820D01*
X5820D02*
X5860Y6900D01*
X5820Y6980D01*
X5900Y6940D01*
X5980Y6980D01*
X5940Y6900D01*
X5980Y6820D01*
X5900Y6860D01*
X5820Y6820D01*
X5570D02*
X5610Y6900D01*
X5570Y6980D01*
X5650Y6940D01*
X5730Y6980D01*
X5690Y6900D01*
X5730Y6820D01*
X5650Y6860D01*
X5570Y6820D01*
X5320D02*
X5360Y6900D01*
X5320Y6980D01*
X5400Y6940D01*
X5480Y6980D01*
X5440Y6900D01*
X5480Y6820D01*
X5400Y6860D01*
X5320Y6820D01*
X5070D02*
X5110Y6900D01*
X5070Y6980D01*
X5150Y6940D01*
X5230Y6980D01*
X5190Y6900D01*
X5230Y6820D01*
X5150Y6860D01*
X5070Y6820D01*
X4820D02*
X4860Y6900D01*
X4820Y6980D01*
X4900Y6940D01*
X4980Y6980D01*
X4940Y6900D01*
X4980Y6820D01*
X4900Y6860D01*
X4820Y6820D01*
X6970Y7020D02*
X7010Y7100D01*
X6970Y7180D01*
X7050Y7140D01*
X7130Y7180D01*
X7090Y7100D01*
X7130Y7020D01*
X7050Y7060D01*
X6970Y7020D01*
X6720D02*
X6760Y7100D01*
X6720Y7180D01*
X6800Y7140D01*
X6880Y7180D01*
X6840Y7100D01*
X6880Y7020D01*
X6800Y7060D01*
X6720Y7020D01*
X6470D02*
X6510Y7100D01*
X6470Y7180D01*
X6550Y7140D01*
X6630Y7180D01*
X6590Y7100D01*
X6630Y7020D01*
X6550Y7060D01*
X6470Y7020D01*
X6220D02*
X6260Y7100D01*
X6220Y7180D01*
X6300Y7140D01*
X6380Y7180D01*
X6340Y7100D01*
X6380Y7020D01*
X6300Y7060D01*
X6220Y7020D01*
X5970D02*
X6010Y7100D01*
X5970Y7180D01*
X6050Y7140D01*
X6130Y7180D01*
X6090Y7100D01*
X6130Y7020D01*
X6050Y7060D01*
X5970Y7020D01*
X5720D02*
X5760Y7100D01*
X5720Y7180D01*
X5800Y7140D01*
X5880Y7180D01*
X5840Y7100D01*
X5880Y7020D01*
X5800Y7060D01*
X5720Y7020D01*
X5470D02*
X5510Y7100D01*
X5470Y7180D01*
X5550Y7140D01*
X5630Y7180D01*
X5590Y7100D01*
X5630Y7020D01*
X5550Y7060D01*
X5470Y7020D01*
X5220D02*
X5260Y7100D01*
X5220Y7180D01*
X5300Y7140D01*
X5380Y7180D01*
X5340Y7100D01*
X5380Y7020D01*
X5300Y7060D01*
X5220Y7020D01*
X4970D02*
X5010Y7100D01*
X4970Y7180D01*
X5050Y7140D01*
X5130Y7180D01*
X5090Y7100D01*
X5130Y7020D01*
X5050Y7060D01*
X4970Y7020D01*
X7070Y7220D02*
X7110Y7300D01*
X7070Y7380D01*
X7150Y7340D01*
X7230Y7380D01*
X7190Y7300D01*
X7230Y7220D01*
X7150Y7260D01*
X7070Y7220D01*
X6820D02*
X6860Y7300D01*
X6820Y7380D01*
X6900Y7340D01*
X6980Y7380D01*
X6940Y7300D01*
X6980Y7220D01*
X6900Y7260D01*
X6820Y7220D01*
X6570D02*
X6610Y7300D01*
X6570Y7380D01*
X6650Y7340D01*
X6730Y7380D01*
X6690Y7300D01*
X6730Y7220D01*
X6650Y7260D01*
X6570Y7220D01*
X6320D02*
X6360Y7300D01*
X6320Y7380D01*
X6400Y7340D01*
X6480Y7380D01*
X6440Y7300D01*
X6480Y7220D01*
X6400Y7260D01*
X6320Y7220D01*
X6070D02*
X6110Y7300D01*
X6070Y7380D01*
X6150Y7340D01*
X6230Y7380D01*
X6190Y7300D01*
X6230Y7220D01*
X6150Y7260D01*
X6070Y7220D01*
X5820D02*
X5860Y7300D01*
X5820Y7380D01*
X5900Y7340D01*
X5980Y7380D01*
X5940Y7300D01*
X5980Y7220D01*
X5900Y7260D01*
X5820Y7220D01*
X5570D02*
X5610Y7300D01*
X5570Y7380D01*
X5650Y7340D01*
X5730Y7380D01*
X5690Y7300D01*
X5730Y7220D01*
X5650Y7260D01*
X5570Y7220D01*
X5320D02*
X5360Y7300D01*
X5320Y7380D01*
X5400Y7340D01*
X5480Y7380D01*
X5440Y7300D01*
X5480Y7220D01*
X5400Y7260D01*
X5320Y7220D01*
X5070D02*
X5110Y7300D01*
X5070Y7380D01*
X5150Y7340D01*
X5230Y7380D01*
X5190Y7300D01*
X5230Y7220D01*
X5150Y7260D01*
X5070Y7220D01*
X4820D02*
X4860Y7300D01*
X4820Y7380D01*
X4900Y7340D01*
X4980Y7380D01*
X4940Y7300D01*
X4980Y7220D01*
X4900Y7260D01*
X4820Y7220D01*
X13960Y4310D02*
Y4270D01*
X14040D01*
Y4310D01*
X14080D01*
Y4390D01*
X14040D01*
Y4430D01*
X13960D01*
Y4390D01*
X13920D01*
Y4310D01*
X13960D01*
X10410Y4631D02*
Y4591D01*
X10490D01*
Y4631D01*
X10530D01*
Y4711D01*
X10490D01*
Y4751D01*
X10410D01*
Y4711D01*
X10370D01*
Y4631D01*
X10410D01*
X14620Y4591D02*
X14660Y4671D01*
X14620Y4751D01*
X14700Y4711D01*
X14780Y4751D01*
X14740Y4671D01*
X14780Y4591D01*
X14700Y4631D01*
X14620Y4591D01*
X12361Y4748D02*
X12401Y4828D01*
X12361Y4908D01*
X12441Y4868D01*
X12521Y4908D01*
X12481Y4828D01*
X12521Y4748D01*
X12441Y4788D01*
X12361Y4748D01*
X17120Y4946D02*
X17160Y5026D01*
X17120Y5106D01*
X17200Y5066D01*
X17280Y5106D01*
X17240Y5026D01*
X17280Y4946D01*
X17200Y4986D01*
X17120Y4946D01*
X12361Y4000D02*
X12401Y4080D01*
X12361Y4160D01*
X12441Y4120D01*
X12521Y4160D01*
X12481Y4080D01*
X12521Y4000D01*
X12441Y4040D01*
X12361Y4000D01*
X17020Y6206D02*
X17060D01*
X17100Y6246D01*
X17140Y6206D01*
X17180D01*
Y6246D01*
X17140Y6286D01*
X17180Y6326D01*
Y6366D01*
X17140D01*
X17100Y6326D01*
X17060Y6366D01*
X17020D01*
Y6326D01*
X17060Y6286D01*
X17020Y6246D01*
Y6206D01*
X17120Y5261D02*
X17160Y5341D01*
X17120Y5421D01*
X17200Y5381D01*
X17280Y5421D01*
X17240Y5341D01*
X17280Y5261D01*
X17200Y5301D01*
X17120Y5261D01*
Y5576D02*
X17160Y5656D01*
X17120Y5736D01*
X17200Y5696D01*
X17280Y5736D01*
X17240Y5656D01*
X17280Y5576D01*
X17200Y5616D01*
X17120Y5576D01*
X8085Y4748D02*
X8125Y4828D01*
X8085Y4908D01*
X8165Y4868D01*
X8245Y4908D01*
X8205Y4828D01*
X8245Y4748D01*
X8165Y4788D01*
X8085Y4748D01*
X7756Y12520D02*
X7796Y12600D01*
X7756Y12680D01*
X7836Y12640D01*
X7916Y12680D01*
X7876Y12600D01*
X7916Y12520D01*
X7836Y12560D01*
X7756Y12520D01*
X12548D02*
X12588Y12600D01*
X12548Y12680D01*
X12628Y12640D01*
X12708Y12680D01*
X12668Y12600D01*
X12708Y12520D01*
X12628Y12560D01*
X12548Y12520D01*
X2920D02*
X2960Y12600D01*
X2920Y12680D01*
X3000Y12640D01*
X3080Y12680D01*
X3040Y12600D01*
X3080Y12520D01*
X3000Y12560D01*
X2920Y12520D01*
X1570Y5261D02*
X1610Y5341D01*
X1570Y5421D01*
X1650Y5381D01*
X1730Y5421D01*
X1690Y5341D01*
X1730Y5261D01*
X1650Y5301D01*
X1570Y5261D01*
Y5576D02*
X1610Y5656D01*
X1570Y5736D01*
X1650Y5696D01*
X1730Y5736D01*
X1690Y5656D01*
X1730Y5576D01*
X1650Y5616D01*
X1570Y5576D01*
Y5891D02*
X1610Y5971D01*
X1570Y6051D01*
X1650Y6011D01*
X1730Y6051D01*
X1690Y5971D01*
X1730Y5891D01*
X1650Y5931D01*
X1570Y5891D01*
X18022Y4357D02*
X18102Y4437D01*
X18182Y4357D01*
X18102Y4277D01*
X18022Y4357D01*
Y6640D02*
X18102Y6720D01*
X18182Y6640D01*
X18102Y6560D01*
X18022Y6640D01*
X1322D02*
X1402Y6720D01*
X1482Y6640D01*
X1402Y6560D01*
X1322Y6640D01*
Y4357D02*
X1402Y4437D01*
X1482Y4357D01*
X1402Y4277D01*
X1322Y4357D01*
D59*
X8930Y18450D02*
G03*
X8930Y18450I-80J0D01*
G01*
X10304Y1150D02*
G03*
X10304Y1150I-80J0D01*
G01*
X6680D02*
G03*
X6680Y1150I-80J0D01*
G01*
X13930D02*
G03*
X13930Y1150I-80J0D01*
G01*
X11680Y18450D02*
G03*
X11680Y18450I-80J0D01*
G01*
M02*
