G04*
G04 #@! TF.GenerationSoftware,Altium Limited,Altium Designer,22.0.2 (36)*
G04*
G04 Layer_Physical_Order=4*
G04 Layer_Color=16711680*
%FSLAX24Y24*%
%MOIN*%
G70*
G04*
G04 #@! TF.SameCoordinates,22A08989-F282-469C-B082-2707E795951A*
G04*
G04*
G04 #@! TF.FilePolarity,Positive*
G04*
G01*
G75*
%ADD14C,0.0100*%
%ADD32C,0.0300*%
%ADD37R,0.0318X0.0340*%
%ADD38R,0.0354X0.0866*%
%ADD39R,0.0315X0.0866*%
%ADD40R,0.3181X0.0315*%
%ADD41R,0.3937X0.3346*%
%ADD42R,0.0585X0.0680*%
%ADD43R,0.0340X0.0318*%
%ADD45C,0.0150*%
%ADD46C,0.0080*%
%ADD47C,0.0220*%
%ADD48C,0.2362*%
%ADD49C,0.1024*%
%ADD50C,0.0591*%
%ADD51C,0.0200*%
%ADD52C,0.0276*%
%ADD53O,0.0572X0.0139*%
%ADD54R,0.0315X0.0354*%
G36*
X16044Y17700D02*
Y13550D01*
X15844Y13350D01*
X14194Y13350D01*
X13994Y13550D01*
X13994Y17700D01*
X14344Y18050D01*
X15694D01*
X16044Y17700D01*
D02*
G37*
G36*
X10100Y13506D02*
X9894Y13300D01*
X8350Y13300D01*
X8144Y13506D01*
Y15450D01*
X7744Y15850D01*
X6944D01*
X6694Y16100D01*
X6694Y19583D01*
X10100D01*
X10100Y13506D01*
D02*
G37*
G36*
X20107Y19583D02*
X20164Y19572D01*
X20217Y19550D01*
X20265Y19518D01*
X20305Y19477D01*
X20337Y19430D01*
X20359Y19376D01*
X20370Y19320D01*
X20370Y19291D01*
X20370Y8150D01*
X19294D01*
Y10700D01*
X19044Y10950D01*
X13944D01*
X13644Y11250D01*
Y12500D01*
X14294Y13150D01*
X15894Y13150D01*
X16194Y13450D01*
Y17900D01*
X15844Y18250D01*
X14200Y18250D01*
X13844Y17894D01*
Y13194D01*
X13200Y12550D01*
X12754Y12550D01*
X12753Y12552D01*
X12744Y12575D01*
X12743Y12575D01*
X12742Y12576D01*
X12730Y12581D01*
Y12600D01*
X12722Y12639D01*
X12700Y12672D01*
X12667Y12694D01*
X12628Y12702D01*
X12589Y12694D01*
X12556Y12672D01*
X12534Y12639D01*
X12526Y12600D01*
Y12590D01*
X12518Y12578D01*
X12514Y12576D01*
X12513Y12575D01*
X12512Y12575D01*
X12505Y12558D01*
X12500Y12550D01*
X12350Y12400D01*
Y11206D01*
X12094Y10950D01*
X9119Y10950D01*
X8850Y11194D01*
Y12600D01*
X7938D01*
X7930Y12639D01*
X7908Y12672D01*
X7875Y12694D01*
X7836Y12702D01*
X7797Y12694D01*
X7764Y12672D01*
X7742Y12639D01*
X7734Y12600D01*
X7694D01*
X7494Y12400D01*
Y11150D01*
X7294Y10950D01*
X4227Y10950D01*
X4044Y11170D01*
Y12500D01*
X3944Y12600D01*
X3102D01*
X3094Y12639D01*
X3072Y12672D01*
X3039Y12694D01*
X3000Y12702D01*
X2961Y12694D01*
X2928Y12672D01*
X2906Y12639D01*
X2898Y12600D01*
X102D01*
Y19291D01*
Y19320D01*
X113Y19376D01*
X135Y19430D01*
X167Y19477D01*
X208Y19518D01*
X256Y19550D01*
X309Y19572D01*
X365Y19583D01*
X394Y19583D01*
X6500Y19583D01*
Y16050D01*
X6900Y15650D01*
X7650D01*
X7950Y15350D01*
Y13400D01*
X8200Y13150D01*
X10102D01*
X10350Y13398D01*
Y19583D01*
X20079Y19583D01*
X20107Y19583D01*
D02*
G37*
G36*
X12692Y12522D02*
X12687Y12516D01*
X12683Y12509D01*
X12679Y12502D01*
X12675Y12494D01*
X12673Y12486D01*
X12671Y12477D01*
X12669Y12468D01*
X12669Y12464D01*
X12670Y12455D01*
X12672Y12443D01*
X12674Y12432D01*
X12678Y12423D01*
X12682Y12416D01*
X12688Y12410D01*
X12694Y12406D01*
X12700Y12404D01*
X12708Y12403D01*
X12548D01*
X12556Y12404D01*
X12562Y12406D01*
X12568Y12410D01*
X12574Y12416D01*
X12578Y12423D01*
X12582Y12432D01*
X12584Y12443D01*
X12586Y12455D01*
X12587Y12464D01*
X12587Y12468D01*
X12585Y12477D01*
X12583Y12486D01*
X12580Y12494D01*
X12577Y12502D01*
X12573Y12509D01*
X12569Y12516D01*
X12564Y12522D01*
X12558Y12529D01*
X12698D01*
X12692Y12522D01*
D02*
G37*
G36*
X7900D02*
X7895Y12516D01*
X7891Y12509D01*
X7887Y12502D01*
X7883Y12494D01*
X7881Y12486D01*
X7879Y12477D01*
X7877Y12468D01*
X7877Y12464D01*
X7877Y12455D01*
X7879Y12443D01*
X7882Y12432D01*
X7886Y12423D01*
X7890Y12416D01*
X7895Y12410D01*
X7901Y12406D01*
X7908Y12404D01*
X7916Y12403D01*
X7756D01*
X7763Y12404D01*
X7770Y12406D01*
X7776Y12410D01*
X7781Y12416D01*
X7786Y12423D01*
X7789Y12432D01*
X7792Y12443D01*
X7794Y12455D01*
X7795Y12464D01*
X7795Y12468D01*
X7793Y12477D01*
X7791Y12486D01*
X7788Y12494D01*
X7785Y12502D01*
X7781Y12509D01*
X7777Y12516D01*
X7772Y12522D01*
X7766Y12529D01*
X7906D01*
X7900Y12522D01*
D02*
G37*
G36*
X3064D02*
X3059Y12516D01*
X3055Y12509D01*
X3051Y12502D01*
X3047Y12494D01*
X3045Y12486D01*
X3043Y12477D01*
X3041Y12468D01*
X3041Y12464D01*
X3042Y12455D01*
X3044Y12443D01*
X3046Y12432D01*
X3050Y12423D01*
X3054Y12416D01*
X3060Y12410D01*
X3066Y12406D01*
X3072Y12404D01*
X3080Y12403D01*
X2920D01*
X2928Y12404D01*
X2934Y12406D01*
X2940Y12410D01*
X2946Y12416D01*
X2950Y12423D01*
X2954Y12432D01*
X2956Y12443D01*
X2958Y12455D01*
X2959Y12464D01*
X2959Y12468D01*
X2957Y12477D01*
X2955Y12486D01*
X2952Y12494D01*
X2949Y12502D01*
X2945Y12509D01*
X2941Y12516D01*
X2936Y12522D01*
X2930Y12529D01*
X3070D01*
X3064Y12522D01*
D02*
G37*
G36*
X13206Y11924D02*
X13205Y11933D01*
X13202Y11942D01*
X13196Y11949D01*
X13189Y11956D01*
X13180Y11961D01*
X13169Y11966D01*
X13156Y11969D01*
X13141Y11972D01*
X13124Y11974D01*
X13104Y11974D01*
Y12074D01*
X13124Y12075D01*
X13141Y12076D01*
X13156Y12078D01*
X13169Y12082D01*
X13180Y12086D01*
X13189Y12092D01*
X13196Y12098D01*
X13202Y12106D01*
X13205Y12114D01*
X13206Y12124D01*
Y11924D01*
D02*
G37*
G36*
X8395D02*
X8394Y11933D01*
X8391Y11942D01*
X8386Y11949D01*
X8379Y11956D01*
X8370Y11961D01*
X8359Y11966D01*
X8345Y11969D01*
X8330Y11972D01*
X8313Y11974D01*
X8294Y11974D01*
Y12074D01*
X8313Y12075D01*
X8330Y12076D01*
X8345Y12078D01*
X8359Y12082D01*
X8370Y12086D01*
X8379Y12092D01*
X8386Y12098D01*
X8391Y12106D01*
X8394Y12114D01*
X8395Y12124D01*
Y11924D01*
D02*
G37*
G36*
X3606D02*
X3605Y11933D01*
X3601Y11942D01*
X3596Y11949D01*
X3589Y11956D01*
X3580Y11961D01*
X3569Y11966D01*
X3556Y11969D01*
X3541Y11972D01*
X3524Y11974D01*
X3504Y11974D01*
Y12074D01*
X3524Y12075D01*
X3541Y12076D01*
X3556Y12078D01*
X3569Y12082D01*
X3580Y12086D01*
X3589Y12092D01*
X3596Y12098D01*
X3601Y12106D01*
X3605Y12114D01*
X3606Y12124D01*
Y11924D01*
D02*
G37*
G36*
X12868Y11811D02*
X12848Y11790D01*
X12816Y11753D01*
X12805Y11737D01*
X12796Y11722D01*
X12790Y11709D01*
X12788Y11697D01*
X12787Y11686D01*
X12790Y11677D01*
X12796Y11670D01*
X12655Y11810D01*
X12663Y11804D01*
X12672Y11802D01*
X12683Y11802D01*
X12695Y11805D01*
X12708Y11810D01*
X12723Y11819D01*
X12739Y11830D01*
X12757Y11845D01*
X12797Y11882D01*
X12868Y11811D01*
D02*
G37*
G36*
X8075D02*
X8055Y11790D01*
X8024Y11753D01*
X8013Y11737D01*
X8004Y11722D01*
X7998Y11709D01*
X7995Y11697D01*
X7995Y11686D01*
X7998Y11677D01*
X8004Y11670D01*
X7863Y11810D01*
X7871Y11804D01*
X7880Y11802D01*
X7891Y11802D01*
X7903Y11805D01*
X7916Y11810D01*
X7931Y11819D01*
X7947Y11830D01*
X7965Y11845D01*
X8005Y11882D01*
X8075Y11811D01*
D02*
G37*
G36*
X3240D02*
X3220Y11790D01*
X3188Y11753D01*
X3177Y11737D01*
X3168Y11722D01*
X3162Y11709D01*
X3160Y11697D01*
X3159Y11686D01*
X3162Y11677D01*
X3168Y11670D01*
X3027Y11810D01*
X3035Y11804D01*
X3044Y11802D01*
X3055Y11802D01*
X3067Y11805D01*
X3080Y11810D01*
X3095Y11819D01*
X3111Y11830D01*
X3129Y11845D01*
X3169Y11882D01*
X3240Y11811D01*
D02*
G37*
G36*
X12718Y11496D02*
X12710Y11493D01*
X12702Y11488D01*
X12696Y11481D01*
X12690Y11472D01*
X12686Y11461D01*
X12682Y11447D01*
X12680Y11432D01*
X12678Y11415D01*
X12678Y11396D01*
X12578D01*
X12577Y11415D01*
X12576Y11432D01*
X12573Y11447D01*
X12570Y11461D01*
X12565Y11472D01*
X12560Y11481D01*
X12553Y11488D01*
X12546Y11493D01*
X12537Y11496D01*
X12528Y11497D01*
X12728D01*
X12718Y11496D01*
D02*
G37*
G36*
X7926D02*
X7918Y11493D01*
X7910Y11488D01*
X7904Y11481D01*
X7898Y11472D01*
X7894Y11461D01*
X7890Y11447D01*
X7888Y11432D01*
X7886Y11415D01*
X7886Y11396D01*
X7786D01*
X7785Y11415D01*
X7784Y11432D01*
X7781Y11447D01*
X7778Y11461D01*
X7773Y11472D01*
X7768Y11481D01*
X7761Y11488D01*
X7754Y11493D01*
X7745Y11496D01*
X7736Y11497D01*
X7936D01*
X7926Y11496D01*
D02*
G37*
G36*
X3084D02*
X3076Y11493D01*
X3068Y11488D01*
X3062Y11481D01*
X3056Y11472D01*
X3052Y11461D01*
X3048Y11447D01*
X3046Y11432D01*
X3044Y11415D01*
X3044Y11396D01*
X2944D01*
X2943Y11415D01*
X2942Y11432D01*
X2939Y11447D01*
X2936Y11461D01*
X2931Y11472D01*
X2926Y11481D01*
X2919Y11488D01*
X2912Y11493D01*
X2903Y11496D01*
X2894Y11497D01*
X3094D01*
X3084Y11496D01*
D02*
G37*
G36*
X12678Y11254D02*
X12680Y11237D01*
X12682Y11221D01*
X12686Y11208D01*
X12690Y11197D01*
X12696Y11188D01*
X12702Y11181D01*
X12710Y11176D01*
X12718Y11173D01*
X12728Y11172D01*
X12528D01*
X12537Y11173D01*
X12546Y11176D01*
X12553Y11181D01*
X12560Y11188D01*
X12565Y11197D01*
X12570Y11208D01*
X12573Y11221D01*
X12576Y11237D01*
X12577Y11254D01*
X12578Y11273D01*
X12678D01*
X12678Y11254D01*
D02*
G37*
G36*
X7886D02*
X7888Y11237D01*
X7890Y11221D01*
X7894Y11208D01*
X7898Y11197D01*
X7904Y11188D01*
X7910Y11181D01*
X7918Y11176D01*
X7926Y11173D01*
X7936Y11172D01*
X7736D01*
X7745Y11173D01*
X7754Y11176D01*
X7761Y11181D01*
X7768Y11188D01*
X7773Y11197D01*
X7778Y11208D01*
X7781Y11221D01*
X7784Y11237D01*
X7785Y11254D01*
X7786Y11273D01*
X7886D01*
X7886Y11254D01*
D02*
G37*
G36*
X3044D02*
X3046Y11237D01*
X3048Y11221D01*
X3052Y11208D01*
X3056Y11197D01*
X3062Y11188D01*
X3068Y11181D01*
X3076Y11176D01*
X3084Y11173D01*
X3094Y11172D01*
X2894D01*
X2903Y11173D01*
X2912Y11176D01*
X2919Y11181D01*
X2926Y11188D01*
X2931Y11197D01*
X2936Y11208D01*
X2939Y11221D01*
X2942Y11237D01*
X2943Y11254D01*
X2944Y11273D01*
X3044D01*
X3044Y11254D01*
D02*
G37*
G36*
X12718Y10265D02*
X12710Y10262D01*
X12702Y10257D01*
X12696Y10250D01*
X12690Y10241D01*
X12686Y10230D01*
X12682Y10216D01*
X12680Y10201D01*
X12678Y10184D01*
X12678Y10165D01*
X12578D01*
X12577Y10184D01*
X12576Y10201D01*
X12573Y10216D01*
X12570Y10230D01*
X12565Y10241D01*
X12560Y10250D01*
X12553Y10257D01*
X12546Y10262D01*
X12537Y10265D01*
X12528Y10266D01*
X12728D01*
X12718Y10265D01*
D02*
G37*
G36*
X7926D02*
X7918Y10262D01*
X7910Y10257D01*
X7904Y10250D01*
X7898Y10241D01*
X7894Y10230D01*
X7890Y10216D01*
X7888Y10201D01*
X7886Y10184D01*
X7886Y10165D01*
X7786D01*
X7785Y10184D01*
X7784Y10201D01*
X7781Y10216D01*
X7778Y10230D01*
X7773Y10241D01*
X7768Y10250D01*
X7761Y10257D01*
X7754Y10262D01*
X7745Y10265D01*
X7736Y10266D01*
X7936D01*
X7926Y10265D01*
D02*
G37*
G36*
X3090D02*
X3082Y10262D01*
X3074Y10257D01*
X3068Y10250D01*
X3063Y10241D01*
X3058Y10230D01*
X3054Y10216D01*
X3052Y10201D01*
X3050Y10184D01*
X3050Y10165D01*
X2950D01*
X2950Y10184D01*
X2948Y10201D01*
X2946Y10216D01*
X2942Y10230D01*
X2937Y10241D01*
X2932Y10250D01*
X2925Y10257D01*
X2918Y10262D01*
X2910Y10265D01*
X2900Y10266D01*
X3100D01*
X3090Y10265D01*
D02*
G37*
G36*
X18207Y8594D02*
X18206Y8603D01*
X18203Y8612D01*
X18198Y8619D01*
X18191Y8626D01*
X18182Y8631D01*
X18170Y8636D01*
X18157Y8639D01*
X18142Y8642D01*
X18128Y8643D01*
X18116Y8642D01*
X18108Y8640D01*
X18100Y8639D01*
X18093Y8637D01*
X18086Y8634D01*
X18081Y8631D01*
X18076Y8627D01*
X18071Y8624D01*
Y8764D01*
X18076Y8760D01*
X18081Y8756D01*
X18086Y8753D01*
X18093Y8751D01*
X18100Y8749D01*
X18108Y8747D01*
X18116Y8745D01*
X18126Y8745D01*
X18128Y8744D01*
X18142Y8746D01*
X18157Y8748D01*
X18170Y8752D01*
X18182Y8756D01*
X18191Y8762D01*
X18198Y8768D01*
X18203Y8776D01*
X18206Y8784D01*
X18207Y8794D01*
Y8594D01*
D02*
G37*
G36*
X18453Y8523D02*
X18444Y8520D01*
X18436Y8515D01*
X18430Y8508D01*
X18425Y8499D01*
X18420Y8488D01*
X18417Y8475D01*
X18414Y8460D01*
X18412Y8443D01*
X18412Y8424D01*
X18312D01*
X18312Y8443D01*
X18310Y8460D01*
X18307Y8475D01*
X18304Y8488D01*
X18299Y8499D01*
X18294Y8508D01*
X18288Y8515D01*
X18280Y8520D01*
X18271Y8523D01*
X18262Y8524D01*
X18462D01*
X18453Y8523D01*
D02*
G37*
G36*
X18412Y8100D02*
X18414Y8083D01*
X18417Y8068D01*
X18420Y8055D01*
X18425Y8044D01*
X18430Y8035D01*
X18436Y8028D01*
X18444Y8023D01*
X18453Y8020D01*
X18462Y8019D01*
X18262D01*
X18271Y8020D01*
X18280Y8023D01*
X18288Y8028D01*
X18294Y8035D01*
X18299Y8044D01*
X18304Y8055D01*
X18307Y8068D01*
X18310Y8083D01*
X18312Y8100D01*
X18312Y8119D01*
X18412D01*
X18412Y8100D01*
D02*
G37*
G36*
X18441Y7681D02*
X18432Y7678D01*
X18425Y7673D01*
X18418Y7666D01*
X18412Y7657D01*
X18408Y7646D01*
X18405Y7633D01*
X18402Y7618D01*
X18402Y7616D01*
X18403Y7608D01*
X18405Y7600D01*
X18407Y7593D01*
X18410Y7586D01*
X18413Y7581D01*
X18416Y7576D01*
X18420Y7571D01*
X18280D01*
X18284Y7576D01*
X18287Y7581D01*
X18290Y7586D01*
X18293Y7593D01*
X18295Y7600D01*
X18297Y7608D01*
X18298Y7616D01*
X18298Y7618D01*
X18296Y7633D01*
X18292Y7646D01*
X18288Y7657D01*
X18282Y7666D01*
X18276Y7673D01*
X18268Y7678D01*
X18260Y7681D01*
X18250Y7682D01*
X18450D01*
X18441Y7681D01*
D02*
G37*
G36*
X19194Y7300D02*
X18644D01*
Y8980D01*
X19194D01*
Y7300D01*
D02*
G37*
G36*
X17025Y6600D02*
X13083D01*
Y7600D01*
X17025D01*
Y6600D01*
D02*
G37*
G36*
X12207D02*
X8264D01*
Y7600D01*
X12207D01*
Y6600D01*
D02*
G37*
G36*
X7420D02*
X3478D01*
Y7600D01*
X7420D01*
Y6600D01*
D02*
G37*
G36*
X17098Y6136D02*
X17090Y6135D01*
X17081Y6134D01*
X17072Y6131D01*
X17062Y6127D01*
X17052Y6121D01*
X17042Y6115D01*
X17031Y6107D01*
X17020Y6099D01*
X16998Y6077D01*
X16891Y6183D01*
X16903Y6195D01*
X16921Y6217D01*
X16929Y6228D01*
X16936Y6238D01*
X16941Y6248D01*
X16945Y6258D01*
X16948Y6267D01*
X16949Y6276D01*
X16950Y6284D01*
X17098Y6136D01*
D02*
G37*
G36*
X1726Y6037D02*
X1731Y6034D01*
X1736Y6031D01*
X1743Y6028D01*
X1750Y6026D01*
X1758Y6024D01*
X1766Y6023D01*
X1776Y6022D01*
X1797Y6021D01*
Y5921D01*
X1786Y5921D01*
X1766Y5919D01*
X1758Y5918D01*
X1750Y5916D01*
X1743Y5914D01*
X1736Y5911D01*
X1731Y5908D01*
X1726Y5905D01*
X1721Y5901D01*
Y6041D01*
X1726Y6037D01*
D02*
G37*
G36*
X20370Y5850D02*
X19294D01*
Y8050D01*
X20370D01*
Y5850D01*
D02*
G37*
G36*
X17129Y5586D02*
X17124Y5590D01*
X17119Y5593D01*
X17114Y5596D01*
X17107Y5599D01*
X17100Y5601D01*
X17092Y5603D01*
X17084Y5604D01*
X17074Y5605D01*
X17053Y5606D01*
Y5706D01*
X17064Y5706D01*
X17084Y5708D01*
X17092Y5709D01*
X17100Y5711D01*
X17107Y5713D01*
X17114Y5716D01*
X17119Y5719D01*
X17124Y5722D01*
X17129Y5726D01*
Y5586D01*
D02*
G37*
G36*
X1726Y5722D02*
X1731Y5719D01*
X1736Y5716D01*
X1743Y5713D01*
X1750Y5711D01*
X1758Y5709D01*
X1766Y5708D01*
X1776Y5707D01*
X1797Y5706D01*
Y5606D01*
X1786Y5606D01*
X1766Y5604D01*
X1758Y5603D01*
X1750Y5601D01*
X1743Y5599D01*
X1736Y5596D01*
X1731Y5593D01*
X1726Y5590D01*
X1721Y5586D01*
Y5726D01*
X1726Y5722D01*
D02*
G37*
G36*
X10357Y5761D02*
X10413Y5714D01*
X10437Y5697D01*
X10459Y5684D01*
X10479Y5675D01*
X10497Y5671D01*
X10513Y5671D01*
X10527Y5675D01*
X10538Y5683D01*
X10328Y5472D01*
X10336Y5484D01*
X10340Y5498D01*
X10340Y5513D01*
X10336Y5531D01*
X10327Y5552D01*
X10314Y5574D01*
X10297Y5598D01*
X10276Y5625D01*
X10220Y5684D01*
X10326Y5791D01*
X10357Y5761D01*
D02*
G37*
G36*
X14615Y5760D02*
X14671Y5712D01*
X14696Y5694D01*
X14718Y5681D01*
X14738Y5673D01*
X14756Y5669D01*
X14771Y5669D01*
X14784Y5674D01*
X14795Y5683D01*
X14604Y5453D01*
X14611Y5465D01*
X14615Y5479D01*
X14614Y5496D01*
X14610Y5514D01*
X14601Y5534D01*
X14588Y5557D01*
X14571Y5581D01*
X14550Y5607D01*
X14497Y5665D01*
X14583Y5791D01*
X14615Y5760D01*
D02*
G37*
G36*
X14916Y5644D02*
X14920Y5631D01*
X14928Y5620D01*
X14938Y5610D01*
X14952Y5602D01*
X14969Y5595D01*
X14988Y5590D01*
X15011Y5587D01*
X15037Y5584D01*
X15065Y5584D01*
Y5433D01*
X15037Y5433D01*
X15011Y5430D01*
X14988Y5427D01*
X14969Y5422D01*
X14952Y5415D01*
X14938Y5407D01*
X14928Y5397D01*
X14920Y5386D01*
X14916Y5373D01*
X14914Y5358D01*
Y5659D01*
X14916Y5644D01*
D02*
G37*
G36*
X10639D02*
X10644Y5631D01*
X10651Y5620D01*
X10662Y5610D01*
X10676Y5602D01*
X10692Y5595D01*
X10712Y5590D01*
X10734Y5587D01*
X10760Y5584D01*
X10789Y5584D01*
Y5433D01*
X10760Y5433D01*
X10734Y5430D01*
X10712Y5427D01*
X10692Y5422D01*
X10676Y5415D01*
X10662Y5407D01*
X10651Y5397D01*
X10644Y5386D01*
X10639Y5373D01*
X10638Y5358D01*
Y5659D01*
X10639Y5644D01*
D02*
G37*
G36*
X6403D02*
X6407Y5631D01*
X6415Y5620D01*
X6425Y5610D01*
X6439Y5602D01*
X6455Y5595D01*
X6475Y5590D01*
X6498Y5587D01*
X6524Y5584D01*
X6552Y5584D01*
Y5433D01*
X6524Y5433D01*
X6498Y5430D01*
X6475Y5427D01*
X6455Y5422D01*
X6439Y5415D01*
X6425Y5407D01*
X6415Y5397D01*
X6407Y5386D01*
X6403Y5373D01*
X6401Y5358D01*
Y5659D01*
X6403Y5644D01*
D02*
G37*
G36*
X17129Y5271D02*
X17124Y5275D01*
X17119Y5278D01*
X17114Y5281D01*
X17107Y5284D01*
X17100Y5286D01*
X17092Y5288D01*
X17084Y5289D01*
X17074Y5290D01*
X17053Y5291D01*
Y5391D01*
X17064Y5391D01*
X17084Y5393D01*
X17092Y5394D01*
X17100Y5396D01*
X17107Y5398D01*
X17114Y5401D01*
X17119Y5404D01*
X17124Y5407D01*
X17129Y5411D01*
Y5271D01*
D02*
G37*
G36*
X1726Y5407D02*
X1731Y5404D01*
X1736Y5401D01*
X1743Y5398D01*
X1750Y5396D01*
X1758Y5394D01*
X1766Y5393D01*
X1776Y5392D01*
X1797Y5391D01*
Y5291D01*
X1786Y5291D01*
X1766Y5289D01*
X1758Y5288D01*
X1750Y5286D01*
X1743Y5284D01*
X1736Y5281D01*
X1731Y5278D01*
X1726Y5275D01*
X1721Y5271D01*
Y5411D01*
X1726Y5407D01*
D02*
G37*
G36*
X14895Y5331D02*
X14882Y5327D01*
X14871Y5319D01*
X14861Y5309D01*
X14853Y5295D01*
X14846Y5279D01*
X14841Y5259D01*
X14837Y5237D01*
X14835Y5211D01*
X14834Y5183D01*
X14684D01*
X14683Y5211D01*
X14681Y5237D01*
X14677Y5259D01*
X14672Y5279D01*
X14665Y5295D01*
X14657Y5309D01*
X14647Y5319D01*
X14636Y5327D01*
X14623Y5331D01*
X14609Y5333D01*
X14909D01*
X14895Y5331D01*
D02*
G37*
G36*
X14345D02*
X14332Y5327D01*
X14321Y5319D01*
X14311Y5309D01*
X14303Y5295D01*
X14296Y5279D01*
X14291Y5259D01*
X14287Y5237D01*
X14285Y5211D01*
X14284Y5183D01*
X14134D01*
X14133Y5211D01*
X14131Y5237D01*
X14127Y5259D01*
X14122Y5279D01*
X14115Y5295D01*
X14107Y5309D01*
X14097Y5319D01*
X14086Y5327D01*
X14073Y5331D01*
X14059Y5333D01*
X14359D01*
X14345Y5331D01*
D02*
G37*
G36*
X10618D02*
X10606Y5327D01*
X10594Y5319D01*
X10585Y5309D01*
X10576Y5295D01*
X10570Y5279D01*
X10564Y5259D01*
X10561Y5237D01*
X10558Y5211D01*
X10558Y5183D01*
X10408D01*
X10407Y5211D01*
X10405Y5237D01*
X10401Y5259D01*
X10396Y5279D01*
X10389Y5295D01*
X10381Y5309D01*
X10371Y5319D01*
X10360Y5327D01*
X10347Y5331D01*
X10333Y5333D01*
X10633D01*
X10618Y5331D01*
D02*
G37*
G36*
X10067D02*
X10054Y5327D01*
X10043Y5319D01*
X10033Y5309D01*
X10025Y5295D01*
X10018Y5279D01*
X10013Y5259D01*
X10009Y5237D01*
X10007Y5211D01*
X10006Y5183D01*
X9856D01*
X9856Y5211D01*
X9853Y5237D01*
X9850Y5259D01*
X9844Y5279D01*
X9838Y5295D01*
X9829Y5309D01*
X9820Y5319D01*
X9808Y5327D01*
X9796Y5331D01*
X9781Y5333D01*
X10081D01*
X10067Y5331D01*
D02*
G37*
G36*
X6382D02*
X6369Y5327D01*
X6358Y5319D01*
X6348Y5309D01*
X6340Y5295D01*
X6333Y5279D01*
X6328Y5259D01*
X6324Y5237D01*
X6322Y5211D01*
X6321Y5183D01*
X6171D01*
X6170Y5211D01*
X6168Y5237D01*
X6164Y5259D01*
X6159Y5279D01*
X6152Y5295D01*
X6144Y5309D01*
X6134Y5319D01*
X6123Y5327D01*
X6110Y5331D01*
X6096Y5333D01*
X6396D01*
X6382Y5331D01*
D02*
G37*
G36*
X17129Y4956D02*
X17124Y4960D01*
X17119Y4963D01*
X17114Y4966D01*
X17107Y4969D01*
X17100Y4971D01*
X17092Y4973D01*
X17084Y4974D01*
X17074Y4975D01*
X17053Y4976D01*
Y5076D01*
X17064Y5076D01*
X17084Y5078D01*
X17092Y5079D01*
X17100Y5081D01*
X17107Y5083D01*
X17114Y5086D01*
X17119Y5089D01*
X17124Y5092D01*
X17129Y5096D01*
Y4956D01*
D02*
G37*
G36*
X5831Y5331D02*
X5818Y5327D01*
X5807Y5319D01*
X5797Y5309D01*
X5789Y5295D01*
X5782Y5279D01*
X5777Y5259D01*
X5776Y5257D01*
X5779Y5240D01*
X5787Y5213D01*
X5796Y5187D01*
X5808Y5162D01*
X5822Y5137D01*
X5838Y5114D01*
X5856Y5091D01*
X5876Y5070D01*
X5801Y4933D01*
X5780Y4952D01*
X5758Y4967D01*
X5737Y4977D01*
X5716Y4984D01*
X5695Y4986D01*
X5674Y4984D01*
X5652Y4977D01*
X5631Y4967D01*
X5610Y4952D01*
X5589Y4933D01*
X5514Y5070D01*
X5534Y5091D01*
X5552Y5114D01*
X5568Y5137D01*
X5582Y5162D01*
X5593Y5187D01*
X5603Y5213D01*
X5610Y5240D01*
X5613Y5257D01*
X5613Y5259D01*
X5608Y5279D01*
X5601Y5295D01*
X5593Y5309D01*
X5583Y5319D01*
X5572Y5327D01*
X5559Y5331D01*
X5545Y5333D01*
X5845D01*
X5831Y5331D01*
D02*
G37*
G36*
X15001Y5007D02*
X15023Y4989D01*
X15047Y4973D01*
X15071Y4959D01*
X15096Y4947D01*
X15122Y4938D01*
X15149Y4930D01*
X15177Y4925D01*
X15206Y4922D01*
X15235Y4921D01*
X15279Y4771D01*
X15251Y4770D01*
X15203Y4768D01*
X15183Y4765D01*
X15167Y4762D01*
X15153Y4759D01*
X15143Y4755D01*
X15135Y4750D01*
X15131Y4744D01*
X15129Y4738D01*
X14979D01*
X14978Y4754D01*
X14975Y4770D01*
X14970Y4787D01*
X14962Y4804D01*
X14953Y4822D01*
X14941Y4841D01*
X14927Y4860D01*
X14893Y4900D01*
X14873Y4921D01*
X14979Y5027D01*
X15001Y5007D01*
D02*
G37*
G36*
X6493D02*
X6515Y4989D01*
X6539Y4973D01*
X6563Y4959D01*
X6588Y4947D01*
X6614Y4938D01*
X6641Y4930D01*
X6669Y4925D01*
X6698Y4922D01*
X6727Y4921D01*
X6771Y4771D01*
X6743Y4770D01*
X6717Y4768D01*
X6695Y4765D01*
X6675Y4760D01*
X6659Y4754D01*
X6645Y4747D01*
X6635Y4738D01*
X6627Y4728D01*
X6623Y4716D01*
X6621Y4704D01*
X6471D01*
X6470Y4726D01*
X6467Y4748D01*
X6462Y4770D01*
X6454Y4792D01*
X6445Y4813D01*
X6433Y4835D01*
X6419Y4857D01*
X6403Y4878D01*
X6385Y4899D01*
X6365Y4921D01*
X6471Y5027D01*
X6493Y5007D01*
D02*
G37*
G36*
X12541Y4821D02*
X12542Y4815D01*
X12544Y4809D01*
X12547Y4802D01*
X12551Y4796D01*
X12555Y4789D01*
X12560Y4782D01*
X12566Y4775D01*
X12580Y4759D01*
X12509Y4689D01*
X12502Y4696D01*
X12487Y4709D01*
X12480Y4714D01*
X12473Y4718D01*
X12466Y4721D01*
X12460Y4724D01*
X12454Y4726D01*
X12448Y4727D01*
X12442Y4728D01*
X12541Y4827D01*
X12541Y4821D01*
D02*
G37*
G36*
X8265D02*
X8266Y4815D01*
X8268Y4809D01*
X8271Y4802D01*
X8274Y4796D01*
X8278Y4789D01*
X8284Y4782D01*
X8289Y4775D01*
X8304Y4759D01*
X8233Y4689D01*
X8225Y4696D01*
X8210Y4709D01*
X8203Y4714D01*
X8196Y4718D01*
X8190Y4721D01*
X8183Y4724D01*
X8177Y4726D01*
X8171Y4727D01*
X8166Y4728D01*
X8265Y4827D01*
X8265Y4821D01*
D02*
G37*
G36*
X4040Y4802D02*
X4041Y4796D01*
X4043Y4790D01*
X4046Y4784D01*
X4050Y4777D01*
X4054Y4771D01*
X4059Y4764D01*
X4072Y4749D01*
X4080Y4741D01*
X4013Y4667D01*
X4005Y4674D01*
X3990Y4687D01*
X3983Y4692D01*
X3976Y4696D01*
X3969Y4699D01*
X3963Y4702D01*
X3957Y4703D01*
X3951Y4704D01*
X3945Y4704D01*
X4039Y4808D01*
X4040Y4802D01*
D02*
G37*
G36*
X13085Y4525D02*
X13080Y4528D01*
X13073Y4531D01*
X13065Y4533D01*
X13055Y4535D01*
X13031Y4538D01*
X13000Y4539D01*
X12963Y4540D01*
Y4640D01*
X12982Y4640D01*
X13055Y4645D01*
X13065Y4647D01*
X13073Y4649D01*
X13080Y4651D01*
X13085Y4654D01*
Y4525D01*
D02*
G37*
G36*
X8808D02*
X8803Y4528D01*
X8796Y4531D01*
X8788Y4533D01*
X8778Y4535D01*
X8754Y4538D01*
X8724Y4539D01*
X8687Y4540D01*
Y4640D01*
X8706Y4640D01*
X8778Y4645D01*
X8788Y4647D01*
X8796Y4649D01*
X8803Y4651D01*
X8808Y4654D01*
Y4525D01*
D02*
G37*
G36*
X4572D02*
X4566Y4528D01*
X4560Y4531D01*
X4552Y4533D01*
X4542Y4535D01*
X4518Y4538D01*
X4487Y4539D01*
X4450Y4540D01*
Y4640D01*
X4469Y4640D01*
X4542Y4645D01*
X4552Y4647D01*
X4560Y4649D01*
X4566Y4651D01*
X4572Y4654D01*
Y4525D01*
D02*
G37*
G36*
X13085Y4270D02*
X13080Y4272D01*
X13073Y4275D01*
X13065Y4277D01*
X13055Y4279D01*
X13031Y4282D01*
X13000Y4283D01*
X12963Y4284D01*
Y4384D01*
X12982Y4384D01*
X13055Y4389D01*
X13065Y4391D01*
X13073Y4393D01*
X13080Y4396D01*
X13085Y4398D01*
Y4270D01*
D02*
G37*
G36*
X11026Y4400D02*
X11031Y4397D01*
X11036Y4394D01*
X11043Y4391D01*
X11050Y4389D01*
X11057Y4387D01*
X11083Y4389D01*
X11093Y4391D01*
X11101Y4393D01*
X11108Y4396D01*
X11113Y4398D01*
Y4270D01*
X11108Y4272D01*
X11101Y4275D01*
X11093Y4277D01*
X11083Y4279D01*
X11062Y4281D01*
X11058Y4281D01*
X11050Y4279D01*
X11043Y4277D01*
X11036Y4274D01*
X11031Y4271D01*
X11026Y4268D01*
X11021Y4264D01*
Y4283D01*
X10992Y4284D01*
Y4384D01*
X11011Y4384D01*
X11021Y4385D01*
Y4404D01*
X11026Y4400D01*
D02*
G37*
G36*
X8808Y4270D02*
X8803Y4272D01*
X8796Y4275D01*
X8788Y4277D01*
X8778Y4279D01*
X8754Y4282D01*
X8724Y4283D01*
X8687Y4284D01*
Y4384D01*
X8706Y4384D01*
X8778Y4389D01*
X8788Y4391D01*
X8796Y4393D01*
X8803Y4396D01*
X8808Y4398D01*
Y4270D01*
D02*
G37*
G36*
X4572D02*
X4566Y4272D01*
X4560Y4275D01*
X4552Y4277D01*
X4542Y4279D01*
X4518Y4282D01*
X4487Y4283D01*
X4450Y4284D01*
Y4384D01*
X4469Y4384D01*
X4542Y4389D01*
X4552Y4391D01*
X4560Y4393D01*
X4566Y4396D01*
X4572Y4398D01*
Y4270D01*
D02*
G37*
G36*
X4080Y4160D02*
X4073Y4152D01*
X4060Y4137D01*
X4055Y4130D01*
X4050Y4123D01*
X4047Y4117D01*
X4044Y4111D01*
X4041Y4105D01*
X4040Y4099D01*
X4039Y4093D01*
X3948Y4200D01*
X3954Y4200D01*
X3960Y4200D01*
X3966Y4202D01*
X3972Y4204D01*
X3979Y4208D01*
X3986Y4212D01*
X3993Y4217D01*
X4000Y4222D01*
X4016Y4236D01*
X4080Y4160D01*
D02*
G37*
G36*
X8307Y4152D02*
X8299Y4144D01*
X8281Y4122D01*
X8276Y4116D01*
X8272Y4109D01*
X8269Y4103D01*
X8266Y4098D01*
X8265Y4092D01*
X8264Y4087D01*
X8179Y4199D01*
X8185Y4198D01*
X8191Y4199D01*
X8198Y4200D01*
X8204Y4202D01*
X8211Y4205D01*
X8218Y4209D01*
X8225Y4214D01*
X8232Y4220D01*
X8240Y4226D01*
X8247Y4234D01*
X8307Y4152D01*
D02*
G37*
G36*
X12580Y4149D02*
X12573Y4141D01*
X12560Y4126D01*
X12555Y4119D01*
X12551Y4112D01*
X12547Y4106D01*
X12544Y4099D01*
X12542Y4093D01*
X12541Y4087D01*
X12541Y4081D01*
X12442Y4180D01*
X12448Y4181D01*
X12454Y4182D01*
X12460Y4184D01*
X12466Y4186D01*
X12473Y4190D01*
X12480Y4194D01*
X12487Y4199D01*
X12494Y4205D01*
X12509Y4219D01*
X12580Y4149D01*
D02*
G37*
G36*
X15881Y4140D02*
X15888Y4137D01*
X15896Y4135D01*
X15906Y4133D01*
X15930Y4130D01*
X15961Y4128D01*
X15998Y4128D01*
Y4028D01*
X15978Y4028D01*
X15906Y4023D01*
X15896Y4021D01*
X15888Y4019D01*
X15881Y4016D01*
X15876Y4014D01*
Y4142D01*
X15881Y4140D01*
D02*
G37*
G36*
X11605D02*
X11611Y4137D01*
X11620Y4135D01*
X11629Y4133D01*
X11654Y4130D01*
X11684Y4128D01*
X11721Y4128D01*
Y4028D01*
X11702Y4028D01*
X11629Y4023D01*
X11620Y4021D01*
X11611Y4019D01*
X11605Y4016D01*
X11600Y4014D01*
Y4142D01*
X11605Y4140D01*
D02*
G37*
G36*
X7368D02*
X7375Y4137D01*
X7383Y4135D01*
X7393Y4133D01*
X7417Y4130D01*
X7448Y4128D01*
X7485Y4128D01*
Y4028D01*
X7465Y4028D01*
X7393Y4023D01*
X7383Y4021D01*
X7375Y4019D01*
X7368Y4016D01*
X7363Y4014D01*
Y4142D01*
X7368Y4140D01*
D02*
G37*
G36*
X16000Y750D02*
X15352Y102D01*
X12400D01*
Y1800D01*
X13000Y2400D01*
Y2700D01*
X16000D01*
Y750D01*
D02*
G37*
G36*
X11728Y2072D02*
X11950Y1850D01*
Y102D01*
X8500D01*
Y1850D01*
X8738Y2088D01*
Y2700D01*
X11728D01*
Y2072D01*
D02*
G37*
G36*
X7533Y2367D02*
X8050Y1850D01*
Y102D01*
X5248D01*
X4500Y850D01*
Y2700D01*
X7514D01*
X7533Y2367D01*
D02*
G37*
%LPC*%
G36*
X19685Y19474D02*
X19536Y19455D01*
X19397Y19397D01*
X19277Y19305D01*
X19186Y19186D01*
X19128Y19047D01*
X19108Y18898D01*
X19128Y18748D01*
X19186Y18609D01*
X19277Y18490D01*
X19397Y18398D01*
X19536Y18341D01*
X19685Y18321D01*
X19834Y18341D01*
X19973Y18398D01*
X20093Y18490D01*
X20185Y18609D01*
X20242Y18748D01*
X20262Y18898D01*
X20242Y19047D01*
X20185Y19186D01*
X20093Y19305D01*
X19973Y19397D01*
X19834Y19455D01*
X19685Y19474D01*
D02*
G37*
G36*
X787D02*
X638Y19455D01*
X499Y19397D01*
X380Y19305D01*
X288Y19186D01*
X230Y19047D01*
X211Y18898D01*
X230Y18748D01*
X288Y18609D01*
X380Y18490D01*
X499Y18398D01*
X638Y18341D01*
X787Y18321D01*
X937Y18341D01*
X1076Y18398D01*
X1195Y18490D01*
X1287Y18609D01*
X1345Y18748D01*
X1364Y18898D01*
X1345Y19047D01*
X1287Y19186D01*
X1195Y19305D01*
X1076Y19397D01*
X937Y19455D01*
X787Y19474D01*
D02*
G37*
G36*
X3200Y14063D02*
X3138Y14051D01*
X3085Y14015D01*
X3075Y14001D01*
X3025D01*
X3015Y14015D01*
X2962Y14051D01*
X2900Y14063D01*
X2838Y14051D01*
X2785Y14015D01*
X2749Y13962D01*
X2737Y13900D01*
X2749Y13838D01*
X2785Y13785D01*
X2835Y13751D01*
X2838Y13730D01*
Y13720D01*
X2835Y13699D01*
X2785Y13665D01*
X2749Y13612D01*
X2737Y13550D01*
X2749Y13488D01*
X2785Y13435D01*
X2838Y13399D01*
X2900Y13387D01*
X2962Y13399D01*
X3015Y13435D01*
X3025Y13449D01*
X3075D01*
X3085Y13435D01*
X3138Y13399D01*
X3200Y13387D01*
X3262Y13399D01*
X3315Y13435D01*
X3351Y13488D01*
X3363Y13550D01*
X3351Y13612D01*
X3315Y13665D01*
X3265Y13699D01*
X3262Y13720D01*
Y13730D01*
X3265Y13751D01*
X3315Y13785D01*
X3351Y13838D01*
X3363Y13900D01*
X3351Y13962D01*
X3315Y14015D01*
X3262Y14051D01*
X3200Y14063D01*
D02*
G37*
G36*
X7650Y14313D02*
X7588Y14301D01*
X7535Y14265D01*
X7499Y14212D01*
X7487Y14150D01*
X7499Y14088D01*
X7535Y14035D01*
X7549Y14025D01*
Y13975D01*
X7535Y13965D01*
X7499Y13912D01*
X7487Y13850D01*
X7499Y13788D01*
X7535Y13735D01*
X7549Y13725D01*
Y13675D01*
X7535Y13665D01*
X7499Y13612D01*
X7487Y13550D01*
X7499Y13488D01*
X7535Y13435D01*
X7588Y13399D01*
X7650Y13387D01*
X7712Y13399D01*
X7765Y13435D01*
X7801Y13488D01*
X7813Y13550D01*
X7801Y13612D01*
X7765Y13665D01*
X7751Y13675D01*
Y13725D01*
X7765Y13735D01*
X7801Y13788D01*
X7813Y13850D01*
X7801Y13912D01*
X7765Y13965D01*
X7751Y13975D01*
Y14025D01*
X7765Y14035D01*
X7801Y14088D01*
X7813Y14150D01*
X7801Y14212D01*
X7765Y14265D01*
X7712Y14301D01*
X7650Y14313D01*
D02*
G37*
G36*
X7250Y14013D02*
X7188Y14001D01*
X7135Y13965D01*
X7099Y13912D01*
X7087Y13850D01*
X7099Y13788D01*
X7135Y13735D01*
X7149Y13725D01*
Y13675D01*
X7135Y13665D01*
X7099Y13612D01*
X7087Y13550D01*
X7099Y13488D01*
X7135Y13435D01*
X7188Y13399D01*
X7250Y13387D01*
X7312Y13399D01*
X7365Y13435D01*
X7401Y13488D01*
X7413Y13550D01*
X7401Y13612D01*
X7365Y13665D01*
X7351Y13675D01*
Y13725D01*
X7365Y13735D01*
X7401Y13788D01*
X7413Y13850D01*
X7401Y13912D01*
X7365Y13965D01*
X7312Y14001D01*
X7250Y14013D01*
D02*
G37*
%LPD*%
D14*
X3943Y4807D02*
X4160Y4590D01*
X4815D01*
X3977Y4127D02*
X4184Y4334D01*
X4815D01*
X7350Y6300D02*
X7836Y6786D01*
X2850Y6300D02*
X7350D01*
X2206Y5656D02*
X2850Y6300D01*
X2241Y5341D02*
X3000Y6100D01*
X12150D01*
X12628Y6578D01*
Y10422D01*
X7836Y6786D02*
Y10422D01*
X18000Y8694D02*
X18356D01*
X18362Y8700D01*
Y7865D02*
Y8700D01*
X18347Y7850D02*
X18362Y7865D01*
X18347Y7850D02*
X18350Y7847D01*
Y7500D02*
Y7847D01*
X10950Y4334D02*
X11356D01*
X8184Y4100D02*
X8418Y4334D01*
X8165Y4100D02*
X8184D01*
X8418Y4334D02*
X9052D01*
X12679Y4590D02*
X13328D01*
X12441Y4828D02*
X12679Y4590D01*
X16750Y5150D02*
X16941Y5341D01*
X17200D01*
X16750Y4450D02*
Y5150D01*
X16950Y4300D02*
Y4967D01*
X16300Y3650D02*
X16950Y4300D01*
X7950Y3650D02*
X16300D01*
X17009Y5026D02*
X17200D01*
X16950Y4967D02*
X17009Y5026D01*
X7522Y4078D02*
X7950Y3650D01*
X7120Y4078D02*
X7522D01*
X12022D02*
X12230Y3870D01*
X11356Y4078D02*
X12022D01*
X12230Y3870D02*
X16170D01*
X16750Y4450D01*
X16028Y4078D02*
X16550Y4600D01*
Y5350D02*
X16856Y5656D01*
X16550Y4600D02*
Y5350D01*
X12441Y4080D02*
X12695Y4334D01*
X16856Y5656D02*
X17200D01*
X15633Y4078D02*
X16028D01*
X12695Y4334D02*
X13328D01*
X8165Y4828D02*
X8402Y4590D01*
X9052D01*
X12639Y11653D02*
X13010Y12024D01*
X13380D01*
X12628Y11015D02*
Y11653D01*
X7836Y11015D02*
Y11653D01*
X8218Y12024D02*
X8570D01*
X7847Y11653D02*
X8218Y12024D01*
X3382D02*
X3780D01*
X3011Y11653D02*
X3382Y12024D01*
X2994Y11015D02*
Y11647D01*
X1650Y5341D02*
X2241D01*
X1650Y5656D02*
X2206D01*
X1650Y5971D02*
X2121D01*
X3000Y6850D02*
Y10416D01*
X2121Y5971D02*
X3000Y6850D01*
X20079Y0D02*
G03*
X20472Y394I0J394D01*
G01*
Y19291D02*
G03*
X20079Y19685I-394J0D01*
G01*
X394D02*
G03*
X0Y19291I0J-394D01*
G01*
Y394D02*
G03*
X394Y0I394J0D01*
G01*
Y19685D02*
X20079D01*
X394Y0D02*
X20079D01*
X0Y394D02*
Y19291D01*
X20472Y394D02*
Y19291D01*
D32*
X17100Y6286D02*
D03*
D37*
X18940Y7850D02*
D03*
X18347D02*
D03*
D38*
X8570Y12024D02*
D03*
X11896D02*
D03*
X7107D02*
D03*
X3780D02*
D03*
X16707D02*
D03*
X13380D02*
D03*
D39*
X9052D02*
D03*
X9524D02*
D03*
X9997D02*
D03*
X10469D02*
D03*
X10942D02*
D03*
X11414D02*
D03*
X6625D02*
D03*
X6152D02*
D03*
X5680D02*
D03*
X5207D02*
D03*
X4735D02*
D03*
X4263D02*
D03*
X16225D02*
D03*
X15752D02*
D03*
X15280D02*
D03*
X14808D02*
D03*
X14335D02*
D03*
X13863D02*
D03*
D40*
X10485Y11748D02*
D03*
X5696D02*
D03*
X15296D02*
D03*
D41*
X10233Y9150D02*
D03*
X5444D02*
D03*
X15044D02*
D03*
D42*
X7171Y17450D02*
D03*
X5917D02*
D03*
X9595Y17150D02*
D03*
X10849D02*
D03*
Y14829D02*
D03*
X9595D02*
D03*
Y16250D02*
D03*
X10849D02*
D03*
X5917Y18350D02*
D03*
X7171D02*
D03*
X16671Y15625D02*
D03*
X15417D02*
D03*
X16671Y17450D02*
D03*
X15417D02*
D03*
X16671Y13850D02*
D03*
X15417D02*
D03*
X13317Y15650D02*
D03*
X14571D02*
D03*
X16671Y14750D02*
D03*
X15417D02*
D03*
X13317D02*
D03*
X14571D02*
D03*
X16671Y16550D02*
D03*
X15417D02*
D03*
X13317D02*
D03*
X14571D02*
D03*
X13317Y17450D02*
D03*
X14571D02*
D03*
X13317Y13850D02*
D03*
X14571D02*
D03*
X5917Y16550D02*
D03*
X7171D02*
D03*
X9595Y13950D02*
D03*
X10849D02*
D03*
D43*
X12628Y11653D02*
D03*
Y12247D02*
D03*
X7836Y11653D02*
D03*
Y12247D02*
D03*
X3000Y11653D02*
D03*
Y12247D02*
D03*
X2994Y11015D02*
D03*
Y10422D02*
D03*
X19594Y7853D02*
D03*
Y8447D02*
D03*
X12628Y10422D02*
D03*
Y11015D02*
D03*
X7836Y10422D02*
D03*
Y11015D02*
D03*
D45*
X5386Y4300D02*
X5400D01*
X5170Y4083D02*
X5386Y4300D01*
X5695Y5145D02*
X6190Y4650D01*
X6200D01*
X15197Y4595D02*
X15627D01*
X15054Y4738D02*
X15197Y4595D01*
X15054Y4738D02*
Y4846D01*
X15627Y4595D02*
X15633Y4590D01*
X15150Y4334D02*
X15633D01*
X6660Y4590D02*
X7120D01*
X6546Y4704D02*
X6660Y4590D01*
X6546Y4704D02*
Y4846D01*
X10850Y4700D02*
X10960Y4590D01*
X11356D01*
X10850Y4800D02*
X10896Y4846D01*
X11356D01*
X10804D02*
X10896D01*
X10850Y4700D02*
Y4800D01*
X6700Y4334D02*
X7120D01*
X4815Y4078D02*
X4820Y4083D01*
X5170D01*
X9419D02*
X9586Y4251D01*
X9057Y4083D02*
X9419D01*
X9586Y4251D02*
X9600D01*
X13333Y4083D02*
X13733D01*
X14000Y4350D01*
X13328Y4078D02*
X13333Y4083D01*
X9052Y4078D02*
X9057Y4083D01*
X14209Y5162D02*
X14700Y4671D01*
X15054Y4846D02*
X15633D01*
X14759Y5141D02*
Y5508D01*
Y5141D02*
X15054Y4846D01*
X14209Y5159D02*
Y5507D01*
X13896Y4846D02*
X14209Y5159D01*
X13328Y4846D02*
X13896D01*
X9931Y5190D02*
X10450Y4671D01*
X12156Y5506D02*
X12500Y5850D01*
X10483Y5508D02*
Y5528D01*
Y5167D02*
Y5508D01*
X12154D01*
X12156Y5506D01*
X7958Y5508D02*
X8300Y5850D01*
X6246Y5508D02*
X7958D01*
X10483Y5167D02*
X10804Y4846D01*
X9931Y5181D02*
Y5508D01*
X9052Y4846D02*
X9596D01*
X9931Y5181D01*
X5396Y4846D02*
X5695Y5145D01*
X4815Y4846D02*
X5396D01*
X5695Y5145D02*
Y5508D01*
X14759D02*
X16323D01*
X17100Y6286D01*
X6246Y5146D02*
X6546Y4846D01*
X7120D01*
X6246Y5146D02*
Y5508D01*
X12500Y5850D02*
X14418D01*
X8300D02*
X10161D01*
X14418D02*
X14657Y5611D01*
X10161Y5850D02*
X10483Y5528D01*
X14677Y5611D02*
X14759Y5528D01*
X14657Y5611D02*
X14677D01*
X14759Y5508D02*
Y5528D01*
D46*
X12628Y12247D02*
Y12600D01*
X7836Y12247D02*
Y12600D01*
X3000Y12247D02*
Y12600D01*
X12628Y11653D02*
X12639D01*
X7836D02*
X7847D01*
X3000D02*
X3011D01*
X2994Y11647D02*
X3000Y11653D01*
X2994Y10422D02*
X3000Y10416D01*
D47*
X8850Y19050D02*
D03*
X8426Y18874D02*
D03*
X8250Y18450D02*
D03*
X8426Y18026D02*
D03*
X8850Y17850D02*
D03*
X9274Y18026D02*
D03*
X9450Y18450D02*
D03*
X9274Y18874D02*
D03*
X10224Y1750D02*
D03*
X9800Y1574D02*
D03*
X9624Y1150D02*
D03*
X9800Y726D02*
D03*
X10224Y550D02*
D03*
X10649Y726D02*
D03*
X10824Y1150D02*
D03*
X10649Y1574D02*
D03*
X6600Y1750D02*
D03*
X6176Y1574D02*
D03*
X6000Y1150D02*
D03*
X6176Y726D02*
D03*
X6600Y550D02*
D03*
X7024Y726D02*
D03*
X7200Y1150D02*
D03*
X7024Y1574D02*
D03*
X14274D02*
D03*
X14450Y1150D02*
D03*
X14274Y726D02*
D03*
X13850Y550D02*
D03*
X13426Y726D02*
D03*
X13250Y1150D02*
D03*
X13426Y1574D02*
D03*
X13850Y1750D02*
D03*
X12024Y18874D02*
D03*
X12200Y18450D02*
D03*
X12024Y18026D02*
D03*
X11600Y17850D02*
D03*
X11176Y18026D02*
D03*
X11000Y18450D02*
D03*
X11176Y18874D02*
D03*
X11600Y19050D02*
D03*
D48*
X8850Y18450D02*
D03*
X10224Y1150D02*
D03*
X6600D02*
D03*
X13850D02*
D03*
X11600Y18450D02*
D03*
D49*
X19685Y18898D02*
D03*
Y787D02*
D03*
X787Y18898D02*
D03*
Y787D02*
D03*
D50*
X9238Y15450D02*
D03*
X11206D02*
D03*
D51*
X3939Y4804D02*
D03*
X5400Y4300D02*
D03*
X6200Y4650D02*
D03*
X3939Y4100D02*
D03*
X17599Y13843D02*
D03*
Y14143D02*
D03*
Y14443D02*
D03*
Y14743D02*
D03*
Y15043D02*
D03*
Y15343D02*
D03*
Y15643D02*
D03*
Y15943D02*
D03*
Y16243D02*
D03*
Y16543D02*
D03*
Y16843D02*
D03*
Y17143D02*
D03*
Y17443D02*
D03*
Y17743D02*
D03*
Y18093D02*
D03*
X4750Y19050D02*
D03*
Y18700D02*
D03*
Y18350D02*
D03*
Y18000D02*
D03*
Y17650D02*
D03*
Y17300D02*
D03*
Y16950D02*
D03*
Y16600D02*
D03*
Y16250D02*
D03*
X18200Y11600D02*
D03*
X17900D02*
D03*
X17600D02*
D03*
X17300D02*
D03*
Y11300D02*
D03*
X18200D02*
D03*
X17900D02*
D03*
X17600D02*
D03*
X18200Y10650D02*
D03*
Y10400D02*
D03*
Y10150D02*
D03*
Y9900D02*
D03*
Y9650D02*
D03*
Y9400D02*
D03*
Y9150D02*
D03*
X17900Y10650D02*
D03*
Y10400D02*
D03*
Y10150D02*
D03*
Y9900D02*
D03*
Y9650D02*
D03*
Y9400D02*
D03*
Y9150D02*
D03*
X17600D02*
D03*
Y9400D02*
D03*
Y9650D02*
D03*
Y9900D02*
D03*
Y10150D02*
D03*
Y10400D02*
D03*
Y10650D02*
D03*
X2250Y10167D02*
D03*
Y9867D02*
D03*
Y9567D02*
D03*
Y9267D02*
D03*
Y8967D02*
D03*
X1950D02*
D03*
Y9267D02*
D03*
Y9567D02*
D03*
Y9867D02*
D03*
Y10167D02*
D03*
X2250Y10467D02*
D03*
X1950D02*
D03*
X1650D02*
D03*
Y10167D02*
D03*
Y9867D02*
D03*
Y9567D02*
D03*
Y9267D02*
D03*
Y8967D02*
D03*
X1650Y10750D02*
D03*
Y11050D02*
D03*
Y11350D02*
D03*
Y11650D02*
D03*
Y11950D02*
D03*
Y12250D02*
D03*
X1950D02*
D03*
X2250D02*
D03*
X1950Y11950D02*
D03*
Y11650D02*
D03*
Y11350D02*
D03*
Y11050D02*
D03*
Y10750D02*
D03*
X2250D02*
D03*
Y11050D02*
D03*
Y11350D02*
D03*
Y11650D02*
D03*
Y11950D02*
D03*
X2900Y13900D02*
D03*
Y13550D02*
D03*
Y15200D02*
D03*
Y14800D02*
D03*
X19800Y6650D02*
D03*
X19450D02*
D03*
X20000Y6300D02*
D03*
Y6050D02*
D03*
X19450Y7350D02*
D03*
X19750D02*
D03*
X20050D02*
D03*
Y7600D02*
D03*
Y7850D02*
D03*
X15000Y13350D02*
D03*
X3550Y15900D02*
D03*
X3950D02*
D03*
X4350D02*
D03*
X4750D02*
D03*
X3200Y15600D02*
D03*
Y15200D02*
D03*
Y14800D02*
D03*
X3550Y15600D02*
D03*
X3950D02*
D03*
X4350D02*
D03*
X4750D02*
D03*
X5150D02*
D03*
X5650D02*
D03*
X6600D02*
D03*
X6150D02*
D03*
X5150Y15900D02*
D03*
X5650D02*
D03*
X6150D02*
D03*
X5150Y16250D02*
D03*
Y16600D02*
D03*
Y16950D02*
D03*
Y17300D02*
D03*
Y17650D02*
D03*
Y18000D02*
D03*
Y18350D02*
D03*
Y18700D02*
D03*
Y19050D02*
D03*
X5500D02*
D03*
X5850D02*
D03*
X6200D02*
D03*
X3200Y13900D02*
D03*
Y13550D02*
D03*
X7650Y14150D02*
D03*
Y13850D02*
D03*
Y13550D02*
D03*
X7250Y13850D02*
D03*
Y13550D02*
D03*
X8600D02*
D03*
X9000D02*
D03*
X15000Y17650D02*
D03*
Y17250D02*
D03*
Y16750D02*
D03*
Y16300D02*
D03*
Y15750D02*
D03*
Y15350D02*
D03*
Y14850D02*
D03*
Y14300D02*
D03*
Y13800D02*
D03*
X16200Y18450D02*
D03*
X17250Y18100D02*
D03*
X16950D02*
D03*
X16650D02*
D03*
X16350D02*
D03*
X15900Y18450D02*
D03*
X15600D02*
D03*
X15300D02*
D03*
X15000D02*
D03*
X14700D02*
D03*
X14400D02*
D03*
X14100D02*
D03*
X13800D02*
D03*
X13500D02*
D03*
X13200D02*
D03*
X13700Y18100D02*
D03*
X13350D02*
D03*
X13050D02*
D03*
X17250Y17750D02*
D03*
Y17450D02*
D03*
Y17150D02*
D03*
Y16850D02*
D03*
Y16550D02*
D03*
Y16250D02*
D03*
Y15950D02*
D03*
Y15650D02*
D03*
Y15350D02*
D03*
Y15050D02*
D03*
Y14750D02*
D03*
Y14450D02*
D03*
Y14150D02*
D03*
Y13850D02*
D03*
X12700D02*
D03*
X12300D02*
D03*
X11900D02*
D03*
X11500D02*
D03*
X12700Y14150D02*
D03*
X12300D02*
D03*
X11900D02*
D03*
X11500D02*
D03*
X12700Y14450D02*
D03*
X12300D02*
D03*
X11900D02*
D03*
X11500D02*
D03*
X12700Y14750D02*
D03*
X12300D02*
D03*
X11500D02*
D03*
X11900D02*
D03*
X8600Y13850D02*
D03*
X9000D02*
D03*
X8600Y14150D02*
D03*
X9000D02*
D03*
X8600Y14450D02*
D03*
X9000D02*
D03*
X8600Y14750D02*
D03*
X9000D02*
D03*
X8400Y15050D02*
D03*
X8788D02*
D03*
X8200Y16100D02*
D03*
X8600Y15300D02*
D03*
X11700Y15000D02*
D03*
X12100D02*
D03*
X12500D02*
D03*
X11900Y15300D02*
D03*
X12700D02*
D03*
X12300D02*
D03*
X12700Y15600D02*
D03*
X12300D02*
D03*
X11900D02*
D03*
X12500Y15850D02*
D03*
X12100D02*
D03*
X11700D02*
D03*
X12700Y16100D02*
D03*
Y16400D02*
D03*
Y16700D02*
D03*
Y17000D02*
D03*
X12300D02*
D03*
Y16700D02*
D03*
Y16400D02*
D03*
Y16100D02*
D03*
X11900Y17000D02*
D03*
Y16700D02*
D03*
Y16400D02*
D03*
Y16100D02*
D03*
X11500D02*
D03*
Y16400D02*
D03*
Y16700D02*
D03*
Y17000D02*
D03*
X7800Y17350D02*
D03*
X8200Y15600D02*
D03*
X8000Y15850D02*
D03*
X7800Y17000D02*
D03*
Y16700D02*
D03*
Y16400D02*
D03*
Y16100D02*
D03*
X8600Y15600D02*
D03*
X8400Y15850D02*
D03*
X8200Y16400D02*
D03*
Y16700D02*
D03*
Y17000D02*
D03*
X8600D02*
D03*
Y16700D02*
D03*
Y16400D02*
D03*
Y16100D02*
D03*
X8800Y15850D02*
D03*
X9000Y16100D02*
D03*
Y16400D02*
D03*
Y16700D02*
D03*
Y17000D02*
D03*
X19700Y4350D02*
D03*
X19400D02*
D03*
X19100D02*
D03*
X17650Y4250D02*
D03*
X17350D02*
D03*
Y4550D02*
D03*
X20000Y5100D02*
D03*
Y5350D02*
D03*
Y5600D02*
D03*
X18750Y5100D02*
D03*
Y5350D02*
D03*
Y5600D02*
D03*
X19050Y7500D02*
D03*
X18800D02*
D03*
X19050Y8250D02*
D03*
X18800D02*
D03*
X14600Y2350D02*
D03*
X15650D02*
D03*
X15400D02*
D03*
X15100D02*
D03*
X14850D02*
D03*
X15050Y350D02*
D03*
X15400D02*
D03*
X15550Y550D02*
D03*
X15250D02*
D03*
X15700Y750D02*
D03*
X15400D02*
D03*
X15250Y950D02*
D03*
X15800D02*
D03*
X15550D02*
D03*
X15400Y1150D02*
D03*
X15650D02*
D03*
X15800Y1350D02*
D03*
X15550D02*
D03*
X15400Y1550D02*
D03*
X15650D02*
D03*
X15800Y1750D02*
D03*
X15250D02*
D03*
X15550D02*
D03*
X15650Y1950D02*
D03*
X15400D02*
D03*
X15100D02*
D03*
X15800Y2150D02*
D03*
X15550D02*
D03*
X15250D02*
D03*
X15000D02*
D03*
X14750D02*
D03*
X13200Y2350D02*
D03*
X13000Y2150D02*
D03*
X11050Y2350D02*
D03*
X11350D02*
D03*
X9400D02*
D03*
X9100D02*
D03*
X6050Y2400D02*
D03*
X5750D02*
D03*
X7250Y2350D02*
D03*
X5450Y2400D02*
D03*
X5150D02*
D03*
X4850D02*
D03*
X4700Y2200D02*
D03*
X7450D02*
D03*
X5600D02*
D03*
X5300D02*
D03*
X5000D02*
D03*
X12800Y2000D02*
D03*
X12650Y1800D02*
D03*
X12558Y860D02*
D03*
Y1090D02*
D03*
Y1550D02*
D03*
Y1320D02*
D03*
Y630D02*
D03*
Y400D02*
D03*
X11300Y350D02*
D03*
X11600D02*
D03*
X11450Y600D02*
D03*
X11750D02*
D03*
X11600Y800D02*
D03*
X11800Y950D02*
D03*
X11600Y1150D02*
D03*
X11800Y1350D02*
D03*
X11600Y1550D02*
D03*
X11800Y1750D02*
D03*
X11450D02*
D03*
X11650Y1950D02*
D03*
X11350D02*
D03*
X11500Y2150D02*
D03*
X11200D02*
D03*
X9100Y350D02*
D03*
X8800D02*
D03*
X8950Y550D02*
D03*
X8650D02*
D03*
X8800Y750D02*
D03*
X8650Y950D02*
D03*
X8800Y1150D02*
D03*
X8650Y1350D02*
D03*
X8800Y1550D02*
D03*
X8650Y1750D02*
D03*
X8950D02*
D03*
X8800Y1950D02*
D03*
X9100D02*
D03*
X8950Y2150D02*
D03*
X9250D02*
D03*
X7900Y400D02*
D03*
Y630D02*
D03*
Y1320D02*
D03*
Y1550D02*
D03*
Y1090D02*
D03*
Y860D02*
D03*
X7800Y1800D02*
D03*
X7650Y2000D02*
D03*
X5450Y400D02*
D03*
X5300Y600D02*
D03*
X5150Y400D02*
D03*
X5000Y600D02*
D03*
X4850Y800D02*
D03*
X5150D02*
D03*
X4700Y1000D02*
D03*
X5000D02*
D03*
X4850Y1200D02*
D03*
X5150D02*
D03*
X4700Y1400D02*
D03*
X5000D02*
D03*
X5150Y1600D02*
D03*
X4850D02*
D03*
X5300Y1800D02*
D03*
X5000D02*
D03*
X4700D02*
D03*
X4850Y2000D02*
D03*
X5150D02*
D03*
X5450D02*
D03*
X15150Y4334D02*
D03*
X18000Y8694D02*
D03*
X18350Y7500D02*
D03*
X6700Y4334D02*
D03*
X10950D02*
D03*
X9600Y4251D02*
D03*
X8165Y4100D02*
D03*
X11919Y4724D02*
D03*
X3300Y4600D02*
D03*
X3656Y4594D02*
D03*
X2750Y4350D02*
D03*
X7674Y4724D02*
D03*
X16500Y7100D02*
D03*
X11600Y6900D02*
D03*
X16400D02*
D03*
X16150D02*
D03*
X15900D02*
D03*
X15650D02*
D03*
X15400D02*
D03*
X15150D02*
D03*
X14900D02*
D03*
X14650D02*
D03*
X14400D02*
D03*
X16250Y7100D02*
D03*
X16000D02*
D03*
X15750D02*
D03*
X15500D02*
D03*
X15250D02*
D03*
X15000D02*
D03*
X14750D02*
D03*
X16400Y7300D02*
D03*
X16150D02*
D03*
X15900D02*
D03*
X15650D02*
D03*
X15400D02*
D03*
X15150D02*
D03*
X14900D02*
D03*
X14500Y7100D02*
D03*
X14400Y7300D02*
D03*
X14650D02*
D03*
X11350Y6900D02*
D03*
X11100D02*
D03*
X10850D02*
D03*
X10600D02*
D03*
X10350D02*
D03*
X10100D02*
D03*
X9850D02*
D03*
X9600D02*
D03*
X11450Y7100D02*
D03*
X11200D02*
D03*
X10950D02*
D03*
X10700D02*
D03*
X10450D02*
D03*
X10200D02*
D03*
X9950D02*
D03*
X9726Y7095D02*
D03*
X9600Y7300D02*
D03*
X11600D02*
D03*
X11350D02*
D03*
X11100D02*
D03*
X10850D02*
D03*
X10600D02*
D03*
X10350D02*
D03*
X10100D02*
D03*
X9850D02*
D03*
X1650Y4711D02*
D03*
Y5026D02*
D03*
X6900Y6900D02*
D03*
X6650D02*
D03*
X6400D02*
D03*
X6150D02*
D03*
X5900D02*
D03*
X5650D02*
D03*
X5400D02*
D03*
X5150D02*
D03*
X4900D02*
D03*
X7050Y7100D02*
D03*
X6800D02*
D03*
X6550D02*
D03*
X6300D02*
D03*
X6050D02*
D03*
X5800D02*
D03*
X5550D02*
D03*
X5300D02*
D03*
X5050D02*
D03*
X7150Y7300D02*
D03*
X6900D02*
D03*
X6650D02*
D03*
X6400D02*
D03*
X6150D02*
D03*
X5900D02*
D03*
X5650D02*
D03*
X5400D02*
D03*
X5150D02*
D03*
X4900D02*
D03*
X14000Y4350D02*
D03*
X10450Y4671D02*
D03*
X14700D02*
D03*
X12441Y4828D02*
D03*
X17200Y5026D02*
D03*
X12441Y4080D02*
D03*
X17200Y5341D02*
D03*
Y5656D02*
D03*
X8165Y4828D02*
D03*
X7836Y12600D02*
D03*
X12628D02*
D03*
X3000D02*
D03*
X1650Y5341D02*
D03*
Y5656D02*
D03*
Y5971D02*
D03*
D52*
X18102Y4357D02*
D03*
Y6640D02*
D03*
X1402D02*
D03*
Y4357D02*
D03*
D53*
X4815Y4078D02*
D03*
Y4334D02*
D03*
Y4590D02*
D03*
Y4846D02*
D03*
X7120Y4078D02*
D03*
Y4334D02*
D03*
Y4590D02*
D03*
Y4846D02*
D03*
X9052Y4078D02*
D03*
Y4334D02*
D03*
Y4590D02*
D03*
Y4846D02*
D03*
X11356Y4078D02*
D03*
Y4334D02*
D03*
Y4590D02*
D03*
Y4846D02*
D03*
X13328Y4078D02*
D03*
Y4334D02*
D03*
Y4590D02*
D03*
Y4846D02*
D03*
X15633Y4078D02*
D03*
Y4334D02*
D03*
Y4590D02*
D03*
Y4846D02*
D03*
D54*
X18913Y8700D02*
D03*
X18362D02*
D03*
X14759Y5508D02*
D03*
X14208D02*
D03*
X10483D02*
D03*
X9931D02*
D03*
X6246D02*
D03*
X5695D02*
D03*
M02*
