G04*
G04 #@! TF.GenerationSoftware,Altium Limited,Altium Designer,22.0.2 (36)*
G04*
G04 Layer_Physical_Order=1*
G04 Layer_Color=255*
%FSLAX24Y24*%
%MOIN*%
G70*
G04*
G04 #@! TF.SameCoordinates,22A08989-F282-469C-B082-2707E795951A*
G04*
G04*
G04 #@! TF.FilePolarity,Positive*
G04*
G01*
G75*
%ADD14C,0.0100*%
%ADD17R,0.0661X0.1681*%
%ADD18R,0.3000X0.1681*%
%ADD19O,0.0787X0.0138*%
%ADD32C,0.0300*%
%ADD36R,0.0542X0.0446*%
%ADD37R,0.0318X0.0340*%
%ADD38R,0.0354X0.0866*%
%ADD39R,0.0315X0.0866*%
%ADD40R,0.3181X0.0315*%
%ADD41R,0.3937X0.3346*%
%ADD42R,0.0585X0.0680*%
%ADD43R,0.0340X0.0318*%
%ADD44R,0.0680X0.0585*%
%ADD45C,0.0150*%
%ADD46C,0.0080*%
%ADD47C,0.0220*%
%ADD48C,0.2362*%
%ADD49C,0.1024*%
%ADD50C,0.0591*%
%ADD51C,0.0200*%
%ADD52C,0.0276*%
G36*
X6500Y16050D02*
X6900Y15650D01*
X7250Y15650D01*
X7400Y15500D01*
Y14706D01*
X7094Y14400D01*
X102Y14400D01*
Y19291D01*
Y19320D01*
X113Y19376D01*
X135Y19430D01*
X167Y19477D01*
X208Y19518D01*
X256Y19550D01*
X309Y19572D01*
X365Y19583D01*
X394Y19583D01*
X394D01*
X394D01*
X6500Y19583D01*
Y16050D01*
D02*
G37*
G36*
X20107Y19583D02*
X20164Y19572D01*
X20217Y19550D01*
X20265Y19518D01*
X20305Y19477D01*
X20337Y19430D01*
X20359Y19376D01*
X20370Y19320D01*
X20370Y19291D01*
Y19291D01*
Y19291D01*
X20370Y13400D01*
X16500D01*
X16200Y13700D01*
Y17894D01*
X15844Y18250D01*
X14200Y18250D01*
X13850Y17900D01*
Y13756D01*
X13494Y13400D01*
X10821D01*
X10350Y13871D01*
Y19583D01*
X20079Y19583D01*
X20107Y19583D01*
D02*
G37*
G36*
X10100Y13825D02*
X10725Y13200D01*
X13594D01*
X13994Y13600D01*
X13994Y17700D01*
X14344Y18050D01*
X15694Y18050D01*
X16044Y17700D01*
X16044Y13650D01*
X16494Y13200D01*
X20370Y13200D01*
X20370Y8650D01*
X18194D01*
X18162Y8689D01*
X18163Y8694D01*
X18151Y8756D01*
X18115Y8809D01*
X18062Y8844D01*
X18000Y8857D01*
X17938Y8844D01*
X17931Y8840D01*
X17881Y8867D01*
Y8977D01*
X17219D01*
Y8650D01*
X2194Y8650D01*
X1744Y8200D01*
Y7406D01*
X2500Y6650D01*
X3100Y6650D01*
Y5800D01*
X2144Y5800D01*
X1744Y6200D01*
X500D01*
X102Y6598D01*
Y14200D01*
X7144D01*
X7544Y14600D01*
Y15550D01*
X7294Y15800D01*
X6994D01*
X6694Y16100D01*
Y19583D01*
X10100D01*
Y13825D01*
D02*
G37*
G36*
X17820Y8784D02*
X17823Y8776D01*
X17828Y8768D01*
X17835Y8762D01*
X17844Y8756D01*
X17855Y8752D01*
X17868Y8748D01*
X17883Y8746D01*
X17884Y8746D01*
X17892Y8747D01*
X17900Y8749D01*
X17907Y8751D01*
X17914Y8753D01*
X17919Y8756D01*
X17924Y8760D01*
X17929Y8764D01*
Y8624D01*
X17924Y8627D01*
X17919Y8631D01*
X17914Y8634D01*
X17907Y8637D01*
X17900Y8639D01*
X17892Y8640D01*
X17884Y8642D01*
X17883Y8642D01*
X17868Y8639D01*
X17855Y8636D01*
X17844Y8631D01*
X17835Y8626D01*
X17828Y8619D01*
X17823Y8612D01*
X17820Y8603D01*
X17819Y8594D01*
Y8794D01*
X17820Y8784D01*
D02*
G37*
G36*
X12791Y8273D02*
X12788Y8263D01*
Y8253D01*
X12791Y8241D01*
X12797Y8227D01*
X12805Y8213D01*
X12817Y8196D01*
X12831Y8179D01*
X12868Y8139D01*
X12797Y8068D01*
X12776Y8088D01*
X12740Y8119D01*
X12723Y8131D01*
X12708Y8139D01*
X12695Y8145D01*
X12683Y8148D01*
X12672D01*
X12663Y8145D01*
X12655Y8139D01*
X12797Y8280D01*
X12791Y8273D01*
D02*
G37*
G36*
X7999D02*
X7996Y8263D01*
Y8253D01*
X7999Y8241D01*
X8005Y8227D01*
X8013Y8213D01*
X8025Y8196D01*
X8039Y8179D01*
X8075Y8139D01*
X8005Y8068D01*
X7984Y8088D01*
X7947Y8119D01*
X7931Y8131D01*
X7916Y8139D01*
X7903Y8145D01*
X7891Y8148D01*
X7880D01*
X7871Y8145D01*
X7863Y8139D01*
X8005Y8280D01*
X7999Y8273D01*
D02*
G37*
G36*
X3157D02*
X3154Y8263D01*
Y8253D01*
X3157Y8241D01*
X3163Y8227D01*
X3171Y8213D01*
X3182Y8196D01*
X3197Y8179D01*
X3233Y8139D01*
X3163Y8068D01*
X3142Y8088D01*
X3105Y8119D01*
X3089Y8131D01*
X3074Y8139D01*
X3061Y8145D01*
X3049Y8148D01*
X3038D01*
X3029Y8145D01*
X3021Y8139D01*
X3163Y8280D01*
X3157Y8273D01*
D02*
G37*
G36*
X3604Y7800D02*
X3603Y7810D01*
X3600Y7818D01*
X3595Y7825D01*
X3587Y7832D01*
X3578Y7837D01*
X3567Y7842D01*
X3554Y7846D01*
X3539Y7848D01*
X3522Y7850D01*
X3502Y7850D01*
Y7950D01*
X3522Y7951D01*
X3539Y7952D01*
X3554Y7954D01*
X3567Y7958D01*
X3578Y7962D01*
X3587Y7968D01*
X3595Y7975D01*
X3600Y7982D01*
X3603Y7990D01*
X3604Y8000D01*
Y7800D01*
D02*
G37*
G36*
X13202Y7774D02*
X13201Y7784D01*
X13198Y7792D01*
X13193Y7800D01*
X13186Y7806D01*
X13177Y7812D01*
X13166Y7816D01*
X13153Y7820D01*
X13138Y7822D01*
X13120Y7824D01*
X13101Y7824D01*
Y7924D01*
X13120Y7925D01*
X13138Y7926D01*
X13153Y7929D01*
X13166Y7932D01*
X13177Y7937D01*
X13186Y7942D01*
X13193Y7949D01*
X13198Y7956D01*
X13201Y7965D01*
X13202Y7974D01*
Y7774D01*
D02*
G37*
G36*
X8396D02*
X8395Y7784D01*
X8392Y7792D01*
X8387Y7800D01*
X8380Y7806D01*
X8370Y7812D01*
X8359Y7816D01*
X8346Y7820D01*
X8331Y7822D01*
X8314Y7824D01*
X8295Y7824D01*
Y7924D01*
X8314Y7925D01*
X8331Y7926D01*
X8346Y7929D01*
X8359Y7932D01*
X8370Y7937D01*
X8380Y7942D01*
X8387Y7949D01*
X8392Y7956D01*
X8395Y7965D01*
X8396Y7974D01*
Y7774D01*
D02*
G37*
G36*
X17686Y7684D02*
X17673Y7680D01*
X17662Y7672D01*
X17652Y7662D01*
X17644Y7648D01*
X17637Y7631D01*
X17632Y7612D01*
X17628Y7589D01*
X17626Y7563D01*
X17625Y7535D01*
X17475D01*
X17474Y7563D01*
X17472Y7589D01*
X17468Y7612D01*
X17463Y7631D01*
X17456Y7648D01*
X17448Y7662D01*
X17438Y7672D01*
X17427Y7680D01*
X17414Y7684D01*
X17400Y7686D01*
X17700D01*
X17686Y7684D01*
D02*
G37*
G36*
X12700Y7546D02*
X12694Y7544D01*
X12688Y7540D01*
X12682Y7534D01*
X12678Y7527D01*
X12674Y7518D01*
X12672Y7507D01*
X12670Y7495D01*
X12668Y7481D01*
X12668Y7466D01*
X12588D01*
X12588Y7481D01*
X12586Y7495D01*
X12584Y7507D01*
X12582Y7518D01*
X12578Y7527D01*
X12574Y7534D01*
X12568Y7540D01*
X12562Y7544D01*
X12556Y7546D01*
X12548Y7547D01*
X12708D01*
X12700Y7546D01*
D02*
G37*
G36*
X7908D02*
X7901Y7544D01*
X7895Y7540D01*
X7890Y7534D01*
X7886Y7527D01*
X7882Y7518D01*
X7879Y7507D01*
X7877Y7495D01*
X7876Y7481D01*
X7876Y7466D01*
X7796D01*
X7795Y7481D01*
X7794Y7495D01*
X7792Y7507D01*
X7789Y7518D01*
X7786Y7527D01*
X7781Y7534D01*
X7776Y7540D01*
X7770Y7544D01*
X7763Y7546D01*
X7756Y7547D01*
X7916D01*
X7908Y7546D01*
D02*
G37*
G36*
X3084Y7546D02*
X3076Y7543D01*
X3068Y7538D01*
X3062Y7531D01*
X3056Y7522D01*
X3052Y7511D01*
X3048Y7497D01*
X3046Y7482D01*
X3044Y7465D01*
X3044Y7446D01*
X2944D01*
X2943Y7465D01*
X2942Y7482D01*
X2939Y7497D01*
X2936Y7511D01*
X2931Y7522D01*
X2926Y7531D01*
X2919Y7538D01*
X2912Y7543D01*
X2903Y7546D01*
X2894Y7547D01*
X3094D01*
X3084Y7546D01*
D02*
G37*
G36*
X13450Y7442D02*
X13443Y7439D01*
X13437Y7435D01*
X13432Y7430D01*
X13427Y7423D01*
X13424Y7414D01*
X13421Y7403D01*
X13419Y7391D01*
X13418Y7378D01*
X13417Y7363D01*
X13337D01*
X13337Y7378D01*
X13336Y7391D01*
X13334Y7403D01*
X13331Y7414D01*
X13327Y7423D01*
X13323Y7430D01*
X13318Y7435D01*
X13312Y7439D01*
X13305Y7442D01*
X13297Y7443D01*
X13457D01*
X13450Y7442D01*
D02*
G37*
G36*
X8643D02*
X8636Y7439D01*
X8630Y7435D01*
X8625Y7430D01*
X8621Y7423D01*
X8617Y7414D01*
X8614Y7403D01*
X8612Y7391D01*
X8611Y7378D01*
X8611Y7363D01*
X8531D01*
X8530Y7378D01*
X8529Y7391D01*
X8527Y7403D01*
X8524Y7414D01*
X8521Y7423D01*
X8516Y7430D01*
X8511Y7435D01*
X8505Y7439D01*
X8498Y7442D01*
X8491Y7443D01*
X8651D01*
X8643Y7442D01*
D02*
G37*
G36*
X3851D02*
X3844Y7439D01*
X3838Y7435D01*
X3833Y7430D01*
X3828Y7423D01*
X3825Y7414D01*
X3822Y7403D01*
X3820Y7391D01*
X3819Y7378D01*
X3818Y7363D01*
X3738D01*
X3738Y7378D01*
X3737Y7391D01*
X3735Y7403D01*
X3732Y7414D01*
X3728Y7423D01*
X3724Y7430D01*
X3719Y7435D01*
X3713Y7439D01*
X3706Y7442D01*
X3698Y7443D01*
X3858D01*
X3851Y7442D01*
D02*
G37*
G36*
X18416Y7424D02*
X18413Y7419D01*
X18410Y7414D01*
X18407Y7407D01*
X18405Y7400D01*
X18403Y7392D01*
X18402Y7384D01*
X18401Y7374D01*
X18400Y7353D01*
X18300D01*
X18300Y7364D01*
X18298Y7384D01*
X18297Y7392D01*
X18295Y7400D01*
X18293Y7407D01*
X18290Y7414D01*
X18287Y7419D01*
X18284Y7424D01*
X18280Y7429D01*
X18420D01*
X18416Y7424D01*
D02*
G37*
G36*
X13418Y7334D02*
X13419Y7320D01*
X13421Y7308D01*
X13424Y7298D01*
X13427Y7289D01*
X13432Y7282D01*
X13437Y7276D01*
X13443Y7272D01*
X13450Y7270D01*
X13457Y7269D01*
X13297D01*
X13305Y7270D01*
X13312Y7272D01*
X13318Y7276D01*
X13323Y7282D01*
X13327Y7289D01*
X13331Y7298D01*
X13334Y7308D01*
X13336Y7320D01*
X13337Y7334D01*
X13337Y7349D01*
X13417D01*
X13418Y7334D01*
D02*
G37*
G36*
X8611D02*
X8612Y7320D01*
X8614Y7308D01*
X8617Y7298D01*
X8621Y7289D01*
X8625Y7282D01*
X8630Y7276D01*
X8636Y7272D01*
X8643Y7270D01*
X8651Y7269D01*
X8491D01*
X8498Y7270D01*
X8505Y7272D01*
X8511Y7276D01*
X8516Y7282D01*
X8521Y7289D01*
X8524Y7298D01*
X8527Y7308D01*
X8529Y7320D01*
X8530Y7334D01*
X8531Y7349D01*
X8611D01*
X8611Y7334D01*
D02*
G37*
G36*
X3819D02*
X3820Y7320D01*
X3822Y7308D01*
X3825Y7298D01*
X3828Y7289D01*
X3833Y7282D01*
X3838Y7276D01*
X3844Y7272D01*
X3851Y7270D01*
X3858Y7269D01*
X3698D01*
X3706Y7270D01*
X3713Y7272D01*
X3719Y7276D01*
X3724Y7282D01*
X3728Y7289D01*
X3732Y7298D01*
X3735Y7308D01*
X3737Y7320D01*
X3738Y7334D01*
X3738Y7349D01*
X3818D01*
X3819Y7334D01*
D02*
G37*
G36*
X7500Y6400D02*
X4600D01*
X4100Y6900D01*
Y8300D01*
X7500D01*
Y6400D01*
D02*
G37*
G36*
X17175Y6490D02*
X17178Y6461D01*
X17180Y6448D01*
X17183Y6436D01*
X17186Y6425D01*
X17190Y6415D01*
X17194Y6407D01*
X17199Y6399D01*
X17205Y6393D01*
X16995D01*
X17001Y6399D01*
X17006Y6407D01*
X17010Y6415D01*
X17014Y6425D01*
X17018Y6436D01*
X17020Y6448D01*
X17022Y6461D01*
X17024Y6475D01*
X17025Y6506D01*
X17175D01*
X17175Y6490D01*
D02*
G37*
G36*
X16876Y7126D02*
X16100Y6350D01*
X13008D01*
Y6508D01*
X13350Y6850D01*
X13700D01*
Y8300D01*
X16876D01*
Y7126D01*
D02*
G37*
G36*
X12076Y6926D02*
X11736Y6586D01*
Y6350D01*
X8737D01*
Y6687D01*
X8900Y6850D01*
Y8300D01*
X12076D01*
Y6926D01*
D02*
G37*
G36*
X17214Y6385D02*
X17221Y6380D01*
X17230Y6376D01*
X17239Y6372D01*
X17250Y6368D01*
X17262Y6366D01*
X17275Y6364D01*
X17289Y6362D01*
X17320Y6361D01*
Y6211D01*
X17304Y6211D01*
X17275Y6208D01*
X17262Y6206D01*
X17250Y6203D01*
X17239Y6200D01*
X17230Y6196D01*
X17221Y6192D01*
X17214Y6187D01*
X17207Y6181D01*
Y6391D01*
X17214Y6385D01*
D02*
G37*
G36*
X1579Y5901D02*
X1574Y5905D01*
X1569Y5908D01*
X1564Y5911D01*
X1557Y5914D01*
X1550Y5916D01*
X1542Y5918D01*
X1534Y5919D01*
X1524Y5920D01*
X1515Y5920D01*
X1447Y5916D01*
X1438Y5914D01*
X1430Y5912D01*
X1423Y5910D01*
X1418Y5907D01*
Y6035D01*
X1423Y6032D01*
X1430Y6030D01*
X1438Y6028D01*
X1447Y6026D01*
X1471Y6023D01*
X1502Y6021D01*
X1516Y6021D01*
X1534Y6023D01*
X1542Y6024D01*
X1550Y6026D01*
X1557Y6028D01*
X1564Y6031D01*
X1569Y6034D01*
X1574Y6037D01*
X1579Y6041D01*
Y5901D01*
D02*
G37*
G36*
X18123Y6032D02*
X18130Y6030D01*
X18138Y6028D01*
X18147Y6026D01*
X18171Y6023D01*
X18202Y6021D01*
X18239Y6021D01*
Y5921D01*
X18220Y5921D01*
X18147Y5916D01*
X18138Y5914D01*
X18130Y5912D01*
X18123Y5910D01*
X18118Y5907D01*
Y6035D01*
X18123Y6032D01*
D02*
G37*
G36*
X20370Y5850D02*
X18944D01*
X18794Y6000D01*
Y6550D01*
X18944Y6700D01*
X19194D01*
X19294Y6800D01*
X19294Y8050D01*
X20370D01*
Y5850D01*
D02*
G37*
G36*
X1579Y5586D02*
X1574Y5590D01*
X1569Y5593D01*
X1564Y5596D01*
X1557Y5599D01*
X1550Y5601D01*
X1542Y5603D01*
X1534Y5604D01*
X1524Y5605D01*
X1515Y5605D01*
X1447Y5601D01*
X1438Y5599D01*
X1430Y5597D01*
X1423Y5595D01*
X1418Y5592D01*
Y5720D01*
X1423Y5717D01*
X1430Y5715D01*
X1438Y5713D01*
X1447Y5711D01*
X1471Y5708D01*
X1502Y5706D01*
X1516Y5706D01*
X1534Y5708D01*
X1542Y5709D01*
X1550Y5711D01*
X1557Y5713D01*
X1564Y5716D01*
X1569Y5719D01*
X1574Y5722D01*
X1579Y5726D01*
Y5586D01*
D02*
G37*
G36*
X17276Y5722D02*
X17281Y5719D01*
X17286Y5716D01*
X17293Y5713D01*
X17300Y5711D01*
X17308Y5709D01*
X17316Y5708D01*
X17325Y5707D01*
X17387Y5711D01*
X17396Y5713D01*
X17404Y5715D01*
X17411Y5717D01*
X17416Y5720D01*
Y5592D01*
X17411Y5595D01*
X17404Y5597D01*
X17396Y5599D01*
X17387Y5601D01*
X17362Y5604D01*
X17332Y5605D01*
X17332Y5605D01*
X17316Y5604D01*
X17308Y5603D01*
X17300Y5601D01*
X17293Y5599D01*
X17286Y5596D01*
X17281Y5593D01*
X17276Y5590D01*
X17271Y5586D01*
Y5726D01*
X17276Y5722D01*
D02*
G37*
G36*
X1579Y5271D02*
X1574Y5275D01*
X1569Y5278D01*
X1564Y5281D01*
X1557Y5284D01*
X1550Y5286D01*
X1542Y5288D01*
X1534Y5289D01*
X1524Y5290D01*
X1515Y5290D01*
X1447Y5286D01*
X1438Y5284D01*
X1430Y5282D01*
X1423Y5280D01*
X1418Y5277D01*
Y5405D01*
X1423Y5402D01*
X1430Y5400D01*
X1438Y5398D01*
X1447Y5396D01*
X1471Y5393D01*
X1502Y5391D01*
X1516Y5391D01*
X1534Y5393D01*
X1542Y5394D01*
X1550Y5396D01*
X1557Y5398D01*
X1564Y5401D01*
X1569Y5404D01*
X1574Y5407D01*
X1579Y5411D01*
Y5271D01*
D02*
G37*
G36*
X17276Y5407D02*
X17281Y5404D01*
X17286Y5401D01*
X17293Y5398D01*
X17300Y5396D01*
X17308Y5394D01*
X17316Y5393D01*
X17325Y5392D01*
X17387Y5396D01*
X17396Y5398D01*
X17404Y5400D01*
X17411Y5402D01*
X17416Y5405D01*
Y5277D01*
X17411Y5280D01*
X17404Y5282D01*
X17396Y5284D01*
X17387Y5286D01*
X17362Y5289D01*
X17332Y5290D01*
X17332Y5290D01*
X17316Y5289D01*
X17308Y5288D01*
X17300Y5286D01*
X17293Y5284D01*
X17286Y5281D01*
X17281Y5278D01*
X17276Y5275D01*
X17271Y5271D01*
Y5411D01*
X17276Y5407D01*
D02*
G37*
G36*
X3077Y5402D02*
X3083Y5400D01*
X3091Y5398D01*
X3101Y5396D01*
X3125Y5393D01*
X3155Y5391D01*
X3192Y5391D01*
Y5291D01*
X3173Y5291D01*
X3101Y5286D01*
X3091Y5284D01*
X3083Y5282D01*
X3077Y5280D01*
X3072Y5277D01*
Y5405D01*
X3077Y5402D01*
D02*
G37*
G36*
X1579Y4956D02*
X1574Y4960D01*
X1569Y4963D01*
X1564Y4966D01*
X1557Y4969D01*
X1550Y4971D01*
X1542Y4973D01*
X1534Y4974D01*
X1524Y4975D01*
X1515Y4976D01*
X1447Y4971D01*
X1438Y4969D01*
X1430Y4967D01*
X1423Y4965D01*
X1418Y4962D01*
Y5090D01*
X1423Y5087D01*
X1430Y5085D01*
X1438Y5083D01*
X1447Y5081D01*
X1471Y5078D01*
X1502Y5077D01*
X1516Y5076D01*
X1534Y5078D01*
X1542Y5079D01*
X1550Y5081D01*
X1557Y5083D01*
X1564Y5086D01*
X1569Y5089D01*
X1574Y5092D01*
X1579Y5096D01*
Y4956D01*
D02*
G37*
G36*
X3078Y5083D02*
X3081Y5082D01*
X3086Y5080D01*
X3093Y5079D01*
X3101Y5078D01*
X3139Y5076D01*
X3174Y5076D01*
Y4976D01*
X3156Y4976D01*
X3086Y4972D01*
X3081Y4970D01*
X3078Y4969D01*
X3077Y4967D01*
Y5085D01*
X3078Y5083D01*
D02*
G37*
G36*
X17276Y5092D02*
X17281Y5089D01*
X17286Y5086D01*
X17293Y5083D01*
X17300Y5081D01*
X17308Y5079D01*
X17316Y5078D01*
X17325Y5077D01*
X17387Y5081D01*
X17396Y5083D01*
X17404Y5085D01*
X17411Y5087D01*
X17416Y5090D01*
Y4962D01*
X17411Y4965D01*
X17404Y4967D01*
X17396Y4969D01*
X17387Y4971D01*
X17362Y4974D01*
X17332Y4975D01*
X17332Y4975D01*
X17316Y4974D01*
X17308Y4973D01*
X17300Y4971D01*
X17293Y4969D01*
X17286Y4966D01*
X17281Y4963D01*
X17276Y4960D01*
X17271Y4956D01*
Y5096D01*
X17276Y5092D01*
D02*
G37*
G36*
X11959Y4866D02*
X11960Y4856D01*
X11961Y4847D01*
X11964Y4838D01*
X11966Y4830D01*
X11970Y4822D01*
X11973Y4815D01*
X11978Y4808D01*
X11983Y4801D01*
X11989Y4795D01*
X11849D01*
X11854Y4801D01*
X11860Y4808D01*
X11864Y4815D01*
X11868Y4822D01*
X11871Y4830D01*
X11874Y4838D01*
X11876Y4847D01*
X11878Y4856D01*
X11878Y4866D01*
X11879Y4876D01*
X11959D01*
X11959Y4866D01*
D02*
G37*
G36*
X7714D02*
X7715Y4856D01*
X7717Y4847D01*
X7719Y4838D01*
X7721Y4830D01*
X7725Y4822D01*
X7729Y4815D01*
X7733Y4808D01*
X7738Y4801D01*
X7744Y4795D01*
X7604D01*
X7610Y4801D01*
X7615Y4808D01*
X7619Y4815D01*
X7623Y4822D01*
X7626Y4830D01*
X7629Y4838D01*
X7631Y4847D01*
X7633Y4856D01*
X7634Y4866D01*
X7634Y4876D01*
X7714D01*
X7714Y4866D01*
D02*
G37*
G36*
X1579Y4641D02*
X1574Y4645D01*
X1569Y4648D01*
X1564Y4651D01*
X1557Y4654D01*
X1550Y4656D01*
X1542Y4658D01*
X1534Y4659D01*
X1524Y4660D01*
X1515Y4661D01*
X1447Y4656D01*
X1438Y4654D01*
X1430Y4652D01*
X1423Y4650D01*
X1418Y4647D01*
Y4775D01*
X1423Y4772D01*
X1430Y4770D01*
X1438Y4768D01*
X1447Y4766D01*
X1471Y4763D01*
X1502Y4762D01*
X1516Y4761D01*
X1534Y4763D01*
X1542Y4764D01*
X1550Y4766D01*
X1557Y4768D01*
X1564Y4771D01*
X1569Y4774D01*
X1574Y4777D01*
X1579Y4781D01*
Y4641D01*
D02*
G37*
G36*
X3350Y4736D02*
X3352Y4716D01*
X3353Y4708D01*
X3355Y4700D01*
X3357Y4693D01*
X3360Y4686D01*
X3363Y4681D01*
X3366Y4676D01*
X3370Y4671D01*
X3230D01*
X3234Y4676D01*
X3237Y4681D01*
X3240Y4686D01*
X3243Y4693D01*
X3245Y4700D01*
X3247Y4708D01*
X3248Y4716D01*
X3249Y4726D01*
X3250Y4747D01*
X3350D01*
X3350Y4736D01*
D02*
G37*
G36*
X3595Y4726D02*
X3610Y4713D01*
X3617Y4708D01*
X3624Y4704D01*
X3631Y4700D01*
X3637Y4698D01*
X3643Y4696D01*
X3649Y4694D01*
X3655Y4694D01*
X3556Y4595D01*
X3555Y4601D01*
X3554Y4607D01*
X3552Y4613D01*
X3550Y4619D01*
X3546Y4626D01*
X3542Y4633D01*
X3537Y4640D01*
X3531Y4647D01*
X3517Y4662D01*
X3588Y4733D01*
X3595Y4726D01*
D02*
G37*
G36*
X2840Y4642D02*
X2832Y4639D01*
X2824Y4634D01*
X2818Y4627D01*
X2812Y4618D01*
X2808Y4607D01*
X2804Y4594D01*
X2802Y4578D01*
X2801Y4561D01*
X2800Y4542D01*
X2700D01*
X2700Y4561D01*
X2698Y4578D01*
X2695Y4594D01*
X2692Y4607D01*
X2688Y4618D01*
X2682Y4627D01*
X2675Y4634D01*
X2668Y4639D01*
X2659Y4642D01*
X2650Y4643D01*
X2850D01*
X2840Y4642D01*
D02*
G37*
G36*
X2800Y4486D02*
X2802Y4466D01*
X2803Y4458D01*
X2805Y4450D01*
X2807Y4443D01*
X2810Y4436D01*
X2813Y4431D01*
X2816Y4426D01*
X2820Y4421D01*
X2680D01*
X2684Y4426D01*
X2687Y4431D01*
X2690Y4436D01*
X2693Y4443D01*
X2695Y4450D01*
X2697Y4458D01*
X2698Y4466D01*
X2699Y4476D01*
X2700Y4497D01*
X2800D01*
X2800Y4486D01*
D02*
G37*
G36*
X20370Y4042D02*
X17200D01*
Y4700D01*
X17350Y4850D01*
X18444Y4850D01*
X18594Y5000D01*
Y5750D01*
X20370D01*
Y4042D01*
D02*
G37*
G36*
X16000Y750D02*
X15352Y102D01*
X12400D01*
Y1800D01*
X13000Y2400D01*
Y4100D01*
X16000D01*
Y750D01*
D02*
G37*
G36*
X11726Y4078D02*
Y2074D01*
X11950Y1850D01*
Y102D01*
X8500D01*
Y1850D01*
X8738Y2088D01*
Y4056D01*
X8773Y4091D01*
X11726Y4078D01*
D02*
G37*
G36*
X7499Y4088D02*
X7500Y4087D01*
X7515Y3291D01*
X7498Y2402D01*
X8050Y1850D01*
Y102D01*
X5248D01*
X4500Y850D01*
Y4043D01*
X4546Y4089D01*
X7499Y4088D01*
D02*
G37*
%LPC*%
G36*
X863Y19469D02*
X712D01*
X567Y19430D01*
X436Y19355D01*
X330Y19249D01*
X255Y19118D01*
X216Y18973D01*
Y18822D01*
X255Y18677D01*
X330Y18547D01*
X436Y18440D01*
X567Y18365D01*
X712Y18326D01*
X863D01*
X1008Y18365D01*
X1138Y18440D01*
X1245Y18547D01*
X1320Y18677D01*
X1359Y18822D01*
Y18973D01*
X1320Y19118D01*
X1245Y19249D01*
X1138Y19355D01*
X1008Y19430D01*
X863Y19469D01*
D02*
G37*
G36*
X19685Y19474D02*
X19536Y19455D01*
X19397Y19397D01*
X19277Y19305D01*
X19186Y19186D01*
X19128Y19047D01*
X19108Y18898D01*
X19128Y18748D01*
X19186Y18609D01*
X19277Y18490D01*
X19397Y18398D01*
X19536Y18341D01*
X19685Y18321D01*
X19834Y18341D01*
X19973Y18398D01*
X20093Y18490D01*
X20185Y18609D01*
X20242Y18748D01*
X20262Y18898D01*
X20242Y19047D01*
X20185Y19186D01*
X20093Y19305D01*
X19973Y19397D01*
X19834Y19455D01*
X19685Y19474D01*
D02*
G37*
G36*
X12628Y12763D02*
X12566Y12751D01*
X12513Y12715D01*
X12477Y12662D01*
X12465Y12600D01*
X12477Y12538D01*
X12513Y12485D01*
X12566Y12449D01*
X12628Y12437D01*
X12690Y12449D01*
X12743Y12485D01*
X12779Y12538D01*
X12791Y12600D01*
X12779Y12662D01*
X12743Y12715D01*
X12690Y12751D01*
X12628Y12763D01*
D02*
G37*
G36*
X7836D02*
X7773Y12751D01*
X7720Y12715D01*
X7685Y12662D01*
X7673Y12600D01*
X7685Y12538D01*
X7720Y12485D01*
X7773Y12449D01*
X7836Y12437D01*
X7898Y12449D01*
X7951Y12485D01*
X7987Y12538D01*
X7999Y12600D01*
X7987Y12662D01*
X7951Y12715D01*
X7898Y12751D01*
X7836Y12763D01*
D02*
G37*
G36*
X3000D02*
X2938Y12751D01*
X2885Y12715D01*
X2849Y12662D01*
X2837Y12600D01*
X2849Y12538D01*
X2885Y12485D01*
X2938Y12449D01*
X3000Y12437D01*
X3062Y12449D01*
X3115Y12485D01*
X3151Y12538D01*
X3163Y12600D01*
X3151Y12662D01*
X3115Y12715D01*
X3062Y12751D01*
X3000Y12763D01*
D02*
G37*
G36*
X18200Y11763D02*
X18138Y11751D01*
X18085Y11715D01*
X18075Y11701D01*
X18025D01*
X18015Y11715D01*
X17962Y11751D01*
X17900Y11763D01*
X17838Y11751D01*
X17785Y11715D01*
X17775Y11701D01*
X17725D01*
X17715Y11715D01*
X17662Y11751D01*
X17600Y11763D01*
X17538Y11751D01*
X17485Y11715D01*
X17475Y11701D01*
X17425D01*
X17415Y11715D01*
X17362Y11751D01*
X17300Y11763D01*
X17238Y11751D01*
X17185Y11715D01*
X17149Y11662D01*
X17137Y11600D01*
X17149Y11538D01*
X17185Y11485D01*
X17199Y11475D01*
Y11425D01*
X17185Y11415D01*
X17149Y11362D01*
X17137Y11300D01*
X17149Y11238D01*
X17185Y11185D01*
X17238Y11149D01*
X17300Y11137D01*
X17362Y11149D01*
X17415Y11185D01*
X17425Y11199D01*
X17475D01*
X17485Y11185D01*
X17538Y11149D01*
X17600Y11137D01*
X17662Y11149D01*
X17715Y11185D01*
X17725Y11199D01*
X17775D01*
X17785Y11185D01*
X17838Y11149D01*
X17900Y11137D01*
X17962Y11149D01*
X18015Y11185D01*
X18025Y11199D01*
X18075D01*
X18085Y11185D01*
X18138Y11149D01*
X18200Y11137D01*
X18262Y11149D01*
X18315Y11185D01*
X18351Y11238D01*
X18363Y11300D01*
X18351Y11362D01*
X18315Y11415D01*
X18301Y11425D01*
Y11475D01*
X18315Y11485D01*
X18351Y11538D01*
X18363Y11600D01*
X18351Y11662D01*
X18315Y11715D01*
X18262Y11751D01*
X18200Y11763D01*
D02*
G37*
G36*
X1402Y6842D02*
X1324Y6826D01*
X1259Y6783D01*
X1215Y6717D01*
X1200Y6640D01*
X1215Y6563D01*
X1259Y6498D01*
X1324Y6454D01*
X1402Y6438D01*
X1479Y6454D01*
X1544Y6498D01*
X1588Y6563D01*
X1603Y6640D01*
X1588Y6717D01*
X1544Y6783D01*
X1479Y6826D01*
X1402Y6842D01*
D02*
G37*
G36*
X18102Y4558D02*
X18024Y4543D01*
X17959Y4499D01*
X17915Y4434D01*
X17900Y4357D01*
X17915Y4280D01*
X17959Y4214D01*
X18024Y4170D01*
X18102Y4155D01*
X18179Y4170D01*
X18244Y4214D01*
X18288Y4280D01*
X18303Y4357D01*
X18288Y4434D01*
X18244Y4499D01*
X18179Y4543D01*
X18102Y4558D01*
D02*
G37*
%LPD*%
D14*
X17767Y5971D02*
X18271D01*
X18350Y6050D01*
Y7500D01*
X17550Y8694D02*
X18000D01*
X3450Y4800D02*
X3656Y4594D01*
X3300Y4600D02*
Y4900D01*
X3450Y4800D02*
Y5150D01*
X2720Y5026D02*
X3174D01*
X3300Y4900D01*
X3259Y5341D02*
X3450Y5150D01*
X2750Y4350D02*
Y4684D01*
X1067Y4711D02*
X1650D01*
X1067Y5026D02*
X1650D01*
X17200D02*
X17767D01*
X17200Y5341D02*
X17767D01*
X17200Y5656D02*
X17767D01*
X2720Y5341D02*
X3259D01*
X3250Y5753D02*
Y7000D01*
X3153Y5656D02*
X3250Y5753D01*
X2720Y5656D02*
X3153D01*
X2994Y7256D02*
X3250Y7000D01*
X2994Y7256D02*
Y7703D01*
X13061Y7874D02*
X13377D01*
X12639Y8297D02*
X13061Y7874D01*
X8269D02*
X8571D01*
X7847Y8297D02*
X8269Y7874D01*
X3005Y8297D02*
X3402Y7900D01*
X3753D01*
X1067Y5341D02*
X1650D01*
X1067Y5656D02*
X1650D01*
X1067Y5971D02*
X1650D01*
X20079Y0D02*
G03*
X20472Y394I0J394D01*
G01*
Y19291D02*
G03*
X20079Y19685I-394J0D01*
G01*
X394D02*
G03*
X0Y19291I0J-394D01*
G01*
Y394D02*
G03*
X394Y0I394J0D01*
G01*
Y19685D02*
X20079D01*
X394Y0D02*
X20079D01*
X0Y394D02*
Y19291D01*
X20472Y394D02*
Y19291D01*
D17*
X3939Y3250D02*
D03*
Y5672D02*
D03*
X12441D02*
D03*
Y3250D02*
D03*
X8165Y5672D02*
D03*
Y3250D02*
D03*
D18*
X6010D02*
D03*
Y5672D02*
D03*
X14512D02*
D03*
Y3250D02*
D03*
X10235Y5672D02*
D03*
Y3250D02*
D03*
D19*
X17767Y5971D02*
D03*
Y5656D02*
D03*
Y5341D02*
D03*
Y5026D02*
D03*
Y4711D02*
D03*
X19420D02*
D03*
Y5026D02*
D03*
Y5341D02*
D03*
Y5656D02*
D03*
Y5971D02*
D03*
Y6286D02*
D03*
X17767D02*
D03*
X2720Y4711D02*
D03*
Y5026D02*
D03*
Y5341D02*
D03*
Y5656D02*
D03*
Y5971D02*
D03*
Y6286D02*
D03*
X1067Y4711D02*
D03*
Y5026D02*
D03*
Y5341D02*
D03*
Y5656D02*
D03*
Y5971D02*
D03*
Y6286D02*
D03*
D32*
X17100D02*
D03*
D36*
X17550Y8694D02*
D03*
Y7906D02*
D03*
D37*
X3803Y7100D02*
D03*
X4397D02*
D03*
X13395D02*
D03*
X13988D02*
D03*
X8589D02*
D03*
X9182D02*
D03*
D38*
X3778Y7874D02*
D03*
X7105D02*
D03*
X16704D02*
D03*
X13377D02*
D03*
X11897D02*
D03*
X8571D02*
D03*
D39*
X4261D02*
D03*
X4733D02*
D03*
X5206D02*
D03*
X5678D02*
D03*
X6150D02*
D03*
X6623D02*
D03*
X16222D02*
D03*
X15749D02*
D03*
X15277D02*
D03*
X14804D02*
D03*
X14332D02*
D03*
X13859D02*
D03*
X11415D02*
D03*
X10943D02*
D03*
X10470D02*
D03*
X9998D02*
D03*
X9525D02*
D03*
X9053D02*
D03*
D40*
X5694Y8150D02*
D03*
X15293D02*
D03*
X10486D02*
D03*
D41*
X5442Y10748D02*
D03*
X15041D02*
D03*
X10234D02*
D03*
D42*
X14571Y15650D02*
D03*
X13317D02*
D03*
X14571Y13850D02*
D03*
X13317D02*
D03*
Y14750D02*
D03*
X14571D02*
D03*
X16671Y17450D02*
D03*
X15417D02*
D03*
X5917Y16550D02*
D03*
X7171D02*
D03*
X5917Y17450D02*
D03*
X7171D02*
D03*
X5917Y18350D02*
D03*
X7171D02*
D03*
X13317Y17450D02*
D03*
X14571D02*
D03*
X16671Y16550D02*
D03*
X15417D02*
D03*
X13317D02*
D03*
X14571D02*
D03*
X16671Y13850D02*
D03*
X15417D02*
D03*
X16671Y14750D02*
D03*
X15417D02*
D03*
X16671Y15650D02*
D03*
X15417D02*
D03*
D43*
X7836Y7703D02*
D03*
Y8297D02*
D03*
X2994D02*
D03*
Y7703D02*
D03*
X12628Y8297D02*
D03*
Y7703D02*
D03*
D44*
X3894Y15027D02*
D03*
Y13773D02*
D03*
X4794Y15027D02*
D03*
Y13773D02*
D03*
X5694Y15027D02*
D03*
Y13773D02*
D03*
X6594Y15027D02*
D03*
Y13773D02*
D03*
D45*
X17550Y7400D02*
Y7906D01*
X17100Y6950D02*
X17550Y7400D01*
X17100Y6286D02*
Y6950D01*
Y6286D02*
X17767D01*
D46*
X2723Y4711D02*
X2750Y4684D01*
X2720Y4711D02*
X2723D01*
X12300Y6650D02*
X12628Y6978D01*
X11919Y6469D02*
X12100Y6650D01*
X12300D01*
X11919Y4769D02*
Y6469D01*
X12628Y6978D02*
Y7703D01*
X7674Y7293D02*
X7836Y7455D01*
X7674Y4724D02*
Y7293D01*
X13377Y7118D02*
X13395Y7100D01*
X13377Y7118D02*
Y7874D01*
X8571Y7118D02*
Y7874D01*
Y7118D02*
X8589Y7100D01*
X3778Y7125D02*
X3803Y7100D01*
X3778Y7125D02*
Y7874D01*
X7836Y7455D02*
Y7703D01*
X12628Y8297D02*
X12639D01*
X7836D02*
X7847D01*
X3753Y7900D02*
X3778Y7874D01*
X2994Y8297D02*
X3005D01*
D47*
X8850Y19050D02*
D03*
X8426Y18874D02*
D03*
X8250Y18450D02*
D03*
X8426Y18026D02*
D03*
X8850Y17850D02*
D03*
X9274Y18026D02*
D03*
X9450Y18450D02*
D03*
X9274Y18874D02*
D03*
X10224Y1750D02*
D03*
X9800Y1574D02*
D03*
X9624Y1150D02*
D03*
X9800Y726D02*
D03*
X10224Y550D02*
D03*
X10649Y726D02*
D03*
X10824Y1150D02*
D03*
X10649Y1574D02*
D03*
X6600Y1750D02*
D03*
X6176Y1574D02*
D03*
X6000Y1150D02*
D03*
X6176Y726D02*
D03*
X6600Y550D02*
D03*
X7024Y726D02*
D03*
X7200Y1150D02*
D03*
X7024Y1574D02*
D03*
X14274D02*
D03*
X14450Y1150D02*
D03*
X14274Y726D02*
D03*
X13850Y550D02*
D03*
X13426Y726D02*
D03*
X13250Y1150D02*
D03*
X13426Y1574D02*
D03*
X13850Y1750D02*
D03*
X12024Y18874D02*
D03*
X12200Y18450D02*
D03*
X12024Y18026D02*
D03*
X11600Y17850D02*
D03*
X11176Y18026D02*
D03*
X11000Y18450D02*
D03*
X11176Y18874D02*
D03*
X11600Y19050D02*
D03*
D48*
X8850Y18450D02*
D03*
X10224Y1150D02*
D03*
X6600D02*
D03*
X13850D02*
D03*
X11600Y18450D02*
D03*
D49*
X19685Y18898D02*
D03*
Y787D02*
D03*
X787Y18898D02*
D03*
Y787D02*
D03*
D50*
X9238Y15450D02*
D03*
X11206D02*
D03*
D51*
X3939Y4804D02*
D03*
X5400Y4300D02*
D03*
X6200Y4650D02*
D03*
X3939Y4100D02*
D03*
X17599Y13843D02*
D03*
Y14143D02*
D03*
Y14443D02*
D03*
Y14743D02*
D03*
Y15043D02*
D03*
Y15343D02*
D03*
Y15643D02*
D03*
Y15943D02*
D03*
Y16243D02*
D03*
Y16543D02*
D03*
Y16843D02*
D03*
Y17143D02*
D03*
Y17443D02*
D03*
Y17743D02*
D03*
Y18093D02*
D03*
X4750Y19050D02*
D03*
Y18700D02*
D03*
Y18350D02*
D03*
Y18000D02*
D03*
Y17650D02*
D03*
Y17300D02*
D03*
Y16950D02*
D03*
Y16600D02*
D03*
Y16250D02*
D03*
X18200Y11600D02*
D03*
X17900D02*
D03*
X17600D02*
D03*
X17300D02*
D03*
Y11300D02*
D03*
X18200D02*
D03*
X17900D02*
D03*
X17600D02*
D03*
X18200Y10650D02*
D03*
Y10400D02*
D03*
Y10150D02*
D03*
Y9900D02*
D03*
Y9650D02*
D03*
Y9400D02*
D03*
Y9150D02*
D03*
X17900Y10650D02*
D03*
Y10400D02*
D03*
Y10150D02*
D03*
Y9900D02*
D03*
Y9650D02*
D03*
Y9400D02*
D03*
Y9150D02*
D03*
X17600D02*
D03*
Y9400D02*
D03*
Y9650D02*
D03*
Y9900D02*
D03*
Y10150D02*
D03*
Y10400D02*
D03*
Y10650D02*
D03*
X2250Y10167D02*
D03*
Y9867D02*
D03*
Y9567D02*
D03*
Y9267D02*
D03*
Y8967D02*
D03*
X1950D02*
D03*
Y9267D02*
D03*
Y9567D02*
D03*
Y9867D02*
D03*
Y10167D02*
D03*
X2250Y10467D02*
D03*
X1950D02*
D03*
X1650D02*
D03*
Y10167D02*
D03*
Y9867D02*
D03*
Y9567D02*
D03*
Y9267D02*
D03*
Y8967D02*
D03*
X1650Y10750D02*
D03*
Y11050D02*
D03*
Y11350D02*
D03*
Y11650D02*
D03*
Y11950D02*
D03*
Y12250D02*
D03*
X1950D02*
D03*
X2250D02*
D03*
X1950Y11950D02*
D03*
Y11650D02*
D03*
Y11350D02*
D03*
Y11050D02*
D03*
Y10750D02*
D03*
X2250D02*
D03*
Y11050D02*
D03*
Y11350D02*
D03*
Y11650D02*
D03*
Y11950D02*
D03*
X2900Y13900D02*
D03*
Y13550D02*
D03*
Y15200D02*
D03*
Y14800D02*
D03*
X19800Y6650D02*
D03*
X19450D02*
D03*
X20000Y6300D02*
D03*
Y6050D02*
D03*
X19450Y7350D02*
D03*
X19750D02*
D03*
X20050D02*
D03*
Y7600D02*
D03*
Y7850D02*
D03*
X15000Y13350D02*
D03*
X3550Y15900D02*
D03*
X3950D02*
D03*
X4350D02*
D03*
X4750D02*
D03*
X3200Y15600D02*
D03*
Y15200D02*
D03*
Y14800D02*
D03*
X3550Y15600D02*
D03*
X3950D02*
D03*
X4350D02*
D03*
X4750D02*
D03*
X5150D02*
D03*
X5650D02*
D03*
X6600D02*
D03*
X6150D02*
D03*
X5150Y15900D02*
D03*
X5650D02*
D03*
X6150D02*
D03*
X5150Y16250D02*
D03*
Y16600D02*
D03*
Y16950D02*
D03*
Y17300D02*
D03*
Y17650D02*
D03*
Y18000D02*
D03*
Y18350D02*
D03*
Y18700D02*
D03*
Y19050D02*
D03*
X5500D02*
D03*
X5850D02*
D03*
X6200D02*
D03*
X3200Y13900D02*
D03*
Y13550D02*
D03*
X7650Y14150D02*
D03*
Y13850D02*
D03*
Y13550D02*
D03*
X7250Y13850D02*
D03*
Y13550D02*
D03*
X8600D02*
D03*
X9000D02*
D03*
X15000Y17650D02*
D03*
Y17250D02*
D03*
Y16750D02*
D03*
Y16300D02*
D03*
Y15750D02*
D03*
Y15350D02*
D03*
Y14850D02*
D03*
Y14300D02*
D03*
Y13800D02*
D03*
X16200Y18450D02*
D03*
X17250Y18100D02*
D03*
X16950D02*
D03*
X16650D02*
D03*
X16350D02*
D03*
X15900Y18450D02*
D03*
X15600D02*
D03*
X15300D02*
D03*
X15000D02*
D03*
X14700D02*
D03*
X14400D02*
D03*
X14100D02*
D03*
X13800D02*
D03*
X13500D02*
D03*
X13200D02*
D03*
X13700Y18100D02*
D03*
X13350D02*
D03*
X13050D02*
D03*
X17250Y17750D02*
D03*
Y17450D02*
D03*
Y17150D02*
D03*
Y16850D02*
D03*
Y16550D02*
D03*
Y16250D02*
D03*
Y15950D02*
D03*
Y15650D02*
D03*
Y15350D02*
D03*
Y15050D02*
D03*
Y14750D02*
D03*
Y14450D02*
D03*
Y14150D02*
D03*
Y13850D02*
D03*
X12700D02*
D03*
X12300D02*
D03*
X11900D02*
D03*
X11500D02*
D03*
X12700Y14150D02*
D03*
X12300D02*
D03*
X11900D02*
D03*
X11500D02*
D03*
X12700Y14450D02*
D03*
X12300D02*
D03*
X11900D02*
D03*
X11500D02*
D03*
X12700Y14750D02*
D03*
X12300D02*
D03*
X11500D02*
D03*
X11900D02*
D03*
X8600Y13850D02*
D03*
X9000D02*
D03*
X8600Y14150D02*
D03*
X9000D02*
D03*
X8600Y14450D02*
D03*
X9000D02*
D03*
X8600Y14750D02*
D03*
X9000D02*
D03*
X8400Y15050D02*
D03*
X8788D02*
D03*
X8200Y16100D02*
D03*
X8600Y15300D02*
D03*
X11700Y15000D02*
D03*
X12100D02*
D03*
X12500D02*
D03*
X11900Y15300D02*
D03*
X12700D02*
D03*
X12300D02*
D03*
X12700Y15600D02*
D03*
X12300D02*
D03*
X11900D02*
D03*
X12500Y15850D02*
D03*
X12100D02*
D03*
X11700D02*
D03*
X12700Y16100D02*
D03*
Y16400D02*
D03*
Y16700D02*
D03*
Y17000D02*
D03*
X12300D02*
D03*
Y16700D02*
D03*
Y16400D02*
D03*
Y16100D02*
D03*
X11900Y17000D02*
D03*
Y16700D02*
D03*
Y16400D02*
D03*
Y16100D02*
D03*
X11500D02*
D03*
Y16400D02*
D03*
Y16700D02*
D03*
Y17000D02*
D03*
X7800Y17350D02*
D03*
X8200Y15600D02*
D03*
X8000Y15850D02*
D03*
X7800Y17000D02*
D03*
Y16700D02*
D03*
Y16400D02*
D03*
Y16100D02*
D03*
X8600Y15600D02*
D03*
X8400Y15850D02*
D03*
X8200Y16400D02*
D03*
Y16700D02*
D03*
Y17000D02*
D03*
X8600D02*
D03*
Y16700D02*
D03*
Y16400D02*
D03*
Y16100D02*
D03*
X8800Y15850D02*
D03*
X9000Y16100D02*
D03*
Y16400D02*
D03*
Y16700D02*
D03*
Y17000D02*
D03*
X19700Y4350D02*
D03*
X19400D02*
D03*
X19100D02*
D03*
X17650Y4250D02*
D03*
X17350D02*
D03*
Y4550D02*
D03*
X20000Y5100D02*
D03*
Y5350D02*
D03*
Y5600D02*
D03*
X18750Y5100D02*
D03*
Y5350D02*
D03*
Y5600D02*
D03*
X19050Y7500D02*
D03*
X18800D02*
D03*
X19050Y8250D02*
D03*
X18800D02*
D03*
X14600Y2350D02*
D03*
X15650D02*
D03*
X15400D02*
D03*
X15100D02*
D03*
X14850D02*
D03*
X15050Y350D02*
D03*
X15400D02*
D03*
X15550Y550D02*
D03*
X15250D02*
D03*
X15700Y750D02*
D03*
X15400D02*
D03*
X15250Y950D02*
D03*
X15800D02*
D03*
X15550D02*
D03*
X15400Y1150D02*
D03*
X15650D02*
D03*
X15800Y1350D02*
D03*
X15550D02*
D03*
X15400Y1550D02*
D03*
X15650D02*
D03*
X15800Y1750D02*
D03*
X15250D02*
D03*
X15550D02*
D03*
X15650Y1950D02*
D03*
X15400D02*
D03*
X15100D02*
D03*
X15800Y2150D02*
D03*
X15550D02*
D03*
X15250D02*
D03*
X15000D02*
D03*
X14750D02*
D03*
X13200Y2350D02*
D03*
X13000Y2150D02*
D03*
X11050Y2350D02*
D03*
X11350D02*
D03*
X9400D02*
D03*
X9100D02*
D03*
X6050Y2400D02*
D03*
X5750D02*
D03*
X7250Y2350D02*
D03*
X5450Y2400D02*
D03*
X5150D02*
D03*
X4850D02*
D03*
X4700Y2200D02*
D03*
X7450D02*
D03*
X5600D02*
D03*
X5300D02*
D03*
X5000D02*
D03*
X12800Y2000D02*
D03*
X12650Y1800D02*
D03*
X12558Y860D02*
D03*
Y1090D02*
D03*
Y1550D02*
D03*
Y1320D02*
D03*
Y630D02*
D03*
Y400D02*
D03*
X11300Y350D02*
D03*
X11600D02*
D03*
X11450Y600D02*
D03*
X11750D02*
D03*
X11600Y800D02*
D03*
X11800Y950D02*
D03*
X11600Y1150D02*
D03*
X11800Y1350D02*
D03*
X11600Y1550D02*
D03*
X11800Y1750D02*
D03*
X11450D02*
D03*
X11650Y1950D02*
D03*
X11350D02*
D03*
X11500Y2150D02*
D03*
X11200D02*
D03*
X9100Y350D02*
D03*
X8800D02*
D03*
X8950Y550D02*
D03*
X8650D02*
D03*
X8800Y750D02*
D03*
X8650Y950D02*
D03*
X8800Y1150D02*
D03*
X8650Y1350D02*
D03*
X8800Y1550D02*
D03*
X8650Y1750D02*
D03*
X8950D02*
D03*
X8800Y1950D02*
D03*
X9100D02*
D03*
X8950Y2150D02*
D03*
X9250D02*
D03*
X7900Y400D02*
D03*
Y630D02*
D03*
Y1320D02*
D03*
Y1550D02*
D03*
Y1090D02*
D03*
Y860D02*
D03*
X7800Y1800D02*
D03*
X7650Y2000D02*
D03*
X5450Y400D02*
D03*
X5300Y600D02*
D03*
X5150Y400D02*
D03*
X5000Y600D02*
D03*
X4850Y800D02*
D03*
X5150D02*
D03*
X4700Y1000D02*
D03*
X5000D02*
D03*
X4850Y1200D02*
D03*
X5150D02*
D03*
X4700Y1400D02*
D03*
X5000D02*
D03*
X5150Y1600D02*
D03*
X4850D02*
D03*
X5300Y1800D02*
D03*
X5000D02*
D03*
X4700D02*
D03*
X4850Y2000D02*
D03*
X5150D02*
D03*
X5450D02*
D03*
X15150Y4334D02*
D03*
X18000Y8694D02*
D03*
X18350Y7500D02*
D03*
X6700Y4334D02*
D03*
X10950D02*
D03*
X9600Y4251D02*
D03*
X8165Y4100D02*
D03*
X11919Y4724D02*
D03*
X3300Y4600D02*
D03*
X3656Y4594D02*
D03*
X2750Y4350D02*
D03*
X7674Y4724D02*
D03*
X16500Y7100D02*
D03*
X11600Y6900D02*
D03*
X16400D02*
D03*
X16150D02*
D03*
X15900D02*
D03*
X15650D02*
D03*
X15400D02*
D03*
X15150D02*
D03*
X14900D02*
D03*
X14650D02*
D03*
X14400D02*
D03*
X16250Y7100D02*
D03*
X16000D02*
D03*
X15750D02*
D03*
X15500D02*
D03*
X15250D02*
D03*
X15000D02*
D03*
X14750D02*
D03*
X16400Y7300D02*
D03*
X16150D02*
D03*
X15900D02*
D03*
X15650D02*
D03*
X15400D02*
D03*
X15150D02*
D03*
X14900D02*
D03*
X14500Y7100D02*
D03*
X14400Y7300D02*
D03*
X14650D02*
D03*
X11350Y6900D02*
D03*
X11100D02*
D03*
X10850D02*
D03*
X10600D02*
D03*
X10350D02*
D03*
X10100D02*
D03*
X9850D02*
D03*
X9600D02*
D03*
X11450Y7100D02*
D03*
X11200D02*
D03*
X10950D02*
D03*
X10700D02*
D03*
X10450D02*
D03*
X10200D02*
D03*
X9950D02*
D03*
X9726Y7095D02*
D03*
X9600Y7300D02*
D03*
X11600D02*
D03*
X11350D02*
D03*
X11100D02*
D03*
X10850D02*
D03*
X10600D02*
D03*
X10350D02*
D03*
X10100D02*
D03*
X9850D02*
D03*
X1650Y4711D02*
D03*
Y5026D02*
D03*
X6900Y6900D02*
D03*
X6650D02*
D03*
X6400D02*
D03*
X6150D02*
D03*
X5900D02*
D03*
X5650D02*
D03*
X5400D02*
D03*
X5150D02*
D03*
X4900D02*
D03*
X7050Y7100D02*
D03*
X6800D02*
D03*
X6550D02*
D03*
X6300D02*
D03*
X6050D02*
D03*
X5800D02*
D03*
X5550D02*
D03*
X5300D02*
D03*
X5050D02*
D03*
X7150Y7300D02*
D03*
X6900D02*
D03*
X6650D02*
D03*
X6400D02*
D03*
X6150D02*
D03*
X5900D02*
D03*
X5650D02*
D03*
X5400D02*
D03*
X5150D02*
D03*
X4900D02*
D03*
X14000Y4350D02*
D03*
X10450Y4671D02*
D03*
X14700D02*
D03*
X12441Y4828D02*
D03*
X17200Y5026D02*
D03*
X12441Y4080D02*
D03*
X17200Y5341D02*
D03*
Y5656D02*
D03*
X8165Y4828D02*
D03*
X7836Y12600D02*
D03*
X12628D02*
D03*
X3000D02*
D03*
X1650Y5341D02*
D03*
Y5656D02*
D03*
Y5971D02*
D03*
D52*
X18102Y4357D02*
D03*
Y6640D02*
D03*
X1402D02*
D03*
Y4357D02*
D03*
M02*
