G04*
G04 #@! TF.GenerationSoftware,Altium Limited,Altium Designer,22.0.2 (36)*
G04*
G04 Layer_Color=16711935*
%FSLAX24Y24*%
%MOIN*%
G70*
G04*
G04 #@! TF.SameCoordinates,22A08989-F282-469C-B082-2707E795951A*
G04*
G04*
G04 #@! TF.FilePolarity,Negative*
G04*
G01*
G75*
%ADD14C,0.0100*%
%ADD23R,0.0358X0.0380*%
%ADD24R,0.0394X0.0906*%
%ADD25R,0.0354X0.0906*%
%ADD26R,0.3220X0.0354*%
%ADD27R,0.3976X0.3386*%
%ADD29R,0.0625X0.0720*%
%ADD30R,0.0380X0.0358*%
%ADD32C,0.0300*%
%ADD33C,0.2442*%
%ADD34C,0.1104*%
%ADD35C,0.0671*%
%ADD55O,0.0652X0.0219*%
%ADD56R,0.0395X0.0434*%
G36*
X4344Y13150D02*
Y12600D01*
X16244D01*
Y13150D01*
X4344D01*
D02*
G37*
D14*
X20079Y0D02*
G03*
X20472Y394I0J394D01*
G01*
Y19291D02*
G03*
X20079Y19685I-394J0D01*
G01*
X394D02*
G03*
X0Y19291I0J-394D01*
G01*
Y394D02*
G03*
X394Y0I394J0D01*
G01*
Y19685D02*
X20079D01*
X394Y0D02*
X20079D01*
X0Y394D02*
Y19291D01*
X20472Y394D02*
Y19291D01*
D23*
X18940Y7850D02*
D03*
X18347D02*
D03*
D24*
X8570Y12024D02*
D03*
X11896D02*
D03*
X7107D02*
D03*
X3780D02*
D03*
X16707D02*
D03*
X13380D02*
D03*
D25*
X9052D02*
D03*
X9524D02*
D03*
X9997D02*
D03*
X10469D02*
D03*
X10942D02*
D03*
X11414D02*
D03*
X6625D02*
D03*
X6152D02*
D03*
X5680D02*
D03*
X5207D02*
D03*
X4735D02*
D03*
X4263D02*
D03*
X16225D02*
D03*
X15752D02*
D03*
X15280D02*
D03*
X14808D02*
D03*
X14335D02*
D03*
X13863D02*
D03*
D26*
X10485Y11748D02*
D03*
X5696D02*
D03*
X15296D02*
D03*
D27*
X10233Y9150D02*
D03*
X5444D02*
D03*
X15044D02*
D03*
D29*
X7171Y17450D02*
D03*
X5917D02*
D03*
X9595Y17150D02*
D03*
X10849D02*
D03*
Y14829D02*
D03*
X9595D02*
D03*
Y16250D02*
D03*
X10849D02*
D03*
X5917Y18350D02*
D03*
X7171D02*
D03*
X16671Y15625D02*
D03*
X15417D02*
D03*
X16671Y17450D02*
D03*
X15417D02*
D03*
X16671Y13850D02*
D03*
X15417D02*
D03*
X13317Y15650D02*
D03*
X14571D02*
D03*
X16671Y14750D02*
D03*
X15417D02*
D03*
X13317D02*
D03*
X14571D02*
D03*
X16671Y16550D02*
D03*
X15417D02*
D03*
X13317D02*
D03*
X14571D02*
D03*
X13317Y17450D02*
D03*
X14571D02*
D03*
X13317Y13850D02*
D03*
X14571D02*
D03*
X5917Y16550D02*
D03*
X7171D02*
D03*
X9595Y13950D02*
D03*
X10849D02*
D03*
D30*
X12628Y11653D02*
D03*
Y12247D02*
D03*
X7836Y11653D02*
D03*
Y12247D02*
D03*
X3000Y11653D02*
D03*
Y12247D02*
D03*
X2994Y11015D02*
D03*
Y10422D02*
D03*
X19594Y7853D02*
D03*
Y8447D02*
D03*
X12628Y10422D02*
D03*
Y11015D02*
D03*
X7836Y10422D02*
D03*
Y11015D02*
D03*
D32*
X8850Y19050D02*
D03*
X8426Y18874D02*
D03*
X8250Y18450D02*
D03*
X8426Y18026D02*
D03*
X8850Y17850D02*
D03*
X9274Y18026D02*
D03*
X9450Y18450D02*
D03*
X9274Y18874D02*
D03*
X10224Y1750D02*
D03*
X9800Y1574D02*
D03*
X9624Y1150D02*
D03*
X9800Y726D02*
D03*
X10224Y550D02*
D03*
X10649Y726D02*
D03*
X10824Y1150D02*
D03*
X10649Y1574D02*
D03*
X6600Y1750D02*
D03*
X6176Y1574D02*
D03*
X6000Y1150D02*
D03*
X6176Y726D02*
D03*
X6600Y550D02*
D03*
X7024Y726D02*
D03*
X7200Y1150D02*
D03*
X7024Y1574D02*
D03*
X14274D02*
D03*
X14450Y1150D02*
D03*
X14274Y726D02*
D03*
X13850Y550D02*
D03*
X13426Y726D02*
D03*
X13250Y1150D02*
D03*
X13426Y1574D02*
D03*
X13850Y1750D02*
D03*
X12024Y18874D02*
D03*
X12200Y18450D02*
D03*
X12024Y18026D02*
D03*
X11600Y17850D02*
D03*
X11176Y18026D02*
D03*
X11000Y18450D02*
D03*
X11176Y18874D02*
D03*
X11600Y19050D02*
D03*
D33*
X8850Y18450D02*
D03*
X10224Y1150D02*
D03*
X6600D02*
D03*
X13850D02*
D03*
X11600Y18450D02*
D03*
D34*
X19685Y18898D02*
D03*
Y787D02*
D03*
X787Y18898D02*
D03*
Y787D02*
D03*
D35*
X9238Y15450D02*
D03*
X11206D02*
D03*
D55*
X4815Y4078D02*
D03*
Y4334D02*
D03*
Y4590D02*
D03*
Y4846D02*
D03*
X7120Y4078D02*
D03*
Y4334D02*
D03*
Y4590D02*
D03*
Y4846D02*
D03*
X9052Y4078D02*
D03*
Y4334D02*
D03*
Y4590D02*
D03*
Y4846D02*
D03*
X11356Y4078D02*
D03*
Y4334D02*
D03*
Y4590D02*
D03*
Y4846D02*
D03*
X13328Y4078D02*
D03*
Y4334D02*
D03*
Y4590D02*
D03*
Y4846D02*
D03*
X15633Y4078D02*
D03*
Y4334D02*
D03*
Y4590D02*
D03*
Y4846D02*
D03*
D56*
X18913Y8700D02*
D03*
X18362D02*
D03*
X14759Y5508D02*
D03*
X14208D02*
D03*
X10483D02*
D03*
X9931D02*
D03*
X6246D02*
D03*
X5695D02*
D03*
M02*
