G04*
G04 #@! TF.GenerationSoftware,Altium Limited,Altium Designer,22.0.2 (36)*
G04*
G04 Layer_Color=16711935*
%FSLAX24Y24*%
%MOIN*%
G70*
G04*
G04 #@! TF.SameCoordinates,D7CE2511-F244-4390-A2D0-A891EFF9428C*
G04*
G04*
G04 #@! TF.FilePolarity,Negative*
G04*
G01*
G75*
%ADD10C,0.0100*%
%ADD15C,0.0002*%
%ADD23R,0.0434X0.0395*%
%ADD24O,0.0328X0.0814*%
%ADD25R,0.0358X0.0380*%
%ADD27R,0.0380X0.0358*%
%ADD31R,0.0720X0.0625*%
%ADD33O,0.0512X0.0748*%
%ADD34O,0.0512X0.0827*%
%ADD35C,0.0592*%
%ADD36C,0.1104*%
%ADD87O,0.0789X0.0198*%
%ADD88O,0.0198X0.0789*%
%ADD89R,0.0276X0.0472*%
%ADD90R,0.0157X0.0472*%
%ADD91R,0.0395X0.0434*%
%ADD92R,0.1458X0.0552*%
%ADD93R,0.1458X0.0867*%
%ADD94R,0.0867X0.1458*%
%ADD95R,0.0552X0.1458*%
%ADD96R,0.0915X0.0631*%
%ADD97O,0.0789X0.0316*%
%ADD98R,0.0982X0.0982*%
%ADD99R,0.0552X0.0592*%
%ADD100R,0.0595X0.0572*%
%ADD101R,0.1043X0.1043*%
%ADD102R,0.0301X0.0150*%
%ADD103R,0.0150X0.0301*%
%ADD104R,0.0375X0.0474*%
%ADD105R,0.0276X0.0461*%
%ADD106R,0.0474X0.1261*%
%ADD107R,0.0474X0.0375*%
%ADD108R,0.0572X0.0595*%
%ADD109R,0.0470X0.0289*%
%ADD110R,0.0536X0.0273*%
%ADD111R,0.0543X0.0273*%
%ADD112R,0.0827X0.0827*%
%ADD113O,0.0867X0.0218*%
%ADD114R,0.0474X0.0710*%
%ADD115R,0.0315X0.0748*%
%ADD116R,0.0433X0.1102*%
D10*
X387Y19685D02*
G03*
X-6Y19291I0J-394D01*
G01*
Y394D02*
G03*
X387Y0I394J0D01*
G01*
X20072D02*
G03*
X20466Y394I0J394D01*
G01*
Y19291D02*
G03*
X20072Y19685I-394J0D01*
G01*
X7687Y13780D02*
G03*
X8081Y13386I394J0D01*
G01*
X12395D02*
G03*
X12789Y13780I0J394D01*
G01*
X13183Y19685D02*
G03*
X12789Y19291I0J-394D01*
G01*
X7687D02*
G03*
X7294Y19685I-394J0D01*
G01*
X-6Y394D02*
Y19291D01*
X20466Y394D02*
Y19291D01*
X387Y19685D02*
X7294Y19685D01*
X387Y0D02*
X20072D01*
X13183Y19685D02*
X20072D01*
X8082Y13386D02*
X12395D01*
X12789Y13770D02*
Y19306D01*
X7687Y13782D02*
Y19291D01*
D15*
X2629Y2564D02*
G03*
X2629Y2564I-138J0D01*
G01*
X4904D02*
G03*
X4904Y2564I-138J0D01*
G01*
D23*
X14387Y2276D02*
D03*
Y1724D02*
D03*
X1200Y2426D02*
D03*
Y1874D02*
D03*
X3537Y7576D02*
D03*
Y7024D02*
D03*
X8287Y9624D02*
D03*
Y10176D02*
D03*
Y11376D02*
D03*
Y10824D02*
D03*
X15087Y2276D02*
D03*
Y1724D02*
D03*
X12187D02*
D03*
Y2276D02*
D03*
X11487Y1724D02*
D03*
Y2276D02*
D03*
X6487Y7274D02*
D03*
Y7826D02*
D03*
D24*
X5200Y15956D02*
D03*
X5700D02*
D03*
X6200D02*
D03*
X6700D02*
D03*
X5200Y13844D02*
D03*
X5700D02*
D03*
X6200D02*
D03*
X6700D02*
D03*
D25*
X15203Y12842D02*
D03*
X15797D02*
D03*
X15203Y13826D02*
D03*
X15797D02*
D03*
X15203Y11858D02*
D03*
X15797D02*
D03*
X8241Y7700D02*
D03*
X8834D02*
D03*
Y8250D02*
D03*
X8241D02*
D03*
X8834Y8800D02*
D03*
X8241D02*
D03*
X13397Y13000D02*
D03*
X12803D02*
D03*
X16897Y3500D02*
D03*
X16303D02*
D03*
X14606Y403D02*
D03*
X14013D02*
D03*
X10191Y850D02*
D03*
X10784D02*
D03*
X4847Y12822D02*
D03*
X5440D02*
D03*
X4847Y11837D02*
D03*
X5440D02*
D03*
X4847Y10850D02*
D03*
X5440D02*
D03*
X5141Y9600D02*
D03*
X5734D02*
D03*
X10584Y11000D02*
D03*
X9991D02*
D03*
D27*
X550Y3053D02*
D03*
Y3647D02*
D03*
X12131Y10447D02*
D03*
Y9853D02*
D03*
X12150Y13011D02*
D03*
Y12418D02*
D03*
X15328Y16747D02*
D03*
Y16153D02*
D03*
X16322Y16747D02*
D03*
Y16153D02*
D03*
X19850Y7347D02*
D03*
Y6753D02*
D03*
X15237Y1000D02*
D03*
Y407D02*
D03*
X10787Y1453D02*
D03*
Y2047D02*
D03*
X6700Y17447D02*
D03*
Y16853D02*
D03*
X1200Y3647D02*
D03*
Y3053D02*
D03*
D31*
X6587Y2377D02*
D03*
Y1123D02*
D03*
D33*
X1926Y1115D02*
D03*
X5331D02*
D03*
D34*
X1926Y2769D02*
D03*
X5331D02*
D03*
D35*
X2200Y10875D02*
D03*
Y11850D02*
D03*
Y12825D02*
D03*
Y13800D02*
D03*
Y9900D02*
D03*
D36*
X19685Y787D02*
D03*
X787D02*
D03*
X19685Y18898D02*
D03*
X787D02*
D03*
D87*
X15332Y7705D02*
D03*
X15332Y7508D02*
D03*
Y7311D02*
D03*
Y7114D02*
D03*
Y6917D02*
D03*
Y6720D02*
D03*
Y6524D02*
D03*
Y6327D02*
D03*
Y6130D02*
D03*
Y5933D02*
D03*
Y5736D02*
D03*
X15332Y5539D02*
D03*
Y5343D02*
D03*
X15332Y5146D02*
D03*
Y4949D02*
D03*
Y4752D02*
D03*
X10962D02*
D03*
Y4949D02*
D03*
Y5146D02*
D03*
Y5343D02*
D03*
Y5539D02*
D03*
X10962Y5736D02*
D03*
Y5933D02*
D03*
Y6130D02*
D03*
X10962Y6327D02*
D03*
Y6524D02*
D03*
Y6720D02*
D03*
Y6917D02*
D03*
Y7114D02*
D03*
X10962Y7311D02*
D03*
Y7508D02*
D03*
X10962Y7705D02*
D03*
D88*
X14624Y4043D02*
D03*
X14427D02*
D03*
X14230D02*
D03*
X14033Y4043D02*
D03*
X13836D02*
D03*
X13639Y4043D02*
D03*
X13443D02*
D03*
X13246D02*
D03*
X13049D02*
D03*
X12852D02*
D03*
X12655D02*
D03*
X12458D02*
D03*
X12261D02*
D03*
X12065D02*
D03*
X11868D02*
D03*
X11671D02*
D03*
X11671Y8413D02*
D03*
X11868Y8413D02*
D03*
X12065D02*
D03*
X12261Y8413D02*
D03*
X12458D02*
D03*
X12655D02*
D03*
X12852D02*
D03*
X13049D02*
D03*
X13246Y8413D02*
D03*
X13443D02*
D03*
X13639Y8413D02*
D03*
X13836D02*
D03*
X14033D02*
D03*
X14230D02*
D03*
X14427D02*
D03*
X14624D02*
D03*
D89*
X2369Y2985D02*
D03*
X2684D02*
D03*
X4574D02*
D03*
X4889D02*
D03*
D90*
X2940D02*
D03*
X3137D02*
D03*
X3333D02*
D03*
X3530D02*
D03*
X3727D02*
D03*
X3924D02*
D03*
X4121D02*
D03*
X4318D02*
D03*
D91*
X4474Y8150D02*
D03*
X5026D02*
D03*
X4226Y14700D02*
D03*
X3674D02*
D03*
X9412Y3650D02*
D03*
X9963D02*
D03*
X18324Y7950D02*
D03*
X18876D02*
D03*
X6676Y13100D02*
D03*
X6124D02*
D03*
X9512Y8000D02*
D03*
X10063D02*
D03*
X9512Y7350D02*
D03*
X10063D02*
D03*
X8262Y6450D02*
D03*
X8813D02*
D03*
X8262Y7150D02*
D03*
X8813D02*
D03*
X14242Y9479D02*
D03*
X14793D02*
D03*
X18876Y7250D02*
D03*
X18324D02*
D03*
X16854Y4150D02*
D03*
X16302D02*
D03*
X14613Y3050D02*
D03*
X14062D02*
D03*
X14037Y1053D02*
D03*
X14588D02*
D03*
X10762Y3048D02*
D03*
X11313D02*
D03*
X12507Y3050D02*
D03*
X11956D02*
D03*
X5713Y10250D02*
D03*
X5162D02*
D03*
D92*
X16920Y9889D02*
D03*
Y10874D02*
D03*
Y11858D02*
D03*
Y12842D02*
D03*
Y13826D02*
D03*
Y14811D02*
D03*
X3555Y13819D02*
D03*
Y12834D02*
D03*
Y11850D02*
D03*
Y10866D02*
D03*
Y9882D02*
D03*
D93*
X19728Y8678D02*
D03*
Y16022D02*
D03*
X747Y15030D02*
D03*
Y8670D02*
D03*
D94*
X5554Y18896D02*
D03*
X2146D02*
D03*
D95*
X4342Y16089D02*
D03*
X3358D02*
D03*
D96*
X8200Y3602D02*
D03*
Y5198D02*
D03*
D97*
X9829Y2950D02*
D03*
Y2450D02*
D03*
Y1950D02*
D03*
Y1450D02*
D03*
X7646Y2950D02*
D03*
Y2450D02*
D03*
Y1950D02*
D03*
Y1450D02*
D03*
D98*
X8737Y2200D02*
D03*
D99*
X16865Y8013D02*
D03*
Y7187D02*
D03*
X17535D02*
D03*
Y8013D02*
D03*
D100*
X5144Y4850D02*
D03*
X4356D02*
D03*
D101*
X5030Y6401D02*
D03*
D102*
X5781Y5909D02*
D03*
Y6106D02*
D03*
Y6303D02*
D03*
Y6499D02*
D03*
Y6696D02*
D03*
Y6893D02*
D03*
X4279D02*
D03*
Y6696D02*
D03*
Y6499D02*
D03*
Y6303D02*
D03*
Y6106D02*
D03*
Y5909D02*
D03*
D103*
X5522Y7152D02*
D03*
X5325D02*
D03*
X5128D02*
D03*
X4931D02*
D03*
X4734D02*
D03*
X4537D02*
D03*
Y5650D02*
D03*
X4734D02*
D03*
X4931D02*
D03*
X5128D02*
D03*
X5325D02*
D03*
X5522D02*
D03*
D104*
X2800Y7576D02*
D03*
Y8499D02*
D03*
X6487Y6601D02*
D03*
Y5678D02*
D03*
D105*
X9811Y9783D02*
D03*
X9063D02*
D03*
X9437Y10755D02*
D03*
X11137D02*
D03*
X10763Y9783D02*
D03*
X11511D02*
D03*
D106*
X12785Y10550D02*
D03*
X13690D02*
D03*
D107*
X11169Y11600D02*
D03*
X12093D02*
D03*
X5249Y8944D02*
D03*
X4326D02*
D03*
D108*
X10481Y12544D02*
D03*
Y11756D02*
D03*
D109*
X12799Y11626D02*
D03*
Y12000D02*
D03*
Y12374D02*
D03*
X13701D02*
D03*
Y12000D02*
D03*
Y11626D02*
D03*
D110*
X12833Y1626D02*
D03*
Y2000D02*
D03*
Y2374D02*
D03*
D111*
X13742D02*
D03*
Y1626D02*
D03*
D112*
X5100Y3900D02*
D03*
X6911D02*
D03*
D113*
X2714Y6287D02*
D03*
Y5972D02*
D03*
Y5657D02*
D03*
Y5343D02*
D03*
Y5028D02*
D03*
Y4713D02*
D03*
X1061Y6287D02*
D03*
Y5972D02*
D03*
Y5657D02*
D03*
Y5343D02*
D03*
Y5028D02*
D03*
Y4713D02*
D03*
X19409Y6287D02*
D03*
Y5972D02*
D03*
Y5657D02*
D03*
Y5343D02*
D03*
Y5028D02*
D03*
Y4713D02*
D03*
X17756Y6287D02*
D03*
Y5972D02*
D03*
Y5657D02*
D03*
Y5343D02*
D03*
Y5028D02*
D03*
Y4713D02*
D03*
D114*
X17766Y548D02*
D03*
Y2752D02*
D03*
X16309Y548D02*
D03*
Y2752D02*
D03*
D115*
X15087Y17761D02*
D03*
X15579D02*
D03*
X16071D02*
D03*
X16563D02*
D03*
D116*
X14366Y19139D02*
D03*
X17283Y19139D02*
D03*
M02*
