G04*
G04 #@! TF.GenerationSoftware,Altium Limited,Altium Designer,22.0.2 (36)*
G04*
G04 Layer_Color=128*
%FSLAX24Y24*%
%MOIN*%
G70*
G04*
G04 #@! TF.SameCoordinates,D7CE2511-F244-4390-A2D0-A891EFF9428C*
G04*
G04*
G04 #@! TF.FilePolarity,Positive*
G04*
G01*
G75*
%ADD10C,0.0100*%
%ADD15C,0.0002*%
%ADD125C,0.0020*%
D10*
X387Y19685D02*
G03*
X-6Y19291I0J-394D01*
G01*
Y394D02*
G03*
X387Y0I394J0D01*
G01*
X20072D02*
G03*
X20466Y394I0J394D01*
G01*
Y19291D02*
G03*
X20072Y19685I-394J0D01*
G01*
X7687Y13780D02*
G03*
X8081Y13386I394J0D01*
G01*
X12395D02*
G03*
X12789Y13780I0J394D01*
G01*
X13183Y19685D02*
G03*
X12789Y19291I0J-394D01*
G01*
X7687D02*
G03*
X7294Y19685I-394J0D01*
G01*
X-6Y394D02*
Y19291D01*
X20466Y394D02*
Y19291D01*
X387Y19685D02*
X7294Y19685D01*
X387Y0D02*
X20072D01*
X13183Y19685D02*
X20072D01*
X8082Y13386D02*
X12395D01*
X12789Y13770D02*
Y19306D01*
X7687Y13782D02*
Y19291D01*
D15*
X2629Y2564D02*
G03*
X2629Y2564I-138J0D01*
G01*
X4904D02*
G03*
X4904Y2564I-138J0D01*
G01*
D125*
X1808Y1115D02*
X2044D01*
X1926Y997D02*
Y1233D01*
X5213Y1115D02*
X5450D01*
X5331Y997D02*
Y1233D01*
X1808Y2769D02*
X2044D01*
X1926Y2650D02*
Y2887D01*
X5213Y2769D02*
X5450D01*
X5331Y2650D02*
Y2887D01*
X2023Y10875D02*
X2377D01*
X2200Y10698D02*
Y11052D01*
X2023Y11850D02*
X2377D01*
X2200Y11673D02*
Y12027D01*
X2023Y12825D02*
X2377D01*
X2200Y12648D02*
Y13002D01*
X2023Y13800D02*
X2377D01*
X2200Y13623D02*
Y13977D01*
X2023Y9900D02*
X2377D01*
X2200Y9723D02*
Y10077D01*
X19252Y787D02*
X20118D01*
X19685Y354D02*
Y1220D01*
X354Y787D02*
X1220D01*
X787Y354D02*
Y1220D01*
X19252Y18898D02*
X20118D01*
X19685Y18465D02*
Y19331D01*
X354Y18898D02*
X1220D01*
X787Y18465D02*
Y19331D01*
X3090Y1950D02*
X3210D01*
X3150Y1890D02*
Y2010D01*
X3140Y3850D02*
X3260D01*
X3200Y3790D02*
Y3910D01*
X3340Y8600D02*
X3460D01*
X3400Y8540D02*
Y8660D01*
X2040Y7700D02*
X2160D01*
X2100Y7640D02*
Y7760D01*
X13640Y7500D02*
X13760D01*
X13700Y7440D02*
Y7560D01*
X2290Y1639D02*
X2410D01*
X2350Y1579D02*
Y1699D01*
X790Y2426D02*
X910D01*
X850Y2366D02*
Y2486D01*
X1853Y2150D02*
X1973D01*
X1913Y2090D02*
Y2210D01*
X13720Y10950D02*
X13980D01*
X13850Y10820D02*
Y11080D01*
X5048Y7600D02*
X5208D01*
X5128Y7520D02*
Y7680D01*
X1820Y6950D02*
X1980D01*
X1900Y6870D02*
Y7030D01*
X8440Y850D02*
X8560D01*
X8500Y790D02*
Y910D01*
X4690Y18250D02*
X4810D01*
X4750Y18190D02*
Y18310D01*
X2640Y18200D02*
X2760D01*
X2700Y18140D02*
Y18260D01*
X1140Y16150D02*
X1260D01*
X1200Y16090D02*
Y16210D01*
X1140Y16900D02*
X1260D01*
X1200Y16840D02*
Y16960D01*
X10359Y7269D02*
X10479D01*
X10419Y7209D02*
Y7329D01*
X10391Y6995D02*
X10511D01*
X10451Y6935D02*
Y7055D01*
X17475Y6769D02*
X17595D01*
X17535Y6709D02*
Y6829D01*
X16805Y8450D02*
X16925D01*
X16865Y8390D02*
Y8510D01*
X20090Y6150D02*
X20210D01*
X20150Y6090D02*
Y6210D01*
X7040Y2450D02*
X7160D01*
X7100Y2390D02*
Y2510D01*
X5940Y2250D02*
X6060D01*
X6000Y2190D02*
Y2310D01*
X5940Y2500D02*
X6060D01*
X6000Y2440D02*
Y2560D01*
X5940Y2750D02*
X6060D01*
X6000Y2690D02*
Y2810D01*
X2799Y1650D02*
X2959D01*
X2879Y1570D02*
Y1730D01*
X4319Y2100D02*
X4439D01*
X4379Y2040D02*
Y2160D01*
X4494Y3350D02*
X4654D01*
X4574Y3270D02*
Y3430D01*
X5271Y2150D02*
X5391D01*
X5331Y2090D02*
Y2210D01*
X11890Y7250D02*
X12010D01*
X11950Y7190D02*
Y7310D01*
X12390Y7450D02*
X12510D01*
X12450Y7390D02*
Y7510D01*
X14440Y6450D02*
X14560D01*
X14500Y6390D02*
Y6510D01*
X14540Y5685D02*
X14660D01*
X14600Y5625D02*
Y5745D01*
X3819Y2300D02*
X3939D01*
X3879Y2240D02*
Y2360D01*
X3864Y3350D02*
X3984D01*
X3924Y3290D02*
Y3410D01*
X3470Y3350D02*
X3590D01*
X3530Y3290D02*
Y3410D01*
X3640Y15250D02*
X3760D01*
X3700Y15190D02*
Y15310D01*
X3940Y15250D02*
X4060D01*
X4000Y15190D02*
Y15310D01*
X4260Y4250D02*
X4440D01*
X4350Y4160D02*
Y4340D01*
X7790Y8218D02*
X7910D01*
X7850Y8158D02*
Y8278D01*
X6490Y14350D02*
X6610D01*
X6550Y14290D02*
Y14410D01*
X5290Y14350D02*
X5410D01*
X5350Y14290D02*
Y14410D01*
X10090Y6100D02*
X10210D01*
X10150Y6040D02*
Y6160D01*
X10290Y5900D02*
X10410D01*
X10350Y5840D02*
Y5960D01*
X9890Y6300D02*
X10010D01*
X9950Y6240D02*
Y6360D01*
X3190Y14700D02*
X3310D01*
X3250Y14640D02*
Y14760D01*
X6990Y13100D02*
X7110D01*
X7050Y13040D02*
Y13160D01*
X6640Y17800D02*
X6760D01*
X6700Y17740D02*
Y17860D01*
X5990Y16600D02*
X6110D01*
X6050Y16540D02*
Y16660D01*
X5281Y16941D02*
X5401D01*
X5341Y16881D02*
Y17001D01*
X16890Y17750D02*
X17010D01*
X16950Y17690D02*
Y17810D01*
X8420Y4650D02*
X8680D01*
X8550Y4520D02*
Y4780D01*
X7540Y4650D02*
X7660D01*
X7600Y4590D02*
Y4710D01*
X7740Y4850D02*
X7860D01*
X7800Y4790D02*
Y4910D01*
X7540Y4850D02*
X7660D01*
X7600Y4790D02*
Y4910D01*
X15890Y9250D02*
X16010D01*
X15950Y9190D02*
Y9310D01*
X15890Y8150D02*
X16010D01*
X15950Y8090D02*
Y8210D01*
X15590Y12400D02*
X15710D01*
X15650Y12340D02*
Y12460D01*
X15140Y12250D02*
X15260D01*
X15200Y12190D02*
Y12310D01*
X15140Y13400D02*
X15260D01*
X15200Y13340D02*
Y13460D01*
X13140Y12250D02*
X13260D01*
X13200Y12190D02*
Y12310D01*
X8481Y2397D02*
X8601D01*
X8541Y2337D02*
Y2457D01*
X8874Y2397D02*
X8994D01*
X8934Y2337D02*
Y2457D01*
X8874Y2003D02*
X8994D01*
X8934Y1943D02*
Y2063D01*
X8481Y2003D02*
X8601D01*
X8541Y1943D02*
Y2063D01*
X4642Y10152D02*
X4762D01*
X4702Y10092D02*
Y10212D01*
X6039Y9882D02*
X6159D01*
X6099Y9822D02*
Y9942D01*
X6063Y9623D02*
X6183D01*
X6123Y9563D02*
Y9683D01*
X5090Y11550D02*
X5210D01*
X5150Y11490D02*
Y11610D01*
X5940Y10250D02*
X6060D01*
X6000Y10190D02*
Y10310D01*
X4100Y8586D02*
X4300D01*
X4200Y8486D02*
Y8686D01*
X17090Y16300D02*
X17210D01*
X17150Y16240D02*
Y16360D01*
X18640Y15750D02*
X18760D01*
X18700Y15690D02*
Y15810D01*
X18640Y16650D02*
X18760D01*
X18700Y16590D02*
Y16710D01*
X6840Y6300D02*
X6960D01*
X6900Y6240D02*
Y6360D01*
X6940Y7250D02*
X7160D01*
X7050Y7140D02*
Y7360D01*
X6440Y4950D02*
X6660D01*
X6550Y4840D02*
Y5060D01*
X12201Y4600D02*
X12321D01*
X12261Y4540D02*
Y4660D01*
X12590Y4600D02*
X12710D01*
X12650Y4540D02*
Y4660D01*
X10890Y11950D02*
X11010D01*
X10950Y11890D02*
Y12010D01*
X14440Y11900D02*
X14560D01*
X14500Y11840D02*
Y11960D01*
X12335Y11950D02*
X12455D01*
X12395Y11890D02*
Y12010D01*
X14340Y11600D02*
X14460D01*
X14400Y11540D02*
Y11660D01*
X9790Y850D02*
X9910D01*
X9850Y790D02*
Y910D01*
X13340Y13350D02*
X13460D01*
X13400Y13290D02*
Y13410D01*
X14490Y4600D02*
X14610D01*
X14550Y4540D02*
Y4660D01*
X12540Y7000D02*
X12660D01*
X12600Y6940D02*
Y7060D01*
X19090Y12250D02*
X19210D01*
X19150Y12190D02*
Y12310D01*
X19090Y11650D02*
X19210D01*
X19150Y11590D02*
Y11710D01*
X19090Y11000D02*
X19210D01*
X19150Y10940D02*
Y11060D01*
X590Y14400D02*
X710D01*
X650Y14340D02*
Y14460D01*
X14690Y2276D02*
X14810D01*
X14750Y2216D02*
Y2336D01*
X15540Y1000D02*
X15660D01*
X15600Y940D02*
Y1060D01*
X13640Y1050D02*
X13760D01*
X13700Y990D02*
Y1110D01*
X15140Y1350D02*
X15260D01*
X15200Y1290D02*
Y1410D01*
X15050Y3268D02*
X15170D01*
X15110Y3208D02*
Y3328D01*
X14840Y3050D02*
X14960D01*
X14900Y2990D02*
Y3110D01*
X7731Y10641D02*
X7851D01*
X7791Y10581D02*
Y10701D01*
X7760Y10150D02*
X7940D01*
X7850Y10060D02*
Y10240D01*
X20090Y7350D02*
X20210D01*
X20150Y7290D02*
Y7410D01*
X19690Y4450D02*
X19810D01*
X19750Y4390D02*
Y4510D01*
X19140Y4450D02*
X19260D01*
X19200Y4390D02*
Y4510D01*
X18790Y4750D02*
X18910D01*
X18850Y4690D02*
Y4810D01*
X18790Y5050D02*
X18910D01*
X18850Y4990D02*
Y5110D01*
X18790Y5350D02*
X18910D01*
X18850Y5290D02*
Y5410D01*
X20040Y4750D02*
X20160D01*
X20100Y4690D02*
Y4810D01*
X20040Y5050D02*
X20160D01*
X20100Y4990D02*
Y5110D01*
X20040Y5350D02*
X20160D01*
X20100Y5290D02*
Y5410D01*
X12110Y1300D02*
X12290D01*
X12200Y1210D02*
Y1390D01*
X11410Y1300D02*
X11590D01*
X11500Y1210D02*
Y1390D01*
X17190Y4550D02*
X17310D01*
X17250Y4490D02*
Y4610D01*
X3870Y6800D02*
X4030D01*
X3950Y6720D02*
Y6880D01*
X4170Y7250D02*
X4330D01*
X4250Y7170D02*
Y7330D01*
X6011Y6450D02*
X6131D01*
X6071Y6390D02*
Y6510D01*
X7890Y11376D02*
X8010D01*
X7950Y11316D02*
Y11436D01*
X15340Y2000D02*
X15460D01*
X15400Y1940D02*
Y2060D01*
X14110Y13500D02*
X14290D01*
X14200Y13410D02*
Y13590D01*
X9240Y7100D02*
X9360D01*
X9300Y7040D02*
Y7160D01*
X7840Y6550D02*
X7960D01*
X7900Y6490D02*
Y6610D01*
X4450Y9350D02*
X4650D01*
X4550Y9250D02*
Y9450D01*
X9200Y6650D02*
X9500D01*
X9350Y6500D02*
Y6800D01*
X16262Y15650D02*
X16382D01*
X16322Y15590D02*
Y15710D01*
X15268Y15650D02*
X15388D01*
X15328Y15590D02*
Y15710D01*
X11290Y8750D02*
X11410D01*
X11350Y8690D02*
Y8810D01*
X11440Y7300D02*
X11560D01*
X11500Y7240D02*
Y7360D01*
X11849Y6091D02*
X11969D01*
X11909Y6031D02*
Y6151D01*
X11190Y3350D02*
X11310D01*
X11250Y3290D02*
Y3410D01*
X10790Y3350D02*
X10910D01*
X10850Y3290D02*
Y3410D01*
X13690Y3050D02*
X13810D01*
X13750Y2990D02*
Y3110D01*
X12790Y3050D02*
X12910D01*
X12850Y2990D02*
Y3110D01*
X10940Y2450D02*
X11160D01*
X11050Y2340D02*
Y2560D01*
X12398Y9350D02*
X12518D01*
X12458Y9290D02*
Y9410D01*
X12595Y9550D02*
X12715D01*
X12655Y9490D02*
Y9610D01*
X3490Y14250D02*
X3610D01*
X3550Y14190D02*
Y14310D01*
X11890Y6400D02*
X12010D01*
X11950Y6340D02*
Y6460D01*
X11790Y5800D02*
X11910D01*
X11850Y5740D02*
Y5860D01*
X5090Y12550D02*
X5210D01*
X5150Y12490D02*
Y12610D01*
X5090Y11150D02*
X5210D01*
X5150Y11090D02*
Y11210D01*
X12201Y9150D02*
X12321D01*
X12261Y9090D02*
Y9210D01*
X12005Y8950D02*
X12125D01*
X12065Y8890D02*
Y9010D01*
X7790Y8494D02*
X7910D01*
X7850Y8434D02*
Y8554D01*
X7790Y9320D02*
X7910D01*
X7850Y9260D02*
Y9380D01*
X7790Y9045D02*
X7910D01*
X7850Y8985D02*
Y9105D01*
X7790Y8769D02*
X7910D01*
X7850Y8709D02*
Y8829D01*
X7840Y7150D02*
X7960D01*
X7900Y7090D02*
Y7210D01*
X9140Y8000D02*
X9260D01*
X9200Y7940D02*
Y8060D01*
X14590Y5950D02*
X14710D01*
X14650Y5890D02*
Y6010D01*
X14540Y5200D02*
X14660D01*
X14600Y5140D02*
Y5260D01*
X16040Y10850D02*
X16160D01*
X16100Y10790D02*
Y10910D01*
X16840Y9450D02*
X16960D01*
X16900Y9390D02*
Y9510D01*
X15785Y6095D02*
X15905D01*
X15845Y6035D02*
Y6155D01*
X16240Y4500D02*
X16360D01*
X16300Y4440D02*
Y4560D01*
X15990Y6524D02*
X16110D01*
X16050Y6464D02*
Y6584D01*
X4540Y3900D02*
X4660D01*
X4600Y3840D02*
Y3960D01*
X5790Y5400D02*
X5910D01*
X5850Y5340D02*
Y5460D01*
X6090Y5400D02*
X6210D01*
X6150Y5340D02*
Y5460D01*
X12398Y4800D02*
X12518D01*
X12458Y4740D02*
Y4860D01*
X12792Y4850D02*
X12912D01*
X12852Y4790D02*
Y4910D01*
X375Y5350D02*
X535D01*
X455Y5270D02*
Y5430D01*
X5920Y8100D02*
X6080D01*
X6000Y8020D02*
Y8180D01*
X1970Y4650D02*
X2130D01*
X2050Y4570D02*
Y4730D01*
X1670Y4350D02*
X1830D01*
X1750Y4270D02*
Y4430D01*
X5920Y7300D02*
X6080D01*
X6000Y7220D02*
Y7380D01*
X1920Y5000D02*
X2080D01*
X2000Y4920D02*
Y5080D01*
X1770Y5650D02*
X1930D01*
X1850Y5570D02*
Y5730D01*
X1620Y5950D02*
X1780D01*
X1700Y5870D02*
Y6030D01*
X1520Y5350D02*
X1680D01*
X1600Y5270D02*
Y5430D01*
X3620Y6500D02*
X3780D01*
X3700Y6420D02*
Y6580D01*
X3870Y6245D02*
X4030D01*
X3950Y6165D02*
Y6325D01*
X1257Y4358D02*
X1533D01*
X1395Y4220D02*
Y4496D01*
X1257Y6642D02*
X1533D01*
X1395Y6504D02*
Y6780D01*
X1820Y6300D02*
X1980D01*
X1900Y6220D02*
Y6380D01*
X1820Y6650D02*
X1980D01*
X1900Y6570D02*
Y6730D01*
X17952Y4358D02*
X18228D01*
X18090Y4220D02*
Y4496D01*
X17952Y6642D02*
X18228D01*
X18090Y6504D02*
Y6780D01*
M02*
