G04*
G04 #@! TF.GenerationSoftware,Altium Limited,Altium Designer,22.0.2 (36)*
G04*
G04 Layer_Physical_Order=3*
G04 Layer_Color=16440176*
%FSLAX24Y24*%
%MOIN*%
G70*
G04*
G04 #@! TF.SameCoordinates,D7CE2511-F244-4390-A2D0-A891EFF9428C*
G04*
G04*
G04 #@! TF.FilePolarity,Positive*
G04*
G01*
G75*
%ADD10C,0.0100*%
%ADD12C,0.0060*%
%ADD15C,0.0002*%
%ADD40C,0.0150*%
%ADD45C,0.0512*%
%ADD47C,0.0200*%
%ADD48C,0.0420*%
%ADD49C,0.0240*%
%ADD51C,0.0460*%
%ADD52C,0.0300*%
%ADD53C,0.0360*%
%ADD55C,0.0250*%
G36*
X3614Y6416D02*
X3612Y6418D01*
X3608Y6419D01*
X3603Y6421D01*
X3597Y6422D01*
X3590Y6423D01*
X3571Y6424D01*
X3534Y6425D01*
Y6575D01*
X3548Y6575D01*
X3597Y6578D01*
X3603Y6579D01*
X3608Y6581D01*
X3612Y6582D01*
X3614Y6584D01*
Y6416D01*
D02*
G37*
G36*
X6151Y6512D02*
X6159Y6506D01*
X6167Y6500D01*
X6175Y6494D01*
X6183Y6490D01*
X6192Y6486D01*
X6200Y6484D01*
X6209Y6482D01*
X6218Y6480D01*
X6227Y6480D01*
Y6420D01*
X6218Y6420D01*
X6209Y6418D01*
X6200Y6416D01*
X6192Y6414D01*
X6183Y6410D01*
X6175Y6406D01*
X6167Y6400D01*
X6159Y6394D01*
X6151Y6388D01*
X6143Y6380D01*
Y6520D01*
X6151Y6512D01*
D02*
G37*
G36*
X3864Y6161D02*
X3862Y6163D01*
X3858Y6164D01*
X3853Y6166D01*
X3847Y6167D01*
X3840Y6168D01*
X3821Y6169D01*
X3784Y6170D01*
Y6320D01*
X3798Y6320D01*
X3847Y6323D01*
X3853Y6324D01*
X3858Y6326D01*
X3862Y6327D01*
X3864Y6329D01*
Y6161D01*
D02*
G37*
G36*
X1788Y6032D02*
X1792Y6031D01*
X1797Y6029D01*
X1803Y6028D01*
X1810Y6027D01*
X1829Y6026D01*
X1866Y6025D01*
Y5875D01*
X1852Y5875D01*
X1803Y5872D01*
X1797Y5871D01*
X1792Y5869D01*
X1788Y5868D01*
X1786Y5866D01*
Y6034D01*
X1788Y6032D01*
D02*
G37*
G36*
X1938Y5732D02*
X1942Y5731D01*
X1947Y5729D01*
X1953Y5728D01*
X1960Y5727D01*
X1979Y5726D01*
X2016Y5725D01*
Y5575D01*
X2002Y5575D01*
X1953Y5572D01*
X1947Y5571D01*
X1942Y5569D01*
X1938Y5568D01*
X1936Y5566D01*
Y5734D01*
X1938Y5732D01*
D02*
G37*
G36*
X530Y5502D02*
X533Y5453D01*
X534Y5447D01*
X536Y5442D01*
X537Y5438D01*
X539Y5436D01*
X371D01*
X373Y5438D01*
X374Y5442D01*
X376Y5447D01*
X377Y5453D01*
X378Y5460D01*
X379Y5479D01*
X380Y5516D01*
X530D01*
X530Y5502D01*
D02*
G37*
G36*
X5981Y5489D02*
X5975Y5482D01*
X5970Y5475D01*
X5965Y5467D01*
X5961Y5459D01*
X5957Y5451D01*
X5955Y5442D01*
X5953Y5432D01*
X5951Y5422D01*
X5950Y5412D01*
X5950Y5401D01*
X5851Y5500D01*
X5862Y5500D01*
X5872Y5501D01*
X5882Y5503D01*
X5892Y5505D01*
X5901Y5507D01*
X5909Y5511D01*
X5917Y5515D01*
X5925Y5520D01*
X5932Y5525D01*
X5939Y5531D01*
X5981Y5489D01*
D02*
G37*
G36*
X6229Y5462D02*
X6237Y5456D01*
X6245Y5450D01*
X6254Y5444D01*
X6262Y5440D01*
X6270Y5436D01*
X6279Y5434D01*
X6288Y5432D01*
X6296Y5430D01*
X6305Y5430D01*
Y5370D01*
X6296Y5370D01*
X6288Y5368D01*
X6279Y5366D01*
X6270Y5364D01*
X6262Y5360D01*
X6254Y5356D01*
X6245Y5350D01*
X6237Y5344D01*
X6229Y5338D01*
X6221Y5330D01*
Y5470D01*
X6229Y5462D01*
D02*
G37*
G36*
X1693Y5426D02*
X1697Y5425D01*
X1702Y5423D01*
X1708Y5421D01*
X1716Y5420D01*
X1734Y5419D01*
X1758Y5418D01*
X1771Y5418D01*
X1759Y5268D01*
X1746Y5267D01*
X1691Y5264D01*
X1686Y5263D01*
X1682Y5262D01*
X1680Y5261D01*
X1691Y5428D01*
X1693Y5426D01*
D02*
G37*
G36*
X2088Y5082D02*
X2092Y5081D01*
X2097Y5079D01*
X2103Y5078D01*
X2110Y5077D01*
X2129Y5076D01*
X2166Y5075D01*
Y4925D01*
X2152Y4925D01*
X2103Y4922D01*
X2097Y4921D01*
X2092Y4919D01*
X2088Y4918D01*
X2086Y4916D01*
Y5084D01*
X2088Y5082D01*
D02*
G37*
G36*
X2138Y4732D02*
X2142Y4731D01*
X2147Y4729D01*
X2153Y4728D01*
X2160Y4727D01*
X2179Y4726D01*
X2216Y4725D01*
Y4575D01*
X2202Y4575D01*
X2153Y4572D01*
X2147Y4571D01*
X2142Y4569D01*
X2138Y4568D01*
X2136Y4566D01*
Y4734D01*
X2138Y4732D01*
D02*
G37*
G36*
X1838Y4432D02*
X1842Y4431D01*
X1847Y4429D01*
X1853Y4428D01*
X1860Y4427D01*
X1879Y4426D01*
X1916Y4425D01*
Y4275D01*
X1902Y4275D01*
X1853Y4272D01*
X1847Y4271D01*
X1842Y4269D01*
X1838Y4268D01*
X1836Y4266D01*
Y4434D01*
X1838Y4432D01*
D02*
G37*
G36*
X4662Y3432D02*
X4665Y3431D01*
X4670Y3429D01*
X4676Y3428D01*
X4684Y3427D01*
X4702Y3426D01*
X4739Y3425D01*
Y3275D01*
X4726Y3275D01*
X4676Y3272D01*
X4670Y3271D01*
X4665Y3269D01*
X4662Y3268D01*
X4659Y3266D01*
Y3434D01*
X4662Y3432D01*
D02*
G37*
G36*
X3784Y6875D02*
X3798Y6875D01*
X3847Y6878D01*
X3853Y6879D01*
X3858Y6881D01*
X3862Y6882D01*
X3864Y6884D01*
Y6716D01*
X3862Y6718D01*
X3858Y6719D01*
X3853Y6721D01*
X3847Y6722D01*
X3840Y6723D01*
X3821Y6724D01*
X3784Y6725D01*
Y6875D01*
D02*
G37*
G36*
X4420Y7314D02*
X4411Y7304D01*
X4378Y7267D01*
X4374Y7262D01*
X4372Y7258D01*
X4370Y7254D01*
X4370Y7251D01*
X4251Y7370D01*
X4254Y7370D01*
X4258Y7372D01*
X4262Y7374D01*
X4267Y7378D01*
X4273Y7382D01*
X4287Y7395D01*
X4314Y7420D01*
X4420Y7314D01*
D02*
G37*
G36*
X5053Y7434D02*
X5053Y7448D01*
X5050Y7497D01*
X5048Y7503D01*
X5047Y7508D01*
X5046Y7512D01*
X5044Y7514D01*
X5212D01*
X5210Y7512D01*
X5209Y7508D01*
X5207Y7503D01*
X5206Y7497D01*
X5205Y7490D01*
X5204Y7471D01*
X5203Y7434D01*
X5053D01*
D02*
G37*
G36*
X5925Y7134D02*
X5925Y7148D01*
X5922Y7197D01*
X5921Y7203D01*
X5919Y7208D01*
X5918Y7212D01*
X5916Y7214D01*
X6084D01*
X6082Y7212D01*
X6081Y7208D01*
X6079Y7203D01*
X6078Y7197D01*
X6077Y7190D01*
X6076Y7171D01*
X6075Y7134D01*
X5925D01*
D02*
G37*
G36*
X4239Y8821D02*
X4240Y8807D01*
X4241Y8793D01*
X4244Y8780D01*
X4248Y8767D01*
X4253Y8755D01*
X4260Y8743D01*
X4267Y8732D01*
X4276Y8721D01*
X4286Y8711D01*
X4297Y8701D01*
X4087Y8685D01*
X4097Y8697D01*
X4106Y8709D01*
X4114Y8721D01*
X4120Y8734D01*
X4126Y8746D01*
X4131Y8759D01*
X4134Y8772D01*
X4137Y8786D01*
X4138Y8799D01*
X4139Y8813D01*
X4239Y8821D01*
D02*
G37*
G36*
X4600Y9631D02*
X4601Y9615D01*
X4603Y9600D01*
X4607Y9584D01*
X4612Y9569D01*
X4619Y9554D01*
X4627Y9539D01*
X4637Y9524D01*
X4649Y9508D01*
X4662Y9493D01*
X4676Y9479D01*
X4424D01*
X4438Y9493D01*
X4451Y9508D01*
X4463Y9524D01*
X4473Y9539D01*
X4481Y9554D01*
X4488Y9569D01*
X4493Y9584D01*
X4497Y9600D01*
X4499Y9615D01*
X4500Y9631D01*
X4600D01*
D02*
G37*
G36*
X5834Y8175D02*
X5848Y8175D01*
X5897Y8178D01*
X5903Y8179D01*
X5908Y8181D01*
X5912Y8182D01*
X5914Y8184D01*
Y8016D01*
X5912Y8018D01*
X5908Y8019D01*
X5903Y8021D01*
X5897Y8022D01*
X5890Y8023D01*
X5871Y8024D01*
X5834Y8025D01*
Y8175D01*
D02*
G37*
G36*
X2575Y10825D02*
X2555Y10824D01*
X2536Y10821D01*
X2517Y10817D01*
X2500Y10811D01*
X2484Y10803D01*
X2468Y10793D01*
X2453Y10781D01*
X2440Y10768D01*
X2427Y10753D01*
X2415Y10736D01*
Y11014D01*
X2427Y10997D01*
X2440Y10982D01*
X2453Y10969D01*
X2468Y10957D01*
X2484Y10947D01*
X2500Y10939D01*
X2517Y10933D01*
X2536Y10929D01*
X2555Y10926D01*
X2575Y10925D01*
Y10825D01*
D02*
G37*
G36*
X2550Y11800D02*
X2533Y11799D01*
X2516Y11798D01*
X2501Y11795D01*
X2488Y11790D01*
X2475Y11785D01*
X2464Y11778D01*
X2454Y11771D01*
X2445Y11762D01*
X2437Y11752D01*
X2431Y11740D01*
Y11960D01*
X2437Y11948D01*
X2445Y11938D01*
X2454Y11929D01*
X2464Y11922D01*
X2475Y11915D01*
X2488Y11910D01*
X2501Y11905D01*
X2516Y11902D01*
X2533Y11901D01*
X2550Y11900D01*
Y11800D01*
D02*
G37*
G36*
X5305Y11120D02*
X5296Y11120D01*
X5288Y11118D01*
X5279Y11116D01*
X5270Y11114D01*
X5262Y11110D01*
X5254Y11106D01*
X5245Y11100D01*
X5237Y11094D01*
X5229Y11088D01*
X5221Y11080D01*
Y11220D01*
X5229Y11212D01*
X5237Y11206D01*
X5245Y11200D01*
X5254Y11194D01*
X5262Y11190D01*
X5270Y11186D01*
X5279Y11184D01*
X5288Y11182D01*
X5296Y11180D01*
X5305Y11180D01*
Y11120D01*
D02*
G37*
G36*
Y11520D02*
X5296Y11520D01*
X5288Y11518D01*
X5279Y11516D01*
X5270Y11514D01*
X5262Y11510D01*
X5254Y11506D01*
X5245Y11500D01*
X5237Y11494D01*
X5229Y11488D01*
X5221Y11480D01*
Y11620D01*
X5229Y11612D01*
X5237Y11606D01*
X5245Y11600D01*
X5254Y11594D01*
X5262Y11590D01*
X5270Y11586D01*
X5279Y11584D01*
X5288Y11582D01*
X5296Y11580D01*
X5305Y11580D01*
Y11520D01*
D02*
G37*
G36*
X2575Y12775D02*
X2555Y12774D01*
X2536Y12771D01*
X2517Y12767D01*
X2500Y12761D01*
X2484Y12753D01*
X2468Y12743D01*
X2453Y12731D01*
X2440Y12718D01*
X2427Y12703D01*
X2415Y12686D01*
Y12964D01*
X2427Y12947D01*
X2440Y12932D01*
X2453Y12919D01*
X2468Y12907D01*
X2484Y12897D01*
X2500Y12889D01*
X2517Y12883D01*
X2536Y12879D01*
X2555Y12876D01*
X2575Y12875D01*
Y12775D01*
D02*
G37*
G36*
X5120Y12395D02*
X5120Y12404D01*
X5118Y12412D01*
X5116Y12421D01*
X5114Y12430D01*
X5110Y12438D01*
X5106Y12446D01*
X5100Y12455D01*
X5094Y12463D01*
X5088Y12471D01*
X5080Y12479D01*
X5220D01*
X5212Y12471D01*
X5206Y12463D01*
X5200Y12455D01*
X5194Y12446D01*
X5190Y12438D01*
X5186Y12430D01*
X5184Y12421D01*
X5182Y12412D01*
X5180Y12404D01*
X5180Y12395D01*
X5120D01*
D02*
G37*
G36*
X5505Y14320D02*
X5496Y14320D01*
X5488Y14318D01*
X5479Y14316D01*
X5470Y14314D01*
X5462Y14310D01*
X5454Y14306D01*
X5445Y14300D01*
X5437Y14294D01*
X5429Y14288D01*
X5421Y14280D01*
Y14420D01*
X5429Y14412D01*
X5437Y14406D01*
X5445Y14400D01*
X5454Y14394D01*
X5462Y14390D01*
X5470Y14386D01*
X5479Y14384D01*
X5488Y14382D01*
X5496Y14380D01*
X5505Y14380D01*
Y14320D01*
D02*
G37*
G36*
X8696Y4328D02*
X8678Y4345D01*
X8628Y4387D01*
X8613Y4397D01*
X8599Y4405D01*
X8586Y4412D01*
X8574Y4416D01*
X8563Y4419D01*
X8552Y4420D01*
X8780Y4648D01*
X8781Y4637D01*
X8784Y4626D01*
X8788Y4614D01*
X8795Y4601D01*
X8803Y4587D01*
X8813Y4572D01*
X8825Y4556D01*
X8855Y4522D01*
X8872Y4504D01*
X8696Y4328D01*
D02*
G37*
G36*
X7055Y6270D02*
X7046Y6270D01*
X7038Y6268D01*
X7029Y6266D01*
X7020Y6264D01*
X7012Y6260D01*
X7004Y6256D01*
X6995Y6250D01*
X6987Y6244D01*
X6979Y6238D01*
X6971Y6230D01*
Y6370D01*
X6979Y6362D01*
X6987Y6356D01*
X6995Y6350D01*
X7004Y6344D01*
X7012Y6340D01*
X7020Y6336D01*
X7029Y6334D01*
X7038Y6332D01*
X7046Y6330D01*
X7055Y6330D01*
Y6270D01*
D02*
G37*
G36*
X9995Y6130D02*
X10004Y6130D01*
X10012Y6132D01*
X10021Y6134D01*
X10030Y6136D01*
X10038Y6140D01*
X10046Y6144D01*
X10055Y6150D01*
X10063Y6156D01*
X10071Y6162D01*
X10079Y6170D01*
Y6030D01*
X10071Y6038D01*
X10063Y6044D01*
X10055Y6050D01*
X10046Y6056D01*
X10038Y6060D01*
X10030Y6064D01*
X10021Y6066D01*
X10012Y6068D01*
X10004Y6070D01*
X9995Y6070D01*
Y6130D01*
D02*
G37*
G36*
X9795Y6330D02*
X9804Y6330D01*
X9812Y6332D01*
X9821Y6334D01*
X9830Y6336D01*
X9838Y6340D01*
X9846Y6344D01*
X9855Y6350D01*
X9863Y6356D01*
X9871Y6362D01*
X9879Y6370D01*
Y6230D01*
X9871Y6238D01*
X9863Y6244D01*
X9855Y6250D01*
X9846Y6256D01*
X9838Y6260D01*
X9830Y6264D01*
X9821Y6266D01*
X9812Y6268D01*
X9804Y6270D01*
X9795Y6270D01*
Y6330D01*
D02*
G37*
G36*
X6887Y7484D02*
X6898Y7474D01*
X6911Y7464D01*
X6924Y7456D01*
X6939Y7449D01*
X6955Y7443D01*
X6971Y7438D01*
X6989Y7434D01*
X7008Y7432D01*
X7027Y7430D01*
X7048Y7430D01*
X6870Y7252D01*
X6870Y7273D01*
X6868Y7292D01*
X6866Y7311D01*
X6862Y7329D01*
X6857Y7345D01*
X6851Y7361D01*
X6844Y7376D01*
X6836Y7389D01*
X6826Y7402D01*
X6816Y7413D01*
X6887Y7484D01*
D02*
G37*
G36*
X7981Y8582D02*
X7975Y8576D01*
X7970Y8569D01*
X7965Y8561D01*
X7961Y8553D01*
X7957Y8545D01*
X7955Y8536D01*
X7953Y8526D01*
X7951Y8516D01*
X7950Y8506D01*
X7950Y8495D01*
X7851Y8594D01*
X7862Y8594D01*
X7872Y8595D01*
X7882Y8596D01*
X7892Y8598D01*
X7901Y8601D01*
X7909Y8605D01*
X7917Y8609D01*
X7925Y8613D01*
X7932Y8619D01*
X7939Y8625D01*
X7981Y8582D01*
D02*
G37*
G36*
X10329Y7051D02*
X10367Y7049D01*
X10351Y6991D01*
X10351Y6991D01*
X10350Y6991D01*
X10347Y6991D01*
X10329Y6991D01*
Y7051D01*
D02*
G37*
G36*
X11397Y3300D02*
X11386Y3300D01*
X11366Y3298D01*
X11358Y3297D01*
X11350Y3295D01*
X11343Y3293D01*
X11336Y3290D01*
X11331Y3287D01*
X11326Y3284D01*
X11321Y3280D01*
Y3420D01*
X11326Y3416D01*
X11331Y3413D01*
X11336Y3410D01*
X11343Y3407D01*
X11350Y3405D01*
X11358Y3403D01*
X11366Y3402D01*
X11376Y3401D01*
X11397Y3400D01*
Y3300D01*
D02*
G37*
G36*
X12680Y4755D02*
X12680Y4746D01*
X12682Y4738D01*
X12684Y4729D01*
X12686Y4720D01*
X12690Y4712D01*
X12694Y4704D01*
X12700Y4695D01*
X12706Y4687D01*
X12712Y4679D01*
X12720Y4671D01*
X12580D01*
X12588Y4679D01*
X12594Y4687D01*
X12600Y4695D01*
X12606Y4704D01*
X12610Y4712D01*
X12614Y4720D01*
X12616Y4729D01*
X12618Y4738D01*
X12620Y4746D01*
X12620Y4755D01*
X12680D01*
D02*
G37*
G36*
X13682Y3189D02*
X13689Y3182D01*
X13704Y3169D01*
X13711Y3164D01*
X13718Y3160D01*
X13725Y3156D01*
X13731Y3153D01*
X13737Y3151D01*
X13743Y3150D01*
X13749Y3150D01*
X13650Y3051D01*
X13650Y3057D01*
X13649Y3063D01*
X13647Y3069D01*
X13644Y3075D01*
X13640Y3082D01*
X13636Y3089D01*
X13631Y3096D01*
X13625Y3103D01*
X13611Y3118D01*
X13682Y3189D01*
D02*
G37*
G36*
X12882Y5005D02*
X12882Y4996D01*
X12884Y4988D01*
X12886Y4979D01*
X12888Y4970D01*
X12892Y4962D01*
X12896Y4954D01*
X12902Y4945D01*
X12908Y4937D01*
X12914Y4929D01*
X12922Y4921D01*
X12782D01*
X12790Y4929D01*
X12796Y4937D01*
X12802Y4945D01*
X12808Y4954D01*
X12812Y4962D01*
X12816Y4970D01*
X12818Y4979D01*
X12820Y4988D01*
X12822Y4996D01*
X12822Y5005D01*
X12882D01*
D02*
G37*
G36*
X11695Y5830D02*
X11704Y5830D01*
X11712Y5832D01*
X11721Y5834D01*
X11730Y5836D01*
X11738Y5840D01*
X11746Y5844D01*
X11755Y5850D01*
X11763Y5856D01*
X11771Y5862D01*
X11779Y5870D01*
Y5730D01*
X11771Y5738D01*
X11763Y5744D01*
X11755Y5750D01*
X11746Y5756D01*
X11738Y5760D01*
X11730Y5764D01*
X11721Y5766D01*
X11712Y5768D01*
X11704Y5770D01*
X11695Y5770D01*
Y5830D01*
D02*
G37*
G36*
X11757Y6129D02*
X11766Y6130D01*
X11775Y6131D01*
X11783Y6133D01*
X11792Y6135D01*
X11801Y6139D01*
X11809Y6143D01*
X11818Y6148D01*
X11827Y6153D01*
X11836Y6160D01*
X11844Y6167D01*
X11832Y6027D01*
X11825Y6035D01*
X11818Y6042D01*
X11810Y6049D01*
X11803Y6054D01*
X11795Y6059D01*
X11786Y6063D01*
X11778Y6066D01*
X11769Y6068D01*
X11761Y6069D01*
X11752Y6069D01*
X11757Y6129D01*
D02*
G37*
G36*
X11795Y6430D02*
X11804Y6430D01*
X11812Y6432D01*
X11821Y6434D01*
X11830Y6436D01*
X11838Y6440D01*
X11846Y6444D01*
X11855Y6450D01*
X11863Y6456D01*
X11871Y6462D01*
X11879Y6470D01*
Y6330D01*
X11871Y6338D01*
X11863Y6344D01*
X11855Y6350D01*
X11846Y6356D01*
X11838Y6360D01*
X11830Y6364D01*
X11821Y6366D01*
X11812Y6368D01*
X11804Y6370D01*
X11795Y6370D01*
Y6430D01*
D02*
G37*
G36*
X7981Y8858D02*
X7975Y8851D01*
X7970Y8844D01*
X7965Y8837D01*
X7961Y8829D01*
X7957Y8820D01*
X7955Y8811D01*
X7953Y8802D01*
X7951Y8792D01*
X7950Y8781D01*
X7950Y8770D01*
X7851Y8869D01*
X7862Y8870D01*
X7872Y8870D01*
X7882Y8872D01*
X7892Y8874D01*
X7901Y8877D01*
X7909Y8880D01*
X7917Y8884D01*
X7925Y8889D01*
X7932Y8894D01*
X7939Y8900D01*
X7981Y8858D01*
D02*
G37*
G36*
Y9134D02*
X7975Y9127D01*
X7970Y9120D01*
X7965Y9112D01*
X7961Y9104D01*
X7957Y9096D01*
X7955Y9087D01*
X7953Y9077D01*
X7951Y9067D01*
X7950Y9057D01*
X7950Y9046D01*
X7851Y9145D01*
X7862Y9145D01*
X7872Y9146D01*
X7882Y9147D01*
X7892Y9150D01*
X7901Y9152D01*
X7909Y9156D01*
X7917Y9160D01*
X7925Y9165D01*
X7932Y9170D01*
X7939Y9176D01*
X7981Y9134D01*
D02*
G37*
G36*
Y9409D02*
X7975Y9403D01*
X7970Y9395D01*
X7965Y9388D01*
X7961Y9380D01*
X7957Y9371D01*
X7955Y9362D01*
X7953Y9353D01*
X7951Y9343D01*
X7950Y9332D01*
X7950Y9321D01*
X7851Y9420D01*
X7862Y9421D01*
X7872Y9422D01*
X7882Y9423D01*
X7892Y9425D01*
X7901Y9428D01*
X7909Y9431D01*
X7917Y9435D01*
X7925Y9440D01*
X7932Y9446D01*
X7939Y9452D01*
X7981Y9409D01*
D02*
G37*
G36*
X6395Y14380D02*
X6404Y14380D01*
X6412Y14382D01*
X6421Y14384D01*
X6430Y14386D01*
X6438Y14390D01*
X6446Y14394D01*
X6455Y14400D01*
X6463Y14406D01*
X6471Y14412D01*
X6479Y14420D01*
Y14280D01*
X6471Y14288D01*
X6463Y14294D01*
X6455Y14300D01*
X6446Y14306D01*
X6438Y14310D01*
X6430Y14314D01*
X6421Y14316D01*
X6412Y14318D01*
X6404Y14320D01*
X6395Y14320D01*
Y14380D01*
D02*
G37*
G36*
X11909Y8980D02*
X11918Y8980D01*
X11927Y8982D01*
X11936Y8984D01*
X11944Y8986D01*
X11953Y8990D01*
X11961Y8994D01*
X11969Y9000D01*
X11977Y9006D01*
X11985Y9012D01*
X11993Y9020D01*
Y8880D01*
X11985Y8888D01*
X11977Y8894D01*
X11969Y8900D01*
X11961Y8906D01*
X11953Y8910D01*
X11944Y8914D01*
X11936Y8916D01*
X11927Y8918D01*
X11918Y8920D01*
X11909Y8920D01*
Y8980D01*
D02*
G37*
G36*
X12106Y9180D02*
X12115Y9180D01*
X12124Y9182D01*
X12132Y9184D01*
X12141Y9186D01*
X12149Y9190D01*
X12158Y9194D01*
X12166Y9200D01*
X12174Y9206D01*
X12182Y9212D01*
X12190Y9220D01*
Y9080D01*
X12182Y9088D01*
X12174Y9094D01*
X12166Y9100D01*
X12158Y9106D01*
X12149Y9110D01*
X12141Y9114D01*
X12132Y9116D01*
X12124Y9118D01*
X12115Y9120D01*
X12106Y9120D01*
Y9180D01*
D02*
G37*
G36*
X11039Y11819D02*
X11032Y11825D01*
X11025Y11830D01*
X11017Y11835D01*
X11009Y11839D01*
X11001Y11843D01*
X10992Y11845D01*
X10982Y11847D01*
X10972Y11849D01*
X10962Y11850D01*
X10951Y11850D01*
X11050Y11949D01*
X11050Y11938D01*
X11051Y11928D01*
X11053Y11918D01*
X11055Y11908D01*
X11057Y11899D01*
X11061Y11891D01*
X11065Y11883D01*
X11070Y11875D01*
X11075Y11868D01*
X11081Y11861D01*
X11039Y11819D01*
D02*
G37*
G36*
X12303Y9380D02*
X12312Y9380D01*
X12321Y9382D01*
X12329Y9384D01*
X12338Y9386D01*
X12346Y9390D01*
X12355Y9394D01*
X12363Y9400D01*
X12371Y9406D01*
X12379Y9412D01*
X12387Y9420D01*
Y9280D01*
X12379Y9288D01*
X12371Y9294D01*
X12363Y9300D01*
X12355Y9306D01*
X12346Y9310D01*
X12338Y9314D01*
X12329Y9316D01*
X12321Y9318D01*
X12312Y9320D01*
X12303Y9320D01*
Y9380D01*
D02*
G37*
G36*
X12500Y9580D02*
X12509Y9580D01*
X12517Y9582D01*
X12526Y9584D01*
X12535Y9586D01*
X12543Y9590D01*
X12551Y9594D01*
X12560Y9600D01*
X12568Y9606D01*
X12576Y9612D01*
X12584Y9620D01*
Y9480D01*
X12576Y9488D01*
X12568Y9494D01*
X12560Y9500D01*
X12551Y9506D01*
X12543Y9510D01*
X12535Y9514D01*
X12526Y9516D01*
X12517Y9518D01*
X12509Y9520D01*
X12500Y9520D01*
Y9580D01*
D02*
G37*
G36*
X13970Y10653D02*
X13953Y10670D01*
X13897Y10718D01*
X13886Y10726D01*
X13876Y10732D01*
X13867Y10737D01*
X13859Y10739D01*
X13852Y10740D01*
X14060Y10948D01*
X14061Y10941D01*
X14063Y10933D01*
X14068Y10924D01*
X14074Y10914D01*
X14082Y10903D01*
X14102Y10877D01*
X14130Y10847D01*
X14147Y10830D01*
X13970Y10653D01*
D02*
G37*
G36*
X12539Y11895D02*
X12531Y11895D01*
X12522Y11894D01*
X12513Y11892D01*
X12505Y11890D01*
X12495Y11887D01*
X12486Y11884D01*
X12467Y11875D01*
X12457Y11870D01*
X12447Y11864D01*
X12482Y12000D01*
X12487Y11991D01*
X12493Y11984D01*
X12500Y11977D01*
X12506Y11971D01*
X12513Y11966D01*
X12521Y11962D01*
X12529Y11959D01*
X12537Y11957D01*
X12546Y11955D01*
X12555Y11955D01*
X12539Y11895D01*
D02*
G37*
G36*
X14245Y11630D02*
X14254Y11630D01*
X14262Y11632D01*
X14271Y11634D01*
X14280Y11636D01*
X14288Y11640D01*
X14296Y11644D01*
X14305Y11650D01*
X14313Y11656D01*
X14321Y11662D01*
X14329Y11670D01*
Y11530D01*
X14321Y11538D01*
X14313Y11544D01*
X14305Y11550D01*
X14296Y11556D01*
X14288Y11560D01*
X14280Y11564D01*
X14271Y11566D01*
X14262Y11568D01*
X14254Y11570D01*
X14245Y11570D01*
Y11630D01*
D02*
G37*
G36*
X14356Y11955D02*
X14365Y11955D01*
X14373Y11956D01*
X14382Y11958D01*
X14391Y11960D01*
X14400Y11963D01*
X14409Y11966D01*
X14428Y11975D01*
X14438Y11980D01*
X14448Y11986D01*
X14413Y11850D01*
X14408Y11859D01*
X14402Y11866D01*
X14396Y11873D01*
X14389Y11879D01*
X14382Y11884D01*
X14375Y11888D01*
X14367Y11891D01*
X14358Y11893D01*
X14349Y11895D01*
X14340Y11895D01*
X14356Y11955D01*
D02*
G37*
D10*
X4189Y8597D02*
Y9261D01*
X2575Y10875D02*
X4189Y9261D01*
X2200Y10875D02*
X2575D01*
X4189Y8597D02*
X4200Y8586D01*
X4550Y9350D02*
Y9850D01*
X2550Y11850D02*
X4550Y9850D01*
X2200Y11850D02*
X2550D01*
X6500Y7800D02*
Y8900D01*
X2575Y12825D02*
X6500Y8900D01*
X2200Y12825D02*
X2575D01*
X6500Y7800D02*
X7050Y7250D01*
X11250Y3350D02*
X13450D01*
X13750Y3050D01*
X387Y19685D02*
G03*
X-6Y19291I0J-394D01*
G01*
Y394D02*
G03*
X387Y0I394J0D01*
G01*
X20072D02*
G03*
X20466Y394I0J394D01*
G01*
Y19291D02*
G03*
X20072Y19685I-394J0D01*
G01*
X7687Y13780D02*
G03*
X8081Y13386I394J0D01*
G01*
X12395D02*
G03*
X12789Y13780I0J394D01*
G01*
X13183Y19685D02*
G03*
X12789Y19291I0J-394D01*
G01*
X7687D02*
G03*
X7294Y19685I-394J0D01*
G01*
X-6Y394D02*
Y19291D01*
X20466Y394D02*
Y19291D01*
X387Y19685D02*
X7294Y19685D01*
X387Y0D02*
X20072D01*
X13183Y19685D02*
X20072D01*
X8082Y13386D02*
X12395D01*
X12789Y13770D02*
Y19306D01*
X7687Y13782D02*
Y19291D01*
D12*
X9900Y7700D02*
X10304Y7296D01*
X10392D01*
X9750Y7600D02*
X10329Y7021D01*
X9750Y7600D02*
Y8000D01*
X10425Y7021D02*
X10451Y6995D01*
X10329Y7021D02*
X10425D01*
X10392Y7296D02*
X10419Y7269D01*
X9900Y7700D02*
Y8100D01*
X9400Y7550D02*
X10851Y6099D01*
X10759Y6400D02*
X11950D01*
X7500Y7550D02*
X9400D01*
X9316Y7384D02*
X10900Y5800D01*
X7600Y7700D02*
X9459D01*
X7416Y7384D02*
X9316D01*
X9459Y7700D02*
X10759Y6400D01*
X10900Y5800D02*
X11850D01*
X10851Y6099D02*
X11901D01*
X9650Y8350D02*
X9900Y8100D01*
X8678Y8028D02*
X9000Y8350D01*
X9650D01*
X7500Y8250D02*
X7722Y8028D01*
X8678D01*
X7500Y8250D02*
Y10500D01*
X7500Y10500D02*
Y10550D01*
X7500Y10500D02*
X7500Y10500D01*
X6050Y12000D02*
X7500Y10550D01*
X5900Y11950D02*
X7350Y10500D01*
Y8185D02*
Y10500D01*
X5900Y11950D02*
Y14250D01*
X5150Y12250D02*
Y12550D01*
Y12250D02*
X7200Y10200D01*
Y8100D02*
Y10200D01*
X9550Y8200D02*
X9750Y8000D01*
X9100Y8200D02*
X9550D01*
X8750Y7850D02*
X9100Y8200D01*
X7685Y7850D02*
X8750D01*
X7350Y8185D02*
X7685Y7850D01*
X7200Y8100D02*
X7600Y7700D01*
X7050Y8000D02*
Y10000D01*
X5500Y11550D02*
X7050Y10000D01*
Y8000D02*
X7500Y7550D01*
X5150Y11550D02*
X5500D01*
X5800Y14350D02*
X5900Y14250D01*
X5350Y14350D02*
X5800D01*
X6050Y12000D02*
Y14250D01*
X6150Y14350D01*
X6550D01*
X6700Y6100D02*
X10150D01*
X6900Y6300D02*
X9950D01*
X6900Y7900D02*
Y9800D01*
Y7900D02*
X7416Y7384D01*
X12650Y4600D02*
Y5050D01*
X11300Y11600D02*
X14400D01*
X10950Y11950D02*
X11300Y11600D01*
X14475Y11925D02*
X14500Y11900D01*
X12395Y11950D02*
X12420Y11925D01*
X14475D01*
X11901Y6099D02*
X11909Y6091D01*
X6071Y6450D02*
X6350D01*
X6700Y6100D01*
X5550Y11150D02*
X6900Y9800D01*
X5150Y11150D02*
X5550D01*
X8155Y9350D02*
X12450D01*
X8080Y9550D02*
X12650D01*
X7850Y9320D02*
X8080Y9550D01*
X12350Y5600D02*
X12852Y5098D01*
X6050Y5600D02*
X12350D01*
X5850Y5400D02*
X6050Y5600D01*
X6150Y5400D02*
X12300D01*
X12650Y5050D01*
X7850Y9045D02*
X8155Y9350D01*
X8231Y9150D02*
X12250D01*
X7850Y8769D02*
X8231Y9150D01*
X8306Y8950D02*
X12050D01*
X7850Y8494D02*
X8306Y8950D01*
X12852Y4850D02*
Y5098D01*
D15*
X2629Y2564D02*
G03*
X2629Y2564I-138J0D01*
G01*
X4904D02*
G03*
X4904Y2564I-138J0D01*
G01*
D40*
X4855Y7855D02*
X5345D01*
X5128Y6878D02*
Y7600D01*
X5345Y7855D02*
X5450Y7750D01*
X4250Y7250D02*
X4855Y7855D01*
X455Y5350D02*
Y6205D01*
X1550Y7300D01*
X3850D01*
X4650Y8100D01*
X6000D01*
X1700Y5950D02*
X2362D01*
X3212Y6800D01*
X3950D01*
X5450Y6700D02*
Y7750D01*
X4240Y5990D02*
X5128Y6878D01*
X3350Y6500D02*
X3700D01*
X2500Y5650D02*
X3350Y6500D01*
X1850Y5650D02*
X2500D01*
X1607Y5343D02*
X2643D01*
X2000Y5000D02*
X2800D01*
X2643Y5343D02*
X3545Y6245D01*
X2800Y5000D02*
X3790Y5990D01*
X4240D01*
X3545Y6245D02*
X3950D01*
X2050Y4650D02*
X2900D01*
X1750Y4350D02*
X3050D01*
X2900Y4650D02*
X3900Y5650D01*
X3050Y4350D02*
X4050Y5350D01*
X4500D01*
X3900Y5650D02*
X4400D01*
X5450Y6700D01*
X4500Y5350D02*
X6000Y6850D01*
Y7300D01*
X6300Y3350D02*
X7600Y4650D01*
X4574Y3350D02*
X6300D01*
X1600Y5350D02*
X1607Y5343D01*
D45*
X2200Y10875D02*
D03*
Y11850D02*
D03*
Y12825D02*
D03*
D47*
X10419Y7269D02*
D03*
X10451Y6995D02*
D03*
X6550Y14350D02*
D03*
X5350D02*
D03*
X10150Y6100D02*
D03*
X9950Y6300D02*
D03*
X7600Y4650D02*
D03*
X5150Y11550D02*
D03*
X6900Y6300D02*
D03*
X12650Y4600D02*
D03*
X10950Y11950D02*
D03*
X14500Y11900D02*
D03*
X12395Y11950D02*
D03*
X14400Y11600D02*
D03*
X6071Y6450D02*
D03*
X11909Y6091D02*
D03*
X11250Y3350D02*
D03*
X13750Y3050D02*
D03*
X12458Y9350D02*
D03*
X12655Y9550D02*
D03*
X11950Y6400D02*
D03*
X11850Y5800D02*
D03*
X5150Y12550D02*
D03*
Y11150D02*
D03*
X12261Y9150D02*
D03*
X12065Y8950D02*
D03*
X7850Y8494D02*
D03*
Y9320D02*
D03*
Y9045D02*
D03*
Y8769D02*
D03*
X5850Y5400D02*
D03*
X6150D02*
D03*
X12852Y4850D02*
D03*
D48*
X13850Y10950D02*
D03*
D49*
X5128Y7600D02*
D03*
X4574Y3350D02*
D03*
X3950Y6800D02*
D03*
X4250Y7250D02*
D03*
X455Y5350D02*
D03*
X6000Y8100D02*
D03*
X2050Y4650D02*
D03*
X1750Y4350D02*
D03*
X6000Y7300D02*
D03*
X2000Y5000D02*
D03*
X1850Y5650D02*
D03*
X1700Y5950D02*
D03*
X1600Y5350D02*
D03*
X3700Y6500D02*
D03*
X3950Y6245D02*
D03*
D51*
X8550Y4650D02*
D03*
D52*
X4200Y8586D02*
D03*
D53*
X7050Y7250D02*
D03*
X4550Y9350D02*
D03*
D55*
X13850Y10950D02*
X14100Y10700D01*
Y5450D02*
Y10700D01*
X12800Y4150D02*
X14100Y5450D01*
X8550Y4650D02*
X9050Y4150D01*
X12800D01*
M02*
