G04*
G04 #@! TF.GenerationSoftware,Altium Limited,Altium Designer,22.0.2 (36)*
G04*
G04 Layer_Color=255*
%FSLAX24Y24*%
%MOIN*%
G70*
G04*
G04 #@! TF.SameCoordinates,D7CE2511-F244-4390-A2D0-A891EFF9428C*
G04*
G04*
G04 #@! TF.FilePolarity,Positive*
G04*
G01*
G75*
%ADD10C,0.0100*%
%ADD15C,0.0002*%
%ADD16R,0.0354X0.0315*%
%ADD17O,0.0248X0.0734*%
G04:AMPARAMS|DCode=18|XSize=15.7mil|YSize=137.8mil|CornerRadius=3.9mil|HoleSize=0mil|Usage=FLASHONLY|Rotation=270.000|XOffset=0mil|YOffset=0mil|HoleType=Round|Shape=RoundedRectangle|*
%AMROUNDEDRECTD18*
21,1,0.0157,0.1299,0,0,270.0*
21,1,0.0079,0.1378,0,0,270.0*
1,1,0.0079,-0.0650,-0.0039*
1,1,0.0079,-0.0650,0.0039*
1,1,0.0079,0.0650,0.0039*
1,1,0.0079,0.0650,-0.0039*
%
%ADD18ROUNDEDRECTD18*%
%ADD19O,0.2117X0.0748*%
%ADD20R,0.0620X0.0265*%
%ADD21R,0.0315X0.0315*%
%ADD22R,0.0630X0.0394*%
%ADD37R,0.0318X0.0340*%
%ADD38R,0.0340X0.0318*%
%ADD39R,0.0680X0.0585*%
%ADD43O,0.0472X0.0709*%
%ADD44O,0.0472X0.0787*%
%ADD45C,0.0512*%
%ADD46C,0.1024*%
D10*
X387Y19685D02*
G03*
X-6Y19291I0J-394D01*
G01*
Y394D02*
G03*
X387Y0I394J0D01*
G01*
X20072D02*
G03*
X20466Y394I0J394D01*
G01*
Y19291D02*
G03*
X20072Y19685I-394J0D01*
G01*
X7687Y13780D02*
G03*
X8081Y13386I394J0D01*
G01*
X12395D02*
G03*
X12789Y13780I0J394D01*
G01*
X13183Y19685D02*
G03*
X12789Y19291I0J-394D01*
G01*
X7687D02*
G03*
X7294Y19685I-394J0D01*
G01*
X-6Y394D02*
Y19291D01*
X20466Y394D02*
Y19291D01*
X387Y19685D02*
X7294Y19685D01*
X387Y0D02*
X20072D01*
X13183Y19685D02*
X20072D01*
X8082Y13386D02*
X12395D01*
X12789Y13770D02*
Y19306D01*
X7687Y13782D02*
Y19291D01*
D15*
X2629Y2564D02*
G03*
X2629Y2564I-138J0D01*
G01*
X4904D02*
G03*
X4904Y2564I-138J0D01*
G01*
D16*
X1200Y2426D02*
D03*
Y1874D02*
D03*
X14287Y5726D02*
D03*
Y5174D02*
D03*
X7037Y5976D02*
D03*
Y5424D02*
D03*
D17*
X2879Y744D02*
D03*
X3379D02*
D03*
X3879D02*
D03*
X4379D02*
D03*
X2879Y2856D02*
D03*
X3379D02*
D03*
X3879D02*
D03*
X4379D02*
D03*
D18*
X6937Y10423D02*
D03*
Y10698D02*
D03*
Y9596D02*
D03*
Y9872D02*
D03*
Y8769D02*
D03*
Y9045D02*
D03*
Y7943D02*
D03*
Y8218D02*
D03*
Y10974D02*
D03*
Y7667D02*
D03*
Y8494D02*
D03*
Y9320D02*
D03*
Y10147D02*
D03*
D19*
X8905Y5687D02*
D03*
D20*
X7837Y5100D02*
D03*
Y6281D02*
D03*
D21*
X8739Y12885D02*
D03*
X8741Y12255D02*
D03*
X10237Y12885D02*
D03*
X10239Y12255D02*
D03*
X11739Y12885D02*
D03*
X11741Y12255D02*
D03*
D22*
X17840Y7172D02*
D03*
X15635D02*
D03*
X17840Y8628D02*
D03*
X15635D02*
D03*
X17840Y9722D02*
D03*
X15635D02*
D03*
X17840Y11178D02*
D03*
X15635D02*
D03*
D37*
X3560Y15790D02*
D03*
X4153D02*
D03*
D38*
X13387Y5747D02*
D03*
Y5153D02*
D03*
X12458Y5747D02*
D03*
Y5153D02*
D03*
X9391Y12253D02*
D03*
Y12847D02*
D03*
X10891Y12253D02*
D03*
Y12847D02*
D03*
X12391Y12253D02*
D03*
Y12847D02*
D03*
D39*
X8350Y3023D02*
D03*
Y4277D02*
D03*
D43*
X1926Y1115D02*
D03*
X5331D02*
D03*
D44*
X1926Y2769D02*
D03*
X5331D02*
D03*
D45*
X2200Y10875D02*
D03*
Y11850D02*
D03*
Y12825D02*
D03*
Y13800D02*
D03*
Y9900D02*
D03*
D46*
X19685Y787D02*
D03*
X787D02*
D03*
X19685Y18898D02*
D03*
X787D02*
D03*
M02*
