G04*
G04 #@! TF.GenerationSoftware,Altium Limited,Altium Designer,22.0.2 (36)*
G04*
G04 Layer_Color=8421504*
%FSLAX24Y24*%
%MOIN*%
G70*
G04*
G04 #@! TF.SameCoordinates,D7CE2511-F244-4390-A2D0-A891EFF9428C*
G04*
G04*
G04 #@! TF.FilePolarity,Positive*
G04*
G01*
G75*
%ADD10C,0.0100*%
%ADD15C,0.0002*%
%ADD16R,0.0354X0.0315*%
%ADD17O,0.0248X0.0734*%
G04:AMPARAMS|DCode=18|XSize=15.7mil|YSize=137.8mil|CornerRadius=3.9mil|HoleSize=0mil|Usage=FLASHONLY|Rotation=270.000|XOffset=0mil|YOffset=0mil|HoleType=Round|Shape=RoundedRectangle|*
%AMROUNDEDRECTD18*
21,1,0.0157,0.1299,0,0,270.0*
21,1,0.0079,0.1378,0,0,270.0*
1,1,0.0079,-0.0650,-0.0039*
1,1,0.0079,-0.0650,0.0039*
1,1,0.0079,0.0650,0.0039*
1,1,0.0079,0.0650,-0.0039*
%
%ADD18ROUNDEDRECTD18*%
%ADD19O,0.2117X0.0748*%
%ADD20R,0.0620X0.0265*%
%ADD21R,0.0315X0.0315*%
%ADD22R,0.0630X0.0394*%
G36*
X4346Y15948D02*
Y15633D01*
X4327Y15613D01*
X4012D01*
X3992Y15633D01*
Y15728D01*
X4138D01*
Y15858D01*
X3992D01*
Y15948D01*
X4012Y15968D01*
X4327D01*
X4346Y15948D01*
D02*
G37*
G36*
X3716D02*
Y15858D01*
X3567D01*
Y15728D01*
X3716D01*
Y15633D01*
X3697Y15613D01*
X3386D01*
X3366Y15633D01*
Y15948D01*
X3386Y15968D01*
X3697D01*
X3716Y15948D01*
D02*
G37*
G36*
X12568Y13020D02*
Y12709D01*
X12548Y12690D01*
X12458D01*
Y12839D01*
X12328D01*
Y12690D01*
X12233D01*
X12213Y12709D01*
Y13020D01*
X12233Y13040D01*
X12548D01*
X12568Y13020D01*
D02*
G37*
G36*
X11068D02*
Y12709D01*
X11048Y12690D01*
X10958D01*
Y12839D01*
X10828D01*
Y12690D01*
X10733D01*
X10713Y12709D01*
Y13020D01*
X10733Y13040D01*
X11048D01*
X11068Y13020D01*
D02*
G37*
G36*
X9568D02*
Y12709D01*
X9548Y12690D01*
X9458D01*
Y12839D01*
X9328D01*
Y12690D01*
X9233D01*
X9213Y12709D01*
Y13020D01*
X9233Y13040D01*
X9548D01*
X9568Y13020D01*
D02*
G37*
G36*
X12568Y12394D02*
Y12080D01*
X12548Y12060D01*
X12233D01*
X12213Y12080D01*
Y12394D01*
X12233Y12414D01*
X12328D01*
Y12269D01*
X12458D01*
Y12414D01*
X12548D01*
X12568Y12394D01*
D02*
G37*
G36*
X11068D02*
Y12080D01*
X11048Y12060D01*
X10733D01*
X10713Y12080D01*
Y12394D01*
X10733Y12414D01*
X10828D01*
Y12269D01*
X10958D01*
Y12414D01*
X11048D01*
X11068Y12394D01*
D02*
G37*
G36*
X9568D02*
Y12080D01*
X9548Y12060D01*
X9233D01*
X9213Y12080D01*
Y12394D01*
X9233Y12414D01*
X9328D01*
Y12269D01*
X9458D01*
Y12414D01*
X9548D01*
X9568Y12394D01*
D02*
G37*
G36*
X13565Y5920D02*
Y5606D01*
X13545Y5586D01*
X13450D01*
Y5731D01*
X13320D01*
Y5586D01*
X13230D01*
X13210Y5606D01*
Y5920D01*
X13230Y5940D01*
X13545D01*
X13565Y5920D01*
D02*
G37*
G36*
X12635D02*
Y5606D01*
X12616Y5586D01*
X12520D01*
Y5731D01*
X12391D01*
Y5586D01*
X12301D01*
X12281Y5606D01*
Y5920D01*
X12301Y5940D01*
X12616D01*
X12635Y5920D01*
D02*
G37*
G36*
X13565Y5291D02*
Y4980D01*
X13545Y4960D01*
X13230D01*
X13210Y4980D01*
Y5291D01*
X13230Y5310D01*
X13320D01*
Y5161D01*
X13450D01*
Y5310D01*
X13545D01*
X13565Y5291D01*
D02*
G37*
G36*
X12635D02*
Y4980D01*
X12616Y4960D01*
X12301D01*
X12281Y4980D01*
Y5291D01*
X12301Y5310D01*
X12391D01*
Y5161D01*
X12520D01*
Y5310D01*
X12616D01*
X12635Y5291D01*
D02*
G37*
G36*
X8690Y4530D02*
Y4024D01*
X8651Y3985D01*
X8505D01*
X8466Y4024D01*
Y4144D01*
X8426Y4183D01*
X8274D01*
X8234Y4144D01*
Y4024D01*
X8195Y3985D01*
X8049D01*
X8010Y4024D01*
Y4530D01*
X8049Y4569D01*
X8651D01*
X8690Y4530D01*
D02*
G37*
G36*
Y3276D02*
Y2770D01*
X8651Y2731D01*
X8049D01*
X8010Y2770D01*
Y3276D01*
X8049Y3315D01*
X8195D01*
X8234Y3276D01*
Y3156D01*
X8274Y3117D01*
X8426D01*
X8466Y3156D01*
Y3276D01*
X8505Y3315D01*
X8651D01*
X8690Y3276D01*
D02*
G37*
D10*
X387Y19685D02*
G03*
X-6Y19291I0J-394D01*
G01*
Y394D02*
G03*
X387Y0I394J0D01*
G01*
X20072D02*
G03*
X20466Y394I0J394D01*
G01*
Y19291D02*
G03*
X20072Y19685I-394J0D01*
G01*
X7687Y13780D02*
G03*
X8081Y13386I394J0D01*
G01*
X12395D02*
G03*
X12789Y13780I0J394D01*
G01*
X13183Y19685D02*
G03*
X12789Y19291I0J-394D01*
G01*
X7687D02*
G03*
X7294Y19685I-394J0D01*
G01*
X-6Y394D02*
Y19291D01*
X20466Y394D02*
Y19291D01*
X387Y19685D02*
X7294Y19685D01*
X387Y0D02*
X20072D01*
X13183Y19685D02*
X20072D01*
X8082Y13386D02*
X12395D01*
X12789Y13770D02*
Y19306D01*
X7687Y13782D02*
Y19291D01*
D15*
X2629Y2564D02*
G03*
X2629Y2564I-138J0D01*
G01*
X4904D02*
G03*
X4904Y2564I-138J0D01*
G01*
D16*
X1200Y2426D02*
D03*
Y1874D02*
D03*
X14287Y5726D02*
D03*
Y5174D02*
D03*
X7037Y5976D02*
D03*
Y5424D02*
D03*
D17*
X2879Y744D02*
D03*
X3379D02*
D03*
X3879D02*
D03*
X4379D02*
D03*
X2879Y2856D02*
D03*
X3379D02*
D03*
X3879D02*
D03*
X4379D02*
D03*
D18*
X6937Y10423D02*
D03*
Y10698D02*
D03*
Y9596D02*
D03*
Y9872D02*
D03*
Y8769D02*
D03*
Y9045D02*
D03*
Y7943D02*
D03*
Y8218D02*
D03*
Y10974D02*
D03*
Y7667D02*
D03*
Y8494D02*
D03*
Y9320D02*
D03*
Y10147D02*
D03*
D19*
X8905Y5687D02*
D03*
D20*
X7837Y5100D02*
D03*
Y6281D02*
D03*
D21*
X8739Y12885D02*
D03*
X8741Y12255D02*
D03*
X10237Y12885D02*
D03*
X10239Y12255D02*
D03*
X11739Y12885D02*
D03*
X11741Y12255D02*
D03*
D22*
X17840Y7172D02*
D03*
X15635D02*
D03*
X17840Y8628D02*
D03*
X15635D02*
D03*
X17840Y9722D02*
D03*
X15635D02*
D03*
X17840Y11178D02*
D03*
X15635D02*
D03*
M02*
