G04*
G04 #@! TF.GenerationSoftware,Altium Limited,Altium Designer,22.0.2 (36)*
G04*
G04 Layer_Color=2752767*
%FSLAX24Y24*%
%MOIN*%
G70*
G04*
G04 #@! TF.SameCoordinates,D7CE2511-F244-4390-A2D0-A891EFF9428C*
G04*
G04*
G04 #@! TF.FilePolarity,Positive*
G04*
G01*
G75*
%ADD10C,0.0100*%
%ADD15C,0.0002*%
%ADD125C,0.0020*%
%ADD126C,0.0027*%
%ADD127C,0.0013*%
D10*
X387Y19685D02*
G03*
X-6Y19291I0J-394D01*
G01*
Y394D02*
G03*
X387Y0I394J0D01*
G01*
X20072D02*
G03*
X20466Y394I0J394D01*
G01*
Y19291D02*
G03*
X20072Y19685I-394J0D01*
G01*
X7687Y13780D02*
G03*
X8081Y13386I394J0D01*
G01*
X12395D02*
G03*
X12789Y13780I0J394D01*
G01*
X13183Y19685D02*
G03*
X12789Y19291I0J-394D01*
G01*
X7687D02*
G03*
X7294Y19685I-394J0D01*
G01*
X-6Y394D02*
Y19291D01*
X20466Y394D02*
Y19291D01*
X387Y19685D02*
X7294Y19685D01*
X387Y0D02*
X20072D01*
X13183Y19685D02*
X20072D01*
X8082Y13386D02*
X12395D01*
X12789Y13770D02*
Y19306D01*
X7687Y13782D02*
Y19291D01*
D15*
X2629Y2564D02*
G03*
X2629Y2564I-138J0D01*
G01*
X4904D02*
G03*
X4904Y2564I-138J0D01*
G01*
D125*
X1846Y1035D02*
Y1195D01*
X2006D01*
Y1035D01*
X1846D01*
X5251D02*
Y1195D01*
X5411D01*
Y1035D01*
X5251D01*
X2200Y10795D02*
X2120Y10955D01*
X2280D01*
X2200Y10795D01*
Y11770D02*
X2120Y11930D01*
X2280D01*
X2200Y11770D01*
Y12745D02*
X2120Y12905D01*
X2280D01*
X2200Y12745D01*
Y13720D02*
X2120Y13880D01*
X2280D01*
X2200Y13720D01*
Y9820D02*
X2120Y9980D01*
X2280D01*
X2200Y9820D01*
X19685Y707D02*
X19725Y747D01*
X19765D01*
X19725Y787D01*
X19765Y827D01*
X19725D01*
X19685Y867D01*
X19645Y827D01*
X19605D01*
X19645Y787D01*
X19605Y747D01*
X19645D01*
X19685Y707D01*
X787D02*
X827Y747D01*
X867D01*
X827Y787D01*
X867Y827D01*
X827D01*
X787Y867D01*
X747Y827D01*
X707D01*
X747Y787D01*
X707Y747D01*
X747D01*
X787Y707D01*
X19685Y18818D02*
X19725Y18858D01*
X19765D01*
X19725Y18898D01*
X19765Y18938D01*
X19725D01*
X19685Y18978D01*
X19645Y18938D01*
X19605D01*
X19645Y18898D01*
X19605Y18858D01*
X19645D01*
X19685Y18818D01*
X787D02*
X827Y18858D01*
X867D01*
X827Y18898D01*
X867Y18938D01*
X827D01*
X787Y18978D01*
X747Y18938D01*
X707D01*
X747Y18898D01*
X707Y18858D01*
X747D01*
X787Y18818D01*
X3070Y1870D02*
X3110Y1950D01*
X3070Y2030D01*
X3150Y1990D01*
X3230Y2030D01*
X3190Y1950D01*
X3230Y1870D01*
X3150Y1910D01*
X3070Y1870D01*
X3120Y3770D02*
X3160Y3850D01*
X3120Y3930D01*
X3200Y3890D01*
X3280Y3930D01*
X3240Y3850D01*
X3280Y3770D01*
X3200Y3810D01*
X3120Y3770D01*
X3320Y8520D02*
X3360Y8600D01*
X3320Y8680D01*
X3400Y8640D01*
X3480Y8680D01*
X3440Y8600D01*
X3480Y8520D01*
X3400Y8560D01*
X3320Y8520D01*
X2020Y7620D02*
X2060Y7700D01*
X2020Y7780D01*
X2100Y7740D01*
X2180Y7780D01*
X2140Y7700D01*
X2180Y7620D01*
X2100Y7660D01*
X2020Y7620D01*
X13620Y7420D02*
X13660Y7500D01*
X13620Y7580D01*
X13700Y7540D01*
X13780Y7580D01*
X13740Y7500D01*
X13780Y7420D01*
X13700Y7460D01*
X13620Y7420D01*
X2270Y1559D02*
X2310Y1639D01*
X2270Y1719D01*
X2350Y1679D01*
X2430Y1719D01*
X2390Y1639D01*
X2430Y1559D01*
X2350Y1599D01*
X2270Y1559D01*
X770Y2346D02*
X810Y2426D01*
X770Y2506D01*
X850Y2466D01*
X930Y2506D01*
X890Y2426D01*
X930Y2346D01*
X850Y2386D01*
X770Y2346D01*
X1833Y2070D02*
X1873Y2150D01*
X1833Y2230D01*
X1913Y2190D01*
X1993Y2230D01*
X1953Y2150D01*
X1993Y2070D01*
X1913Y2110D01*
X1833Y2070D01*
X13810Y10910D02*
Y10870D01*
X13890D01*
Y10910D01*
X13930D01*
Y10990D01*
X13890D01*
Y11030D01*
X13810D01*
Y10990D01*
X13770D01*
Y10910D01*
X13810D01*
X5048Y7520D02*
X5088D01*
X5128Y7560D01*
X5168Y7520D01*
X5208D01*
Y7560D01*
X5168Y7600D01*
X5208Y7640D01*
Y7680D01*
X5168D01*
X5128Y7640D01*
X5088Y7680D01*
X5048D01*
Y7640D01*
X5088Y7600D01*
X5048Y7560D01*
Y7520D01*
X1820Y6870D02*
X1860D01*
X1900Y6910D01*
X1940Y6870D01*
X1980D01*
Y6910D01*
X1940Y6950D01*
X1980Y6990D01*
Y7030D01*
X1940D01*
X1900Y6990D01*
X1860Y7030D01*
X1820D01*
Y6990D01*
X1860Y6950D01*
X1820Y6910D01*
Y6870D01*
X8420Y770D02*
X8460Y850D01*
X8420Y930D01*
X8500Y890D01*
X8580Y930D01*
X8540Y850D01*
X8580Y770D01*
X8500Y810D01*
X8420Y770D01*
X4670Y18170D02*
X4710Y18250D01*
X4670Y18330D01*
X4750Y18290D01*
X4830Y18330D01*
X4790Y18250D01*
X4830Y18170D01*
X4750Y18210D01*
X4670Y18170D01*
X2620Y18120D02*
X2660Y18200D01*
X2620Y18280D01*
X2700Y18240D01*
X2780Y18280D01*
X2740Y18200D01*
X2780Y18120D01*
X2700Y18160D01*
X2620Y18120D01*
X1120Y16070D02*
X1160Y16150D01*
X1120Y16230D01*
X1200Y16190D01*
X1280Y16230D01*
X1240Y16150D01*
X1280Y16070D01*
X1200Y16110D01*
X1120Y16070D01*
Y16820D02*
X1160Y16900D01*
X1120Y16980D01*
X1200Y16940D01*
X1280Y16980D01*
X1240Y16900D01*
X1280Y16820D01*
X1200Y16860D01*
X1120Y16820D01*
X10339Y7189D02*
X10379Y7269D01*
X10339Y7349D01*
X10419Y7309D01*
X10499Y7349D01*
X10459Y7269D01*
X10499Y7189D01*
X10419Y7229D01*
X10339Y7189D01*
X10371Y6915D02*
X10411Y6995D01*
X10371Y7075D01*
X10451Y7035D01*
X10531Y7075D01*
X10491Y6995D01*
X10531Y6915D01*
X10451Y6955D01*
X10371Y6915D01*
X17455Y6689D02*
X17495Y6769D01*
X17455Y6849D01*
X17535Y6809D01*
X17615Y6849D01*
X17575Y6769D01*
X17615Y6689D01*
X17535Y6729D01*
X17455Y6689D01*
X16785Y8370D02*
X16825Y8450D01*
X16785Y8530D01*
X16865Y8490D01*
X16945Y8530D01*
X16905Y8450D01*
X16945Y8370D01*
X16865Y8410D01*
X16785Y8370D01*
X20070Y6070D02*
X20110Y6150D01*
X20070Y6230D01*
X20150Y6190D01*
X20230Y6230D01*
X20190Y6150D01*
X20230Y6070D01*
X20150Y6110D01*
X20070Y6070D01*
X7020Y2370D02*
X7060Y2450D01*
X7020Y2530D01*
X7100Y2490D01*
X7180Y2530D01*
X7140Y2450D01*
X7180Y2370D01*
X7100Y2410D01*
X7020Y2370D01*
X5920Y2170D02*
X5960Y2250D01*
X5920Y2330D01*
X6000Y2290D01*
X6080Y2330D01*
X6040Y2250D01*
X6080Y2170D01*
X6000Y2210D01*
X5920Y2170D01*
Y2420D02*
X5960Y2500D01*
X5920Y2580D01*
X6000Y2540D01*
X6080Y2580D01*
X6040Y2500D01*
X6080Y2420D01*
X6000Y2460D01*
X5920Y2420D01*
Y2670D02*
X5960Y2750D01*
X5920Y2830D01*
X6000Y2790D01*
X6080Y2830D01*
X6040Y2750D01*
X6080Y2670D01*
X6000Y2710D01*
X5920Y2670D01*
X2799Y1570D02*
X2839D01*
X2879Y1610D01*
X2919Y1570D01*
X2959D01*
Y1610D01*
X2919Y1650D01*
X2959Y1690D01*
Y1730D01*
X2919D01*
X2879Y1690D01*
X2839Y1730D01*
X2799D01*
Y1690D01*
X2839Y1650D01*
X2799Y1610D01*
Y1570D01*
X4299Y2020D02*
X4339Y2100D01*
X4299Y2180D01*
X4379Y2140D01*
X4459Y2180D01*
X4419Y2100D01*
X4459Y2020D01*
X4379Y2060D01*
X4299Y2020D01*
X4494Y3270D02*
X4534D01*
X4574Y3310D01*
X4614Y3270D01*
X4654D01*
Y3310D01*
X4614Y3350D01*
X4654Y3390D01*
Y3430D01*
X4614D01*
X4574Y3390D01*
X4534Y3430D01*
X4494D01*
Y3390D01*
X4534Y3350D01*
X4494Y3310D01*
Y3270D01*
X5251Y2070D02*
X5291Y2150D01*
X5251Y2230D01*
X5331Y2190D01*
X5411Y2230D01*
X5371Y2150D01*
X5411Y2070D01*
X5331Y2110D01*
X5251Y2070D01*
X11870Y7170D02*
X11910Y7250D01*
X11870Y7330D01*
X11950Y7290D01*
X12030Y7330D01*
X11990Y7250D01*
X12030Y7170D01*
X11950Y7210D01*
X11870Y7170D01*
X12370Y7370D02*
X12410Y7450D01*
X12370Y7530D01*
X12450Y7490D01*
X12530Y7530D01*
X12490Y7450D01*
X12530Y7370D01*
X12450Y7410D01*
X12370Y7370D01*
X14420Y6370D02*
X14460Y6450D01*
X14420Y6530D01*
X14500Y6490D01*
X14580Y6530D01*
X14540Y6450D01*
X14580Y6370D01*
X14500Y6410D01*
X14420Y6370D01*
X14520Y5605D02*
X14560Y5685D01*
X14520Y5765D01*
X14600Y5725D01*
X14680Y5765D01*
X14640Y5685D01*
X14680Y5605D01*
X14600Y5645D01*
X14520Y5605D01*
X3799Y2220D02*
X3839Y2300D01*
X3799Y2380D01*
X3879Y2340D01*
X3959Y2380D01*
X3919Y2300D01*
X3959Y2220D01*
X3879Y2260D01*
X3799Y2220D01*
X3844Y3270D02*
X3884Y3350D01*
X3844Y3430D01*
X3924Y3390D01*
X4004Y3430D01*
X3964Y3350D01*
X4004Y3270D01*
X3924Y3310D01*
X3844Y3270D01*
X3450D02*
X3490Y3350D01*
X3450Y3430D01*
X3530Y3390D01*
X3610Y3430D01*
X3570Y3350D01*
X3610Y3270D01*
X3530Y3310D01*
X3450Y3270D01*
X3620Y15170D02*
X3660Y15250D01*
X3620Y15330D01*
X3700Y15290D01*
X3780Y15330D01*
X3740Y15250D01*
X3780Y15170D01*
X3700Y15210D01*
X3620Y15170D01*
X3920D02*
X3960Y15250D01*
X3920Y15330D01*
X4000Y15290D01*
X4080Y15330D01*
X4040Y15250D01*
X4080Y15170D01*
X4000Y15210D01*
X3920Y15170D01*
X4270Y4250D02*
X4350Y4330D01*
X4430Y4250D01*
X4350Y4170D01*
X4270Y4250D01*
X7770Y8138D02*
X7810Y8218D01*
X7770Y8298D01*
X7850Y8258D01*
X7930Y8298D01*
X7890Y8218D01*
X7930Y8138D01*
X7850Y8178D01*
X7770Y8138D01*
X6470Y14270D02*
X6510Y14350D01*
X6470Y14430D01*
X6550Y14390D01*
X6630Y14430D01*
X6590Y14350D01*
X6630Y14270D01*
X6550Y14310D01*
X6470Y14270D01*
X5270D02*
X5310Y14350D01*
X5270Y14430D01*
X5350Y14390D01*
X5430Y14430D01*
X5390Y14350D01*
X5430Y14270D01*
X5350Y14310D01*
X5270Y14270D01*
X10070Y6020D02*
X10110Y6100D01*
X10070Y6180D01*
X10150Y6140D01*
X10230Y6180D01*
X10190Y6100D01*
X10230Y6020D01*
X10150Y6060D01*
X10070Y6020D01*
X10270Y5820D02*
X10310Y5900D01*
X10270Y5980D01*
X10350Y5940D01*
X10430Y5980D01*
X10390Y5900D01*
X10430Y5820D01*
X10350Y5860D01*
X10270Y5820D01*
X9870Y6220D02*
X9910Y6300D01*
X9870Y6380D01*
X9950Y6340D01*
X10030Y6380D01*
X9990Y6300D01*
X10030Y6220D01*
X9950Y6260D01*
X9870Y6220D01*
X3170Y14620D02*
X3210Y14700D01*
X3170Y14780D01*
X3250Y14740D01*
X3330Y14780D01*
X3290Y14700D01*
X3330Y14620D01*
X3250Y14660D01*
X3170Y14620D01*
X6970Y13020D02*
X7010Y13100D01*
X6970Y13180D01*
X7050Y13140D01*
X7130Y13180D01*
X7090Y13100D01*
X7130Y13020D01*
X7050Y13060D01*
X6970Y13020D01*
X6620Y17720D02*
X6660Y17800D01*
X6620Y17880D01*
X6700Y17840D01*
X6780Y17880D01*
X6740Y17800D01*
X6780Y17720D01*
X6700Y17760D01*
X6620Y17720D01*
X5970Y16520D02*
X6010Y16600D01*
X5970Y16680D01*
X6050Y16640D01*
X6130Y16680D01*
X6090Y16600D01*
X6130Y16520D01*
X6050Y16560D01*
X5970Y16520D01*
X5261Y16861D02*
X5301Y16941D01*
X5261Y17021D01*
X5341Y16981D01*
X5421Y17021D01*
X5381Y16941D01*
X5421Y16861D01*
X5341Y16901D01*
X5261Y16861D01*
X16870Y17670D02*
X16910Y17750D01*
X16870Y17830D01*
X16950Y17790D01*
X17030Y17830D01*
X16990Y17750D01*
X17030Y17670D01*
X16950Y17710D01*
X16870Y17670D01*
X8510Y4610D02*
Y4570D01*
X8590D01*
Y4610D01*
X8630D01*
Y4690D01*
X8590D01*
Y4730D01*
X8510D01*
Y4690D01*
X8470D01*
Y4610D01*
X8510D01*
X7520Y4570D02*
X7560Y4650D01*
X7520Y4730D01*
X7600Y4690D01*
X7680Y4730D01*
X7640Y4650D01*
X7680Y4570D01*
X7600Y4610D01*
X7520Y4570D01*
X7720Y4770D02*
X7760Y4850D01*
X7720Y4930D01*
X7800Y4890D01*
X7880Y4930D01*
X7840Y4850D01*
X7880Y4770D01*
X7800Y4810D01*
X7720Y4770D01*
X7520D02*
X7560Y4850D01*
X7520Y4930D01*
X7600Y4890D01*
X7680Y4930D01*
X7640Y4850D01*
X7680Y4770D01*
X7600Y4810D01*
X7520Y4770D01*
X15870Y9170D02*
X15910Y9250D01*
X15870Y9330D01*
X15950Y9290D01*
X16030Y9330D01*
X15990Y9250D01*
X16030Y9170D01*
X15950Y9210D01*
X15870Y9170D01*
Y8070D02*
X15910Y8150D01*
X15870Y8230D01*
X15950Y8190D01*
X16030Y8230D01*
X15990Y8150D01*
X16030Y8070D01*
X15950Y8110D01*
X15870Y8070D01*
X15570Y12320D02*
X15610Y12400D01*
X15570Y12480D01*
X15650Y12440D01*
X15730Y12480D01*
X15690Y12400D01*
X15730Y12320D01*
X15650Y12360D01*
X15570Y12320D01*
X15120Y12170D02*
X15160Y12250D01*
X15120Y12330D01*
X15200Y12290D01*
X15280Y12330D01*
X15240Y12250D01*
X15280Y12170D01*
X15200Y12210D01*
X15120Y12170D01*
Y13320D02*
X15160Y13400D01*
X15120Y13480D01*
X15200Y13440D01*
X15280Y13480D01*
X15240Y13400D01*
X15280Y13320D01*
X15200Y13360D01*
X15120Y13320D01*
X13120Y12170D02*
X13160Y12250D01*
X13120Y12330D01*
X13200Y12290D01*
X13280Y12330D01*
X13240Y12250D01*
X13280Y12170D01*
X13200Y12210D01*
X13120Y12170D01*
X8461Y2317D02*
X8501Y2397D01*
X8461Y2477D01*
X8541Y2437D01*
X8621Y2477D01*
X8581Y2397D01*
X8621Y2317D01*
X8541Y2357D01*
X8461Y2317D01*
X8854D02*
X8894Y2397D01*
X8854Y2477D01*
X8934Y2437D01*
X9014Y2477D01*
X8974Y2397D01*
X9014Y2317D01*
X8934Y2357D01*
X8854Y2317D01*
Y1923D02*
X8894Y2003D01*
X8854Y2083D01*
X8934Y2043D01*
X9014Y2083D01*
X8974Y2003D01*
X9014Y1923D01*
X8934Y1963D01*
X8854Y1923D01*
X8461D02*
X8501Y2003D01*
X8461Y2083D01*
X8541Y2043D01*
X8621Y2083D01*
X8581Y2003D01*
X8621Y1923D01*
X8541Y1963D01*
X8461Y1923D01*
X4622Y10072D02*
X4662Y10152D01*
X4622Y10232D01*
X4702Y10192D01*
X4782Y10232D01*
X4742Y10152D01*
X4782Y10072D01*
X4702Y10112D01*
X4622Y10072D01*
X6019Y9802D02*
X6059Y9882D01*
X6019Y9962D01*
X6099Y9922D01*
X6179Y9962D01*
X6139Y9882D01*
X6179Y9802D01*
X6099Y9842D01*
X6019Y9802D01*
X6043Y9543D02*
X6083Y9623D01*
X6043Y9703D01*
X6123Y9663D01*
X6203Y9703D01*
X6163Y9623D01*
X6203Y9543D01*
X6123Y9583D01*
X6043Y9543D01*
X5070Y11470D02*
X5110Y11550D01*
X5070Y11630D01*
X5150Y11590D01*
X5230Y11630D01*
X5190Y11550D01*
X5230Y11470D01*
X5150Y11510D01*
X5070Y11470D01*
X5920Y10170D02*
X5960Y10250D01*
X5920Y10330D01*
X6000Y10290D01*
X6080Y10330D01*
X6040Y10250D01*
X6080Y10170D01*
X6000Y10210D01*
X5920Y10170D01*
X4120Y8506D02*
Y8666D01*
X4280D01*
Y8506D01*
X4120D01*
X4160Y8546D02*
Y8626D01*
X4240D01*
Y8546D01*
X4160D01*
X17070Y16220D02*
X17110Y16300D01*
X17070Y16380D01*
X17150Y16340D01*
X17230Y16380D01*
X17190Y16300D01*
X17230Y16220D01*
X17150Y16260D01*
X17070Y16220D01*
X18620Y15670D02*
X18660Y15750D01*
X18620Y15830D01*
X18700Y15790D01*
X18780Y15830D01*
X18740Y15750D01*
X18780Y15670D01*
X18700Y15710D01*
X18620Y15670D01*
Y16570D02*
X18660Y16650D01*
X18620Y16730D01*
X18700Y16690D01*
X18780Y16730D01*
X18740Y16650D01*
X18780Y16570D01*
X18700Y16610D01*
X18620Y16570D01*
X6820Y6220D02*
X6860Y6300D01*
X6820Y6380D01*
X6900Y6340D01*
X6980Y6380D01*
X6940Y6300D01*
X6980Y6220D01*
X6900Y6260D01*
X6820Y6220D01*
X12181Y4520D02*
X12221Y4600D01*
X12181Y4680D01*
X12261Y4640D01*
X12341Y4680D01*
X12301Y4600D01*
X12341Y4520D01*
X12261Y4560D01*
X12181Y4520D01*
X12570D02*
X12610Y4600D01*
X12570Y4680D01*
X12650Y4640D01*
X12730Y4680D01*
X12690Y4600D01*
X12730Y4520D01*
X12650Y4560D01*
X12570Y4520D01*
X10870Y11870D02*
X10910Y11950D01*
X10870Y12030D01*
X10950Y11990D01*
X11030Y12030D01*
X10990Y11950D01*
X11030Y11870D01*
X10950Y11910D01*
X10870Y11870D01*
X14420Y11820D02*
X14460Y11900D01*
X14420Y11980D01*
X14500Y11940D01*
X14580Y11980D01*
X14540Y11900D01*
X14580Y11820D01*
X14500Y11860D01*
X14420Y11820D01*
X12315Y11870D02*
X12355Y11950D01*
X12315Y12030D01*
X12395Y11990D01*
X12475Y12030D01*
X12435Y11950D01*
X12475Y11870D01*
X12395Y11910D01*
X12315Y11870D01*
X14320Y11520D02*
X14360Y11600D01*
X14320Y11680D01*
X14400Y11640D01*
X14480Y11680D01*
X14440Y11600D01*
X14480Y11520D01*
X14400Y11560D01*
X14320Y11520D01*
X9770Y770D02*
X9810Y850D01*
X9770Y930D01*
X9850Y890D01*
X9930Y930D01*
X9890Y850D01*
X9930Y770D01*
X9850Y810D01*
X9770Y770D01*
X13320Y13270D02*
X13360Y13350D01*
X13320Y13430D01*
X13400Y13390D01*
X13480Y13430D01*
X13440Y13350D01*
X13480Y13270D01*
X13400Y13310D01*
X13320Y13270D01*
X14470Y4520D02*
X14510Y4600D01*
X14470Y4680D01*
X14550Y4640D01*
X14630Y4680D01*
X14590Y4600D01*
X14630Y4520D01*
X14550Y4560D01*
X14470Y4520D01*
X12520Y6920D02*
X12560Y7000D01*
X12520Y7080D01*
X12600Y7040D01*
X12680Y7080D01*
X12640Y7000D01*
X12680Y6920D01*
X12600Y6960D01*
X12520Y6920D01*
X19070Y12170D02*
X19110Y12250D01*
X19070Y12330D01*
X19150Y12290D01*
X19230Y12330D01*
X19190Y12250D01*
X19230Y12170D01*
X19150Y12210D01*
X19070Y12170D01*
Y11570D02*
X19110Y11650D01*
X19070Y11730D01*
X19150Y11690D01*
X19230Y11730D01*
X19190Y11650D01*
X19230Y11570D01*
X19150Y11610D01*
X19070Y11570D01*
Y10920D02*
X19110Y11000D01*
X19070Y11080D01*
X19150Y11040D01*
X19230Y11080D01*
X19190Y11000D01*
X19230Y10920D01*
X19150Y10960D01*
X19070Y10920D01*
X570Y14320D02*
X610Y14400D01*
X570Y14480D01*
X650Y14440D01*
X730Y14480D01*
X690Y14400D01*
X730Y14320D01*
X650Y14360D01*
X570Y14320D01*
X14670Y2196D02*
X14710Y2276D01*
X14670Y2356D01*
X14750Y2316D01*
X14830Y2356D01*
X14790Y2276D01*
X14830Y2196D01*
X14750Y2236D01*
X14670Y2196D01*
X15520Y920D02*
X15560Y1000D01*
X15520Y1080D01*
X15600Y1040D01*
X15680Y1080D01*
X15640Y1000D01*
X15680Y920D01*
X15600Y960D01*
X15520Y920D01*
X13620Y970D02*
X13660Y1050D01*
X13620Y1130D01*
X13700Y1090D01*
X13780Y1130D01*
X13740Y1050D01*
X13780Y970D01*
X13700Y1010D01*
X13620Y970D01*
X15120Y1270D02*
X15160Y1350D01*
X15120Y1430D01*
X15200Y1390D01*
X15280Y1430D01*
X15240Y1350D01*
X15280Y1270D01*
X15200Y1310D01*
X15120Y1270D01*
X15030Y3188D02*
X15070Y3268D01*
X15030Y3348D01*
X15110Y3308D01*
X15190Y3348D01*
X15150Y3268D01*
X15190Y3188D01*
X15110Y3228D01*
X15030Y3188D01*
X14820Y2970D02*
X14860Y3050D01*
X14820Y3130D01*
X14900Y3090D01*
X14980Y3130D01*
X14940Y3050D01*
X14980Y2970D01*
X14900Y3010D01*
X14820Y2970D01*
X7711Y10561D02*
X7751Y10641D01*
X7711Y10721D01*
X7791Y10681D01*
X7871Y10721D01*
X7831Y10641D01*
X7871Y10561D01*
X7791Y10601D01*
X7711Y10561D01*
X7770Y10150D02*
X7850Y10230D01*
X7930Y10150D01*
X7850Y10070D01*
X7770Y10150D01*
X20070Y7270D02*
X20110Y7350D01*
X20070Y7430D01*
X20150Y7390D01*
X20230Y7430D01*
X20190Y7350D01*
X20230Y7270D01*
X20150Y7310D01*
X20070Y7270D01*
X19670Y4370D02*
X19710Y4450D01*
X19670Y4530D01*
X19750Y4490D01*
X19830Y4530D01*
X19790Y4450D01*
X19830Y4370D01*
X19750Y4410D01*
X19670Y4370D01*
X19120D02*
X19160Y4450D01*
X19120Y4530D01*
X19200Y4490D01*
X19280Y4530D01*
X19240Y4450D01*
X19280Y4370D01*
X19200Y4410D01*
X19120Y4370D01*
X18770Y4670D02*
X18810Y4750D01*
X18770Y4830D01*
X18850Y4790D01*
X18930Y4830D01*
X18890Y4750D01*
X18930Y4670D01*
X18850Y4710D01*
X18770Y4670D01*
Y4970D02*
X18810Y5050D01*
X18770Y5130D01*
X18850Y5090D01*
X18930Y5130D01*
X18890Y5050D01*
X18930Y4970D01*
X18850Y5010D01*
X18770Y4970D01*
Y5270D02*
X18810Y5350D01*
X18770Y5430D01*
X18850Y5390D01*
X18930Y5430D01*
X18890Y5350D01*
X18930Y5270D01*
X18850Y5310D01*
X18770Y5270D01*
X20020Y4670D02*
X20060Y4750D01*
X20020Y4830D01*
X20100Y4790D01*
X20180Y4830D01*
X20140Y4750D01*
X20180Y4670D01*
X20100Y4710D01*
X20020Y4670D01*
Y4970D02*
X20060Y5050D01*
X20020Y5130D01*
X20100Y5090D01*
X20180Y5130D01*
X20140Y5050D01*
X20180Y4970D01*
X20100Y5010D01*
X20020Y4970D01*
Y5270D02*
X20060Y5350D01*
X20020Y5430D01*
X20100Y5390D01*
X20180Y5430D01*
X20140Y5350D01*
X20180Y5270D01*
X20100Y5310D01*
X20020Y5270D01*
X12120Y1300D02*
X12200Y1380D01*
X12280Y1300D01*
X12200Y1220D01*
X12120Y1300D01*
X11420D02*
X11500Y1380D01*
X11580Y1300D01*
X11500Y1220D01*
X11420Y1300D01*
X17170Y4470D02*
X17210Y4550D01*
X17170Y4630D01*
X17250Y4590D01*
X17330Y4630D01*
X17290Y4550D01*
X17330Y4470D01*
X17250Y4510D01*
X17170Y4470D01*
X3870Y6720D02*
X3910D01*
X3950Y6760D01*
X3990Y6720D01*
X4030D01*
Y6760D01*
X3990Y6800D01*
X4030Y6840D01*
Y6880D01*
X3990D01*
X3950Y6840D01*
X3910Y6880D01*
X3870D01*
Y6840D01*
X3910Y6800D01*
X3870Y6760D01*
Y6720D01*
X4170Y7170D02*
X4210D01*
X4250Y7210D01*
X4290Y7170D01*
X4330D01*
Y7210D01*
X4290Y7250D01*
X4330Y7290D01*
Y7330D01*
X4290D01*
X4250Y7290D01*
X4210Y7330D01*
X4170D01*
Y7290D01*
X4210Y7250D01*
X4170Y7210D01*
Y7170D01*
X5991Y6370D02*
X6031Y6450D01*
X5991Y6530D01*
X6071Y6490D01*
X6151Y6530D01*
X6111Y6450D01*
X6151Y6370D01*
X6071Y6410D01*
X5991Y6370D01*
X7870Y11296D02*
X7910Y11376D01*
X7870Y11456D01*
X7950Y11416D01*
X8030Y11456D01*
X7990Y11376D01*
X8030Y11296D01*
X7950Y11336D01*
X7870Y11296D01*
X15320Y1920D02*
X15360Y2000D01*
X15320Y2080D01*
X15400Y2040D01*
X15480Y2080D01*
X15440Y2000D01*
X15480Y1920D01*
X15400Y1960D01*
X15320Y1920D01*
X14120Y13500D02*
X14200Y13580D01*
X14280Y13500D01*
X14200Y13420D01*
X14120Y13500D01*
X9220Y7020D02*
X9260Y7100D01*
X9220Y7180D01*
X9300Y7140D01*
X9380Y7180D01*
X9340Y7100D01*
X9380Y7020D01*
X9300Y7060D01*
X9220Y7020D01*
X7820Y6470D02*
X7860Y6550D01*
X7820Y6630D01*
X7900Y6590D01*
X7980Y6630D01*
X7940Y6550D01*
X7980Y6470D01*
X7900Y6510D01*
X7820Y6470D01*
X4470Y9270D02*
Y9430D01*
X4630D01*
Y9270D01*
X4470D01*
X4510Y9310D02*
Y9390D01*
X4590D01*
Y9310D01*
X4510D01*
X9350Y6570D02*
X9270Y6730D01*
X9430D01*
X9350Y6570D01*
Y6610D02*
X9310Y6690D01*
X9390D01*
X9350Y6610D01*
X16242Y15570D02*
X16282Y15650D01*
X16242Y15730D01*
X16322Y15690D01*
X16402Y15730D01*
X16362Y15650D01*
X16402Y15570D01*
X16322Y15610D01*
X16242Y15570D01*
X15248D02*
X15288Y15650D01*
X15248Y15730D01*
X15328Y15690D01*
X15408Y15730D01*
X15368Y15650D01*
X15408Y15570D01*
X15328Y15610D01*
X15248Y15570D01*
X11270Y8670D02*
X11310Y8750D01*
X11270Y8830D01*
X11350Y8790D01*
X11430Y8830D01*
X11390Y8750D01*
X11430Y8670D01*
X11350Y8710D01*
X11270Y8670D01*
X11420Y7220D02*
X11460Y7300D01*
X11420Y7380D01*
X11500Y7340D01*
X11580Y7380D01*
X11540Y7300D01*
X11580Y7220D01*
X11500Y7260D01*
X11420Y7220D01*
X11829Y6011D02*
X11869Y6091D01*
X11829Y6171D01*
X11909Y6131D01*
X11989Y6171D01*
X11949Y6091D01*
X11989Y6011D01*
X11909Y6051D01*
X11829Y6011D01*
X11170Y3270D02*
X11210Y3350D01*
X11170Y3430D01*
X11250Y3390D01*
X11330Y3430D01*
X11290Y3350D01*
X11330Y3270D01*
X11250Y3310D01*
X11170Y3270D01*
X10770D02*
X10810Y3350D01*
X10770Y3430D01*
X10850Y3390D01*
X10930Y3430D01*
X10890Y3350D01*
X10930Y3270D01*
X10850Y3310D01*
X10770Y3270D01*
X13670Y2970D02*
X13710Y3050D01*
X13670Y3130D01*
X13750Y3090D01*
X13830Y3130D01*
X13790Y3050D01*
X13830Y2970D01*
X13750Y3010D01*
X13670Y2970D01*
X12770D02*
X12810Y3050D01*
X12770Y3130D01*
X12850Y3090D01*
X12930Y3130D01*
X12890Y3050D01*
X12930Y2970D01*
X12850Y3010D01*
X12770Y2970D01*
X12378Y9270D02*
X12418Y9350D01*
X12378Y9430D01*
X12458Y9390D01*
X12538Y9430D01*
X12498Y9350D01*
X12538Y9270D01*
X12458Y9310D01*
X12378Y9270D01*
X12575Y9470D02*
X12615Y9550D01*
X12575Y9630D01*
X12655Y9590D01*
X12735Y9630D01*
X12695Y9550D01*
X12735Y9470D01*
X12655Y9510D01*
X12575Y9470D01*
X3470Y14170D02*
X3510Y14250D01*
X3470Y14330D01*
X3550Y14290D01*
X3630Y14330D01*
X3590Y14250D01*
X3630Y14170D01*
X3550Y14210D01*
X3470Y14170D01*
X11870Y6320D02*
X11910Y6400D01*
X11870Y6480D01*
X11950Y6440D01*
X12030Y6480D01*
X11990Y6400D01*
X12030Y6320D01*
X11950Y6360D01*
X11870Y6320D01*
X11770Y5720D02*
X11810Y5800D01*
X11770Y5880D01*
X11850Y5840D01*
X11930Y5880D01*
X11890Y5800D01*
X11930Y5720D01*
X11850Y5760D01*
X11770Y5720D01*
X5070Y12470D02*
X5110Y12550D01*
X5070Y12630D01*
X5150Y12590D01*
X5230Y12630D01*
X5190Y12550D01*
X5230Y12470D01*
X5150Y12510D01*
X5070Y12470D01*
Y11070D02*
X5110Y11150D01*
X5070Y11230D01*
X5150Y11190D01*
X5230Y11230D01*
X5190Y11150D01*
X5230Y11070D01*
X5150Y11110D01*
X5070Y11070D01*
X12181Y9070D02*
X12221Y9150D01*
X12181Y9230D01*
X12261Y9190D01*
X12341Y9230D01*
X12301Y9150D01*
X12341Y9070D01*
X12261Y9110D01*
X12181Y9070D01*
X11985Y8870D02*
X12025Y8950D01*
X11985Y9030D01*
X12065Y8990D01*
X12145Y9030D01*
X12105Y8950D01*
X12145Y8870D01*
X12065Y8910D01*
X11985Y8870D01*
X7770Y8414D02*
X7810Y8494D01*
X7770Y8574D01*
X7850Y8534D01*
X7930Y8574D01*
X7890Y8494D01*
X7930Y8414D01*
X7850Y8454D01*
X7770Y8414D01*
Y9240D02*
X7810Y9320D01*
X7770Y9400D01*
X7850Y9360D01*
X7930Y9400D01*
X7890Y9320D01*
X7930Y9240D01*
X7850Y9280D01*
X7770Y9240D01*
Y8965D02*
X7810Y9045D01*
X7770Y9125D01*
X7850Y9085D01*
X7930Y9125D01*
X7890Y9045D01*
X7930Y8965D01*
X7850Y9005D01*
X7770Y8965D01*
Y8689D02*
X7810Y8769D01*
X7770Y8849D01*
X7850Y8809D01*
X7930Y8849D01*
X7890Y8769D01*
X7930Y8689D01*
X7850Y8729D01*
X7770Y8689D01*
X7820Y7070D02*
X7860Y7150D01*
X7820Y7230D01*
X7900Y7190D01*
X7980Y7230D01*
X7940Y7150D01*
X7980Y7070D01*
X7900Y7110D01*
X7820Y7070D01*
X9120Y7920D02*
X9160Y8000D01*
X9120Y8080D01*
X9200Y8040D01*
X9280Y8080D01*
X9240Y8000D01*
X9280Y7920D01*
X9200Y7960D01*
X9120Y7920D01*
X14570Y5870D02*
X14610Y5950D01*
X14570Y6030D01*
X14650Y5990D01*
X14730Y6030D01*
X14690Y5950D01*
X14730Y5870D01*
X14650Y5910D01*
X14570Y5870D01*
X14520Y5120D02*
X14560Y5200D01*
X14520Y5280D01*
X14600Y5240D01*
X14680Y5280D01*
X14640Y5200D01*
X14680Y5120D01*
X14600Y5160D01*
X14520Y5120D01*
X16020Y10770D02*
X16060Y10850D01*
X16020Y10930D01*
X16100Y10890D01*
X16180Y10930D01*
X16140Y10850D01*
X16180Y10770D01*
X16100Y10810D01*
X16020Y10770D01*
X16820Y9370D02*
X16860Y9450D01*
X16820Y9530D01*
X16900Y9490D01*
X16980Y9530D01*
X16940Y9450D01*
X16980Y9370D01*
X16900Y9410D01*
X16820Y9370D01*
X15765Y6015D02*
X15805Y6095D01*
X15765Y6175D01*
X15845Y6135D01*
X15925Y6175D01*
X15885Y6095D01*
X15925Y6015D01*
X15845Y6055D01*
X15765Y6015D01*
X16220Y4420D02*
X16260Y4500D01*
X16220Y4580D01*
X16300Y4540D01*
X16380Y4580D01*
X16340Y4500D01*
X16380Y4420D01*
X16300Y4460D01*
X16220Y4420D01*
X15970Y6444D02*
X16010Y6524D01*
X15970Y6604D01*
X16050Y6564D01*
X16130Y6604D01*
X16090Y6524D01*
X16130Y6444D01*
X16050Y6484D01*
X15970Y6444D01*
X4520Y3820D02*
X4560Y3900D01*
X4520Y3980D01*
X4600Y3940D01*
X4680Y3980D01*
X4640Y3900D01*
X4680Y3820D01*
X4600Y3860D01*
X4520Y3820D01*
X5770Y5320D02*
X5810Y5400D01*
X5770Y5480D01*
X5850Y5440D01*
X5930Y5480D01*
X5890Y5400D01*
X5930Y5320D01*
X5850Y5360D01*
X5770Y5320D01*
X6070D02*
X6110Y5400D01*
X6070Y5480D01*
X6150Y5440D01*
X6230Y5480D01*
X6190Y5400D01*
X6230Y5320D01*
X6150Y5360D01*
X6070Y5320D01*
X12378Y4720D02*
X12418Y4800D01*
X12378Y4880D01*
X12458Y4840D01*
X12538Y4880D01*
X12498Y4800D01*
X12538Y4720D01*
X12458Y4760D01*
X12378Y4720D01*
X12772Y4770D02*
X12812Y4850D01*
X12772Y4930D01*
X12852Y4890D01*
X12932Y4930D01*
X12892Y4850D01*
X12932Y4770D01*
X12852Y4810D01*
X12772Y4770D01*
X375Y5270D02*
X415D01*
X455Y5310D01*
X495Y5270D01*
X535D01*
Y5310D01*
X495Y5350D01*
X535Y5390D01*
Y5430D01*
X495D01*
X455Y5390D01*
X415Y5430D01*
X375D01*
Y5390D01*
X415Y5350D01*
X375Y5310D01*
Y5270D01*
X5920Y8020D02*
X5960D01*
X6000Y8060D01*
X6040Y8020D01*
X6080D01*
Y8060D01*
X6040Y8100D01*
X6080Y8140D01*
Y8180D01*
X6040D01*
X6000Y8140D01*
X5960Y8180D01*
X5920D01*
Y8140D01*
X5960Y8100D01*
X5920Y8060D01*
Y8020D01*
X1970Y4570D02*
X2010D01*
X2050Y4610D01*
X2090Y4570D01*
X2130D01*
Y4610D01*
X2090Y4650D01*
X2130Y4690D01*
Y4730D01*
X2090D01*
X2050Y4690D01*
X2010Y4730D01*
X1970D01*
Y4690D01*
X2010Y4650D01*
X1970Y4610D01*
Y4570D01*
X1670Y4270D02*
X1710D01*
X1750Y4310D01*
X1790Y4270D01*
X1830D01*
Y4310D01*
X1790Y4350D01*
X1830Y4390D01*
Y4430D01*
X1790D01*
X1750Y4390D01*
X1710Y4430D01*
X1670D01*
Y4390D01*
X1710Y4350D01*
X1670Y4310D01*
Y4270D01*
X5920Y7220D02*
X5960D01*
X6000Y7260D01*
X6040Y7220D01*
X6080D01*
Y7260D01*
X6040Y7300D01*
X6080Y7340D01*
Y7380D01*
X6040D01*
X6000Y7340D01*
X5960Y7380D01*
X5920D01*
Y7340D01*
X5960Y7300D01*
X5920Y7260D01*
Y7220D01*
X1920Y4920D02*
X1960D01*
X2000Y4960D01*
X2040Y4920D01*
X2080D01*
Y4960D01*
X2040Y5000D01*
X2080Y5040D01*
Y5080D01*
X2040D01*
X2000Y5040D01*
X1960Y5080D01*
X1920D01*
Y5040D01*
X1960Y5000D01*
X1920Y4960D01*
Y4920D01*
X1770Y5570D02*
X1810D01*
X1850Y5610D01*
X1890Y5570D01*
X1930D01*
Y5610D01*
X1890Y5650D01*
X1930Y5690D01*
Y5730D01*
X1890D01*
X1850Y5690D01*
X1810Y5730D01*
X1770D01*
Y5690D01*
X1810Y5650D01*
X1770Y5610D01*
Y5570D01*
X1620Y5870D02*
X1660D01*
X1700Y5910D01*
X1740Y5870D01*
X1780D01*
Y5910D01*
X1740Y5950D01*
X1780Y5990D01*
Y6030D01*
X1740D01*
X1700Y5990D01*
X1660Y6030D01*
X1620D01*
Y5990D01*
X1660Y5950D01*
X1620Y5910D01*
Y5870D01*
X1520Y5270D02*
X1560D01*
X1600Y5310D01*
X1640Y5270D01*
X1680D01*
Y5310D01*
X1640Y5350D01*
X1680Y5390D01*
Y5430D01*
X1640D01*
X1600Y5390D01*
X1560Y5430D01*
X1520D01*
Y5390D01*
X1560Y5350D01*
X1520Y5310D01*
Y5270D01*
X3620Y6420D02*
X3660D01*
X3700Y6460D01*
X3740Y6420D01*
X3780D01*
Y6460D01*
X3740Y6500D01*
X3780Y6540D01*
Y6580D01*
X3740D01*
X3700Y6540D01*
X3660Y6580D01*
X3620D01*
Y6540D01*
X3660Y6500D01*
X3620Y6460D01*
Y6420D01*
X3870Y6165D02*
X3910D01*
X3950Y6205D01*
X3990Y6165D01*
X4030D01*
Y6205D01*
X3990Y6245D01*
X4030Y6285D01*
Y6325D01*
X3990D01*
X3950Y6285D01*
X3910Y6325D01*
X3870D01*
Y6285D01*
X3910Y6245D01*
X3870Y6205D01*
Y6165D01*
X1395Y4278D02*
X1435Y4318D01*
X1475D01*
X1435Y4358D01*
X1475Y4398D01*
X1435D01*
X1395Y4438D01*
X1355Y4398D01*
X1315D01*
X1355Y4358D01*
X1315Y4318D01*
X1355D01*
X1395Y4278D01*
Y4318D02*
X1415Y4338D01*
X1435D01*
X1415Y4358D01*
X1435Y4378D01*
X1415D01*
X1395Y4398D01*
X1375Y4378D01*
X1355D01*
X1375Y4358D01*
X1355Y4338D01*
X1375D01*
X1395Y4318D01*
Y6562D02*
X1435Y6602D01*
X1475D01*
X1435Y6642D01*
X1475Y6682D01*
X1435D01*
X1395Y6722D01*
X1355Y6682D01*
X1315D01*
X1355Y6642D01*
X1315Y6602D01*
X1355D01*
X1395Y6562D01*
Y6602D02*
X1415Y6622D01*
X1435D01*
X1415Y6642D01*
X1435Y6662D01*
X1415D01*
X1395Y6682D01*
X1375Y6662D01*
X1355D01*
X1375Y6642D01*
X1355Y6622D01*
X1375D01*
X1395Y6602D01*
X1820Y6220D02*
X1860D01*
X1900Y6260D01*
X1940Y6220D01*
X1980D01*
Y6260D01*
X1940Y6300D01*
X1980Y6340D01*
Y6380D01*
X1940D01*
X1900Y6340D01*
X1860Y6380D01*
X1820D01*
Y6340D01*
X1860Y6300D01*
X1820Y6260D01*
Y6220D01*
Y6570D02*
X1860D01*
X1900Y6610D01*
X1940Y6570D01*
X1980D01*
Y6610D01*
X1940Y6650D01*
X1980Y6690D01*
Y6730D01*
X1940D01*
X1900Y6690D01*
X1860Y6730D01*
X1820D01*
Y6690D01*
X1860Y6650D01*
X1820Y6610D01*
Y6570D01*
X18090Y4278D02*
X18130Y4318D01*
X18170D01*
X18130Y4358D01*
X18170Y4398D01*
X18130D01*
X18090Y4438D01*
X18050Y4398D01*
X18010D01*
X18050Y4358D01*
X18010Y4318D01*
X18050D01*
X18090Y4278D01*
Y4318D02*
X18110Y4338D01*
X18130D01*
X18110Y4358D01*
X18130Y4378D01*
X18110D01*
X18090Y4398D01*
X18070Y4378D01*
X18050D01*
X18070Y4358D01*
X18050Y4338D01*
X18070D01*
X18090Y4318D01*
Y6562D02*
X18130Y6602D01*
X18170D01*
X18130Y6642D01*
X18170Y6682D01*
X18130D01*
X18090Y6722D01*
X18050Y6682D01*
X18010D01*
X18050Y6642D01*
X18010Y6602D01*
X18050D01*
X18090Y6562D01*
Y6602D02*
X18110Y6622D01*
X18130D01*
X18110Y6642D01*
X18130Y6662D01*
X18110D01*
X18090Y6682D01*
X18070Y6662D01*
X18050D01*
X18070Y6642D01*
X18050Y6622D01*
X18070D01*
X18090Y6602D01*
D126*
X2006Y2769D02*
G03*
X2006Y2769I-80J0D01*
G01*
X5411D02*
G03*
X5411Y2769I-80J0D01*
G01*
X7130Y7250D02*
G03*
X7130Y7250I-80J0D01*
G01*
X6630Y4950D02*
G03*
X6630Y4950I-80J0D01*
G01*
X11130Y2450D02*
G03*
X11130Y2450I-80J0D01*
G01*
D127*
X7090Y7250D02*
G03*
X7090Y7250I-40J0D01*
G01*
X6590Y4950D02*
G03*
X6590Y4950I-40J0D01*
G01*
X11090Y2450D02*
G03*
X11090Y2450I-40J0D01*
G01*
M02*
