G04*
G04 #@! TF.GenerationSoftware,Altium Limited,Altium Designer,22.0.2 (36)*
G04*
G04 Layer_Color=8388736*
%FSLAX24Y24*%
%MOIN*%
G70*
G04*
G04 #@! TF.SameCoordinates,D7CE2511-F244-4390-A2D0-A891EFF9428C*
G04*
G04*
G04 #@! TF.FilePolarity,Negative*
G04*
G01*
G75*
%ADD10C,0.0100*%
%ADD15C,0.0002*%
%ADD23R,0.0434X0.0395*%
%ADD24O,0.0328X0.0814*%
%ADD25R,0.0358X0.0380*%
G04:AMPARAMS|DCode=26|XSize=23.7mil|YSize=145.8mil|CornerRadius=7.9mil|HoleSize=0mil|Usage=FLASHONLY|Rotation=270.000|XOffset=0mil|YOffset=0mil|HoleType=Round|Shape=RoundedRectangle|*
%AMROUNDEDRECTD26*
21,1,0.0237,0.1299,0,0,270.0*
21,1,0.0079,0.1458,0,0,270.0*
1,1,0.0159,-0.0650,-0.0039*
1,1,0.0159,-0.0650,0.0039*
1,1,0.0159,0.0650,0.0039*
1,1,0.0159,0.0650,-0.0039*
%
%ADD26ROUNDEDRECTD26*%
%ADD27R,0.0380X0.0358*%
%ADD28O,0.2197X0.0828*%
%ADD29R,0.0700X0.0345*%
%ADD30R,0.0355X0.0355*%
%ADD31R,0.0720X0.0625*%
%ADD32R,0.0710X0.0474*%
%ADD33O,0.0512X0.0748*%
%ADD34O,0.0512X0.0827*%
%ADD35C,0.0592*%
%ADD36C,0.1104*%
G36*
X9270Y6081D02*
X9271Y6081D01*
X9288Y6081D01*
X9289Y6080D01*
X9289Y6080D01*
X9307Y6079D01*
X9307Y6079D01*
X9308Y6079D01*
X9325Y6077D01*
X9325Y6077D01*
X9326Y6077D01*
X9343Y6074D01*
X9344Y6074D01*
X9344Y6074D01*
X9361Y6070D01*
X9362Y6070D01*
X9362Y6070D01*
X9379Y6066D01*
X9380Y6065D01*
X9380Y6065D01*
X9397Y6060D01*
X9397Y6060D01*
X9398Y6060D01*
X9414Y6054D01*
X9415Y6054D01*
X9415Y6053D01*
X9431Y6047D01*
X9432Y6046D01*
X9432Y6046D01*
X9448Y6039D01*
X9448Y6038D01*
X9449Y6038D01*
X9464Y6030D01*
X9464Y6030D01*
X9465Y6029D01*
X9480Y6020D01*
X9480Y6020D01*
X9481Y6020D01*
X9495Y6010D01*
X9496Y6010D01*
X9496Y6010D01*
X9510Y5999D01*
X9511Y5999D01*
X9511Y5999D01*
X9525Y5988D01*
X9525Y5987D01*
X9525Y5987D01*
X9538Y5976D01*
X9539Y5975D01*
X9539Y5975D01*
X9552Y5963D01*
X9552Y5962D01*
X9552Y5962D01*
X9564Y5949D01*
X9565Y5949D01*
X9565Y5948D01*
X9576Y5935D01*
X9576Y5935D01*
X9577Y5934D01*
X9587Y5920D01*
X9588Y5920D01*
X9588Y5920D01*
X9598Y5905D01*
X9598Y5905D01*
X9599Y5905D01*
X9608Y5890D01*
X9608Y5889D01*
X9608Y5889D01*
X9617Y5874D01*
X9617Y5873D01*
X9617Y5873D01*
X9625Y5857D01*
X9626Y5857D01*
X9626Y5856D01*
X9633Y5840D01*
X9633Y5840D01*
X9633Y5840D01*
X9640Y5823D01*
X9640Y5823D01*
X9640Y5822D01*
X9646Y5806D01*
X9646Y5805D01*
X9646Y5805D01*
X9651Y5788D01*
X9651Y5788D01*
X9651Y5787D01*
X9655Y5770D01*
X9655Y5770D01*
X9655Y5769D01*
X9659Y5752D01*
X9659Y5751D01*
X9659Y5751D01*
X9661Y5734D01*
X9661Y5733D01*
X9661Y5733D01*
X9663Y5715D01*
X9663Y5715D01*
X9663Y5714D01*
X9664Y5697D01*
X9664Y5696D01*
X9664Y5696D01*
Y5678D01*
X9664Y5678D01*
X9664Y5677D01*
X9663Y5660D01*
X9663Y5659D01*
X9663Y5659D01*
X9661Y5642D01*
X9661Y5641D01*
X9661Y5641D01*
X9659Y5623D01*
X9659Y5623D01*
X9659Y5622D01*
X9655Y5605D01*
X9655Y5605D01*
X9655Y5604D01*
X9651Y5587D01*
X9651Y5587D01*
X9651Y5586D01*
X9646Y5569D01*
X9646Y5569D01*
X9646Y5569D01*
X9640Y5552D01*
X9640Y5551D01*
X9640Y5551D01*
X9633Y5535D01*
X9633Y5534D01*
X9633Y5534D01*
X9626Y5518D01*
X9626Y5517D01*
X9625Y5517D01*
X9617Y5501D01*
X9617Y5501D01*
X9617Y5501D01*
X9608Y5485D01*
X9608Y5485D01*
X9608Y5485D01*
X9599Y5470D01*
X9598Y5469D01*
X9598Y5469D01*
X9588Y5455D01*
X9588Y5454D01*
X9587Y5454D01*
X9577Y5440D01*
X9576Y5440D01*
X9576Y5439D01*
X9565Y5426D01*
X9565Y5425D01*
X9564Y5425D01*
X9552Y5412D01*
X9552Y5412D01*
X9552Y5412D01*
X9539Y5399D01*
X9539Y5399D01*
X9538Y5399D01*
X9525Y5387D01*
X9525Y5387D01*
X9525Y5386D01*
X9511Y5375D01*
X9511Y5375D01*
X9510Y5375D01*
X9496Y5365D01*
X9496Y5364D01*
X9495Y5364D01*
X9481Y5354D01*
X9480Y5354D01*
X9480Y5354D01*
X9465Y5345D01*
X9464Y5345D01*
X9464Y5344D01*
X9449Y5336D01*
X9448Y5336D01*
X9448Y5336D01*
X9432Y5328D01*
X9432Y5328D01*
X9431Y5328D01*
X9415Y5321D01*
X9415Y5321D01*
X9414Y5321D01*
X9398Y5315D01*
X9397Y5314D01*
X9397Y5314D01*
X9380Y5309D01*
X9380Y5309D01*
X9379Y5309D01*
X9362Y5304D01*
X9362Y5304D01*
X9361Y5304D01*
X9344Y5300D01*
X9344Y5300D01*
X9343Y5300D01*
X9326Y5297D01*
X9325Y5297D01*
X9325Y5297D01*
X9308Y5295D01*
X9307Y5295D01*
X9307Y5295D01*
X9289Y5294D01*
X9289Y5294D01*
X9288Y5294D01*
X9271Y5293D01*
X9270Y5293D01*
X9270Y5293D01*
X8540D01*
X8540Y5293D01*
X8540Y5293D01*
X8522Y5294D01*
X8522Y5294D01*
X8521Y5294D01*
X8504Y5295D01*
X8503Y5295D01*
X8503Y5295D01*
X8486Y5297D01*
X8485Y5297D01*
X8485Y5297D01*
X8467Y5300D01*
X8467Y5300D01*
X8466Y5300D01*
X8449Y5304D01*
X8449Y5304D01*
X8448Y5304D01*
X8431Y5309D01*
X8431Y5309D01*
X8430Y5309D01*
X8414Y5314D01*
X8413Y5314D01*
X8413Y5315D01*
X8396Y5321D01*
X8396Y5321D01*
X8396Y5321D01*
X8379Y5328D01*
X8379Y5328D01*
X8379Y5328D01*
X8363Y5336D01*
X8362Y5336D01*
X8362Y5336D01*
X8346Y5344D01*
X8346Y5345D01*
X8346Y5345D01*
X8331Y5354D01*
X8330Y5354D01*
X8330Y5354D01*
X8315Y5364D01*
X8315Y5364D01*
X8314Y5365D01*
X8300Y5375D01*
X8300Y5375D01*
X8300Y5375D01*
X8286Y5386D01*
X8286Y5387D01*
X8285Y5387D01*
X8272Y5399D01*
X8272Y5399D01*
X8271Y5399D01*
X8259Y5412D01*
X8259Y5412D01*
X8258Y5412D01*
X8246Y5425D01*
X8246Y5425D01*
X8246Y5426D01*
X8234Y5439D01*
X8234Y5440D01*
X8234Y5440D01*
X8223Y5454D01*
X8223Y5454D01*
X8222Y5455D01*
X8212Y5469D01*
X8212Y5469D01*
X8212Y5470D01*
X8203Y5485D01*
X8202Y5485D01*
X8202Y5485D01*
X8193Y5501D01*
X8193Y5501D01*
X8193Y5501D01*
X8185Y5517D01*
X8185Y5517D01*
X8185Y5518D01*
X8184Y5519D01*
X8184Y5521D01*
X8184Y5521D01*
X8183Y5522D01*
X8180Y5537D01*
X7527D01*
X7523Y5538D01*
X7520Y5539D01*
X7516Y5541D01*
X7513Y5543D01*
X7511Y5546D01*
X7509Y5550D01*
X7508Y5553D01*
X7508Y5557D01*
Y5817D01*
X7508Y5821D01*
X7509Y5825D01*
X7511Y5828D01*
X7513Y5831D01*
X7516Y5833D01*
X7520Y5835D01*
X7523Y5836D01*
X7527Y5837D01*
X8180D01*
X8183Y5853D01*
X8184Y5853D01*
X8184Y5854D01*
X8184Y5855D01*
X8185Y5856D01*
X8185Y5857D01*
X8185Y5857D01*
X8193Y5873D01*
X8193Y5873D01*
X8193Y5874D01*
X8202Y5889D01*
X8202Y5889D01*
X8203Y5890D01*
X8212Y5905D01*
X8212Y5905D01*
X8212Y5905D01*
X8222Y5920D01*
X8223Y5920D01*
X8223Y5920D01*
X8234Y5934D01*
X8234Y5935D01*
X8234Y5935D01*
X8246Y5948D01*
X8246Y5949D01*
X8246Y5949D01*
X8258Y5962D01*
X8259Y5962D01*
X8259Y5963D01*
X8271Y5975D01*
X8272Y5975D01*
X8272Y5976D01*
X8285Y5987D01*
X8286Y5987D01*
X8286Y5988D01*
X8300Y5999D01*
X8300Y5999D01*
X8300Y5999D01*
X8314Y6010D01*
X8315Y6010D01*
X8315Y6010D01*
X8330Y6020D01*
X8330Y6020D01*
X8331Y6020D01*
X8346Y6029D01*
X8346Y6030D01*
X8346Y6030D01*
X8362Y6038D01*
X8362Y6038D01*
X8363Y6039D01*
X8379Y6046D01*
X8379Y6046D01*
X8379Y6047D01*
X8396Y6053D01*
X8396Y6054D01*
X8396Y6054D01*
X8413Y6060D01*
X8413Y6060D01*
X8414Y6060D01*
X8430Y6065D01*
X8431Y6065D01*
X8431Y6066D01*
X8448Y6070D01*
X8449Y6070D01*
X8449Y6070D01*
X8466Y6074D01*
X8467Y6074D01*
X8467Y6074D01*
X8485Y6077D01*
X8485Y6077D01*
X8486Y6077D01*
X8503Y6079D01*
X8503Y6079D01*
X8504Y6079D01*
X8521Y6080D01*
X8522Y6080D01*
X8522Y6081D01*
X8540Y6081D01*
X8540Y6081D01*
X8540Y6081D01*
X9270D01*
X9270Y6081D01*
D02*
G37*
D10*
X387Y19685D02*
G03*
X-6Y19291I0J-394D01*
G01*
Y394D02*
G03*
X387Y0I394J0D01*
G01*
X20072D02*
G03*
X20466Y394I0J394D01*
G01*
Y19291D02*
G03*
X20072Y19685I-394J0D01*
G01*
X7687Y13780D02*
G03*
X8081Y13386I394J0D01*
G01*
X12395D02*
G03*
X12789Y13780I0J394D01*
G01*
X13183Y19685D02*
G03*
X12789Y19291I0J-394D01*
G01*
X7687D02*
G03*
X7294Y19685I-394J0D01*
G01*
X-6Y394D02*
Y19291D01*
X20466Y394D02*
Y19291D01*
X387Y19685D02*
X7294Y19685D01*
X387Y0D02*
X20072D01*
X13183Y19685D02*
X20072D01*
X8082Y13386D02*
X12395D01*
X12789Y13770D02*
Y19306D01*
X7687Y13782D02*
Y19291D01*
D15*
X2629Y2564D02*
G03*
X2629Y2564I-138J0D01*
G01*
X4904D02*
G03*
X4904Y2564I-138J0D01*
G01*
D23*
X1200Y2426D02*
D03*
Y1874D02*
D03*
X14287Y5726D02*
D03*
Y5174D02*
D03*
X7037Y5976D02*
D03*
Y5424D02*
D03*
D24*
X2879Y744D02*
D03*
X3379D02*
D03*
X3879D02*
D03*
X4379D02*
D03*
X2879Y2856D02*
D03*
X3379D02*
D03*
X3879D02*
D03*
X4379D02*
D03*
D25*
X3560Y15790D02*
D03*
X4153D02*
D03*
D26*
X6937Y10423D02*
D03*
Y10698D02*
D03*
Y9596D02*
D03*
Y9872D02*
D03*
Y8769D02*
D03*
Y9045D02*
D03*
Y7943D02*
D03*
Y8218D02*
D03*
Y10974D02*
D03*
Y7667D02*
D03*
Y8494D02*
D03*
Y9320D02*
D03*
Y10147D02*
D03*
D27*
X13387Y5747D02*
D03*
Y5153D02*
D03*
X12458Y5747D02*
D03*
Y5153D02*
D03*
X9391Y12253D02*
D03*
Y12847D02*
D03*
X10891Y12253D02*
D03*
Y12847D02*
D03*
X12391Y12253D02*
D03*
Y12847D02*
D03*
D28*
X8905Y5687D02*
D03*
D29*
X7837Y5100D02*
D03*
Y6281D02*
D03*
D30*
X8739Y12885D02*
D03*
X8741Y12255D02*
D03*
X10237Y12885D02*
D03*
X10239Y12255D02*
D03*
X11739Y12885D02*
D03*
X11741Y12255D02*
D03*
D31*
X8350Y3023D02*
D03*
Y4277D02*
D03*
D32*
X17840Y7172D02*
D03*
X15635D02*
D03*
X17840Y8628D02*
D03*
X15635D02*
D03*
X17840Y9722D02*
D03*
X15635D02*
D03*
X17840Y11178D02*
D03*
X15635D02*
D03*
D33*
X1926Y1115D02*
D03*
X5331D02*
D03*
D34*
X1926Y2769D02*
D03*
X5331D02*
D03*
D35*
X2200Y10875D02*
D03*
Y11850D02*
D03*
Y12825D02*
D03*
Y13800D02*
D03*
Y9900D02*
D03*
D36*
X19685Y787D02*
D03*
X787D02*
D03*
X19685Y18898D02*
D03*
X787D02*
D03*
M02*
