M48
;Layer_Color=9474304
;FILE_FORMAT=2:4
INCH,LZ
;TYPE=PLATED
T1F00S00C0.0120
T2F00S00C0.0160
T3F00S00C0.0180
T4F00S00C0.0200
T5F00S00C0.0220
T7F00S00C0.0260
T8F00S00C0.0276
T9F00S00C0.0300
T10F00S00C0.0354
T11F00S00C0.0866
%
T01
X0085Y00085
X008541Y002003
Y002397
X008934
Y002003
X00985Y00085
X01085Y00335
X01125
X01285Y00305
X01375
X0149
X01511Y003268
X01475Y002276
X0154Y002
X0152Y00135
X0156Y001
X0137Y00105
X0071Y00245
X006Y0025
Y00225
Y00275
X005331Y00215
X004379Y0021
X003879Y0023
X00315Y00195
X00235Y001639
X001913Y00215
X00085Y002426
X00353Y00335
X003924
X0032Y00385
X0046Y0039
X00585Y0054
X00615
X006071Y00645
X0069Y0063
X0079Y00655
Y00715
X00785Y008218
Y008494
Y008769
Y009045
Y00932
X007791Y010641
X00795Y011376
X00705Y0131
X00655Y01435
X00535
X00355Y01425
X00325Y0147
X0037Y01525
X004
X005341Y016941
X00605Y0166
X0067Y0178
X00475Y01825
X0027Y0182
X0012Y0169
Y01615
X00065Y0144
X00515Y01255
Y01155
Y01115
X004702Y010152
X006Y01025
X006099Y009882
X006123Y009623
X0034Y0086
X0021Y0077
X0076Y00485
Y00465
X0078Y00485
X01015Y0061
X01035Y0059
X00995Y0063
X010451Y006995
X010419Y007269
X0115Y0073
X01195Y00725
X01245Y00745
X0126Y007
X01195Y0064
X011909Y006091
X01185Y0058
X012458Y0048
X01265Y0046
X012261
X012852Y00485
X01455Y0046
X0146Y0052
Y005685
X01465Y00595
X0145Y00645
X01605Y006524
X015845Y006095
X0163Y0045
X01725Y00455
X01885Y00475
Y00505
Y00535
X0192Y00445
X01975
X0201Y00475
Y00505
Y00535
X02015Y00615
Y00735
X017535Y006769
X016865Y00845
X0169Y00945
X01595Y00925
Y00815
X0161Y01085
X01565Y0124
X0152Y01225
X0145Y0119
X0144Y0116
X0132Y01225
X012395Y01195
X01095
X01135Y00875
X012065Y00895
X012261Y00915
X012458Y00935
X012655Y00955
X0137Y0075
X0093Y0071
X0092Y008
X0134Y01335
X0152Y0134
X015328Y01565
X016322
X01715Y0163
X01695Y01775
X0187Y01665
Y01575
X01915Y01225
Y01165
Y011
T02
X002879Y00165
X004574Y00335
X00395Y006245
X0037Y0065
X00395Y0068
X00425Y00725
X005128Y0076
X006Y0073
Y0081
X0019Y00695
Y00665
Y0063
X0017Y00595
X00185Y00565
X0016Y00535
X002Y005
X00205Y00465
X00175Y00435
X000455Y00535
T03
X0115Y0013
X0122
X00435Y00425
X00785Y01015
X0142Y0135
T04
X0042Y008586
X00455Y00935
T05
X01105Y00245
X00655Y00495
X00705Y00725
T07
X00855Y00465
X01385Y01095
T08
X001395Y004358
Y006642
X01809
Y004358
T09
X00935Y00665
T10
X0022Y0099
Y010875
Y01185
Y012825
Y0138
T11
X019685Y000787
X000787
Y018898
X019685
M30
